<?xml version="1.0" encoding="utf-8"?>
<!-- Generator: Adobe Illustrator 22.0.1, SVG Export Plug-In . SVG Version: 6.00 Build 0)  -->
<svg version="1.1" xmlns="http://www.w3.org/2000/svg" xmlns:xlink="http://www.w3.org/1999/xlink" x="0px" y="0px"
	 viewBox="0 0 1840 860" style="enable-background:new 0 0 1840 860;" xml:space="preserve">
<style type="text/css">
	.st0{fill:#FCC638;stroke:#000000;stroke-miterlimit:10;}
	.st1{fill:#BFDDA1;stroke:#000000;stroke-miterlimit:10;}
	.st2{fill:#EF5B49;stroke:#000000;stroke-miterlimit:10;}
	.st3{fill:#C1C5E8;stroke:#000000;stroke-miterlimit:10;}
	.st4{fill:#F8A079;stroke:#000000;stroke-miterlimit:10;}
	.st5{fill:#E7E7E7;}
	.st6{fill:#E7E7E7;stroke:#000000;stroke-miterlimit:10;}
	.st7{fill:none;stroke:#000000;stroke-miterlimit:10;}
	.st8{fill:none;}
	.st9{font-family:'WorkSans-Regular';}
	.st10{font-size:72px;}
	.st11{display:none;}
	.st12{display:inline;fill:#F8A079;stroke:#000000;stroke-miterlimit:10;}
	.st13{display:inline;fill:#F2F2F2;stroke:#000000;stroke-miterlimit:10;}
	.st14{display:inline;}
	.st15{fill:#CFD9C5;stroke:#000000;stroke-miterlimit:10;}
	.st16{display:inline;fill:#EF5B49;stroke:#000000;stroke-miterlimit:10;}
	.st17{display:inline;fill:none;stroke:#000000;stroke-miterlimit:10;}
	.st18{display:inline;fill:#E8E7E7;stroke:#000000;stroke-miterlimit:10;}
	.st19{display:inline;fill:#CFD9C5;stroke:#000000;stroke-miterlimit:10;}
</style>
<g id="Layer_2">
</g>
<g id="Layer_5">
	<rect x="35" y="37.6" class="st0" width="244.1" height="244.1"/>
	<rect x="340.1" y="38.1" class="st1" width="244.1" height="244.1"/>
	<rect x="645.2" y="38.6" class="st2" width="244.1" height="244.1"/>
	<rect x="950.2" y="39.1" class="st3" width="244.1" height="244.1"/>
	<rect x="1255.3" y="39.6" class="st0" width="244.1" height="244.1"/>
	<rect x="1560.4" y="40.1" class="st4" width="244.1" height="244.1"/>
	<rect x="35" y="306.6" class="st1" width="244.1" height="244.1"/>
	<rect x="340.1" y="307.1" class="st3" width="244.1" height="244.1"/>
	<rect x="645.2" y="307.6" class="st4" width="244.1" height="244.1"/>
	<rect x="950.2" y="308.1" class="st2" width="244.1" height="244.1"/>
	<rect x="1255.3" y="308.6" class="st1" width="244.1" height="244.1"/>
	<rect x="1560.4" y="309.1" class="st1" width="244.1" height="244.1"/>
	<rect x="35" y="576.6" class="st3" width="244.1" height="244.1"/>
	<rect x="340.1" y="577.1" class="st0" width="244.1" height="244.1"/>
	<rect x="645.2" y="577.6" class="st2" width="244.1" height="244.1"/>
	<rect x="950.2" y="578.1" class="st4" width="244.1" height="244.1"/>
	<rect x="1255.3" y="578.6" class="st3" width="244.1" height="244.1"/>
	<rect x="1560.4" y="579.1" class="st1" width="244.1" height="244.1"/>
	<g>
		<g>
			<g>
				<path class="st5" d="M1442.1,661.7c0,0,13.2-14.1,17.6-46.8h38.3v163.5l-33.4-0.1c0,0-1-27.8-20.5-46.8"/>
				<path class="st5" d="M1442.9,660.7c0,0,39.7-9.8,39.7,35.6s-34.1,39.9-34.1,39.9s-5.6-5.1-10.3-13.1c-9.4-16.1-7.4-48.4,3-60"/>
				<path class="st5" d="M1459.2,730.4c-33.2,2.4-45.8,0.5-45.8,0.5l-1-70.2c0,0,43.4,1,47.3,2.9"/>
			</g>
			<path class="st6" d="M1363.1,741.2c0,0-2.9,2.9-1.5,5.9c1.5,2.9,13.2,2,17.6-2c0,0,23.4,2,20.5-16.6"/>
			<path class="st6" d="M1364.1,651.7c0,0-2.9-2.9-1.5-5.9c1.5-2.9,13.2-2,17.6,2c0,0,23.4-2,20.5,16.6"/>
			<g>
				<path class="st6" d="M1444.1,731.4c19.5,19,20.5,46.8,20.5,46.8s0.2,44.1,35.2,44.1v-244c-37,0-40,36.5-40,36.5
					c-4.4,32.7-17.6,46.8-17.6,46.8"/>
				<path class="st6" d="M1448.5,736.2c0,0,34.1,5.5,34.1-39.9s-39.7-35.6-39.7-35.6"/>
				<path class="st6" d="M1412.4,660.7c0,0,43.4,1,47.3,2.9"/>
				<path class="st6" d="M1413.4,730.9c0,0,12.7,2,45.8-0.5"/>
			</g>
			<path class="st6" d="M1448.5,695.7c0,0,1.9,28.3-43.9,38.5c-9.3,2.1-20.1,5.4-33.7,5.4c0,0-76.6,2.4-76.6-43.9"/>
			<path class="st6" d="M1448.5,696.9c0,0,1.6-29.9-46.8-39.5c-8.8-1.7-18.3-4.4-30.7-4.4c0,0-76.6-2.4-76.6,43.9"/>
			<path class="st6" d="M1369.9,739.9c0,0-20.9,10-35.6,6.6c-14.4-3.4-37.6-13.7-40-47.8c-2.4-34.1,31.9-53.2,45.4-53.2
				c14.1,0,30.8,7,30.8,7s-35.6,1.8-42.5,10.5c-10.2,13.1-7.8,33.2-7.8,33.2s-1,24.4,7.8,33.2
				C1336.8,738.2,1369.9,739.9,1369.9,739.9z"/>
			<path class="st7" d="M1414.8,712.9c0,0,2.4-12.2,2.4-16.6c0-4.4-1.5-13.7-2-15.6"/>
			<path class="st5" d="M1371.4,705.1c0,0-4.9,4.4-4.9,11.7s5.9,10.2,5.9,10.2S1348.5,718.7,1371.4,705.1z"/>
			<path class="st5" d="M1371.4,686.1c0,0-4.9-4.4-4.9-11.7s5.9-10.2,5.9-10.2S1348.5,672.4,1371.4,686.1z"/>
		</g>
		<line class="st7" x1="1379.9" y1="650.4" x2="1390.2" y2="655"/>
		<line class="st7" x1="1378.2" y1="742.2" x2="1384.3" y2="738.6"/>
	</g>
	<rect x="392.5" y="410.6" class="st8" width="158" height="68"/>
	<text transform="matrix(1 0 0 1 392.4896 463.195)" class="st9 st10">BUY</text>
	<rect x="77.5" y="669.6" class="st8" width="158" height="68"/>
	<text transform="matrix(1 0 0 1 77.4896 722.195)" class="st9 st10">BUY</text>
	<rect x="1007.5" y="127.6" class="st8" width="158" height="68"/>
	<text transform="matrix(1 0 0 1 1007.4896 180.195)" class="st9 st10">BUY</text>
</g>
<g id="Layer_3" class="st11">
	<path class="st12" d="M1798.5-135.1c-12.6-12.2-11.4-17.5-19.7-24.5c-18.1-15.3-44.1-7.6-44.6-12.1c-0.4-3.4,14-10.2,29.7-10.8
		c15.1-0.6,24,4.7,25.8,1.8c2.2-3.6-11.6-12-22.4-28.3c-10.8-16.1-9.3-26.1-17.6-54.1c-7.5-25.4-11.8-38.2-18.8-48.5
		c-14.7-21.6-33.2-29.7-31.5-32.5c1.5-2.5,17,1.8,30,11.7c14.7,11.3,17.8,23.4,20.8,22.4c5-1.6,6.1-37.7-13.5-67
		c-15.5-23.2-37.3-32-34.5-38.4c2-4.5,14.9-4.8,25.6-1.6c34.7,10.4,44.9,56.9,53.2,54.8c7.2-1.9-2.3-44.6,2.7-45.9
		c3.4-0.9,13.3,18,17.8,39.6c4.7,22.7,2.1,42-0.2,57.4c-4.3,29.9-12.5,50-10.7,50.7c2.9,1.1,21.1-47.7,27.7-45.9
		c4.3,1.2,2.3,22.7,0.2,35.9c-6.3,39.2-20.2,45.8-18.7,71.8c0.6,9.6,3.9,19.6,10.5,39.6c7.9,23.9,14.7,35.9,11.4,38.4
		C1817.8-117.7,1804.3-129.6,1798.5-135.1z"/>
	<path class="st13" d="M-847.2,129c-134.1,12-308.5,48.1-300.2,78.4c7.5,27.5,162.3,38.9,246.6,45.1c113.1,8.3,324.2,23.9,386-24.5
		c29.7-23.3,18.8-56.6-15-77.4C-600.9,106.9-768,121.9-847.2,129z"/>
	<path class="st13" d="M-708.5,33.6C-784.2,47.9-879,77.5-856,99.4c23.6,22.4,160.2,26.5,224.4,28.5c29.2,0.9,157.5,4,307.8-17.7
		c68.7-9.9,219.5-31.7,211.6-53C-123.8,25.7-482.6-9.3-708.5,33.6z"/>
	<path class="st13" d="M-242-309.8c-49.2-31.4-119.3-21.6-152.7,22.7c-19,25.2-27.6,63.7-13.6,93.7c32.3,69,177.5,79.4,213.1,22.7
		C-172.1-207.4-191.4-277.5-242-309.8z"/>
	<rect x="-1184" y="-878.9" class="st13" width="450" height="802"/>
	<g class="st14">
		<path class="st2" d="M2717,126.5L2717,126.5c-89.7,0-162.5,72.8-162.5,162.5v420.7h325V289C2879.5,199.2,2806.7,126.5,2717,126.5z
			"/>
		<circle class="st15" cx="2827.1" cy="453.5" r="22.8"/>
	</g>
	<rect x="-996.2" y="1393.9" class="st16" width="136.9" height="136.9"/>
	<polyline class="st17" points="-995.5,1393.6 -927.2,1350.5 -859.5,1393.6 	"/>
	<circle class="st18" cx="-926.9" cy="1350.9" r="2.2"/>
	<path class="st19" d="M-989,1476.2l36.6-30.2c2.1-1.8,5.2-1.7,7.3,0.1l34.3,29.8c2.4,2,5.9,1.8,8-0.5l12.9-14.6
		c2.2-2.5,6-2.6,8.3-0.2l15.4,15.6l0,48.6H-989L-989,1476.2z"/>
	<g class="st14">
		<path d="M-928.5,330.6V1196h-1838V330.6H-928.5 M-927.5,329.6h-1840V1197h1840V329.6L-927.5,329.6z"/>
	</g>
</g>
<g id="Layer_1" class="st11">
</g>
<g id="Layer_4" class="st11">
	<g class="st14">
		<defs>
			<rect id="SVGID_1_" x="-1" y="1124.1" width="1842" height="145"/>
		</defs>
		<clipPath id="SVGID_2_">
			<use xlink:href="#SVGID_1_"  style="overflow:visible;"/>
		</clipPath>
		<g style="clip-path:url(#SVGID_2_);">
			
				<text transform="matrix(1 0 0 1 -124.0104 1238.028)" class="st1" style="font-family:'Inconsolata-Bold'; font-size:113.6883px;">BUY BUY BUY BUY BUY BUY BUY BUY BUY BUY BUY</text>
		</g>
		<use xlink:href="#SVGID_1_"  style="overflow:visible;fill:none;stroke:#000000;stroke-miterlimit:10;"/>
	</g>
</g>
</svg>
