<?xml version="1.0" encoding="utf-8"?>
<!-- Generator: Adobe Illustrator 22.0.1, SVG Export Plug-In . SVG Version: 6.00 Build 0)  -->
<svg version="1.1" xmlns="http://www.w3.org/2000/svg" xmlns:xlink="http://www.w3.org/1999/xlink" x="0px" y="0px"
	 viewBox="0 0 1340 630" style="enable-background:new 0 0 1340 630;" xml:space="preserve">
<style type="text/css">
	.st0{fill:#EF5B49;}
	.st1{fill:#F2F2F2;}
	.st2{fill:none;stroke:#000000;stroke-miterlimit:10;}
	.st3{fill:#C1C5E8;}
	.st4{fill:#41B369;stroke:#000000;stroke-miterlimit:10;}
	.st5{fill:#E8E7E7;}
	.st6{fill:#EF5B49;stroke:#000000;stroke-miterlimit:10;}
	.st7{fill:#F2F2F2;stroke:#000000;stroke-miterlimit:10;}
	.st8{clip-path:url(#SVGID_2_);}
	.st9{fill:#E7E7E7;}
	.st10{fill:#333333;}
	.st11{fill:#414143;stroke:#000000;stroke-miterlimit:10;}
</style>
<g id="Layer_2">
	<rect x="-15.5" y="-10.4" class="st0" width="1380" height="305.6"/>
</g>
<g id="Layer_3">
	<g>
		<path class="st1" d="M1305.1,129.2c-1.4-5.5-9.9-11.7-27.6-17.6c-9.5-3.2-21.3-5.2-34.5-8.2c-10.6-2.4-21.9-6.8-34.4-9
			c-11.1-2-22.7-5.1-34.9-6.8c-11.3-1.6-23.6,1.3-35.8,0c-11.5-1.2-23.1-4.2-35.2-5.2c-11.7-0.9-23.3-5.2-35.3-5.8
			c-11.8-0.6-23.6,0.4-35.5,0.2c-11.2-2.5-23.6-3.7-36.7-5.9c-11.7-2-24-3.7-36.9-5.4c-11.9-1.6-24.5-1.2-37.2-2.5
			c-12.1-1.2-24.6-1.1-37.2-1.9c-12.3-0.9-24.6-2.8-37.1-3.3c-12.4-0.5-24.8,0.1-37.2,0c-12.5-0.1-24.9-2.7-37.3-2.4
			c-12.5,0.4-25.2-2.3-37.5-1.4c-12.6,0.9-24.8,5.6-36.9,7.1c-12.7,1.6-24.4,6.7-36.2,9c-10.6,2-22.7,0.1-33.6,3
			C617.1,76,607.1,82,597,85.5c-11.9,4.2-22.2,8.5-30.5,13.2c-14.5,8.2-21.6,14.7-15.2,22.8c4.6,5.8,15.4,8.3,29.9,12.3
			c9.7,2.7,20.2,8.1,32.3,10.1c10.8,1.8,22.4,2.1,33.7,3.4c11.5,1.4,22.9,2.6,33.6,3.6c12.7,1.1,24.5-0.8,33.9,0
			c6,0.5,17.1,8.8,33.1,9.5c9.7,0.4,21.4-5.3,34.1-5.2c9.8,3.2,21.8,5.9,34.8,8.3c11.3,2,23,5.2,35,6.7c12.1,1.5,24.4,0.6,35.7,1.6
			c13.4,1.2,25.6,3.2,35.5,4c6.5,0.5,19.4,5.5,37.7,6.1c10.9,0.4,23.8-3.4,38-3.4c11.7,0,24.5,4.5,38,4.1c12-0.4,24.4-7.3,37.6-8.1
			c12.2-0.8,24.7-1.7,37.7-3c12.3-1.2,25.1-0.4,37.9-2.1c9.4-1.3,20.9-2.2,33.2-4c10.6-1.6,21.4-5.8,32.7-7.7
			c11.2-1.9,23-0.5,33.5-2.8c12-2.5,23.1-5.8,32.3-8.7C1298.5,140.7,1306.7,135.6,1305.1,129.2z"/>
		<path class="st2" d="M1305.1,129.2c-1.4-5.5-9.9-11.7-27.6-17.6c-9.5-3.2-21.3-5.2-34.5-8.2c-10.6-2.4-21.9-6.8-34.4-9
			c-11.1-2-22.7-5.1-34.9-6.8c-11.3-1.6-23.6,1.3-35.8,0c-11.5-1.2-23.1-4.2-35.2-5.2c-11.7-0.9-23.3-5.2-35.3-5.8
			c-11.8-0.6-23.6,0.4-35.5,0.2c-11.2-2.5-23.6-3.7-36.7-5.9c-11.7-2-24-3.7-36.9-5.4c-11.9-1.6-24.5-1.2-37.2-2.5
			c-12.1-1.2-24.6-1.1-37.2-1.9c-12.3-0.9-24.6-2.8-37.1-3.3c-12.4-0.5-24.8,0.1-37.2,0c-12.5-0.1-24.9-2.7-37.3-2.4
			c-12.5,0.4-25.2-2.3-37.5-1.4c-12.6,0.9-24.8,5.6-36.9,7.1c-12.7,1.6-24.4,6.7-36.2,9c-10.6,2-22.7,0.1-33.6,3
			C617.1,76,607.1,82,597,85.5c-11.9,4.2-22.2,8.5-30.5,13.2c-14.5,8.2-21.6,14.7-15.2,22.8c4.6,5.8,15.4,8.3,29.9,12.3
			c9.7,2.7,20.2,8.1,32.3,10.1c10.8,1.8,22.4,2.1,33.7,3.4c11.5,1.4,22.9,2.6,33.6,3.6c12.7,1.1,24.5-0.8,33.9,0
			c6,0.5,17.1,8.8,33.1,9.5c9.7,0.4,21.4-5.3,34.1-5.2c9.8,3.2,21.8,5.9,34.8,8.3c11.3,2,23,5.2,35,6.7c12.1,1.5,24.4,0.6,35.7,1.6
			c13.4,1.2,25.6,3.2,35.5,4c6.5,0.5,19.4,5.5,37.7,6.1c10.9,0.4,23.8-3.4,38-3.4c11.7,0,24.5,4.5,38,4.1c12-0.4,24.4-7.3,37.6-8.1
			c12.2-0.8,24.7-1.7,37.7-3c12.3-1.2,25.1-0.4,37.9-2.1c9.4-1.3,20.9-2.2,33.2-4c10.6-1.6,21.4-5.8,32.7-7.7
			c11.2-1.9,23-0.5,33.5-2.8c12-2.5,23.1-5.8,32.3-8.7C1298.5,140.7,1306.7,135.6,1305.1,129.2z"/>
	</g>
	<g>
		<path class="st1" d="M734,281.3c-2.6-11.7-10.5-21.2-21.2-29.9c-8.7-7.1-18.8-15-31.4-20.4c-10.7-4.6-24.1-4.2-36.8-7.7
			c-11.6-3.2-22.8-9.9-35.5-12.4c-12.1-2.3-25-0.5-37.5-2.2c-12.4-1.7-24.8-2.9-37.1-4c-12.7-1.2-24.8-7.6-36.9-8.4
			c-13.1-0.8-25.8,0-37.5-0.4c-13.8-0.5-26.5,0.9-37.5,0.8c-17.3-0.2-29.8-3.1-36.8-3c-0.2-2.2-0.7-2.3-1.3-4.5
			c-2.4-10.8-10.8-18.4-20.3-26.6c-7.8-6.8-16.7-13.5-28.2-18.8c-9.7-4.5-19.8-10.6-31.4-14.2c-10.6-3.2-22.4-3.3-34.1-5.8
			c-11-2.4-22.3-4.1-33.9-5.9c-11.3-1.8-22.8-2.3-34.2-3.6c-11.5-1.3-22.6-6.1-33.9-7c-11.8-0.9-23.2-3.9-34.3-4.5
			c-12.1-0.6-23.8-1.4-34.5-1.7c-12.9-0.4-24.6,3.4-34.6,3.3c-18.3-0.1-30.9-1.9-34.5-1.8c-4.4,0.1-17.6,3.8-36.5,4.9
			c-10.6,0.6-23.4-3-36.9-1.8c-11.5,1-23.5,5.4-36.2,6.8c-11.9,1.3-24.5-0.6-36.8,1.2c-12.1,1.8-23.3,9.2-35.2,11.4
			c-12.3,2.4-25.8-1.4-37.3,1.5c-12.5,3.2-23.4,10.4-34.1,14.5c-12.7,4.9-25.8,7.7-34.6,13.9c-11.7,8.3-16,21-17.6,32
			c-1.6,10.9,3.1,20.7,10.8,31.2c6.4,8.8,12.2,20.2,21.6,27.8c9.4,7.6,22.2,10.5,31.4,16.3c13.7,8.6,24.5,16.4,29.4,18.9
			c10.8,5.6,21.7,11.7,34.7,15.9c10.9,3.5,23.9,1.7,38,4c11.2,1.8,22.9,10.1,37.1,11c11.5,0.8,24.4,0.9,38.3,1
			c11.7,0.1,24.4-4,38.1-4.4c11.9-0.3,24.5-2.1,38-2.8c12-0.7,25.2,0.2,38.6-0.8c5.9,9.6,12.3,22.3,22.3,30.8
			c9.6,8.1,20.9,15.3,30.7,21.5c14.5,9.2,26.8,16.8,31.9,19.5c9.8,5.1,22.7,3.4,34.2,7.4c9.9,3.4,19.6,9.7,32.1,12
			c10.1,1.9,21.6,1.4,34.2,2.5c10.4,0.9,21.6,2.3,34.1,2.7c10.6,0.3,22,3.9,34.3,3.8c10.7-0.1,21.9-6.2,34.1-6.7
			c10.8-0.4,22.1-0.9,34.2-1.6c10.9-0.7,22.1-2.2,34.1-3.2c10.9-0.8,22.7,2.9,34.5,1.9c13-1.1,25.1-1.2,36.5-1.7
			c13.2-0.6,25.3-4.4,36.5-4.4c13.4,0,25.5,5,36.6,5.2c13.6,0.2,25.8,1.1,36.8,0.6c13.4-0.6,24.1-8.9,35-12.3
			c11.3-3.5,20.1-8.8,30.4-17.3c3.1-2.6,16.5-8.7,27.1-21.4c7-8.4,14.6-18.2,19.2-29C735.1,304.7,736.6,292.7,734,281.3z"/>
		<path class="st2" d="M734,281.3c-2.6-11.7-10.5-21.2-21.2-29.9c-8.7-7.1-18.8-15-31.4-20.4c-10.7-4.6-24.1-4.2-36.8-7.7
			c-11.6-3.2-22.8-9.9-35.5-12.4c-12.1-2.3-25-0.5-37.5-2.2c-12.4-1.7-24.8-2.9-37.1-4c-12.7-1.2-24.8-7.6-36.9-8.4
			c-13.1-0.8-25.8,0-37.5-0.4c-13.8-0.5-26.5,0.9-37.5,0.8c-17.3-0.2-29.8-3.1-36.8-3c-0.2-2.2-0.7-2.3-1.3-4.5
			c-2.4-10.8-10.8-18.4-20.3-26.6c-7.8-6.8-16.7-13.5-28.2-18.8c-9.7-4.5-19.8-10.6-31.4-14.2c-10.6-3.2-22.4-3.3-34.1-5.8
			c-11-2.4-22.3-4.1-33.9-5.9c-11.3-1.8-22.8-2.3-34.2-3.6c-11.5-1.3-22.6-6.1-33.9-7c-11.8-0.9-23.2-3.9-34.3-4.5
			c-12.1-0.6-23.8-1.4-34.5-1.7c-12.9-0.4-24.6,3.4-34.6,3.3c-18.3-0.1-30.9-1.9-34.5-1.8c-4.4,0.1-17.6,3.8-36.5,4.9
			c-10.6,0.6-23.4-3-36.9-1.8c-11.5,1-23.5,5.4-36.2,6.8c-11.9,1.3-24.5-0.6-36.8,1.2c-12.1,1.8-23.3,9.2-35.2,11.4
			c-12.3,2.4-25.8-1.4-37.3,1.5c-12.5,3.2-23.4,10.4-34.1,14.5c-12.7,4.9-25.8,7.7-34.6,13.9c-11.7,8.3-16,21-17.6,32
			c-1.6,10.9,3.1,20.7,10.8,31.2c6.4,8.8,12.2,20.2,21.6,27.8c9.4,7.6,22.2,10.5,31.4,16.3c13.7,8.6,24.5,16.4,29.4,18.9
			c10.8,5.6,21.7,11.7,34.7,15.9c10.9,3.5,23.9,1.7,38,4c11.2,1.8,22.9,10.1,37.1,11c11.5,0.8,24.4,0.9,38.3,1
			c11.7,0.1,24.4-4,38.1-4.4c11.9-0.3,24.5-2.1,38-2.8c12-0.7,25.2,0.2,38.6-0.8c5.9,9.6,12.3,22.3,22.3,30.8
			c9.6,8.1,20.9,15.3,30.7,21.5c14.5,9.2,26.8,16.8,31.9,19.5c9.8,5.1,22.7,3.4,34.2,7.4c9.9,3.4,19.6,9.7,32.1,12
			c10.1,1.9,21.6,1.4,34.2,2.5c10.4,0.9,21.6,2.3,34.1,2.7c10.6,0.3,22,3.9,34.3,3.8c10.7-0.1,21.9-6.2,34.1-6.7
			c10.8-0.4,22.1-0.9,34.2-1.6c10.9-0.7,22.1-2.2,34.1-3.2c10.9-0.8,22.7,2.9,34.5,1.9c13-1.1,25.1-1.2,36.5-1.7
			c13.2-0.6,25.3-4.4,36.5-4.4c13.4,0,25.5,5,36.6,5.2c13.6,0.2,25.8,1.1,36.8,0.6c13.4-0.6,24.1-8.9,35-12.3
			c11.3-3.5,20.1-8.8,30.4-17.3c3.1-2.6,16.5-8.7,27.1-21.4c7-8.4,14.6-18.2,19.2-29C735.1,304.7,736.6,292.7,734,281.3z"/>
	</g>
</g>
<g id="Layer_1">
	<path class="st3" d="M1351.2,638.6V-4.5H-5.2v643.2H1351.2z M678,21.2h643.2V142H678V21.2z M678,156.9h643.2v120.8H678V156.9z
		 M19.9,21.2h643.2V142H19.9V21.2z M19.9,156.9h643.2v120.8H19.9V156.9z"/>
	<g>
		<rect x="678" y="21.2" class="st2" width="643.2" height="120.8"/>
		<rect x="19.9" y="21.2" class="st2" width="643.2" height="120.8"/>
		<rect x="19.9" y="156.9" class="st2" width="643.2" height="120.8"/>
		<rect x="678" y="156.9" class="st2" width="643.2" height="120.8"/>
	</g>
</g>
<g id="Layer_4">
	<path class="st4" d="M1727,253.1c-20.2-15.2-43.2-18-58.2-18.1c-2.8-0.3-7.1-0.2-13.8,1.1c-11.5,2.2-17.4,3.3-18.9,6.7
		c-9.5,3.3-21.8,7.5-36.1,12.3c-34.2,11.5-43.9,14.2-54.6,24c-16.4,15-26.5,38.4-20.8,44.2c3.7,3.8,11.8-2.4,57.4-23.2
		c28.6-13,40.2-17.3,53.7-30.5c4-3.8,7.3-7.7,10.1-11.3c2.8,2,6,3.7,9.1,4.8c3.6,1.3,11.1,3.9,18,0c3.9-2.2,7.4-6.3,8.8-10.7
		c10.6,5.1,22.8,11.3,36.2,18.7c22.3,12.3,32.8,19.5,35,17C1756,284.9,1743.6,265.7,1727,253.1z"/>
	<path class="st4" d="M1235,307.1c12.6,5.2,62.2,27.1,72,72c5.5,25.2-2.3,54.2-10,55c-5.1,0.5-7.1-11.5-26-46
		c-10.7-19.6-20.9-35.5-27-45c-7.2-11.2-13.5-20.5-18-27"/>
	<g>
		<path class="st5" d="M-127.2-205.9c0,11.4-2.7,23.2-6.1,33.5c-3.5,10.6-13.7,17.8-20.3,26.6c-6.6,8.8-10.6,20.7-19.6,27.1
			c-8.9,6.3-20.3,9.6-31,13c-10.3,3.3-21.4,3.4-32.8,3.4c-11.4,0-21.9-2-32.2-5.2c-10.7-3.4-21.5-6.5-30.4-12.8
			c-9-6.4-16.2-15.1-22.8-24c-6.5-8.8-10.7-18.9-14.2-29.4c-3.4-10.2-9.9-20.7-9.9-32.1c0-11.4,4.6-22.5,8-32.7
			c3.5-10.6,10.7-19.2,17.2-28c6.6-8.8,13.3-17.4,22.4-23.8c8.9-6.3,19.2-9.7,29.9-13.1c10.3-3.3,20.6-11,32-11
			c11.4,0,23.5,2.2,33.7,5.4c10.7,3.4,18.8,12.9,27.7,19.3c9,6.4,19,12.2,25.6,21.1c6.5,8.8,10.1,19.7,13.7,30.3
			C-132.9-228.1-127.2-217.2-127.2-205.9z"/>
	</g>
	<polyline class="st5" points="-486,954.1 -999.5,1184.6 -625.5,1179.6 -557.5,1006.6 -265.5,998.6 -379,954.1 	"/>
	<polyline class="st5" points="628,413.1 655.5,457.6 500.5,458.6 529.5,412.6 	"/>
	<path class="st5" d="M523.5,412.6"/>
	<path class="st6" d="M890.5,453.8H673.2h-2.8H453.2v0c0,6.8,5.5,12.4,12.4,12.4h33.3c7.8,0,14.1,6.3,14.1,14.1v163.1h11.4
		l9.3-163.9c0.4-7.5,6.6-13.3,14.1-13.3h122.7h2.8H796c7.5,0,13.6,5.8,14.1,13.3l9.3,163.9h11.4V480.3c0-7.8,6.3-14.1,14.1-14.1
		h33.3C884.9,466.2,890.5,460.6,890.5,453.8L890.5,453.8z"/>
	<polygon class="st6" points="893.5,767.8 676.2,767.8 673.4,767.8 456.2,767.8 456.2,780.2 516,780.2 516,957.4 527.4,957.4 
		527.4,780.2 673.4,780.2 676.2,780.2 822.3,780.2 822.3,957.4 833.7,957.4 833.7,780.2 893.5,780.2 	"/>
	<path class="st6" d="M878.8,631.4l24.5-84.7c1.2-4.2-2-8.5-6.4-8.5h-26.1v-7.5c0-2.9,2.3-5.2,5.2-5.2H979c3.3,0,6.1-2.6,6.2-5.9
		l7.4-155.3c0.2-4.3,3.7-7.7,8-7.7h2.7l0.6,165.3c0,6.9,0.8,13.8,2.4,20.5l21,89H1016l-26.5-79.7c-2.7-8.1-10.3-13.5-18.8-13.5
		l-35.4,0.1c-8.4,0-15.9,5.3-18.6,13.3l-27.8,79.9H878.8z"/>
	<path class="st6" d="M873,429.1c0,13.8-19.8,24.9-44.2,24.9s-44.2-11.2-44.2-24.9H873z"/>
	<path class="st7" d="M741.4,452.7l-12.7-41.2c-0.3-1,0.4-2,1.5-2h37.2c1.1,0,1.8,1,1.5,2l-12.2,41.2c-0.2,0.7-0.8,1.1-1.5,1.1
		h-12.3C742.2,453.8,741.6,453.4,741.4,452.7z"/>
	<path class="st6" d="M763.9,428.6l-7.1,24.1c-0.2,0.7-0.8,1.1-1.5,1.1h-12.3c-0.7,0-1.3-0.5-1.5-1.1l-7.6-24.6"/>
	<g>
		<defs>
			<circle id="SVGID_1_" cx="141.4" cy="280.5" r="114.5"/>
		</defs>
		<use xlink:href="#SVGID_1_"  style="overflow:visible;fill:#EF5B49;"/>
		<clipPath id="SVGID_2_">
			<use xlink:href="#SVGID_1_"  style="overflow:visible;"/>
		</clipPath>
		<g id="Layer_2_1_" class="st8">
			<g>
				<path class="st9" d="M137.6,325.4c-13.3,0-24-10.7-24-24s10.7-24,24-24s24,10.7,24,24S150.8,325.4,137.6,325.4z"/>
				<path d="M137.6,277.8c13,0,23.5,10.5,23.5,23.5s-10.5,23.5-23.5,23.5S114,314.3,114,301.4S124.6,277.8,137.6,277.8 M137.6,276.9
					c-13.6,0-24.5,10.9-24.5,24.5s10.9,24.5,24.5,24.5s24.5-10.9,24.5-24.5S151,276.9,137.6,276.9L137.6,276.9z"/>
			</g>
			<g>
				<path class="st9" d="M161,321.6c-13.3,0-24-10.7-24-24s10.7-24,24-24s24,10.7,24,24S174.3,321.6,161,321.6z"/>
				<path d="M161,274c13,0,23.5,10.5,23.5,23.5S174,321.1,161,321.1s-23.5-10.5-23.5-23.5S148.1,274,161,274 M161,273.1
					c-13.6,0-24.5,10.9-24.5,24.5s10.9,24.5,24.5,24.5s24.5-10.9,24.5-24.5S174.6,273.1,161,273.1L161,273.1z"/>
			</g>
			<g>
				<path class="st9" d="M120.6,321.6c-13.3,0-24-10.7-24-24s10.7-24,24-24s24,10.7,24,24S133.8,321.6,120.6,321.6z"/>
				<path d="M120.6,274c13,0,23.5,10.5,23.5,23.5s-10.5,23.5-23.5,23.5s-23.5-10.5-23.5-23.5S107.6,274,120.6,274 M120.6,273.1
					c-13.6,0-24.5,10.9-24.5,24.5s10.9,24.5,24.5,24.5s24.5-10.9,24.5-24.5S134.1,273.1,120.6,273.1L120.6,273.1z"/>
			</g>
			<g>
				<path class="st9" d="M142.3,297.1c-13.3,0-24-10.7-24-24s10.7-24,24-24c13.3,0,24,10.7,24,24
					C166.3,286.4,155.5,297.1,142.3,297.1z"/>
				<path d="M142.3,249.6c13,0,23.5,10.5,23.5,23.5s-10.5,23.5-23.5,23.5c-13,0-23.5-10.5-23.5-23.5S129.3,249.6,142.3,249.6
					 M142.3,248.6c-13.6,0-24.5,10.9-24.5,24.5s10.9,24.5,24.5,24.5s24.5-10.9,24.5-24.5S155.8,248.6,142.3,248.6L142.3,248.6z"/>
			</g>
			<g>
				<circle class="st9" cx="112.5" cy="343.9" r="28.7"/>
				<path d="M112.5,315.6c15.6,0,28.2,12.7,28.2,28.2c0,15.5-12.7,28.2-28.2,28.2s-28.2-12.7-28.2-28.2
					C84.3,328.3,97,315.6,112.5,315.6 M112.5,314.6c-16.1,0-29.2,13.1-29.2,29.2c0,16.1,13.1,29.2,29.2,29.2s29.2-13.1,29.2-29.2
					C141.7,327.7,128.7,314.6,112.5,314.6L112.5,314.6z"/>
			</g>
			<g>
				<circle class="st9" cx="152.2" cy="347" r="29.3"/>
				<path d="M152.2,318.2c15.9,0,28.8,12.9,28.8,28.8s-12.9,28.8-28.8,28.8s-28.8-12.9-28.8-28.8S136.4,318.2,152.2,318.2
					 M152.2,317.3c-16.4,0-29.8,13.3-29.8,29.8s13.3,29.8,29.8,29.8c16.4,0,29.8-13.3,29.8-29.8S168.7,317.3,152.2,317.3
					L152.2,317.3z"/>
			</g>
			<g>
				<circle class="st9" cx="136.1" cy="317.5" r="28.7"/>
				<path d="M136.1,289.2c15.6,0,28.2,12.7,28.2,28.2c0,15.5-12.7,28.2-28.2,28.2s-28.2-12.7-28.2-28.2
					C107.8,301.9,120.5,289.2,136.1,289.2 M136.1,288.3c-16.1,0-29.2,13.1-29.2,29.2c0,16.1,13.1,29.2,29.2,29.2
					s29.2-13.1,29.2-29.2C165.3,301.4,152.3,288.3,136.1,288.3L136.1,288.3z"/>
			</g>
			<g>
				<circle class="st9" cx="85.3" cy="301.4" r="31.9"/>
				<path d="M85.3,270c17.3,0,31.4,14.1,31.4,31.4c0,17.3-14.1,31.4-31.4,31.4s-31.4-14.1-31.4-31.4C53.9,284.1,68,270,85.3,270
					 M85.3,269.1c-17.9,0-32.4,14.5-32.4,32.4c0,17.9,14.5,32.4,32.4,32.4s32.4-14.5,32.4-32.4C117.7,283.6,103.2,269.1,85.3,269.1
					L85.3,269.1z"/>
			</g>
			<g>
				<path class="st9" d="M150.3,274.1c-16,0-29-13-29-29s13-29,29-29s29,13,29,29S166.3,274.1,150.3,274.1z"/>
				<path d="M150.3,216.6c15.7,0,28.5,12.8,28.5,28.5c0,15.7-12.8,28.5-28.5,28.5s-28.5-12.8-28.5-28.5S134.6,216.6,150.3,216.6
					 M150.3,215.7c-16.3,0-29.5,13.2-29.5,29.5s13.2,29.5,29.5,29.5s29.5-13.2,29.5-29.5S166.6,215.7,150.3,215.7L150.3,215.7z"/>
			</g>
			<g>
				<circle class="st9" cx="104.1" cy="391.7" r="31.5"/>
				<path d="M104.1,360.7c17.1,0,31.1,13.9,31.1,31.1c0,17.1-13.9,31.1-31.1,31.1S73,408.9,73,391.7S86.9,360.7,104.1,360.7
					 M104.1,359.7c-17.7,0-32,14.3-32,32c0,17.7,14.3,32,32,32s32-14.3,32-32S121.8,359.7,104.1,359.7L104.1,359.7z"/>
			</g>
			<g>
				<path class="st9" d="M80,460.3c-20.7,0-37.6-16.9-37.6-37.6c0-20.7,16.9-37.6,37.6-37.6s37.6,16.9,37.6,37.6
					C117.5,443.4,100.7,460.3,80,460.3z"/>
				<path d="M80,385.7c20.4,0,37.1,16.7,37.1,37.1s-16.7,37.1-37.1,37.1s-37.1-16.7-37.1-37.1S59.5,385.7,80,385.7 M80,384.8
					c-21,0-38,17-38,38s17,38,38,38s38-17,38-38C117.9,401.7,101,384.8,80,384.8L80,384.8z"/>
			</g>
			<g>
				<path class="st9" d="M63,495.6c-22.7,0-41.2-18.5-41.2-41.2c0-22.7,18.5-41.2,41.2-41.2s41.2,18.5,41.2,41.2
					C104.3,477.1,85.8,495.6,63,495.6z"/>
				<path d="M63,413.7c22.5,0,40.8,18.3,40.8,40.8S85.5,495.2,63,495.2s-40.8-18.3-40.8-40.8S40.6,413.7,63,413.7 M63,412.7
					c-23,0-41.7,18.6-41.7,41.7c0,23,18.6,41.7,41.7,41.7c23,0,41.7-18.6,41.7-41.7S86.1,412.7,63,412.7L63,412.7z"/>
			</g>
			<g>
				<path class="st9" d="M160.9,424.1c-16.3,0-29.7-13.3-29.7-29.7s13.3-29.7,29.7-29.7s29.7,13.3,29.7,29.7
					S177.2,424.1,160.9,424.1z"/>
				<path d="M160.9,365.4c16.1,0,29.2,13.1,29.2,29.2c0,16.1-13.1,29.2-29.2,29.2s-29.2-13.1-29.2-29.2S144.8,365.4,160.9,365.4
					 M160.9,364.4c-16.6,0-30.1,13.5-30.1,30.1c0,16.7,13.5,30.1,30.1,30.1c16.6,0,30.1-13.5,30.1-30.1S177.5,364.4,160.9,364.4
					L160.9,364.4z"/>
			</g>
			<g>
				<path class="st9" d="M130.8,387.4c-16.3,0-29.7-13.3-29.7-29.7s13.3-29.7,29.7-29.7s29.7,13.3,29.7,29.7
					S147.1,387.4,130.8,387.4z"/>
				<path d="M130.8,328.7c16.1,0,29.2,13.1,29.2,29.2S146.9,387,130.8,387s-29.2-13.1-29.2-29.2S114.7,328.7,130.8,328.7
					 M130.8,327.7c-16.6,0-30.1,13.5-30.1,30.1s13.5,30.1,30.1,30.1c16.6,0,30.1-13.5,30.1-30.1S147.4,327.7,130.8,327.7
					L130.8,327.7z"/>
			</g>
			<g>
				<path class="st9" d="M175.8,470.3c-20.7,0-37.6-16.9-37.6-37.6c0-20.7,16.9-37.6,37.6-37.6s37.6,16.9,37.6,37.6
					C213.4,453.4,196.5,470.3,175.8,470.3z"/>
				<path d="M175.8,395.7c20.4,0,37.1,16.7,37.1,37.1c0,20.4-16.7,37.1-37.1,37.1s-37.1-16.7-37.1-37.1
					C138.7,412.4,155.4,395.7,175.8,395.7 M175.8,394.7c-21,0-38,17-38,38c0,21,17,38,38,38s38-17,38-38
					C213.8,411.8,196.8,394.7,175.8,394.7L175.8,394.7z"/>
			</g>
			<g>
				<path class="st9" d="M185.2,519.7c-24,0-43.5-19.5-43.5-43.5s19.5-43.5,43.5-43.5s43.5,19.5,43.5,43.5S209.2,519.7,185.2,519.7z
					"/>
				<path d="M185.2,433.2c23.7,0,43,19.3,43,43s-19.3,43-43,43s-43-19.3-43-43S161.6,433.2,185.2,433.2 M185.2,432.2
					c-24.3,0-44,19.7-44,44c0,24.3,19.7,44,44,44s44-19.7,44-44C229.2,451.9,209.5,432.2,185.2,432.2L185.2,432.2z"/>
			</g>
			<g>
				<path class="st9" d="M207.8,573.9c-28.4,0-51.6-23.2-51.6-51.6c0-28.4,23.2-51.6,51.6-51.6s51.6,23.2,51.6,51.6
					C259.5,550.8,236.3,573.9,207.8,573.9z"/>
				<path d="M207.8,471.2c28.2,0,51.1,23,51.1,51.1c0,28.2-23,51.1-51.1,51.1s-51.1-22.9-51.1-51.1
					C156.7,494.1,179.7,471.2,207.8,471.2 M207.8,470.3c-28.8,0-52.1,23.3-52.1,52.1c0,28.7,23.3,52.1,52.1,52.1
					s52.1-23.3,52.1-52.1C259.9,493.6,236.6,470.3,207.8,470.3L207.8,470.3z"/>
			</g>
			<g>
				<path class="st9" d="M216.3,619.1c-32.6,0-59.1-26.5-59.1-59.1s26.5-59.1,59.1-59.1s59.1,26.6,59.1,59.1
					C275.5,592.6,249,619.1,216.3,619.1z"/>
				<path d="M216.3,501.3c32.4,0,58.7,26.4,58.7,58.7c0,32.3-26.4,58.7-58.7,58.7s-58.7-26.4-58.7-58.7
					C157.6,527.7,184,501.3,216.3,501.3 M216.3,500.4c-33,0-59.6,26.6-59.6,59.6c0,33,26.6,59.6,59.6,59.6s59.6-26.6,59.6-59.6
					C275.9,527,249.2,500.4,216.3,500.4L216.3,500.4z"/>
			</g>
			<g>
				<ellipse class="st9" cx="25.1" cy="498.7" rx="49.1" ry="49.1"/>
				<path d="M25.1,450.1c26.8,0,48.6,21.8,48.6,48.6s-21.8,48.6-48.6,48.6s-48.6-21.8-48.6-48.6S-1.8,450.1,25.1,450.1 M25.1,449.2
					c-27.4,0-49.5,22.2-49.5,49.5c0,27.4,22.2,49.5,49.5,49.5s49.5-22.1,49.5-49.4C74.6,471.4,52.4,449.2,25.1,449.2L25.1,449.2z"/>
			</g>
			<g>
				<ellipse class="st9" cx="-20.1" cy="531.7" rx="61.3" ry="61.3"/>
				<path d="M-20.1,470.8c33.5,0,60.8,27.3,60.8,60.8s-27.3,60.8-60.8,60.8s-60.8-27.3-60.8-60.8S-53.7,470.8-20.1,470.8
					 M-20.1,469.9c-34.1,0-61.8,27.7-61.8,61.8s27.7,61.8,61.8,61.8s61.8-27.6,61.8-61.7S14,469.9-20.1,469.9L-20.1,469.9z"/>
			</g>
			<g>
				<path class="st9" d="M188.1,349.5c-18.1,0-32.8-14.7-32.8-32.8s14.7-32.8,32.8-32.8c18.1,0,32.8,14.7,32.8,32.8
					C220.8,334.8,206.1,349.5,188.1,349.5z"/>
				<path d="M188.1,284.4c17.8,0,32.3,14.5,32.3,32.3c0,17.8-14.5,32.3-32.3,32.3s-32.3-14.5-32.3-32.3
					C155.8,298.9,170.4,284.4,188.1,284.4 M188.1,283.5c-18.4,0-33.2,14.9-33.2,33.2c0,18.4,14.9,33.2,33.2,33.2
					s33.2-14.9,33.2-33.2C221.3,298.3,206.4,283.5,188.1,283.5L188.1,283.5z"/>
			</g>
			<g>
				<ellipse class="st9" cx="37.2" cy="305.9" rx="37.6" ry="37.6"/>
				<path d="M37.2,268.9c20.4,0,37.1,16.7,37.1,37.1c0,20.4-16.7,37.1-37.1,37.1s-37-16.7-37-37.2S16.8,268.9,37.2,268.9
					 M37.2,267.9c-21,0-38,17-38,38c0,21,17,38,38,38s38-17,38-38C75.3,285,58.2,267.9,37.2,267.9L37.2,267.9z"/>
			</g>
			<g>
				<ellipse class="st9" cx="-6.1" cy="316.2" rx="42.7" ry="42.7"/>
				<path d="M-6.1,274c23.3,0,42.2,18.9,42.2,42.2s-18.8,42.3-42.2,42.3s-42.2-18.9-42.2-42.2S-29.3,274-6.1,274 M-6.1,273.1
					c-23.8,0-43.1,19.3-43.1,43.1s19.3,43.2,43.1,43.2S37,340.1,37,316.3S17.7,273.1-6.1,273.1L-6.1,273.1z"/>
			</g>
			<g>
				<ellipse class="st9" cx="-59.8" cy="343.6" rx="62.4" ry="62.4"/>
				<path d="M-59.7,281.6c34.2,0,61.9,27.8,61.9,61.9s-27.8,62-61.9,62s-61.9-27.8-61.9-61.9S-93.8,281.6-59.7,281.6 M-59.7,280.6
					c-34.7,0-62.9,28.2-62.9,62.9s28.2,62.9,62.9,62.9s62.9-28.2,62.9-62.9S-25,280.6-59.7,280.6L-59.7,280.6z"/>
			</g>
			<g>
				<circle class="st9" cx="228.8" cy="323" r="41.9"/>
				<path d="M228.8,281.6c22.9,0,41.4,18.5,41.4,41.4s-18.5,41.4-41.4,41.4s-41.4-18.5-41.4-41.4S206,281.6,228.8,281.6
					 M228.8,280.6c-23.3,0-42.4,18.9-42.4,42.4s18.9,42.4,42.4,42.4s42.4-18.9,42.4-42.4S252.3,280.6,228.8,280.6L228.8,280.6z"/>
			</g>
			<g>
				<circle class="st9" cx="271" cy="314.5" r="47"/>
				<path d="M271,268.1c25.6,0,46.5,20.8,46.5,46.5c0,25.7-20.8,46.5-46.5,46.5c-25.7,0-46.5-20.8-46.5-46.5
					C224.5,288.9,245.4,268.1,271,268.1 M271,267.2c-26.2,0-47.5,21.2-47.5,47.5c0,26.3,21.2,47.5,47.5,47.5
					c26.2,0,47.5-21.2,47.5-47.5C318.4,288.4,297.3,267.2,271,267.2L271,267.2z"/>
			</g>
			<g>
				<circle class="st9" cx="320.2" cy="288.2" r="59.8"/>
				<path d="M320.2,228.9c32.7,0,59.3,26.6,59.3,59.3s-26.6,59.3-59.3,59.3s-59.3-26.6-59.3-59.3S287.5,228.9,320.2,228.9
					 M320.2,227.9c-33.2,0-60.3,26.9-60.3,60.3s26.9,60.3,60.3,60.3s60.3-26.9,60.3-60.3S353.5,227.9,320.2,227.9L320.2,227.9z"/>
			</g>
			<line class="st2" x1="142.9" y1="260.4" x2="153.2" y2="261.3"/>
			<circle class="st10" cx="141.9" cy="250" r="1.4"/>
			<circle class="st10" cx="157" cy="251.9" r="1.4"/>
			<line class="st2" x1="39.8" y1="545.7" x2="-79.8" y2="545.7"/>
			<line class="st2" x1="273.3" y1="545.7" x2="159.3" y2="545.7"/>
		</g>
		<use xlink:href="#SVGID_1_"  style="overflow:visible;fill:none;stroke:#000000;stroke-miterlimit:10;"/>
	</g>
	<g>
		<path class="st6" d="M1708-40.1l-26.3,160.9c-0.4,2.5-2.6,4.3-5.1,4.2l-93.9-4.6c-2.6-0.1-4.7-2.3-4.7-5v-2c0-2.8,2.4-5.1,5.2-5
			l83.4,4.5c2.5,0.1,4.7-1.6,5.2-4.1l26.5-150.6c0.4-2.4,2.5-4.1,4.9-4.1l0,0C1706.2-45.9,1708.5-43.1,1708-40.1z"/>
		<path class="st6" d="M1718.2,180.2l-64.1-76.9l30.7-32.6c2.7-2.9,0.7-7.6-3.3-7.6h-102.1c-2.5,0-4.5,2-4.5,4.5s2,4.5,4.5,4.5h79.1
			c3.9,0,6,4.7,3.3,7.6l-93.8,99.8c-2.7,2.9-0.7,7.6,3.3,7.6h1.7c1.2,0,2.4-0.5,3.3-1.4l71.9-76.2l61.5,76c0.8,1,2,1.6,3.3,1.6h1.9
			C1718.5,187.1,1720.5,182.9,1718.2,180.2z"/>
	</g>
	<path class="st6" d="M586.5,407.1h-6h-2.9h-6c0,0,1.2,46.7-18,46.7h24h2.9h24C585.2,453.8,586.5,407.1,586.5,407.1z"/>
	<path class="st6" d="M600.7,365.2l31.3,47.9h-35.5H561h-35.5l31.3-47.9c1.7-2.6,4.5-4.1,7.6-4.1h28.7
		C596.1,361.1,599,362.7,600.7,365.2z"/>
	<g>
		<path class="st6" d="M1254.5,524.5h-116c-1.6,51.1,13,92.8,41,104c4.2,1.7,9.2,2.8,15,3c3.6,0.4,6.8,0.3,9.3,0.2
			c1.1-0.1,2.2-0.1,3.3-0.1c4.9,0.1,9-0.7,12.4-2.1C1244,620,1259.5,577.6,1254.5,524.5z"/>
		<path class="st6" d="M1206.5,317.5c0,0,10.4,19.2,10.4,80.3s-13.1,126.7-13.1,126.7h13.1c0,0,13.1-72.1,13.1-126.7
			s-8.5-80.3-8.5-80.3"/>
	</g>
	<g>
		<path class="st4" d="M1603.3,320.2l62.8,21.8l-26.1-15c-4.6-2.7-9.5-4.8-14.6-6.4l-37.1-11.7l0,0c-4.4-0.9-9.1,0-12.9,2.5
			l-0.2,0.1c-2.7,1.8-5.3,3.8-7.6,6.2l-31.1,31.1c-2.5,2.5-4.6,5.2-6.3,8.2l-24.3,42.3l26.2-21.1c2.8-2.2,5.2-4.9,7.3-7.8l29-40.6
			c0.6-0.8,1.9-0.2,1.6,0.8l-11.4,37.6c-1.3,4.3-2.2,8.7-2.6,13.2l-4.5,44.3l15-34.9c2.5-5.7,4.1-11.7,5-17.8l5.6-39.8
			c0.1-0.8,1.2-0.7,1.2,0.1l0.5,36.4c0.1,5.2,0.6,10.4,1.6,15.5l8.6,43.3l2.9-36.2c0.6-6.8,0.3-13.7-0.8-20.5l-6.5-40.4
			c-0.1-0.6,0.8-0.8,0.9-0.2l10.1,30.6c1.7,5.2,3.8,10.2,6.4,15l17.8,33.7l1.5-22.1c-1.1-12-1.6-23.2-7-34l-12-28l12.8,17.9
			c5.8,5.6,12.3,10.4,19.3,14.4l27.7,15.8l-9.4-13.3c-7.9-11.3-18.2-20.8-30-27.8l-20.2-12C1602,321,1602.5,320,1603.3,320.2z"/>
		<path class="st6" d="M1622.5,526.5h-116c-1.6,51.1,13,92.8,41,104c4.2,1.7,9.2,2.8,15,3c3.6,0.4,6.8,0.3,9.3,0.2
			c1.1-0.1,2.2-0.1,3.3-0.1c4.9,0.1,9-0.7,12.4-2.1C1612,622,1627.5,579.6,1622.5,526.5z"/>
		<path class="st6" d="M1574.5,319.5c0,0,10.4,19.2,10.4,80.3s-13.1,126.7-13.1,126.7h13.1c0,0,13.1-72.1,13.1-126.7
			s-8.5-80.3-8.5-80.3"/>
		<path class="st4" d="M1613.1,329.3l76.1,51.6l-29.4-29.4c-5.2-5.2-11-9.8-17.2-13.8l-45.3-28.8l0,0c-5.6-2.7-12.1-3.2-18.1-1.3
			l-0.4,0.1c-4.3,1.4-8.4,3.2-12.3,5.5l-52.6,30.5c-4.2,2.4-8,5.4-11.4,8.8l-47.5,47.8l42.5-18.9c4.5-2,8.7-4.6,12.6-7.8l53.2-43.8
			c1.1-0.9,2.6,0.4,1.9,1.6l-28.7,46.2c-3.3,5.3-6,10.9-8.2,16.7l-21.8,57.6l32.5-41.2c5.3-6.7,9.7-14.1,13-22l21.7-51.2
			c0.4-1,1.9-0.5,1.6,0.5l-12.3,48.8c-1.8,7-2.9,14.1-3.3,21.3l-4,60.9l16.8-47.3c3.2-8.9,5.3-18.2,6.2-27.6l5.7-56.3
			c0.1-0.8,1.3-0.8,1.3,0l2.5,44.5c0.4,7.5,1.5,14.9,3.1,22.2l11.7,51.3l5.1-30c2.8-16.4,2.5-33.3-0.9-49.6l-8.6-41.7
			c-0.3-1.3,1.5-2,2.2-0.9l19.5,32.1c5.8,9.5,12.7,18.3,20.6,26.1l31.4,31l-7.8-21.1c-6.6-17.9-16.8-34.2-30.1-47.8l-22.6-23.3
			C1611.2,329.9,1612.2,328.7,1613.1,329.3z"/>
	</g>
	<path class="st4" d="M1199,307.1c-42.7,29.4-62.2,60-72,81c-1.6,3.5-14.8,32-9,36c1,0.7,4.4,1.9,27-18c22.9-20.2,34.4-30.3,44-46
		c6.3-10.3,15.3-28,19-53"/>
	<path class="st4" d="M1208,306.1c-4.2,9.7-13.8,32-27,63c-11.2,26.3-17.6,41.6-18,63c-0.1,4.3-0.7,33.3,9,36
		c9.8,2.8,24.6-22.9,27-27c9.6-16.7,12.9-31.7,18-63c2.8-17.4,6-38.7,9-63"/>
	<path class="st4" d="M1217,315.1c11.9,54.1,25.6,92.1,36,117c4.8,11.4,12.2,28,18,27c6-1,7.7-20.5,9-36c1.7-19.8,4.1-32.1,0-45
		c-9.2-29-28.4-49.6-45-63"/>
</g>
<g id="Layer_5">
	<path class="st11" d="M-318.1,389.5l-0.2-0.3c-8.6-14.9-9-32.9-2-48.7c2.4-5.3,3.6-11.3,3.2-17.6c-1.1-19.5-17.2-35.1-36.7-35.7
		c-21.5-0.7-39.2,16.6-39.2,38c0,6.1,1.4,11.8,4,16.9c8,16.1,8.1,35,0,51.1v0l-56.9,81.9c-3.6,5.2-5.1,11.6-4.2,17.8l5.5,36.5
		c1.1,7.1,8.4,11.3,15.1,8.8h0l-0.7-36.9c-0.2-9.1,3.1-17.8,9.3-24.5l15.3-16.6c4-4.3,11.2-1.4,11.1,4.5l-5.2,203.1
		c-0.1,5.2,4,9.4,9.2,9.4h8.6l20.9-105.5c0.6-3.2,3.4-5.5,6.7-5.5h14.1c3.7,0,6.9,2.6,7.7,6.2l23.6,104.8h9.9c5.4,0,9.7-4.6,9.4-10
		l-14.2-201.5c-0.3-3.6,4.2-5.6,6.7-2.9l15.9,17.3c6,6.5,9.2,15.1,9,23.9l-0.7,37.3l0,0c6.7,2.6,14-1.7,15.1-8.8l5.9-39.3
		c0.7-4.4-0.4-9-3-12.7L-318.1,389.5z"/>
</g>
</svg>
