<?xml version="1.0" encoding="utf-8"?>
<!-- Generator: Adobe Illustrator 22.0.1, SVG Export Plug-In . SVG Version: 6.00 Build 0)  -->
<svg version="1.1" xmlns="http://www.w3.org/2000/svg" xmlns:xlink="http://www.w3.org/1999/xlink" x="0px" y="0px"
	 viewBox="0 0 1340 630" style="enable-background:new 0 0 1340 630;" xml:space="preserve">
<style type="text/css">
	.st0{fill:#EF5B49;}
	.st1{fill:#414143;}
	.st2{fill:none;stroke:#000000;stroke-miterlimit:10;}
	.st3{fill:#414143;stroke:#000000;stroke-miterlimit:10;}
	.st4{fill:#FCC638;}
	.st5{fill:#E8E7E7;}
	.st6{fill:#41B369;}
	.st7{fill:#EF5B49;stroke:#000000;stroke-miterlimit:10;}
	.st8{fill:#F2F2F2;}
	.st9{fill:#CFD9C5;}
	.st10{fill:#BFDDA1;}
	.st11{fill:#F8A079;}
	.st12{fill:#C1C5E8;}
	.st13{fill:#E8E7E7;stroke:#000000;stroke-miterlimit:10;}
</style>
<g id="outside">
	<g>
		<rect x="161.7" y="56.4" class="st0" width="1022.5" height="223"/>
		<path d="M1183.7,56.9v222H162.2v-222H1183.7 M1184.7,55.9H161.2v224h1023.5V55.9L1184.7,55.9z"/>
	</g>
	<g>
		<polyline class="st1" points="655.2,248.7 672.1,242.9 689.2,237.7 706,231.6 723.3,226.8 739.9,220.2 756.9,214.7 773.7,208.7 
			790.5,202.7 806.4,211.8 823.1,219.6 839.1,228.8 855.7,236.8 871.7,245.8 888.7,253 		"/>
		<polyline class="st2" points="655.2,248.7 672.1,242.9 689.2,237.7 706,231.6 723.3,226.8 739.9,220.2 756.9,214.7 773.7,208.7 
			790.5,202.7 806.4,211.8 823.1,219.6 839.1,228.8 855.7,236.8 871.7,245.8 888.7,253 		"/>
	</g>
	<g>
		<polyline class="st1" points="-75.6,250.8 -57.8,249.3 -40.1,246.9 -22.3,245.9 -4.7,243 13.1,241.2 30.8,239.1 48.5,236.7 
			66.3,235.3 83.9,232.4 101.7,231 119.3,228.4 137.1,226.8 154.7,223.2 172.3,220.8 190.1,218.8 207.7,216.4 225.5,214.9 
			243.3,213 261.1,211.7 278.6,208.2 296.5,206.9 314.1,205 331.9,207.2 349.3,211.9 367.3,213.6 384.9,217.2 402.6,220.2 
			420.2,223.4 437.8,227.2 455.4,231 473.3,232.8 490.7,237.3 508.7,239.1 526.2,243.2 544,245.6 561.7,248.7 579.4,252 597.1,255 
					"/>
		<polyline class="st2" points="-75.6,250.8 -57.8,249.3 -40.1,246.9 -22.3,245.9 -4.7,243 13.1,241.2 30.8,239.1 48.5,236.7 
			66.3,235.3 83.9,232.4 101.7,231 119.3,228.4 137.1,226.8 154.7,223.2 172.3,220.8 190.1,218.8 207.7,216.4 225.5,214.9 
			243.3,213 261.1,211.7 278.6,208.2 296.5,206.9 314.1,205 331.9,207.2 349.3,211.9 367.3,213.6 384.9,217.2 402.6,220.2 
			420.2,223.4 437.8,227.2 455.4,231 473.3,232.8 490.7,237.3 508.7,239.1 526.2,243.2 544,245.6 561.7,248.7 579.4,252 597.1,255 
					"/>
	</g>
	<g>
		<polyline class="st1" points="504.6,262.1 520.6,252 536.4,241.6 552.7,232.1 568.9,222.2 585.3,212.9 600.6,201.6 617,192.3 
			632.7,182.5 646.9,192.7 659.7,204.9 674.3,214.8 687.7,226.2 701.6,237.1 715.2,248.2 728.5,259.8 741.9,271.3 		"/>
		<polyline class="st2" points="504.6,262.1 520.6,252 536.4,241.6 552.7,232.1 568.9,222.2 585.3,212.9 600.6,201.6 617,192.3 
			632.7,182.5 646.9,192.7 659.7,204.9 674.3,214.8 687.7,226.2 701.6,237.1 715.2,248.2 728.5,259.8 741.9,271.3 		"/>
	</g>
	<path class="st3" d="M491.2,249.6L442,211.1c-2.4-1.9-5.8-0.1-6.1,3.3l-3.9,38.1c-0.3,2.7,1.5,5.1,3.9,5.2L489,258
		C492.9,258,494.5,252.1,491.2,249.6z"/>
	<g>
		<path class="st4" d="M1046.8,317.6c-2.5,0.2-5-1.4-7.4-1.6c-2.5-0.2-5.3,1.3-7.7,0.8c-2.5-0.6-5-1.1-7.3-2
			c-2.3-0.9-3.9-3.5-6.1-4.7c-2.2-1.2-5-1.5-6.9-3.1c-2-1.5-3.4-3.7-5.2-5.5c-1.8-1.8-4.4-2.9-5.9-4.9c-1.5-2-3.3-4.1-4.4-6.3
			c-1.2-2.2-1.7-4.9-2.6-7.3c-0.8-2.3-0.4-5.1-0.9-7.6c-0.5-2.4-0.4-4.9-0.6-7.4c-0.2-2.5,0-4.9,0.2-7.4c0.2-2.5-1.5-5.4-0.9-7.8
			c0.6-2.5,3.3-4.3,4.2-6.6c0.9-2.3,1.2-4.9,2.5-7.1c1.2-2.2,2.8-4.1,4.4-6.1c1.5-2,3.8-3.2,5.6-4.9c1.8-1.8,2.6-4.5,4.7-6
			c2-1.5,3.8-3.5,6-4.7c2.2-1.2,4.8-1.7,7.2-2.6c2.3-0.8,4.8-1.7,7.3-2.2c2.4-0.5,5-1.5,7.5-1.7c2.5-0.2,5.2,0.6,7.6,0.8
			c2.5,0.2,4.9,1.6,7.3,2.1c2.5,0.6,5,0.7,7.4,1.6c2.3,0.9,4.1,2.9,6.3,4.1c2.2,1.2,4.4,2.3,6.4,3.8c2,1.5,3.8,3.2,5.6,5
			c1.8,1.8,3.4,3.6,4.9,5.6c1.5,2,3.1,3.9,4.3,6.1c1.2,2.2,3.3,4.1,4.2,6.5c0.8,2.3-0.6,5.4-0.1,7.9c0.5,2.4,2.5,4.7,2.7,7.2
			c0.2,2.5,0.7,5.2,0.5,7.7c-0.2,2.5-0.5,5.2-1.1,7.6c-0.6,2.5-1.4,5.1-2.3,7.4c-0.9,2.4-4.1,3.7-5.3,5.8c-1.2,2.2-2.5,4.2-4,6.2
			c-1.5,2-2.3,4.6-4.1,6.3c-1.8,1.8-3.9,3.2-5.9,4.7c-2,1.5-4.3,2.4-6.6,3.6c-2.2,1.2-4.7,1.5-7,2.4c-2.3,0.8-4.4,2.4-6.9,2.9
			C1051.8,316.8,1049.3,317.5,1046.8,317.6z"/>
	</g>
	<g>
		<polygon class="st1" points="267.9,573.1 250,572.2 232.1,573 214.2,572.8 196.3,571.5 178.4,573.1 160.5,573 143.5,572 
			142.5,554.8 143.9,536.8 142.8,518.7 142.4,500.6 142.6,482.6 142.6,464.5 142.4,446.5 144,428.5 143.8,410.4 142.8,392.3 
			143.2,374.3 143.6,356.2 142.9,338.2 144,320.2 143.1,302.1 142.2,284 142.7,266 142.9,248.2 160.3,248 178,248.7 195.7,247.9 
			213.3,247.6 231,248.5 247.5,247.5 263.8,249 280.4,248.3 298.2,248.9 316.2,248.8 334.1,248.8 352,248 370,249 388,249.3 
			406.1,247.4 424.1,248.7 442.1,248.8 460.2,248.6 478.2,248.8 496.2,247.7 532.2,247.8 550.2,247.6 568.2,248.5 586.3,248.8 
			604.3,248.7 622.3,249.1 640.3,249.2 658.4,247.6 676.4,247.9 694.4,248.1 712.4,249.3 730.5,248.5 748.4,249.1 766.5,248.6 
			784.5,247.8 802.5,247.5 820.5,248.3 838.5,248.1 856.6,247.5 874.5,248.5 892.6,248.7 910.6,247.8 928.6,249.2 946.6,249.3 
			964.7,248.7 982.7,247.5 1000.7,248.1 1018.7,247.7 1036.7,248.4 1054.7,249.2 1072.7,249.1 1090.8,248.9 1108.8,248.1 
			1126.8,247.9 1144.8,247.9 1162.8,248.7 1179.9,248.9 1180.3,266 1180.7,284.1 1179.8,302.1 1180.7,320.2 1180.9,338.2 
			1179.4,356.2 1180.8,374.4 1180.1,392.4 1179.5,410.4 1179.4,428.5 1180.4,446.6 1180.7,464.6 1180.2,482.6 1180.6,500.7 
			1180.6,518.7 1179.7,536.8 1181.1,554.9 1179.9,571.9 1162.9,571.4 1145,571.9 1127.1,571.7 1109.2,572.3 1091.3,572.2 
			1073.4,572.4 1055.5,572.4 1037.6,571.7 1019.7,572.7 1001.8,573.2 983.9,572.5 966,571.9 948.1,571.6 930.2,572.1 912.3,572 
			894.4,571.4 876.4,572.6 858.6,571.7 840.6,572.8 822.8,571.9 804.9,571.8 786.9,572.2 769.1,572.2 751.2,571.5 733.3,571.9 
			715.3,572.6 697.5,572.1 679.5,573.1 661.7,572.3 643.8,571.9 625.9,572.3 607.9,572.9 590.1,571.5 572.2,571.5 554.3,571.5 
			536.4,572.1 518.5,572.9 500.6,572.8 482.7,572.1 464.8,573.1 446.9,572.4 429,572 411.1,572.1 393.2,572.5 375.3,573.1 
			357.4,572.9 339.5,572.6 321.6,571.6 303.7,572.3 285.8,573.3 		"/>
		<path d="M406.1,247.9l17.9,1.2l0,0l0,0l18,0.1l18-0.2l18,0.1l0,0l0,0l18-1.1l18,0l18,0l18-0.1l18,0.9l18,0.3l18-0.1l18,0.4l18,0.2
			l0,0l0,0l18-1.6l18,0.3l18,0.1l18,1.3l0.1,0l0.1,0l18-0.8l18,0.5l0,0l0,0l18-0.5l18-0.8l18-0.3l18,0.8l0,0l0,0l18-0.2l18-0.6l18,1
			l18,0.2l0,0l0,0l18-0.9l18,1.4l0,0l0,0l18.1,0.1l18-0.6l18-1.2l18,0.6l0,0l0,0l18-0.4l18,0.7l18.1,0.8l18-0.1l18.1-0.2l18-0.8
			l18-0.1l18-0.1l18,0.8l16.6,0.2l0.4,16.6l0.4,18l-0.9,18l0,0l0,0l0.9,18l0.2,18l-1.5,18l0,0.1l0,0.1l1.4,18l-0.6,18l-0.7,18.1
			l-0.1,18.1l0,0l0,0l1,18l0.3,18l-0.5,18.1l0.3,18l0,18l-0.9,18.1l0,0.1l0,0.1l1.4,18l-1.1,16.6l-16.5-0.5l0,0l0,0l-17.9,0.4
			l-17.9-0.1l-17.9,0.5l-17.9-0.1l-17.9,0.2l-17.9,0l-17.9-0.7l0,0l0,0l-17.9,1l-17.9,0.5l-17.9-0.8l-17.9-0.6l-17.9-0.2l-17.9,0.5
			l-17.9-0.1l-17.9-0.5l0,0l0,0l-17.8,1.1l-17.8-0.9l-0.1,0l-0.1,0l-17.8,1.1l-17.9-0.9l-17.9-0.1l-17.9,0.4l-17.9,0l-17.9-0.7l0,0
			l0,0l-17.9,0.3l-17.9,0.8l-17.9-0.6l0,0l0,0l-17.9,1.1l-17.9-0.8l-17.9-0.4l-17.9,0.4l-17.8,0.6l-17.8-1.3l0,0l0,0l-17.9-0.1
			l-17.9,0l-17.9,0.6l-17.9,0.8l-17.8-0.1l-17.9-0.7l0,0l0,0l-17.8,1l-17.9-0.7l-17.9-0.4l-17.9,0.1l-17.9,0.4l-17.9,0.6l-17.9-0.2
			l-17.9-0.2l-17.9-1.1l-0.1,0l-0.1,0l-17.9,0.8l-17.9,1l-17.8-0.2l-17.9-1l-0.1,0l-0.1,0l-17.9,0.9l-17.8-0.2l-17.9-1.3l-0.1,0
			l-0.1,0l-17.9,1.6l-17.8-0.1l-16.6-1l-1-16.7l1.4-18l0-0.1l0-0.1l-1.1-18l-0.4-18l0.1-18.1l0.1-18.1l-0.2-18l1.6-18l0-0.1l0-0.1
			l-0.2-18.1l-1-18l0.4-18l0.4-18l0,0l0,0l-0.6-18l1.1-18l0-0.1l0-0.1l-1-18l-0.9-18l0.5-18l0.2-17.3l16.9-0.2l17.7,0.7l0,0l0,0
			l17.6-0.8l17.6-0.3L231,249l0.1,0l0.1,0l16.4-1l16.4,1.5l0.1,0l0.1,0l16.4-0.8l17.9,0.7l17.9-0.1l18,0l17.9-0.8l18,0.9l18,0.3
			l0.1,0l0.1,0L406.1,247.9 M406.1,246.9l-18,1.9l-18-0.3l-18-0.9l-17.9,0.8l-17.9,0l-17.9,0.1l-17.9-0.7l-16.4,0.8l-16.4-1.5
			l-16.4,1l-17.7-0.8l-17.7,0.3l-17.7,0.8l-17.7-0.7l-17.9,0.2l-0.2,18.3l-0.5,18.1l0.9,18.1l1,18.1l-1.1,18.1l0.6,18l-0.4,18
			l-0.4,18.1l1,18.1l0.2,18.1l-1.7,18.1l0.2,18.1l-0.1,18.1l-0.1,18l0.4,18.1l1.1,18.1l-1.4,18.1l1,17.7l17.5,1.1l17.9,0.1l17.9-1.6
			l17.9,1.3l17.9,0.2l17.9-0.9l17.9,1l17.9,0.2l17.9-1l17.9-0.8l17.9,1.1l17.9,0.2l17.9,0.2l17.9-0.6l17.9-0.4l17.9-0.1l17.9,0.4
			l17.9,0.7l17.9-1l17.9,0.7l17.9,0.1l17.9-0.8l17.9-0.6l17.9,0l17.9,0.1l17.9,1.3l17.9-0.6l17.9-0.4l17.9,0.4l17.9,0.8l17.9-1.1
			l17.9,0.6l17.9-0.8l17.9-0.3l17.9,0.7l17.9,0l17.9-0.4l17.9,0.1l17.9,0.9l17.9-1.2l17.9,0.9l17.9-1.1l17.9,0.5l17.9,0.1l17.9-0.5
			l17.9,0.2l17.9,0.6l17.9,0.8l17.9-0.5l17.9-1l17.9,0.7l17.9,0l17.9-0.2l17.9,0.1l17.9-0.5l17.9,0.1l17.9-0.4l17.5,0.5l1.2-17.6
			l-1.4-18.1l0.9-18.1l0-18.1l-0.3-18.1l0.5-18l-0.3-18l-1-18.1l0.1-18.1l0.7-18.1l0.6-18.1l-1.4-18.1l1.5-18.1l-0.2-18l-0.9-18.1
			l0.9-18.1l-0.4-18.1l-0.5-17.6l-17.5-0.2l-18-0.8l-18,0.1l-18,0.1l-18,0.8l-18,0.2l-18,0.1l-18-0.8l-18-0.7l-18,0.4l-18-0.6
			l-18,1.2l-18,0.6l-18-0.1l-18-1.4l-18,0.9l-18-0.2l-18-1l-18,0.6l-18,0.2l-18-0.8l-18,0.3l-18,0.8l-18,0.5l-18-0.5l-18,0.8
			l-18-1.3l-18-0.1l-18-0.3l-18,1.6l-18-0.2l-18-0.4l-18,0.1l-18-0.3l-18-0.9l-18,0.1l-18,0l-18,0l-18,1.1l-18-0.1l-18,0.2l-18-0.1
			L406.1,246.9L406.1,246.9z"/>
	</g>
	<g>
		<g>
			<path class="st5" d="M408.1,201.3c-0.8-1.4-0.7-4-1.7-6.4c-0.7-1.8-2.2-3.7-2.7-6c-0.4-2-1.3-4.3-1.4-6.5c-0.1-2.1,0-4.5,0.3-6.7
				c0.4-2.4,1.2-4.9,2.2-7.2c0.9-2.2,2.7-4.2,4-6.2c1.3-1.9,2.7-4.1,4.3-5.9c1.6-1.7,3.8-3,5.7-4.7c1.8-1.6,4.1-2.4,6.1-3.9
				c1.9-1.4,3.6-3.2,5.7-4.5c2-1.3,3.6-3.4,5.7-4.6c2.1-1.2,4.5-1.8,6.7-2.9c2.1-1.1,4-2.7,6.3-3.7c2.2-1,5-0.6,7.2-1.5
				c2.2-0.9,4.2-2.5,6.5-3.3c2.2-0.9,5-0.4,7.3-1.2c2.2-0.8,4.3-2.1,6.6-2.9c2.3-0.8,4.1-2.9,6.4-3.6c2.3-0.7,5.1,0.1,7.4-0.6
				c2.3-0.7,4-3.7,6.3-4.3c2.3-0.6,4.8-0.6,7.2-1.3c2.3-0.6,4.6-1.7,6.9-2.3c2.3-0.6,5.2,0.9,7.5,0.3c2.4-0.5,4.3-2.8,6.7-3.3
				c2.4-0.5,4.7-1.3,7-1.8c2.4-0.5,5.2,1.1,7.5,0.7c2.4-0.5,4.5-2.3,6.9-2.7c2.4-0.4,5,0.5,7.4,0.1c2.4-0.4,4.8-0.9,7.1-1.3
				c2.4-0.4,4.4-3,6.8-3.3c2.4-0.4,5.1,1.1,7.5,0.7c2.4-0.4,4.7-1.8,7-2.1c2.4-0.3,5.1,1.1,7.4,0.8c2.4-0.3,4.7-1.7,7.1-2
				c2.4-0.3,4.8-1.2,7.1-1.5c2.4-0.3,4.9-0.1,7.3-0.4c2.5-0.2,4.8-1.2,7.2-1.4c2.5-0.2,5,0.7,7.3,0.5c2.5-0.2,4.9,0.2,7.3,0
				c2.5-0.2,4.9-0.4,7.2-0.6c2.5-0.1,4.9-0.1,7.2-0.1c2.6-0.1,5-0.8,7.2-0.8c2.6,0,5.1-0.4,7.3-0.4c2.8,0.1,5.3,0,7.3,0.2
				c4.1,0.4,5.3,1.7,5.5,2.7c0.1,0.6-0.8,1.7-5.4,3.5c-2,0.8-4.9,0.4-7.7,1.4c-2.2,0.8-4.6,1.6-7.3,2.5c-2.2,0.8-4.5,2-7.1,2.9
				c-2.3,0.8-4.3,2.9-6.8,3.8c-2.3,0.8-4.7,1.9-7.2,2.8c-2.3,0.8-4.7,1.2-6.9,2c-2.3,0.8-4.5,1.5-6.7,2.3c-2.3,0.8-4.2,2.5-6.4,3.3
				c-2.3,0.8-4.8,0.8-7,1.6c-2.3,0.8-4.8,0.8-7,1.6c-2.3,0.8-4.6,1.4-6.8,2.2c-2.3,0.8-3.9,3.4-6.1,4.1c-2.3,0.8-4.6,1.3-6.8,2.1
				c-2.3,0.8-5.1-0.2-7.3,0.6c-2.3,0.8-4.6,1.4-6.8,2.2c-2.3,0.8-4.3,2.1-6.6,2.9c-2.3,0.7-4.5,1.7-6.7,2.4c-2.3,0.7-4.7,1-6.9,1.6
				c-2.3,0.7-4,3.4-6.2,4c-2.3,0.7-4.7,0.9-7,1.6c-2.3,0.6-5.1-0.5-7.4,0.1c-2.3,0.6-4.2,2.6-6.5,3.2c-2.3,0.6-4.6,1.3-6.9,1.8
				c-2.3,0.5-5-0.5-7.3,0c-2.3,0.5-4.2,2.9-6.6,3.4c0,0-2.8-0.6-7.1,0.4c-2,0.5-4.3,1.1-6.8,1.8c-2.1,0.6-4.8,0-7.2,0.7
				c-2.2,0.6-3.8,3.5-6.1,4.3c-2.2,0.7-5-0.3-7.3,0.5c-2.2,0.8-4.4,1.8-6.6,2.6c-2.2,0.9-4.1,2.4-6.3,3.4c-2.2,0.9-4.5,1.5-6.6,2.6
				c-2.1,1-4.5,1.6-6.6,2.8c-2.1,1.2-3.4,3.7-5.3,4.9c-2,1.3-4,2.6-5.8,4c-1.9,1.5-4.4,2.2-6.1,3.8c-1,1-2.8,3.2-4.3,5.8
				c-1.1,1.9-0.8,4.4-1.1,7c-0.4,4.5,0.7,8,1.9,10.1c0,0-3-1.3-4.8-3.6C410,204.4,408.6,202.2,408.1,201.3z"/>
			<path class="st2" d="M408.1,201.3c-0.8-1.4-0.7-4-1.7-6.4c-0.7-1.8-2.2-3.7-2.7-6c-0.4-2-1.3-4.3-1.4-6.5c-0.1-2.1,0-4.5,0.3-6.7
				c0.4-2.4,1.2-4.9,2.2-7.2c0.9-2.2,2.7-4.2,4-6.2c1.3-1.9,2.7-4.1,4.3-5.9c1.6-1.7,3.8-3,5.7-4.7c1.8-1.6,4.1-2.4,6.1-3.9
				c1.9-1.4,3.6-3.2,5.7-4.5c2-1.3,3.6-3.4,5.7-4.6c2.1-1.2,4.5-1.8,6.7-2.9c2.1-1.1,4-2.7,6.3-3.7c2.2-1,5-0.6,7.2-1.5
				c2.2-0.9,4.2-2.5,6.5-3.3c2.2-0.9,5-0.4,7.3-1.2c2.2-0.8,4.3-2.1,6.6-2.9c2.3-0.8,4.1-2.9,6.4-3.6c2.3-0.7,5.1,0.1,7.4-0.6
				c2.3-0.7,4-3.7,6.3-4.3c2.3-0.6,4.8-0.6,7.2-1.3c2.3-0.6,4.6-1.7,6.9-2.3c2.3-0.6,5.2,0.9,7.5,0.3c2.4-0.5,4.3-2.8,6.7-3.3
				c2.4-0.5,4.7-1.3,7-1.8c2.4-0.5,5.2,1.1,7.5,0.7c2.4-0.5,4.5-2.3,6.9-2.7c2.4-0.4,5,0.5,7.4,0.1c2.4-0.4,4.8-0.9,7.1-1.3
				c2.4-0.4,4.4-3,6.8-3.3c2.4-0.4,5.1,1.1,7.5,0.7c2.4-0.4,4.7-1.8,7-2.1c2.4-0.3,5.1,1.1,7.4,0.8c2.4-0.3,4.7-1.7,7.1-2
				c2.4-0.3,4.8-1.2,7.1-1.5c2.4-0.3,4.9-0.1,7.3-0.4c2.5-0.2,4.8-1.2,7.2-1.4c2.5-0.2,5,0.7,7.3,0.5c2.5-0.2,4.9,0.2,7.3,0
				c2.5-0.2,4.9-0.4,7.2-0.6c2.5-0.1,4.9-0.1,7.2-0.1c2.6-0.1,5-0.8,7.2-0.8c2.6,0,5.1-0.4,7.3-0.4c2.8,0.1,5.3,0,7.3,0.2
				c4.1,0.4,5.3,1.7,5.5,2.7c0.1,0.6-0.8,1.7-5.4,3.5c-2,0.8-4.9,0.4-7.7,1.4c-2.2,0.8-4.6,1.6-7.3,2.5c-2.2,0.8-4.5,2-7.1,2.9
				c-2.3,0.8-4.3,2.9-6.8,3.8c-2.3,0.8-4.7,1.9-7.2,2.8c-2.3,0.8-4.7,1.2-6.9,2c-2.3,0.8-4.5,1.5-6.7,2.3c-2.3,0.8-4.2,2.5-6.4,3.3
				c-2.3,0.8-4.8,0.8-7,1.6c-2.3,0.8-4.8,0.8-7,1.6c-2.3,0.8-4.6,1.4-6.8,2.2c-2.3,0.8-3.9,3.4-6.1,4.1c-2.3,0.8-4.6,1.3-6.8,2.1
				c-2.3,0.8-5.1-0.2-7.3,0.6c-2.3,0.8-4.6,1.4-6.8,2.2c-2.3,0.8-4.3,2.1-6.6,2.9c-2.3,0.7-4.5,1.7-6.7,2.4c-2.3,0.7-4.7,1-6.9,1.6
				c-2.3,0.7-4,3.4-6.2,4c-2.3,0.7-4.7,0.9-7,1.6c-2.3,0.6-5.1-0.5-7.4,0.1c-2.3,0.6-4.2,2.6-6.5,3.2c-2.3,0.6-4.6,1.3-6.9,1.8
				c-2.3,0.5-5-0.5-7.3,0c-2.3,0.5-4.2,2.9-6.6,3.4c0,0-2.8-0.6-7.1,0.4c-2,0.5-4.3,1.1-6.8,1.8c-2.1,0.6-4.8,0-7.2,0.7
				c-2.2,0.6-3.8,3.5-6.1,4.3c-2.2,0.7-5-0.3-7.3,0.5c-2.2,0.8-4.4,1.8-6.6,2.6c-2.2,0.9-4.1,2.4-6.3,3.4c-2.2,0.9-4.5,1.5-6.6,2.6
				c-2.1,1-4.5,1.6-6.6,2.8c-2.1,1.2-3.4,3.7-5.3,4.9c-2,1.3-4,2.6-5.8,4c-1.9,1.5-4.4,2.2-6.1,3.8c-1,1-2.8,3.2-4.3,5.8
				c-1.1,1.9-0.8,4.4-1.1,7c-0.4,4.5,0.7,8,1.9,10.1c0,0-3-1.3-4.8-3.6C410,204.4,408.6,202.2,408.1,201.3z"/>
		</g>
		<g>
			<path class="st5" d="M385.1,210.5c-0.8-1.4-0.7-4-1.7-6.4c-0.7-1.8-2.2-3.7-2.7-6c-0.4-2-1.3-4.3-1.4-6.5c-0.1-2.1,0-4.5,0.3-6.7
				c0.4-2.3,1-4.7,1.7-7c0.6-2.3,2-4.4,2.9-6.6c0.9-2.2,1.7-4.5,2.8-6.6c1.1-2.1,2.8-3.8,4.1-5.8c1.2-2,3.2-3.4,4.7-5.3
				c1.4-1.9,2.5-4,4-5.8c1.5-1.8,2.4-4.2,4-5.9c1.6-1.7,3.7-2.9,5.5-4.6c1.7-1.6,3-3.7,4.8-5.2c1.8-1.5,4.6-1.9,6.4-3.3
				c1.8-1.5,3.3-3.4,5.2-4.8c1.9-1.4,4.6-1.6,6.6-2.9c1.9-1.3,3.6-3.1,5.6-4.3c2-1.3,3.2-3.7,5.2-4.9c2-1.2,4.9-1,6.9-2.1
				c2.1-1.2,3-4.4,5.1-5.5c2.1-1.1,4.5-1.6,6.6-2.6c2.1-1.1,4.1-2.5,6.2-3.5c2.2-1,5.2-0.1,7.3-1c2.2-1,3.7-3.5,5.9-4.3
				c2.2-0.9,4.4-2,6.5-2.8c2.3-0.8,5.2,0.4,7.4-0.4c2.3-0.8,4.1-2.8,6.3-3.5c2.4-0.7,5,0,7.2-0.5c2.5-0.6,4.7-1.2,6.8-1.6
				c2.7-0.5,4.8-3,6.7-3.2c3.9-0.3,5.8,1.6,6.1,2.9c0.1,0.6,0.5,3.1-2.2,6.5c-1.2,1.5-4,2-6.1,3.9c-1.5,1.4-2.6,3.7-4.7,5.3
				c-1.7,1.3-3.3,3.2-5.5,4.5c-1.9,1.2-4.1,2-6.3,3.2c-2,1.1-3.8,2.8-6,3.8c-2.2,1.1-4.9,1.1-6.8,2.1c-2.2,1.2-4.6,1.8-6.5,2.9
				c-2.2,1.2-4.2,2.6-6.1,3.7c-2.2,1.4-4.3,2.5-6.1,3.8c-2.1,1.5-3.6,3.5-5.3,4.8c-2.1,1.7-3.5,3.6-4.9,5.1c-1.9,2-3.2,3.8-4.5,5.5
				c-1.6,2.1-4.1,2.9-5.5,4.6c-1.5,1.7-2.1,4.2-4.4,5.5c-1.7,1-4.3,0.7-7,1.6c-1.9,0.7-4.1,1.1-6.7,1.8c-2.1,0.5-4.2,1.3-6.8,1.8
				c0,0-2,2.9-5.6,6.1c-1.6,1.5-3.3,3.4-5.4,5.5c-1.6,1.7-3.7,3.3-5.5,5.4c-1.6,1.9-3.2,3.8-4.9,6c-1.5,2-2.1,4.6-3.6,6.9
				c-1.3,2.1-3.4,3.8-4.7,6.2c-1.2,2.2-3.1,4.2-4.2,6.6c-0.6,1.3-1.6,3.3-2.3,6.1c-0.4,1.7,1.1,4.1,0.9,6.6c-0.4,4.5,1,7.7,2.2,9.8
				c0,0-1.5-2.6-3.3-5C388.9,212.1,385.6,211.4,385.1,210.5z"/>
			<path class="st2" d="M385.1,210.5c-0.8-1.4-0.7-4-1.7-6.4c-0.7-1.8-2.2-3.7-2.7-6c-0.4-2-1.3-4.3-1.4-6.5c-0.1-2.1,0-4.5,0.3-6.7
				c0.4-2.3,1-4.7,1.7-7c0.6-2.3,2-4.4,2.9-6.6c0.9-2.2,1.7-4.5,2.8-6.6c1.1-2.1,2.8-3.8,4.1-5.8c1.2-2,3.2-3.4,4.7-5.3
				c1.4-1.9,2.5-4,4-5.8c1.5-1.8,2.4-4.2,4-5.9c1.6-1.7,3.7-2.9,5.5-4.6c1.7-1.6,3-3.7,4.8-5.2c1.8-1.5,4.6-1.9,6.4-3.3
				c1.8-1.5,3.3-3.4,5.2-4.8c1.9-1.4,4.6-1.6,6.6-2.9c1.9-1.3,3.6-3.1,5.6-4.3c2-1.3,3.2-3.7,5.2-4.9c2-1.2,4.9-1,6.9-2.1
				c2.1-1.2,3-4.4,5.1-5.5c2.1-1.1,4.5-1.6,6.6-2.6c2.1-1.1,4.1-2.5,6.2-3.5c2.2-1,5.2-0.1,7.3-1c2.2-1,3.7-3.5,5.9-4.3
				c2.2-0.9,4.4-2,6.5-2.8c2.3-0.8,5.2,0.4,7.4-0.4c2.3-0.8,4.1-2.8,6.3-3.5c2.4-0.7,5,0,7.2-0.5c2.5-0.6,4.7-1.2,6.8-1.6
				c2.7-0.5,4.8-3,6.7-3.2c3.9-0.3,5.8,1.6,6.1,2.9c0.1,0.6,0.5,3.1-2.2,6.5c-1.2,1.5-4,2-6.1,3.9c-1.5,1.4-2.6,3.7-4.7,5.3
				c-1.7,1.3-3.3,3.2-5.5,4.5c-1.9,1.2-4.1,2-6.3,3.2c-2,1.1-3.8,2.8-6,3.8c-2.2,1.1-4.9,1.1-6.8,2.1c-2.2,1.2-4.6,1.8-6.5,2.9
				c-2.2,1.2-4.2,2.6-6.1,3.7c-2.2,1.4-4.3,2.5-6.1,3.8c-2.1,1.5-3.6,3.5-5.3,4.8c-2.1,1.7-3.5,3.6-4.9,5.1c-1.9,2-3.2,3.8-4.5,5.5
				c-1.6,2.1-4.1,2.9-5.5,4.6c-1.5,1.7-2.1,4.2-4.4,5.5c-1.7,1-4.3,0.7-7,1.6c-1.9,0.7-4.1,1.1-6.7,1.8c-2.1,0.5-4.2,1.3-6.8,1.8
				c0,0-2,2.9-5.6,6.1c-1.6,1.5-3.3,3.4-5.4,5.5c-1.6,1.7-3.7,3.3-5.5,5.4c-1.6,1.9-3.2,3.8-4.9,6c-1.5,2-2.1,4.6-3.6,6.9
				c-1.3,2.1-3.4,3.8-4.7,6.2c-1.2,2.2-3.1,4.2-4.2,6.6c-0.6,1.3-1.6,3.3-2.3,6.1c-0.4,1.7,1.1,4.1,0.9,6.6c-0.4,4.5,1,7.7,2.2,9.8
				c0,0-1.5-2.6-3.3-5C388.9,212.1,385.6,211.4,385.1,210.5z"/>
		</g>
		<path class="st3" d="M429.5,253.5c0,0-21.5-7,0-8l-2-5c-3.1,0,6-10-2.3-14.3l0,0l-6.4-36.4l-12.1,7.1v41.7l-4.3,2.9l-8.2-42.1
			l-10.8,5.8v48.9l-2.9,1.9"/>
	</g>
	<path class="st3" d="M1514.4-151.9L1514.4-151.9c0.3-1.9,1.5-3.4,3.1-4.2c0.6-0.3,1.1-0.7,1.5-1.3c1.2-1.7,0.9-4.1-0.6-5.5
		c-1.7-1.5-4.4-1.3-5.8,0.5c-0.4,0.5-0.7,1.1-0.8,1.7c-0.4,1.9-1.7,3.5-3.5,4.3l0,0l-10.3,3c-0.7,0.2-1.2,0.6-1.6,1.2l-2,3.4
		c-0.4,0.7-0.1,1.5,0.7,1.8l0,0l2.4-3.1c0.6-0.8,1.5-1.3,2.4-1.4l2.4-0.3c0.6-0.1,1,0.6,0.6,1.1l-14.2,16.6
		c-0.4,0.4-0.3,1.1,0.1,1.4l0.7,0.6l8.9-7.4c0.3-0.2,0.7-0.2,0.9,0l1.2,1c0.3,0.3,0.4,0.7,0.2,1l-5.1,10.3l0.8,0.7
		c0.5,0.4,1.1,0.3,1.5-0.2l12.5-17.8c0.2-0.3,0.7-0.2,0.8,0.2l0.2,2.5c0.1,0.9-0.3,1.9-0.9,2.6l-2.6,3.1l0,0
		c0.4,0.7,1.3,0.8,1.9,0.3l3.2-2.9c0.4-0.3,0.6-0.8,0.6-1.3L1514.4-151.9z"/>
	<g>
		<polyline class="st3" points="293.2,376.2 302,323.6 309.5,370.4 		"/>
		<g>
			<path class="st6" d="M305.1,342.6c-1.3,0-2.7-0.1-4-0.4l-20.9-3.7c-6.1-1.1-11.3-4.4-14.9-9.5c-3.5-5-4.9-11.1-3.8-17.2
				c1.9-11,11.5-19,22.6-19c1.3,0,2.7,0.1,4,0.4l11.4,2l0.2-0.3c4.3-5.9,11.3-9.5,18.6-9.5c4.8,0,9.3,1.5,13.2,4.2l4.6,3.2
				c10.4,7.3,12.8,21.7,5.5,32.1c-4.3,6.1-11.3,9.7-18.8,9.7l-0.6,0l-0.2,0.2C317.8,339.8,311.6,342.6,305.1,342.6z"/>
			<path d="M318.4,286c4.7,0,9.1,1.4,13,4.1l4.6,3.2c10.1,7.2,12.6,21.2,5.4,31.4c-4.2,6-11.1,9.5-18.4,9.5c-0.1,0-0.2,0-0.3,0
				l-0.5,0l-0.3,0.3c-4.3,4.8-10.4,7.5-16.7,7.5c-1.3,0-2.6-0.1-3.9-0.3l-20.9-3.7c-12.2-2.2-20.4-13.9-18.3-26.1
				c1.9-10.8,11.2-18.6,22.1-18.6c1.3,0,2.6,0.1,3.9,0.3l11.1,2l0.6,0.1l0.4-0.5C304.4,289.5,311.2,286,318.4,286 M318.4,285
				c-7.3,0-14.4,3.4-19,9.7l-11.1-2c-1.4-0.2-2.8-0.4-4.1-0.4c-11.2,0-21.1,8-23.1,19.4v0c-2.3,12.8,6.3,25,19.1,27.2l20.9,3.7
				c1.4,0.2,2.8,0.4,4.1,0.4c6.8,0,13.1-3,17.5-7.8c0.1,0,0.2,0,0.4,0c7.4,0,14.6-3.5,19.2-9.9v0c7.5-10.6,5-25.3-5.6-32.8l-4.6-3.2
				C327.8,286.4,323.1,285,318.4,285L318.4,285z"/>
		</g>
	</g>
	<polygon class="st5" points="145.4,543.4 944.8,249.4 309.3,573.9 141.7,573.6 	"/>
	<path class="st7" d="M110,475.6c0,0,803.1-258.4,764.8-191.6L235.3,601.6L73.9,566.9L110,475.6z"/>
	<g>
		<path class="st8" d="M535.1,427.1L474,455.7c-1.4,0.6-2,2.3-1.3,3.6l0.5,1.1c0.6,1.4,2.3,2,3.6,1.3l61.1-28.6
			c1.4-0.6,2-2.3,1.3-3.6l-0.5-1.1C538.1,427.1,536.4,426.5,535.1,427.1z"/>
	</g>
	<g>
		<polyline class="st3" points="906.4,404.1 909.2,352.6 921.6,398.4 		"/>
		<g>
			<path class="st6" d="M899.9,373.3c-6.5,0-12.6-3.2-16.3-8.5l-5-7.2c-3-4.3-4.1-9.6-3.2-14.8c1-5.2,3.9-9.7,8.2-12.7l18.3-12.6
				c3.3-2.3,7.2-3.5,11.2-3.5c6.5,0,12.6,3.2,16.3,8.5l5,7.2c6.2,9,3.9,21.3-5.1,27.4l-18.3,12.6
				C907.8,372.1,903.9,373.3,899.9,373.3C899.9,373.3,899.9,373.3,899.9,373.3z"/>
			<path d="M913.2,314.6c6.3,0,12.3,3.1,15.9,8.3l5,7.2c6,8.7,3.8,20.7-4.9,26.8l-18.3,12.6c-3.2,2.2-7,3.4-10.9,3.4
				c-6.3,0-12.3-3.1-15.9-8.3l-5-7.2c-2.9-4.2-4-9.3-3.1-14.4c0.9-5.1,3.8-9.4,8-12.4l18.3-12.6
				C905.5,315.8,909.3,314.6,913.2,314.6 M913.2,313.6c-4,0-8,1.2-11.5,3.6l-18.3,12.6c-9.2,6.3-11.5,18.9-5.2,28.1l5,7.2
				c3.9,5.7,10.2,8.8,16.7,8.8c4,0,8-1.2,11.5-3.6l18.3-12.6c9.2-6.3,11.5-18.9,5.2-28.1l-5-7.2C926,316.7,919.6,313.6,913.2,313.6
				L913.2,313.6z"/>
		</g>
	</g>
	<g>
		<g>
			<path class="st5" d="M392.7,493.9l-83.8,39.2c-1.4,0.6-2,2.3-1.3,3.6l0.5,1.1c0.6,1.4,2.3,2,3.6,1.3l83.8-39.2
				c1.4-0.6,2-2.3,1.3-3.6l-0.5-1.1C395.7,493.8,394.1,493.2,392.7,493.9z"/>
		</g>
		<g>
			<path class="st5" d="M453,465.7l-63.8,29.8c-1.4,0.6-2,2.3-1.3,3.6l0.5,1.1c0.6,1.4,2.3,2,3.6,1.3l63.8-29.8
				c1.4-0.6,2-2.3,1.3-3.6l-0.5-1.1C456,465.6,454.4,465,453,465.7z"/>
		</g>
		<g>
			<path class="st5" d="M609.4,392.3l-53.6,25.1c-1.4,0.6-2,2.3-1.3,3.6l0.5,1.1c0.6,1.4,2.3,2,3.6,1.3l53.6-25.1
				c1.4-0.6,2-2.3,1.3-3.6l-0.5-1.1C612.4,392.2,610.8,391.7,609.4,392.3z"/>
		</g>
		<g>
			<path class="st5" d="M671.6,363.4l-41.4,19.4c-1.4,0.6-2,2.3-1.3,3.6l0.5,1.1c0.6,1.4,2.3,2,3.6,1.3l41.4-19.4
				c1.4-0.6,2-2.3,1.3-3.6l-0.5-1.1C674.6,363.3,673,362.7,671.6,363.4z"/>
		</g>
		<g>
			<path class="st5" d="M723.5,339.1l-13,6.1c-1.4,0.6-2,2.3-1.3,3.6l0.5,1.1c0.6,1.4,2.3,2,3.6,1.3l13-6.1c1.4-0.6,2-2.3,1.3-3.6
				l-0.5-1.1C726.5,339,724.9,338.5,723.5,339.1z"/>
		</g>
		<g>
			<path class="st5" d="M745.4,328.3l-7.6,3.6c-1.4,0.6-2,2.3-1.3,3.6l0.5,1.1c0.6,1.4,2.3,2,3.6,1.3l7.6-3.6c1.4-0.6,2-2.3,1.3-3.6
				l-0.5-1.1C748.4,328.3,746.8,327.7,745.4,328.3z"/>
		</g>
		<g>
			<path class="st5" d="M766,318.8l-7.6,3.6c-1.4,0.6-2,2.3-1.3,3.6l0.5,1.1c0.6,1.4,2.3,2,3.6,1.3l7.6-3.6c1.4-0.6,2-2.3,1.3-3.6
				l-0.5-1.1C769,318.7,767.4,318.1,766,318.8z"/>
		</g>
		<g>
			<path class="st5" d="M810.2,298.1l-7.6,3.6c-1.4,0.6-2,2.3-1.3,3.6l0.5,1.1c0.6,1.4,2.3,2,3.6,1.3l7.6-3.6c1.4-0.6,2-2.3,1.3-3.6
				l-0.5-1.1C813.2,298.1,811.6,297.5,810.2,298.1z"/>
		</g>
		<g>
			<path class="st5" d="M692.6,353.8l-13,6.1c-1.4,0.6-2,2.3-1.3,3.6l0.5,1.1c0.6,1.4,2.3,2,3.6,1.3l13-6.1c1.4-0.6,2-2.3,1.3-3.6
				l-0.5-1.1C695.5,353.8,693.9,353.2,692.6,353.8z"/>
		</g>
	</g>
	<g>
		<polyline class="st3" points="995.6,296.4 996.3,277.3 999.6,296.4 		"/>
		<g>
			<path class="st6" d="M1001.9,285.7c-0.3,0-0.5,0-0.8,0l-9.4-0.9c-4.4-0.4-7.7-4.4-7.3-8.9l0.4-3.7c0.4-4.2,3.9-7.3,8-7.3
				c0.3,0,0.5,0,0.8,0l9.4,0.9c2.2,0.2,4.1,1.3,5.5,2.9c1.4,1.7,2,3.8,1.8,5.9l-0.4,3.7C1009.5,282.6,1006.1,285.7,1001.9,285.7
				L1001.9,285.7z"/>
			<path d="M992.9,265.4c0.3,0,0.5,0,0.8,0l9.4,0.9c4.2,0.4,7.2,4.1,6.8,8.3l-0.4,3.7c-0.4,3.9-3.6,6.8-7.5,6.8c-0.3,0-0.5,0-0.8,0
				l-9.4-0.9c-2-0.2-3.8-1.2-5.1-2.7c-1.3-1.6-1.9-3.5-1.7-5.6l0.4-3.7C985.7,268.3,989,265.4,992.9,265.4 M992.9,264.4
				c-4.4,0-8.1,3.3-8.5,7.7l-0.4,3.7c-0.5,4.7,3,8.9,7.7,9.4l9.4,0.9c0.3,0,0.6,0,0.9,0c4.4,0,8.1-3.3,8.5-7.7l0.4-3.7
				c0.5-4.7-3-8.9-7.7-9.4l-9.4-0.9C993.5,264.4,993.2,264.4,992.9,264.4L992.9,264.4z"/>
		</g>
	</g>
	<g>
		<path class="st3" d="M1065.5,487.8l-6-19.7c-0.3-1.1-0.4-2.3-0.4-3.4v-32.1l-6.2-4.3l-18.5,64"/>
		<g>
			<path class="st6" d="M1068,451c-8.5,0-16.5-4.1-21.4-11.1l-0.2-0.2l-0.3,0c-0.5,0-1,0-1.5,0c-8.6,0-16.7-4.2-21.6-11.4
				c-4-5.8-5.5-12.7-4.2-19.6c1.3-6.9,5.1-12.9,10.9-16.8l12-8.3c4.4-3,9.5-4.6,14.9-4.6c8.6,0,16.7,4.2,21.6,11.4
				c1.6,2.4,2.9,5,3.7,7.8l0.1,0.4h0.5c14.5,0,26.2,11.8,26.2,26.2S1097,451,1082.6,451H1068z"/>
			<path d="M1056.7,379.5c8.5,0,16.4,4.2,21.2,11.1c1.6,2.3,2.8,4.9,3.6,7.7l0.2,0.7h0.8h0.2c14.2,0,25.7,11.5,25.7,25.7
				s-11.5,25.7-25.7,25.7H1068c-8.3,0-16.2-4.1-21-10.9l-0.3-0.5l-0.6,0c-0.5,0-1,0-1.4,0c-8.5,0-16.4-4.2-21.2-11.1
				c-3.9-5.7-5.4-12.5-4.1-19.3c1.2-6.8,5-12.6,10.7-16.5l12-8.3C1046.4,381.1,1051.5,379.5,1056.7,379.5L1056.7,379.5
				 M1056.7,378.5c-5.2,0-10.5,1.5-15.1,4.7l-12,8.3c-12.2,8.4-15.2,25-6.8,37.2v0c5.2,7.5,13.5,11.6,22,11.6c0.5,0,1,0,1.5,0
				c4.8,6.8,12.8,11.3,21.8,11.3h14.6c14.8,0,26.7-12,26.7-26.7s-12-26.7-26.7-26.7h-0.2c-0.8-2.8-2-5.5-3.7-8v0
				C1073.5,382.6,1065.2,378.5,1056.7,378.5L1056.7,378.5z"/>
		</g>
	</g>
	<g>
		<path class="st6" d="M523.2,555.6c-26.1,0-49.5-17.4-57-42.4l-7.4-24.8c-9.4-31.4,8.5-64.7,39.9-74.1l51.1-15.3
			c5.6-1.7,11.3-2.5,17.1-2.5c26.1,0,49.5,17.4,57,42.4l7.4,24.8c9.4,31.4-8.5,64.7-39.9,74.1l-51.1,15.3
			C534.8,554.8,529,555.6,523.2,555.6C523.2,555.6,523.2,555.6,523.2,555.6z"/>
		<path d="M567,396.9c12.4,0,24.8,4.1,34.9,11.5c10.4,7.6,17.9,18.2,21.6,30.6l7.4,24.8c4.5,15.1,2.9,31.1-4.6,44.9
			s-19.9,24-35,28.5l-51.1,15.3c-5.5,1.7-11.2,2.5-17,2.5c-12.4,0-24.8-4.1-34.9-11.5c-10.4-7.6-17.9-18.2-21.6-30.6l-7.4-24.8
			c-9.3-31.2,8.4-64.1,39.6-73.5l51.1-15.3C555.5,397.8,561.2,396.9,567,396.9 M567,395.9c-5.7,0-11.5,0.8-17.3,2.5l-51.1,15.3
			c-31.7,9.5-49.8,43-40.2,74.7l7.4,24.8c7.8,26,31.6,42.8,57.4,42.8c5.7,0,11.5-0.8,17.3-2.5l51.1-15.3c31.7-9.5,49.8-43,40.2-74.7
			l-7.4-24.8C616.6,412.7,592.8,395.9,567,395.9L567,395.9z"/>
	</g>
	<path class="st3" d="M1521.9,344.9l-0.2-0.3c-8.6-14.9-9-32.9-2-48.7c2.4-5.3,3.6-11.3,3.2-17.6c-1.1-19.5-17.2-35.1-36.7-35.7
		c-21.5-0.7-39.2,16.6-39.2,38c0,6.1,1.4,11.8,4,16.9c8,16.1,8.1,35,0,51.1v0l-56.9,81.9c-3.6,5.2-5.1,11.6-4.2,17.8l5.5,36.5
		c1.1,7.1,8.4,11.3,15.1,8.8l0,0l-0.7-36.9c-0.2-9.1,3.1-17.8,9.3-24.5l15.3-16.6c4-4.3,11.2-1.4,11.1,4.5l-5.2,203.1
		c-0.1,5.2,4,9.4,9.2,9.4h8.6l20.9-105.5c0.6-3.2,3.4-5.5,6.7-5.5h14.1c3.7,0,6.9,2.6,7.7,6.2l23.6,104.8h9.9c5.4,0,9.7-4.6,9.4-10
		L1536.1,421c-0.3-3.6,4.2-5.6,6.7-2.9l15.9,17.3c6,6.5,9.2,15.1,9,23.9l-0.7,37.3l0,0c6.7,2.6,14-1.7,15.1-8.8l5.9-39.3
		c0.7-4.4-0.4-9-3-12.7L1521.9,344.9z"/>
	<g>
		<rect x="-7" y="-338" class="st1" width="63" height="63"/>
		<rect x="56" y="-338" class="st5" width="63" height="63"/>
		<rect x="119" y="-338" class="st9" width="63" height="63"/>
		<rect x="182" y="-338" class="st10" width="63" height="63"/>
		<rect x="245" y="-338" class="st6" width="63" height="63"/>
		<rect x="308" y="-338" class="st11" width="63" height="63"/>
		<rect x="371" y="-338" class="st0" width="63" height="63"/>
		<rect x="434" y="-338" class="st4" width="63" height="63"/>
		<rect x="497" y="-338" class="st12" width="63" height="63"/>
	</g>
	<g>
		<path class="st8" d="M778.6,170.4c-1-3.8-23.5-9-49.2-9.5c-8.9-2-21.5-2.5-34.7-3c-12-0.5-24.4-2.1-34.8-0.1
			c-10.5,2-25.1,7.9-22,11.8c3.1,3.9,23.4,1.7,32.3,2.4c1.8,0.1,6.2,2.4,12.5,2.4c6.9,2.2,19.3,6.7,26.2,7.3c4,0.3,22.1,0.1,43-2.7
			C761.3,177.7,779.6,174.1,778.6,170.4z"/>
		<path class="st2" d="M778.6,170.4c-1-3.8-23.5-9-49.2-9.5c-8.9-2-21.5-2.5-34.7-3c-12-0.5-24.4-2.1-34.8-0.1
			c-10.5,2-25.1,7.9-22,11.8c3.1,3.9,23.4,1.7,32.3,2.4c1.8,0.1,6.2,2.4,12.5,2.4c6.9,2.2,19.3,6.7,26.2,7.3c4,0.3,22.1,0.1,43-2.7
			C761.3,177.7,779.6,174.1,778.6,170.4z"/>
	</g>
	<g>
		<path class="st8" d="M48.4,131.2c0.9,3.5,13.4,7.9,33.6,10.7c11.5,1.6,24.8,1.5,38.2,1.8c8.9,2,20.2,5.8,32.8,6.9
			c10.7,1,22.2,2.8,33.4,2.6c11.7-0.2,22.6-5.4,32.7-7.3c15.1-2.9,34.1-6.3,29.7-11.9c-4.4-5.7-30.6-11-43.3-12
			c-2.6-0.2-9,0.8-18,0.7c-9.9-3.2-28.4-3.5-38.2-4.2c-3.6-0.3-15.1-0.9-30.6-0.5c-9,0.3-19.2,2.8-30.2,4.3
			C74.8,124.2,47,125.9,48.4,131.2z"/>
		<path class="st2" d="M48.4,131.2c0.9,3.5,13.4,7.9,33.6,10.7c11.5,1.6,24.8,1.5,38.2,1.8c8.9,2,20.2,5.8,32.8,6.9
			c10.7,1,22.2,2.8,33.4,2.6c11.7-0.2,22.6-5.4,32.7-7.3c15.1-2.9,34.1-6.3,29.7-11.9c-4.4-5.7-30.6-11-43.3-12
			c-2.6-0.2-9,0.8-18,0.7c-9.9-3.2-28.4-3.5-38.2-4.2c-3.6-0.3-15.1-0.9-30.6-0.5c-9,0.3-19.2,2.8-30.2,4.3
			C74.8,124.2,47,125.9,48.4,131.2z"/>
	</g>
	<g>
		<path class="st8" d="M-96-91.7c-2.6-11.7-10.5-21.2-21.2-29.9c-8.7-7.1-18.8-15-31.4-20.4c-10.7-4.6-24.1-4.2-36.8-7.7
			c-11.6-3.2-22.8-9.9-35.5-12.4c-12.1-2.3-25-0.5-37.5-2.2c-12.4-1.7-24.8-2.9-37.1-4c-12.7-1.2-24.8-7.6-36.9-8.4
			c-13.1-0.8-25.8,0-37.5-0.4c-13.8-0.5-26.5,0.9-37.5,0.8c-17.3-0.2-29.8-3.1-36.8-3c-0.2-2.2-0.7-2.3-1.3-4.5
			c-2.4-10.8-10.8-18.4-20.3-26.6c-7.8-6.8-16.7-13.5-28.2-18.8c-9.7-4.5-19.8-10.6-31.4-14.2c-10.6-3.2-22.4-3.3-34.1-5.8
			c-11-2.4-22.3-4.1-33.9-5.9c-11.3-1.8-22.8-2.3-34.2-3.6c-11.5-1.3-22.6-6.1-33.9-7c-11.8-0.9-23.2-3.9-34.3-4.5
			c-12.1-0.6-23.8-1.4-34.5-1.7c-12.9-0.4-24.6,3.4-34.6,3.3c-18.3-0.1-30.9-1.9-34.5-1.8c-4.4,0.1-17.6,3.8-36.5,4.9
			c-10.6,0.6-23.4-3-36.9-1.8c-11.5,1-23.5,5.4-36.2,6.8c-11.9,1.3-24.5-0.6-36.8,1.2c-12.1,1.8-23.3,9.2-35.2,11.4
			c-12.3,2.4-25.8-1.4-37.3,1.5c-12.5,3.2-23.4,10.4-34.1,14.5c-12.7,4.9-25.8,7.7-34.6,13.9c-11.7,8.3-16,21-17.6,32
			c-1.6,10.9,3.1,20.7,10.8,31.2c6.4,8.8,12.2,20.2,21.6,27.8c9.4,7.6,22.2,10.5,31.4,16.3c13.7,8.6,24.5,16.4,29.4,18.9
			c10.8,5.6,21.7,11.7,34.7,15.9c10.9,3.5,23.9,1.7,38,4c11.2,1.8,22.9,10.1,37.1,11c11.5,0.8,24.4,0.9,38.3,1
			c11.7,0.1,24.4-4,38.1-4.4c11.9-0.3,24.5-2.1,38-2.8c12-0.7,25.2,0.2,38.6-0.8c5.9,9.6,12.3,22.3,22.3,30.8
			c9.6,8.1,20.9,15.3,30.7,21.5c14.5,9.2,26.8,16.8,31.9,19.5c9.8,5.1,22.7,3.4,34.2,7.4c9.9,3.4,19.6,9.7,32.1,12
			c10.1,1.9,21.6,1.4,34.2,2.5c10.4,0.9,21.6,2.3,34.1,2.7c10.6,0.3,22,3.9,34.3,3.8c10.7-0.1,21.9-6.2,34.1-6.7
			c10.8-0.4,22.1-0.9,34.2-1.6c10.9-0.7,22.1-2.2,34.1-3.2c10.9-0.8,22.7,2.9,34.5,1.9c13-1.1,25.1-1.2,36.5-1.7
			c13.2-0.6,25.3-4.4,36.5-4.4c13.4,0,25.5,5,36.6,5.2c13.6,0.2,25.8,1.1,36.8,0.6c13.4-0.6,24.1-8.9,35-12.3
			c11.3-3.5,20.1-8.8,30.4-17.3c3.1-2.6,16.5-8.7,27.1-21.4c7-8.4,14.6-18.2,19.2-29C-94.9-68.3-93.4-80.3-96-91.7z"/>
		<path class="st2" d="M-96-91.7c-2.6-11.7-10.5-21.2-21.2-29.9c-8.7-7.1-18.8-15-31.4-20.4c-10.7-4.6-24.1-4.2-36.8-7.7
			c-11.6-3.2-22.8-9.9-35.5-12.4c-12.1-2.3-25-0.5-37.5-2.2c-12.4-1.7-24.8-2.9-37.1-4c-12.7-1.2-24.8-7.6-36.9-8.4
			c-13.1-0.8-25.8,0-37.5-0.4c-13.8-0.5-26.5,0.9-37.5,0.8c-17.3-0.2-29.8-3.1-36.8-3c-0.2-2.2-0.7-2.3-1.3-4.5
			c-2.4-10.8-10.8-18.4-20.3-26.6c-7.8-6.8-16.7-13.5-28.2-18.8c-9.7-4.5-19.8-10.6-31.4-14.2c-10.6-3.2-22.4-3.3-34.1-5.8
			c-11-2.4-22.3-4.1-33.9-5.9c-11.3-1.8-22.8-2.3-34.2-3.6c-11.5-1.3-22.6-6.1-33.9-7c-11.8-0.9-23.2-3.9-34.3-4.5
			c-12.1-0.6-23.8-1.4-34.5-1.7c-12.9-0.4-24.6,3.4-34.6,3.3c-18.3-0.1-30.9-1.9-34.5-1.8c-4.4,0.1-17.6,3.8-36.5,4.9
			c-10.6,0.6-23.4-3-36.9-1.8c-11.5,1-23.5,5.4-36.2,6.8c-11.9,1.3-24.5-0.6-36.8,1.2c-12.1,1.8-23.3,9.2-35.2,11.4
			c-12.3,2.4-25.8-1.4-37.3,1.5c-12.5,3.2-23.4,10.4-34.1,14.5c-12.7,4.9-25.8,7.7-34.6,13.9c-11.7,8.3-16,21-17.6,32
			c-1.6,10.9,3.1,20.7,10.8,31.2c6.4,8.8,12.2,20.2,21.6,27.8c9.4,7.6,22.2,10.5,31.4,16.3c13.7,8.6,24.5,16.4,29.4,18.9
			c10.8,5.6,21.7,11.7,34.7,15.9c10.9,3.5,23.9,1.7,38,4c11.2,1.8,22.9,10.1,37.1,11c11.5,0.8,24.4,0.9,38.3,1
			c11.7,0.1,24.4-4,38.1-4.4c11.9-0.3,24.5-2.1,38-2.8c12-0.7,25.2,0.2,38.6-0.8c5.9,9.6,12.3,22.3,22.3,30.8
			c9.6,8.1,20.9,15.3,30.7,21.5c14.5,9.2,26.8,16.8,31.9,19.5c9.8,5.1,22.7,3.4,34.2,7.4c9.9,3.4,19.6,9.7,32.1,12
			c10.1,1.9,21.6,1.4,34.2,2.5c10.4,0.9,21.6,2.3,34.1,2.7c10.6,0.3,22,3.9,34.3,3.8c10.7-0.1,21.9-6.2,34.1-6.7
			c10.8-0.4,22.1-0.9,34.2-1.6c10.9-0.7,22.1-2.2,34.1-3.2c10.9-0.8,22.7,2.9,34.5,1.9c13-1.1,25.1-1.2,36.5-1.7
			c13.2-0.6,25.3-4.4,36.5-4.4c13.4,0,25.5,5,36.6,5.2c13.6,0.2,25.8,1.1,36.8,0.6c13.4-0.6,24.1-8.9,35-12.3
			c11.3-3.5,20.1-8.8,30.4-17.3c3.1-2.6,16.5-8.7,27.1-21.4c7-8.4,14.6-18.2,19.2-29C-94.9-68.3-93.4-80.3-96-91.7z"/>
	</g>
	<g>
		<path class="st8" d="M1275.5,121.6c-2-8.7-9-13.9-21.8-18.2c-9.2-3.1-20-4.4-31.1-5.9c-10.9-1.5-21.7-5.1-31.6-5.6
			c-15.1-0.7-27-3.8-31.6-3.7c-0.1-0.8-0.7,1.9-0.9,1.1c-2-8.8-12.6-11.8-25.6-16.1c-9.3-3.1-19.2-9.6-30.5-11.1
			c-11.1-1.5-22.6,0.6-32.6,0.1c-16.9-0.8-30-0.5-32.4-0.5c-3.1,0.1-18.9,0.2-37.5,2.2c-12.2,1.4-24.9,5.2-36.5,8.2
			c-16.2,4.2-29.9,7.3-31.2,16.3c-2.1,14.6,27.7,28.7,33,31.5c7.7,4,15.7,7.1,28.7,8.7c8.1,1,17.7-1.3,30.3-1.6
			c8.7-0.2,17.1,6.4,28.8,5.6c6.9,11.2,28.6,15.6,32.8,17.8c8.6,4.5,17.1,7.6,32.9,9c9.2,0.8,20.4,2.6,35,2
			c10.1-0.4,21.5-3.3,35-4.5c15.7-1.4,28.1-0.1,37.9,0.1c16.1,0.2,27.5,3.6,37.3-4.4C1266.2,150.6,1278.6,135.3,1275.5,121.6z"/>
		<path class="st2" d="M1275.5,121.6c-2-8.7-9-13.9-21.8-18.2c-9.2-3.1-20-4.4-31.1-5.9c-10.9-1.5-21.7-5.1-31.6-5.6
			c-15.1-0.7-27-3.8-31.6-3.7c-0.1-0.8-0.7,1.9-0.9,1.1c-2-8.8-12.6-11.8-25.6-16.1c-9.3-3.1-19.2-9.6-30.5-11.1
			c-11.1-1.5-22.6,0.6-32.6,0.1c-16.9-0.8-30-0.5-32.4-0.5c-3.1,0.1-18.9,0.2-37.5,2.2c-12.2,1.4-24.9,5.2-36.5,8.2
			c-16.2,4.2-29.9,7.3-31.2,16.3c-2.1,14.6,27.7,28.7,33,31.5c7.7,4,15.7,7.1,28.7,8.7c8.1,1,17.7-1.3,30.3-1.6
			c8.7-0.2,17.1,6.4,28.8,5.6c6.9,11.2,28.6,15.6,32.8,17.8c8.6,4.5,17.1,7.6,32.9,9c9.2,0.8,20.4,2.6,35,2
			c10.1-0.4,21.5-3.3,35-4.5c15.7-1.4,28.1-0.1,37.9,0.1c16.1,0.2,27.5,3.6,37.3-4.4C1266.2,150.6,1278.6,135.3,1275.5,121.6z"/>
	</g>
	<path class="st3" d="M-201.5,230c18,0,26.6-16.3,26.6-29.9c0-17.7,16.7-32.1,37.3-32.1s37.3,14.4,37.3,32.1
		c0,12.9,9.8,29.2,27.8,29.2"/>
	<g>
		<path class="st3" d="M469.9,253.7c-6-2.4-10.2-8.2-10.2-15.1c0-8.9,7.2-16.2,16.2-16.2c8.9,0,16.2,7.2,16.2,16.2
			c0,6.5-3.8,12.1-9.4,14.7"/>
	</g>
	<path class="st3" d="M403.5,256.5l32.9-44.8c1.5-2.1,4.6-2.1,6.2,0l32.9,44.8"/>
</g>
<g id="window">
	<path class="st12" d="M-9-5.2v635.9h1358V-5.2H-9z M664,528.4H180.3V319H664V528.4z M664,308H180.3V96.8H664V308z M1159.7,528.4
		H677V319h482.7V528.4z M1159.7,308H676V96.8h483.7V308z"/>
	<g>
		<rect x="676.5" y="96.8" class="st2" width="483.2" height="210.7"/>
		<rect x="180.3" y="96.8" class="st2" width="484.2" height="210.7"/>
		<rect x="676.5" y="318.5" class="st2" width="483.2" height="209.9"/>
		<rect x="180.3" y="318.5" class="st2" width="484.2" height="209.9"/>
	</g>
	<rect x="-1241.5" y="2154.5" class="st2" width="1839" height="866.9"/>
</g>
<g id="Layer_1">
	<polyline class="st5" points="-1212,662 -1588,1202 -797,1202 -1086,662 	"/>
</g>
<g id="Layer_4">
	<path class="st13" d="M1793.5,7.5c-5.5-50.9-60.1-89.8-111-90c-55.5-0.3-101.1,45.3-114,86c-10,31.6,2.2,52.3-18,90
		c-10.5,19.7-19.2,24-24,43c-2.6,10.2-3.4,21.9-2.5,32.7c-9.2,4.1-16.8,11.6-20.5,19.3c-5.8,12,1.2,17.1-5,34
		c-3.6,9.8-5.8,7.8-17,28c-9.5,17.2-11.4,25-9,32c1.2,3.7,3.4,6.3,5,8l11,2c1-3.3,2.8-8,6-13c0.9-1.4,6.6-10.2,16-16
		c12.7-7.9,20.7-3.3,32-7c20.4-6.7,39.1-36,32-61c-0.7-2.4-1.7-5-2.9-7.5c14-14.7,33.1-35.2,64.9-50.5c46.9-22.5,63.8-6,100-30
		C1740.9,104.6,1799.6,64.4,1793.5,7.5z"/>
	<path class="st7" d="M768.2,536.7l0.6,2.5c0.1,0.4,0,0.9-0.3,1.2l-5.8,6.5c-1.3,1.4-0.6,3.7,1.3,4.3l7.6,2.1c0.5,0.1,0.8,0.5,1,1
		l0.8,3.3c0.1,0.6,0.7,1,1.3,1h11c0.6,0,1.2-0.4,1.3-1l5.2-20.8c0.2-0.8-0.4-1.7-1.3-1.7h-21.4C768.6,535,768,535.8,768.2,536.7z
		 M769.4,549.9c-1.9-0.5-2.5-2.9-1.1-4.4l0,0c0.7-0.7,2-0.4,2.3,0.6l0.5,2.1C771.4,549.3,770.4,550.2,769.4,549.9L769.4,549.9z"/>
	<g>
		<path class="st7" d="M997,402.9l-26.3,160.9c-0.4,2.5-2.6,4.3-5.1,4.2l-93.9-4.6c-2.6-0.1-4.7-2.3-4.7-5v-2c0-2.8,2.4-5.1,5.2-5
			l83.4,4.5c2.5,0.1,4.7-1.6,5.2-4.1l26.5-150.6c0.4-2.4,2.5-4.1,4.9-4.1l0,0C995.2,397.1,997.5,399.9,997,402.9z"/>
		<path class="st7" d="M1007.2,623.2l-64.1-76.9l30.7-32.6c2.7-2.9,0.7-7.6-3.3-7.6H868.5c-2.5,0-4.5,2-4.5,4.5c0,2.5,2,4.5,4.5,4.5
			h79.1c3.9,0,6,4.7,3.3,7.6l-93.8,99.8c-2.7,2.9-0.7,7.6,3.3,7.6h1.7c1.2,0,2.4-0.5,3.3-1.4l71.9-76.2l61.5,76c0.8,1,2,1.6,3.3,1.6
			h1.9C1007.5,630.1,1009.5,625.9,1007.2,623.2z"/>
	</g>
	<path class="st7" d="M647,766.5H496l7.3-4.8c7-4.7,15.2-7.2,23.7-7.2H647"/>
	<path class="st7" d="M808,561.6c1.6-0.7,1.2-3.6-0.5-3.6h-137h-1h-137c-1.7,0-2.1,2.8-0.5,3.6l17.8,7.9c0.9,0.4,1.2,1.6,0.8,2.6
		l-24.9,56.7c-0.5,1.2,0.2,2.7,1.3,2.7l0,0c0.5,0,1-0.3,1.2-0.8l33.8-58.4c0.3-0.5,0.7-0.8,1.2-0.8h106.2h1h105.2
		c0.5,0,0.9,0.3,1.2,0.8l34.5,58.5c0.3,0.5,0.7,0.8,1.2,0.8h0.3c1.1,0,1.9-1.5,1.3-2.7l-24.9-56.7c-0.4-1,0-2.2,0.8-2.6L808,561.6z"
		/>
	<path class="st5" d="M889,274"/>
	<path class="st7" d="M306.5,637.5h162.2c12.8,0,19.7-15,11.3-24.8c-10.1-11.8-25.7-24.5-48.5-30.2c-42.5-10.6-63.1-23.6-67.2-26.4
		c-0.4-0.3-0.8-0.6-1.2-1c-3.3-2.8-24-18.8-51.5,0.4c-19.8,13.9-27.4,45.2-30.3,64.9c-1.3,9,5.7,17.1,14.8,17.1H306.5z"/>
</g>
</svg>
