<?xml version="1.0" encoding="utf-8"?>
<!-- Generator: Adobe Illustrator 22.1.0, SVG Export Plug-In . SVG Version: 6.00 Build 0)  -->
<svg version="1.1" id="Layer_1" xmlns="http://www.w3.org/2000/svg" xmlns:xlink="http://www.w3.org/1999/xlink" x="0px" y="0px"
	 viewBox="0 0 1340 630" style="enable-background:new 0 0 1340 630;" xml:space="preserve">
<style type="text/css">
	.st0{fill:#8BA4C9;}
	.st1{fill:#F2F2F2;stroke:#000000;stroke-miterlimit:10;}
	.st2{fill:#FFFFFF;stroke:#000000;stroke-miterlimit:10;}
	.st3{fill:#DDDDD3;}
	.st4{fill:none;stroke:#000000;stroke-miterlimit:10;}
	.st5{fill:#CCB98D;stroke:#000000;stroke-miterlimit:10;}
	.st6{fill:#9AAF92;stroke:#000000;stroke-miterlimit:10;}
	.st7{fill:#E8E7E7;}
	.st8{fill:#84CE9B;stroke:#000000;stroke-miterlimit:10;}
	.st9{fill:#B3B3B3;stroke:#000000;stroke-miterlimit:10;}
	.st10{fill:#7A8974;stroke:#000000;stroke-miterlimit:10;}
	.st11{fill:#414143;}
	.st12{fill:#E8E0CD;}
	.st13{clip-path:url(#SVGID_3_);fill:#8BA4C9;stroke:#000000;stroke-miterlimit:10;}
	.st14{clip-path:url(#SVGID_5_);fill:#E8E0CD;stroke:#424143;stroke-miterlimit:10;}
	.st15{clip-path:url(#SVGID_9_);fill:#E8E0CD;stroke:#424143;stroke-miterlimit:10;}
	.st16{clip-path:url(#SVGID_11_);fill:#E8E0CD;stroke:#424143;stroke-miterlimit:10;}
	.st17{clip-path:url(#SVGID_13_);fill:#8BA4C9;}
	.st18{clip-path:url(#SVGID_15_);fill:#E8E0CD;stroke:#424143;stroke-miterlimit:10;}
	.st19{clip-path:url(#SVGID_17_);fill:#E8E0CD;stroke:#424143;stroke-miterlimit:10;}
	.st20{clip-path:url(#SVGID_19_);fill:#E8E0CD;stroke:#424143;stroke-miterlimit:10;}
	.st21{clip-path:url(#SVGID_21_);fill:#E8E0CD;stroke:#424143;stroke-miterlimit:10;}
	.st22{clip-path:url(#SVGID_23_);fill:#E8E0CD;stroke:#424143;stroke-miterlimit:10;}
	.st23{clip-path:url(#SVGID_25_);fill:#E8E0CD;stroke:#424143;stroke-miterlimit:10;}
	.st24{fill:none;stroke:#424143;stroke-miterlimit:10;}
	.st25{fill:#8BA4C9;stroke:#000000;stroke-miterlimit:10;}
	.st26{clip-path:url(#SVGID_26_);fill:#BACEB2;}
	.st27{clip-path:url(#SVGID_26_);fill:#8BA4C9;stroke:#000000;stroke-miterlimit:10;}
	.st28{clip-path:url(#SVGID_26_);fill:#7282B2;stroke:#000000;stroke-miterlimit:10;}
	.st29{clip-path:url(#SVGID_26_);fill:#8BA4C9;}
	.st30{clip-path:url(#SVGID_26_);fill:#424143;stroke:#000000;stroke-miterlimit:10;}
</style>
<rect x="-15.5" y="-10.4" class="st0" width="1380" height="305.6"/>
<path class="st1" d="M-178.9,352.2c19.4-68.6,67.4-107.9,88.3-122.6c29.1-20.5,37.5-15.7,90.4-41.1c63.3-30.4,72.4-47.4,125.9-78
	c43.8-25,104.1-59.5,179.9-64.3c41.8-2.7,116.8-8.6,177.5,43.5c48.4,41.5,79,112.1,65.4,173.4c-6.2,27.9-20.8,50.9-34.9,73
	c0,0-26,41-61.9,73c-62.9,56.1-172.1,61.4-304.2,77.2c-224.9,26.8-279.3,55.5-315.5,14.4C-207.9,455-184.1,370.7-178.9,352.2z"/>
<path class="st1" d="M813.6-60.7c-9.6,3.1-84.6,28.1-96,81c-1.8,8.1-5.9,27.2,5,42c10,13.5,27,15.9,35,17c27.5,3.8,50.4-9.6,66-19
	c21.3-12.9,16.9-16.7,39-31c31.8-20.6,44.6-15,60-33c2.4-2.8,21-25.1,14-46c-9-26.7-52.7-29.6-59-30
	C846.6-81.8,823.1-67.3,813.6-60.7z"/>
<path class="st1" d="M1246.4,171c-54.3,26.5-76.9,3.3-121.5,33.7c-30.4,20.8-42.1,46.8-45.1,53.9c-5.3,12.8-11.3,27.1-7.7,42.5
	c8.4,35.2,63.6,59.7,107.8,52.8c29.2-4.5,26.4-18.5,81.6-39.6c29.5-11.3,35.2-9.1,66.3-22c17.1-7.1,39.4-16.5,63.2-33.3
	c32.7-23.1,64.9-45.8,63.9-76.7c-1.2-36.3-47.6-58.2-51.8-60.1c-34.6-15.8-68.7-3.1-86,3.1C1279.8,138.7,1283.5,152.9,1246.4,171z"
	/>
<polyline class="st2" points="1196.5,310 1201.5,302 1236.5,306 1236.5,309 "/>
<path class="st3" d="M1351.2,638.6V-4.5H-5.2v643.2h1356.4L1351.2,638.6L1351.2,638.6z M678,21.2h643.2V142H678V21.2z M678,156.9
	h643.2v120.8H678V156.9z M19.9,21.2h643.2V142H19.9V21.2z M19.9,156.9h643.2v120.8H19.9V156.9z"/>
<rect x="678" y="21.2" class="st4" width="643.2" height="120.8"/>
<rect x="19.9" y="21.2" class="st4" width="643.2" height="120.8"/>
<rect x="19.9" y="156.9" class="st4" width="643.2" height="120.8"/>
<rect x="678" y="156.9" class="st4" width="643.2" height="120.8"/>
<polygon class="st5" points="255.5,635.5 239.5,600.5 225.5,600.5 250.5,635.5 "/>
<polygon class="st5" points="256.5,426.5 27.5,426.5 27.5,606.5 39.8,606.5 26.5,635.5 31.5,635.5 52.2,606.5 256.5,606.5 "/>
<path class="st6" d="M540.4,411.2h-5.2h-2.5h-5.2c0,0,1.1,42.8-15.6,42.8h20.8h2.5H556C539.3,453.9,540.4,411.2,540.4,411.2z"/>
<path class="st6" d="M555.2,448.5h-43.3c-0.8,0-1.6,0.5-1.9,1.2l-0.8,1.6c-0.7,1.4,0.3,3.2,1.9,3.2h45c1.6,0,2.7-1.7,1.9-3.2
	l-0.8-1.6C556.7,449,556,448.5,555.2,448.5z"/>
<path class="st6" d="M815.4,436.5c0,9.5-13.6,17.2-30.5,17.2s-30.5-7.7-30.5-17.2H815.4z"/>
<path class="st7" d="M684.5,412.6"/>
<path class="st5" d="M846.5,453.8H629.2h-2.8H409.2l0,0c0,6.8,5.5,12.4,12.4,12.4h33.3c7.8,0,14.1,6.3,14.1,14.1v163.1h11.4
	l9.3-163.9c0.4-7.5,6.6-13.3,14.1-13.3h122.7h2.8H752c7.5,0,13.6,5.8,14.1,13.3l9.3,163.9h11.4V480.3c0-7.8,6.3-14.1,14.1-14.1h33.3
	C840.9,466.2,846.5,460.6,846.5,453.8L846.5,453.8z"/>
<path class="st5" d="M834.8,631.4l24.5-84.7c1.2-4.2-2-8.5-6.4-8.5h-26.1v-7.5c0-2.9,2.3-5.2,5.2-5.2h103c3.3,0,6.1-2.6,6.2-5.9
	l7.4-155.3c0.2-4.3,3.7-7.7,8-7.7h2.7l0.6,165.3c0,6.9,0.8,13.8,2.4,20.5l21,89H972l-26.5-79.7c-2.7-8.1-10.3-13.5-18.8-13.5
	l-35.4,0.1c-8.4,0-15.9,5.3-18.6,13.3l-27.8,79.9L834.8,631.4L834.8,631.4z"/>
<path class="st6" d="M553.8,372.8l28.7,43.9H550h-32.5H485l28.7-43.9c1.5-2.3,4.2-3.8,7-3.8H547C549.7,369,552.3,370.4,553.8,372.8z
	"/>
<path class="st8" d="M1198.8,338.5c3.5,39.8-1.7,68.4-7,87c-1.7,5.9-6.2,21.4-10,21c-4.1-0.4-5.6-18.9-7-36c-0.8-9.1-1.4-17-1-28
	c0.6-15.1,2.5-19.4,4-36c0.6-7.2,1.3-17.8,1-31"/>
<path class="st8" d="M1208.8,346.5c11.7,33.7,12.3,58.5,11,74c-0.3,3.3-1.3,15.8-4,16c-1,0.1-2.9-1.4-13-36c-2.4-8.2-3.6-12.3-4-14
	c-5.5-22.5-3-31.5-8-54c-0.8-3.6-2.1-8.8-4-15"/>
<path class="st8" d="M1283.8,344.5c-11.2-6.9-15.9-7.6-23-12c-8.1-5.1-10.9-9.8-16-15c-6.3-6.4-16.5-13.9-34-19
	c-3.1-0.9-6.1-2.1-8.9-3.5c-7.8-3.8-16.1-4.1-23.6-0.4c-4.9,2.4-8.8,6.2-11.6,10.1c-23.9,23.6-44.7,40-59.9,50.9
	c-11.7,8.5-23.1,15.8-22,18c1.3,2.6,19.7-2.6,36-12c5.3-3.1,11-7,30-24c5.8-5.2,13.3-12.1,21.9-20.2l33.1-4.3
	c11.9,6.3,20.8,12.6,27,17.5c12.7,10,18,16.9,30,20c2.2,0.6,8.8,1.4,22,3c6.3,0.8,9.6,1.1,10,0
	C1295.6,351.7,1288.2,347.2,1283.8,344.5z"/>
<path class="st8" d="M1213.3,305.1c14.5,13.5,26.3,23.6,34.5,30.4c6.4,5.3,12.7,10.2,19,19c1.5,2.1,7.2,10.2,11,21
	c8.6,24.6,4.5,55.5-2.5,56.6c-4.3,0.7-6.5-10.4-26-46c-10.7-19.6-20.9-35.5-27-45c-7.2-11.2-13.5-20.5-18-27"/>
<path class="st6" d="M1227.8,522.5h-116c-1.6,51.1,13,92.8,41,104c4.2,1.7,9.2,2.8,15,3c3.6,0.4,6.8,0.3,9.3,0.2
	c1.1-0.1,2.2-0.1,3.3-0.1c4.9,0.1,9-0.7,12.4-2.1C1217.4,618,1232.8,575.6,1227.8,522.5z"/>
<path class="st5" d="M1179.8,315.5c0,0,10.4,19.2,10.4,80.3s-13.1,126.7-13.1,126.7h13.1c0,0,13.1-72.1,13.1-126.7
	s-8.5-80.3-8.5-80.3"/>
<path class="st8" d="M1172.3,305.1c-42.7,29.4-62.2,60-72,81c-1.6,3.5-14.8,32-9,36c1,0.7,4.4,1.9,27-18c22.9-20.2,34.4-30.3,44-46
	c6.3-10.3,15.3-28,19-53"/>
<path class="st8" d="M1181.3,305.1c-4.2,9.7-13.8,32-27,63c-11.2,26.3-17.6,41.6-18,63c-0.1,4.3-0.7,33.3,9,36
	c9.8,2.8,24.6-22.9,27-27c9.6-16.7,12.9-31.7,18-63c2.8-17.4,6-38.7,9-63"/>
<path class="st8" d="M1190.3,311.1c11.9,54.1,25.6,92.1,36,117c4.8,11.4,12.2,28,18,27c6-1,7.7-20.5,9-36c1.7-19.8,4.1-32.1,0-45
	c-9.2-29-28.4-49.6-45-63"/>
<rect x="33.5" y="432.5" class="st6" width="218" height="168"/>
<path class="st5" d="M101,420h79.9c0.6,0,0.7,0.8,0.1,1c-10.8,2.7-42.5,9.5-80.2,0C100.3,420.8,100.4,420,101,420z"/>
<path class="st9" d="M56.2,499l-7.8,1.7c-2.5,0.5-4.6,2.1-5.8,4.3l-2.2,4c-0.6,1-0.9,2.1-1,3.2l-0.9,7.8c-0.5,4.6,1.5,9.1,5.4,11.7
	l23.4,15.8c0.9,0.6,1.9,1.2,2.9,1.7l38.8,18c0.4,0.2,0.8,0.4,1.2,0.7l19.7,15c9,6.9,19.7,11.4,30.9,13l6.5,0.9
	c2.9,0.4,5.8,0.6,8.8,0.6H218c2.8,0,5.3-1.8,6.2-4.5l0,0c0.9-2.7-0.1-5.7-2.4-7.3l-6.8-4.9c-0.3-0.2-0.5-0.4-0.8-0.5L60.6,499.6
	C59.2,498.9,57.7,498.7,56.2,499z"/>
<polygon class="st10" points="146,500.5 181.4,433 102.5,433 94,461 96,495.5 "/>
<path class="st10" d="M54.5,499.5l91.8,76.3c9.1,7.6,20.7,11.7,32.5,11.7H208c4.6,0,8.9-2.5,11.1-6.5l3.4-6.1
	c1.9-3.5,2.7-7.5,2.1-11.4l0,0c-0.7-5-3.8-9.3-8.4-11.4l-39.1-18.8c-3.6-1.8-6.5-4.8-8.1-8.5l-14.2-34c-0.8-2-2.7-3.2-4.9-3.2h-34.3
	c-8.9,0-16.7-6.1-18.9-14.7l-3.3-16.3l-19.8,9.8c-7.6,2.6-13.4,8.9-15.2,16.7L54.5,499.5z"/>
<path class="st11" d="M40.6,535h3.8l11.9,18.6h0.1V535h4v26.2h-3.8l-11.9-18.6h-0.1v18.6h-4V535z"/>
<path class="st11" d="M65.8,535h16.8v3.8H69.7v7.5h10.9v3.5H69.7v7.7h12.8v3.8H65.8V535z"/>
<path class="st11" d="M83.9,535h4.2l4.1,18.6h0.1l5.1-18.6h2.9l5.1,18.6h0.1l4.1-18.6h4.2l-6.6,26.2h-3.3l-5-18.9h-0.1l-5,18.9h-3.3
	L83.9,535z"/>
<path class="st11" d="M40.9,588.6c2,1.6,4.6,2.6,7.4,2.6c3.2,0,5.2-1.5,5.2-3.6c0-1.8-1.1-3.2-3.4-3.5c-1.2-0.1-2.1-0.3-3.5-0.5
	c-4.5-0.6-7-3.6-7-7.4c0-4.5,3.1-7.7,8.5-7.7c3.2,0,6.1,1.1,8.5,2.7l-2.2,3.3c-1.9-1.2-4.2-2-6.5-2c-2.4,0-4.4,1.3-4.4,3.8
	c0,1.5,1.1,2.9,3.7,3.4c0.7,0.1,1.7,0.3,2.9,0.4c4.9,0.6,7.2,4,7.2,7.6c0,4.8-3.6,7.6-9.2,7.6c-3.9,0-7.3-1.2-10-3.6L40.9,588.6z"/>
<path class="st11" d="M76.1,583.5H65.7V595h-4v-26.2h4V580h10.4v-11.2h4V595h-4V583.5z"/>
<path class="st11" d="M85.9,573.2c1.3-2.3,4.1-4.7,8.2-4.7s7,2.4,8.2,4.7c0.8,1.5,1.1,2.3,1.1,8.6s-0.3,7.1-1.1,8.6
	c-1.3,2.3-4.1,4.7-8.2,4.7s-7-2.4-8.2-4.7c-0.8-1.5-1.1-2.3-1.1-8.6S85,574.8,85.9,573.2z M90,589.3c0.8,1,2.2,1.9,4.1,1.9
	s3.2-0.9,4.1-1.9c1-1.3,1.3-2.1,1.3-7.4s-0.3-6.1-1.3-7.4c-0.8-1-2.2-1.9-4.1-1.9s-3.2,0.9-4.1,1.9c-1,1.3-1.3,2.1-1.3,7.4
	S89,587.9,90,589.3z"/>
<path class="st11" d="M108.1,568.7h16.8v3.8h-12.8v7.5H123v3.5h-10.9v7.7h12.8v3.8h-16.8C108.1,595,108.1,568.7,108.1,568.7z"/>
<path class="st11" d="M128.9,588.6c2,1.6,4.6,2.6,7.4,2.6c3.2,0,5.2-1.5,5.2-3.6c0-1.8-1.1-3.2-3.4-3.5c-1.2-0.1-2.1-0.3-3.5-0.5
	c-4.5-0.6-7-3.6-7-7.4c0-4.5,3.1-7.7,8.5-7.7c3.2,0,6.1,1.1,8.5,2.7l-2.2,3.3c-1.9-1.2-4.2-2-6.5-2c-2.4,0-4.4,1.3-4.4,3.8
	c0,1.5,1.1,2.9,3.7,3.4c0.7,0.1,1.7,0.3,2.9,0.4c4.9,0.6,7.2,4,7.2,7.6c0,4.8-3.6,7.6-9.2,7.6c-3.9,0-7.3-1.2-10-3.6L128.9,588.6z"
	/>
<path class="st10" d="M160.5,498.5l-41,3.9c-0.7,0.1-1.3,0.4-1.7,1l0,0c-1.2,1.7,0.3,4,2.3,3.7l43.1-7.4l-1.1-0.8
	C161.6,498.6,161,498.4,160.5,498.5z"/>
<path class="st10" d="M162.7,504.7l-40.1,9.5c-0.7,0.2-1.3,0.6-1.6,1.2l0,0c-0.9,1.9,0.8,3.9,2.8,3.3l41.7-13.3l-1.2-0.6
	C163.8,504.6,163.2,504.6,162.7,504.7z"/>
<path class="st10" d="M167.1,513.4l-39.3,12.3c-0.7,0.2-1.2,0.7-1.5,1.3l0,0c-0.8,1.9,1.1,3.9,3.1,3.1L170,514l-1.3-0.5
	C168.2,513.2,167.7,513.2,167.1,513.4z"/>
<rect x="140.5" y="426.5" class="st5" width="116" height="180"/>
<path class="st5" d="M240.5,506.1v19.6c0,1.2,2.8,1.9,4.9,1.2l0,0c0.9-0.3,1.5-0.7,1.5-1.2v-19.6c0-0.4-0.4-0.8-0.9-1.1l0,0
	C243.9,504.1,240.5,504.8,240.5,506.1z"/>
<g>
	<g>
		<circle id="SVGID_7_" class="st12" cx="-923.9" cy="208" r="114.5"/>
	</g>
	<g>
		<g>
			<defs>
				<circle id="SVGID_2_" cx="-923.9" cy="208" r="114.5"/>
			</defs>
			<clipPath id="SVGID_3_">
				<use xlink:href="#SVGID_2_"  style="overflow:visible;"/>
			</clipPath>
			<path class="st13" d="M-970,128.3c-15,7.4-22.6,19.6-31.5,34.2c-4.5,7.3-13.1,21.6-17.5,42c-3.3,15.2-0.5,16.5-2.7,48.5
				c-1.9,28.4-4.2,28.5-3.3,40.5c0.6,8.5,2.3,34.4,18.5,51c19.5,20.1,49.2,18,83.5,15.5c21.6-1.6,52.9-3.8,85-25
				c13.8-9.1,38.9-25.7,49.5-58c2.6-7.8,11.2-34.1,0-58.5c-5-11-7.6-7.5-31.5-39.5c-6.6-8.8-11.8-16.3-21.5-27.5
				C-854,137-859.1,133.3-861,132c-12.2-8.4-24.2-10.7-31.7-12c-14.1-2.5-25.1-1-47,2C-955.8,124.2-963.9,125.3-970,128.3z"/>
		</g>
	</g>
	<g>
		<g>
			<defs>
				<circle id="SVGID_4_" cx="-923.9" cy="208" r="114.5"/>
			</defs>
			<clipPath id="SVGID_5_">
				<use xlink:href="#SVGID_4_"  style="overflow:visible;"/>
			</clipPath>
			<path class="st14" d="M-853.2,224.2c9.2,2.3,39.5,10.6,52.2,25.8c1.5,1.7,3.1,4,3.8,7.2c2.2,11-9.3,23.9-19.8,28.5
				c-21.4,9.4-57.4-7.4-58.2-30C-875.9,238.2-855,225.3-853.2,224.2z"/>
		</g>
	</g>
	<g>
		<g>
			<defs>
				<circle id="SVGID_6_" cx="-923.9" cy="208" r="114.5"/>
			</defs>
			<clipPath id="SVGID_9_">
				<use xlink:href="#SVGID_6_"  style="overflow:visible;"/>
			</clipPath>
			<polyline class="st15" points="-858.5,255.9 -819,282.4 -906.8,346.3 -909.2,282.2 			"/>
		</g>
	</g>
	<g>
		<g>
			<defs>
				<circle id="SVGID_10_" cx="-923.9" cy="208" r="114.5"/>
			</defs>
			<clipPath id="SVGID_11_">
				<use xlink:href="#SVGID_10_"  style="overflow:visible;"/>
			</clipPath>
			<path class="st16" d="M-844.2,206.8c0.2,6.3-0.6,11.4-1.2,15.5c-3.4,20.6-15.9,55.7-40.8,64c-7.6,2.5-23.3,4.9-37.7,5.5
				c-0.1,0-0.2,0-0.3,0c-4.7,0.2-38.7,1-56.8-20.8c-5.7-6.9-9.2-15.3-16-32c-4.6-11.1-9.5-23.1-10.7-31
				c-4.5-29.6,30.3-85.1,83.8-83.8C-874.4,125.5-845.5,174.6-844.2,206.8z"/>
		</g>
	</g>
	<g>
		<g>
			<defs>
				<circle id="SVGID_12_" cx="-923.9" cy="208" r="114.5"/>
			</defs>
			<clipPath id="SVGID_13_">
				<use xlink:href="#SVGID_12_"  style="overflow:visible;"/>
			</clipPath>
			<path class="st17" d="M-1010.5,232c4.3,0,4.4-0.3,11-3c15.1-6.4,13.8-18.4,25-26c16.7-11.2,31.1,6.3,59.5-3.5
				c11.8-4.1,11.6-7.9,26-14.5c19.1-8.8,37-10.1,49-10l-9.2-15l-36-32.5L-912,123l-27.7-1l-33.1,10.8l-14,13.8l-22,35.8
				c0,0-3,12-3.5,13.2S-1010.5,232-1010.5,232z"/>
		</g>
	</g>
	<g>
		<g>
			<defs>
				<circle id="SVGID_14_" cx="-923.9" cy="208" r="114.5"/>
			</defs>
			<clipPath id="SVGID_15_">
				<use xlink:href="#SVGID_14_"  style="overflow:visible;"/>
			</clipPath>
			<path class="st18" d="M-981.5,214.4l11.3,65.3c0.3,1.4,1.6,6.5,6.4,9.6c5.3,3.5,12.8,3.2,18.7-1c1.9-1.8,3.9-3.6,5.8-5.4"/>
		</g>
	</g>
	<g>
		<g>
			<defs>
				<circle id="SVGID_16_" cx="-923.9" cy="208" r="114.5"/>
			</defs>
			<clipPath id="SVGID_17_">
				<use xlink:href="#SVGID_16_"  style="overflow:visible;"/>
			</clipPath>
			<path class="st19" d="M-1010.5,232c1.7,0,2.7-0.1,3.8-0.3l0,0c1.7-0.3,5.6-1.7,7.3-2.8c4.9-3.2,12-17.7,16-25.5
				c2.6-5.2,4-7.7,4.2-8c9.3-8.7,27.1,4.9,61.2,6c10.7,0.3,20.3-0.6,25.2-7c2.8-3.5,2.4-6.5,3.8-9.5c2.9-6.4,13.7-12.4,49-10"/>
		</g>
	</g>
	<g>
		<g>
			<defs>
				<circle id="SVGID_18_" cx="-923.9" cy="208" r="114.5"/>
			</defs>
			<clipPath id="SVGID_19_">
				<use xlink:href="#SVGID_18_"  style="overflow:visible;"/>
			</clipPath>
			<path class="st20" d="M-954.2,238c2.4,0.4,8,1,14.3-1.5c5.9-2.3,9.5-6.1,11-8"/>
		</g>
	</g>
	<g>
		<g>
			<defs>
				<circle id="SVGID_20_" cx="-923.9" cy="208" r="114.5"/>
			</defs>
			<clipPath id="SVGID_21_">
				<use xlink:href="#SVGID_20_"  style="overflow:visible;"/>
			</clipPath>
			<path class="st21" d="M-976.2,245.2c-0.8,0.8-3.3,3-7.2,3.5c-2.8,0.3-5-0.4-6.1-0.9"/>
		</g>
	</g>
	<g>
		<g>
			<defs>
				<circle id="SVGID_22_" cx="-923.9" cy="208" r="114.5"/>
			</defs>
			<clipPath id="SVGID_23_">
				<use xlink:href="#SVGID_22_"  style="overflow:visible;"/>
			</clipPath>
			<path class="st22" d="M-891.8,197.5c-3.1-14,3.3-27.6,14.5-33c8.2-3.9,18.5-3.2,26,2.2c11.5,8.4,12.4,25.3,6.5,36
				c-3.2,5.8-7.9,9.1-10.8,10.8"/>
		</g>
	</g>
	<g>
		<g>
			<defs>
				<circle id="SVGID_24_" cx="-923.9" cy="208" r="114.5"/>
			</defs>
			<clipPath id="SVGID_25_">
				<use xlink:href="#SVGID_24_"  style="overflow:visible;"/>
			</clipPath>
			<path class="st23" d="M-799.9,243.5c-3.4-2.6-11.3-7.3-31.2-3.6c-40.8,7.5-49,34.4-96.8,60.5c-32.6,17.8-55.3,19.8-54.6,27.1
				c0.9,8.7,34.2,12.8,55.5,13.6c10.9,0.4,115.1,3,134.8-48.3C-785.9,276.7-787.3,253.4-799.9,243.5z"/>
		</g>
	</g>
	<g>
		<circle id="SVGID_8_" class="st24" cx="-923.9" cy="208" r="114.5"/>
	</g>
</g>
<line class="st24" x1="-854" y1="179" x2="-871.2" y2="200.8"/>
<g>
	<path class="st4" d="M726.8,453.8L726.8,453.8c-6.2,0-11.2-5-11.2-11.2v-23.4H738v23.4C738,448.8,733,453.8,726.8,453.8z"/>
	<path class="st25" d="M726.8,453.8L726.8,453.8c-6.2,0-11.2-5-11.2-11.2V433H738v9.6C738,448.8,733,453.8,726.8,453.8z"/>
</g>
<g>
	<defs>
		<circle id="SVGID_1_" cx="140.9" cy="277.7" r="114.5"/>
	</defs>
	<use xlink:href="#SVGID_1_"  style="overflow:visible;fill:#8BA4C9;"/>
	<clipPath id="SVGID_26_">
		<use xlink:href="#SVGID_1_"  style="overflow:visible;"/>
	</clipPath>
	<circle class="st26" cx="141.2" cy="281.6" r="91"/>
	<path class="st27" d="M136.6,224c-3,0.2-9.9,0.6-17.2,3.7c-10.4,4.5-16.2,12.2-20.7,18.5c-8.2,11.3-4.2,12.1-14.8,32.2
		c-6,11.6-10.6,17.5-8.2,24.5c1.5,4.6,5.3,7.4,6.5,8.2c4.8,3.6,9.1,3.3,19.2,4.5c11.5,1.4,9.9,2.2,19.8,3.2c2.7,0.3,5.2,0.5,7.4,0.6
		c5.7,0.3,8.9,0.2,16.8,0.1c9.4-0.1,14.1-0.1,16.5,0.1c5.7,0.5,6.3,1.2,14.2,2.1c7,0.8,10.6,1.2,13.2,0.4
		c7.8-2.2,11.8-9.7,12.3-10.6c3-5.8,1.8-12.9-0.8-26.8c-2.2-11.6-3.3-17.3-6.9-24.9c-1.9-3.9-5.5-11.1-12.8-18.4
		c-3-3-12.7-12-28-15.8C145.2,223.7,138.8,223.9,136.6,224z"/>
	<path class="st28" d="M108.8,261.4c-1.5,3.5-2.4,6.7-2.8,8.8c-1.5,7.6,0.6,14.5,2.6,20.6c1.8,5.7,3.2,10,7.1,14.5
		c3.2,3.6,6.6,5.8,9,7c-0.3,1.8-0.8,4.4-1.8,7.5c-1.5,4.5-2.4,5.1-2.7,6.9c-0.8,5.7,6.7,12.5,13.8,15.2c1.9,0.7,11.9,4.6,20-1.5
		c5.3-3.9,6.7-9.8,7-11.6c-1.7-2.3-3.7-5.4-5.2-9.4c-0.7-2-1.3-3.8-1.6-5.5c3.9-2,9.6-5.6,13.6-12.1c2-3.3,2.9-6.1,4.1-10.2
		c1.3-4.4,3.1-10.4,2.6-18.2c-0.3-4.4-1.2-7.8-1.7-9.6c-0.5-1.8-3.1-9.7-8.4-15.3c-10.7-11.3-32-12.4-42.5-4.4
		c-2.5,1.9-6.8,6.2-10.1,11.7C110.2,258.2,109.1,260.5,108.8,261.4z"/>
	<path class="st29" d="M105.9,263.5c1.7-0.2,4.6-0.5,8.3-1c15-1.9,19-3.4,26.1-2.2c0.2,0,3,0.7,8.4,2.1c9.7,2.5,10.9,2.9,13.8,3.5
		c3.3,0.7,8.1,1.6,14,2c0-1.8-0.1-4.5-0.7-7.6c-0.7-3.6-2.6-13.5-10.4-20.3c-5.3-4.6-10.8-5.8-17.8-7.2c-7.2-1.5-16.3-3.3-25.1,1.4
		c-5.3,2.8-8.5,6.9-10.2,9.1c-2,2.6-5.2,6.9-6.2,13.2C105.6,259.4,105.7,261.8,105.9,263.5z"/>
	<path class="st28" d="M105.9,263.5c1.7-0.2,4.6-0.5,8.3-1c14.4-1.9,15.8-3.2,22.4-2.7c0.3,0,2.1,0.4,2.1,0.4l3.2-12.8l3.6,14.2
		c0,0,1.6,0.4,3.2,0.8c9.7,2.5,10.9,2.9,13.8,3.5c3.3,0.7,8.1,1.6,14,2"/>
	<path class="st28" d="M108.9,263.8c-0.8-0.5-4.4-2.6-8.3-1.3c-6.3,2-6.7,10.6-6.7,11.1c0,1.1-0.2,5.6,3.1,8.8
		c0.5,0.5,2.7,2.6,6,2.7c1.8,0.1,3.2-0.5,3.9-0.9"/>
	<line class="st30" x1="100.4" y1="270.5" x2="103.8" y2="277.7"/>
	<path class="st28" d="M172.9,268.5c0.9-0.5,3.3-1.6,6.1-1c5.2,1.1,6.9,6.9,7.2,7.8c1.2,3.9,0.4,8.6-2.5,11.8
		c-0.7,0.8-3.2,3.5-7,3.4c-2.2,0-3.8-0.9-4.6-1.5"/>
	<line class="st30" x1="180.2" y1="278" x2="176.3" y2="283.9"/>
	<path class="st27" d="M74,385.3c-0.2-2.5,1.7-7.3,5.5-16.8c5.7-14.3,8.6-21.5,12.9-26.8c9.4-11.5,24.5-15.8,27.6-16.8
		c0,0,0.1,0,0.1,0c1.6,1.6,4,3.7,7.4,5.6c2.5,1.3,6.2,3.4,11.5,3.5c4.9,0.1,8.3-1.5,11.4-2.9c3.7-1.7,4.9-3.1,5.5-4.1
		c1-1.7,1.2-3.4,1.3-4.5c1.9,0.2,4.7,0.6,8,1.5c4.2,1.2,16.3,5,33.6,24.7c10.9,12.4,22.9,26,18.8,34.9c-2.1,4.6-8,6.8-7.1,9.6
		c0.9,2.9,7.9,1.8,9,4.5c1.4,3.4-7,11.1-13.9,14.8c-11.8,6.3-42.4,14.9-86,2.2C108.8,411.6,75.5,401.9,74,385.3z"/>
	<line class="st30" x1="92.5" y1="352.7" x2="87.1" y2="416.4"/>
	<line class="st30" x1="186.7" y1="346.7" x2="205.1" y2="410.6"/>
	<path class="st28" d="M121.7,266.5c3.6-0.2,5.6-0.3,9.1-0.5"/>
	<line class="st28" x1="150.3" y1="267.7" x2="159" y2="269.3"/>
	<path class="st28" d="M142,265c0.5,0.8,1.4,2.7,1.5,5.2c0,2.4-0.8,4.3-1.3,5.1"/>
	<polyline class="st28" points="134,286.5 140.9,283.5 147.8,287.4 	"/>
	<use xlink:href="#SVGID_1_"  style="overflow:visible;fill:none;stroke:#000000;stroke-miterlimit:10;"/>
</g>
</svg>
