<?xml version="1.0" encoding="utf-8"?>
<!-- Generator: Adobe Illustrator 22.1.0, SVG Export Plug-In . SVG Version: 6.00 Build 0)  -->
<svg version="1.1" id="Layer_1" xmlns="http://www.w3.org/2000/svg" xmlns:xlink="http://www.w3.org/1999/xlink" x="0px" y="0px"
	 viewBox="0 0 1340 630" style="enable-background:new 0 0 1340 630;" xml:space="preserve">
<style type="text/css">
	.st0{fill:#8BA4C9;}
	.st1{fill:#F2F2F2;stroke:#000000;stroke-miterlimit:10;}
	.st2{fill:#FFFFFF;stroke:#000000;stroke-miterlimit:10;}
	.st3{fill:#DDDDD3;}
	.st4{fill:none;stroke:#000000;stroke-miterlimit:10;}
	.st5{fill:#CCB98D;stroke:#000000;stroke-miterlimit:10;}
	.st6{fill:#9AAF92;stroke:#000000;stroke-miterlimit:10;}
	.st7{fill:#E8E7E7;}
	.st8{fill:#84CE9B;stroke:#000000;stroke-miterlimit:10;}
	.st9{fill:#B3B3B3;stroke:#000000;stroke-miterlimit:10;}
	.st10{fill:#7A8974;stroke:#000000;stroke-miterlimit:10;}
	.st11{fill:#414143;}
	.st12{clip-path:url(#SVGID_1_);}
	.st13{fill:#E8E0CD;}
	.st14{clip-path:url(#SVGID_3_);fill:#8BA4C9;stroke:#000000;stroke-miterlimit:10;}
	.st15{clip-path:url(#SVGID_5_);fill:#E8E0CD;stroke:#424143;stroke-miterlimit:10;}
	.st16{clip-path:url(#SVGID_9_);fill:#E8E0CD;stroke:#424143;stroke-miterlimit:10;}
	.st17{clip-path:url(#SVGID_11_);fill:#E8E0CD;stroke:#424143;stroke-miterlimit:10;}
	.st18{clip-path:url(#SVGID_13_);fill:#8BA4C9;}
	.st19{clip-path:url(#SVGID_15_);fill:#E8E0CD;stroke:#424143;stroke-miterlimit:10;}
	.st20{clip-path:url(#SVGID_17_);fill:none;stroke:#414143;stroke-miterlimit:10;}
	.st21{clip-path:url(#SVGID_19_);fill:#E8E0CD;stroke:#424143;stroke-miterlimit:10;}
	.st22{clip-path:url(#SVGID_21_);fill:#E8E0CD;stroke:#424143;stroke-miterlimit:10;}
	.st23{clip-path:url(#SVGID_25_);fill:#E8E0CD;stroke:#414143;stroke-miterlimit:10;}
	.st24{clip-path:url(#SVGID_1_);fill:#8BA4C9;stroke:#414143;stroke-miterlimit:10;}
	.st25{fill:#7282B2;}
	.st26{fill:#E8E0CD;stroke:#414143;stroke-miterlimit:10;}
	.st27{fill:#7282B2;stroke:#000000;stroke-miterlimit:10;}
	.st28{clip-path:url(#SVGID_27_);fill:#7282B2;stroke:#000000;stroke-miterlimit:10;}
	.st29{clip-path:url(#SVGID_29_);fill:#8BA4C9;}
	.st30{clip-path:url(#SVGID_29_);}
	.st31{fill:#F2DCA5;}
	.st32{clip-path:url(#SVGID_35_);fill:#7282B2;stroke:#000000;stroke-miterlimit:10;}
	.st33{clip-path:url(#SVGID_37_);fill:#7282B2;stroke:#000000;stroke-miterlimit:10;}
	.st34{clip-path:url(#SVGID_39_);fill:#7282B2;stroke:#000000;stroke-miterlimit:10;}
	.st35{clip-path:url(#SVGID_41_);fill:#7282B2;stroke:#000000;stroke-miterlimit:10;}
	.st36{fill:none;}
	.st37{clip-path:url(#SVGID_43_);fill:#7282B2;stroke:#000000;stroke-miterlimit:10;}
	.st38{clip-path:url(#SVGID_45_);fill:#E8E7E7;}
	.st39{clip-path:url(#SVGID_47_);fill:#7282B2;stroke:#000000;stroke-miterlimit:10;}
	.st40{clip-path:url(#SVGID_49_);fill:none;stroke:#000000;stroke-miterlimit:10;}
	.st41{clip-path:url(#SVGID_51_);fill:#7282B2;stroke:#000000;stroke-miterlimit:10;}
	.st42{clip-path:url(#SVGID_53_);fill:none;stroke:#000000;stroke-miterlimit:10;}
	.st43{clip-path:url(#SVGID_55_);fill:none;stroke:#000000;stroke-miterlimit:10;}
	.st44{clip-path:url(#SVGID_57_);fill:#7282B2;}
	.st45{clip-path:url(#SVGID_59_);fill:none;stroke:#000000;stroke-miterlimit:10;}
	.st46{clip-path:url(#SVGID_65_);fill:#84CE9B;stroke:#000000;stroke-miterlimit:10;}
	.st47{clip-path:url(#SVGID_69_);fill:#84CE9B;stroke:#000000;stroke-miterlimit:10;}
	.st48{clip-path:url(#SVGID_71_);fill:#8BA4C9;}
	.st49{clip-path:url(#SVGID_71_);}
	.st50{clip-path:url(#SVGID_77_);fill:#7282B2;stroke:#000000;stroke-miterlimit:10;}
	.st51{clip-path:url(#SVGID_79_);fill:#7282B2;stroke:#000000;stroke-miterlimit:10;}
	.st52{clip-path:url(#SVGID_81_);fill:#7282B2;stroke:#000000;stroke-miterlimit:10;}
	.st53{clip-path:url(#SVGID_83_);fill:#7282B2;stroke:#000000;stroke-miterlimit:10;}
	.st54{clip-path:url(#SVGID_85_);fill:#7282B2;stroke:#000000;stroke-miterlimit:10;}
	.st55{clip-path:url(#SVGID_87_);fill:#E8E7E7;}
	.st56{clip-path:url(#SVGID_89_);fill:#7282B2;stroke:#000000;stroke-miterlimit:10;}
	.st57{clip-path:url(#SVGID_91_);fill:none;stroke:#000000;stroke-miterlimit:10;}
	.st58{clip-path:url(#SVGID_93_);fill:#7282B2;stroke:#000000;stroke-miterlimit:10;}
	.st59{clip-path:url(#SVGID_95_);fill:none;stroke:#000000;stroke-miterlimit:10;}
	.st60{clip-path:url(#SVGID_97_);fill:none;stroke:#000000;stroke-miterlimit:10;}
	.st61{clip-path:url(#SVGID_99_);fill:#7282B2;}
	.st62{clip-path:url(#SVGID_101_);fill:none;stroke:#000000;stroke-miterlimit:10;}
	.st63{clip-path:url(#SVGID_107_);fill:#84CE9B;stroke:#000000;stroke-miterlimit:10;}
	.st64{clip-path:url(#SVGID_111_);fill:#84CE9B;stroke:#000000;stroke-miterlimit:10;}
</style>
<rect x="-15.5" y="-10.4" class="st0" width="1380" height="305.6"/>
<path class="st1" d="M-178.9,352.2c19.4-68.6,67.4-107.9,88.3-122.6c29.1-20.5,37.5-15.7,90.4-41.1c63.3-30.4,72.4-47.4,125.9-78
	c43.8-25,104.1-59.5,179.9-64.3c41.8-2.7,116.8-8.6,177.5,43.5c48.4,41.5,79,112.1,65.4,173.4c-6.2,27.9-20.8,50.9-34.9,73
	c0,0-26,41-61.9,73c-62.9,56.1-172.1,61.4-304.2,77.2c-224.9,26.8-279.3,55.5-315.5,14.4C-207.9,455-184.1,370.7-178.9,352.2z"/>
<path class="st1" d="M813.6-60.7c-9.6,3.1-84.6,28.1-96,81c-1.8,8.1-5.9,27.2,5,42c10,13.5,27,15.9,35,17c27.5,3.8,50.4-9.6,66-19
	c21.3-12.9,16.9-16.7,39-31c31.8-20.6,44.6-15,60-33c2.4-2.8,21-25.1,14-46c-9-26.7-52.7-29.6-59-30
	C846.6-81.8,823.1-67.3,813.6-60.7z"/>
<path class="st1" d="M1246.4,171c-54.3,26.5-76.9,3.3-121.5,33.7c-30.4,20.8-42.1,46.8-45.1,53.9c-5.3,12.8-11.3,27.1-7.7,42.5
	c8.4,35.2,63.6,59.7,107.8,52.8c29.2-4.5,26.4-18.5,81.6-39.6c29.5-11.3,35.2-9.1,66.3-22c17.1-7.1,39.4-16.5,63.2-33.3
	c32.7-23.1,64.9-45.8,63.9-76.7c-1.2-36.3-47.6-58.2-51.8-60.1c-34.6-15.8-68.7-3.1-86,3.1C1279.8,138.7,1283.5,152.9,1246.4,171z"
	/>
<polyline class="st2" points="1196.5,310 1201.5,302 1236.5,306 1236.5,309 "/>
<path class="st3" d="M1351.2,638.6V-4.5H-5.2v643.2h1356.4L1351.2,638.6L1351.2,638.6z M678,21.2h643.2V142H678V21.2z M678,156.9
	h643.2v120.8H678V156.9z M19.9,21.2h643.2V142H19.9V21.2z M19.9,156.9h643.2v120.8H19.9V156.9z"/>
<rect x="678" y="21.2" class="st4" width="643.2" height="120.8"/>
<rect x="19.9" y="21.2" class="st4" width="643.2" height="120.8"/>
<rect x="19.9" y="156.9" class="st4" width="643.2" height="120.8"/>
<rect x="678" y="156.9" class="st4" width="643.2" height="120.8"/>
<polygon class="st5" points="255.5,635.5 239.5,600.5 225.5,600.5 250.5,635.5 "/>
<polygon class="st5" points="256.5,426.5 27.5,426.5 27.5,606.5 39.8,606.5 26.5,635.5 31.5,635.5 52.2,606.5 256.5,606.5 "/>
<path class="st6" d="M540.4,411.2h-5.2h-2.5h-5.2c0,0,1.1,42.8-15.6,42.8h20.8h2.5H556C539.3,453.9,540.4,411.2,540.4,411.2z"/>
<path class="st6" d="M555.2,448.5h-43.3c-0.8,0-1.6,0.5-1.9,1.2l-0.8,1.6c-0.7,1.4,0.3,3.2,1.9,3.2h45c1.6,0,2.7-1.7,1.9-3.2
	l-0.8-1.6C556.7,449,556,448.5,555.2,448.5z"/>
<path class="st6" d="M815.4,436.5c0,9.5-13.6,17.2-30.5,17.2s-30.5-7.7-30.5-17.2H815.4z"/>
<path class="st7" d="M684.5,412.6"/>
<path class="st5" d="M846.5,453.8H629.2h-2.8H409.2l0,0c0,6.8,5.5,12.4,12.4,12.4h33.3c7.8,0,14.1,6.3,14.1,14.1v163.1h11.4
	l9.3-163.9c0.4-7.5,6.6-13.3,14.1-13.3h122.7h2.8H752c7.5,0,13.6,5.8,14.1,13.3l9.3,163.9h11.4V480.3c0-7.8,6.3-14.1,14.1-14.1h33.3
	C840.9,466.2,846.5,460.6,846.5,453.8L846.5,453.8z"/>
<path class="st5" d="M834.8,631.4l24.5-84.7c1.2-4.2-2-8.5-6.4-8.5h-26.1v-7.5c0-2.9,2.3-5.2,5.2-5.2h103c3.3,0,6.1-2.6,6.2-5.9
	l7.4-155.3c0.2-4.3,3.7-7.7,8-7.7h2.7l0.6,165.3c0,6.9,0.8,13.8,2.4,20.5l21,89H972l-26.5-79.7c-2.7-8.1-10.3-13.5-18.8-13.5
	l-35.4,0.1c-8.4,0-15.9,5.3-18.6,13.3l-27.8,79.9L834.8,631.4L834.8,631.4z"/>
<path class="st6" d="M553.8,372.8l28.7,43.9H550h-32.5H485l28.7-43.9c1.5-2.3,4.2-3.8,7-3.8H547C549.7,369,552.3,370.4,553.8,372.8z
	"/>
<path class="st8" d="M1198.8,338.5c3.5,39.8-1.7,68.4-7,87c-1.7,5.9-6.2,21.4-10,21c-4.1-0.4-5.6-18.9-7-36c-0.8-9.1-1.4-17-1-28
	c0.6-15.1,2.5-19.4,4-36c0.6-7.2,1.3-17.8,1-31"/>
<path class="st8" d="M1208.8,346.5c11.7,33.7,12.3,58.5,11,74c-0.3,3.3-1.3,15.8-4,16c-1,0.1-2.9-1.4-13-36c-2.4-8.2-3.6-12.3-4-14
	c-5.5-22.5-3-31.5-8-54c-0.8-3.6-2.1-8.8-4-15"/>
<path class="st8" d="M1283.8,344.5c-11.2-6.9-15.9-7.6-23-12c-8.1-5.1-10.9-9.8-16-15c-6.3-6.4-16.5-13.9-34-19
	c-3.1-0.9-6.1-2.1-8.9-3.5c-7.8-3.8-16.1-4.1-23.6-0.4c-4.9,2.4-8.8,6.2-11.6,10.1c-23.9,23.6-44.7,40-59.9,50.9
	c-11.7,8.5-23.1,15.8-22,18c1.3,2.6,19.7-2.6,36-12c5.3-3.1,11-7,30-24c5.8-5.2,13.3-12.1,21.9-20.2l33.1-4.3
	c11.9,6.3,20.8,12.6,27,17.5c12.7,10,18,16.9,30,20c2.2,0.6,8.8,1.4,22,3c6.3,0.8,9.6,1.1,10,0
	C1295.6,351.7,1288.2,347.2,1283.8,344.5z"/>
<path class="st8" d="M1213.3,305.1c14.5,13.5,26.3,23.6,34.5,30.4c6.4,5.3,12.7,10.2,19,19c1.5,2.1,7.2,10.2,11,21
	c8.6,24.6,4.5,55.5-2.5,56.6c-4.3,0.7-6.5-10.4-26-46c-10.7-19.6-20.9-35.5-27-45c-7.2-11.2-13.5-20.5-18-27"/>
<path class="st6" d="M1227.8,522.5h-116c-1.6,51.1,13,92.8,41,104c4.2,1.7,9.2,2.8,15,3c3.6,0.4,6.8,0.3,9.3,0.2
	c1.1-0.1,2.2-0.1,3.3-0.1c4.9,0.1,9-0.7,12.4-2.1C1217.4,618,1232.8,575.6,1227.8,522.5z"/>
<path class="st5" d="M1179.8,315.5c0,0,10.4,19.2,10.4,80.3s-13.1,126.7-13.1,126.7h13.1c0,0,13.1-72.1,13.1-126.7
	s-8.5-80.3-8.5-80.3"/>
<path class="st8" d="M1172.3,305.1c-42.7,29.4-62.2,60-72,81c-1.6,3.5-14.8,32-9,36c1,0.7,4.4,1.9,27-18c22.9-20.2,34.4-30.3,44-46
	c6.3-10.3,15.3-28,19-53"/>
<path class="st8" d="M1181.3,305.1c-4.2,9.7-13.8,32-27,63c-11.2,26.3-17.6,41.6-18,63c-0.1,4.3-0.7,33.3,9,36
	c9.8,2.8,24.6-22.9,27-27c9.6-16.7,12.9-31.7,18-63c2.8-17.4,6-38.7,9-63"/>
<path class="st8" d="M1190.3,311.1c11.9,54.1,25.6,92.1,36,117c4.8,11.4,12.2,28,18,27c6-1,7.7-20.5,9-36c1.7-19.8,4.1-32.1,0-45
	c-9.2-29-28.4-49.6-45-63"/>
<rect x="33.5" y="432.5" class="st6" width="218" height="168"/>
<path class="st5" d="M101,420h79.9c0.6,0,0.7,0.8,0.1,1c-10.8,2.7-42.5,9.5-80.2,0C100.3,420.8,100.4,420,101,420z"/>
<path class="st9" d="M56.2,499l-7.8,1.7c-2.5,0.5-4.6,2.1-5.8,4.3l-2.2,4c-0.6,1-0.9,2.1-1,3.2l-0.9,7.8c-0.5,4.6,1.5,9.1,5.4,11.7
	l23.4,15.8c0.9,0.6,1.9,1.2,2.9,1.7l38.8,18c0.4,0.2,0.8,0.4,1.2,0.7l19.7,15c9,6.9,19.7,11.4,30.9,13l6.5,0.9
	c2.9,0.4,5.8,0.6,8.8,0.6H218c2.8,0,5.3-1.8,6.2-4.5l0,0c0.9-2.7-0.1-5.7-2.4-7.3l-6.8-4.9c-0.3-0.2-0.5-0.4-0.8-0.5L60.6,499.6
	C59.2,498.9,57.7,498.7,56.2,499z"/>
<polygon class="st10" points="146,500.5 181.4,433 102.5,433 94,461 96,495.5 "/>
<path class="st10" d="M54.5,499.5l91.8,76.3c9.1,7.6,20.7,11.7,32.5,11.7H208c4.6,0,8.9-2.5,11.1-6.5l3.4-6.1
	c1.9-3.5,2.7-7.5,2.1-11.4l0,0c-0.7-5-3.8-9.3-8.4-11.4l-39.1-18.8c-3.6-1.8-6.5-4.8-8.1-8.5l-14.2-34c-0.8-2-2.7-3.2-4.9-3.2h-34.3
	c-8.9,0-16.7-6.1-18.9-14.7l-3.3-16.3l-19.8,9.8c-7.6,2.6-13.4,8.9-15.2,16.7L54.5,499.5z"/>
<path class="st11" d="M40.6,535h3.8l11.9,18.6h0.1V535h4v26.2h-3.8l-11.9-18.6h-0.1v18.6h-4V535z"/>
<path class="st11" d="M65.8,535h16.8v3.8H69.7v7.5h10.9v3.5H69.7v7.7h12.8v3.8H65.8V535z"/>
<path class="st11" d="M83.9,535h4.2l4.1,18.6h0.1l5.1-18.6h2.9l5.1,18.6h0.1l4.1-18.6h4.2l-6.6,26.2h-3.3l-5-18.9h-0.1l-5,18.9h-3.3
	L83.9,535z"/>
<path class="st11" d="M40.9,588.6c2,1.6,4.6,2.6,7.4,2.6c3.2,0,5.2-1.5,5.2-3.6c0-1.8-1.1-3.2-3.4-3.5c-1.2-0.1-2.1-0.3-3.5-0.5
	c-4.5-0.6-7-3.6-7-7.4c0-4.5,3.1-7.7,8.5-7.7c3.2,0,6.1,1.1,8.5,2.7l-2.2,3.3c-1.9-1.2-4.2-2-6.5-2c-2.4,0-4.4,1.3-4.4,3.8
	c0,1.5,1.1,2.9,3.7,3.4c0.7,0.1,1.7,0.3,2.9,0.4c4.9,0.6,7.2,4,7.2,7.6c0,4.8-3.6,7.6-9.2,7.6c-3.9,0-7.3-1.2-10-3.6L40.9,588.6z"/>
<path class="st11" d="M76.1,583.5H65.7V595h-4v-26.2h4V580h10.4v-11.2h4V595h-4V583.5z"/>
<path class="st11" d="M85.9,573.2c1.3-2.3,4.1-4.7,8.2-4.7s7,2.4,8.2,4.7c0.8,1.5,1.1,2.3,1.1,8.6s-0.3,7.1-1.1,8.6
	c-1.3,2.3-4.1,4.7-8.2,4.7s-7-2.4-8.2-4.7c-0.8-1.5-1.1-2.3-1.1-8.6S85,574.8,85.9,573.2z M90,589.3c0.8,1,2.2,1.9,4.1,1.9
	s3.2-0.9,4.1-1.9c1-1.3,1.3-2.1,1.3-7.4s-0.3-6.1-1.3-7.4c-0.8-1-2.2-1.9-4.1-1.9s-3.2,0.9-4.1,1.9c-1,1.3-1.3,2.1-1.3,7.4
	S89,587.9,90,589.3z"/>
<path class="st11" d="M108.1,568.7h16.8v3.8h-12.8v7.5H123v3.5h-10.9v7.7h12.8v3.8h-16.8C108.1,595,108.1,568.7,108.1,568.7z"/>
<path class="st11" d="M128.9,588.6c2,1.6,4.6,2.6,7.4,2.6c3.2,0,5.2-1.5,5.2-3.6c0-1.8-1.1-3.2-3.4-3.5c-1.2-0.1-2.1-0.3-3.5-0.5
	c-4.5-0.6-7-3.6-7-7.4c0-4.5,3.1-7.7,8.5-7.7c3.2,0,6.1,1.1,8.5,2.7l-2.2,3.3c-1.9-1.2-4.2-2-6.5-2c-2.4,0-4.4,1.3-4.4,3.8
	c0,1.5,1.1,2.9,3.7,3.4c0.7,0.1,1.7,0.3,2.9,0.4c4.9,0.6,7.2,4,7.2,7.6c0,4.8-3.6,7.6-9.2,7.6c-3.9,0-7.3-1.2-10-3.6L128.9,588.6z"
	/>
<path class="st10" d="M160.5,498.5l-41,3.9c-0.7,0.1-1.3,0.4-1.7,1l0,0c-1.2,1.7,0.3,4,2.3,3.7l43.1-7.4l-1.1-0.8
	C161.6,498.6,161,498.4,160.5,498.5z"/>
<path class="st10" d="M162.7,504.7l-40.1,9.5c-0.7,0.2-1.3,0.6-1.6,1.2l0,0c-0.9,1.9,0.8,3.9,2.8,3.3l41.7-13.3l-1.2-0.6
	C163.8,504.6,163.2,504.6,162.7,504.7z"/>
<path class="st10" d="M167.1,513.4l-39.3,12.3c-0.7,0.2-1.2,0.7-1.5,1.3l0,0c-0.8,1.9,1.1,3.9,3.1,3.1L170,514l-1.3-0.5
	C168.2,513.2,167.7,513.2,167.1,513.4z"/>
<rect x="140.5" y="426.5" class="st5" width="116" height="180"/>
<path class="st5" d="M240.5,506.1v19.6c0,1.2,2.8,1.9,4.9,1.2l0,0c0.9-0.3,1.5-0.7,1.5-1.2v-19.6c0-0.4-0.4-0.8-0.9-1.1l0,0
	C243.9,504.1,240.5,504.8,240.5,506.1z"/>
<g>
	<g>
		<defs>
			<circle id="SVGID_8_" cx="-358.9" cy="-178.8" r="114.5"/>
		</defs>
		<clipPath id="SVGID_1_">
			<use xlink:href="#SVGID_8_"  style="overflow:visible;"/>
		</clipPath>
		<g class="st12">
			<circle id="SVGID_7_" class="st13" cx="-358.9" cy="-178.8" r="114.5"/>
		</g>
		<g class="st12">
			<defs>
				<circle id="SVGID_2_" cx="-358.9" cy="-178.8" r="114.5"/>
			</defs>
			<clipPath id="SVGID_3_">
				<use xlink:href="#SVGID_2_"  style="overflow:visible;"/>
			</clipPath>
			<path class="st14" d="M-405-258.5c-15,7.4-22.6,19.6-31.5,34.2c-4.5,7.3-13.1,21.6-17.5,42c-0.8,3.5-1.2,6.3-1.4,8.8
				c-0.2,2.2-0.9,7.9-0.4,19.8c0.3,7.6,0.6,13.4,1.8,21.2c1.1,7,2,12.4,4.3,18.3c3.1,7.8,6,9.9,14.7,21.3c11,14.5,9.7,15.7,19.3,28
				c6.1,7.7,10.8,13.7,17.3,19.3c16.4,14.1,34.8,17.6,40.3,18.7c37.7,7.2,69.6-14.8,85-25c13.8-9.1,38.9-25.7,49.5-58
				c2.6-7.8,11.2-34.1,0-58.5c-5-11-7.6-7.5-31.5-39.5c-6.6-8.8-11.8-16.3-21.5-27.5c-12.5-14.5-17.6-18.2-19.5-19.5
				c-12.2-8.4-24.2-10.7-31.7-12c-14.1-2.5-25.1-1-47,2C-390.8-262.6-398.9-261.5-405-258.5z"/>
		</g>
		<g class="st12">
			<defs>
				<circle id="SVGID_4_" cx="-358.9" cy="-178.8" r="114.5"/>
			</defs>
			<clipPath id="SVGID_5_">
				<use xlink:href="#SVGID_4_"  style="overflow:visible;"/>
			</clipPath>
			<path class="st15" d="M-288.2-162.6c9.2,2.3,39.5,10.6,52.2,25.8c1.5,1.7,3.1,4,3.8,7.2c2.2,11-9.3,23.9-19.8,28.5
				c-21.4,9.4-57.4-7.4-58.2-30C-310.9-148.6-290-161.5-288.2-162.6z"/>
		</g>
		<g class="st12">
			<defs>
				<circle id="SVGID_6_" cx="-358.9" cy="-178.8" r="114.5"/>
			</defs>
			<clipPath id="SVGID_9_">
				<use xlink:href="#SVGID_6_"  style="overflow:visible;"/>
			</clipPath>
			<polyline class="st16" points="-293.5,-130.9 -254,-104.4 -341.8,-40.5 -344.2,-104.6 			"/>
		</g>
		<g class="st12">
			<defs>
				<circle id="SVGID_10_" cx="-358.9" cy="-178.8" r="114.5"/>
			</defs>
			<clipPath id="SVGID_11_">
				<use xlink:href="#SVGID_10_"  style="overflow:visible;"/>
			</clipPath>
			<path class="st17" d="M-279.2-180c0.2,6.3-0.6,11.4-1.2,15.5c-3.4,20.6-15.9,55.7-40.8,64c-7.6,2.5-23.3,4.9-37.7,5.5
				c-0.1,0-0.2,0-0.3,0c-4.7,0.2-38.7,1-56.8-20.8c-5.7-6.9-9.2-15.3-16-32c-4.6-11.1-9.5-23.1-10.7-31
				c-4.5-29.6,30.3-85.1,83.8-83.8C-309.4-261.3-280.5-212.2-279.2-180z"/>
		</g>
		<g class="st12">
			<defs>
				<circle id="SVGID_12_" cx="-358.9" cy="-178.8" r="114.5"/>
			</defs>
			<clipPath id="SVGID_13_">
				<use xlink:href="#SVGID_12_"  style="overflow:visible;"/>
			</clipPath>
			<path class="st18" d="M-445.5-154.8c4.3,0,4.4-0.3,11-3c12.4-11.2,12.9-25.8,22.2-35c15.2-5.5,41.2,12.5,75,6.2
				c11.8-4.1,5.8-6.4,20.2-13c19.1-8.8,30.1-12.3,42.1-12.2l-9.2-15l-36-32.5l-26.8-4.5l-27.7-1l-33.1,10.8l-14,13.8l-22,35.8
				c0,0-3,12-3.5,13.2S-445.5-154.8-445.5-154.8z"/>
		</g>
		<g class="st12">
			<defs>
				<circle id="SVGID_14_" cx="-358.9" cy="-178.8" r="114.5"/>
			</defs>
			<clipPath id="SVGID_15_">
				<use xlink:href="#SVGID_14_"  style="overflow:visible;"/>
			</clipPath>
			<path class="st19" d="M-416.5-172.4l11.3,65.3c0.3,1.4,1.6,6.5,6.4,9.6c5.3,3.5,12.8,3.2,18.7-1c1.9-1.8,3.9-3.6,5.8-5.4"/>
		</g>
		<g class="st12">
			<defs>
				<circle id="SVGID_16_" cx="-358.9" cy="-178.8" r="114.5"/>
			</defs>
			<clipPath id="SVGID_17_">
				<use xlink:href="#SVGID_16_"  style="overflow:visible;"/>
			</clipPath>
			<path class="st20" d="M-445.5-154.8c1.7,0,2.7-0.1,3.8-0.3l0,0c1.7-0.3,5.6-1.7,7.3-2.8c4.9-3.2,12-17.7,16-25.5
				c2.6-5.2,4-7.7,4.2-8c9.3-8.7,27.1,4.9,61.2,6c10.7,0.3,20.3-0.6,25.2-7c2.8-3.5,2.4-6.5,3.8-9.5c2.9-6.4,13.7-12.4,49-10"/>
		</g>
		<g class="st12">
			<defs>
				<circle id="SVGID_18_" cx="-358.9" cy="-178.8" r="114.5"/>
			</defs>
			<clipPath id="SVGID_19_">
				<use xlink:href="#SVGID_18_"  style="overflow:visible;"/>
			</clipPath>
			<path class="st21" d="M-389.2-148.8c2.4,0.4,8,1,14.3-1.5c5.9-2.3,9.5-6.1,11-8"/>
		</g>
		<g class="st12">
			<defs>
				<circle id="SVGID_20_" cx="-358.9" cy="-178.8" r="114.5"/>
			</defs>
			<clipPath id="SVGID_21_">
				<use xlink:href="#SVGID_20_"  style="overflow:visible;"/>
			</clipPath>
			<path class="st22" d="M-411.2-141.6c-0.8,0.8-3.3,3-7.2,3.5c-2.8,0.3-5-0.4-6.1-0.9"/>
		</g>
		<g class="st12">
			<defs>
				<circle id="SVGID_22_" cx="-358.9" cy="-178.8" r="114.5"/>
			</defs>
			<clipPath id="SVGID_23_">
				<use xlink:href="#SVGID_22_"  style="overflow:visible;"/>
			</clipPath>
		</g>
		<g class="st12">
			<defs>
				<circle id="SVGID_24_" cx="-358.9" cy="-178.8" r="114.5"/>
			</defs>
			<clipPath id="SVGID_25_">
				<use xlink:href="#SVGID_24_"  style="overflow:visible;"/>
			</clipPath>
			<path class="st23" d="M-234.9-143.3c-3.4-2.6-11.3-7.3-31.2-3.6c-40.8,7.5-49,34.4-96.8,60.5c-32.6,17.8-55.3,19.8-54.6,27.1
				c0.9,8.7,34.2,12.8,55.5,13.6c10.9,0.4,115.1,3,134.8-48.3C-220.9-110.1-222.3-133.4-234.9-143.3z"/>
		</g>
		<path class="st24" d="M-290.6-174.3c-4.5,7.3-21.5,34.7-25.9,55.1c-0.8,3.5-1.2,6.3-1.4,8.8c-0.2,2.2-0.9,7.9-0.4,19.8
			c0.3,7.6,0.6,13.4,1.8,21.2c1.1,7,2,12.4,4.3,18.3c3.1,7.8,6,9.9,14.7,21.3c11,14.5,9.7,15.7,19.3,28c6.1,7.7,10.8,13.7,17.3,19.3
			c16.4,14.1,34.8,17.6,40.3,18.7c37.7,7.2,69.6-14.8,85-25c13.8-9.1,38.9-25.7,49.5-58c2.6-7.8,11.2-34.1,0-58.5
			c-5-11-7.6-7.5-31.5-39.5c-6.6-8.8-11.8-16.3-21.5-27.5c-12.5-14.5-17.6-18.2-19.5-19.5c-12.2-8.4-24.2-10.7-31.7-12
			c-14.1-2.5-44.3-8.9-66.2-5.9"/>
		<use xlink:href="#SVGID_8_"  style="overflow:visible;fill:none;stroke:#000000;stroke-miterlimit:10;"/>
	</g>
</g>
<path class="st25" d="M731.4,453.2L731.4,453.2c-6.2,0-11.2-5-11.2-11.2v-9h22.5v9C742.7,448.2,737.6,453.2,731.4,453.2z"/>
<path class="st4" d="M731.4,453.2L731.4,453.2c-6.2,0-11.2-5-11.2-11.2v-22.8h22.5V442C742.7,448.2,737.6,453.2,731.4,453.2z"/>
<path class="st26" d="M-326.8-190.3c-3.1-14,3.3-27.6,14.5-33c8.2-3.9,18.5-3.2,26,2.2c11.5,8.4,12.4,25.3,6.5,36
	c-3.2,5.8-7.9,9.1-10.8,10.8"/>
<path class="st27" d="M-702.1,6.5"/>
<g>
	<defs>
		<circle id="SVGID_26_" cx="-282.1" cy="551" r="114.5"/>
	</defs>
	<use xlink:href="#SVGID_26_"  style="overflow:visible;fill:#8BA4C9;"/>
	<clipPath id="SVGID_27_">
		<use xlink:href="#SVGID_26_"  style="overflow:visible;"/>
	</clipPath>
	<polyline class="st28" points="-225,588.8 -205.6,610.2 -222.5,643.7 -263.1,657.5 -265.3,647.5 -268.9,615 	"/>
	<circle class="st28" cx="-282.1" cy="551" r="78.8"/>
	<line class="st28" x1="-346.4" y1="580" x2="-337.9" y2="580"/>
	<line class="st28" x1="-314.5" y1="576.4" x2="-304.5" y2="572.9"/>
	<path class="st28" d="M-336.1,572.7l-4.4,31.7c-1.2,9,6.8,16.5,15.7,14.6l7.9-1.7"/>
	<path class="st28" d="M-266.8,635.1l-12.8,6.8l-13.9,7.4c-1.6,0.8-3.1,1.8-4.5,3l-60.3,9.5l83.4,33.4l88-10.7l53-60.7l-3.2-90.3
		l-43.8,61l-29.6,10.3l-3.4,10.3c-2.5,7.5-6.7,14.2-12.4,19.6h0c-5.8,5.5-12.9,9.5-20.6,11.6l-4.2,1.1c-6.5,1.8-14.5-1.7-15.3-8.5
		L-266.8,635.1z"/>
	<path class="st28" d="M-308.5,625.2"/>
	<polygon class="st28" points="-484,559.8 -472.4,583.6 -469.7,606 -483.1,625.9 -474.8,685.6 -538.8,593.2 	"/>
	<path class="st28" d="M-322.6,550"/>
	<path class="st28" d="M-297.9,547.2"/>
	<path class="st28" d="M-321.6,555"/>
	<path class="st28" d="M-299.6,554"/>
	<use xlink:href="#SVGID_26_"  style="overflow:visible;fill:none;stroke:#000000;stroke-miterlimit:10;"/>
</g>
<path class="st8" d="M-884-121c7.5-8.8,13.3-5.9,25-15c18.4-14.3,12.5-27.8,28-48c9.3-12.1,27.5-20.4,64-37c18.7-8.5,27.5-11,35-7
	c9,4.9,11.7,17,13,23c2.9,12.9,0.6,24.8-2,32c-15.7,43.7-90.2,41.1-116,80c-1.3,2-8.9,13.6-23,23c-8,5.3-15.7,10.4-22,8
	C-894.7-67-899.6-102.8-884-121z"/>
<path class="st8" d="M-709-112c7.5-8.8,13.3-5.9,25-15c18.4-14.3,12.5-27.8,28-48c9.3-12.1,27.5-20.4,64-37c18.7-8.5,27.5-11,35-7
	c9,4.9,11.7,17,13,23c2.9,12.9,0.6,24.8-2,32c-15.7,43.7-90.2,41.1-116,80c-1.3,2-8.9,13.6-23,23c-8,5.3-15.7,10.4-22,8
	C-719.7-58-724.6-93.8-709-112z"/>
<path class="st5" d="M-839-116c4.5,9.3,8.8,21.5,9,39c0.1,4.7-0.6,10.5-2,22c-3.1,25.7-5.9,34-4,49c1.7,13.6,5.4,17.5,7,19
	c7.5,6.9,21,8.2,25,3c4.9-6.3-9-17.3-12-41c-1.5-11.9,0.8-18.9,2-28c2.1-15.4,2.5-36.5-11-68"/>
<path class="st5" d="M-664-98c-22.7,29.8-28.5,53-31,68c-1.7,10.4-4.3,27.5,4,33c3.5,2.3,9.3,2.7,13,0c9-6.6-1.8-26.6,0-51
	c0.9-11.7,6.9-32.3,22-52"/>
<path class="st8" d="M-844.7-116.9c4.4,0,6.9-1.2,8.3-2.3c0.9-0.7,2.6-2.3,5.3-3c0.5-0.1,0.8-0.1,1.3-0.3c2.1-0.6,3.5-1.8,4.4-2.7"
	/>
<path class="st8" d="M-671.7-95.7c1.6-0.8,3.5-1.5,5.7-2c0.9-0.2,1.4-0.3,2-0.3c1.8-0.3,4.4-0.9,7.7-2.4"/>
<g>
	<defs>
		<circle id="SVGID_28_" cx="140.3" cy="277.7" r="114.4"/>
	</defs>
	<clipPath id="SVGID_29_">
		<use xlink:href="#SVGID_28_"  style="overflow:visible;"/>
	</clipPath>
	<circle class="st29" cx="140.3" cy="277.7" r="114.4"/>
	<g class="st30">
		<path class="st31" d="M232.2,277.7c0,6.1-1.1,12.1-2.2,17.8c-1.2,5.9-3.5,11.4-5.7,16.9c-2.3,5.5-3.9,11.6-7.2,16.5
			c-3.3,5-8.3,8.7-12.5,12.9c-4.2,4.2-9.1,7.5-14.1,10.8c-4.9,3.3-9.2,8-14.7,10.3c-5.4,2.3-11.8,1.7-17.8,2.9
			c-5.7,1.1-11.4,3.3-17.5,3.3c-6.1,0-11.8-2.1-17.5-3.3c-5.9-1.2-11.7-2.1-17.1-4.4c-5.5-2.3-11.3-4.3-16.2-7.6
			c-5-3.3-9.8-7.1-14-11.3c-4.2-4.2-7.2-9.5-10.6-14.4c-3.3-4.9-5.3-10.5-7.6-16c-2.3-5.4-5.1-10.7-6.3-16.6c-1.1-5.7-2-11.7-2-17.8
			c0-6.1,0.6-12.1,1.7-17.8c1.2-5.9,4.3-11.1,6.6-16.5c2.3-5.5,3.9-11.3,7.2-16.2c3.3-5,6.4-10.2,10.7-14.5
			c4.2-4.2,9.4-7.5,14.3-10.8c4.9-3.3,9.8-7.1,15.4-9.4c5.4-2.3,11.6-2.9,17.5-4.1c5.7-1.1,11.7-2.3,17.8-2.3
			c6.1,0,12.3-0.4,18.1,0.7c5.9,1.2,12.1,2.6,17.6,4.8c5.5,2.3,10.8,5.9,15.7,9.2c5,3.3,7.7,9.3,11.9,13.5c4.2,4.2,8.7,8,12.1,12.9
			c3.3,4.9,7.7,9.4,10,15c2.3,5.4,1.9,11.8,3.1,17.7C230,265.9,232.2,271.6,232.2,277.7z"/>
	</g>
	<g class="st30">
		<g>
			<g>
				<defs>
					<circle id="SVGID_30_" cx="145" cy="335" r="233.5"/>
				</defs>
				<clipPath id="SVGID_31_">
					<use xlink:href="#SVGID_30_"  style="overflow:visible;"/>
				</clipPath>
			</g>
			<g>
				<defs>
					<circle id="SVGID_32_" cx="145" cy="335" r="233.5"/>
				</defs>
				<clipPath id="SVGID_33_">
					<use xlink:href="#SVGID_32_"  style="overflow:visible;"/>
				</clipPath>
			</g>
			<g>
				<defs>
					<circle id="SVGID_34_" cx="145" cy="335" r="233.5"/>
				</defs>
				<clipPath id="SVGID_35_">
					<use xlink:href="#SVGID_34_"  style="overflow:visible;"/>
				</clipPath>
				<path class="st32" d="M137.4,220.1c-3.3,0.2-16.9,1.2-30,10.4c-7.5,5.3-6.9,7.7-30,41.2c-6.7,9.8-9,12.8-8,16.5
					c1.6,5.7,9.8,7.5,37.9,12.4c69.3,11.6,41.6,4.1,61.8,8.2c11.2,2.2,18.8,4.5,25.9,0c10-6.1,11.6-20,12-22.6
					c1.4-13.5-5.3-23.9-10-31C193.1,249.1,171.7,218.3,137.4,220.1z"/>
			</g>
			<g>
				<defs>
					<circle id="SVGID_36_" cx="145" cy="335" r="233.5"/>
				</defs>
				<clipPath id="SVGID_37_">
					<use xlink:href="#SVGID_36_"  style="overflow:visible;"/>
				</clipPath>
				<path class="st33" d="M67.7,492l-3.5,20.6c-0.4,2.4,0.2,4.9,1.6,6.9l7.7,11.2c2.4,3.5,7.1,4.9,11.2,3.3l0,0
					c2-0.8,3.9-2.4,4.9-4.5l0.8-1.6c1-2,1.2-4.5,0.6-6.7L84,496.1"/>
			</g>
			<g>
				<defs>
					<circle id="SVGID_38_" cx="145" cy="335" r="233.5"/>
				</defs>
				<clipPath id="SVGID_39_">
					<use xlink:href="#SVGID_38_"  style="overflow:visible;"/>
				</clipPath>
				<path class="st34" d="M94.2,337.1C84,341.2,51,445.4,61.6,492l42.8,18.3l6.1-173.3H94.2z"/>
			</g>
			<g>
				<defs>
					<circle id="SVGID_40_" cx="145" cy="335" r="233.5"/>
				</defs>
				<clipPath id="SVGID_41_">
					<use xlink:href="#SVGID_40_"  style="overflow:visible;"/>
				</clipPath>
				<polyline class="st35" points="88.1,488 73.8,594 263.4,583.8 220.6,477.8 				"/>
			</g>
			<circle class="st36" cx="145" cy="335" r="233.5"/>
			<g>
				<defs>
					<circle id="SVGID_42_" cx="145" cy="335" r="233.5"/>
				</defs>
				<clipPath id="SVGID_43_">
					<use xlink:href="#SVGID_42_"  style="overflow:visible;"/>
				</clipPath>
				<path class="st37" d="M263.4,290.2l1.8-19c0-1-0.2-1.8-0.6-2.7l-9.8-16.3c-1-1.6-0.8-3.9,0.6-5.3l0.2-0.2
					c1.8-1.8,4.9-1.6,6.5,0.4l3.9,4.9c0.6,0.6,1.6,0.4,1.8-0.4l6.1-19.6c0.8-2.7,3.7-3.9,6.1-2.7l6.9,3.5c0.4,0.2,0.8,0.4,1.2,0.8
					l3.7,3.7c1.2,1.2,1.6,2.9,1,4.5l-9.2,27.7c0,0.2-0.2,0.6-0.2,0.8l-2,15.7c0,0.2,0,0.2,0,0.4c0,2.2-0.6,20.4-10.2,24.3"/>
			</g>
			<g>
				<defs>
					<circle id="SVGID_44_" cx="145" cy="335" r="233.5"/>
				</defs>
				<clipPath id="SVGID_45_">
					<use xlink:href="#SVGID_44_"  style="overflow:visible;"/>
				</clipPath>
				<path class="st38" d="M151.7,291.2"/>
			</g>
			<g>
				<defs>
					<circle id="SVGID_46_" cx="145" cy="335" r="233.5"/>
				</defs>
				<clipPath id="SVGID_47_">
					<use xlink:href="#SVGID_46_"  style="overflow:visible;"/>
				</clipPath>
				<path class="st39" d="M166.2,244.5c-0.8-1.2-8.8-14.5-23.4-14.5c-14.9,0-23,13.7-23.4,14.5c-4.3,7.7-13.7,15.5-13.1,27.6
					c0.4,7.5,4.7,22.4,8.8,27.5c0.5,1.2,4.5,5.3,10.3,8.7c-0.1,0.7-0.3,1.5-0.4,2.2c-0.6,2.9-1.8,7.1-4.1,12.2c0,1.4,0,2.7,0,4.1
					c19,15.9,32.4,15.1,40.8-2c-2-2.7-4.5-6.7-6.1-12.2c-0.3-0.9-0.5-1.8-0.7-2.7c7-4,12.6-10.1,14.2-13.1
					c4.3-8.4,5.7-18.6,6.1-24.5C175.8,262,171.1,252.9,166.2,244.5z"/>
			</g>
			<g>
				<defs>
					<circle id="SVGID_48_" cx="145" cy="335" r="233.5"/>
				</defs>
				<clipPath id="SVGID_49_">
					<use xlink:href="#SVGID_48_"  style="overflow:visible;"/>
				</clipPath>
				<path class="st40" d="M141.1,294.3"/>
				<path class="st40" d="M145.2,253.5"/>
			</g>
			<g>
				<defs>
					<circle id="SVGID_50_" cx="145" cy="335" r="233.5"/>
				</defs>
				<clipPath id="SVGID_51_">
					<use xlink:href="#SVGID_50_"  style="overflow:visible;"/>
				</clipPath>
				<path class="st41" d="M263.4,284.1c-2,8.2,18.3,30.2,8.1,40.4c-7.3,7.5-26.9,56.5-35.5,60c-5.3,2.2-11.4-22-19.2-33.1
					c-4.9-6.1-19.7-19.1-26.7-22.4l0,0l-32.8-12.2l-0.6,3.7c-0.8,5.3-4.5,9.6-9.6,11l0,0c-3.9,1-10.8-0.2-14.1-2.4l-12.2-8.2
					l-26.5,16.3L82,483.7c0,0.2,0,0.4,0,0.6v7.1c0,1.8,0.6,3.5,1.8,4.7c1.4,1.4,3.3,2,5.3,1.8L222,486.1c1.8-0.2,3.3-0.8,4.7-2.2
					c1.4-1.4,2.2-3.3,2.2-5.3v-4.1c0-0.6,0-1.2-0.2-1.8L208,384c0.6,0.2,0.6-3.5,1-3.5c22.9,29,37.8-6.3,44.8-22.8
					c6.3-3.9,11.2-4.1,20-12.6c8.2-8.2,17.5-18.3,22.4-20.4C285.8,305.9,273.6,303,263.4,284.1z"/>
			</g>
			<g>
				<defs>
					<circle id="SVGID_52_" cx="145" cy="335" r="233.5"/>
				</defs>
				<clipPath id="SVGID_53_">
					<use xlink:href="#SVGID_52_"  style="overflow:visible;"/>
				</clipPath>
				<line class="st42" x1="141.1" y1="526.7" x2="224.7" y2="602.1"/>
			</g>
			<g>
				<defs>
					<circle id="SVGID_54_" cx="145" cy="335" r="233.5"/>
				</defs>
				<clipPath id="SVGID_55_">
					<use xlink:href="#SVGID_54_"  style="overflow:visible;"/>
				</clipPath>
				<line class="st43" x1="201.8" y1="373.2" x2="195.7" y2="350.7"/>
			</g>
			<g>
				<defs>
					<circle id="SVGID_56_" cx="145.6" cy="331.9" r="233.5"/>
				</defs>
				<clipPath id="SVGID_57_">
					<use xlink:href="#SVGID_56_"  style="overflow:visible;"/>
				</clipPath>
				<polygon class="st44" points="105.4,259.7 139.7,256 167.4,263 179.9,264.2 177.1,237.8 169,233.2 157.2,226.9 141.9,227 
					130.9,229.8 120.5,230.5 111.1,243.8 				"/>
			</g>
			<g>
				<defs>
					<circle id="SVGID_58_" cx="145.6" cy="334.6" r="233.5"/>
				</defs>
				<clipPath id="SVGID_59_">
					<use xlink:href="#SVGID_58_"  style="overflow:visible;"/>
				</clipPath>
				<path class="st45" d="M104.6,259.8c4.1-0.6,7-0.8,13.7-1.6c17.1-2,18.8-2,20.4-2c9.8,0.4,12,3.5,24.5,6.1
					c9.3,1.9,8.8,1.7,15.2,1.7"/>
			</g>
			<g>
				<defs>
					<circle id="SVGID_60_" cx="145" cy="335" r="233.5"/>
				</defs>
				<clipPath id="SVGID_61_">
					<use xlink:href="#SVGID_60_"  style="overflow:visible;"/>
				</clipPath>
			</g>
			<g>
				<defs>
					<circle id="SVGID_62_" cx="145" cy="335" r="233.5"/>
				</defs>
				<clipPath id="SVGID_63_">
					<use xlink:href="#SVGID_62_"  style="overflow:visible;"/>
				</clipPath>
			</g>
			<g>
				<defs>
					<circle id="SVGID_64_" cx="145" cy="335" r="233.5"/>
				</defs>
				<clipPath id="SVGID_65_">
					<use xlink:href="#SVGID_64_"  style="overflow:visible;"/>
				</clipPath>
				<path class="st46" d="M18.8,290.2"/>
			</g>
			<g>
				<defs>
					<circle id="SVGID_66_" cx="145" cy="335" r="233.5"/>
				</defs>
				<clipPath id="SVGID_67_">
					<use xlink:href="#SVGID_66_"  style="overflow:visible;"/>
				</clipPath>
			</g>
			<g>
				<defs>
					<circle id="SVGID_68_" cx="145" cy="335" r="233.5"/>
				</defs>
				<clipPath id="SVGID_69_">
					<use xlink:href="#SVGID_68_"  style="overflow:visible;"/>
				</clipPath>
				<path class="st47" d="M-34.3,310.6"/>
			</g>
			<path class="st27" d="M109.7,259.9c-0.8-0.5-3.2-2.2-6.4-1.8c-4.8,0.6-7.1,5.2-7.4,6c-2.7,5.6-0.8,14.1,4.7,16.4
				c3,1.3,5.8,0.4,7.1-0.2"/>
			<path class="st27" d="M173.7,264.6c0.8-0.4,3.5-1.7,6.6-0.9c4.7,1.3,6.2,6.2,6.5,7c1.9,5.9-1.2,14.1-7,15.6
				c-3.2,0.8-5.7-0.4-7-1.2"/>
			<line class="st27" x1="101.2" y1="266.6" x2="104.6" y2="273.8"/>
			<line class="st27" x1="181.2" y1="273.8" x2="177.1" y2="280"/>
		</g>
		<line class="st27" x1="141.8" y1="256.9" x2="141.8" y2="285.8"/>
	</g>
	<use xlink:href="#SVGID_28_"  style="overflow:visible;fill:none;stroke:#000000;stroke-miterlimit:10;"/>
</g>
<g>
	<defs>
		<circle id="SVGID_70_" cx="-630.7" cy="337.1" r="114.4"/>
	</defs>
	<clipPath id="SVGID_71_">
		<use xlink:href="#SVGID_70_"  style="overflow:visible;"/>
	</clipPath>
	<circle class="st48" cx="-630.7" cy="337.1" r="114.4"/>
	<g class="st49">
		<path class="st3" d="M-556.2,337.1c0,6.6-1.3,13-3,19.1c-1.7,6.3-4.7,12-7.9,17.5c-3.2,5.6-6.1,11.7-10.6,16.2
			c-4.5,4.5-10.6,7.4-16.2,10.6c-5.5,3.2-11.5,5.1-17.8,6.7c-6.1,1.6-12.2,4.6-18.8,4.6c-6.6,0-12.7-3.2-18.7-4.9
			c-6.3-1.7-12.7-2.7-18.2-5.9c-5.6-3.2-9.7-8.3-14.2-12.9c-4.5-4.5-9-9-12.2-14.6c-3.2-5.5-6.6-11.1-8.3-17.4
			c-1.6-6.1-2.7-12.6-2.7-19.2c0-6.6,1.9-12.9,3.5-19c1.7-6.3,4.9-11.7,8.1-17.2c3.2-5.6,6.1-11.3,10.7-15.8
			c4.5-4.5,9.5-8.7,15.1-11.9c5.5-3.2,11.5-5.7,17.8-7.4c6.1-1.6,12.5-1,19.1-1c6.6,0,13-0.4,19.1,1.2c6.3,1.7,12.7,3.4,18.2,6.5
			c5.6,3.2,10.4,7.8,14.9,12.4c4.5,4.5,9.4,9.2,12.6,14.8c3.2,5.5,4.6,12.1,6.3,18.4C-557.7,324.2-556.2,330.5-556.2,337.1z"/>
	</g>
	<g class="st49">
		<g>
			<g>
				<defs>
					<circle id="SVGID_72_" cx="-626.1" cy="394.5" r="233.5"/>
				</defs>
				<clipPath id="SVGID_73_">
					<use xlink:href="#SVGID_72_"  style="overflow:visible;"/>
				</clipPath>
			</g>
			<g>
				<defs>
					<circle id="SVGID_74_" cx="-626.1" cy="394.5" r="233.5"/>
				</defs>
				<clipPath id="SVGID_75_">
					<use xlink:href="#SVGID_74_"  style="overflow:visible;"/>
				</clipPath>
			</g>
			<g>
				<defs>
					<circle id="SVGID_76_" cx="-626.1" cy="394.5" r="233.5"/>
				</defs>
				<clipPath id="SVGID_77_">
					<use xlink:href="#SVGID_76_"  style="overflow:visible;"/>
				</clipPath>
				<path class="st50" d="M-633.6,279.6c-3.3,0.2-16.9,1.2-30,10.4c-7.5,5.3-6.9,7.7-30,41.2c-6.7,9.8-9,12.8-8,16.5
					c1.6,5.7,9.8,7.5,37.9,12.4c69.3,11.6,41.6,4.1,61.8,8.2c11.2,2.2,18.8,4.5,25.9,0c10-6.1,11.6-20,12-22.6
					c1.4-13.5-5.3-23.9-10-31C-577.9,308.5-599.3,277.7-633.6,279.6z"/>
			</g>
			<g>
				<defs>
					<circle id="SVGID_78_" cx="-626.1" cy="394.5" r="233.5"/>
				</defs>
				<clipPath id="SVGID_79_">
					<use xlink:href="#SVGID_78_"  style="overflow:visible;"/>
				</clipPath>
				<path class="st51" d="M-703.3,551.5l-3.5,20.6c-0.4,2.4,0.2,4.9,1.6,6.9l7.7,11.2c2.4,3.5,7.1,4.9,11.2,3.3l0,0
					c2-0.8,3.9-2.4,4.9-4.5l0.8-1.6c1-2,1.2-4.5,0.6-6.7l-7.1-25.1"/>
			</g>
			<g>
				<defs>
					<circle id="SVGID_80_" cx="-626.1" cy="394.5" r="233.5"/>
				</defs>
				<clipPath id="SVGID_81_">
					<use xlink:href="#SVGID_80_"  style="overflow:visible;"/>
				</clipPath>
				<path class="st52" d="M-676.8,396.5c-10.2,4.1-43.2,108.3-32.6,155l42.8,18.3l6.1-173.3H-676.8z"/>
			</g>
			<g>
				<defs>
					<circle id="SVGID_82_" cx="-626.1" cy="394.5" r="233.5"/>
				</defs>
				<clipPath id="SVGID_83_">
					<use xlink:href="#SVGID_82_"  style="overflow:visible;"/>
				</clipPath>
				<polyline class="st53" points="-682.9,547.4 -697.2,653.4 -507.6,643.2 -550.4,537.2 				"/>
			</g>
			<circle class="st36" cx="-626.1" cy="394.5" r="233.5"/>
			<g>
				<defs>
					<circle id="SVGID_84_" cx="-626.1" cy="394.5" r="233.5"/>
				</defs>
				<clipPath id="SVGID_85_">
					<use xlink:href="#SVGID_84_"  style="overflow:visible;"/>
				</clipPath>
				<path class="st54" d="M-507.6,349.6l1.8-19c0-1-0.2-1.8-0.6-2.7l-9.8-16.3c-1-1.6-0.8-3.9,0.6-5.3l0.2-0.2
					c1.8-1.8,4.9-1.6,6.5,0.4l3.9,4.9c0.6,0.6,1.6,0.4,1.8-0.4l6.1-19.6c0.8-2.7,3.7-3.9,6.1-2.7l6.9,3.5c0.4,0.2,0.8,0.4,1.2,0.8
					l3.7,3.7c1.2,1.2,1.6,2.9,1,4.5l-9.2,27.7c0,0.2-0.2,0.6-0.2,0.8l-2,15.7c0,0.2,0,0.2,0,0.4c0,2.2-0.6,20.4-10.2,24.3"/>
			</g>
			<g>
				<defs>
					<circle id="SVGID_86_" cx="-626.1" cy="394.5" r="233.5"/>
				</defs>
				<clipPath id="SVGID_87_">
					<use xlink:href="#SVGID_86_"  style="overflow:visible;"/>
				</clipPath>
				<path class="st55" d="M-619.3,350.6"/>
			</g>
			<g>
				<defs>
					<circle id="SVGID_88_" cx="-626.1" cy="394.5" r="233.5"/>
				</defs>
				<clipPath id="SVGID_89_">
					<use xlink:href="#SVGID_88_"  style="overflow:visible;"/>
				</clipPath>
				<path class="st56" d="M-604.8,304c-0.8-1.2-8.8-14.5-23.4-14.5c-14.9,0-23,13.7-23.4,14.5c-4.3,7.7-13.7,15.5-13.1,27.6
					c0.4,7.5,4.7,22.4,8.8,27.5c0.5,1.2,4.5,5.3,10.3,8.7c-0.1,0.7-0.3,1.5-0.4,2.2c-0.6,2.9-1.8,7.1-4.1,12.2c0,1.4,0,2.7,0,4.1
					c19,15.9,32.4,15.1,40.8-2c-2-2.7-4.5-6.7-6.1-12.2c-0.3-0.9-0.5-1.8-0.7-2.7c7-4,12.6-10.1,14.2-13.1
					c4.3-8.4,5.7-18.6,6.1-24.5C-595.2,321.4-600,312.3-604.8,304z"/>
			</g>
			<g>
				<defs>
					<circle id="SVGID_90_" cx="-626.1" cy="394.5" r="233.5"/>
				</defs>
				<clipPath id="SVGID_91_">
					<use xlink:href="#SVGID_90_"  style="overflow:visible;"/>
				</clipPath>
				<path class="st57" d="M-629.9,353.7"/>
				<path class="st57" d="M-625.8,312.9"/>
			</g>
			<g>
				<defs>
					<circle id="SVGID_92_" cx="-626.1" cy="394.5" r="233.5"/>
				</defs>
				<clipPath id="SVGID_93_">
					<use xlink:href="#SVGID_92_"  style="overflow:visible;"/>
				</clipPath>
				<path class="st58" d="M-507.6,343.5c-2,8.2-4.1,14.3-14.3,24.5c-7.3,7.5-16.1,11.2-24.7,14.7c-5.3,2.2-10.8,4.5-18.1,5.7
					c-3.5,0.6-9.2,0.8-16.3,0l0,0l-32.8-12.2l-0.6,3.7c-0.8,5.3-4.5,9.6-9.6,11l0,0c-3.9,1-10.8-0.2-14.1-2.4l-12.2-8.2l-26.5,16.3
					l-12.2,146.6c0,0.2,0,0.4,0,0.6v7.1c0,1.8,0.6,3.5,1.8,4.7c1.4,1.4,3.3,2,5.3,1.8l132.9-11.8c1.8-0.2,3.3-0.8,4.7-2.2
					c1.4-1.4,2.2-3.3,2.2-5.3v-4.1c0-0.6,0-1.2-0.2-1.8L-570,428.5c0.6,0.2,1,0.4,1.4,0.4c21.4,6.5,43.6-6.9,51.4-11.8
					c6.3-3.9,11.2-4.1,20-12.6c8.2-8.2,17.5-18.3,22.4-20.4C-485.2,365.3-497.4,362.5-507.6,343.5z"/>
			</g>
			<g>
				<defs>
					<circle id="SVGID_94_" cx="-626.1" cy="394.5" r="233.5"/>
				</defs>
				<clipPath id="SVGID_95_">
					<use xlink:href="#SVGID_94_"  style="overflow:visible;"/>
				</clipPath>
				<line class="st59" x1="-629.9" y1="586.1" x2="-546.3" y2="661.6"/>
			</g>
			<g>
				<defs>
					<circle id="SVGID_96_" cx="-626.1" cy="394.5" r="233.5"/>
				</defs>
				<clipPath id="SVGID_97_">
					<use xlink:href="#SVGID_96_"  style="overflow:visible;"/>
				</clipPath>
				<line class="st60" x1="-569.2" y1="432.6" x2="-575.3" y2="410.2"/>
			</g>
			<g>
				<defs>
					<circle id="SVGID_98_" cx="-625.4" cy="391.3" r="233.5"/>
				</defs>
				<clipPath id="SVGID_99_">
					<use xlink:href="#SVGID_98_"  style="overflow:visible;"/>
				</clipPath>
				<polygon class="st61" points="-667.6,325.1 -633.3,321.5 -613.1,326.6 -593.2,329.6 -592.5,303.1 -600.7,295 -612.9,284.8 
					-629.2,282.7 -641.5,284.8 -653.7,290.9 -661.9,309.2 				"/>
			</g>
			<g>
				<defs>
					<circle id="SVGID_100_" cx="-625.4" cy="394.1" r="233.5"/>
				</defs>
				<clipPath id="SVGID_101_">
					<use xlink:href="#SVGID_100_"  style="overflow:visible;"/>
				</clipPath>
				<path class="st62" d="M-674.9,325.2c4.1-0.6,14.5-1.7,21.2-2.5c17.1-2,18.8-2,20.4-2c9.8,0.4,12,3.5,24.5,6.1
					c9.3,1.9,16.5,2.3,22.9,2.3"/>
			</g>
			<g>
				<defs>
					<circle id="SVGID_102_" cx="-626.1" cy="394.5" r="233.5"/>
				</defs>
				<clipPath id="SVGID_103_">
					<use xlink:href="#SVGID_102_"  style="overflow:visible;"/>
				</clipPath>
			</g>
			<g>
				<defs>
					<circle id="SVGID_104_" cx="-626.1" cy="394.5" r="233.5"/>
				</defs>
				<clipPath id="SVGID_105_">
					<use xlink:href="#SVGID_104_"  style="overflow:visible;"/>
				</clipPath>
			</g>
			<g>
				<defs>
					<circle id="SVGID_106_" cx="-626.1" cy="394.5" r="233.5"/>
				</defs>
				<clipPath id="SVGID_107_">
					<use xlink:href="#SVGID_106_"  style="overflow:visible;"/>
				</clipPath>
				<path class="st63" d="M-752.3,349.6"/>
			</g>
			<g>
				<defs>
					<circle id="SVGID_108_" cx="-626.1" cy="394.5" r="233.5"/>
				</defs>
				<clipPath id="SVGID_109_">
					<use xlink:href="#SVGID_108_"  style="overflow:visible;"/>
				</clipPath>
			</g>
			<g>
				<defs>
					<circle id="SVGID_110_" cx="-626.1" cy="394.5" r="233.5"/>
				</defs>
				<clipPath id="SVGID_111_">
					<use xlink:href="#SVGID_110_"  style="overflow:visible;"/>
				</clipPath>
				<path class="st64" d="M-805.3,370"/>
			</g>
		</g>
		<line class="st27" x1="-629.2" y1="321.2" x2="-629.2" y2="334.7"/>
	</g>
	<use xlink:href="#SVGID_70_"  style="overflow:visible;fill:none;stroke:#000000;stroke-miterlimit:10;"/>
</g>
<path class="st27" d="M107.8,281.8c0,0-0.7-2.6-1.1-6.1"/>
<path class="st27" d="M172.9,285.8c0,0,1.1-5.1,1.1-6.9"/>
</svg>
