<?xml version="1.0" encoding="utf-8"?>
<!-- Generator: Adobe Illustrator 22.0.1, SVG Export Plug-In . SVG Version: 6.00 Build 0)  -->
<svg version="1.1" xmlns="http://www.w3.org/2000/svg" xmlns:xlink="http://www.w3.org/1999/xlink" x="0px" y="0px"
	 viewBox="0 0 1340 630" style="enable-background:new 0 0 1340 630;" xml:space="preserve">
<style type="text/css">
	.st0{fill:#C1C5E8;}
	.st1{fill:#EF5B49;stroke:#000000;stroke-miterlimit:10;}
</style>
<g id="Layer_2">
	<rect x="794.5" y="-1641" class="st0" width="1843" height="863"/>
</g>
<g id="Layer_3">
	<polygon class="st1" points="829,-1165.5 829,-933.5 1673,-933.5 1707,-933.5 1707,-873.5 1707,-778.5 1673,-778.5 1673,-873.5 
		829,-873.5 829,-778.5 795,-778.5 795,-873.5 795,-933.5 795,-1165.5 	"/>
	<path class="st1" d="M856.1-1014.5h823.7c15,0,27.1,12.2,27.1,27.1v26.7c0,15-12.2,27.1-27.1,27.1H856.1c-15,0-27.1-12.2-27.1-27.1
		v-26.7C829-1002.3,841.2-1014.5,856.1-1014.5z"/>
	<path class="st1" d="M908-1014.5h781c13.2,0,24,10.7,24,24v143H908V-1014.5z"/>
	<path class="st1" d="M852.5-1037.5h60c6.4,0,11.5,5.1,11.5,11.5l0,0c0,6.4-5.1,11.5-11.5,11.5h-60c-6.4,0-11.5-5.1-11.5-11.5l0,0
		C841-1032.4,846.1-1037.5,852.5-1037.5z"/>
	<path class="st1" d="M2297.3-1588.5h-92.2c-122.7,0-222.2,99.5-222.2,222.2v587.8h536.5v-587.8
		C2519.5-1489,2420-1588.5,2297.3-1588.5z"/>
	<rect x="1983" y="-1348.5" class="st1" width="536.5" height="103"/>
	<rect x="1983" y="-1245.5" class="st1" width="536.5" height="103"/>
	<rect x="1983" y="-1142.5" class="st1" width="536.5" height="103"/>
	<rect x="1983" y="-1039.5" class="st1" width="536.5" height="103"/>
	<rect x="1983" y="-936.5" class="st1" width="536.5" height="103"/>
	<g>
		<g>
			<rect x="1983" y="-1332.5" class="st1" width="21.5" height="87"/>
			<rect x="2004.5" y="-1317.5" class="st1" width="21.5" height="72"/>
			<rect x="2025.9" y="-1341.5" class="st1" width="27.7" height="96"/>
			<rect x="2053.6" y="-1341.5" class="st1" width="23.2" height="96"/>
			<rect x="2076.9" y="-1306.5" class="st1" width="11.6" height="61"/>
		</g>
		<g>
			<rect x="2088.5" y="-1332.5" class="st1" width="21.5" height="87"/>
			<rect x="2110" y="-1317.5" class="st1" width="21.5" height="72"/>
			<rect x="2131.4" y="-1341.5" class="st1" width="27.7" height="96"/>
			<rect x="2159.2" y="-1341.5" class="st1" width="23.2" height="96"/>
			<rect x="2182.4" y="-1306.5" class="st1" width="11.6" height="61"/>
		</g>
		<g>
			<rect x="2194" y="-1332.5" class="st1" width="21.5" height="87"/>
			<rect x="2215.5" y="-1317.5" class="st1" width="21.5" height="72"/>
			<rect x="2236.9" y="-1341.5" class="st1" width="27.7" height="96"/>
			<rect x="2264.7" y="-1341.5" class="st1" width="23.2" height="96"/>
			<rect x="2287.9" y="-1306.5" class="st1" width="11.6" height="61"/>
		</g>
		<g>
			<rect x="2299.5" y="-1332.5" class="st1" width="21.5" height="87"/>
			<rect x="2321" y="-1317.5" class="st1" width="21.5" height="72"/>
			<rect x="2342.5" y="-1341.5" class="st1" width="27.7" height="96"/>
			<rect x="2370.2" y="-1341.5" class="st1" width="23.2" height="96"/>
			<rect x="2393.4" y="-1306.5" class="st1" width="11.6" height="61"/>
		</g>
		<g>
			<rect x="2405" y="-1332.5" class="st1" width="21.5" height="87"/>
			<rect x="2426.5" y="-1317.5" class="st1" width="21.5" height="72"/>
			<rect x="2448" y="-1341.5" class="st1" width="27.7" height="96"/>
			<rect x="2475.7" y="-1341.5" class="st1" width="23.2" height="96"/>
			<rect x="2498.9" y="-1306.5" class="st1" width="11.6" height="61"/>
			<rect x="2510.6" y="-1314.5" class="st1" width="8.9" height="69"/>
		</g>
	</g>
	<g>
		<g>
			
				<rect x="2498" y="-1229.5" transform="matrix(-1 -5.022173e-11 5.022173e-11 -1 5017.54 -2372)" class="st1" width="21.5" height="87"/>
			
				<rect x="2476.6" y="-1214.5" transform="matrix(-1 -5.017909e-11 5.017909e-11 -1 4974.6201 -2357)" class="st1" width="21.5" height="72"/>
			
				<rect x="2448.9" y="-1238.5" transform="matrix(-1 -5.023372e-11 5.023372e-11 -1 4925.4409 -2381)" class="st1" width="27.7" height="96"/>
			
				<rect x="2425.6" y="-1238.5" transform="matrix(-1 -5.019197e-11 5.019197e-11 -1 4874.4731 -2381)" class="st1" width="23.2" height="96"/>
			
				<rect x="2414" y="-1203.5" transform="matrix(-1 -5.023150e-11 5.023150e-11 -1 4839.6011 -2346)" class="st1" width="11.6" height="61"/>
		</g>
		<g>
			
				<rect x="2392.5" y="-1229.5" transform="matrix(-1 -5.022173e-11 5.022173e-11 -1 4806.5166 -2372)" class="st1" width="21.5" height="87"/>
			
				<rect x="2371.1" y="-1214.5" transform="matrix(-1 -5.017909e-11 5.017909e-11 -1 4763.5967 -2357)" class="st1" width="21.5" height="72"/>
			
				<rect x="2343.3" y="-1238.5" transform="matrix(-1 -5.023372e-11 5.023372e-11 -1 4714.4175 -2381)" class="st1" width="27.7" height="96"/>
			
				<rect x="2320.1" y="-1238.5" transform="matrix(-1 -5.019197e-11 5.019197e-11 -1 4663.4502 -2381)" class="st1" width="23.2" height="96"/>
			
				<rect x="2308.5" y="-1203.5" transform="matrix(-1 -5.023150e-11 5.023150e-11 -1 4628.5776 -2346)" class="st1" width="11.6" height="61"/>
		</g>
		<g>
			
				<rect x="2287" y="-1229.5" transform="matrix(-1 -5.022173e-11 5.022173e-11 -1 4595.4932 -2372)" class="st1" width="21.5" height="87"/>
			
				<rect x="2265.6" y="-1214.5" transform="matrix(-1 -5.013691e-11 5.013691e-11 -1 4552.5732 -2357)" class="st1" width="21.5" height="72"/>
			
				<rect x="2237.8" y="-1238.5" transform="matrix(-1 -5.026658e-11 5.026658e-11 -1 4503.394 -2381)" class="st1" width="27.7" height="96"/>
			
				<rect x="2214.6" y="-1238.5" transform="matrix(-1 -5.019197e-11 5.019197e-11 -1 4452.4268 -2381)" class="st1" width="23.2" height="96"/>
			
				<rect x="2203" y="-1203.5" transform="matrix(-1 -5.023150e-11 5.023150e-11 -1 4417.5542 -2346)" class="st1" width="11.6" height="61"/>
		</g>
		<g>
			
				<rect x="2181.5" y="-1229.5" transform="matrix(-1 -5.017909e-11 5.017909e-11 -1 4384.4702 -2372)" class="st1" width="21.5" height="87"/>
			
				<rect x="2160" y="-1214.5" transform="matrix(-1 -5.022173e-11 5.022173e-11 -1 4341.5498 -2357)" class="st1" width="21.5" height="72"/>
			
				<rect x="2132.3" y="-1238.5" transform="matrix(-1 -5.023372e-11 5.023372e-11 -1 4292.3706 -2381)" class="st1" width="27.7" height="96"/>
			
				<rect x="2109.1" y="-1238.5" transform="matrix(-1 -5.019197e-11 5.019197e-11 -1 4241.4033 -2381)" class="st1" width="23.2" height="96"/>
			
				<rect x="2097.5" y="-1203.5" transform="matrix(-1 -5.015289e-11 5.015289e-11 -1 4206.5308 -2346)" class="st1" width="11.6" height="61"/>
		</g>
		<g>
			
				<rect x="2076" y="-1229.5" transform="matrix(-1 -5.026391e-11 5.026391e-11 -1 4173.4468 -2372)" class="st1" width="21.5" height="87"/>
			
				<rect x="2054.5" y="-1214.5" transform="matrix(-1 -5.017909e-11 5.017909e-11 -1 4130.5269 -2357)" class="st1" width="21.5" height="72"/>
			
				<rect x="2026.8" y="-1238.5" transform="matrix(-1 -5.026658e-11 5.026658e-11 -1 4081.3474 -2381)" class="st1" width="27.7" height="96"/>
			
				<rect x="2003.6" y="-1238.5" transform="matrix(-1 -5.015289e-11 5.015289e-11 -1 4030.3799 -2381)" class="st1" width="23.2" height="96"/>
			
				<rect x="1991.9" y="-1203.5" transform="matrix(-1 -5.023150e-11 5.023150e-11 -1 3995.5076 -2346)" class="st1" width="11.6" height="61"/>
			
				<rect x="1983" y="-1211.5" transform="matrix(-1 -5.024704e-11 5.024704e-11 -1 3974.9417 -2354)" class="st1" width="8.9" height="69"/>
		</g>
	</g>
	<g>
		<g>
			<rect x="1983" y="-1126.5" class="st1" width="21.5" height="87"/>
			<rect x="2004.5" y="-1111.5" class="st1" width="21.5" height="72"/>
			<rect x="2025.9" y="-1135.5" class="st1" width="27.7" height="96"/>
			<rect x="2053.6" y="-1135.5" class="st1" width="23.2" height="96"/>
			<rect x="2076.9" y="-1100.5" class="st1" width="11.6" height="61"/>
		</g>
		<g>
			<rect x="2088.5" y="-1126.5" class="st1" width="21.5" height="87"/>
			<rect x="2110" y="-1111.5" class="st1" width="21.5" height="72"/>
			<rect x="2131.4" y="-1135.5" class="st1" width="27.7" height="96"/>
			<rect x="2159.2" y="-1135.5" class="st1" width="23.2" height="96"/>
			<rect x="2182.4" y="-1100.5" class="st1" width="11.6" height="61"/>
		</g>
		<g>
			<rect x="2194" y="-1126.5" class="st1" width="21.5" height="87"/>
			<rect x="2215.5" y="-1111.5" class="st1" width="21.5" height="72"/>
			<rect x="2236.9" y="-1135.5" class="st1" width="27.7" height="96"/>
			<rect x="2264.7" y="-1135.5" class="st1" width="23.2" height="96"/>
			<rect x="2287.9" y="-1100.5" class="st1" width="11.6" height="61"/>
		</g>
		<g>
			<rect x="2299.5" y="-1126.5" class="st1" width="21.5" height="87"/>
			<rect x="2321" y="-1111.5" class="st1" width="21.5" height="72"/>
			<rect x="2342.5" y="-1135.5" class="st1" width="27.7" height="96"/>
			<rect x="2370.2" y="-1135.5" class="st1" width="23.2" height="96"/>
			<rect x="2393.4" y="-1100.5" class="st1" width="11.6" height="61"/>
		</g>
		<g>
			<rect x="2405" y="-1126.5" class="st1" width="21.5" height="87"/>
			<rect x="2426.5" y="-1111.5" class="st1" width="21.5" height="72"/>
			<rect x="2448" y="-1135.5" class="st1" width="27.7" height="96"/>
			<rect x="2475.7" y="-1135.5" class="st1" width="23.2" height="96"/>
			<rect x="2498.9" y="-1100.5" class="st1" width="11.6" height="61"/>
			<rect x="2510.6" y="-1108.5" class="st1" width="8.9" height="69"/>
		</g>
	</g>
	<g>
		<g>
			
				<rect x="2498" y="-1023.5" transform="matrix(-1 -5.017909e-11 5.017909e-11 -1 5017.54 -1960)" class="st1" width="21.5" height="87"/>
			
				<rect x="2476.6" y="-1008.5" transform="matrix(-1 -5.026391e-11 5.026391e-11 -1 4974.6201 -1945)" class="st1" width="21.5" height="72"/>
			
				<rect x="2448.9" y="-1032.5" transform="matrix(-1 -5.020085e-11 5.020085e-11 -1 4925.4409 -1969)" class="st1" width="27.7" height="96"/>
			
				<rect x="2425.6" y="-1032.5" transform="matrix(-1 -5.023150e-11 5.023150e-11 -1 4874.4731 -1969)" class="st1" width="23.2" height="96"/>
			
				<rect x="2414" y="-997.5" transform="matrix(-1 -5.007473e-11 5.007473e-11 -1 4839.6011 -1934)" class="st1" width="11.6" height="61"/>
		</g>
		<g>
			
				<rect x="2392.5" y="-1023.5" transform="matrix(-1 -5.026391e-11 5.026391e-11 -1 4806.5166 -1960)" class="st1" width="21.5" height="87"/>
			
				<rect x="2371.1" y="-1008.5" transform="matrix(-1 -5.017909e-11 5.017909e-11 -1 4763.5967 -1945)" class="st1" width="21.5" height="72"/>
			
				<rect x="2343.3" y="-1032.5" transform="matrix(-1 -5.020085e-11 5.020085e-11 -1 4714.4175 -1969)" class="st1" width="27.7" height="96"/>
			
				<rect x="2320.1" y="-1032.5" transform="matrix(-1 -5.023150e-11 5.023150e-11 -1 4663.4502 -1969)" class="st1" width="23.2" height="96"/>
			
				<rect x="2308.5" y="-997.5" transform="matrix(-1 -5.023150e-11 5.023150e-11 -1 4628.5776 -1934)" class="st1" width="11.6" height="61"/>
		</g>
		<g>
			
				<rect x="2287" y="-1023.5" transform="matrix(-1 -5.017909e-11 5.017909e-11 -1 4595.4932 -1960)" class="st1" width="21.5" height="87"/>
			
				<rect x="2265.6" y="-1008.5" transform="matrix(-1 -5.026391e-11 5.026391e-11 -1 4552.5732 -1945)" class="st1" width="21.5" height="72"/>
			
				<rect x="2237.8" y="-1032.5" transform="matrix(-1 -5.020085e-11 5.020085e-11 -1 4503.394 -1969)" class="st1" width="27.7" height="96"/>
			
				<rect x="2214.6" y="-1032.5" transform="matrix(-1 -5.023150e-11 5.023150e-11 -1 4452.4268 -1969)" class="st1" width="23.2" height="96"/>
			
				<rect x="2203" y="-997.5" transform="matrix(-1 -5.007473e-11 5.007473e-11 -1 4417.5542 -1934)" class="st1" width="11.6" height="61"/>
		</g>
		<g>
			
				<rect x="2181.5" y="-1023.5" transform="matrix(-1 -5.026391e-11 5.026391e-11 -1 4384.4702 -1960)" class="st1" width="21.5" height="87"/>
			
				<rect x="2160" y="-1008.5" transform="matrix(-1 -5.017909e-11 5.017909e-11 -1 4341.5498 -1945)" class="st1" width="21.5" height="72"/>
			
				<rect x="2132.3" y="-1032.5" transform="matrix(-1 -5.020085e-11 5.020085e-11 -1 4292.3706 -1969)" class="st1" width="27.7" height="96"/>
			
				<rect x="2109.1" y="-1032.5" transform="matrix(-1 -5.023150e-11 5.023150e-11 -1 4241.4033 -1969)" class="st1" width="23.2" height="96"/>
			
				<rect x="2097.5" y="-997.5" transform="matrix(-1 -5.023150e-11 5.023150e-11 -1 4206.5308 -1934)" class="st1" width="11.6" height="61"/>
		</g>
		<g>
			
				<rect x="2076" y="-1023.5" transform="matrix(-1 -5.017909e-11 5.017909e-11 -1 4173.4468 -1960)" class="st1" width="21.5" height="87"/>
			
				<rect x="2054.5" y="-1008.5" transform="matrix(-1 -5.026391e-11 5.026391e-11 -1 4130.5269 -1945)" class="st1" width="21.5" height="72"/>
			
				<rect x="2026.8" y="-1032.5" transform="matrix(-1 -5.020085e-11 5.020085e-11 -1 4081.3474 -1969)" class="st1" width="27.7" height="96"/>
			
				<rect x="2003.6" y="-1032.5" transform="matrix(-1 -5.023150e-11 5.023150e-11 -1 4030.3799 -1969)" class="st1" width="23.2" height="96"/>
			
				<rect x="1991.9" y="-997.5" transform="matrix(-1 -5.007473e-11 5.007473e-11 -1 3995.5076 -1934)" class="st1" width="11.6" height="61"/>
			
				<rect x="1983" y="-1005.5" transform="matrix(-1 -5.024704e-11 5.024704e-11 -1 3974.9417 -1942)" class="st1" width="8.9" height="69"/>
		</g>
	</g>
	<g>
		<g>
			<rect x="1983" y="-920.5" class="st1" width="21.5" height="87"/>
			<rect x="2004.5" y="-905.5" class="st1" width="21.5" height="72"/>
			<rect x="2025.9" y="-929.5" class="st1" width="27.7" height="96"/>
			<rect x="2053.6" y="-929.5" class="st1" width="23.2" height="96"/>
			<rect x="2076.9" y="-894.5" class="st1" width="11.6" height="61"/>
		</g>
		<g>
			<rect x="2088.5" y="-920.5" class="st1" width="21.5" height="87"/>
			<rect x="2110" y="-905.5" class="st1" width="21.5" height="72"/>
			<rect x="2131.4" y="-929.5" class="st1" width="27.7" height="96"/>
			<rect x="2159.2" y="-929.5" class="st1" width="23.2" height="96"/>
			<rect x="2182.4" y="-894.5" class="st1" width="11.6" height="61"/>
		</g>
		<g>
			<rect x="2194" y="-920.5" class="st1" width="21.5" height="87"/>
			<rect x="2215.5" y="-905.5" class="st1" width="21.5" height="72"/>
			<rect x="2236.9" y="-929.5" class="st1" width="27.7" height="96"/>
			<rect x="2264.7" y="-929.5" class="st1" width="23.2" height="96"/>
			<rect x="2287.9" y="-894.5" class="st1" width="11.6" height="61"/>
		</g>
		<g>
			<rect x="2299.5" y="-920.5" class="st1" width="21.5" height="87"/>
			<rect x="2321" y="-905.5" class="st1" width="21.5" height="72"/>
			<rect x="2342.5" y="-929.5" class="st1" width="27.7" height="96"/>
			<rect x="2370.2" y="-929.5" class="st1" width="23.2" height="96"/>
			<rect x="2393.4" y="-894.5" class="st1" width="11.6" height="61"/>
		</g>
		<g>
			<rect x="2405" y="-920.5" class="st1" width="21.5" height="87"/>
			<rect x="2426.5" y="-905.5" class="st1" width="21.5" height="72"/>
			<rect x="2448" y="-929.5" class="st1" width="27.7" height="96"/>
			<rect x="2475.7" y="-929.5" class="st1" width="23.2" height="96"/>
			<rect x="2498.9" y="-894.5" class="st1" width="11.6" height="61"/>
			<rect x="2510.6" y="-902.5" class="st1" width="8.9" height="69"/>
		</g>
	</g>
	<polygon class="st1" points="22.6,362.8 22.6,523.9 608.7,523.9 632.3,523.9 632.3,565.5 632.3,631.5 608.7,631.5 608.7,565.5 
		22.6,565.5 22.6,631.5 -1,631.5 -1,565.5 -1,523.9 -1,362.8 	"/>
	<path class="st1" d="M49.8,467.6h555.4c15,0,27.1,12.2,27.1,27.1v2c0,15-12.2,27.1-27.1,27.1H49.8c-15,0-27.1-12.2-27.1-27.1v-2
		C22.6,479.8,34.8,467.6,49.8,467.6z"/>
	<path class="st1" d="M77.5,467.6h535.1c13.2,0,24,10.7,24,24v92h-559V467.6z"/>
	<path class="st1" d="M40.9,451.6h41.7c4.4,0,8,3.6,8,8l0,0c0,4.4-3.6,8-8,8H40.9c-4.4,0-8-3.6-8-8l0,0
		C32.9,455.2,36.5,451.6,40.9,451.6z"/>
	<path class="st1" d="M1010.3,69L1010.3,69C907.4,69,824,152.4,824,255.3v376.2h372.6V255.3C1196.6,152.4,1113.2,69,1010.3,69z"/>
	<rect x="824" y="235.7" class="st1" width="372.6" height="71.5"/>
	<rect x="824" y="307.2" class="st1" width="372.6" height="71.5"/>
	<rect x="824" y="378.7" class="st1" width="372.6" height="71.5"/>
	<rect x="824" y="450.2" class="st1" width="372.6" height="71.5"/>
	<rect x="824" y="521.8" class="st1" width="372.6" height="71.5"/>
	<g>
		<g>
			<rect x="824" y="246.8" class="st1" width="14.9" height="60.4"/>
			<rect x="838.9" y="257.2" class="st1" width="14.9" height="50"/>
			<rect x="853.8" y="240.5" class="st1" width="19.2" height="66.7"/>
			<rect x="873.1" y="240.5" class="st1" width="16.1" height="66.7"/>
			<rect x="889.2" y="264.8" class="st1" width="8.1" height="42.4"/>
		</g>
		<g>
			<rect x="897.3" y="246.8" class="st1" width="14.9" height="60.4"/>
			<rect x="912.2" y="257.2" class="st1" width="14.9" height="50"/>
			<rect x="927.1" y="240.5" class="st1" width="19.2" height="66.7"/>
			<rect x="946.3" y="240.5" class="st1" width="16.1" height="66.7"/>
			<rect x="962.5" y="264.8" class="st1" width="8.1" height="42.4"/>
		</g>
		<g>
			<rect x="970.5" y="246.8" class="st1" width="14.9" height="60.4"/>
			<rect x="985.4" y="257.2" class="st1" width="14.9" height="50"/>
			<rect x="1000.3" y="240.5" class="st1" width="19.2" height="66.7"/>
			<rect x="1019.6" y="240.5" class="st1" width="16.1" height="66.7"/>
			<rect x="1035.7" y="264.8" class="st1" width="8.1" height="42.4"/>
		</g>
		<g>
			<rect x="1043.8" y="246.8" class="st1" width="14.9" height="60.4"/>
			<rect x="1058.7" y="257.2" class="st1" width="14.9" height="50"/>
			<rect x="1073.6" y="240.5" class="st1" width="19.2" height="66.7"/>
			<rect x="1092.9" y="240.5" class="st1" width="16.1" height="66.7"/>
			<rect x="1109" y="264.8" class="st1" width="8.1" height="42.4"/>
		</g>
		<g>
			<rect x="1117.1" y="246.8" class="st1" width="14.9" height="60.4"/>
			<rect x="1132" y="257.2" class="st1" width="14.9" height="50"/>
			<rect x="1146.9" y="240.5" class="st1" width="19.2" height="66.7"/>
			<rect x="1166.1" y="240.5" class="st1" width="16.1" height="66.7"/>
			<rect x="1182.3" y="264.8" class="st1" width="8.1" height="42.4"/>
			<rect x="1190.4" y="259.3" class="st1" width="6.2" height="47.9"/>
		</g>
	</g>
	<g>
		<g>
			
				<rect x="1181.7" y="318.3" transform="matrix(-1 -5.016577e-11 5.016577e-11 -1 2378.2361 697.0278)" class="st1" width="14.9" height="60.4"/>
			
				<rect x="1166.8" y="328.7" transform="matrix(-1 -5.016577e-11 5.016577e-11 -1 2348.4307 707.4445)" class="st1" width="14.9" height="50"/>
			
				<rect x="1147.5" y="312.1" transform="matrix(-1 -5.027191e-11 5.027191e-11 -1 2314.2783 690.7778)" class="st1" width="19.2" height="66.7"/>
			
				<rect x="1131.4" y="312.1" transform="matrix(-1 -5.013735e-11 5.013735e-11 -1 2278.8843 690.7778)" class="st1" width="16.1" height="66.7"/>
			
				<rect x="1123.3" y="336.4" transform="matrix(-1 -5.025015e-11 5.025015e-11 -1 2254.6672 715.0833)" class="st1" width="8.1" height="42.4"/>
		</g>
		<g>
			
				<rect x="1108.4" y="318.3" transform="matrix(-1 -5.028745e-11 5.028745e-11 -1 2231.6921 697.0278)" class="st1" width="14.9" height="60.4"/>
			
				<rect x="1093.5" y="328.7" transform="matrix(-1 -5.028745e-11 5.028745e-11 -1 2201.8865 707.4445)" class="st1" width="14.9" height="50"/>
			
				<rect x="1074.2" y="312.1" transform="matrix(-1 -5.027191e-11 5.027191e-11 -1 2167.7344 690.7778)" class="st1" width="19.2" height="66.7"/>
			
				<rect x="1058.1" y="312.1" transform="matrix(-1 -5.025015e-11 5.025015e-11 -1 2132.3403 690.7778)" class="st1" width="16.1" height="66.7"/>
			
				<rect x="1050" y="336.4" transform="matrix(-1 -5.002455e-11 5.002455e-11 -1 2108.1233 715.0833)" class="st1" width="8.1" height="42.4"/>
		</g>
		<g>
			
				<rect x="1035.1" y="318.3" transform="matrix(-1 -5.016577e-11 5.016577e-11 -1 2085.1482 697.0278)" class="st1" width="14.9" height="60.4"/>
			
				<rect x="1020.2" y="328.7" transform="matrix(-1 -5.016577e-11 5.016577e-11 -1 2055.3425 707.4445)" class="st1" width="14.9" height="50"/>
			
				<rect x="1001" y="312.1" transform="matrix(-1 -5.027191e-11 5.027191e-11 -1 2021.1904 690.7778)" class="st1" width="19.2" height="66.7"/>
			
				<rect x="984.8" y="312.1" transform="matrix(-1 -5.025015e-11 5.025015e-11 -1 1985.7963 690.7778)" class="st1" width="16.1" height="66.7"/>
			
				<rect x="976.8" y="336.4" transform="matrix(-1 -5.025015e-11 5.025015e-11 -1 1961.5792 715.0833)" class="st1" width="8.1" height="42.4"/>
		</g>
		<g>
			
				<rect x="961.9" y="318.3" transform="matrix(-1 -5.016577e-11 5.016577e-11 -1 1938.6041 697.0278)" class="st1" width="14.9" height="60.4"/>
			
				<rect x="946.9" y="328.7" transform="matrix(-1 -5.016577e-11 5.016577e-11 -1 1908.7986 707.4445)" class="st1" width="14.9" height="50"/>
			
				<rect x="927.7" y="312.1" transform="matrix(-1 -5.017732e-11 5.017732e-11 -1 1874.6464 690.7778)" class="st1" width="19.2" height="66.7"/>
			
				<rect x="911.6" y="312.1" transform="matrix(-1 -5.013735e-11 5.013735e-11 -1 1839.2523 690.7778)" class="st1" width="16.1" height="66.7"/>
			
				<rect x="903.5" y="336.4" transform="matrix(-1 -5.025015e-11 5.025015e-11 -1 1815.0353 715.0833)" class="st1" width="8.1" height="42.4"/>
		</g>
		<g>
			
				<rect x="888.6" y="318.3" transform="matrix(-1 -5.028745e-11 5.028745e-11 -1 1792.0602 697.0278)" class="st1" width="14.9" height="60.4"/>
			
				<rect x="873.7" y="328.7" transform="matrix(-1 -5.028745e-11 5.028745e-11 -1 1762.2546 707.4445)" class="st1" width="14.9" height="50"/>
			
				<rect x="854.4" y="312.1" transform="matrix(-1 -5.027191e-11 5.027191e-11 -1 1728.1024 690.7778)" class="st1" width="19.2" height="66.7"/>
			
				<rect x="838.3" y="312.1" transform="matrix(-1 -5.013735e-11 5.013735e-11 -1 1692.7084 690.7778)" class="st1" width="16.1" height="66.7"/>
			
				<rect x="830.2" y="336.4" transform="matrix(-1 -5.025015e-11 5.025015e-11 -1 1668.4913 715.0833)" class="st1" width="8.1" height="42.4"/>
			
				<rect x="824" y="330.8" transform="matrix(-1 -5.038515e-11 5.038515e-11 -1 1654.2095 709.5278)" class="st1" width="6.2" height="47.9"/>
		</g>
	</g>
	<g>
		<g>
			<rect x="824" y="389.8" class="st1" width="14.9" height="60.4"/>
			<rect x="838.9" y="400.2" class="st1" width="14.9" height="50"/>
			<rect x="853.8" y="383.6" class="st1" width="19.2" height="66.7"/>
			<rect x="873.1" y="383.6" class="st1" width="16.1" height="66.7"/>
			<rect x="889.2" y="407.9" class="st1" width="8.1" height="42.4"/>
		</g>
		<g>
			<rect x="897.3" y="389.8" class="st1" width="14.9" height="60.4"/>
			<rect x="912.2" y="400.2" class="st1" width="14.9" height="50"/>
			<rect x="927.1" y="383.6" class="st1" width="19.2" height="66.7"/>
			<rect x="946.3" y="383.6" class="st1" width="16.1" height="66.7"/>
			<rect x="962.5" y="407.9" class="st1" width="8.1" height="42.4"/>
		</g>
		<g>
			<rect x="970.5" y="389.8" class="st1" width="14.9" height="60.4"/>
			<rect x="985.4" y="400.2" class="st1" width="14.9" height="50"/>
			<rect x="1000.3" y="383.6" class="st1" width="19.2" height="66.7"/>
			<rect x="1019.6" y="383.6" class="st1" width="16.1" height="66.7"/>
			<rect x="1035.7" y="407.9" class="st1" width="8.1" height="42.4"/>
		</g>
		<g>
			<rect x="1043.8" y="389.8" class="st1" width="14.9" height="60.4"/>
			<rect x="1058.7" y="400.2" class="st1" width="14.9" height="50"/>
			<rect x="1073.6" y="383.6" class="st1" width="19.2" height="66.7"/>
			<rect x="1092.9" y="383.6" class="st1" width="16.1" height="66.7"/>
			<rect x="1109" y="407.9" class="st1" width="8.1" height="42.4"/>
		</g>
		<g>
			<rect x="1117.1" y="389.8" class="st1" width="14.9" height="60.4"/>
			<rect x="1132" y="400.2" class="st1" width="14.9" height="50"/>
			<rect x="1146.9" y="383.6" class="st1" width="19.2" height="66.7"/>
			<rect x="1166.1" y="383.6" class="st1" width="16.1" height="66.7"/>
			<rect x="1182.3" y="407.9" class="st1" width="8.1" height="42.4"/>
			<rect x="1190.4" y="402.3" class="st1" width="6.2" height="47.9"/>
		</g>
	</g>
	<g>
		<g>
			
				<rect x="1181.7" y="461.4" transform="matrix(-1 -5.016577e-11 5.016577e-11 -1 2378.2361 983.1389)" class="st1" width="14.9" height="60.4"/>
			
				<rect x="1166.8" y="471.8" transform="matrix(-1 -5.028745e-11 5.028745e-11 -1 2348.4307 993.5555)" class="st1" width="14.9" height="50"/>
			
				<rect x="1147.5" y="455.1" transform="matrix(-1 -5.008273e-11 5.008273e-11 -1 2314.2783 976.8889)" class="st1" width="19.2" height="66.7"/>
			
				<rect x="1131.4" y="455.1" transform="matrix(-1 -5.025015e-11 5.025015e-11 -1 2278.8843 976.8889)" class="st1" width="16.1" height="66.7"/>
			
				<rect x="1123.3" y="479.4" transform="matrix(-1 -5.002455e-11 5.002455e-11 -1 2254.6672 1001.1945)" class="st1" width="8.1" height="42.4"/>
		</g>
		<g>
			
				<rect x="1108.4" y="461.4" transform="matrix(-1 -5.028745e-11 5.028745e-11 -1 2231.6921 983.1389)" class="st1" width="14.9" height="60.4"/>
			
				<rect x="1093.5" y="471.8" transform="matrix(-1 -5.016577e-11 5.016577e-11 -1 2201.8865 993.5555)" class="st1" width="14.9" height="50"/>
			
				<rect x="1074.2" y="455.1" transform="matrix(-1 -5.017732e-11 5.017732e-11 -1 2167.7344 976.8889)" class="st1" width="19.2" height="66.7"/>
			
				<rect x="1058.1" y="455.1" transform="matrix(-1 -5.013735e-11 5.013735e-11 -1 2132.3403 976.8889)" class="st1" width="16.1" height="66.7"/>
			
				<rect x="1050" y="479.4" transform="matrix(-1 -5.002455e-11 5.002455e-11 -1 2108.1233 1001.1945)" class="st1" width="8.1" height="42.4"/>
		</g>
		<g>
			
				<rect x="1035.1" y="461.4" transform="matrix(-1 -5.004365e-11 5.004365e-11 -1 2085.1482 983.1389)" class="st1" width="14.9" height="60.4"/>
			
				<rect x="1020.2" y="471.8" transform="matrix(-1 -5.016577e-11 5.016577e-11 -1 2055.3425 993.5555)" class="st1" width="14.9" height="50"/>
			
				<rect x="1001" y="455.1" transform="matrix(-1 -5.027191e-11 5.027191e-11 -1 2021.1904 976.8889)" class="st1" width="19.2" height="66.7"/>
			
				<rect x="984.8" y="455.1" transform="matrix(-1 -5.025015e-11 5.025015e-11 -1 1985.7963 976.8889)" class="st1" width="16.1" height="66.7"/>
			
				<rect x="976.8" y="479.4" transform="matrix(-1 -5.002455e-11 5.002455e-11 -1 1961.5792 1001.1945)" class="st1" width="8.1" height="42.4"/>
		</g>
		<g>
			
				<rect x="961.9" y="461.4" transform="matrix(-1 -5.028745e-11 5.028745e-11 -1 1938.6041 983.1389)" class="st1" width="14.9" height="60.4"/>
			
				<rect x="946.9" y="471.8" transform="matrix(-1 -5.028745e-11 5.028745e-11 -1 1908.7986 993.5555)" class="st1" width="14.9" height="50"/>
			
				<rect x="927.7" y="455.1" transform="matrix(-1 -5.027191e-11 5.027191e-11 -1 1874.6464 976.8889)" class="st1" width="19.2" height="66.7"/>
			
				<rect x="911.6" y="455.1" transform="matrix(-1 -5.025015e-11 5.025015e-11 -1 1839.2523 976.8889)" class="st1" width="16.1" height="66.7"/>
			
				<rect x="903.5" y="479.4" transform="matrix(-1 -5.047530e-11 5.047530e-11 -1 1815.0353 1001.1945)" class="st1" width="8.1" height="42.4"/>
		</g>
		<g>
			
				<rect x="888.6" y="461.4" transform="matrix(-1 -5.028745e-11 5.028745e-11 -1 1792.0602 983.1389)" class="st1" width="14.9" height="60.4"/>
			
				<rect x="873.7" y="471.8" transform="matrix(-1 -5.028745e-11 5.028745e-11 -1 1762.2546 993.5555)" class="st1" width="14.9" height="50"/>
			
				<rect x="854.4" y="455.1" transform="matrix(-1 -5.017732e-11 5.017732e-11 -1 1728.1024 976.8889)" class="st1" width="19.2" height="66.7"/>
			
				<rect x="838.3" y="455.1" transform="matrix(-1 -5.013735e-11 5.013735e-11 -1 1692.7084 976.8889)" class="st1" width="16.1" height="66.7"/>
			
				<rect x="830.2" y="479.4" transform="matrix(-1 -5.002455e-11 5.002455e-11 -1 1668.4913 1001.1945)" class="st1" width="8.1" height="42.4"/>
			
				<rect x="824" y="473.9" transform="matrix(-1 -5.038515e-11 5.038515e-11 -1 1654.2095 995.6389)" class="st1" width="6.2" height="47.9"/>
		</g>
	</g>
	<g>
		<g>
			<rect x="824" y="532.9" class="st1" width="14.9" height="60.4"/>
			<rect x="838.9" y="543.3" class="st1" width="14.9" height="50"/>
			<rect x="853.8" y="526.6" class="st1" width="19.2" height="66.7"/>
			<rect x="873.1" y="526.6" class="st1" width="16.1" height="66.7"/>
			<rect x="889.2" y="550.9" class="st1" width="8.1" height="42.4"/>
		</g>
		<g>
			<rect x="897.3" y="532.9" class="st1" width="14.9" height="60.4"/>
			<rect x="912.2" y="543.3" class="st1" width="14.9" height="50"/>
			<rect x="927.1" y="526.6" class="st1" width="19.2" height="66.7"/>
			<rect x="946.3" y="526.6" class="st1" width="16.1" height="66.7"/>
			<rect x="962.5" y="550.9" class="st1" width="8.1" height="42.4"/>
		</g>
		<g>
			<rect x="970.5" y="532.9" class="st1" width="14.9" height="60.4"/>
			<rect x="985.4" y="543.3" class="st1" width="14.9" height="50"/>
			<rect x="1000.3" y="526.6" class="st1" width="19.2" height="66.7"/>
			<rect x="1019.6" y="526.6" class="st1" width="16.1" height="66.7"/>
			<rect x="1035.7" y="550.9" class="st1" width="8.1" height="42.4"/>
		</g>
		<g>
			<rect x="1043.8" y="532.9" class="st1" width="14.9" height="60.4"/>
			<rect x="1058.7" y="543.3" class="st1" width="14.9" height="50"/>
			<rect x="1073.6" y="526.6" class="st1" width="19.2" height="66.7"/>
			<rect x="1092.9" y="526.6" class="st1" width="16.1" height="66.7"/>
			<rect x="1109" y="550.9" class="st1" width="8.1" height="42.4"/>
		</g>
		<g>
			<rect x="1117.1" y="532.9" class="st1" width="14.9" height="60.4"/>
			<rect x="1132" y="543.3" class="st1" width="14.9" height="50"/>
			<rect x="1146.9" y="526.6" class="st1" width="19.2" height="66.7"/>
			<rect x="1166.1" y="526.6" class="st1" width="16.1" height="66.7"/>
			<rect x="1182.3" y="550.9" class="st1" width="8.1" height="42.4"/>
			<rect x="1190.4" y="545.4" class="st1" width="6.2" height="47.9"/>
		</g>
	</g>
</g>
<g id="Layer_1">
</g>
<g id="Layer_4">
</g>
</svg>
