<svg version="1.1" viewBox="0 0 95.6 97.3">
  <path class="sham-svg" d="M46.9,48.9c.5,6.1.2,10.7-.2,14.3-.7,6.2-1.2,11.1-4.3,16.5-1.6,2.8-4.1,7.2-9.5,9.8-3.9,1.9-7.6,1.9-9.7,1.7v5c1.7.6,5.2,1.5,9.5.9,1.5-.2,5.6-.9,9.3-4.1.9-.8,3.2-3,5.4-8.9.6-1.7,2.8-7.8,3-19.4,0-3.9,0-9.4-1.1-15.9,1.1.2,2.5.5,4.1,1.1.7.2,2.8,1,5.5,2.7,1.4.9,1.8,1.3,4.9,3.7,2,1.6,4,3.2,6.2,4.9,3.1,2.4,4.7,3.6,6.7,4.5,2.4,1.2,4.6,1.7,6,1.9.5,0,6.2,1.1,10-2.9,2.2-2.3,2.7-5.1,2.8-6.1.1-.8.5-3.9-1.4-7-1.7-2.6-4.1-3.7-4.9-4,.8-.3,3.6-1.5,5.2-4.6,1.3-2.5,1.2-4.8,1.1-5.6,0-.9-.4-4.5-3.5-7.4-3.5-3.2-7.8-2.8-8.4-2.7-.8,0-3.7,0-8.5,2.5-4.7,2.3-7.8,5.2-11,8.1-4.5,4.1-6,6.5-10.1,7.9-1.8.6-3.4.8-4.5.9,0-1,0-2.6.4-4.4.8-3.6,2.6-5.4,7.8-11.5,0,0,6.5-7.5,8.5-11.6,1.5-3.2,1.7-5,1.9-6,0-.5,1.1-6.2-2.9-10C62.8.7,60.1.2,59,.1c-.8-.1-3.9-.5-7,1.4-2.6,1.7-3.7,4.1-4,4.9-.3-.8-1.5-3.6-4.6-5.2C40.9,0,38.6,0,37.8,0c-.9,0-4.5.4-7.4,3.5-3.2,3.5-2.8,7.8-2.7,8.4.3,2.7.8,5.2,2.5,8.5,5.5,10.4,12.5,11.9,15.6,21,.7,2,1,3.8,1.1,4.8h0c-1.3-.2-3.2-.5-5.3-1.3-2.9-1-5-2.4-10.1-6.6-7-5.7-8.3-7.4-12.5-9.4-3.2-1.6-5.1-1.7-6-1.9-.5,0-6.2-1.1-10,2.9C.7,32.6.2,35.3.1,36.4c-.1.8-.5,3.9,1.4,7,1.7,2.6,4.1,3.7,4.9,4-.8.3-3.6,1.5-5.2,4.6C0,54.4,0,56.7,0,57.6c0,.9.4,4.5,3.5,7.4,3.5,3.2,7.8,2.8,8.4,2.7,2.3-.3,5.3-1,8.5-2.5,2.9-1.4,5.5-3.8,10.7-8.3,4.1-3.6,4.4-4.1,6.1-5.2,3.6-2.2,7.2-2.4,9.6-2.7Z"/>
</svg>