<?xml version="1.0" encoding="utf-8"?>
<!-- Generator: Adobe Illustrator 22.0.1, SVG Export Plug-In . SVG Version: 6.00 Build 0)  -->
<svg version="1.1" xmlns="http://www.w3.org/2000/svg" xmlns:xlink="http://www.w3.org/1999/xlink" x="0px" y="0px"
	 viewBox="0 0 750 607.7" style="enable-background:new 0 0 750 607.7;" xml:space="preserve">
<style type="text/css">
	.st0{fill:#E7E7E7;}
	.st1{fill:none;stroke:#000000;stroke-miterlimit:10;}
	.st2{fill:#E7E7E7;stroke:#000000;stroke-miterlimit:10;}
	.st3{fill:#FFFFFF;stroke:#000000;stroke-miterlimit:10;}
	.st4{stroke:#000000;stroke-miterlimit:10;}
	.st5{fill:none;}
</style>
<g id="Layer_1">
	<g>
		<circle class="st0" cx="-592.5" cy="245.8" r="55"/>
		<path d="M-592.5,191.3c30.1,0,54.5,24.4,54.5,54.5s-24.4,54.5-54.5,54.5s-54.5-24.4-54.5-54.5S-622.6,191.3-592.5,191.3
			 M-592.5,190.3c-30.7,0-55.5,24.8-55.5,55.5s24.8,55.5,55.5,55.5s55.5-24.8,55.5-55.5S-561.8,190.3-592.5,190.3L-592.5,190.3z"/>
	</g>
	<g>
		<circle class="st0" cx="-509.5" cy="408.8" r="55"/>
		<path d="M-509.5,354.3c30.1,0,54.5,24.4,54.5,54.5c0,30.1-24.4,54.5-54.5,54.5s-54.5-24.4-54.5-54.5
			C-564,378.8-539.6,354.3-509.5,354.3 M-509.5,353.3c-30.7,0-55.5,24.8-55.5,55.5s24.8,55.5,55.5,55.5s55.5-24.8,55.5-55.5
			S-478.8,353.3-509.5,353.3L-509.5,353.3z"/>
	</g>
	<path class="st1" d="M-551.5,256.8c0,0,128,29,128,206"/>
	<polygon class="st2" points="490.5,68.8 490.5,98.8 672.5,86.8 	"/>
	<polygon class="st2" points="749,412.8 373.5,116.8 0,412.8 	"/>
	<g>
		<polygon class="st2" points="434.8,383 420.3,383 420.3,412.8 415.5,412.8 415.5,383 376.3,383 376.3,412.8 371.5,412.8 
			371.5,383 332.3,383 332.3,412.8 327.5,412.8 327.5,383 312.3,383 280.5,424.8 464,424.8 		"/>
		<polygon class="st2" points="420.3,378.2 431.5,378.2 420.3,362.2 		"/>
		<path class="st2" d="M376.3,378.2h39.2v-22.9l-7.4-10.6c-7.7-11.1-19.7-16.9-31.8-17.3V378.2z"/>
		<polygon class="st2" points="327.5,378.2 327.5,363.1 316,378.2 		"/>
		<path class="st2" d="M332.3,378.2h39.2v-50.7c-10.9,0.9-21.6,6.1-28.9,15.8l-10.2,13.4V378.2z"/>
	</g>
	<line class="st3" x1="373.5" y1="117.3" x2="373.5" y2="44.3"/>
	<polygon class="st2" points="373.5,49.8 510.5,55.8 510.5,84.8 373.5,86.8 	"/>
	<line class="st3" x1="490.5" y1="98.8" x2="510.5" y2="84.8"/>
	<path id="SVGID_x5F_1_x5F_" class="st5" d="M1175,684.8c0-88.6,71.9-160.5,160.5-160.5S1496,596.2,1496,684.8"/>
	<text>	<textPath  xlink:href="#SVGID_x5F_1_x5F_" startOffset="0%">
<tspan  style="font-family:'MyriadPro-Regular'; font-size:72px;">TOWN HALL</tspan>	</textPath>
</text>
	<path class="st2" d="M370.8,43.8h5.4c0.7,0,1.1-0.6,0.9-1.3l-3.6-11.7l-3.6,11.7C369.7,43.2,370.2,43.8,370.8,43.8z"/>
	<g>
		<path class="st4" d="M-455.9,39.1v43.8h-6.8V39.1h-14.1v-5.8h35.4l-0.7,5.8H-455.9z"/>
		<path class="st4" d="M-397,58.1c0,16.4-8.5,25.6-21,25.6c-12.4,0-21-8.9-21-25.6c0-16.3,8.6-25.8,21-25.8
			C-405.5,32.4-397,41.4-397,58.1z M-431.6,58.1c0,14.3,5.6,19.9,13.7,19.9c8.4,0,13.7-5.6,13.7-20c0-14.3-5.2-20.1-13.7-20.1
			C-426.2,38-431.6,43.8-431.6,58.1z"/>
		<path class="st4" d="M-354.9,82.8l-9.1-41.5l-9.2,41.5h-8.6l-10.1-49.6h6.7l8,43.6l9.6-43.6h7.3l9.8,43.6l8.3-43.6h6.3l-10.1,49.6
			H-354.9z"/>
		<path class="st4" d="M-301.4,82.8l-20.2-42.1c0.4,4.1,0.9,10.2,0.9,19.4v22.8h-6.4V33.2h8.9l20.4,42.2c-0.1-1.2-0.9-9.1-0.9-15.1
			V33.2h6.4v49.6H-301.4z"/>
	</g>
	<g>
		<path class="st2" d="M-461.9,138.1v43.8h-6.8v-43.8h-14.1v-5.8h35.4l-0.7,5.8H-461.9z"/>
		<path class="st2" d="M-403,157.1c0,16.4-8.5,25.6-21,25.6c-12.4,0-21-8.9-21-25.6c0-16.3,8.6-25.8,21-25.8
			C-411.5,131.4-403,140.4-403,157.1z M-437.6,157.1c0,14.3,5.6,19.9,13.7,19.9c8.4,0,13.7-5.6,13.7-20c0-14.3-5.2-20.1-13.7-20.1
			C-432.2,137-437.6,142.8-437.6,157.1z"/>
		<path class="st2" d="M-360.9,181.8l-9.1-41.5l-9.2,41.5h-8.6l-10.1-49.6h6.7l8,43.6l9.6-43.6h7.3l9.8,43.6l8.3-43.6h6.3
			l-10.1,49.6H-360.9z"/>
		<path class="st2" d="M-307.4,181.8l-20.2-42.1c0.4,4.1,0.9,10.2,0.9,19.4v22.8h-6.4v-49.6h8.9l20.4,42.2
			c-0.1-1.2-0.9-9.1-0.9-15.1v-27.1h6.4v49.6H-307.4z"/>
	</g>
	<g>
		<path class="st4" d="M-246.4,41.6v23.3h-6.8V15.2h6.8V36h20.9V15.2h6.8v49.6h-6.8V41.6H-246.4z"/>
		<path class="st4" d="M-200.4,52.4l-3.7,12.5h-6.9l15.9-49.6h8.6l15.8,49.6h-7.2l-3.7-12.5H-200.4z M-191,20.9l-7.8,25.9h15.5
			L-191,20.9z"/>
		<path class="st4" d="M-135.8,58.9l-0.8,6H-163V15.2h6.8v43.6H-135.8z"/>
		<path class="st4" d="M-100,58.9l-0.8,6h-26.4V15.2h6.8v43.6H-100z"/>
	</g>
	<g>
		<path class="st2" d="M-262.4,159.6v23.3h-6.8v-49.6h6.8V154h20.9v-20.7h6.8v49.6h-6.8v-23.3H-262.4z"/>
		<path class="st2" d="M-216.4,170.4l-3.7,12.5h-6.9l15.9-49.6h8.6l15.8,49.6h-7.2l-3.7-12.5H-216.4z M-207,138.9l-7.8,25.9h15.5
			L-207,138.9z"/>
		<path class="st2" d="M-151.8,176.9l-0.8,6H-179v-49.6h6.8v43.6H-151.8z"/>
		<path class="st2" d="M-116,176.9l-0.8,6h-26.4v-49.6h6.8v43.6H-116z"/>
	</g>
	<text transform="matrix(1 0 0 1 -344.3384 594.4954)"><tspan x="0" y="0" style="font-family:'Apercu-Medium'; font-size:51px; letter-spacing:-1;">T</tspan><tspan x="25" y="0" style="font-family:'Apercu-Medium'; font-size:51px;">OW</tspan><tspan x="109.5" y="0" style="font-family:'Apercu-Medium'; font-size:51px; letter-spacing:-1;">E</tspan><tspan x="136.9" y="0" style="font-family:'Apercu-Medium'; font-size:51px;">R </tspan><tspan x="183.2" y="0" style="font-family:'Apercu-Medium'; font-size:51px; letter-spacing:-2;">O</tspan><tspan x="218.8" y="0" style="font-family:'Apercu-Medium'; font-size:51px;">F </tspan><tspan x="-19.4" y="44" style="font-family:'Apercu-Medium'; font-size:51px;">K</tspan><tspan x="12.3" y="44" style="font-family:'Apercu-Medium'; font-size:51px; letter-spacing:-3;">N</tspan><tspan x="44.8" y="44" style="font-family:'Apercu-Medium'; font-size:51px; letter-spacing:-2;">O</tspan><tspan x="80.4" y="44" style="font-family:'Apercu-Medium'; font-size:51px;">W</tspan><tspan x="126.9" y="44" style="font-family:'Apercu-Medium'; font-size:51px;">L</tspan><tspan x="152.6" y="44" style="font-family:'Apercu-Medium'; font-size:51px; letter-spacing:-1;">E</tspan><tspan x="180.1" y="44" style="font-family:'Apercu-Medium'; font-size:51px;">D</tspan><tspan x="213.6" y="44" style="font-family:'Apercu-Medium'; font-size:51px;">GE</tspan></text>
	<text transform="matrix(1 0 0 1 -401.3672 535.0804)"><tspan x="0" y="0" style="font-family:'Apercu-Medium'; font-size:50px; letter-spacing:-3;">I</tspan><tspan x="11.7" y="0" style="font-family:'Apercu-Medium'; font-size:50px; letter-spacing:-1;">N</tspan><tspan x="45.8" y="0" style="font-family:'Apercu-Medium'; font-size:50px; letter-spacing:-1;">TE</tspan><tspan x="97.4" y="0" style="font-family:'Apercu-Medium'; font-size:50px;">R</tspan><tspan x="129.9" y="0" style="font-family:'Apercu-Medium'; font-size:50px; letter-spacing:-2;">N</tspan><tspan x="162.1" y="0" style="font-family:'Apercu-Medium'; font-size:50px; letter-spacing:1;">E</tspan><tspan x="192.1" y="0" style="font-family:'Apercu-Medium'; font-size:50px;">T </tspan><tspan x="231.2" y="0" style="font-family:'Apercu-Medium'; font-size:50px; letter-spacing:-1;">T</tspan><tspan x="255.7" y="0" style="font-family:'Apercu-Medium'; font-size:50px; letter-spacing:-2;">O</tspan><tspan x="290.6" y="0" style="font-family:'Apercu-Medium'; font-size:50px; letter-spacing:-2;">W</tspan><tspan x="334.2" y="0" style="font-family:'Apercu-Medium'; font-size:50px;">N</tspan></text>
	<rect x="106.5" y="412.8" class="st2" width="536" height="43"/>
	<rect x="113.5" y="412.8" class="st2" width="522" height="43"/>
	<rect x="119.5" y="412.8" class="st2" width="510" height="43"/>
	<rect x="124.5" y="412.8" class="st2" width="498" height="43"/>
	<rect x="130.5" y="412.8" class="st2" width="485" height="43"/>
	<rect x="137.5" y="412.8" class="st2" width="471" height="43"/>
	<path class="st2" d="M714.5,516.8h-680v-55.2c0-6,4.8-10.8,10.8-10.8h651.6c9.7,0,17.6,7.9,17.6,17.6V516.8z"/>
	<path class="st2" d="M0.5,607.8v-81.6c0-7.4,6-13.4,13.4-13.4h722.2c7.4,0,13.4,6,13.4,13.4v81.6"/>
</g>
<g id="Layer_2">
	<g>
		<path class="st5" d="M335,556.3"/>
	</g>
	<g>
		<path class="st2" d="M107.1,542.8h25.6v5.3h-10v30.4h-5.6v-30.4h-10V542.8z"/>
		<path class="st2" d="M166.9,560.6c0,12.2-7.6,18.3-16.4,18.3s-16.4-6.1-16.4-18.3c0-12.2,7.6-18.3,16.4-18.3
			S166.9,548.5,166.9,560.6z M139.9,560.6c0,8.8,4.9,13,10.7,13c5.8,0,10.7-4.1,10.7-13c0-8.8-4.9-13-10.7-13
			C144.8,547.7,139.9,551.8,139.9,560.6z"/>
		<path class="st2" d="M213.5,542.8l-9.4,35.7h-5.7l-6.9-22.6l-6.9,22.6h-5.7l-9.4-35.7h5.9l6.5,27.7l7.1-24h5.1l7.1,24l6.5-27.7
			H213.5z"/>
		<path class="st2" d="M239.6,542.8v5.3h-15.6v8.8h12.5v5.3h-12.5v11h16.1v5.3h-21.7v-35.7H239.6z"/>
		<path class="st2" d="M262,562.1l10.3,16.4h-6.6l-10-16h-4.1v16h-5.6v-35.7h12.5c6.7,0,10.6,3.8,10.6,9.8
			C269,557.5,266.5,560.9,262,562.1z M263.3,552.6c0-3.2-2-4.5-4.7-4.5h-7v9.1h7C261.3,557.2,263.3,555.8,263.3,552.6z"/>
		<path class="st2" d="M315.7,560.6c0,12.2-7.6,18.3-16.4,18.3s-16.4-6.1-16.4-18.3c0-12.2,7.6-18.3,16.4-18.3
			S315.7,548.5,315.7,560.6z M288.7,560.6c0,8.8,4.9,13,10.7,13c5.8,0,10.7-4.1,10.7-13c0-8.8-4.9-13-10.7-13
			C293.6,547.7,288.7,551.8,288.7,560.6z"/>
		<path class="st2" d="M342.4,542.8v5.3h-16v9.2h12.9v5.3h-12.9v15.9h-5.6v-35.7H342.4z"/>
		<path class="st2" d="M359.9,543.8v13.7l12.7-13.7h6.8l-14.4,16l15.6,19.7h-7.2L359.9,562v17.5h-5.6v-35.7H359.9z"/>
		<path class="st2" d="M411.4,543.8v35.7h-6l-14.6-25.6v25.6h-5.6v-35.7h6l14.6,25.7v-25.7H411.4z"/>
		<path class="st2" d="M448.2,561.6c0,12.2-7.6,18.3-16.4,18.3s-16.4-6.1-16.4-18.3c0-12.2,7.6-18.3,16.4-18.3
			S448.2,549.5,448.2,561.6z M421.2,561.6c0,8.8,4.9,13,10.7,13c5.8,0,10.7-4.1,10.7-13c0-8.8-4.9-13-10.7-13
			C426.1,548.7,421.2,552.8,421.2,561.6z"/>
		<path class="st2" d="M493.8,543.8l-9.4,35.7h-5.7l-6.9-22.6l-6.9,22.6h-5.7l-9.4-35.7h5.9l6.5,27.7l7.1-24h5.1l7.1,24l6.5-27.7
			H493.8z"/>
		<path class="st2" d="M504.4,543.8v30.4h15.4v5.3h-21v-35.7H504.4z"/>
		<path class="st2" d="M545.7,543.8v5.3h-15.6v8.8h12.5v5.3h-12.5v11h16.1v5.3h-21.7v-35.7H545.7z"/>
		<path class="st2" d="M562.4,543.8c8.6,0,16.4,5.8,16.4,17.8c0,12-7.9,17.8-16.4,17.8h-10.5v-35.7H562.4z M557.5,549.1v25.1h3.3
			c6.2,0,12.3-2.8,12.3-12.5c0-9.7-6.1-12.5-12.3-12.5H557.5z"/>
		<path class="st2" d="M608.9,575.1c-1.3,2.2-4.3,4.8-9.4,4.8c-8.4,0-16.2-5.7-16.2-18.3c0-12.5,8-18.3,16.5-18.3
			c7.6,0,12.8,4.6,14.2,11l-5.2,1.6c-1.7-4.9-4.8-7.3-9.1-7.3c-6.1,0-10.8,4.3-10.8,13c0,8.9,4.7,13,10.8,13c5.6,0,8.3-3.8,8.8-8.2
			h-6.9v-4.9h12.5v18h-4.9L608.9,575.1z"/>
		<path class="st2" d="M642.1,543.8v5.3h-15.6v8.8h12.5v5.3h-12.5v11h16.1v5.3H621v-35.7H642.1z"/>
	</g>
	<g>
		<path class="st4" d="M360.9,682.8v13.7l12.7-13.7h6.8l-14.4,16l15.6,19.7h-7.2L360.9,701v17.5h-5.6v-35.7H360.9z"/>
		<path class="st4" d="M412.4,682.8v35.7h-6l-14.6-25.6v25.6h-5.6v-35.7h6l14.6,25.7v-25.7H412.4z"/>
		<path class="st4" d="M449.2,700.6c0,12.2-7.6,18.3-16.4,18.3s-16.4-6.1-16.4-18.3c0-12.2,7.6-18.3,16.4-18.3
			S449.2,688.5,449.2,700.6z M422.2,700.6c0,8.8,4.9,13,10.7,13c5.8,0,10.7-4.1,10.7-13c0-8.8-4.9-13-10.7-13
			C427.1,687.7,422.2,691.8,422.2,700.6z"/>
		<path class="st4" d="M494.8,682.8l-9.4,35.7h-5.7l-6.9-22.6l-6.9,22.6h-5.7l-9.4-35.7h5.9l6.5,27.7l7.1-24h5.1l7.1,24l6.5-27.7
			H494.8z"/>
		<path class="st4" d="M505.4,682.8v30.4h15.4v5.3h-21v-35.7H505.4z"/>
		<path class="st4" d="M546.7,682.8v5.3h-15.6v8.8h12.5v5.3h-12.5v11h16.1v5.3h-21.7v-35.7H546.7z"/>
		<path class="st4" d="M563.4,682.8c8.6,0,16.4,5.8,16.4,17.8c0,12-7.9,17.8-16.4,17.8h-10.5v-35.7H563.4z M558.5,688.1v25.1h3.3
			c6.2,0,12.3-2.8,12.3-12.5c0-9.7-6.1-12.5-12.3-12.5H558.5z"/>
		<path class="st4" d="M609.9,714.1c-1.3,2.2-4.3,4.8-9.4,4.8c-8.4,0-16.2-5.7-16.2-18.3c0-12.5,8-18.3,16.5-18.3
			c7.6,0,12.8,4.6,14.2,11l-5.2,1.6c-1.7-4.9-4.8-7.3-9.1-7.3c-6.1,0-10.8,4.3-10.8,13c0,8.9,4.7,13,10.8,13c5.6,0,8.3-3.8,8.8-8.2
			h-6.9v-4.9h12.5v18h-4.9L609.9,714.1z"/>
		<path class="st4" d="M643.1,682.8v5.3h-15.6v8.8h12.5v5.3h-12.5v11h16.1v5.3H622v-35.7H643.1z"/>
		<g>
			<g>
				<path class="st4" d="M103.1,681.8h25.6v5.3h-10v30.4h-5.6v-30.4h-10V681.8z"/>
				<path class="st4" d="M162.9,699.6c0,12.2-7.6,18.3-16.4,18.3s-16.4-6.1-16.4-18.3c0-12.2,7.6-18.3,16.4-18.3
					S162.9,687.5,162.9,699.6z M135.9,699.6c0,8.8,4.9,13,10.7,13c5.8,0,10.7-4.1,10.7-13c0-8.8-4.9-13-10.7-13
					C140.8,686.7,135.9,690.8,135.9,699.6z"/>
				<path class="st4" d="M209.5,681.8l-9.4,35.7h-5.7l-6.9-22.6l-6.9,22.6h-5.7l-9.4-35.7h5.9l6.5,27.7l7.1-24h5.1l7.1,24l6.5-27.7
					H209.5z"/>
				<path class="st4" d="M235.6,681.8v5.3h-15.6v8.8h12.5v5.3h-12.5v11h16.1v5.3h-21.7v-35.7H235.6z"/>
				<path class="st4" d="M258,701.1l10.3,16.4h-6.6l-10-16h-4.1v16h-5.6v-35.7h12.5c6.7,0,10.6,3.8,10.6,9.8
					C265,696.5,262.5,699.9,258,701.1z M259.3,691.6c0-3.2-2-4.5-4.7-4.5h-7v9.1h7C257.3,696.2,259.3,694.8,259.3,691.6z"/>
				<path class="st2" d="M103.1,679.8h25.6v5.3h-10v30.4h-5.6v-30.4h-10V679.8z"/>
				<path class="st2" d="M162.9,697.6c0,12.2-7.6,18.3-16.4,18.3s-16.4-6.1-16.4-18.3c0-12.2,7.6-18.3,16.4-18.3
					S162.9,685.5,162.9,697.6z M135.9,697.6c0,8.8,4.9,13,10.7,13c5.8,0,10.7-4.1,10.7-13c0-8.8-4.9-13-10.7-13
					C140.8,684.7,135.9,688.8,135.9,697.6z"/>
				<path class="st2" d="M209.5,679.8l-9.4,35.7h-5.7l-6.9-22.6l-6.9,22.6h-5.7l-9.4-35.7h5.9l6.5,27.7l7.1-24h5.1l7.1,24l6.5-27.7
					H209.5z"/>
				<path class="st2" d="M235.6,679.8v5.3h-15.6v8.8h12.5v5.3h-12.5v11h16.1v5.3h-21.7v-35.7H235.6z"/>
				<path class="st2" d="M258,699.1l10.3,16.4h-6.6l-10-16h-4.1v16h-5.6v-35.7h12.5c6.7,0,10.6,3.8,10.6,9.8
					C265,694.5,262.5,697.9,258,699.1z M259.3,689.6c0-3.2-2-4.5-4.7-4.5h-7v9.1h7C257.3,694.2,259.3,692.8,259.3,689.6z"/>
			</g>
			<g>
				<g>
					<path class="st5" d="M335,687.3"/>
				</g>
				<path class="st4" d="M316.7,699.6c0,12.2-7.6,18.3-16.4,18.3s-16.4-6.1-16.4-18.3c0-12.2,7.6-18.3,16.4-18.3
					S316.7,687.5,316.7,699.6z M289.7,699.6c0,8.8,4.9,13,10.7,13c5.8,0,10.7-4.1,10.7-13c0-8.8-4.9-13-10.7-13
					C294.6,686.7,289.7,690.8,289.7,699.6z"/>
				<path class="st4" d="M343.4,681.8v5.3h-16v9.2h12.9v5.3h-12.9v15.9h-5.6v-35.7H343.4z"/>
				<path class="st2" d="M316.7,697.6c0,12.2-7.6,18.3-16.4,18.3s-16.4-6.1-16.4-18.3c0-12.2,7.6-18.3,16.4-18.3
					S316.7,685.5,316.7,697.6z M289.7,697.6c0,8.8,4.9,13,10.7,13c5.8,0,10.7-4.1,10.7-13c0-8.8-4.9-13-10.7-13
					C294.6,684.7,289.7,688.8,289.7,697.6z"/>
				<path class="st2" d="M343.4,679.8v5.3h-16v9.2h12.9v5.3h-12.9v15.9h-5.6v-35.7H343.4z"/>
			</g>
		</g>
		<path class="st2" d="M360.9,680.8v13.7l12.7-13.7h6.8l-14.4,16l15.6,19.7h-7.2L360.9,699v17.5h-5.6v-35.7H360.9z"/>
		<path class="st2" d="M412.4,680.8v35.7h-6l-14.6-25.6v25.6h-5.6v-35.7h6l14.6,25.7v-25.7H412.4z"/>
		<path class="st2" d="M449.2,698.6c0,12.2-7.6,18.3-16.4,18.3s-16.4-6.1-16.4-18.3c0-12.2,7.6-18.3,16.4-18.3
			S449.2,686.5,449.2,698.6z M422.2,698.6c0,8.8,4.9,13,10.7,13c5.8,0,10.7-4.1,10.7-13c0-8.8-4.9-13-10.7-13
			C427.1,685.7,422.2,689.8,422.2,698.6z"/>
		<path class="st2" d="M494.8,680.8l-9.4,35.7h-5.7l-6.9-22.6l-6.9,22.6h-5.7l-9.4-35.7h5.9l6.5,27.7l7.1-24h5.1l7.1,24l6.5-27.7
			H494.8z"/>
		<path class="st2" d="M505.4,680.8v30.4h15.4v5.3h-21v-35.7H505.4z"/>
		<path class="st2" d="M546.7,680.8v5.3h-15.6v8.8h12.5v5.3h-12.5v11h16.1v5.3h-21.7v-35.7H546.7z"/>
		<path class="st2" d="M563.4,680.8c8.6,0,16.4,5.8,16.4,17.8c0,12-7.9,17.8-16.4,17.8h-10.5v-35.7H563.4z M558.5,686.1v25.1h3.3
			c6.2,0,12.3-2.8,12.3-12.5c0-9.7-6.1-12.5-12.3-12.5H558.5z"/>
		<path class="st2" d="M609.9,712.1c-1.3,2.2-4.3,4.8-9.4,4.8c-8.4,0-16.2-5.7-16.2-18.3c0-12.5,8-18.3,16.5-18.3
			c7.6,0,12.8,4.6,14.2,11l-5.2,1.6c-1.7-4.9-4.8-7.3-9.1-7.3c-6.1,0-10.8,4.3-10.8,13c0,8.9,4.7,13,10.8,13c5.6,0,8.3-3.8,8.8-8.2
			h-6.9v-4.9h12.5v18h-4.9L609.9,712.1z"/>
		<path class="st2" d="M643.1,680.8v5.3h-15.6v8.8h12.5v5.3h-12.5v11h16.1v5.3H622v-35.7H643.1z"/>
	</g>
	<g>
		<path class="st4" d="M-341.4,820.1h5.5v35h-5.5V820.1z"/>
		<path class="st4" d="M-303.9,820.1v35h-5.9l-14.4-25.1v25.1h-5.5v-35h5.9l14.4,25.2v-25.2H-303.9z"/>
		<path class="st4" d="M-299.7,820.1h25.1v5.2h-9.8v29.8h-5.5v-29.8h-9.8V820.1z"/>
		<path class="st4" d="M-250.1,820.1v5.2h-15.3v8.6h12.3v5.2h-12.3v10.8h15.8v5.2h-21.3v-35H-250.1z"/>
		<path class="st4" d="M-228.1,839l10.1,16.1h-6.5l-9.9-15.7h-4.1v15.7h-5.5v-35h12.3c6.6,0,10.4,3.7,10.4,9.7
			C-221.3,834.5-223.8,837.8-228.1,839z M-226.9,829.7c0-3.1-2-4.5-4.6-4.5h-6.9v8.9h6.9C-228.9,834.2-226.9,832.8-226.9,829.7z"/>
		<path class="st4" d="M-188,820.1v35h-5.9l-14.4-25.1v25.1h-5.5v-35h5.9l14.4,25.2v-25.2H-188z"/>
		<path class="st4" d="M-160.8,820.1v5.2H-176v8.6h12.3v5.2H-176v10.8h15.8v5.2h-21.3v-35H-160.8z"/>
		<path class="st4" d="M-155.7,820.1h25.1v5.2h-9.8v29.8h-5.5v-29.8h-9.8V820.1z"/>
		<path class="st2" d="M-341.4,818.1h5.5v35h-5.5V818.1z"/>
		<path class="st2" d="M-303.9,818.1v35h-5.9l-14.4-25.1v25.1h-5.5v-35h5.9l14.4,25.2v-25.2H-303.9z"/>
		<path class="st2" d="M-299.7,818.1h25.1v5.2h-9.8v29.8h-5.5v-29.8h-9.8V818.1z"/>
		<path class="st2" d="M-250.1,818.1v5.2h-15.3v8.6h12.3v5.2h-12.3v10.8h15.8v5.2h-21.3v-35H-250.1z"/>
		<path class="st2" d="M-228.1,837l10.1,16.1h-6.5l-9.9-15.7h-4.1v15.7h-5.5v-35h12.3c6.6,0,10.4,3.7,10.4,9.7
			C-221.3,832.5-223.8,835.8-228.1,837z M-226.9,827.7c0-3.1-2-4.5-4.6-4.5h-6.9v8.9h6.9C-228.9,832.2-226.9,830.8-226.9,827.7z"/>
		<path class="st2" d="M-188,818.1v35h-5.9l-14.4-25.1v25.1h-5.5v-35h5.9l14.4,25.2v-25.2H-188z"/>
		<path class="st2" d="M-160.8,818.1v5.2H-176v8.6h12.3v5.2H-176v10.8h15.8v5.2h-21.3v-35H-160.8z"/>
		<path class="st2" d="M-155.7,818.1h25.1v5.2h-9.8v29.8h-5.5v-29.8h-9.8V818.1z"/>
		<path class="st4" d="M-117.6,820.1h25.1v5.2h-9.8v29.8h-5.5v-29.8h-9.8V820.1z"/>
		<path class="st4" d="M-59,837.6c0,12-7.5,17.9-16.1,17.9c-8.6,0-16.1-6-16.1-17.9c0-12,7.5-17.9,16.1-17.9
			C-66.5,819.7-59,825.6-59,837.6z M-85.5,837.6c0,8.7,4.8,12.7,10.5,12.7s10.5-4.1,10.5-12.7s-4.8-12.7-10.5-12.7
			S-85.5,828.9-85.5,837.6z"/>
		<path class="st4" d="M-14.3,820.1l-9.3,35h-5.6l-6.8-22.2l-6.8,22.2h-5.6l-9.2-35h5.8l6.4,27.2l7-23.5h5l7,23.5l6.4-27.2H-14.3z"
			/>
		<path class="st4" d="M15.3,820.1v35H9.4L-4.9,830v25.1h-5.5v-35h5.9l14.4,25.2v-25.2H15.3z"/>
		<path class="st2" d="M-117.6,818.1h25.1v5.2h-9.8v29.8h-5.5v-29.8h-9.8V818.1z"/>
		<path class="st2" d="M-59,835.6c0,12-7.5,17.9-16.1,17.9c-8.6,0-16.1-6-16.1-17.9c0-12,7.5-17.9,16.1-17.9
			C-66.5,817.7-59,823.6-59,835.6z M-85.5,835.6c0,8.7,4.8,12.7,10.5,12.7s10.5-4.1,10.5-12.7s-4.8-12.7-10.5-12.7
			S-85.5,826.9-85.5,835.6z"/>
		<path class="st2" d="M-14.3,818.1l-9.3,35h-5.6l-6.8-22.2l-6.8,22.2h-5.6l-9.2-35h5.8l6.4,27.2l7-23.5h5l7,23.5l6.4-27.2H-14.3z"
			/>
		<path class="st2" d="M15.3,818.1v35H9.4L-4.9,828v25.1h-5.5v-35h5.9l14.4,25.2v-25.2H15.3z"/>
	</g>
	<g>
		<path class="st2" d="M196.6,466.1h5.5v35h-5.5V466.1z"/>
		<path class="st2" d="M234.1,466.1v35h-5.9L213.8,476v25.1h-5.5v-35h5.9l14.4,25.2v-25.2H234.1z"/>
		<path class="st2" d="M238.3,466.1h25.1v5.2h-9.8v29.8h-5.5v-29.8h-9.8V466.1z"/>
		<path class="st2" d="M287.9,466.1v5.2h-15.3v8.6H285v5.2h-12.3v10.8h15.8v5.2h-21.3v-35H287.9z"/>
		<path class="st2" d="M309.9,485l10.1,16.1h-6.5l-9.9-15.7h-4.1v15.7h-5.5v-35h12.3c6.6,0,10.4,3.7,10.4,9.7
			C316.7,480.5,314.2,483.8,309.9,485z M311.1,475.7c0-3.1-2-4.5-4.6-4.5h-6.9v8.9h6.9C309.1,480.2,311.1,478.8,311.1,475.7z"/>
		<path class="st2" d="M350,466.1v35h-5.9L329.7,476v25.1h-5.5v-35h5.9l14.4,25.2v-25.2H350z"/>
		<path class="st2" d="M377.2,466.1v5.2H362v8.6h12.3v5.2H362v10.8h15.8v5.2h-21.3v-35H377.2z"/>
		<path class="st2" d="M382.3,466.1h25.1v5.2h-9.8v29.8h-5.5v-29.8h-9.8V466.1z"/>
		<path class="st2" d="M420.4,466.1h25.1v5.2h-9.8v29.8h-5.5v-29.8h-9.8V466.1z"/>
		<path class="st2" d="M479,483.6c0,12-7.5,17.9-16.1,17.9c-8.6,0-16.1-6-16.1-17.9c0-12,7.5-17.9,16.1-17.9
			C471.5,465.7,479,471.6,479,483.6z M452.5,483.6c0,8.7,4.8,12.7,10.5,12.7s10.5-4.1,10.5-12.7s-4.8-12.7-10.5-12.7
			S452.5,474.9,452.5,483.6z"/>
		<path class="st2" d="M523.7,466.1l-9.3,35h-5.6l-6.8-22.2l-6.8,22.2h-5.6l-9.2-35h5.8l6.4,27.2l7-23.5h5l7,23.5l6.4-27.2H523.7z"
			/>
		<path class="st2" d="M553.3,466.1v35h-5.9L533.1,476v25.1h-5.5v-35h5.9l14.4,25.2v-25.2H553.3z"/>
	</g>
</g>
</svg>
