<?xml version="1.0" encoding="utf-8"?>
<!-- Generator: Adobe Illustrator 22.0.1, SVG Export Plug-In . SVG Version: 6.00 Build 0)  -->
<svg version="1.1" id="Layer_1" xmlns="http://www.w3.org/2000/svg" xmlns:xlink="http://www.w3.org/1999/xlink" x="0px" y="0px"
	 viewBox="0 0 1340 630" style="enable-background:new 0 0 1340 630;" xml:space="preserve">
<style type="text/css">
	.st0{clip-path:url(#SVGID_2_);fill:#DD796F;}
	.st1{fill:#E7E7E7;stroke:#000000;stroke-miterlimit:10;}
	.st2{fill:#DD796F;stroke:#000000;stroke-miterlimit:10;}
	.st3{clip-path:url(#SVGID_4_);}
	.st4{fill:#FFFFFF;}
	.st5{fill:none;stroke:#000000;stroke-miterlimit:10;}
	.st6{clip-path:url(#SVGID_4_);fill:#7A8974;stroke:#000000;stroke-miterlimit:10;}
	.st7{clip-path:url(#SVGID_4_);fill:#9AAF92;stroke:#000000;stroke-miterlimit:10;}
	.st8{clip-path:url(#SVGID_4_);fill:#E8E0CD;stroke:#000000;stroke-miterlimit:10;}
	.st9{enable-background:new    ;}
	.st10{fill:#424143;}
	.st11{fill:#F2F2F2;stroke:#000000;stroke-miterlimit:10;}
	.st12{fill:#FFFFFF;stroke:#000000;stroke-miterlimit:10;}
	.st13{fill:none;}
	.st14{clip-path:url(#SVGID_6_);}
	.st15{clip-path:url(#SVGID_13_);}
	.st16{clip-path:url(#SVGID_14_);}
	.st17{clip-path:url(#SVGID_15_);}
	.st18{clip-path:url(#SVGID_16_);fill:#BACEB2;stroke:#000000;stroke-miterlimit:10;}
	.st19{fill:#DDDDD3;stroke:#000000;stroke-miterlimit:10;}
	.st20{fill:#BACEB2;stroke:#000000;stroke-miterlimit:10;}
	.st21{fill:#F2DCA5;stroke:#000000;stroke-miterlimit:10;}
	.st22{fill:#424143;stroke:#E8E0CD;stroke-miterlimit:10;}
	.st23{fill:#424143;stroke:#DD796F;stroke-miterlimit:10;}
	.st24{fill:#DD796F;}
</style>
<g>
	<defs>
		<rect id="SVGID_1_" x="497" y="134.8" width="326" height="356.2"/>
	</defs>
	<use xlink:href="#SVGID_1_"  style="overflow:visible;fill:#DDDDD3;"/>
	<clipPath id="SVGID_2_">
		<use xlink:href="#SVGID_1_"  style="overflow:visible;"/>
	</clipPath>
	<path class="st0" d="M490,127.5V497h339.5V127.5H490z M811.5,481.5h-305V145h305V481.5z"/>
	<use xlink:href="#SVGID_1_"  style="overflow:visible;fill:none;stroke:#000000;stroke-miterlimit:10;"/>
</g>
<rect x="103.9" y="501.5" class="st1" width="326.6" height="26.5"/>
<rect x="497" y="501.5" class="st1" width="326" height="26.5"/>
<path class="st2" d="M516.5,509.7h-0.4c-0.9,0-1.7,0.5-2.2,1.3l-1,1.7l-1-1.7c-0.5-0.8-1.3-1.3-2.2-1.3h-0.4c-0.9,0-1.7,0.5-2.2,1.2
	l-0.2,0.4c-0.6,1-0.5,2.2,0.2,3.1l1.1,1.5c0.8,1.1,1.8,2.1,2.9,3l1.9,1.6l2.1-1.7c0.9-0.7,1.7-1.6,2.4-2.5l1.3-1.7
	c0.7-0.9,0.8-2.2,0.2-3.1l-0.2-0.4C518.2,510.2,517.4,509.7,516.5,509.7z"/>
<path class="st2" d="M123.5,509.5h-0.4c-0.9,0-1.7,0.5-2.2,1.3l-1,1.7l-1-1.7c-0.5-0.8-1.3-1.3-2.2-1.3h-0.4c-0.9,0-1.7,0.5-2.2,1.2
	l-0.2,0.4c-0.6,1-0.5,2.2,0.2,3.1l1.1,1.5c0.8,1.1,1.8,2.1,2.9,3l1.9,1.6l2.1-1.7c0.9-0.7,1.7-1.6,2.4-2.5l1.3-1.7
	c0.7-0.9,0.8-2.2,0.2-3.1l-0.2-0.4C125.2,510,124.4,509.5,123.5,509.5z"/>
<rect x="890" y="501.5" class="st1" width="326" height="26.5"/>
<path class="st2" d="M909.5,509.7h-0.4c-0.9,0-1.7,0.5-2.2,1.3l-1,1.7l-1-1.7c-0.5-0.8-1.3-1.3-2.2-1.3h-0.4c-0.9,0-1.7,0.5-2.2,1.2
	l-0.2,0.4c-0.6,1-0.5,2.2,0.2,3.1l1.1,1.5c0.8,1.1,1.8,2.1,2.9,3l1.9,1.6l2.1-1.7c0.9-0.7,1.7-1.6,2.4-2.5l1.3-1.7
	c0.7-0.9,0.8-2.2,0.2-3.1l-0.2-0.4C911.2,510.2,910.4,509.7,909.5,509.7z"/>
<g>
	<defs>
		<rect id="SVGID_3_" x="104.5" y="134.6" width="326" height="356.2"/>
	</defs>
	<use xlink:href="#SVGID_3_"  style="overflow:visible;fill:#BACEB2;"/>
	<clipPath id="SVGID_4_">
		<use xlink:href="#SVGID_3_"  style="overflow:visible;"/>
	</clipPath>
	<g class="st3">
		<path class="st4" d="M68.4,477.7c-2.3,4.3-2.8,8.5-3,12.8c-0.2,4.5-1.5,9.1-0.9,13.6c0.2,1.4,2.9,8.4,6.1,17.1
			c1.9,5.2,4.7,10.5,8.5,15.6c3.4,4.7,6.9,9.6,12.4,12.7c5.4,3.1,11.1,3.8,16.8,4.2c5.7,0.5,11.6,0.9,17.5-0.2
			c5.7-1,11.4-2.6,17.2-4c5.9-1.4,11.6-3.6,17.5-4.8c5.9-1.2,12.1-1.2,18-2.2c6-1,11.9-2,17.9-2.9c6-0.9,11.9-2.1,17.9-3.1
			c6-1,11.8-2.4,17.8-3.5c5.9-1.1,12.1-1.3,18-2.6c5.9-1.3,11.7-2,17.3-3c5.9-1.1,11.6-2.4,17.2-3.2c6-0.9,11.6-3.1,17.2-3.7
			c6-0.7,12,0.2,17.6-0.2c6.1-0.5,11.8-1.9,17.4-2.2c6.1-0.3,12,0.9,17.6,0.6c6.1-0.3,11.9-1.6,17.5-1.9c6.2-0.4,12-0.6,17.5-1.2
			c6.2-0.7,11.8-2.4,17.1-3.8c6-1.5,11.7-2.5,16.7-5.2c5-2.8,10.1-6,14.2-10.5c2.3-2.6,5.8-9,9.6-16.8c2.5-5.2,5.1-11.2,5.7-18.3
			c0.6-7-1.3-13.1-2.9-18.6c-2.3-8-4.6-14.6-6.7-17.7c-1.3-1.8-5.9-6.5-15.3-13.2c-4.5-3.2-9.5-7.9-16.8-11.3
			c-6.5-3.1-13.3-4.4-19.3-6.3c-7.1-2.3-13.6-4.5-19.5-5.6c-8.7-1.7-15.8-1.9-20.1-2.1c-6.4-0.4-12.6-1.4-18.6-1.1
			c-6.4,0.3-12.3,2.7-18.2,3.7c-6.2,1-12.2,2.3-18.1,3.8c-6.1,1.5-12,3.2-17.8,5c-5.9,1.9-12,3.2-17.8,5.1
			c-10.1,3.4-14.6,6.2-18.7,8c-4.9,2.2-9.2,2.4-19.6,5.5c-6.8,2-12.3,4.7-17.5,5.8c-6.8,1.4-12.8,1.1-18.3,1.9
			c-6,0.9-11.4,3.4-17.7,5c-5.2,1.3-11,2.2-17.7,4.8c-10.8,4.1-13.5,6-19.1,9.3c-3.8,2.3-9.2,4.4-19.3,8.7c-6.2,2.7-11.6,5-16.4,6.8
			c-6.7,2.5-11.9,5.1-16.2,7.3C75.1,468.8,71.4,472.3,68.4,477.7z"/>
		<path class="st5" d="M68.4,477.7c-2.3,4.3-2.8,8.5-3,12.8c-0.2,4.5-1.5,9.1-0.9,13.6c0.2,1.4,2.9,8.4,6.1,17.1
			c1.9,5.2,4.7,10.5,8.5,15.6c3.4,4.7,6.9,9.6,12.4,12.7c5.4,3.1,11.1,3.8,16.8,4.2c5.7,0.5,11.6,0.9,17.5-0.2
			c5.7-1,11.4-2.6,17.2-4c5.9-1.4,11.6-3.6,17.5-4.8c5.9-1.2,12.1-1.2,18-2.2c6-1,11.9-2,17.9-2.9c6-0.9,11.9-2.1,17.9-3.1
			c6-1,11.8-2.4,17.8-3.5c5.9-1.1,12.1-1.3,18-2.6c5.9-1.3,11.7-2,17.3-3c5.9-1.1,11.6-2.4,17.2-3.2c6-0.9,11.6-3.1,17.2-3.7
			c6-0.7,12,0.2,17.6-0.2c6.1-0.5,11.8-1.9,17.4-2.2c6.1-0.3,12,0.9,17.6,0.6c6.1-0.3,11.9-1.6,17.5-1.9c6.2-0.4,12-0.6,17.5-1.2
			c6.2-0.7,11.8-2.4,17.1-3.8c6-1.5,11.7-2.5,16.7-5.2c5-2.8,10.1-6,14.2-10.5c2.3-2.6,5.8-9,9.6-16.8c2.5-5.2,5.1-11.2,5.7-18.3
			c0.6-7-1.3-13.1-2.9-18.6c-2.3-8-4.6-14.6-6.7-17.7c-1.3-1.8-5.9-6.5-15.3-13.2c-4.5-3.2-9.5-7.9-16.8-11.3
			c-6.5-3.1-13.3-4.4-19.3-6.3c-7.1-2.3-13.6-4.5-19.5-5.6c-8.7-1.7-15.8-1.9-20.1-2.1c-6.4-0.4-12.6-1.4-18.6-1.1
			c-6.4,0.3-12.3,2.7-18.2,3.7c-6.2,1-12.2,2.3-18.1,3.8c-6.1,1.5-12,3.2-17.8,5c-5.9,1.9-12,3.2-17.8,5.1
			c-10.1,3.4-14.6,6.2-18.7,8c-4.9,2.2-9.2,2.4-19.6,5.5c-6.8,2-12.3,4.7-17.5,5.8c-6.8,1.4-12.8,1.1-18.3,1.9
			c-6,0.9-11.4,3.4-17.7,5c-5.2,1.3-11,2.2-17.7,4.8c-10.8,4.1-13.5,6-19.1,9.3c-3.8,2.3-9.2,4.4-19.3,8.7c-6.2,2.7-11.6,5-16.4,6.8
			c-6.7,2.5-11.9,5.1-16.2,7.3C75.1,468.8,71.4,472.3,68.4,477.7z"/>
	</g>
	<g class="st3">
		<path class="st4" d="M437,248.2c-5.7,3.2-8.6,6.8-11.8,8.8c-3.9,2.5-7.1,4.7-12.7,7.4c-9.5,4.4-17.2,5.8-22.5,7.2
			c-6.4,1.7-12,2.9-16.9,4.3c-6.5,1.9-11.7,3.8-16.5,5.4c-6,1.9-11.3,3.2-16.7,4.9c-5.1,1.6-10.4,2.9-16.7,4.6
			c-4.9,1.3-10,4.1-16.5,5.6c-6.2,1.4-11.4,2.3-15.9,3.1c-6.7,1.3-12,0.5-16.2,1.1c-6,0.8-10.2,2.3-15.8,3.4
			c-4.2,0.8-9.2,1.1-15.9,3.1c-8.3,2.5-13.6,5.8-18,7.7c-8,3.5-11.4,6.3-17.2,9.2c-4.1,2.1-9.8,3.3-18.7,5.9
			c-2.6,0.8-8.2,3.4-14.3,7c-4.2,2.5-9.4,5-12.7,9.6c-4.4,6.1-2.7,9.5-2.4,10.5c1.3,3.6,5.8,4.8,13,6c6.9,1.1,13.4,2.6,19.1,2.2
			c10.6-0.7,18.3-3.1,19.1-3.3c5.7-1.8,10.7-3.6,15.1-5c6-2,11-3.5,15.1-5c6.4-2.2,11.1-3.4,15.2-4.8c5.2-1.8,9-4.5,14.8-6.1
			c7.9-2.2,12.9-2.8,17.5-3.6c5.1-0.9,9.6-2,17.4-3.5c4.5-0.9,10.3-0.7,17.7-2.5c7.1-1.7,12.5-3.1,16.9-4.4c7.8-2.3,12.1-4.5,16.4-6
			c4.5-1.5,8.9-2.7,16.9-4.2c6.6-1.2,12.3-1.7,17.5-2.2c6.9-0.6,12.6-0.5,17.6-0.4c7,0.1,12.4-0.8,17.5-1.3c5.4-0.6,10.7-1.1,16.6-5
			c5.2-3.4,9.2-7.8,12.6-12c3.9-4.9,7-10.1,9.1-14.9c3.2-7.4,4.3-13.9,4.9-16.7c0.6-2.7,1.3-8.1,1.5-13.4c0.2-5.2-0.6-9.4-3.9-11.6
			c-3.2-2.1-7.7-2.1-15.3,1.6C447.7,242.6,442.8,245,437,248.2z"/>
		<path class="st5" d="M437,248.2c-5.7,3.2-8.6,6.8-11.8,8.8c-3.9,2.5-7.1,4.7-12.7,7.4c-9.5,4.4-17.2,5.8-22.5,7.2
			c-6.4,1.7-12,2.9-16.9,4.3c-6.5,1.9-11.7,3.8-16.5,5.4c-6,1.9-11.3,3.2-16.7,4.9c-5.1,1.6-10.4,2.9-16.7,4.6
			c-4.9,1.3-10,4.1-16.5,5.6c-6.2,1.4-11.4,2.3-15.9,3.1c-6.7,1.3-12,0.5-16.2,1.1c-6,0.8-10.2,2.3-15.8,3.4
			c-4.2,0.8-9.2,1.1-15.9,3.1c-8.3,2.5-13.6,5.8-18,7.7c-8,3.5-11.4,6.3-17.2,9.2c-4.1,2.1-9.8,3.3-18.7,5.9
			c-2.6,0.8-8.2,3.4-14.3,7c-4.2,2.5-9.4,5-12.7,9.6c-4.4,6.1-2.7,9.5-2.4,10.5c1.3,3.6,5.8,4.8,13,6c6.9,1.1,13.4,2.6,19.1,2.2
			c10.6-0.7,18.3-3.1,19.1-3.3c5.7-1.8,10.7-3.6,15.1-5c6-2,11-3.5,15.1-5c6.4-2.2,11.1-3.4,15.2-4.8c5.2-1.8,9-4.5,14.8-6.1
			c7.9-2.2,12.9-2.8,17.5-3.6c5.1-0.9,9.6-2,17.4-3.5c4.5-0.9,10.3-0.7,17.7-2.5c7.1-1.7,12.5-3.1,16.9-4.4c7.8-2.3,12.1-4.5,16.4-6
			c4.5-1.5,8.9-2.7,16.9-4.2c6.6-1.2,12.3-1.7,17.5-2.2c6.9-0.6,12.6-0.5,17.6-0.4c7,0.1,12.4-0.8,17.5-1.3c5.4-0.6,10.7-1.1,16.6-5
			c5.2-3.4,9.2-7.8,12.6-12c3.9-4.9,7-10.1,9.1-14.9c3.2-7.4,4.3-13.9,4.9-16.7c0.6-2.7,1.3-8.1,1.5-13.4c0.2-5.2-0.6-9.4-3.9-11.6
			c-3.2-2.1-7.7-2.1-15.3,1.6C447.7,242.6,442.8,245,437,248.2z"/>
	</g>
	<g class="st3">
		<path class="st4" d="M97.7,260.2c-2.1,2.1-4.8,4.9-4.3,7.6c1,5.7,14.7,6.4,15.5,6.4c6.7,0.7,12-0.1,23.1-4.1
			c7.2-2.6,11.9-4.8,15.5-6.3c6.8-3,9.3-4.3,15.8-5.7c8.4-1.8,8.1-0.5,25-2.1c6.9-0.6,12.7,0,17.3-0.7c8.1-1.2,12.1-4,14.8-7.4
			c3.1-3.8,5.2-8.7,4.9-14c-0.3-5.5-2.2-11.2-5.8-14.2c-2.8-2.3-6.5-2.8-12.2-3.1c-6.4-0.4-12.3,0.7-17.3,1.1
			c-10.5,0.8-17.4,1.2-17.4,1.2c-2.4,0.6-8.2,2.2-15.4,5.1c-4.4,1.7-9,5.1-14.1,7.9c-4.5,2.4-9.8,4.3-14.3,7.7
			c-7.1,5.3-8.7,9.4-16.1,12.6C107.8,254.2,102.6,255.2,97.7,260.2z"/>
		<path class="st5" d="M97.7,260.2c-2.1,2.1-4.8,4.9-4.3,7.6c1,5.7,14.7,6.4,15.5,6.4c6.7,0.7,12-0.1,23.1-4.1
			c7.2-2.6,11.9-4.8,15.5-6.3c6.8-3,9.3-4.3,15.8-5.7c8.4-1.8,8.1-0.5,25-2.1c6.9-0.6,12.7,0,17.3-0.7c8.1-1.2,12.1-4,14.8-7.4
			c3.1-3.8,5.2-8.7,4.9-14c-0.3-5.5-2.2-11.2-5.8-14.2c-2.8-2.3-6.5-2.8-12.2-3.1c-6.4-0.4-12.3,0.7-17.3,1.1
			c-10.5,0.8-17.4,1.2-17.4,1.2c-2.4,0.6-8.2,2.2-15.4,5.1c-4.4,1.7-9,5.1-14.1,7.9c-4.5,2.4-9.8,4.3-14.3,7.7
			c-7.1,5.3-8.7,9.4-16.1,12.6C107.8,254.2,102.6,255.2,97.7,260.2z"/>
	</g>
	<circle class="st6" cx="196.5" cy="198.5" r="6"/>
	<path class="st7" d="M195.2,203.7l0.5-0.4c1.2-0.8,2.7,0.1,2.7,1.5l-6.7,183.8l-1.3,158l-41.3-7.3l28.5-168.8L195.2,203.7z"/>
	<path class="st8" d="M198.2,204l48.5-15.9c5.1-1.7,10.5-1.7,15.6,0l3.3,1.1c8.5,2.8,17.5,3.7,26.3,2.5l45.8-6.2l2.9,59.1l-60.6,8.5
		c-3.4,0.5-6.9,0.2-10.2-0.7l-11.3-3.2c-4-1.1-8.1-1.3-12.2-0.4l-50,11.1L198.2,204z"/>
	<g class="st3">
		<path class="st4" d="M421.4,127.3c-9.5,5.5-8.9,6.1-16.8,9.8c-7,3.2-10.3,2.9-22.3,8.9c-10.4,5.1-15,6.6-15.8,10.2
			c-0.5,2.1,0.2,5.7,2,7.7c2.3,2.5,6.6,2.5,14.8,0.5c3.8-0.9,8.5-2.9,14.4-4.7c4.2-1.2,9.2-2.2,14.7-3.9c5.3-1.5,9.9-2,13.6-3
			c7.8-2.2,11.7-4.4,13.1-4.6c12.4-1.7,19.7-0.1,25.4-5.8c3.2-3.2,4.7-8.3,3.7-13.5c-1.8-8.7-11.7-12.5-12.4-12.7
			c-5.9-1.7-12-0.5-18.2,2C432.4,120.4,427.2,123.9,421.4,127.3z"/>
		<path class="st5" d="M421.4,127.3c-9.5,5.5-8.9,6.1-16.8,9.8c-7,3.2-10.3,2.9-22.3,8.9c-10.4,5.1-15,6.6-15.8,10.2
			c-0.5,2.1,0.2,5.7,2,7.7c2.3,2.5,6.6,2.5,14.8,0.5c3.8-0.9,8.5-2.9,14.4-4.7c4.2-1.2,9.2-2.2,14.7-3.9c5.3-1.5,9.9-2,13.6-3
			c7.8-2.2,11.7-4.4,13.1-4.6c12.4-1.7,19.7-0.1,25.4-5.8c3.2-3.2,4.7-8.3,3.7-13.5c-1.8-8.7-11.7-12.5-12.4-12.7
			c-5.9-1.7-12-0.5-18.2,2C432.4,120.4,427.2,123.9,421.4,127.3z"/>
	</g>
	<use xlink:href="#SVGID_3_"  style="overflow:visible;fill:none;stroke:#000000;stroke-miterlimit:10;"/>
</g>
<g class="st9">
	<path class="st10" d="M136.1,520.1h-1.6l2.1-4.2h0c-0.2,0.1-0.5,0.1-0.8,0.1c-1.3,0-2.4-0.8-2.4-2.8c0-2.3,1.5-3.2,2.9-3.2
		c1.4,0,2.8,1.2,2.8,3c0,0.6-0.1,1.2-0.4,1.7L136.1,520.1z M137.7,513.1c0-1.1-0.6-1.6-1.4-1.6c-0.7,0-1.4,0.4-1.4,1.6
		c0,1.1,0.6,1.6,1.4,1.6S137.7,514.2,137.7,513.1z"/>
	<path class="st10" d="M140.3,510.1h5.7v1.4l-3.4,8.5H141l3.4-8.5h-2.6v1.4h-1.4V510.1z"/>
	<path class="st10" d="M149.9,510.1h1.6l-2.1,4.2h0c0.2-0.1,0.5-0.1,0.8-0.1c1.3,0,2.4,0.8,2.4,2.8c0,2.3-1.5,3.2-2.9,3.2
		c-1.4,0-2.8-1.2-2.8-3c0-0.6,0.1-1.2,0.4-1.7L149.9,510.1z M148.3,517.1c0,1.1,0.6,1.6,1.4,1.6c0.7,0,1.4-0.4,1.4-1.6
		c0-1.1-0.6-1.6-1.4-1.6S148.3,516,148.3,517.1z"/>
	<path class="st10" d="M154,518.7h1.4v1.4l-1.4,1V518.7z"/>
	<path class="st10" d="M156.6,517.3l3.3-7.1h1.6l-3.4,7.1h2.6v-2.9h1.4v2.9h0.8v1.3h-0.8v1.5h-1.4v-1.5h-4.2V517.3z"/>
	<path class="st10" d="M163.3,517.3l3.3-7.1h1.6l-3.4,7.1h2.6v-2.9h1.4v2.9h0.8v1.3h-0.8v1.5h-1.4v-1.5h-4.2V517.3z"/>
	<path class="st10" d="M170.5,510.1h5.3v1.4h-4v2.3c0.5-0.4,1-0.5,1.6-0.5c0.8,0,1.4,0.3,1.8,0.7c0.5,0.6,0.8,1.1,0.8,2.7
		c0,1.3-0.2,1.8-0.6,2.4c-0.4,0.5-1.2,1.1-2.2,1.1c-1.3,0-2.7-0.7-2.9-2.6h1.4c0.2,0.7,0.6,1.2,1.4,1.2c1.4,0,1.4-1.2,1.4-2.1
		c0-1.1-0.3-1.9-1.4-1.9c-0.5,0-1,0.2-1.3,0.8h-1.3V510.1z"/>
	<path class="st10" d="M177.5,518.7h1.4v1.4l-1.4,1V518.7z"/>
	<path class="st10" d="M180.4,518.8l3.9-4.9c0.3-0.4,0.4-0.7,0.4-1c0-0.7-0.5-1.4-1.4-1.4c-0.8,0-1.4,0.5-1.5,1.4h-1.4
		c0-1.6,1.3-2.9,2.8-2.9c1.7,0,2.9,1.3,2.9,2.9c0,0.7-0.2,1.2-0.6,1.8l-3.2,4h3.8v1.4h-5.7V518.8z"/>
	<path class="st10" d="M189.1,514.3h0.5c1,0,1.5-0.6,1.5-1.4s-0.7-1.4-1.5-1.4c-0.6,0-1.2,0.4-1.4,1.2h-1.4c0.1-1.4,1.3-2.6,2.7-2.6
		c1.8,0,2.9,1.4,2.9,2.8c0,0.8-0.2,1.5-1.1,2.1c0.8,0.5,1.2,1.4,1.2,2.2c0,1.8-1.3,3.1-3,3.1c-1.3,0-2.6-0.9-2.8-2.6h1.4
		c0.3,0.7,0.7,1.1,1.5,1.1c0.8,0,1.5-0.6,1.5-1.6c0-1-0.7-1.6-1.5-1.6h-0.6V514.3z"/>
	<path class="st10" d="M196.1,511.7l-1.4,1v-1.5l1.4-1h1.4v10h-1.4V511.7z"/>
	<path class="st10" d="M204.4,510.1h1.4v8.1c0,0.3,0.2,0.5,0.5,0.5h0.5v1.3h-0.6c-1,0-1.8-0.4-1.8-1.7V510.1z"/>
	<path class="st10" d="M208,510.1h1.4v1.4H208V510.1z M208,513h1.4v7.1H208V513z"/>
	<path class="st10" d="M211.3,510.1h1.4v6.2h0l2.7-3.3h1.7l-2.5,2.8l2.8,4.3h-1.8l-1.9-3.3l-1.1,1.3v2h-1.4V510.1z"/>
	<path class="st10" d="M219.5,517.1c0,1.2,0.7,1.8,1.7,1.8c0.5,0,1.1-0.3,1.6-0.7l1,0.9c-0.7,0.8-1.6,1.1-2.6,1.1
		c-1.5,0-3.2-0.7-3.2-3.6c0-2.8,1.6-3.7,2.9-3.7c1.6,0,2.9,1.2,2.9,3v1.2H219.5z M222.5,515.9c0-1.1-0.7-1.7-1.5-1.7
		s-1.5,0.6-1.5,1.7H222.5z"/>
	<path class="st10" d="M225.7,517.9c0.6,0.6,1.3,0.9,2.2,0.9c0.8,0,1.4-0.3,1.4-0.9c0-0.5-0.4-0.7-0.9-0.7l-1.3-0.1
		c-1.2-0.1-2-0.8-2-2c0-1.4,1.1-2.2,2.6-2.2c1.2,0,2.1,0.4,2.8,1l-0.9,1c-0.6-0.4-1.1-0.7-1.9-0.7c-0.9,0-1.2,0.4-1.2,0.9
		c0,0.3,0.2,0.6,0.9,0.7l1.2,0.1c1.5,0.1,2.1,1,2.1,2.1c0,1.4-1.3,2.2-2.9,2.2c-1.1,0-2.2-0.4-3.1-1.3L225.7,517.9z"/>
</g>
<g class="st9">
	<path class="st10" d="M528.1,517.3l3.3-7.1h1.6l-3.4,7.1h2.6v-2.9h1.4v2.9h0.8v1.3h-0.8v1.5h-1.4v-1.5h-4.2V517.3z"/>
	<path class="st10" d="M535.6,518.7h1.4v1.4l-1.4,1V518.7z"/>
	<path class="st10" d="M541.5,510.1h1.6l-2.1,4.2h0c0.2-0.1,0.5-0.1,0.8-0.1c1.3,0,2.4,0.8,2.4,2.8c0,2.3-1.5,3.2-2.9,3.2
		c-1.4,0-2.8-1.2-2.8-3c0-0.6,0.1-1.2,0.4-1.7L541.5,510.1z M539.9,517.1c0,1.1,0.6,1.6,1.4,1.6c0.7,0,1.4-0.4,1.4-1.6
		c0-1.1-0.6-1.6-1.4-1.6S539.9,516,539.9,517.1z"/>
	<path class="st10" d="M545.4,510.1h5.3v1.4h-4v2.3c0.5-0.4,1-0.5,1.6-0.5c0.8,0,1.4,0.3,1.8,0.7c0.5,0.6,0.8,1.1,0.8,2.7
		c0,1.3-0.2,1.8-0.6,2.4c-0.4,0.5-1.2,1.1-2.2,1.1c-1.3,0-2.7-0.7-2.9-2.6h1.4c0.2,0.7,0.6,1.2,1.4,1.2c1.4,0,1.4-1.2,1.4-2.1
		c0-1.1-0.3-1.9-1.4-1.9c-0.5,0-1,0.2-1.3,0.8h-1.3V510.1z"/>
	<path class="st10" d="M551.6,517.3l3.3-7.1h1.6l-3.4,7.1h2.6v-2.9h1.4v2.9h0.8v1.3h-0.8v1.5h-1.4v-1.5h-4.2V517.3z"/>
	<path class="st10" d="M562.4,510.1h1.4v8.1c0,0.3,0.2,0.5,0.5,0.5h0.5v1.3h-0.6c-1,0-1.8-0.4-1.8-1.7V510.1z"/>
	<path class="st10" d="M566.1,510.1h1.4v1.4h-1.4V510.1z M566.1,513h1.4v7.1h-1.4V513z"/>
	<path class="st10" d="M569.4,510.1h1.4v6.2h0l2.7-3.3h1.7l-2.5,2.8l2.8,4.3h-1.8l-1.9-3.3l-1.1,1.3v2h-1.4V510.1z"/>
	<path class="st10" d="M577.6,517.1c0,1.2,0.7,1.8,1.7,1.8c0.5,0,1.1-0.3,1.6-0.7l1,0.9c-0.7,0.8-1.6,1.1-2.6,1.1
		c-1.5,0-3.2-0.7-3.2-3.6c0-2.8,1.6-3.7,2.9-3.7c1.6,0,2.9,1.2,2.9,3v1.2H577.6z M580.6,515.9c0-1.1-0.7-1.7-1.5-1.7
		s-1.5,0.6-1.5,1.7H580.6z"/>
	<path class="st10" d="M583.7,517.9c0.6,0.6,1.3,0.9,2.2,0.9c0.8,0,1.4-0.3,1.4-0.9c0-0.5-0.4-0.7-0.9-0.7l-1.3-0.1
		c-1.2-0.1-2-0.8-2-2c0-1.4,1.1-2.2,2.6-2.2c1.2,0,2.1,0.4,2.8,1l-0.9,1c-0.6-0.4-1.1-0.7-1.9-0.7c-0.9,0-1.2,0.4-1.2,0.9
		c0,0.3,0.2,0.6,0.9,0.7l1.2,0.1c1.5,0.1,2.1,1,2.1,2.1c0,1.4-1.3,2.2-2.9,2.2c-1.1,0-2.2-0.4-3.1-1.3L583.7,517.9z"/>
</g>
<g class="st9">
	<path class="st10" d="M924.4,510.1h1.6l-2.1,4.2h0c0.2-0.1,0.5-0.1,0.8-0.1c1.3,0,2.4,0.8,2.4,2.8c0,2.3-1.5,3.2-2.9,3.2
		c-1.4,0-2.8-1.2-2.8-3c0-0.6,0.1-1.2,0.4-1.7L924.4,510.1z M922.8,517.1c0,1.1,0.6,1.6,1.4,1.6c0.7,0,1.4-0.4,1.4-1.6
		c0-1.1-0.6-1.6-1.4-1.6S922.8,516,922.8,517.1z"/>
	<path class="st10" d="M928.6,518.7h1.4v1.4l-1.4,1V518.7z"/>
	<path class="st10" d="M931.4,518.8l3.9-4.9c0.3-0.4,0.4-0.7,0.4-1c0-0.7-0.5-1.4-1.4-1.4c-0.8,0-1.4,0.5-1.5,1.4h-1.4
		c0-1.6,1.3-2.9,2.8-2.9c1.7,0,2.9,1.3,2.9,2.9c0,0.7-0.2,1.2-0.6,1.8l-3.2,4h3.8v1.4h-5.7V518.8z"/>
	<path class="st10" d="M937.9,517.3l3.3-7.1h1.6l-3.4,7.1h2.6v-2.9h1.4v2.9h0.8v1.3h-0.8v1.5H942v-1.5h-4.2V517.3z"/>
	<path class="st10" d="M945.1,510.1h5.3v1.4h-4v2.3c0.5-0.4,1-0.5,1.6-0.5c0.8,0,1.4,0.3,1.8,0.7c0.5,0.6,0.8,1.1,0.8,2.7
		c0,1.3-0.2,1.8-0.6,2.4c-0.4,0.5-1.2,1.1-2.2,1.1c-1.3,0-2.7-0.7-2.9-2.6h1.4c0.2,0.7,0.6,1.2,1.4,1.2c1.4,0,1.4-1.2,1.4-2.1
		c0-1.1-0.3-1.9-1.4-1.9c-0.5,0-1,0.2-1.3,0.8h-1.3V510.1z"/>
	<path class="st10" d="M952.1,518.7h1.4v1.4l-1.4,1V518.7z"/>
	<path class="st10" d="M958,510.1h1.6l-2.1,4.2h0c0.2-0.1,0.5-0.1,0.8-0.1c1.3,0,2.4,0.8,2.4,2.8c0,2.3-1.5,3.2-2.9,3.2
		c-1.4,0-2.8-1.2-2.8-3c0-0.6,0.1-1.2,0.4-1.7L958,510.1z M956.4,517.1c0,1.1,0.6,1.6,1.4,1.6c0.7,0,1.4-0.4,1.4-1.6
		c0-1.1-0.6-1.6-1.4-1.6S956.4,516,956.4,517.1z"/>
	<path class="st10" d="M961.9,510.1h5.3v1.4h-4v2.3c0.5-0.4,1-0.5,1.6-0.5c0.8,0,1.4,0.3,1.8,0.7c0.5,0.6,0.8,1.1,0.8,2.7
		c0,1.3-0.2,1.8-0.6,2.4c-0.4,0.5-1.2,1.1-2.2,1.1c-1.3,0-2.7-0.7-2.9-2.6h1.4c0.2,0.7,0.6,1.2,1.4,1.2c1.4,0,1.4-1.2,1.4-2.1
		c0-1.1-0.3-1.9-1.4-1.9c-0.5,0-1,0.2-1.3,0.8h-1.3V510.1z"/>
	<path class="st10" d="M970.4,514.3h0.5c1,0,1.5-0.6,1.5-1.4s-0.7-1.4-1.5-1.4c-0.6,0-1.2,0.4-1.4,1.2h-1.4c0.1-1.4,1.3-2.6,2.7-2.6
		c1.8,0,2.9,1.4,2.9,2.8c0,0.8-0.2,1.5-1.1,2.1c0.8,0.5,1.2,1.4,1.2,2.2c0,1.8-1.3,3.1-3,3.1c-1.3,0-2.6-0.9-2.8-2.6h1.4
		c0.3,0.7,0.7,1.1,1.5,1.1c0.8,0,1.5-0.6,1.5-1.6c0-1-0.7-1.6-1.5-1.6h-0.6V514.3z"/>
	<path class="st10" d="M978.9,510.1h1.4v8.1c0,0.3,0.2,0.5,0.5,0.5h0.5v1.3h-0.6c-1,0-1.8-0.4-1.8-1.7V510.1z"/>
	<path class="st10" d="M982.6,510.1h1.4v1.4h-1.4V510.1z M982.6,513h1.4v7.1h-1.4V513z"/>
	<path class="st10" d="M985.9,510.1h1.4v6.2h0l2.7-3.3h1.7l-2.5,2.8l2.8,4.3h-1.8l-1.9-3.3l-1.1,1.3v2h-1.4V510.1z"/>
	<path class="st10" d="M994.1,517.1c0,1.2,0.7,1.8,1.7,1.8c0.5,0,1.1-0.3,1.6-0.7l1,0.9c-0.7,0.8-1.6,1.1-2.6,1.1
		c-1.5,0-3.2-0.7-3.2-3.6c0-2.8,1.6-3.7,2.9-3.7c1.6,0,2.9,1.2,2.9,3v1.2H994.1z M997.1,515.9c0-1.1-0.7-1.7-1.5-1.7
		s-1.5,0.6-1.5,1.7H997.1z"/>
	<path class="st10" d="M1000.2,517.9c0.6,0.6,1.3,0.9,2.2,0.9c0.8,0,1.4-0.3,1.4-0.9c0-0.5-0.4-0.7-0.9-0.7l-1.3-0.1
		c-1.2-0.1-2-0.8-2-2c0-1.4,1.1-2.2,2.6-2.2c1.2,0,2.1,0.4,2.8,1l-0.9,1c-0.6-0.4-1.1-0.7-1.9-0.7c-0.9,0-1.2,0.4-1.2,0.9
		c0,0.3,0.2,0.6,0.9,0.7l1.2,0.1c1.5,0.1,2.1,1,2.1,2.1c0,1.4-1.3,2.2-2.9,2.2c-1.1,0-2.2-0.4-3.1-1.3L1000.2,517.9z"/>
</g>
<circle class="st11" cx="541.7" cy="348.7" r="14.3"/>
<circle class="st11" cx="541.7" cy="396.8" r="14.3"/>
<circle class="st11" cx="541.7" cy="445.5" r="14.3"/>
<g>
	<line class="st12" x1="799.8" y1="151" x2="806.4" y2="157.6"/>
	<g>
		<line class="st12" x1="799.8" y1="157.6" x2="806.4" y2="151"/>
	</g>
</g>
<line class="st13" x1="1585" y1="-466.9" x2="2141.4" y2="635.8"/>
<g>
	<defs>
		<rect id="SVGID_5_" x="1568" y="-24.2" width="326" height="356.2"/>
	</defs>
	<clipPath id="SVGID_6_">
		<use xlink:href="#SVGID_5_"  style="overflow:visible;"/>
	</clipPath>
	<g class="st14">
		<defs>
			<rect id="SVGID_7_" x="1568" y="-24.2" width="326" height="356.2"/>
		</defs>
		<use xlink:href="#SVGID_7_"  style="overflow:visible;fill:#DDDDD3;"/>
		<clipPath id="SVGID_8_">
			<use xlink:href="#SVGID_7_"  style="overflow:visible;"/>
		</clipPath>
		<use xlink:href="#SVGID_7_"  style="overflow:visible;fill:none;stroke:#000000;stroke-miterlimit:10;"/>
	</g>
	<g class="st14">
		<g>
			<g>
				<defs>
					<path id="SVGID_9_" d="M1658.7,270.7"/>
				</defs>
				<defs>
					<path id="SVGID_10_" d="M1823.7,187.4"/>
				</defs>
				<defs>
					<path id="SVGID_11_" d="M1732.7,7.1"/>
				</defs>
				<defs>
					<path id="SVGID_12_" d="M1567.7,90.4"/>
				</defs>
				<clipPath id="SVGID_13_">
					<use xlink:href="#SVGID_9_"  style="overflow:visible;"/>
				</clipPath>
				<clipPath id="SVGID_14_" class="st15">
					<use xlink:href="#SVGID_10_"  style="overflow:visible;"/>
				</clipPath>
				<clipPath id="SVGID_15_" class="st16">
					<use xlink:href="#SVGID_11_"  style="overflow:visible;"/>
				</clipPath>
				<clipPath id="SVGID_16_" class="st17">
					<use xlink:href="#SVGID_12_"  style="overflow:visible;"/>
				</clipPath>
				<path class="st18" d="M1688.8,72.8"/>
			</g>
		</g>
		<path class="st19" d="M1760.7-30.5l15.3,8.1c0.2,0.2,0.6,0.2,0.8,0.4l5.5,1.2c2.4,0.6,3.5,3.3,2,5.3l-2.4,2.9
			c-1.4,1.8-0.8,4.3,1.4,5.1l0,0c2,1,2.6,3.5,1.2,5.3l-0.8,1c-0.4,0.6-1.2,1-1.8,1.2l-2.4,0.6c-1.8,0.4-2.8,2.2-2.6,3.7l1,6.5
			c0.2,0.8,0,1.8-0.6,2.4l-1.2,1.8l-0.2,0.2l-4.9,9c-0.2,0.4-0.4,0.8-0.4,1.2l-0.2,2c-0.2,1.8-1.6,2.9-3.3,2.9l-4.9,0.2"/>
		<polyline class="st19" points="1579.4,98.4 1575.3,103.7 1578.4,125.2 1589.1,138.3 		"/>
		<path class="st20" d="M1603.4,125H1584c-2.8,0-5.1-2.2-5.1-5.1V79.8c0-2.8,2.2-5.1,5.1-5.1h19.5c2.8,0,5.1,2.2,5.1,5.1v40.1
			C1608.3,122.6,1606.2,125,1603.4,125z"/>
		<path class="st19" d="M1585.7,154.1l4.3,8.1c0.2,0.2,0.2,0.6,0.4,0.8l11.8,29.1c1.2,2.8,3.7,4.7,6.7,4.9l0,0
			c2.9,0.2,5.7-1,7.5-3.5l13.4-19.7c2.2-3.1,1.8-7.3-0.8-10l-7.7-8.1c-0.2-0.2-0.2-0.2-0.4-0.4l-6.7-8.1c-1-1.2-1.6-2.6-1.8-4.1
			l-2.2-15.5c-0.2-1.6,0-3.1,0.8-4.7l4.3-8.5c0.8-1.6,1-3.3,0.8-5.1l-1.6-8.1c-0.4-1.6-1-2.9-2.2-4.1l-1.8-1.8
			c-2.8-2.6-6.9-3.1-10-1.2l-9,5.7c-1.2,0.8-2.2,1.8-2.8,3.1l-7.3,14.2c-0.2,0.4-0.4,0.6-0.6,0.8l0,0c-2.6,3.5-3.1,8.3-1.8,12.4
			l2.2,6.5c0,0.2,0.2,0.4,0.2,0.6l3.5,14.2C1585.1,152.7,1585.5,153.5,1585.7,154.1z"/>
		<path class="st20" d="M1715.7,90.4l-27.9,36.4c-3.9,5.1-8.5,9.6-13.4,13.6l-20.6,16.3c-2.8,2.2-6.7,2.4-9.6,0.4l-8.1-5.3
			c-5.1-3.3-11.8-1.8-14.9,3.3l-20,32.4c-2.8,4.5-4.3,9.6-4.3,14.9v18.3c0,1.2,0.2,2.2,0.8,3.3l9.4,21.4c1,2.4,3.3,4.1,5.9,4.7
			l4.1,0.8c24.6,5.1,50.1-2.8,67.6-20.8l21.6-22.2"/>
		<path class="st19" d="M1738.3,499.2l-2.9-59l-35.4-3.1l10.8,37.3"/>
		<polyline class="st19" points="1827.1,469.2 1817.3,433.8 1859.1,431.2 1866,475.8 		"/>
		<path class="st21" d="M1848.9,257.3l9,93.4l0,0l3.9,89.4c0,1-0.6,1.6-1.6,1.8l-41.9,2.8c-4.5,0.2-8.6-2.6-10.2-6.9l-11.4-34.2
			c-0.4-1.2-0.6-2.4-1-3.5l-20.2-106.3c-0.4-1.6-2.4-1.8-3.1-0.4l-32.4,74.1c-0.2,0.2-0.2,0.4-0.2,0.8l3.5,72.1
			c0.2,4.9-3.9,8.8-8.8,8.3l-32.8-3.9c-3.9-0.4-7.1-3.1-8.1-7.1l-19.3-74.1c0-0.2,0-0.4,0-0.6l11-97.3c0-0.8,0.8-1.4,1.6-1.4
			l160.2-8.5C1848.1,255.7,1848.9,256.3,1848.9,257.3z"/>
		<polyline class="st19" points="1726.1,41.4 1734.9,78.8 1747.1,101.8 1779.1,52.2 1767.7,44.2 1753.6,21.2 		"/>
		<path class="st19" d="M1770.3-2.1c0.2,4.7-0.8,8.5-2.4,13.8c-2.4,8.5-6.7,24.4-21.2,34.4c-10.4,7.1-21.6,7.5-27.1,7.7
			c-7.1,0.2-14.7,0.6-22.2-3.7c-12.6-7.1-16.3-22-19.9-37c-3.1-12.6-4.5-18.9-2.8-26.5c4.3-17.9,23.8-33.4,45-34.2
			C1747.9-48.5,1769.5-22.1,1770.3-2.1z"/>
		<path class="st19" d="M1675,34.9"/>
		<path class="st20" d="M1767.7,44.2l-8.1,33c-1.2,4.5-5.1,7.7-9.8,7.7h-1.6c-3.3,0-6.3-1.6-8.3-4.3l-7.5-10.6L1716.4,89
			c-0.6,0.8-1.2,1.8-1.6,2.8l-17.1,41.9c-0.2,0.6-0.4,1.2-0.6,1.8l-4.9,24.2c0,0.2,0,0.4-0.2,0.6l-18.3,68.2
			c-0.2,0.4-0.2,0.8-0.2,1.2l-11.6,78.2c-0.2,0.8-0.2,1.4,0,2.2l4.1,60.1c0.2,3.5,2.4,6.7,5.3,8.3l10.8,5.7c1.2,0.6,2.6,1,3.9,1.2
			l54.4,4.1c0.6,0,1.4,0,2,0l80.6-9.6c0.6,0,1.4-0.2,2-0.4l36.6-12.2c4.1-1.4,6.9-5.3,6.9-9.6l-0.2-26.1l-2.6-58.8
			c0-0.4,0-0.8-0.2-1.4c-1-5.7-8.3-47-11-53.3c-2.6-6.1,7.3-68.8,9.4-83.1c0.4-2,0-3.9-0.8-5.7L1834.6,64c-0.4-1-1.2-2-1.8-2.8
			l-7.5-7.9c-1.4-1.4-2.9-2.4-4.9-2.9l-34-8.6c-1.4-0.4-2.8-0.4-4.1-0.2L1767.7,44.2z"/>
		<polyline class="st19" points="1773,6.2 1763,-3 1769.1,-16.8 		"/>
		<path class="st20" d="M1818.2-64.3c5,10-37.6,41.7-95.3,70.8c-57.7,29.1-108.5,44.6-113.5,34.6c-5-10,37.6-41.7,95.3-70.8
			S1813.1-74.3,1818.2-64.3"/>
		<path class="st20" d="M1667.5,7.4c0,0-8.1-35.2,23-51.9c31.3-16.5,55.4,1.4,62.3,8.3"/>
		<path class="st2" d="M1698,133.6l16.1-3.3c3.7-1,7.7-1.4,11.6-1.4h20.6c8.5,0,16.7-1.6,24.6-4.7l15.9-6.5l2.4,30.5l0,0
			c-12.2,0.6-9.2,2.8-25.6,3.3l-15.9-0.6c-11.8-1.2-35.8,2.4-47.2,5.5l-8.3,3.7L1698,133.6z"/>
		<path class="st19" d="M1743-2.2c0,0,5.5-22,20-19.3c14.3,2.6,18.3,28.1,5.3,31.5"/>
		<line class="st5" x1="1762" y1="-11.8" x2="1762" y2="2.9"/>
		<path class="st20" d="M1698,461.5l-2-3.3c-0.6-1.2-0.6-2.6,0-3.7l0,0c1-1.6,2.9-2,4.5-1.2l0.4,0.2c0.6,0.4,1.2,1,1.6,1.6l6.7,14"
			/>
		<path class="st20" d="M1815.7,463.3l-2.9-4.3c-1.6-2.2-1.6-5.1,0.2-7.3l0,0c1-1.2,2.4-2.2,3.9-2.4l11-1.8c0.4,0,1-0.2,1.4,0
			l12.4,1c0.2,0,0.6,0,0.8,0.2l2.9,0.6c1.8,0.4,3.3,1.6,4.3,3.3l0.2,0.4c0.4,0.6,0.8,1.2,1.2,1.6l3.7,3.7c1.6,1.6,4.1,2.2,6.3,1.6
			l2.2-0.8c1.4-0.4,2.9-0.4,4.3,0.2l0,0c1.8,0.8,3.1,2.2,3.5,3.9"/>
		<path class="st19" d="M1869.6,267.1l7.3,16.5l2.4,4.5c0.8,1.8,0.8,3.7-0.4,5.3l0,0c-1.2,1.6-1.4,3.5-0.4,5.3l2.2,4.3
			c1.2,2.4,0.6,4.9-1.4,6.5l-2.2,1.8c-3.5,2.8-8.6,4.1-13.6,3.3l-1.4-0.2c-1.8-0.2-3.5-1-4.7-2.2l-2.6-2.6
			c-5.5-5.5-8.6-12.4-9.2-19.5l-1.4-16.9l-3.1-17.5l10.2-25l16.3,17.3L1869.6,267.1z"/>
		<path class="st20" d="M1813.9,80.7l15.1,94.2c0,0.4,0,0.6,0.2,1l3.5,72.7c0.2,4.3,3.5,7.9,7.9,8.3l24.8,2.4c1.2,0.2,2.4,0,3.3-0.4
			l31.3-9.4c0.6-0.2,1.2-0.4,1.8-0.8l14.7-8.5c3.9-2.2,5.5-7.1,3.7-11.2l-49.3-109.3c-3.7-8.1-8.1-15.9-13.2-23.2l-23.6-34.2"/>
		<g>
			<path d="M1700.9,138.7l4.7-1.4c2.4-0.6,3.9,0.4,4.5,2.2c0.2,1,0.2,2.2-1,3.1l0,0c1.4,0,2.4,1,2.8,2.2c0.6,2.2-0.6,3.9-2.4,4.3
				l-5.1,1.4L1700.9,138.7z M1703.3,139.9l1,3.5l2.6-0.8c1.4-0.4,1.8-1.4,1.4-2.4c-0.2-1-1.2-1.6-2.4-1.2L1703.3,139.9z M1704.8,145
				l1,3.7l2.8-0.8c1.4-0.4,1.8-1.4,1.4-2.4c-0.2-1-1.2-1.6-2.6-1.2L1704.8,145z"/>
			<path d="M1721.9,143.6l-4.7,1l-0.4,2.9l-2,0.4l2-13.2l1.6-0.4l6.9,11.4l-2,0.4L1721.9,143.6z M1721.2,142.1l-2.9-5.1l0,0
				l-0.8,5.7L1721.2,142.1z"/>
			<path d="M1728.2,133.2h1.8l5.3,9.2l0,0l0.4-8.8h2l-0.4,12.6h-1.8l-5.3-9.2l0,0l-0.4,8.8h-2L1728.2,133.2z"/>
			<path d="M1742.2,133.8h2l-0.4,6.5l0,0l5.5-6.3l2.4,0.2l-4.3,4.7l4.1,7.9l-2.4-0.2l-3.1-6.3l-2.4,2.2l-0.2,3.9h-2L1742.2,133.8z"
				/>
			<path d="M1755,134.4l8.1,0.4v1.8l-6.1-0.4l-0.2,3.5l5.3,0.2v1.8l-5.3-0.2l-0.2,3.7l6.1,0.4v1.8l-8.1-0.4L1755,134.4z"/>
			<path d="M1764.4,136.2l4.7-1.6c1-0.4,2-0.4,2.8,0c0.8,0.4,1.8,1.2,2,2.2c0.6,1.6,0,3.1-1.2,4.1l4.5,4.3l-2.2,0.8l-4.1-4.3
				l-2.4,0.8l1.8,5.1l-1.8,0.6L1764.4,136.2z M1767.9,140.9l2.8-1c1.4-0.4,1.8-1.6,1.4-2.6c-0.2-0.6-0.6-1-1-1.2
				c-0.4-0.2-0.8-0.2-1.4,0l-2.8,1L1767.9,140.9z"/>
		</g>
		<path class="st20" d="M1626.8,145.8"/>
		<line class="st5" x1="1613.4" y1="99.2" x2="1594.4" y2="118.3"/>
		<circle class="st19" cx="1593.2" cy="81.9" r="1.6"/>
		<path class="st19" d="M1660.4,69.7"/>
	</g>
</g>
<rect x="890.5" y="134.6" class="st19" width="326" height="356.2"/>
<g>
	<path class="st10" d="M547,167c1.4-2.6,4.6-5.4,9.3-5.4c4.7,0,7.9,2.8,9.3,5.4c1,1.8,1.3,2.6,1.3,9.8s-0.3,8-1.3,9.8
		c-1.4,2.6-4.6,5.4-9.3,5.4c-4.7,0-7.9-2.8-9.3-5.4c-1-1.8-1.3-2.6-1.3-9.8S546,168.8,547,167z M551.7,185.3
		c0.9,1.2,2.5,2.2,4.6,2.2c2.1,0,3.7-1,4.6-2.2c1.2-1.5,1.5-2.3,1.5-8.5s-0.3-6.9-1.5-8.5c-0.9-1.2-2.5-2.2-4.6-2.2
		c-2.1,0-3.7,1-4.6,2.2c-1.2,1.5-1.5,2.3-1.5,8.5S550.6,183.8,551.7,185.3z"/>
	<path class="st10" d="M572.2,161.9h4.3l13.5,21.2h0.1v-21.2h4.5v29.8h-4.3l-13.5-21.2h-0.1v21.2h-4.5V161.9z"/>
	<path class="st10" d="M600.9,161.9h4.5v25.5h14.5v4.3h-19V161.9z"/>
	<path class="st10" d="M623.9,179.5l-9-17.5h4.8l6.3,13.2l6.3-13.2h4.8l-9,17.5v12.3h-4.3V179.5z"/>
	<path class="st10" d="M654.7,166.5l-4.2,3.1V165l4.2-3.1h4.3v29.8h-4.3V166.5z"/>
	<path class="st10" d="M679.9,161.9h4.5v29.8h-4.5V161.9z"/>
	<path class="st10" d="M690.7,161.9h4.3l13.5,21.2h0.1v-21.2h4.5v29.8h-4.3l-13.5-21.2h-0.1v21.2h-4.5V161.9z"/>
	<path class="st10" d="M727.5,187.7l11.6-14.6c0.9-1.2,1.1-2.1,1.1-3c0-2.1-1.5-4.2-4.1-4.2c-2.3,0-4.1,1.6-4.4,4.3h-4.3
		c0-4.9,3.8-8.6,8.3-8.6c5,0,8.7,3.8,8.7,8.5c0,2-0.5,3.7-1.8,5.2l-9.6,12h11.4v4.3h-17V187.7z"/>
	<path class="st10" d="M747.9,170.3c0-5.5,4.1-8.6,8.5-8.6s8.5,3.1,8.5,8.6v13.1c0,5.5-4.1,8.6-8.5,8.6s-8.5-3.1-8.5-8.6V170.3z
		 M760.5,170.5c0-2.9-1.7-4.6-4.2-4.6c-2.5,0-4.2,1.7-4.2,4.6v12.6c0,2.9,1.7,4.6,4.2,4.6c2.5,0,4.2-1.7,4.2-4.6V170.5z"/>
	<path class="st10" d="M531.5,225.6h10.6v6.1c0,5.9-4.7,10.6-10.6,10.6c-4.7,0-7.9-2.8-9.3-5.4c-1-1.8-1.3-2.6-1.3-9.8
		s0.3-8,1.3-9.8c1.4-2.6,4.6-5.4,9.3-5.4c5.7,0,9.5,4,10.5,8.8h-4.8c-0.7-2.3-2.8-4.3-5.7-4.3c-2.1,0-3.7,1-4.6,2.2
		c-1.2,1.5-1.5,2.3-1.5,8.5s0.3,6.9,1.5,8.5c0.9,1.2,2.5,2.2,4.6,2.2c3.4,0,6.1-2.6,6.1-6.3v-1.5h-6.1V225.6z"/>
	<path class="st10" d="M547.4,212.2h19v4.3h-14.5v8.5h12.4v4h-12.4v8.7h14.5v4.3h-19V212.2z"/>
	<path class="st10" d="M575.7,216.2h-8.2v-4h20.8v4h-8.2V242h-4.5V216.2z"/>
	<path class="st10" d="M606.7,216.2h-8.2v-4h20.8v4h-8.2V242h-4.5V216.2z"/>
	<path class="st10" d="M638.9,229h-11.8v13h-4.5v-29.8h4.5v12.8h11.8v-12.8h4.5V242h-4.5V229z"/>
	<path class="st10" d="M649.7,212.2h4.5V242h-4.5V212.2z"/>
	<path class="st10" d="M660.8,234.7c2.3,1.8,5.3,3,8.5,3c3.7,0,5.9-1.7,5.9-4.1c0-2.1-1.2-3.7-3.9-4c-1.3-0.2-2.4-0.3-3.9-0.5
		c-5.1-0.7-7.9-4.1-7.9-8.4c0-5.1,3.6-8.7,9.7-8.7c3.7,0,6.9,1.3,9.7,3.1l-2.5,3.7c-2.2-1.4-4.7-2.3-7.4-2.3c-2.8,0-5,1.4-5,4.3
		c0,1.7,1.2,3.3,4.2,3.8c0.8,0.1,1.9,0.3,3.3,0.5c5.6,0.7,8.2,4.5,8.2,8.6c0,5.5-4.1,8.7-10.5,8.7c-4.4,0-8.2-1.3-11.4-4.1
		L660.8,234.7z"/>
	<path class="st10" d="M694.5,212.2h11.6c2.5,0,4.5,0.6,6.1,2c1.7,1.4,3,3.7,3,6.4c0,3.9-2.2,7-5.8,8.2l6.9,13.2H711l-6.2-12.7h-5.8
		V242h-4.5V212.2z M699.1,225.2h6.8c3.4,0,5.1-2.2,5.1-4.7c0-1.5-0.6-2.7-1.5-3.4c-0.8-0.6-1.8-0.9-3.3-0.9h-7.1V225.2z"/>
	<path class="st10" d="M720.1,212.2h4.5V242h-4.5V212.2z"/>
	<path class="st10" d="M740.5,225.6h10.6v6.1c0,5.9-4.7,10.6-10.6,10.6c-4.7,0-7.9-2.8-9.3-5.4c-1-1.8-1.3-2.6-1.3-9.8
		s0.3-8,1.3-9.8c1.4-2.6,4.6-5.4,9.3-5.4c5.7,0,9.5,4,10.5,8.8h-4.8c-0.7-2.3-2.8-4.3-5.7-4.3c-2.1,0-3.7,1-4.6,2.2
		c-1.2,1.5-1.5,2.3-1.5,8.5s0.3,6.9,1.5,8.5c0.9,1.2,2.5,2.2,4.6,2.2c3.4,0,6.1-2.6,6.1-6.3v-1.5h-6.1V225.6z"/>
	<path class="st10" d="M772.7,229h-11.8v13h-4.5v-29.8h4.5v12.8h11.8v-12.8h4.5V242h-4.5V229z"/>
	<path class="st10" d="M788.6,216.2h-8.2v-4h20.8v4h-8.2V242h-4.5V216.2z"/>
</g>
<g>
	<path class="st10" d="M528.8,262.8h6.4c1.4,0,2.6,0.2,4,1.2c1.1,0.8,1.9,2.3,1.9,4.2c0,2.5-1.9,5.3-5.6,5.3h-4.1v6.9h-2.7V262.8z
		 M531.5,271.1h4c2,0,3-1.5,3-2.9c0-1.2-0.5-1.9-1.1-2.4c-0.6-0.4-1.1-0.5-1.9-0.5h-3.9V271.1z"/>
	<path class="st10" d="M543.5,262.8h2.5v2.5h-2.5V262.8z M543.5,268h2.5v12.7h-2.5V268z"/>
	<path class="st10" d="M558.7,278.6c-1.1,1.3-2.6,2.2-4.5,2.2c-2.9,0-5.7-1.8-5.7-6.5c0-4.6,2.8-6.5,5.7-6.5c1.9,0,3.4,0.9,4.5,2.2
		l-1.9,1.7c-0.6-0.8-1.5-1.3-2.6-1.3c-2.1,0-3.3,1.2-3.3,3.9c0,2.7,1.2,3.9,3.3,3.9c1,0,1.9-0.5,2.6-1.3L558.7,278.6z"/>
	<path class="st10" d="M560.5,262.8h2.5v11.1h0.1l4.9-5.9h3l-4.4,4.9l5,7.7h-3.2l-3.4-5.9l-2,2.3v3.6h-2.5V262.8z"/>
	<path class="st10" d="M579.7,264.1h2.5v3.8h1.8v1.9h-1.8v7.4c0,0.7,0.3,0.9,0.9,0.9h0.9v2.4h-1.3c-1.8,0-3.1-1.1-3.1-3.1v-7.6h-1.3
		V268h1.3V264.1z"/>
	<path class="st10" d="M586.4,262.8h2.5v6.5h0.1c0.8-1,1.9-1.5,3.3-1.5c2,0,4.2,1.5,4.2,4.4v8.4H594v-7.5c0-1.7-1.1-2.7-2.5-2.7
		c-1.4,0-2.5,1-2.5,2.7v7.5h-2.5V262.8z"/>
	<path class="st10" d="M601.8,275.3c0,2.1,1.3,3.1,3,3.1c1,0,2-0.4,2.8-1.2l1.8,1.6c-1.2,1.4-2.9,2-4.6,2c-2.6,0-5.6-1.2-5.6-6.4
		c0-4.9,2.8-6.5,5.2-6.5c2.8,0,5.2,2.1,5.2,5.3v2.1H601.8z M607.1,273.2c-0.1-1.9-1.2-2.9-2.7-2.9s-2.6,1-2.7,2.9H607.1z"/>
	<path class="st10" d="M618.5,268h2.5v1.3h0c0.8-1,1.9-1.5,3.3-1.5c1.8,0,2.7,0.7,3.6,1.6c1-1.1,2.3-1.6,4-1.6c2,0,4.2,1.5,4.2,4.4
		v8.4h-2.5v-7.5c0-1.7-1.1-2.7-2.5-2.7c-1.4,0-2.5,1-2.5,2.7v7.5h-2.5v-7.5c0-1.7-1.1-2.7-2.5-2.7c-1.4,0-2.5,1-2.5,2.7v7.5h-2.5
		V268z"/>
	<path class="st10" d="M640.4,269.4c0.7-0.8,1.9-1.6,3.8-1.6s3.1,0.8,3.8,1.6c1,1.1,1.4,2.1,1.4,4.8c0,2.7-0.4,3.8-1.4,4.9
		c-0.7,0.8-1.9,1.6-3.8,1.6s-3.1-0.8-3.8-1.6c-1-1.1-1.4-2.1-1.4-4.9C639,271.6,639.4,270.5,640.4,269.4z M646.3,271.3
		c-0.4-0.5-1.2-0.9-2-0.9c-0.9,0-1.7,0.4-2,0.9c-0.5,0.7-0.6,1.2-0.6,3c0,1.8,0.1,2.3,0.6,3c0.4,0.5,1.2,0.9,2,0.9
		c0.9,0,1.7-0.4,2-0.9c0.5-0.7,0.6-1.2,0.6-3C646.9,272.5,646.8,272,646.3,271.3z"/>
	<path class="st10" d="M652.5,276.8c1.1,1.1,2.3,1.6,4,1.6c1.4,0,2.5-0.5,2.5-1.6c0-0.9-0.7-1.2-1.5-1.2l-2.2-0.2
		c-2.1-0.2-3.6-1.4-3.6-3.6c0-2.6,2-3.9,4.7-3.9c2.2,0,3.7,0.7,5,1.7l-1.6,1.8c-1-0.7-2-1.2-3.4-1.2c-1.6,0-2.2,0.6-2.2,1.5
		c0,0.5,0.4,1.1,1.7,1.2l2.1,0.1c2.6,0.2,3.7,1.8,3.7,3.8c0,2.5-2.3,3.9-5.2,3.9c-2,0-3.9-0.7-5.6-2.3L652.5,276.8z"/>
	<path class="st10" d="M664.3,264.1h2.5v3.8h1.8v1.9h-1.8v7.4c0,0.7,0.3,0.9,0.9,0.9h0.9v2.4h-1.3c-1.8,0-3.1-1.1-3.1-3.1v-7.6H663
		V268h1.3V264.1z"/>
	<path class="st10" d="M684.7,279.3c-0.8,0.9-2,1.5-3.3,1.5c-1.5,0-2.7-0.7-3.4-1.6c-0.7-0.9-0.9-1.7-0.9-4.8c0-3.1,0.2-3.9,0.9-4.8
		c0.7-0.9,1.8-1.6,3.4-1.6c1.3,0,2.3,0.6,3.3,1.5v-6.5h2.5v17.8h-2.5V279.3z M679.7,274.3c0,2,0.1,3.9,2.5,3.9
		c2.4,0,2.5-2.1,2.5-3.9c0-1.8-0.1-3.9-2.5-3.9C679.8,270.4,679.7,272.3,679.7,274.3z"/>
	<path class="st10" d="M696.7,279.5L696.7,279.5c-0.6,0.9-1.4,1.3-3.2,1.3c-2.8,0-4.5-1.7-4.5-3.9c0-2,1.4-3.7,4.1-3.7h3.5v-1.3
		c0-1.2-0.8-1.6-2.6-1.6c-1.3,0-1.9,0.2-2.4,1l-2-1.5c1-1.3,2.4-1.8,4.3-1.8c3.1,0,5.3,1,5.3,4.2v8.6h-2.5V279.5z M696.7,275.3h-3
		c-1.5,0-2.2,0.6-2.2,1.5c0,0.9,0.7,1.6,2.4,1.6c2.1,0,2.8-0.2,2.8-2.2V275.3z"/>
	<path class="st10" d="M702.6,268h2.5v1.3h0c0.8-1,1.9-1.5,3.3-1.5c2,0,4.2,1.5,4.2,4.4v8.4h-2.5v-7.5c0-1.7-1.1-2.7-2.5-2.7
		c-1.5,0-2.5,1-2.5,2.7v7.5h-2.5V268z"/>
	<path class="st10" d="M723.1,279.3c-0.8,0.9-2,1.5-3.3,1.5c-1.7,0-2.8-0.8-3.3-1.5c-0.7-1-0.9-1.4-0.9-4.9c0-3.5,0.2-4,0.9-4.9
		c0.6-0.7,1.7-1.5,3.3-1.5c1.3,0,2.3,0.5,3.3,1.5V268h2.5v12.4c0,3.8-2.6,5.6-5.5,5.6c-1.6,0-3.3-0.9-4.4-2.1l2-1.6
		c0.6,0.6,1.5,1.1,2.5,1.1c1.7,0,2.9-1,2.9-2.7V279.3z M718.6,277.3c0.3,0.4,1,1,2,1c1,0,1.6-0.5,2-1c0.4-0.6,0.5-0.9,0.5-2.9
		c0-2,0-2.4-0.5-3c-0.4-0.4-1-1-2-1c-1,0-1.7,0.5-2,1c-0.5,0.6-0.5,0.9-0.5,3C718.1,276.3,718.2,276.7,718.6,277.3z"/>
	<path class="st10" d="M730.9,275.3c0,2.1,1.3,3.1,3,3.1c1,0,2-0.4,2.8-1.2l1.8,1.6c-1.2,1.4-2.9,2-4.6,2c-2.6,0-5.6-1.2-5.6-6.4
		c0-4.9,2.8-6.5,5.2-6.5c2.8,0,5.2,2.1,5.2,5.3v2.1H730.9z M736.3,273.2c-0.1-1.9-1.2-2.9-2.7-2.9c-1.5,0-2.6,1-2.7,2.9H736.3z"/>
	<path class="st10" d="M741.5,268h2.5v1.3h0c0.8-1,1.9-1.5,3.3-1.5c1,0,1.9,0.4,2.6,1l-1.8,2.2c-0.6-0.5-1-0.6-1.7-0.6
		c-1.2,0-2.5,0.8-2.5,2.6v7.6h-2.5V268z"/>
	<path class="st10" d="M751.5,269.4c0.7-0.8,1.9-1.6,3.8-1.6c2,0,3.1,0.8,3.8,1.6c1,1.1,1.4,2.1,1.4,4.8c0,2.7-0.4,3.8-1.4,4.9
		c-0.7,0.8-1.9,1.6-3.8,1.6c-2,0-3.1-0.8-3.8-1.6c-1-1.1-1.4-2.1-1.4-4.9C750.1,271.6,750.5,270.5,751.5,269.4z M757.4,271.3
		c-0.4-0.5-1.2-0.9-2-0.9c-0.9,0-1.7,0.4-2,0.9c-0.5,0.7-0.6,1.2-0.6,3c0,1.8,0.1,2.3,0.6,3c0.4,0.5,1.2,0.9,2,0.9
		c0.9,0,1.7-0.4,2-0.9c0.5-0.7,0.6-1.2,0.6-3C758,272.5,757.9,272,757.4,271.3z"/>
	<path class="st10" d="M763.3,268h2.5v7.5c0,1.7,1.1,2.7,2.5,2.7c1.4,0,2.5-1,2.5-2.7V268h2.5v12.7h-2.5v-1.3h0
		c-0.8,1-1.9,1.5-3.3,1.5c-2,0-4.2-1.5-4.2-4.4V268z"/>
	<path class="st10" d="M777.1,276.8c1.1,1.1,2.3,1.6,4,1.6c1.5,0,2.5-0.5,2.5-1.6c0-0.9-0.7-1.2-1.5-1.2l-2.2-0.2
		c-2.1-0.2-3.6-1.4-3.6-3.6c0-2.6,2-3.9,4.7-3.9c2.2,0,3.7,0.7,5,1.7l-1.6,1.8c-1-0.7-2-1.2-3.4-1.2c-1.6,0-2.2,0.6-2.2,1.5
		c0,0.5,0.4,1.1,1.7,1.2l2.1,0.1c2.6,0.2,3.7,1.8,3.7,3.8c0,2.5-2.3,3.9-5.2,3.9c-2,0-3.9-0.7-5.6-2.3L777.1,276.8z"/>
	<path class="st10" d="M538.5,309.5L538.5,309.5c-0.6,0.9-1.4,1.3-3.2,1.3c-2.8,0-4.5-1.7-4.5-3.9c0-2,1.4-3.7,4.1-3.7h3.5v-1.3
		c0-1.2-0.8-1.6-2.6-1.6c-1.3,0-1.9,0.2-2.4,1l-2-1.5c1-1.3,2.4-1.8,4.3-1.8c3.1,0,5.3,1,5.3,4.2v8.6h-2.5V309.5z M538.5,305.3h-3
		c-1.5,0-2.2,0.6-2.2,1.5c0,0.9,0.7,1.6,2.4,1.6c2.1,0,2.8-0.2,2.8-2.2V305.3z"/>
	<path class="st10" d="M544.4,298h2.5v1.3h0c0.8-1,1.9-1.5,3.3-1.5c2,0,4.2,1.5,4.2,4.4v8.4h-2.5v-7.5c0-1.7-1.1-2.7-2.5-2.7
		c-1.4,0-2.5,1-2.5,2.7v7.5h-2.5V298z"/>
	<path class="st10" d="M557.9,292.8h2.5v2.5h-2.5V292.8z M557.9,298h2.5v12.7h-2.5V298z"/>
	<path class="st10" d="M563.9,298h2.5v1.3h0c0.8-1,1.9-1.5,3.3-1.5c1.8,0,2.7,0.7,3.6,1.6c1-1.1,2.3-1.6,4-1.6c2,0,4.2,1.5,4.2,4.4
		v8.4h-2.5v-7.5c0-1.7-1.1-2.7-2.5-2.7c-1.4,0-2.5,1-2.5,2.7v7.5h-2.5v-7.5c0-1.7-1.1-2.7-2.5-2.7c-1.4,0-2.5,1-2.5,2.7v7.5h-2.5
		V298z"/>
	<path class="st10" d="M591.7,309.5L591.7,309.5c-0.6,0.9-1.4,1.3-3.2,1.3c-2.8,0-4.5-1.7-4.5-3.9c0-2,1.4-3.7,4.1-3.7h3.5v-1.3
		c0-1.2-0.8-1.6-2.6-1.6c-1.3,0-1.9,0.2-2.4,1l-2-1.5c1-1.3,2.4-1.8,4.3-1.8c3.1,0,5.3,1,5.3,4.2v8.6h-2.5V309.5z M591.7,305.3h-3
		c-1.5,0-2.2,0.6-2.2,1.5c0,0.9,0.7,1.6,2.4,1.6c2.1,0,2.8-0.2,2.8-2.2V305.3z"/>
	<path class="st10" d="M597.6,292.8h2.5v14.5c0,0.6,0.3,0.9,1,0.9h0.9v2.4h-1.1c-1.8,0-3.2-0.8-3.2-3.1V292.8z"/>
	<path class="st10" d="M610.2,294.1h2.5v3.8h1.8v1.9h-1.8v7.4c0,0.7,0.3,0.9,0.9,0.9h0.9v2.4h-1.3c-1.8,0-3.1-1.1-3.1-3.1v-7.6h-1.3
		V298h1.3V294.1z"/>
	<path class="st10" d="M617.7,299.4c0.7-0.8,1.9-1.6,3.8-1.6s3.1,0.8,3.8,1.6c1,1.1,1.4,2.1,1.4,4.8c0,2.7-0.4,3.8-1.4,4.9
		c-0.7,0.8-1.9,1.6-3.8,1.6s-3.1-0.8-3.8-1.6c-1-1.1-1.4-2.1-1.4-4.9C616.4,301.6,616.8,300.5,617.7,299.4z M623.6,301.3
		c-0.4-0.5-1.2-0.9-2-0.9c-0.9,0-1.7,0.4-2,0.9c-0.5,0.7-0.6,1.2-0.6,3c0,1.8,0.1,2.3,0.6,3c0.4,0.5,1.2,0.9,2,0.9
		c0.9,0,1.7-0.4,2-0.9c0.5-0.7,0.6-1.2,0.6-3C624.3,302.5,624.1,302,623.6,301.3z"/>
	<path class="st10" d="M642.9,301.8L642.9,301.8l-2.7,8.9h-2.2l-4-12.7h2.7l2.4,8.9h0l2.9-8.9h1.8l2.9,8.9h0.1l2.4-8.9h2.7l-4,12.7
		h-2.2L642.9,301.8z"/>
	<path class="st10" d="M653.6,292.8h2.5v2.5h-2.5V292.8z M653.6,298h2.5v12.7h-2.5V298z"/>
	<path class="st10" d="M659.5,298h2.5v1.3h0c0.8-1,1.9-1.5,3.3-1.5c2,0,4.2,1.5,4.2,4.4v8.4h-2.5v-7.5c0-1.7-1.1-2.7-2.5-2.7
		c-1.4,0-2.5,1-2.5,2.7v7.5h-2.5V298z"/>
	<path class="st10" d="M679,292.8h2.5v6.5c0.9-0.9,2-1.5,3.3-1.5c1.5,0,2.7,0.7,3.4,1.6c0.7,0.9,0.9,1.7,0.9,4.8
		c0,3.1-0.2,3.9-0.9,4.8c-0.7,0.9-1.8,1.6-3.4,1.6c-1.3,0-2.5-0.6-3.3-1.5v1.3H679V292.8z M681.5,304.3c0,1.8,0.1,3.9,2.5,3.9
		c2.4,0,2.5-2,2.5-3.9c0-1.9-0.1-3.9-2.5-3.9C681.6,300.4,681.5,302.5,681.5,304.3z"/>
	<path class="st10" d="M692,292.8h2.5v2.5H692V292.8z M692,298h2.5v12.7H692V298z"/>
	<path class="st10" d="M705.1,309.3c-0.8,0.9-2,1.5-3.3,1.5c-1.7,0-2.8-0.8-3.3-1.5c-0.7-1-1-1.4-1-4.9c0-3.5,0.2-4,1-4.9
		c0.6-0.7,1.7-1.5,3.3-1.5c1.3,0,2.3,0.5,3.3,1.5V298h2.5v12.4c0,3.8-2.6,5.6-5.5,5.6c-1.6,0-3.3-0.9-4.4-2.1l2-1.6
		c0.6,0.6,1.5,1.1,2.5,1.1c1.7,0,2.9-1,2.9-2.7V309.3z M700.5,307.3c0.3,0.4,1,1,2,1c1,0,1.6-0.5,2-1c0.4-0.6,0.5-0.9,0.5-2.9
		c0-2,0-2.4-0.5-3c-0.4-0.4-1-1-2-1c-1,0-1.7,0.5-2,1c-0.5,0.6-0.5,0.9-0.5,3C700,306.3,700.1,306.7,700.5,307.3z"/>
	<path class="st10" d="M717.1,298h2.5v1.3h0c0.8-1,2-1.5,3.3-1.5c1.8,0,2.7,0.7,3.6,1.6c1-1.1,2.3-1.6,4-1.6c2,0,4.2,1.5,4.2,4.4
		v8.4h-2.5v-7.5c0-1.7-1.1-2.7-2.5-2.7c-1.4,0-2.5,1-2.5,2.7v7.5h-2.5v-7.5c0-1.7-1.1-2.7-2.5-2.7c-1.4,0-2.5,1-2.5,2.7v7.5h-2.5
		V298z"/>
	<path class="st10" d="M739,299.4c0.7-0.8,1.9-1.6,3.8-1.6c2,0,3.1,0.8,3.8,1.6c1,1.1,1.4,2.1,1.4,4.8c0,2.7-0.4,3.8-1.4,4.9
		c-0.7,0.8-1.9,1.6-3.8,1.6c-2,0-3.1-0.8-3.8-1.6c-1-1.1-1.4-2.1-1.4-4.9C737.6,301.6,738,300.5,739,299.4z M744.9,301.3
		c-0.4-0.5-1.2-0.9-2-0.9c-0.9,0-1.7,0.4-2,0.9c-0.5,0.7-0.6,1.2-0.6,3c0,1.8,0.1,2.3,0.6,3c0.4,0.5,1.2,0.9,2,0.9
		c0.9,0,1.7-0.4,2-0.9c0.5-0.7,0.6-1.2,0.6-3C745.5,302.5,745.3,302,744.9,301.3z"/>
	<path class="st10" d="M750.7,298h2.5v1.3h0c0.8-1,1.9-1.5,3.3-1.5c2,0,4.2,1.5,4.2,4.4v8.4h-2.5v-7.5c0-1.7-1.1-2.7-2.5-2.7
		c-1.5,0-2.5,1-2.5,2.7v7.5h-2.5V298z"/>
	<path class="st10" d="M766.1,305.3c0,2.1,1.3,3.1,3,3.1c1,0,2-0.4,2.8-1.2l1.8,1.6c-1.2,1.4-2.9,2-4.6,2c-2.6,0-5.6-1.2-5.6-6.4
		c0-4.9,2.8-6.5,5.2-6.5c2.8,0,5.2,2.1,5.2,5.3v2.1H766.1z M771.4,303.2c-0.1-1.9-1.2-2.9-2.7-2.9c-1.5,0-2.6,1-2.7,2.9H771.4z"/>
	<path class="st10" d="M774.8,298h2.7l3,8.9h0l3-8.9h2.7l-5.4,15.3c-0.7,1.9-2,2.5-3.6,2.5h-0.8v-2.4h0.8c0.6,0,1.3-0.3,1.5-1.1
		l0.7-2.1L774.8,298z"/>
	<path class="st10" d="M785.5,308.1h2.5v2.5h-2.5V308.1z"/>
</g>
<g>
	<path class="st10" d="M572.3,401.7c0.5,0.7,1.4,1.3,2.5,1.3c1.4,0,3.2-0.9,3.2-3.4v-12.6h2.8v12.9c0,3.7-3,6-6,6
		c-2.2,0-3.8-1-4.9-2.4L572.3,401.7z"/>
	<path class="st10" d="M586.4,400c0,2.2,1.3,3.3,3.2,3.3c1,0,2.1-0.5,2.9-1.3l1.9,1.7c-1.3,1.5-3,2.2-4.8,2.2
		c-2.7,0-5.9-1.3-5.9-6.8c0-5.2,2.9-6.9,5.5-6.9c2.9,0,5.5,2.2,5.5,5.6v2.2H586.4z M592,397.8c-0.1-2-1.2-3.1-2.8-3.1
		c-1.6,0-2.8,1.1-2.8,3.1H592z"/>
	<path class="st10" d="M598,394.3h-1.3v-2.1h1.3v-1.8c0-2.5,1.6-3.6,3.6-3.6h1.7v2.5h-1.5c-0.9,0-1.2,0.3-1.2,1.1v1.8h2.7v2.1h-2.7
		v11.3H598V394.3z"/>
	<path class="st10" d="M604.8,394.3h-1.3v-2.1h1.3v-1.8c0-2.5,1.6-3.6,3.6-3.6h1.7v2.5h-1.5c-0.9,0-1.2,0.3-1.2,1.1v1.8h2.7v2.1
		h-2.7v11.3h-2.7V394.3z"/>
	<path class="st10" d="M618.2,386.9h7.3c3.7,0,5.6,2.1,5.6,5c0,1.6-0.6,3.1-2.8,4v0.1c2.1,0.5,3.1,2.4,3.1,4.3
		c0,3.2-2.4,5.3-5.2,5.3h-7.9V386.9z M621.1,389.4v5.4h4.1c2.1,0,3-1.2,3-2.7c0-1.4-1-2.7-3-2.7H621.1z M621.1,397.3v5.6h4.4
		c2.1,0,3.1-1.3,3.1-2.8s-0.9-2.8-3.1-2.8H621.1z"/>
	<path class="st10" d="M636.1,400c0,2.2,1.3,3.3,3.2,3.3c1,0,2.1-0.5,2.9-1.3l1.9,1.7c-1.3,1.5-3,2.2-4.8,2.2
		c-2.7,0-5.9-1.3-5.9-6.8c0-5.2,2.9-6.9,5.5-6.9c2.9,0,5.5,2.2,5.5,5.6v2.2H636.1z M641.7,397.8c-0.1-2-1.2-3.1-2.8-3.1
		c-1.6,0-2.8,1.1-2.8,3.1H641.7z"/>
	<path class="st10" d="M646.3,403.5l6.7-8.8h-6.3v-2.4h9.6v2.1l-6.7,8.7h6.7v2.5h-9.9V403.5z"/>
	<path class="st10" d="M659.7,393.8c0.7-0.8,2-1.7,4.1-1.7s3.3,0.9,4.1,1.7c1,1.1,1.4,2.2,1.4,5.1c0,2.9-0.4,4-1.4,5.1
		c-0.7,0.8-2,1.7-4.1,1.7s-3.3-0.9-4.1-1.7c-1-1.1-1.4-2.2-1.4-5.1C658.2,396.1,658.7,395,659.7,393.8z M665.9,395.8
		c-0.4-0.6-1.2-1-2.2-1c-0.9,0-1.8,0.4-2.2,1c-0.5,0.7-0.7,1.2-0.7,3.2c0,1.9,0.2,2.5,0.7,3.2c0.4,0.6,1.2,1,2.2,1
		c0.9,0,1.8-0.4,2.2-1c0.5-0.7,0.7-1.2,0.7-3.2C666.5,397,666.4,396.5,665.9,395.8z"/>
	<path class="st10" d="M672.4,401.6c1.2,1.1,2.4,1.7,4.2,1.7c1.5,0,2.6-0.6,2.6-1.7c0-0.9-0.7-1.2-1.6-1.3l-2.4-0.2
		c-2.2-0.2-3.8-1.5-3.8-3.8c0-2.7,2.2-4.1,5-4.1c2.3,0,3.9,0.7,5.2,1.8l-1.7,1.9c-1.1-0.7-2.1-1.2-3.6-1.2c-1.7,0-2.3,0.7-2.3,1.6
		c0,0.6,0.4,1.2,1.8,1.3l2.2,0.2c2.8,0.2,3.9,1.9,3.9,4c0,2.6-2.4,4.1-5.5,4.1c-2.2,0-4.2-0.8-5.9-2.4L672.4,401.6z"/>
</g>
<g>
	<path class="st10" d="M572,339.9h2.7l5.4,12.2l5.3-12.2h2.7v18.7h-2.8V347h-0.1l-3.9,9h-2.4l-3.9-9h-0.1v11.7H572V339.9z"/>
	<path class="st10" d="M598.7,357.4L598.7,357.4c-0.6,0.9-1.5,1.3-3.3,1.3c-3,0-4.7-1.8-4.7-4.1c0-2.1,1.5-3.9,4.3-3.9h3.7v-1.4
		c0-1.3-0.8-1.7-2.7-1.7c-1.4,0-2.1,0.3-2.5,1l-2.1-1.6c1-1.4,2.5-1.9,4.5-1.9c3.3,0,5.6,1.1,5.6,4.4v9.1h-2.7V357.4z M598.7,353
		h-3.2c-1.6,0-2.3,0.6-2.3,1.6c0,0.9,0.7,1.7,2.5,1.7c2.2,0,3-0.2,3-2.3V353z"/>
	<path class="st10" d="M604.8,345.3h2.7v1.4h0.1c0.8-1.1,2.1-1.6,3.5-1.6c1.1,0,2,0.4,2.8,1l-1.9,2.3c-0.6-0.5-1.1-0.7-1.8-0.7
		c-1.3,0-2.6,0.8-2.6,2.8v8h-2.7V345.3z"/>
	<path class="st10" d="M615.1,339.9h2.7v11.7h0.1l5.1-6.3h3.2l-4.6,5.2l5.2,8.1h-3.4l-3.6-6.2l-2.1,2.4v3.8h-2.7V339.9z"/>
	<path class="st10" d="M634.1,356.3l8.5-13.8h-8.2v-2.5h11.6v2.1l-8.5,13.9h8.5v2.7h-12V356.3z"/>
	<path class="st10" d="M648.7,345.3h2.7v7.9c0,1.8,1.1,2.9,2.7,2.9c1.5,0,2.6-1.1,2.6-2.9v-7.9h2.7v13.3h-2.7v-1.4h-0.1
		c-0.8,1.1-2.1,1.6-3.4,1.6c-2.1,0-4.5-1.6-4.5-4.6V345.3z"/>
	<path class="st10" d="M672.6,356.5c-1.2,1.3-2.8,2.3-4.8,2.3c-3.1,0-6.1-1.9-6.1-6.8c0-4.9,3-6.8,6.1-6.8c2,0,3.6,1,4.8,2.3l-2,1.8
		c-0.7-0.8-1.6-1.4-2.7-1.4c-2.2,0-3.5,1.2-3.5,4.2c0,2.9,1.3,4.1,3.5,4.1c1.1,0,2.1-0.6,2.7-1.4L672.6,356.5z"/>
	<path class="st10" d="M674.5,339.9h2.7v11.7h0.1l5.1-6.3h3.2l-4.6,5.2l5.2,8.1h-3.4l-3.6-6.2l-2.1,2.4v3.8h-2.7V339.9z"/>
	<path class="st10" d="M689.8,353c0,2.2,1.3,3.3,3.2,3.3c1,0,2.1-0.5,2.9-1.3l1.9,1.7c-1.3,1.5-3,2.2-4.8,2.2
		c-2.7,0-5.9-1.3-5.9-6.8c0-5.2,2.9-6.9,5.5-6.9c2.9,0,5.5,2.2,5.5,5.6v2.2H689.8z M695.5,350.8c-0.1-2-1.2-3.1-2.8-3.1
		c-1.6,0-2.8,1.1-2.8,3.1H695.5z"/>
	<path class="st10" d="M701,345.3h2.7v1.4h0.1c0.8-1.1,2.1-1.6,3.5-1.6c1.1,0,2,0.4,2.8,1l-1.9,2.3c-0.6-0.5-1.1-0.7-1.8-0.7
		c-1.3,0-2.6,0.8-2.6,2.8v8H701V345.3z"/>
	<path class="st10" d="M711.2,339.9h2.7v6.8c1-0.9,2.1-1.6,3.4-1.6c1.6,0,2.8,0.7,3.6,1.7c0.7,0.9,0.9,1.8,0.9,5.1
		c0,3.3-0.2,4.2-0.9,5.1c-0.8,1-1.9,1.7-3.6,1.7c-1.4,0-2.6-0.6-3.4-1.6v1.4h-2.7V339.9z M713.9,352c0,1.9,0.1,4.2,2.6,4.2
		c2.5,0,2.7-2.1,2.7-4.2c0-2.1-0.1-4.1-2.7-4.1C714,347.8,713.9,350,713.9,352z"/>
	<path class="st10" d="M726.9,353c0,2.2,1.3,3.3,3.2,3.3c1,0,2.1-0.5,2.9-1.3l1.9,1.7c-1.3,1.5-3,2.2-4.8,2.2
		c-2.7,0-5.9-1.3-5.9-6.8c0-5.2,2.9-6.9,5.5-6.9c2.9,0,5.5,2.2,5.5,5.6v2.2H726.9z M732.5,350.8c-0.1-2-1.2-3.1-2.8-3.1
		c-1.6,0-2.8,1.1-2.8,3.1H732.5z"/>
	<path class="st10" d="M738,345.3h2.7v1.4h0.1c0.8-1.1,2.1-1.6,3.5-1.6c1.1,0,2,0.4,2.8,1l-1.9,2.3c-0.6-0.5-1.1-0.7-1.8-0.7
		c-1.3,0-2.6,0.8-2.6,2.8v8H738V345.3z"/>
	<path class="st10" d="M755.7,357.2c-0.8,0.9-2.1,1.6-3.4,1.6c-1.7,0-2.9-0.9-3.5-1.6c-0.8-1-1-1.5-1-5.2c0-3.7,0.2-4.2,1-5.2
		c0.6-0.8,1.8-1.6,3.5-1.6c1.4,0,2.4,0.5,3.4,1.6v-1.4h2.7v13c0,4-2.7,5.9-5.8,5.9c-1.7,0-3.4-0.9-4.6-2.2l2.1-1.7
		c0.7,0.7,1.6,1.2,2.6,1.2c1.8,0,3.1-1,3.1-2.9V357.2z M751,355.1c0.4,0.5,1.1,1,2.1,1c1.1,0,1.7-0.6,2.1-1c0.5-0.6,0.5-1,0.5-3.1
		c0-2.2-0.1-2.5-0.5-3.1c-0.4-0.5-1.1-1-2.1-1c-1.1,0-1.8,0.6-2.1,1c-0.5,0.6-0.5,1-0.5,3.1C750.5,354.1,750.5,354.5,751,355.1z"/>
</g>
<g>
	<path class="st10" d="M572,436.9h12v2.7h-9.1v5.3h7.8v2.5h-7.8v5.5h9.1v2.7h-12V436.9z"/>
	<path class="st10" d="M586.4,436.9h2.7v15.3c0,0.6,0.3,0.9,1,0.9h0.9v2.5h-1.2c-1.9,0-3.4-0.8-3.4-3.2V436.9z"/>
	<path class="st10" d="M593.9,443.8c0.7-0.8,2-1.7,4.1-1.7s3.3,0.9,4.1,1.7c1,1.1,1.4,2.2,1.4,5.1c0,2.9-0.4,4-1.4,5.1
		c-0.7,0.8-2,1.7-4.1,1.7s-3.3-0.9-4.1-1.7c-1-1.1-1.4-2.2-1.4-5.1C592.5,446.1,592.9,445,593.9,443.8z M600.1,445.8
		c-0.4-0.6-1.2-1-2.2-1c-0.9,0-1.8,0.4-2.2,1c-0.5,0.7-0.7,1.2-0.7,3.2c0,1.9,0.2,2.5,0.7,3.2c0.4,0.6,1.2,1,2.2,1
		c0.9,0,1.8-0.4,2.2-1c0.5-0.7,0.7-1.2,0.7-3.2C600.8,447,600.6,446.5,600.1,445.8z"/>
	<path class="st10" d="M606.3,442.3h2.7v1.4h0.1c0.8-1.1,2.1-1.6,3.5-1.6c2.1,0,4.4,1.6,4.4,4.6v8.9h-2.7v-7.9
		c0-1.8-1.1-2.9-2.6-2.9c-1.5,0-2.7,1.1-2.7,2.9v7.9h-2.7V442.3z"/>
	<path class="st10" d="M627,436.9h2.7l5.4,12.2l5.3-12.2h2.7v18.7h-2.8V444h-0.1l-3.9,9h-2.4l-3.9-9h-0.1v11.7H627V436.9z"/>
	<path class="st10" d="M646.7,442.3h2.7v7.9c0,1.8,1.1,2.9,2.7,2.9c1.5,0,2.6-1.1,2.6-2.9v-7.9h2.7v13.3h-2.7v-1.4h-0.1
		c-0.8,1.1-2.1,1.6-3.4,1.6c-2.1,0-4.5-1.6-4.5-4.6V442.3z"/>
	<path class="st10" d="M661.2,451.6c1.2,1.1,2.4,1.7,4.2,1.7c1.5,0,2.6-0.6,2.6-1.7c0-0.9-0.7-1.2-1.6-1.3L664,450
		c-2.2-0.2-3.8-1.5-3.8-3.8c0-2.7,2.2-4.1,5-4.1c2.3,0,3.9,0.7,5.2,1.8l-1.7,1.9c-1.1-0.7-2.1-1.2-3.6-1.2c-1.7,0-2.3,0.7-2.3,1.6
		c0,0.6,0.4,1.2,1.8,1.3l2.2,0.2c2.8,0.2,3.9,1.9,3.9,4c0,2.6-2.4,4.1-5.5,4.1c-2.2,0-4.2-0.8-5.9-2.4L661.2,451.6z"/>
	<path class="st10" d="M673.4,436.9h2.7v11.7h0.1l5.1-6.3h3.2l-4.6,5.2l5.2,8.1h-3.4l-3.6-6.2l-2.1,2.4v3.8h-2.7V436.9z"/>
</g>
<g>
	<path class="st22" d="M221.8,224.4C221.1,224.8,221.8,224.4,221.8,224.4c2.5,14.8,14.4,16.9,27.9,14c1.9-0.4,7.1-2.2,10.3-0.6
		c2.1,1.1,5.3,1.4,7.6,2.2c-6.6-3.6-13.8-6.5-17.8-13.2c-1.1,0.2-3.2,0.3-4.1,0.2c-0.9-0.2-0.9-0.2-1.4-0.4
		c-0.5-0.2-0.8-0.4-1.2-0.6c-0.4-0.3-0.7-0.5-1-0.8c-0.3-0.3-0.6-0.6-0.9-1c-0.5-0.8-0.8-1.6-1-2.5c-0.1-0.9,0-1.8,0.2-2.8
		c0.1-0.4,0.3-0.9,0.6-1.3c0.2-0.4,0.5-0.8,0.8-1.1c0.3-0.4,0.6-0.7,1-1c0.4-0.3,0.7-0.6,1.2-0.8c1.1-0.5,1.6-0.8,3.1-1
		c0.3,0-0.6,0,1.1-0.1c1.7-0.2,8-0.7,10.7-0.7c1,0,2.3,0.3,3.3,0.6c0.5,0.2,1,0.4,1.5,0.7s0.9,0.6,1.3,0.9c0.4,0.3,0.8,0.7,1.1,1
		s0.7,0.8,0.8,1c0.1,0.2,0.1,0.1,0.1,0.2c0.5,0.8,0.8,1.7,1,2.6c0.1,0.5,0,1.1,0.1,1.6c0.1,0.5,0.5,0.7,0.8,1.1
		c0.3,0.4,0.7,0.7,1.1,1c0.4,0.3,0.9,0.6,1.4,0.9c0.5,0.2,1,0.5,1.5,0.6c1.2,0.3,1.9,0.5,3.3,0.5c3.5,0,7.3-0.2,10.9-0.2
		c0.2-2,0.9-3.4,0.4-5.5c0.1,0.1,0,0,0,0c-0.6-2.8-0.3-4.5-2.2-7.5c-3.8-6-10.1-8-16.9-12.1c-2.7-1.6-9.7-3.6-13.6-3.7
		c-2.8-0.1-8.6,1.4-10.7,1.9C230.2,201.8,219.3,209.6,221.8,224.4z"/>
	<path class="st22" d="M268.7,200.5c6,3.8,12.8,5.7,16.7,12c1.2-0.1,3.4,0,4.4,0.2c0.9,0.3,0.9,0.3,1.5,0.6c0.6,0.2,0.8,0.5,1.2,0.8
		c0.4,0.3,0.7,0.6,1,0.9c0.3,0.3,0.6,0.7,0.8,1.1c0.4,0.8,0.6,1.6,0.7,2.5c0,0.9-0.2,1.7-0.5,2.6c-0.2,0.4-0.4,0.8-0.6,1.1
		c-0.3,0.4-0.5,0.7-0.9,1c-0.3,0.3-0.7,0.6-1.1,0.8c-0.4,0.2-0.8,0.5-1.3,0.6c-1.1,0.4-1.6,0.6-3,0.6c-0.2,0,0.6,0-1,0
		c-1.6,0-7.8,0.2-10.5,0.3c-1,0-2.3-0.2-3.3-0.5c-0.5-0.2-1-0.4-1.5-0.6c-0.5-0.2-1-0.6-1.4-0.9c-0.4-0.3-0.8-0.7-1.1-1
		c-0.3-0.3-0.7-0.8-0.8-1c-0.1-0.2-0.1-0.1-0.1-0.2c-0.5-0.8-0.8-1.7-1.1-2.6c-0.1-0.5,0.1-1.1,0-1.6c-0.1-0.5-0.5-0.7-0.8-1.1
		c-0.3-0.4-0.7-0.7-1.1-1c-0.4-0.3-0.8-0.6-1.3-0.9c-0.5-0.3-0.9-0.5-1.5-0.7c-1.2-0.4-1.9-0.6-3.3-0.6c-3.6,0-7.5,0.4-11.1,0.7
		c-0.2,2.1-0.7,3.7-0.2,5.9c-0.1,0,0,0,0,0c0.7,2.8,0.6,4.6,2.6,7.5c3.9,5.9,10.6,10,18,12.8c2.9,1.1,9.8,0,13.3,0.1
		c2.5,0.1,6.9,0.1,8.8-0.1c12.8-1.7,23.9-7.4,23.3-21.8c0.7,0.1,0,0,0,0c-0.6-14.4-14.7-18.2-27.7-17.5c-1.9,0.1-7.4,2.1-10.1,2
		C273.6,202.6,270.6,200.8,268.7,200.5z"/>
	<path class="st10" d="M266.7,219.3c0-0.3,0.2-0.5,0.5-0.5c0.3,0,0.6,0.2,0.6,0.5c0,0.3-0.2,0.5-0.5,0.5
		C267.1,219.8,266.8,219.6,266.7,219.3z"/>
</g>
<g>
	<path class="st23" d="M-308.1,229.9L-308.1,229.9c-30.6,0-59.6,24.9-59.6,76.2v29.1c0,4.8,0.3,9.4,0.8,13.7
		c6.9-21.5,21.6-34.9,37.7-41.4c0.1-7.9,0.7-9.8,1.6-12c0.5-1.3,1.2-2.5,1.9-3.7c0.8-1.1,1.6-2.2,2.6-3.2s2-1.9,3.1-2.6
		c1.1-0.8,2.3-1.4,3.6-2c2.6-1.1,5.3-1.7,8.2-1.7c2.8,0,5.6,0.6,8.2,1.7c1.2,0.5,2.4,1.2,3.6,2c1.1,0.8,2.2,1.7,3.1,2.6
		c1,1,1.8,2,2.6,3.2c0.8,1.2,1.4,2.4,1.9,3.7c1.1,2.7,1.7,5.5,1.7,8.4v2v30.3c0,2.9-0.6,5.7-1.7,8.4c-0.5,1.3-1.2,2.5-1.9,3.7
		c-0.8,1.1-1.6,2.2-2.6,3.2s-2,1.9-3.1,2.6c-1,0.7-2.1,1.3-3.2,1.8c-0.1,0.1-0.2,0.1-0.4,0.2c-2.6,1.1-5.3,1.7-8.2,1.7
		c-1.7,0-3.5-0.2-5.1-0.6c-1.1,0.5-2.2,1.1-3.2,1.8c-1.1,0.8-2.2,1.7-3.1,2.6c-1,1-1.8,2-2.6,3.2s-1.4,2.4-1.9,3.7
		c-1.1,2.7-1.7,5.5-1.7,8.4v30.3c5.7,2.1,11.6,3.1,17.6,3.1l0,0c8,0,16.4-1.5,24.4-4.7c16.2-6.5,30.8-19.9,37.7-41.4
		c2.7-8.4,4.3-18.1,4.3-29.1v-31.4C-241.7,250.8-277.5,229.9-308.1,229.9z"/>
	<path class="st23" d="M-246,364.2c-6.9,21.5-21.6,34.9-37.7,41.4c-0.1,7.9-0.7,9.8-1.6,12c-0.5,1.3-1.2,2.5-1.9,3.7
		c-0.8,1.1-1.6,2.2-2.6,3.2s-2,1.9-3.1,2.6c-1.1,0.8-2.3,1.4-3.6,2c-2.6,1.1-5.3,1.7-8.2,1.7c-2.8,0-5.6-0.6-8.2-1.7
		c-1.2-0.5-2.4-1.2-3.6-2c-1.1-0.8-2.2-1.7-3.1-2.6c-1-1-1.8-2-2.6-3.2s-1.4-2.4-1.9-3.7c-1.1-2.7-1.7-5.5-1.7-8.4v-2v-30.3
		c0-2.9,0.6-5.7,1.7-8.4c0.5-1.3,1.2-2.5,1.9-3.7c0.8-1.1,1.6-2.2,2.6-3.2s2-1.9,3.1-2.6c1-0.7,2.1-1.3,3.2-1.8
		c0.1-0.1,0.2-0.1,0.4-0.2c2.6-1.1,5.3-1.7,8.2-1.7c1.7,0,3.5,0.2,5.1,0.6c1.1-0.5,2.2-1.1,3.2-1.8c1.1-0.8,2.2-1.7,3.1-2.6
		c1-1,1.8-2,2.6-3.2c0.8-1.2,1.4-2.4,1.9-3.7c1.1-2.7,1.7-5.5,1.7-8.4v-30.3c-5.7-2.1-11.6-3.1-17.6-3.1l0,0c-8,0-16.4,1.5-24.4,4.7
		c-16.2,6.5-30.8,19.9-37.7,41.4c-2.7,8.4-4.3,18.1-4.3,29.1v31.4c0,52.9,35.8,73.9,66.4,73.9l0,0c30.6,0,59.6-24.9,59.6-76.2V378
		C-245.1,373.1-245.4,368.5-246,364.2z"/>
	<circle class="st10" cx="-306.2" cy="356.5" r="1.5"/>
</g>
<rect x="450.9" y="-374" class="st24" width="274.9" height="239"/>
<g>
	<path class="st10" d="M1001.6,198.9c-1.4,6.9-6.6,10.6-12.9,10.6c-5.8,0-9.7-3.4-11.5-6.6c-1.2-2.2-1.6-3.2-1.6-12.1
		s0.4-9.9,1.6-12.1c1.8-3.2,5.7-6.6,11.5-6.6c7,0,11.7,4.9,12.9,10.9h-5.9c-0.9-2.8-3.5-5.3-7-5.3c-2.6,0-4.5,1.2-5.7,2.7
		c-1.4,1.9-1.9,2.9-1.9,10.4s0.4,8.6,1.9,10.4c1.1,1.4,3,2.7,5.7,2.7c3.1,0,5.5-1.7,7-5H1001.6z"/>
	<path class="st10" d="M1005.5,172.5h5.6v31.4h17.9v5.3h-23.4V172.5z"/>
	<path class="st10" d="M1053,201H1039l-2.8,8.2h-5.9l13.3-36.7h4.6l13.3,36.7h-5.9L1053,201z M1051.4,196l-5.3-16h-0.1l-5.3,16
		H1051.4z"/>
	<path class="st10" d="M1066,200.3c2.8,2.2,6.5,3.7,10.4,3.7c4.5,0,7.3-2.1,7.3-5.1c0-2.6-1.5-4.5-4.8-4.9c-1.6-0.2-2.9-0.4-4.8-0.7
		c-6.3-0.9-9.7-5-9.7-10.3c0-6.3,4.4-10.7,12-10.7c4.5,0,8.6,1.6,11.9,3.8l-3.1,4.6c-2.7-1.7-5.8-2.8-9.1-2.8
		c-3.4,0-6.1,1.8-6.1,5.3c0,2.1,1.5,4.1,5.2,4.7c1,0.2,2.4,0.4,4.1,0.6c6.9,0.8,10,5.6,10,10.6c0,6.7-5,10.7-12.9,10.7
		c-5.4,0-10.1-1.6-14-5L1066,200.3z"/>
	<path class="st10" d="M1095.6,200.3c2.8,2.2,6.5,3.7,10.4,3.7c4.5,0,7.3-2.1,7.3-5.1c0-2.6-1.5-4.5-4.8-4.9
		c-1.6-0.2-2.9-0.4-4.8-0.7c-6.3-0.9-9.7-5-9.7-10.3c0-6.3,4.4-10.7,12-10.7c4.5,0,8.6,1.6,11.9,3.8l-3.1,4.6
		c-2.7-1.7-5.8-2.8-9.1-2.8c-3.4,0-6.1,1.8-6.1,5.3c0,2.1,1.5,4.1,5.2,4.7c1,0.2,2.4,0.4,4.1,0.6c6.9,0.8,10,5.6,10,10.6
		c0,6.7-5,10.7-12.9,10.7c-5.4,0-10.1-1.6-14-5L1095.6,200.3z"/>
</g>
<g>
	<path class="st10" d="M943.6,228.3h5.9l5.8,26.1h0.1l7.1-26.1h4l7.1,26.1h0.1l5.8-26.1h5.9l-9.2,36.7h-4.6l-7-26.4h-0.1l-7,26.4
		h-4.6L943.6,228.3z"/>
	<path class="st10" d="M1006.7,256.8h-13.9l-2.8,8.2h-5.9l13.3-36.7h4.6l13.3,36.7h-5.9L1006.7,256.8z M1005.1,251.9l-5.3-16h-0.1
		l-5.3,16H1005.1z"/>
	<path class="st10" d="M1019.3,228.3h14.3c3.1,0,5.5,0.7,7.5,2.4c2.1,1.8,3.7,4.5,3.7,7.8c0,4.7-2.7,8.6-7.1,10.1l8.5,16.3h-6.6
		l-7.6-15.7h-7.1V265h-5.6V228.3z M1024.9,244.4h8.4c4.2,0,6.2-2.7,6.2-5.8c0-1.9-0.7-3.3-1.9-4.2c-1-0.8-2.2-1.1-4.1-1.1h-8.7
		V244.4z"/>
	<path class="st10" d="M1050.7,228.3h23.4v5.3h-17.9v10.8h15.2v4.9h-15.2V265h-5.6V228.3z"/>
	<path class="st10" d="M1094.3,256.8h-13.9l-2.8,8.2h-5.9l13.3-36.7h4.6l13.3,36.7h-5.9L1094.3,256.8z M1092.7,251.9l-5.3-16h-0.1
		l-5.3,16H1092.7z"/>
	<path class="st10" d="M1107,228.3h14.3c3.1,0,5.5,0.7,7.5,2.4c2.1,1.8,3.7,4.5,3.7,7.8c0,4.7-2.7,8.6-7.1,10.1l8.5,16.3h-6.6
		l-7.6-15.7h-7.1V265h-5.6V228.3z M1112.5,244.4h8.4c4.2,0,6.2-2.7,6.2-5.8c0-1.9-0.7-3.3-1.9-4.2c-1-0.8-2.2-1.1-4.1-1.1h-8.7
		V244.4z"/>
	<path class="st10" d="M1138.4,228.3h23.4v5.3H1144V244h15.2v4.9H1144v10.8h17.9v5.3h-23.4V228.3z"/>
</g>
<g>
	<path class="st10" d="M997,365.1h5.6v36.7H997V365.1z"/>
	<path class="st10" d="M1010.7,392.9c2.8,2.2,6.5,3.7,10.4,3.7c4.5,0,7.3-2.1,7.3-5.1c0-2.6-1.5-4.5-4.8-4.9
		c-1.6-0.2-2.9-0.4-4.8-0.7c-6.3-0.9-9.7-5-9.7-10.3c0-6.3,4.4-10.7,12-10.7c4.5,0,8.6,1.6,11.9,3.8l-3.1,4.6
		c-2.7-1.7-5.8-2.8-9.1-2.8c-3.4,0-6.1,1.8-6.1,5.3c0,2.1,1.5,4.1,5.2,4.7c1,0.2,2.4,0.4,4.1,0.6c6.9,0.8,10,5.6,10,10.6
		c0,6.7-5,10.7-12.9,10.7c-5.4,0-10.1-1.6-14-5L1010.7,392.9z"/>
	<path class="st10" d="M1052.2,365.1h5.3l10.5,23.9l10.3-23.9h5.3v36.7h-5.6v-22.9h-0.1l-7.7,17.6h-4.6l-7.7-17.6h-0.1v22.9h-5.6
		V365.1z"/>
	<path class="st10" d="M1097.6,386.7l-11-21.6h5.9l7.8,16.3l7.8-16.3h5.9l-11,21.6v15.1h-5.3V386.7z"/>
</g>
<g>
	<path class="st10" d="M977.8,420.9h23.4v5.3h-17.9V437h15.2v4.9h-15.2v15.7h-5.6V420.9z"/>
	<path class="st10" d="M1005.5,420.9h23.4v5.3H1011v10.5h15.2v4.9H1011v10.8h17.9v5.3h-23.4V420.9z"/>
	<path class="st10" d="M1040.4,425.9h-10v-4.9h25.7v4.9h-10v31.7h-5.6V425.9z"/>
	<path class="st10" d="M1059.9,420.9h5.6v36.7h-5.6V420.9z"/>
	<path class="st10" d="M1073.6,448.7c2.8,2.2,6.5,3.7,10.4,3.7c4.5,0,7.3-2.1,7.3-5.1c0-2.6-1.5-4.5-4.8-4.9
		c-1.6-0.2-2.9-0.4-4.8-0.7c-6.3-0.9-9.7-5-9.7-10.3c0-6.3,4.4-10.7,12-10.7c4.5,0,8.6,1.6,11.9,3.8l-3.1,4.6
		c-2.7-1.7-5.8-2.8-9.1-2.8c-3.4,0-6.1,1.8-6.1,5.3c0,2.1,1.5,4.1,5.2,4.7c1,0.2,2.4,0.4,4.1,0.6c6.9,0.8,10,5.6,10,10.6
		c0,6.7-5,10.7-12.9,10.7c-5.4,0-10.1-1.6-14-5L1073.6,448.7z"/>
	<path class="st10" d="M1122.8,441.6h-14.5v16h-5.6v-36.7h5.6v15.7h14.5v-15.7h5.6v36.7h-5.6V441.6z"/>
</g>
<g>
	<path class="st19" d="M1592.1,486.9L1592.1,486.9c6.4,8.3,9.2,18.8,7.7,29.1l-5.3,36l-25.8,32"/>
	<path class="st20" d="M1533.8,559.5h47.4c6.7,0,12.4-5.3,12.4-12.4v-97.6c0-6.7-5.3-12.4-12.4-12.4h-47.4
		c-6.7,0-12.4,5.3-12.4,12.4V547C1521.8,553.7,1527.1,559.5,1533.8,559.5z"/>
	<path class="st19" d="M1576.8,622.3l-10.5,19.6c-0.5,0.5-0.5,1.4-1,1.9l-28.7,70.8c-2.9,6.7-9.1,11.5-16.3,12l0,0
		c-7.2,0.5-13.9-2.4-18.2-8.6l-32.5-47.8c-5.3-7.7-4.3-17.7,1.9-24.4l18.7-19.6c0.5-0.5,0.5-0.5,1-1l16.3-19.6
		c2.4-2.9,3.8-6.2,4.3-10l5.3-37.8c0.5-3.8,0-7.7-1.9-11.5l-10.5-20.6c-1.9-3.8-2.4-8.1-1.9-12.4l3.8-19.6c1-3.8,2.4-7.2,5.3-10
		l4.3-4.3c6.7-6.2,16.7-7.7,24.4-2.9l22,13.9c2.9,1.9,5.3,4.3,6.7,7.7l17.7,34.4c0.5,1,1,1.4,1.4,1.9l0,0c6.2,8.6,7.7,20.1,4.3,30.1
		l-5.3,15.8c0,0.5-0.5,1-0.5,1.4l-8.6,34.4C1578.2,618.9,1577.3,620.8,1576.8,622.3z"/>
	<line class="st5" x1="1509.4" y1="488.8" x2="1555.8" y2="535.2"/>
	<circle class="st19" cx="1558.6" cy="449.7" r="3.8"/>
</g>
<polyline class="st19" points="1396.5,-146.3 1444.1,-132.1 1487,-116.2 1525,-74.9 1544.1,-40 "/>
<line class="st19" x1="1727.5" y1="-364.5" x2="1384.5" y2="-15.5"/>
<rect x="891" y="284" class="st24" width="325" height="62"/>
<polygon class="st19" points="1525,-340 1439.3,-336.8 1396.5,-286 1437.7,-271.7 1477.4,-271.7 1461.6,-228.9 1421.9,-184.4 
	1396.5,-146.3 1491.7,-127.3 1533,-74.9 1544.1,-40 1593.3,-116.2 1625,-205.1 1629.8,-251.1 1637.7,-246.3 1660,-214.6 
	1701.2,-238.4 1715.5,-260.6 1675.8,-303.5 1615.5,-340 1583.8,-325.7 1542.5,-325.7 "/>
<g>
	<path class="st10" d="M943.1,325.3c2.8,2.2,6.5,3.7,10.4,3.7c4.5,0,7.3-2.1,7.3-5.1c0-2.6-1.5-4.5-4.8-4.9
		c-1.6-0.2-2.9-0.4-4.8-0.7c-6.3-0.9-9.7-5-9.7-10.3c0-6.3,4.4-10.7,12-10.7c4.5,0,8.6,1.6,11.9,3.8l-3.1,4.6
		c-2.7-1.7-5.8-2.8-9.1-2.8c-3.4,0-6.1,1.8-6.1,5.3c0,2.1,1.5,4.1,5.2,4.7c1,0.2,2.4,0.4,4.1,0.6c6.9,0.8,10,5.6,10,10.6
		c0,6.7-5,10.7-12.9,10.7c-5.4,0-10.1-1.6-14-5L943.1,325.3z"/>
	<path class="st10" d="M971.5,297.5h5.6v23.6c0,5,3.2,7.8,7.5,7.8c4.2,0,7.5-2.7,7.5-7.8v-23.6h5.6v24.3c0,7.6-5.8,12.7-13,12.7
		c-7.3,0-13-5.1-13-12.7V297.5z"/>
	<path class="st10" d="M1004.6,297.5h13.3c2.9,0,5.4,0.4,8.2,2.6c2.2,1.7,4,4.8,4,8.8c0,5.2-4,11-11.5,11h-8.4v14.3h-5.6V297.5z
		 M1010.2,314.6h8.2c4.1,0,6.1-3,6.1-5.9c0-2.5-1-4-2.4-4.9c-1.2-0.8-2.4-1-4-1h-8V314.6z"/>
	<path class="st10" d="M1035.2,297.5h23.4v5.3h-17.9v10.5h15.2v4.9h-15.2v10.8h17.9v5.3h-23.4V297.5z"/>
	<path class="st10" d="M1063.8,297.5h14.3c3.1,0,5.5,0.7,7.5,2.4c2.1,1.8,3.7,4.5,3.7,7.8c0,4.7-2.7,8.6-7.1,10.1l8.5,16.3h-6.6
		l-7.6-15.7h-7.1v15.7h-5.6V297.5z M1069.4,313.6h8.4c4.2,0,6.2-2.7,6.2-5.8c0-1.9-0.7-3.3-1.9-4.2c-1-0.8-2.2-1.1-4.1-1.1h-8.7
		V313.6z"/>
	<path class="st10" d="M1095.2,297.5h5.6v36.7h-5.6V297.5z"/>
	<path class="st10" d="M1108.9,303.8c1.8-3.2,5.7-6.6,11.5-6.6s9.7,3.4,11.5,6.6c1.2,2.2,1.6,3.2,1.6,12.1s-0.4,9.9-1.6,12.1
		c-1.8,3.2-5.7,6.6-11.5,6.6s-9.7-3.4-11.5-6.6c-1.2-2.2-1.6-3.2-1.6-12.1S1107.7,305.9,1108.9,303.8z M1114.7,326.2
		c1.1,1.4,3,2.7,5.7,2.7c2.6,0,4.5-1.2,5.7-2.7c1.4-1.9,1.9-2.9,1.9-10.4s-0.4-8.6-1.9-10.4c-1.1-1.4-3-2.7-5.7-2.7
		c-2.6,0-4.5,1.2-5.7,2.7c-1.4,1.9-1.9,2.9-1.9,10.4S1113.2,324.4,1114.7,326.2z"/>
	<path class="st10" d="M1139.9,297.5h14.3c3.1,0,5.5,0.7,7.5,2.4c2.1,1.8,3.7,4.5,3.7,7.8c0,4.7-2.7,8.6-7.1,10.1l8.5,16.3h-6.6
		l-7.6-15.7h-7.1v15.7h-5.6V297.5z M1145.5,313.6h8.4c4.2,0,6.2-2.7,6.2-5.8c0-1.9-0.7-3.3-1.9-4.2c-1-0.8-2.2-1.1-4.1-1.1h-8.7
		V313.6z"/>
</g>
<rect x="890.5" y="134.6" class="st5" width="326" height="356.2"/>
</svg>
