<?xml version="1.0" encoding="utf-8"?>
<!-- Generator: Adobe Illustrator 22.0.1, SVG Export Plug-In . SVG Version: 6.00 Build 0)  -->
<svg version="1.1" id="Layer_1" xmlns="http://www.w3.org/2000/svg" xmlns:xlink="http://www.w3.org/1999/xlink" x="0px" y="0px"
	 viewBox="0 0 1340 630" style="enable-background:new 0 0 1340 630;" xml:space="preserve">
<style type="text/css">
	.st0{clip-path:url(#SVGID_3_);fill:#CCB98D;}
	.st1{clip-path:url(#SVGID_3_);fill:#CCB98D;stroke:#000000;stroke-miterlimit:10;}
	.st2{clip-path:url(#SVGID_3_);}
	.st3{fill:#DDDDD3;stroke:#000000;stroke-miterlimit:10;}
	.st4{fill:#8BA4C9;stroke:#000000;stroke-miterlimit:10;}
	.st5{fill:#F2DCA5;stroke:#000000;stroke-miterlimit:10;}
	.st6{fill:#BACEB2;stroke:#000000;stroke-miterlimit:10;}
	.st7{clip-path:url(#SVGID_3_);fill:#DD796F;stroke:#000000;stroke-miterlimit:10;}
	.st8{clip-path:url(#SVGID_3_);fill:none;stroke:#000000;stroke-miterlimit:10;}
	.st9{clip-path:url(#SVGID_3_);fill:#DDDDD3;stroke:#000000;stroke-miterlimit:10;}
	.st10{display:none;}
	.st11{display:inline;fill:#E8E7E7;}
	.st12{fill:#414143;stroke:#000000;stroke-miterlimit:10;}
	.st13{fill:none;}
	.st14{fill:none;stroke:#000000;stroke-miterlimit:10;}
	.st15{display:inline;fill:#F8A079;stroke:#000000;stroke-miterlimit:10;}
	.st16{display:inline;fill:#F2F2F2;stroke:#000000;stroke-miterlimit:10;}
	.st17{display:inline;}
	.st18{fill:#EF5B49;stroke:#000000;stroke-miterlimit:10;}
	.st19{fill:#CFD9C5;stroke:#000000;stroke-miterlimit:10;}
	.st20{display:inline;fill:#EF5B49;stroke:#000000;stroke-miterlimit:10;}
	.st21{display:inline;fill:none;stroke:#000000;stroke-miterlimit:10;}
	.st22{display:inline;fill:#E8E7E7;stroke:#000000;stroke-miterlimit:10;}
	.st23{display:inline;fill:#CFD9C5;stroke:#000000;stroke-miterlimit:10;}
	.st24{clip-path:url(#SVGID_5_);}
	.st25{clip-path:url(#SVGID_7_);}
	.st26{fill:#CCB98D;stroke:#000000;stroke-miterlimit:10;}
	.st27{enable-background:new    ;}
	.st28{fill:#424143;}
	.st29{opacity:0.78;fill:#FFFFFF;}
	.st30{fill:#E7E7E7;stroke:#000000;stroke-miterlimit:10;}
	.st31{fill:#DD796F;stroke:#000000;stroke-miterlimit:10;}
	.st32{clip-path:url(#SVGID_9_);fill:#424143;stroke:#000000;stroke-miterlimit:10;}
	.st33{clip-path:url(#SVGID_9_);}
	.st34{clip-path:url(#SVGID_9_);fill:none;stroke:#000000;stroke-miterlimit:10;}
</style>
<g>
	<defs>
		<rect id="SVGID_2_" x="890" y="134.8" width="326" height="356.2"/>
	</defs>
	<use xlink:href="#SVGID_2_"  style="overflow:visible;fill:#DDDDD3;"/>
	<clipPath id="SVGID_3_">
		<use xlink:href="#SVGID_2_"  style="overflow:visible;"/>
	</clipPath>
	<polygon class="st0" points="1137,334 1146.5,341.2 1140.5,356.8 1120.8,382.8 1078.2,379.8 1104.8,332 	"/>
	<path class="st1" d="M987.5,281.4l-0.7-0.3c-2.2-1.2-3.9-3.3-4.4-5.7l-0.7-3.1c-0.1-0.2-0.1-0.5-0.1-0.7l-0.2-2.4
		c-0.2-2.2,0.1-4.4,1-6.4l1.9-4.6c0.6-1.5,1.6-2.9,2.8-4l0.4-0.4c1.2-1.1,2.8-1.7,4.4-1.8l3.8-0.2"/>
	<path class="st1" d="M979.8,327.1l-2.3-1.7c-0.8-0.6-1.4-1.4-1.8-2.4l0,0c-0.6-1.6-0.8-3.3-0.6-4.9l1.8-12.8
		c0.2-1.2,0.6-2.4,1.2-3.4l1.2-2c0.9-1.6,2.4-2.8,4.1-3.4l4.3-1.7"/>
	<path class="st1" d="M973.4,370.3l-1.7-1.3c-1.3-1-2.2-2.4-2.6-4l-1-4c-0.4-1.6-0.3-3.3,0.2-4.9l1.5-4.2c0.1-0.3,0.3-0.6,0.5-0.9
		l3.2-4.1c0.5-0.6,1.1-1.2,1.7-1.7l5.1-3.1"/>
	<path class="st1" d="M1150.4,338.5l-8.5,51.3c-0.6,3.8-2,7.4-4,10.6l-6.7,10.7c-4.9,7.8-6,17.5-3,26.2l4.1,11.9l90.2,96.1l-1.7,1.2
		c-0.3,0.2-0.6,0.3-1,0.3L992.5,560l34.5-77.8l3.6-10.2c1.6-4.5,2.1-9.3,1.6-14l-0.5-5c-0.4-4.1-1.4-8.1-3-12l-5.2-13"/>
	<path class="st1" d="M1024,235.5c-0.4-1.3-7.2-38.9-9.3-51.1c-0.4-2.3-2-4.3-4.1-5.3l-1.6-0.7c-4.1-1.8-8.8-1-12,2.1l-0.3,0.3
		c-2.6,2.5-3.9,6-3.5,9.5l2.5,27.9c0,0.5,0.1,0.9,0.2,1.3l7.9,48.4"/>
	<g class="st2">
		<path class="st3" d="M1086.1,440.8l-107.4-21.9c-7-1.4-11.6-8.3-10.1-15.3l45.5-222.8c1.4-7,8.3-11.6,15.3-10.1l107.4,21.9
			c7,1.4,11.6,8.3,10.1,15.3l-45.5,222.8C1100,437.7,1093.1,442.2,1086.1,440.8z"/>
		<circle class="st3" cx="1035.2" cy="415.6" r="7.8"/>
	</g>
	<g class="st2">
		<path class="st3" d="M1086.8,411.8l-98.2-20.1c-7-1.4-11.6-8.3-10.1-15.3l39.1-191.1c1.4-7,8.3-11.6,15.3-10.1l98.2,20.1
			c7,1.4,11.6,8.3,10.1,15.3l-39.1,191.1C1100.7,408.7,1093.9,413.3,1086.8,411.8z"/>
		
			<rect x="1033.5" y="184.5" transform="matrix(0.9797 0.2003 -0.2003 0.9797 65.9166 -210.8276)" class="st4" width="82.6" height="71.7"/>
		
			<rect x="1015.9" y="265.1" transform="matrix(0.9797 0.2003 -0.2003 0.9797 82.7907 -205.5614)" class="st5" width="82.6" height="82.6"/>
		
			<rect x="1001" y="356.8" transform="matrix(0.9797 0.2003 -0.2003 0.9797 97.1448 -201.0816)" class="st6" width="82.6" height="45.4"/>
	</g>
	<path class="st1" d="M1120.5,353l-0.5-41.1c0-1.5,0.1-3.1,0.3-4.6l7.5-47.3c0.4-2.6,1.2-5.1,2.2-7.5l11.3-25.4
		c1.7-3.8,5.9-5.9,9.9-5l0.2,0c1.4,0.3,2.3,1.7,2.1,3.1l-5.6,37.3c0,0.3-0.1,0.6-0.1,0.9l2.4,71.8c0.1,1.8,0,3.6-0.3,5.4l0,0"/>
	<path class="st7" d="M1031.7,467.8l27.7,2.2c5.2,0.4,10.5,0.2,15.7-0.7l17-2.9c12.8-2.2,24.9-7.5,35.2-15.3l7.6-5.7
		c0.9-0.7,2.3-0.5,3,0.4l48.2,61.8c2,2.6,0.5,6.3-2.7,6.9l-180.2,30.1c-3.3,0.6-6-2.8-4.7-5.9l28.8-68
		C1028.2,468.7,1029.9,467.7,1031.7,467.8z"/>
	<path class="st8" d="M1153.7,224.9l-4.5,9.9c-1.1,2.4-1.6,5-1.4,7.6l0.9,16.7"/>
	<path class="st1" d="M988.1,256.6l-2.1,3.9c-1.9,3.5-2.6,7.7-1.8,11.6l0.5,2.6c0.2,0.9,0.5,1.7,0.8,2.5l2.2,4.7
		c0.5,1.1,1.4,2,2.6,2.6l0,0c1.4,0.7,3.1,0.7,4.5,0l3-1.4c2.5-1.1,4.5-3.1,5.7-5.6l2.5-5.2c1-2,1.4-4.2,1.3-6.5l-0.3-6
		c-0.1-1.4-0.7-2.8-1.8-3.8l-3.6-3.2c-1.3-1.2-3-1.6-4.7-1.3l-2.9,0.6C991.5,252.7,989.3,254.3,988.1,256.6z"/>
	<path class="st1" d="M988.4,294.4l-0.9,0.2c-0.8,0.2-1.5,0.7-2,1.4l-1.8,2.4c-2.7,3.7-4.6,7.9-5.5,12.3l-0.6,3.1
		c-1.1,5.2,0.1,10.6,3.2,14.9v0c1.2,1.7,3.6,2,5.2,0.8l0,0c0.6-0.5,1.1-1.2,1.3-1.9l4.2-14.5c0-0.1,0.1-0.3,0.1-0.4l2.2-12.6
		c0.2-0.9,0-1.8-0.5-2.6l-0.9-1.5C991.7,294.6,990,294,988.4,294.4z"/>
	<path class="st1" d="M979.2,342.9l-5.3,6.5c-0.3,0.4-0.6,0.9-0.8,1.4l-2.1,5.3c-1,2.4-1,5.1-0.1,7.6l2.2,6c0.7,2,3.2,2.7,4.9,1.4
		l0.5-0.4c0.5-0.4,0.8-0.8,1-1.4l2.9-7.6c1.2-3.1,1.9-6.3,2-9.7l0.3-7.1c0-0.9-0.3-1.7-0.9-2.4l0,0
		C982.6,341.3,980.4,341.4,979.2,342.9z"/>
	<path class="st8" d="M995.1,182.6l0.5,4.8l0.5,14.7c0,0.8-0.1,1.6-0.3,2.4l-1.2,4.3"/>
	<path class="st9" d="M993.4,252.3"/>
	<use xlink:href="#SVGID_2_"  style="overflow:visible;fill:none;stroke:#000000;stroke-miterlimit:10;"/>
</g>
<g id="Layer_2_1_" class="st10">
	<rect x="-260.5" y="-120.6" class="st11" width="1861" height="871.4"/>
</g>
<rect x="653" y="486.1" class="st12" width="29" height="27"/>
<rect x="606.4" y="149.4" class="st13" width="125.2" height="91.5"/>
<rect x="606.4" y="347.9" class="st13" width="125.2" height="134.3"/>
<path class="st14" d="M604.3,630.1"/>
<path class="st14" d="M618.3,590.1"/>
<path class="st14" d="M608,630.1"/>
<path class="st14" d="M618.8,599.1"/>
<g id="Layer_3" class="st10">
	<path class="st15" d="M1548.5-250.1c-12.6-12.2-11.4-17.5-19.7-24.5c-18.1-15.3-44.1-7.6-44.6-12.1c-0.4-3.4,14-10.2,29.7-10.8
		c15.1-0.6,24,4.7,25.8,1.8c2.2-3.6-11.6-12-22.4-28.3c-10.8-16.1-9.3-26.1-17.6-54.1c-7.5-25.4-11.8-38.2-18.8-48.5
		c-14.7-21.6-33.2-29.7-31.5-32.5c1.5-2.5,17,1.8,30,11.7c14.7,11.3,17.8,23.4,20.8,22.4c5-1.6,6.1-37.7-13.5-67
		c-15.5-23.2-37.3-32-34.5-38.4c2-4.5,14.9-4.8,25.6-1.6c34.7,10.4,44.9,56.9,53.2,54.8c7.2-1.9-2.3-44.6,2.7-45.9
		c3.4-0.9,13.3,18,17.8,39.6c4.7,22.7,2.1,42-0.2,57.4c-4.3,29.9-12.5,50-10.7,50.7c2.9,1.1,21.1-47.7,27.7-45.9
		c4.3,1.2,2.3,22.7,0.2,35.9c-6.3,39.2-20.2,45.8-18.7,71.8c0.6,9.6,3.9,19.6,10.5,39.6c7.9,23.9,14.7,35.9,11.4,38.4
		C1567.8-232.7,1554.3-244.6,1548.5-250.1z"/>
	<path class="st16" d="M-1097.2,14c-134.1,12-308.5,48.1-300.2,78.4c7.5,27.5,162.3,38.9,246.6,45.1c113.1,8.3,324.2,23.9,386-24.5
		c29.7-23.3,18.8-56.6-15-77.4C-850.9-8.1-1018,6.9-1097.2,14z"/>
	<path class="st16" d="M-958.5-81.4C-1034.2-67-1129-37.5-1106-15.6c23.6,22.4,160.2,26.5,224.4,28.5c29.2,0.9,157.5,4,307.8-17.7
		c68.7-9.9,219.5-31.7,211.6-53C-373.8-89.3-732.6-124.3-958.5-81.4z"/>
	<path class="st16" d="M-492-424.8c-49.2-31.4-119.3-21.6-152.7,22.7c-19,25.2-27.6,63.7-13.6,93.7c32.3,69,177.5,79.4,213.1,22.7
		C-422.1-322.4-441.4-392.5-492-424.8z"/>
	<rect x="-1434" y="-993.9" class="st16" width="450" height="802"/>
	<g class="st17">
		<path class="st18" d="M2467,11.5L2467,11.5c-89.7,0-162.5,72.8-162.5,162.5v420.7h325V174C2629.5,84.2,2556.7,11.5,2467,11.5z"/>
		<circle class="st19" cx="2577.1" cy="338.5" r="22.8"/>
	</g>
	<rect x="-1246.2" y="1278.9" class="st20" width="136.9" height="136.9"/>
	<polyline class="st21" points="-1245.5,1278.6 -1177.2,1235.5 -1109.5,1278.6 	"/>
	<circle class="st22" cx="-1176.9" cy="1235.9" r="2.2"/>
	<path class="st23" d="M-1239,1361.2l36.6-30.2c2.1-1.8,5.2-1.7,7.3,0.1l34.3,29.8c2.4,2,5.9,1.8,8-0.5l12.9-14.6
		c2.2-2.5,6-2.6,8.3-0.2l15.4,15.6v48.6H-1239V1361.2z"/>
	<g class="st17">
		<path d="M-1178.5,215.6V1081h-1838V215.6H-1178.5 M-1177.5,214.6h-1840V1082h1840V214.6L-1177.5,214.6z"/>
	</g>
</g>
<g id="Layer_1_1_" class="st10">
</g>
<g id="Layer_4" class="st10">
	<g class="st17">
		<g>
			<defs>
				<rect id="SVGID_4_" x="-251" y="1009.1" width="1842" height="145"/>
			</defs>
			<clipPath id="SVGID_5_">
				<use xlink:href="#SVGID_4_"  style="overflow:visible;"/>
			</clipPath>
			<g class="st24">
				
					<text transform="matrix(1 0 0 1 -374.0104 1123.028)" style="fill:#BFDDA1; font-family:'Inconsolata-Bold'; font-size:113.6883px;">BUY BUY BUY BUY BUY BUY BUY BUY BUY BUY BUY</text>
				
					<text transform="matrix(1 0 0 1 -374.0104 1123.028)" class="st14" style="font-family:'Inconsolata-Bold'; font-size:113.6883px;">BUY BUY BUY BUY BUY BUY BUY BUY BUY BUY BUY</text>
			</g>
		</g>
		<g>
			<rect id="SVGID_1_" x="-251" y="1009.1" class="st14" width="1842" height="145"/>
		</g>
	</g>
</g>
<g>
	<defs>
		<rect id="SVGID_6_" x="595" y="134.8" width="147.3" height="356.2"/>
	</defs>
	<use xlink:href="#SVGID_6_"  style="overflow:visible;fill:#F2DCA5;"/>
	<clipPath id="SVGID_7_">
		<use xlink:href="#SVGID_6_"  style="overflow:visible;"/>
	</clipPath>
	<g class="st25">
		<path class="st26" d="M751.8,431.5c-1.8-36.2-2.7-41.6-5.3-48c-3.4-8.5-12-24.6-35.9-38.8c8.6-9.3,10.8-20.7,11.3-23.2
			c1.6-8.5,0.1-15.7-3-29.7c-3.9-17.7-5.9-26.6-11.7-35c-3-4.4-16.3-23.9-38.8-24.3c-23.8-0.4-37.8,20.2-40.2,23.9
			c-6.1,9.5-7.1,18.2-9,35.7c-1.3,11.7-2.3,21.9,1.8,34.2c1.2,3.7,2.9,8.6,6.1,13.5c-12,8.7-19.4,17.6-23.9,24.4
			c-10.3,15.2-12.2,27.8-22.3,70c-11.5,48-17.1,49-14.3,56.7c15.9,43.8,165.2,48.6,186.3,2.3C754.6,489.1,753.7,469.9,751.8,431.5z"
			/>
		<line class="st5" x1="669.8" y1="255.4" x2="667.7" y2="301.4"/>
		<circle class="st5" cx="651.2" cy="273.2" r="9.6"/>
		<circle class="st5" cx="686.3" cy="271.7" r="9.6"/>
		<path class="st14" d="M659.4,272.9c0,0,9.1-7.1,19.6-1.2"/>
	</g>
	<use xlink:href="#SVGID_6_"  style="overflow:visible;fill:none;stroke:#000000;stroke-miterlimit:10;"/>
</g>
<g class="st27">
	<path class="st28" d="M613.5,157.2h5.9v3.4c0,3.3-2.6,5.9-5.9,5.9c-2.6,0-4.4-1.5-5.2-3c-0.5-1-0.7-1.5-0.7-5.5
		c0-4,0.2-4.5,0.7-5.5c0.8-1.4,2.6-3,5.2-3c3.2,0,5.3,2.2,5.8,4.9h-2.7c-0.4-1.3-1.6-2.4-3.2-2.4c-1.2,0-2.1,0.6-2.6,1.2
		c-0.7,0.8-0.8,1.3-0.8,4.7c0,3.4,0.2,3.9,0.8,4.7c0.5,0.7,1.4,1.2,2.6,1.2c1.9,0,3.4-1.4,3.4-3.5v-0.9h-3.4V157.2z"/>
	<path class="st28" d="M622.1,154.6h2.4v1.3h0c0.7-0.9,1.8-1.4,3.1-1.4c1,0,1.8,0.4,2.5,0.9l-1.7,2.1c-0.6-0.4-1-0.6-1.6-0.6
		c-1.2,0-2.3,0.7-2.3,2.5v7.1h-2.4V154.6z"/>
	<path class="st28" d="M631.5,155.9c0.7-0.7,1.8-1.5,3.6-1.5s2.9,0.8,3.6,1.5c0.9,1,1.3,2,1.3,4.5c0,2.6-0.4,3.6-1.3,4.6
		c-0.7,0.7-1.8,1.5-3.6,1.5s-2.9-0.8-3.6-1.5c-0.9-1-1.3-2-1.3-4.6C630.2,157.9,630.6,156.9,631.5,155.9z M637,157.7
		c-0.4-0.5-1.1-0.9-1.9-0.9c-0.8,0-1.6,0.4-1.9,0.9c-0.4,0.6-0.6,1.1-0.6,2.8c0,1.7,0.1,2.2,0.6,2.8c0.4,0.5,1.1,0.9,1.9,0.9
		c0.8,0,1.6-0.4,1.9-0.9c0.4-0.6,0.6-1.1,0.6-2.8C637.6,158.8,637.5,158.3,637,157.7z"/>
	<path class="st28" d="M651.2,164.5c-1,1.2-2.5,2.1-4.3,2.1c-2.7,0-5.4-1.7-5.4-6.1c0-4.3,2.6-6.1,5.4-6.1c1.8,0,3.2,0.9,4.3,2.1
		l-1.8,1.6c-0.6-0.7-1.4-1.2-2.4-1.2c-1.9,0-3.1,1.1-3.1,3.7c0,2.6,1.1,3.7,3.1,3.7c1,0,1.8-0.5,2.4-1.2L651.2,164.5z"/>
	<path class="st28" d="M654.7,161.4c0,1.9,1.2,2.9,2.8,2.9c0.9,0,1.9-0.4,2.6-1.1l1.7,1.5c-1.2,1.4-2.7,1.9-4.3,1.9
		c-2.4,0-5.3-1.2-5.3-6c0-4.6,2.6-6.1,4.9-6.1c2.6,0,4.9,1.9,4.9,5v2H654.7z M659.7,159.4c-0.1-1.8-1.1-2.8-2.5-2.8s-2.5,1-2.5,2.8
		H659.7z"/>
	<path class="st28" d="M664.5,154.6h2.4v1.3h0c0.7-0.9,1.8-1.4,3.1-1.4c1,0,1.8,0.4,2.5,0.9l-1.7,2.1c-0.6-0.4-1-0.6-1.6-0.6
		c-1.2,0-2.3,0.7-2.3,2.5v7.1h-2.4V154.6z"/>
	<path class="st28" d="M671.9,154.6h2.5l2.8,8.3h0l2.8-8.3h2.5l-5.1,14.3c-0.7,1.8-1.9,2.3-3.3,2.3h-0.8V169h0.7
		c0.6,0,1.2-0.3,1.4-1l0.7-2L671.9,154.6z"/>
</g>
<g class="st27">
	<path class="st28" d="M608.3,190.4c1.3,1,2.9,1.7,4.7,1.7c2.1,0,3.3-0.9,3.3-2.3c0-1.2-0.7-2.1-2.2-2.2c-0.7-0.1-1.3-0.2-2.2-0.3
		c-2.9-0.4-4.4-2.3-4.4-4.7c0-2.9,2-4.9,5.4-4.9c2.1,0,3.9,0.7,5.4,1.7l-1.4,2.1c-1.2-0.8-2.6-1.3-4.1-1.3c-1.5,0-2.8,0.8-2.8,2.4
		c0,0.9,0.7,1.9,2.4,2.1c0.4,0.1,1.1,0.2,1.9,0.3c3.1,0.4,4.6,2.5,4.6,4.8c0,3.1-2.3,4.8-5.8,4.8c-2.5,0-4.6-0.7-6.4-2.3
		L608.3,190.4z"/>
	<path class="st28" d="M621.4,179h2.4v3.6h1.7v1.8h-1.7v6.9c0,0.7,0.3,0.9,0.8,0.9h0.9v2.2h-1.2c-1.7,0-2.9-1.1-2.9-2.9v-7.1h-1.2
		v-1.8h1.2V179z"/>
	<path class="st28" d="M628.5,183.9c0.7-0.7,1.8-1.5,3.6-1.5s2.9,0.8,3.6,1.5c0.9,1,1.3,2,1.3,4.5c0,2.6-0.4,3.6-1.3,4.6
		c-0.7,0.7-1.8,1.5-3.6,1.5s-2.9-0.8-3.6-1.5c-0.9-1-1.3-2-1.3-4.6C627.2,185.9,627.6,184.9,628.5,183.9z M634,185.7
		c-0.4-0.5-1.1-0.9-1.9-0.9c-0.8,0-1.6,0.4-1.9,0.9c-0.4,0.6-0.6,1.1-0.6,2.8c0,1.7,0.1,2.2,0.6,2.8c0.4,0.5,1.1,0.9,1.9,0.9
		c0.8,0,1.6-0.4,1.9-0.9c0.4-0.6,0.6-1.1,0.6-2.8C634.6,186.8,634.5,186.3,634,185.7z"/>
	<path class="st28" d="M639.5,182.6h2.4v1.3h0c0.7-0.9,1.8-1.4,3.1-1.4c1,0,1.8,0.4,2.5,0.9l-1.7,2.1c-0.6-0.4-1-0.6-1.6-0.6
		c-1.2,0-2.3,0.7-2.3,2.5v7.1h-2.4V182.6z"/>
	<path class="st28" d="M649.9,189.4c0,1.9,1.2,2.9,2.8,2.9c0.9,0,1.9-0.4,2.6-1.1l1.7,1.5c-1.2,1.4-2.7,1.9-4.3,1.9
		c-2.4,0-5.3-1.2-5.3-6c0-4.6,2.6-6.1,4.9-6.1c2.6,0,4.9,1.9,4.9,5v2H649.9z M654.9,187.4c-0.1-1.8-1.1-2.8-2.5-2.8s-2.5,1-2.5,2.8
		H654.9z"/>
	<path class="st28" d="M660.2,190.8c1,1,2.1,1.5,3.7,1.5c1.4,0,2.3-0.5,2.3-1.5c0-0.8-0.6-1.1-1.4-1.2l-2.1-0.2
		c-2-0.2-3.4-1.3-3.4-3.4c0-2.4,1.9-3.6,4.4-3.6c2.1,0,3.5,0.6,4.6,1.6l-1.5,1.7c-0.9-0.7-1.9-1.1-3.2-1.1c-1.5,0-2,0.6-2,1.4
		c0,0.5,0.4,1,1.6,1.1l2,0.1c2.5,0.2,3.4,1.7,3.4,3.6c0,2.3-2.1,3.6-4.9,3.6c-1.9,0-3.7-0.7-5.2-2.1L660.2,190.8z"/>
</g>
<g class="st27">
	<path class="st28" d="M617.2,215.2h-6.6v7.3h-2.5v-16.6h2.5v7.1h6.6v-7.1h2.5v16.6h-2.5V215.2z"/>
	<path class="st28" d="M629.2,221.5L629.2,221.5c-0.5,0.8-1.4,1.2-3,1.2c-2.6,0-4.2-1.6-4.2-3.6c0-1.9,1.3-3.5,3.9-3.5h3.3v-1.2
		c0-1.1-0.7-1.5-2.4-1.5c-1.2,0-1.8,0.2-2.2,0.9l-1.9-1.4c0.9-1.3,2.2-1.7,4-1.7c2.9,0,4.9,1,4.9,3.9v8.1h-2.4V221.5z M629.2,217.5
		h-2.9c-1.4,0-2.1,0.6-2.1,1.4c0,0.8,0.6,1.5,2.2,1.5c2,0,2.7-0.2,2.7-2.1V217.5z"/>
	<path class="st28" d="M634.8,207.1h2.4v3.6h1.7v1.8h-1.7v6.9c0,0.7,0.3,0.9,0.8,0.9h0.9v2.2h-1.2c-1.7,0-2.9-1.1-2.9-2.9v-7.1h-1.2
		v-1.8h1.2V207.1z"/>
	<path class="st28" d="M643,217.5c0,1.9,1.2,2.9,2.8,2.9c0.9,0,1.9-0.4,2.6-1.1l1.7,1.5c-1.2,1.4-2.7,1.9-4.3,1.9
		c-2.4,0-5.3-1.2-5.3-6c0-4.6,2.6-6.1,4.9-6.1c2.6,0,4.9,1.9,4.9,5v2H643z M648,215.5c-0.1-1.8-1.1-2.8-2.5-2.8s-2.5,1-2.5,2.8H648z
		"/>
	<path class="st28" d="M667.8,215.2h-6.6v7.3h-2.5v-16.6h2.5v7.1h6.6v-7.1h2.5v16.6h-2.5V215.2z"/>
	<path class="st28" d="M673.7,205.9h2.4v2.4h-2.4V205.9z M673.7,210.7h2.4v11.8h-2.4V210.7z"/>
	<path class="st28" d="M679.4,210.7h2.4v1.3h0c0.7-0.9,1.8-1.4,3.1-1.4c1.7,0,2.5,0.7,3.3,1.5c1-1.1,2.1-1.5,3.7-1.5
		c1.8,0,3.9,1.4,3.9,4.1v7.9h-2.4v-7.1c0-1.6-1-2.5-2.3-2.5c-1.4,0-2.4,0.9-2.4,2.5v7.1h-2.4v-7.1c0-1.6-1-2.5-2.3-2.5
		c-1.4,0-2.4,0.9-2.4,2.5v7.1h-2.4V210.7z"/>
	<path class="st28" d="M699.1,205.9h3l-0.9,12.5H700L699.1,205.9z M699.4,220.1h2.4v2.4h-2.4V220.1z"/>
</g>
<g class="st27">
	<path class="st28" d="M617.2,357.7h-6.6v7.3h-2.5v-16.6h2.5v7.1h6.6v-7.1h2.5v16.6h-2.5V357.7z"/>
	<path class="st28" d="M623.7,354.5c0.7-0.7,1.8-1.5,3.6-1.5s2.9,0.8,3.6,1.5c0.9,1,1.3,2,1.3,4.5c0,2.6-0.4,3.6-1.3,4.6
		c-0.7,0.7-1.8,1.5-3.6,1.5s-2.9-0.8-3.6-1.5c-0.9-1-1.3-2-1.3-4.6C622.4,356.5,622.8,355.5,623.7,354.5z M629.2,356.2
		c-0.4-0.5-1.1-0.9-1.9-0.9c-0.8,0-1.6,0.4-1.9,0.9c-0.4,0.6-0.6,1.1-0.6,2.8c0,1.7,0.1,2.2,0.6,2.8c0.4,0.5,1.1,0.9,1.9,0.9
		c0.8,0,1.6-0.4,1.9-0.9c0.4-0.6,0.6-1.1,0.6-2.8C629.8,357.3,629.7,356.8,629.2,356.2z"/>
	<path class="st28" d="M641.6,356.7L641.6,356.7l-2.5,8.3H637l-3.8-11.8h2.5l2.3,8.3h0l2.7-8.3h1.7l2.7,8.3h0l2.3-8.3h2.5l-3.8,11.8
		h-2.1L641.6,356.7z"/>
	<path class="st28" d="M657.2,348.3h2.4v6h0c0.7-0.9,1.8-1.4,3.1-1.4c1.8,0,3.9,1.4,3.9,4.1v7.9h-2.4v-7.1c0-1.6-1-2.5-2.3-2.5
		c-1.4,0-2.4,0.9-2.4,2.5v7.1h-2.4V348.3z"/>
	<path class="st28" d="M671.5,359.9c0,1.9,1.2,2.9,2.8,2.9c0.9,0,1.9-0.4,2.6-1.1l1.7,1.5c-1.2,1.4-2.7,1.9-4.3,1.9
		c-2.4,0-5.3-1.2-5.3-6c0-4.6,2.6-6.1,4.9-6.1c2.6,0,4.9,1.9,4.9,5v2H671.5z M676.5,358c-0.1-1.8-1.1-2.8-2.5-2.8
		c-1.4,0-2.5,1-2.5,2.8H676.5z"/>
</g>
<g class="st27">
	<path class="st28" d="M608.2,389.3c1,1,2.1,1.5,3.7,1.5c1.4,0,2.3-0.5,2.3-1.5c0-0.8-0.6-1.1-1.4-1.2l-2.1-0.2
		c-2-0.2-3.4-1.3-3.4-3.4c0-2.4,1.9-3.6,4.4-3.6c2.1,0,3.5,0.6,4.6,1.6l-1.5,1.7c-0.9-0.7-1.9-1.1-3.2-1.1c-1.5,0-2,0.6-2,1.4
		c0,0.5,0.4,1,1.6,1.1l2,0.1c2.5,0.2,3.4,1.7,3.4,3.6c0,2.3-2.1,3.6-4.9,3.6c-1.9,0-3.7-0.7-5.2-2.1L608.2,389.3z"/>
	<path class="st28" d="M625.3,391.9L625.3,391.9c-0.5,0.8-1.4,1.2-3,1.2c-2.6,0-4.2-1.6-4.2-3.6c0-1.9,1.3-3.5,3.9-3.5h3.3v-1.2
		c0-1.1-0.7-1.5-2.4-1.5c-1.2,0-1.8,0.2-2.2,0.9l-1.9-1.4c0.9-1.3,2.2-1.7,4-1.7c2.9,0,4.9,1,4.9,3.9v8.1h-2.4V391.9z M625.3,387.9
		h-2.9c-1.4,0-2.1,0.6-2.1,1.4c0,0.8,0.6,1.5,2.2,1.5c2,0,2.7-0.2,2.7-2.1V387.9z"/>
	<path class="st28" d="M629.1,381.1h2.5l2.8,8.3h0l2.8-8.3h2.5l-4.3,11.8h-2L629.1,381.1z"/>
	<path class="st28" d="M642.8,387.9c0,1.9,1.2,2.9,2.8,2.9c0.9,0,1.9-0.4,2.6-1.1l1.7,1.5c-1.2,1.4-2.7,1.9-4.3,1.9
		c-2.4,0-5.3-1.2-5.3-6c0-4.6,2.6-6.1,4.9-6.1c2.6,0,4.9,1.9,4.9,5v2H642.8z M647.8,386c-0.1-1.8-1.1-2.8-2.5-2.8s-2.5,1-2.5,2.8
		H647.8z"/>
	<path class="st28" d="M659.8,391.7c-0.7,0.8-1.8,1.4-3.1,1.4c-1.4,0-2.5-0.7-3.2-1.5c-0.7-0.8-0.8-1.6-0.8-4.5
		c0-2.9,0.2-3.7,0.8-4.5c0.7-0.9,1.7-1.5,3.2-1.5c1.2,0,2.2,0.6,3.1,1.4v-6h2.4v16.6h-2.4V391.7z M655.1,387c0,1.8,0.1,3.7,2.4,3.7
		c2.2,0,2.3-2,2.3-3.7c0-1.7-0.1-3.7-2.3-3.7C655.2,383.3,655.1,385.2,655.1,387z"/>
</g>
<g class="st27">
	<path class="st28" d="M608,405.6h2.4v3.6h1.7v1.8h-1.7v6.9c0,0.7,0.3,0.9,0.8,0.9h0.9v2.2h-1.2c-1.7,0-2.9-1.1-2.9-2.9V411h-1.2
		v-1.8h1.2V405.6z"/>
	<path class="st28" d="M614.4,404.4h2.4v6h0c0.7-0.9,1.8-1.4,3.1-1.4c1.8,0,3.9,1.4,3.9,4.1v7.9h-2.4V414c0-1.6-1-2.5-2.3-2.5
		c-1.4,0-2.4,0.9-2.4,2.5v7.1h-2.4V404.4z"/>
	<path class="st28" d="M627.6,410.6c0.7-0.7,1.8-1.5,3.6-1.5s2.9,0.8,3.6,1.5c0.9,1,1.3,2,1.3,4.5c0,2.6-0.4,3.6-1.3,4.6
		c-0.7,0.7-1.8,1.5-3.6,1.5s-2.9-0.8-3.6-1.5c-0.9-1-1.3-2-1.3-4.6C626.3,412.6,626.7,411.6,627.6,410.6z M633.1,412.3
		c-0.4-0.5-1.1-0.9-1.9-0.9c-0.8,0-1.6,0.4-1.9,0.9c-0.4,0.6-0.6,1.1-0.6,2.8c0,1.7,0.1,2.2,0.6,2.8c0.4,0.5,1.1,0.9,1.9,0.9
		c0.8,0,1.6-0.4,1.9-0.9c0.4-0.6,0.6-1.1,0.6-2.8C633.7,413.4,633.6,412.9,633.1,412.3z"/>
	<path class="st28" d="M638.6,409.2h2.4v7.1c0,1.6,1,2.5,2.4,2.5c1.3,0,2.3-0.9,2.3-2.5v-7.1h2.4V421h-2.4v-1.3h0
		c-0.7,0.9-1.8,1.4-3.1,1.4c-1.9,0-4-1.4-4-4.1V409.2z"/>
	<path class="st28" d="M651.5,417.4c1,1,2.1,1.5,3.7,1.5c1.4,0,2.3-0.5,2.3-1.5c0-0.8-0.6-1.1-1.4-1.2l-2.1-0.2
		c-2-0.2-3.4-1.3-3.4-3.4c0-2.4,1.9-3.6,4.4-3.6c2.1,0,3.5,0.6,4.6,1.6l-1.5,1.7c-0.9-0.7-1.9-1.1-3.2-1.1c-1.5,0-2,0.6-2,1.4
		c0,0.5,0.4,1,1.6,1.1l2,0.1c2.5,0.2,3.4,1.7,3.4,3.6c0,2.3-2.1,3.6-4.9,3.6c-1.9,0-3.7-0.7-5.2-2.1L651.5,417.4z"/>
	<path class="st28" d="M668.6,420L668.6,420c-0.5,0.8-1.4,1.2-3,1.2c-2.6,0-4.2-1.6-4.2-3.6c0-1.9,1.3-3.5,3.9-3.5h3.3v-1.2
		c0-1.1-0.7-1.5-2.4-1.5c-1.2,0-1.8,0.2-2.2,0.9l-1.9-1.4c0.9-1.3,2.2-1.7,4-1.7c2.9,0,4.9,1,4.9,3.9v8.1h-2.4V420z M668.6,416h-2.9
		c-1.4,0-2.1,0.6-2.1,1.4c0,0.8,0.6,1.5,2.2,1.5c2,0,2.7-0.2,2.7-2.1V416z"/>
	<path class="st28" d="M674,409.2h2.4v1.3h0c0.7-0.9,1.8-1.4,3.1-1.4c1.8,0,3.9,1.4,3.9,4.1v7.9h-2.4V414c0-1.6-1-2.5-2.3-2.5
		c-1.4,0-2.4,0.9-2.4,2.5v7.1H674V409.2z"/>
	<path class="st28" d="M693.7,419.8c-0.7,0.8-1.8,1.4-3.1,1.4c-1.4,0-2.5-0.7-3.2-1.5c-0.7-0.8-0.8-1.6-0.8-4.5
		c0-2.9,0.2-3.7,0.8-4.5c0.7-0.9,1.7-1.5,3.2-1.5c1.2,0,2.2,0.6,3.1,1.4v-6h2.4V421h-2.4V419.8z M689,415.1c0,1.8,0.1,3.7,2.4,3.7
		c2.2,0,2.3-2,2.3-3.7c0-1.7-0.1-3.7-2.3-3.7C689.1,411.4,689,413.3,689,415.1z"/>
	<path class="st28" d="M699.1,417.4c1,1,2.1,1.5,3.7,1.5c1.4,0,2.3-0.5,2.3-1.5c0-0.8-0.6-1.1-1.4-1.2l-2.1-0.2
		c-2-0.2-3.4-1.3-3.4-3.4c0-2.4,1.9-3.6,4.4-3.6c2.1,0,3.5,0.6,4.6,1.6l-1.5,1.7c-0.9-0.7-1.9-1.1-3.2-1.1c-1.5,0-2,0.6-2,1.4
		c0,0.5,0.4,1,1.6,1.1l2,0.1c2.5,0.2,3.4,1.7,3.4,3.6c0,2.3-2.1,3.6-4.9,3.6c-1.9,0-3.7-0.7-5.2-2.1L699.1,417.4z"/>
</g>
<g class="st27">
	<path class="st28" d="M614.8,440.8L614.8,440.8l-2.5,8.3h-2.1l-3.8-11.8h2.5l2.3,8.3h0l2.7-8.3h1.7l2.7,8.3h0l2.3-8.3h2.5
		l-3.8,11.8h-2.1L614.8,440.8z"/>
	<path class="st28" d="M624.8,432.4h2.4v2.4h-2.4V432.4z M624.8,437.2h2.4V449h-2.4V437.2z"/>
	<path class="st28" d="M630.5,433.6h2.4v3.6h1.7v1.8h-1.7v6.9c0,0.7,0.3,0.9,0.8,0.9h0.9v2.2h-1.2c-1.7,0-2.9-1.1-2.9-2.9V439h-1.2
		v-1.8h1.2V433.6z"/>
	<path class="st28" d="M636.9,432.4h2.4v6h0c0.7-0.9,1.8-1.4,3.1-1.4c1.8,0,3.9,1.4,3.9,4.1v7.9h-2.4V442c0-1.6-1-2.5-2.3-2.5
		c-1.4,0-2.4,0.9-2.4,2.5v7.1h-2.4V432.4z"/>
	<path class="st28" d="M655.7,438.6c0.7-0.7,1.8-1.5,3.6-1.5s2.9,0.8,3.6,1.5c0.9,1,1.3,2,1.3,4.5c0,2.6-0.4,3.6-1.3,4.6
		c-0.7,0.7-1.8,1.5-3.6,1.5s-2.9-0.8-3.6-1.5c-0.9-1-1.3-2-1.3-4.6C654.4,440.6,654.8,439.6,655.7,438.6z M661.2,440.3
		c-0.4-0.5-1.1-0.9-1.9-0.9c-0.8,0-1.6,0.4-1.9,0.9c-0.4,0.6-0.6,1.1-0.6,2.8c0,1.7,0.1,2.2,0.6,2.8c0.4,0.5,1.1,0.9,1.9,0.9
		c0.8,0,1.6-0.4,1.9-0.9c0.4-0.6,0.6-1.1,0.6-2.8C661.8,441.4,661.7,440.9,661.2,440.3z"/>
	<path class="st28" d="M666.7,437.2h2.4v1.3h0c0.7-0.9,1.8-1.4,3.1-1.4c1.8,0,3.9,1.4,3.9,4.1v7.9h-2.4V442c0-1.6-1-2.5-2.3-2.5
		c-1.4,0-2.4,0.9-2.4,2.5v7.1h-2.4V437.2z"/>
	<path class="st28" d="M681,444c0,1.9,1.2,2.9,2.8,2.9c0.9,0,1.9-0.4,2.6-1.1l1.7,1.5c-1.2,1.4-2.7,1.9-4.3,1.9
		c-2.4,0-5.3-1.2-5.3-6c0-4.6,2.6-6.1,4.9-6.1c2.6,0,4.9,1.9,4.9,5v2H681z M686,442.1c-0.1-1.8-1.1-2.8-2.5-2.8
		c-1.4,0-2.5,1-2.5,2.8H686z"/>
</g>
<g class="st27">
	<path class="st28" d="M614.8,468.8L614.8,468.8l-2.5,8.3h-2.1l-3.8-11.8h2.5l2.3,8.3h0l2.7-8.3h1.7l2.7,8.3h0l2.3-8.3h2.5
		l-3.8,11.8h-2.1L614.8,468.8z"/>
	<path class="st28" d="M626.6,472c0,1.9,1.2,2.9,2.8,2.9c0.9,0,1.9-0.4,2.6-1.1l1.7,1.5c-1.2,1.4-2.7,1.9-4.3,1.9
		c-2.4,0-5.3-1.2-5.3-6c0-4.6,2.6-6.1,4.9-6.1c2.6,0,4.9,1.9,4.9,5v2H626.6z M631.6,470.1c-0.1-1.8-1.1-2.8-2.5-2.8s-2.5,1-2.5,2.8
		H631.6z"/>
	<path class="st28" d="M636.5,460.4h2.4v2.4h-2.4V460.4z M636.5,465.2h2.4V477h-2.4V465.2z"/>
	<path class="st28" d="M642,465.2h2.4v1.3h0c0.7-0.9,1.8-1.4,3.1-1.4c1,0,1.8,0.4,2.5,0.9l-1.7,2.1c-0.6-0.4-1-0.6-1.6-0.6
		c-1.2,0-2.3,0.7-2.3,2.5v7.1H642V465.2z"/>
	<path class="st28" d="M657.8,475.8c-0.7,0.8-1.8,1.4-3.1,1.4c-1.4,0-2.5-0.7-3.2-1.5c-0.7-0.8-0.8-1.6-0.8-4.5
		c0-2.9,0.2-3.7,0.8-4.5c0.7-0.9,1.7-1.5,3.2-1.5c1.2,0,2.2,0.6,3.1,1.4v-6h2.4V477h-2.4V475.8z M653.1,471.1c0,1.8,0.1,3.7,2.4,3.7
		c2.2,0,2.3-2,2.3-3.7c0-1.7-0.1-3.7-2.3-3.7C653.2,467.4,653.1,469.3,653.1,471.1z"/>
	<path class="st28" d="M668.6,461.6h2.4v3.6h1.7v1.8H671v6.9c0,0.7,0.3,0.9,0.8,0.9h0.9v2.2h-1.2c-1.7,0-2.9-1.1-2.9-2.9V467h-1.2
		v-1.8h1.2V461.6z"/>
	<path class="st28" d="M674.9,465.2h2.4v1.3h0c0.7-0.9,1.8-1.4,3.1-1.4c1,0,1.8,0.4,2.5,0.9l-1.7,2.1c-0.6-0.4-1-0.6-1.6-0.6
		c-1.2,0-2.3,0.7-2.3,2.5v7.1h-2.4V465.2z"/>
	<path class="st28" d="M684.1,460.4h2.4v2.4h-2.4V460.4z M684.1,465.2h2.4V477h-2.4V465.2z"/>
	<path class="st28" d="M698.3,475.1c-1,1.2-2.5,2.1-4.3,2.1c-2.7,0-5.4-1.7-5.4-6.1c0-4.3,2.6-6.1,5.4-6.1c1.8,0,3.2,0.9,4.3,2.1
		l-1.8,1.6c-0.6-0.7-1.4-1.2-2.4-1.2c-1.9,0-3.1,1.1-3.1,3.7c0,2.6,1.1,3.7,3.1,3.7c1,0,1.8-0.5,2.4-1.2L698.3,475.1z"/>
	<path class="st28" d="M700,460.4h2.4v10.3h0l4.6-5.6h2.8l-4.1,4.6l4.6,7.2h-3l-3.2-5.5l-1.9,2.1v3.4H700V460.4z"/>
	<path class="st28" d="M712.1,460.4h3l-0.9,12.5H713L712.1,460.4z M712.4,474.7h2.4v2.4h-2.4V474.7z"/>
</g>
<polygon class="st29" points="759.8,182.6 577.5,375.2 577.5,401.6 759.8,208.3 "/>
<polygon class="st29" points="759.8,214.6 577.5,414.6 577.5,426.5 759.8,227.3 "/>
<g>
	<path class="st30" d="M890,682.5h42.1c0.2,0,0.3,0.1,0.3,0.3v19.4c0,0.2-0.1,0.3-0.3,0.3H890c-0.2,0-0.3-0.1-0.3-0.3v-19.4
		C889.7,682.7,889.8,682.5,890,682.5z"/>
	<line class="st30" x1="894.4" y1="687.9" x2="909.3" y2="687.9"/>
	<line class="st30" x1="894.4" y1="693.9" x2="911.1" y2="693.9"/>
</g>
<g>
	<path class="st30" d="M104.4,697.2h41.8c0.3,0,0.5,0.2,0.5,0.5v19.1c0,0.3-0.2,0.5-0.5,0.5h-41.8c-0.3,0-0.5-0.2-0.5-0.5v-19.1
		C103.9,697.4,104.1,697.2,104.4,697.2z"/>
	<line class="st30" x1="108.6" y1="702.6" x2="129.6" y2="702.6"/>
	<line class="st30" x1="108.6" y1="708.6" x2="139.7" y2="708.6"/>
</g>
<path class="st14" d="M592.6,115.3h152c8.4,0,15.1,6.8,15.1,15.1v380H577.5v-380C577.5,122.1,584.3,115.3,592.6,115.3z"/>
<path class="st6" d="M785.7,727.1H548l17.2-213.3c0.4-4.9,4.4-8.6,9.3-8.6h186c4.9,0,9,3.8,9.3,8.6L785.7,727.1z"/>
<g>
	<path class="st30" d="M715.1,736.5h42.2c0.2,0,0.3,0.1,0.3,0.3v19.5c0,0.2-0.1,0.3-0.3,0.3h-42.2c-0.2,0-0.3-0.1-0.3-0.3v-19.5
		C714.8,736.7,714.9,736.5,715.1,736.5z"/>
	<line class="st30" x1="719.5" y1="741.9" x2="746.3" y2="741.9"/>
	<line class="st30" x1="719.5" y1="747.9" x2="729.3" y2="747.9"/>
</g>
<rect x="104.1" y="501.5" class="st30" width="326" height="26.5"/>
<path class="st31" d="M123.4,509.4H123c-0.9,0-1.7,0.5-2.2,1.3l-1,1.7l-1-1.7c-0.5-0.8-1.3-1.3-2.2-1.3h-0.4c-0.9,0-1.7,0.5-2.2,1.2
	l-0.2,0.4c-0.6,1-0.5,2.2,0.2,3.1l1.1,1.5c0.8,1.1,1.8,2.1,2.9,3l1.9,1.6l2.1-1.7c0.9-0.7,1.7-1.6,2.4-2.5l1.3-1.7
	c0.7-0.9,0.8-2.2,0.2-3.1l-0.2-0.4C125.1,509.8,124.3,509.4,123.4,509.4z"/>
<rect x="890" y="501.5" class="st30" width="326" height="26.5"/>
<path class="st31" d="M909.5,509.4h-0.4c-0.9,0-1.7,0.5-2.2,1.3l-1,1.7l-1-1.7c-0.5-0.8-1.3-1.3-2.2-1.3h-0.4
	c-0.9,0-1.7,0.5-2.2,1.2l-0.2,0.4c-0.6,1-0.5,2.2,0.2,3.1l1.1,1.5c0.8,1.1,1.8,2.1,2.9,3l1.9,1.6l2.1-1.7c0.9-0.7,1.7-1.6,2.4-2.5
	l1.3-1.7c0.7-0.9,0.8-2.2,0.2-3.1l-0.2-0.4C911.2,509.8,910.4,509.4,909.5,509.4z"/>
<rect x="594.6" y="520.4" class="st30" width="147.7" height="26.5"/>
<path class="st31" d="M614.2,528.3h-0.4c-0.9,0-1.7,0.5-2.2,1.3l-1,1.7l-1-1.7c-0.5-0.8-1.3-1.3-2.2-1.3h-0.4
	c-0.9,0-1.7,0.5-2.2,1.2l-0.2,0.4c-0.6,1-0.5,2.2,0.2,3.1l1.1,1.5c0.8,1.1,1.8,2.1,2.9,3l1.9,1.6l2.1-1.7c0.9-0.7,1.7-1.6,2.4-2.5
	l1.3-1.7c0.7-0.9,0.8-2.2,0.2-3.1l-0.2-0.4C615.9,528.7,615.1,528.3,614.2,528.3z"/>
<rect x="103.9" y="792.2" class="st30" width="326" height="26.5"/>
<path class="st31" d="M123.4,800H123c-0.9,0-1.7,0.5-2.2,1.3l-1,1.7l-1-1.7c-0.5-0.8-1.3-1.3-2.2-1.3h-0.4c-0.9,0-1.7,0.5-2.2,1.2
	l-0.2,0.4c-0.6,1-0.5,2.2,0.2,3.1l1.1,1.5c0.8,1.1,1.8,2.1,2.9,3l1.9,1.6l2.1-1.7c0.9-0.7,1.7-1.6,2.4-2.5l1.3-1.7
	c0.7-0.9,0.8-2.2,0.2-3.1l-0.2-0.4C125.1,800.5,124.3,800,123.4,800z"/>
<text transform="matrix(1 0 0 1 133.3335 810.7917)" class="st28" style="font-family:'DINMittelschriftStd'; font-size:14px;">615,021</text>
<g>
	<path class="st28" d="M136.9,510.2h1.6l-2.1,4.2h0c0.2-0.1,0.5-0.1,0.8-0.1c1.3,0,2.4,0.8,2.4,2.8c0,2.3-1.5,3.2-2.9,3.2
		c-1.4,0-2.8-1.2-2.8-3c0-0.6,0.1-1.2,0.4-1.7L136.9,510.2z M135.3,517.1c0,1.1,0.6,1.6,1.4,1.6c0.7,0,1.4-0.4,1.4-1.6
		c0-1.1-0.6-1.6-1.4-1.6S135.3,516,135.3,517.1z"/>
	<path class="st28" d="M142.8,511.7l-1.4,1v-1.5l1.4-1h1.4v10h-1.4V511.7z"/>
	<path class="st28" d="M147.5,510.2h5.3v1.4h-4v2.3c0.5-0.4,1-0.5,1.6-0.5c0.8,0,1.4,0.3,1.8,0.7c0.5,0.6,0.8,1.1,0.8,2.7
		c0,1.3-0.2,1.8-0.6,2.4c-0.4,0.5-1.2,1.1-2.2,1.1c-1.3,0-2.7-0.7-2.9-2.6h1.4c0.2,0.7,0.6,1.2,1.4,1.2c1.4,0,1.4-1.2,1.4-2.1
		c0-1.1-0.3-1.9-1.4-1.9c-0.5,0-1,0.2-1.3,0.8h-1.3V510.2z"/>
	<path class="st28" d="M154.5,518.7h1.4v1.4l-1.4,1V518.7z"/>
	<path class="st28" d="M157.4,512.9c0-1.8,1.4-2.9,2.8-2.9s2.8,1,2.8,2.9v4.4c0,1.8-1.4,2.9-2.8,2.9s-2.8-1-2.8-2.9V512.9z
		 M161.6,513c0-1-0.6-1.5-1.4-1.5s-1.4,0.6-1.4,1.5v4.2c0,1,0.6,1.5,1.4,1.5s1.4-0.6,1.4-1.5V513z"/>
	<path class="st28" d="M164,518.8l3.9-4.9c0.3-0.4,0.4-0.7,0.4-1c0-0.7-0.5-1.4-1.4-1.4c-0.8,0-1.4,0.5-1.5,1.4H164
		c0-1.6,1.3-2.9,2.8-2.9c1.7,0,2.9,1.3,2.9,2.9c0,0.7-0.2,1.2-0.6,1.8l-3.2,4h3.8v1.4H164V518.8z"/>
	<path class="st28" d="M173,511.7l-1.4,1v-1.5l1.4-1h1.4v10H173V511.7z"/>
	<path class="st28" d="M181.3,510.2h1.4v8.1c0,0.3,0.2,0.5,0.5,0.5h0.5v1.3h-0.6c-1,0-1.8-0.4-1.8-1.7V510.2z"/>
	<path class="st28" d="M185,510.2h1.4v1.4H185V510.2z M185,513h1.4v7.1H185V513z"/>
	<path class="st28" d="M188.3,510.2h1.4v6.2h0l2.7-3.3h1.7l-2.5,2.8l2.8,4.3h-1.8l-1.9-3.3l-1.1,1.3v2h-1.4V510.2z"/>
	<path class="st28" d="M196.4,517.1c0,1.2,0.7,1.8,1.7,1.8c0.5,0,1.1-0.3,1.6-0.7l1,0.9c-0.7,0.8-1.6,1.1-2.6,1.1
		c-1.5,0-3.2-0.7-3.2-3.6c0-2.8,1.6-3.7,2.9-3.7c1.6,0,2.9,1.2,2.9,3v1.2H196.4z M199.4,515.9c0-1.1-0.7-1.7-1.5-1.7
		s-1.5,0.6-1.5,1.7H199.4z"/>
	<path class="st28" d="M202.6,518c0.6,0.6,1.3,0.9,2.2,0.9c0.8,0,1.4-0.3,1.4-0.9c0-0.5-0.4-0.7-0.9-0.7l-1.3-0.1
		c-1.2-0.1-2-0.8-2-2c0-1.4,1.1-2.2,2.6-2.2c1.2,0,2.1,0.4,2.8,1l-0.9,1c-0.6-0.4-1.1-0.7-1.9-0.7c-0.9,0-1.2,0.4-1.2,0.9
		c0,0.3,0.2,0.6,0.9,0.7l1.2,0.1c1.5,0.1,2.1,1,2.1,2.1c0,1.4-1.3,2.2-2.9,2.2c-1.1,0-2.2-0.4-3.1-1.3L202.6,518z"/>
</g>
<g>
	<path class="st28" d="M626.9,530.6l-1.4,1v-1.5l1.4-1h1.4v10h-1.4V530.6z"/>
	<path class="st28" d="M631.6,529h5.3v1.4h-4v2.3c0.5-0.4,1-0.5,1.6-0.5c0.8,0,1.4,0.3,1.8,0.7c0.5,0.6,0.8,1.1,0.8,2.7
		c0,1.3-0.2,1.8-0.6,2.4c-0.4,0.5-1.2,1.1-2.2,1.1c-1.3,0-2.7-0.7-2.9-2.6h1.4c0.2,0.7,0.6,1.2,1.4,1.2c1.4,0,1.4-1.2,1.4-2.1
		c0-1.1-0.3-1.9-1.4-1.9c-0.5,0-1,0.2-1.3,0.8h-1.3V529z"/>
	<path class="st28" d="M638.6,537.6h1.4v1.4l-1.4,1V537.6z"/>
	<path class="st28" d="M641.4,537.7l3.9-4.9c0.3-0.4,0.4-0.7,0.4-1c0-0.7-0.5-1.4-1.4-1.4c-0.8,0-1.4,0.5-1.5,1.4h-1.4
		c0-1.6,1.3-2.9,2.8-2.9c1.7,0,2.9,1.3,2.9,2.9c0,0.7-0.2,1.2-0.6,1.8l-3.2,4h3.8v1.4h-5.7V537.7z"/>
	<path class="st28" d="M650.2,533.2h0.5c1,0,1.5-0.6,1.5-1.4s-0.7-1.4-1.5-1.4c-0.6,0-1.2,0.4-1.4,1.2h-1.4c0.1-1.4,1.3-2.6,2.7-2.6
		c1.8,0,2.9,1.4,2.9,2.8c0,0.8-0.2,1.5-1.1,2.1c0.8,0.5,1.2,1.4,1.2,2.2c0,1.8-1.3,3.1-3,3.1c-1.3,0-2.6-0.9-2.8-2.6h1.4
		c0.3,0.7,0.7,1.1,1.5,1.1c0.8,0,1.5-0.6,1.5-1.6c0-1-0.7-1.6-1.5-1.6h-0.6V533.2z"/>
	<path class="st28" d="M657.1,530.6l-1.4,1v-1.5l1.4-1h1.4v10h-1.4V530.6z"/>
	<path class="st28" d="M665.4,529h1.4v8.1c0,0.3,0.2,0.5,0.5,0.5h0.5v1.3h-0.6c-1,0-1.8-0.4-1.8-1.7V529z"/>
	<path class="st28" d="M669.1,529h1.4v1.4h-1.4V529z M669.1,531.9h1.4v7.1h-1.4V531.9z"/>
	<path class="st28" d="M672.4,529h1.4v6.2h0l2.7-3.3h1.7l-2.5,2.8l2.8,4.3h-1.8l-1.9-3.3l-1.1,1.3v2h-1.4V529z"/>
	<path class="st28" d="M680.6,536c0,1.2,0.7,1.8,1.7,1.8c0.5,0,1.1-0.3,1.6-0.7l1,0.9c-0.7,0.8-1.6,1.1-2.6,1.1
		c-1.5,0-3.2-0.7-3.2-3.6c0-2.8,1.6-3.7,2.9-3.7c1.6,0,2.9,1.2,2.9,3v1.2H680.6z M683.6,534.8c0-1.1-0.7-1.7-1.5-1.7
		c-0.8,0-1.5,0.6-1.5,1.7H683.6z"/>
	<path class="st28" d="M686.7,536.8c0.6,0.6,1.3,0.9,2.2,0.9c0.8,0,1.4-0.3,1.4-0.9c0-0.5-0.4-0.7-0.9-0.7l-1.3-0.1
		c-1.2-0.1-2-0.8-2-2c0-1.4,1.1-2.2,2.6-2.2c1.2,0,2.1,0.4,2.8,1l-0.9,1c-0.6-0.4-1.1-0.7-1.9-0.7c-0.9,0-1.2,0.4-1.2,0.9
		c0,0.3,0.2,0.6,0.9,0.7l1.2,0.1c1.5,0.1,2.1,1,2.1,2.1c0,1.4-1.3,2.2-2.9,2.2c-1.1,0-2.2-0.4-3.1-1.3L686.7,536.8z"/>
</g>
<g>
	<path class="st28" d="M923.9,520.1h-1.6l2.1-4.2h0c-0.2,0.1-0.5,0.1-0.8,0.1c-1.3,0-2.4-0.8-2.4-2.8c0-2.3,1.5-3.2,2.9-3.2
		c1.4,0,2.8,1.2,2.8,3c0,0.6-0.1,1.2-0.4,1.7L923.9,520.1z M925.5,513.1c0-1.1-0.6-1.6-1.4-1.6c-0.7,0-1.4,0.4-1.4,1.6
		c0,1.1,0.6,1.6,1.4,1.6S925.5,514.3,925.5,513.1z"/>
	<path class="st28" d="M931,510.2h1.6l-2.1,4.2h0c0.2-0.1,0.5-0.1,0.8-0.1c1.3,0,2.4,0.8,2.4,2.8c0,2.3-1.5,3.2-2.9,3.2
		c-1.4,0-2.8-1.2-2.8-3c0-0.6,0.1-1.2,0.4-1.7L931,510.2z M929.4,517.1c0,1.1,0.6,1.6,1.4,1.6c0.7,0,1.4-0.4,1.4-1.6
		c0-1.1-0.6-1.6-1.4-1.6S929.4,516,929.4,517.1z"/>
	<path class="st28" d="M935.2,518.7h1.4v1.4l-1.4,1V518.7z"/>
	<path class="st28" d="M938.1,512.9c0-1.8,1.4-2.9,2.8-2.9s2.8,1,2.8,2.9v4.4c0,1.8-1.4,2.9-2.8,2.9s-2.8-1-2.8-2.9V512.9z
		 M942.3,513c0-1-0.6-1.5-1.4-1.5c-0.8,0-1.4,0.6-1.4,1.5v4.2c0,1,0.6,1.5,1.4,1.5c0.8,0,1.4-0.6,1.4-1.5V513z"/>
	<path class="st28" d="M946.7,514.4h0.5c1,0,1.5-0.6,1.5-1.4s-0.7-1.4-1.5-1.4c-0.6,0-1.2,0.4-1.4,1.2h-1.4c0.1-1.4,1.3-2.6,2.7-2.6
		c1.8,0,2.9,1.4,2.9,2.8c0,0.8-0.2,1.5-1.1,2.1c0.8,0.5,1.2,1.4,1.2,2.2c0,1.8-1.3,3.1-3,3.1c-1.3,0-2.6-0.9-2.8-2.6h1.4
		c0.3,0.7,0.7,1.1,1.5,1.1c0.8,0,1.5-0.6,1.5-1.6c0-1-0.7-1.6-1.5-1.6h-0.6V514.4z"/>
	<path class="st28" d="M951.2,517.3l3.3-7.1h1.6l-3.4,7.1h2.6v-2.9h1.4v2.9h0.8v1.3h-0.8v1.5h-1.4v-1.5h-4.2V517.3z"/>
	<path class="st28" d="M958.7,518.7h1.4v1.4l-1.4,1V518.7z"/>
	<path class="st28" d="M964.6,510.2h1.6l-2.1,4.2h0c0.2-0.1,0.5-0.1,0.8-0.1c1.3,0,2.4,0.8,2.4,2.8c0,2.3-1.5,3.2-2.9,3.2
		c-1.4,0-2.8-1.2-2.8-3c0-0.6,0.1-1.2,0.4-1.7L964.6,510.2z M963,517.1c0,1.1,0.6,1.6,1.4,1.6c0.7,0,1.4-0.4,1.4-1.6
		c0-1.1-0.6-1.6-1.4-1.6S963,516,963,517.1z"/>
	<path class="st28" d="M968.5,510.2h5.3v1.4h-4v2.3c0.5-0.4,1-0.5,1.6-0.5c0.8,0,1.4,0.3,1.8,0.7c0.5,0.6,0.8,1.1,0.8,2.7
		c0,1.3-0.2,1.8-0.6,2.4c-0.4,0.5-1.2,1.1-2.2,1.1c-1.3,0-2.7-0.7-2.9-2.6h1.4c0.2,0.7,0.6,1.2,1.4,1.2c1.4,0,1.4-1.2,1.4-2.1
		c0-1.1-0.3-1.9-1.4-1.9c-0.5,0-1,0.2-1.3,0.8h-1.3V510.2z"/>
	<path class="st28" d="M974.7,517.3l3.3-7.1h1.6l-3.4,7.1h2.6v-2.9h1.4v2.9h0.8v1.3h-0.8v1.5h-1.4v-1.5h-4.2V517.3z"/>
	<path class="st28" d="M985.5,510.2h1.4v8.1c0,0.3,0.2,0.5,0.5,0.5h0.5v1.3h-0.6c-1,0-1.8-0.4-1.8-1.7V510.2z"/>
	<path class="st28" d="M989.2,510.2h1.4v1.4h-1.4V510.2z M989.2,513h1.4v7.1h-1.4V513z"/>
	<path class="st28" d="M992.5,510.2h1.4v6.2h0l2.7-3.3h1.7l-2.5,2.8l2.8,4.3h-1.8l-1.9-3.3l-1.1,1.3v2h-1.4V510.2z"/>
	<path class="st28" d="M1000.7,517.1c0,1.2,0.7,1.8,1.7,1.8c0.5,0,1.1-0.3,1.6-0.7l1,0.9c-0.7,0.8-1.6,1.1-2.6,1.1
		c-1.5,0-3.2-0.7-3.2-3.6c0-2.8,1.6-3.7,2.9-3.7c1.6,0,2.9,1.2,2.9,3v1.2H1000.7z M1003.7,515.9c0-1.1-0.7-1.7-1.5-1.7
		c-0.8,0-1.5,0.6-1.5,1.7H1003.7z"/>
	<path class="st28" d="M1006.8,518c0.6,0.6,1.3,0.9,2.2,0.9c0.8,0,1.4-0.3,1.4-0.9c0-0.5-0.4-0.7-0.9-0.7l-1.3-0.1
		c-1.2-0.1-2-0.8-2-2c0-1.4,1.1-2.2,2.6-2.2c1.2,0,2.1,0.4,2.8,1l-0.9,1c-0.6-0.4-1.1-0.7-1.9-0.7c-0.9,0-1.2,0.4-1.2,0.9
		c0,0.3,0.2,0.6,0.9,0.7l1.2,0.1c1.5,0.1,2.1,1,2.1,2.1c0,1.4-1.3,2.2-2.9,2.2c-1.1,0-2.2-0.4-3.1-1.3L1006.8,518z"/>
</g>
<text transform="matrix(1 0 0 1 193.8882 673.1174)" class="st28" style="font-family:'DINMittelschriftStd'; font-size:14px;">615,021</text>
<g>
	<defs>
		<rect id="SVGID_8_" x="103.9" y="134.8" width="326" height="356.2"/>
	</defs>
	<use xlink:href="#SVGID_8_"  style="overflow:visible;fill:#DDDDD3;"/>
	<clipPath id="SVGID_9_">
		<use xlink:href="#SVGID_8_"  style="overflow:visible;"/>
	</clipPath>
	<line class="st32" x1="343.9" y1="242.6" x2="429.9" y2="134.8"/>
	<rect x="188.8" y="242.6" class="st32" width="155.1" height="146.1"/>
	<line class="st32" x1="103.9" y1="491" x2="188.8" y2="388.7"/>
	<g class="st33">
		<circle class="st4" cx="267.7" cy="233.3" r="26.1"/>
		<path class="st4" d="M252.1,247l-7.3,12.2c-0.7,1.1-1.8,1.8-3.1,1.9l-15.5,0.9c-0.3,0-0.7,0-1-0.1l-33.3-6.8
			c-5-1-9.9-2.7-14.5-4.9l-24.9-12.1c-10.7-5.2-20.4-12.2-28.8-20.7l-51.4-52.5c-2.4-2.5-6.7-0.8-6.7,2.7l0.4,106.3
			c0,1.6,1,3.1,2.6,3.6l21,7.4c0.1,0,0.3,0.1,0.4,0.1l26.8,6.2c6.5,1.5,13.2,2.2,19.9,2.1l39.2-0.7c3.4-0.1,6.9-0.5,10.2-1.3
			l35.8-8.9c1.1-0.3,1.9,1,1.2,1.9L205.7,305c-0.1,0.1-0.2,0.2-0.2,0.3l-8.6,12.3c-4,5.8-8.9,10.9-14.5,15.1l-12.5,9.5
			c-1.3,1-2.6,1.8-3.9,2.7l-21.4,13c-3.3,2-6.7,3.7-10.3,5.1l-27.5,10.9c-0.1,0-0.2,0.1-0.3,0.1l-46.4,14c-1.9,0.6-3.1,2.6-2.7,4.5
			l21.4,99.8c0.7,3.2,4.7,4.2,6.8,1.7l29.1-34.6c0-0.1,0.1-0.1,0.1-0.2l30.5-40.5c3.9-5.1,8.1-9.9,12.8-14.3l16.1-15.1
			c2.2-2.1,4.3-4.4,6.1-6.9l23.8-31.8c0.8-1.1,2.2-1.7,3.6-1.5l4.3,0.6c1.9,0.2,3.3,1.8,3.4,3.6l2.1,37.2c0.1,2.1,0,4.2-0.3,6.3
			l-3.6,25l-4.4,24.4c-0.4,2.3-1,4.6-1.7,6.8l-15.3,47.6c-0.8,2.5,1.1,5.1,3.7,5.1l121.5-1.1c2.8,0,4.7-3,3.5-5.6l-19.6-40.8
			c-1.5-3.2-3.4-6.2-5.6-8.9l-7.1-8.8c-3.7-4.5-6.6-9.5-8.8-14.9l-6.7-16.7c-0.3-0.8-0.7-1.6-1.1-2.3l-7.2-14
			c-1.1-2.1-2-4.4-2.7-6.7l-4.3-15.4c-0.4-1.4-0.7-2.8-0.8-4.2l0,0c-1.8-14-0.5-28.2,3.9-41.6l2.3-7L270,295
			c0.5-1.8,2.6-2.6,4.2-1.6l25.6,15.2c2.1,1.3,4.4,2.4,6.7,3.2l16.5,6.2c1.7,0.6,3.4,1.1,5.2,1.3l36.3,5.1l97.9,10
			c2.4,0.2,4.4-1.7,4.3-4.1l-10.3-153.3c-0.2-3-3.5-4.6-6-3l-56.5,36.4c-2,1.3-3.9,2.7-5.8,4.1l-14.6,11.4c-3.4,2.6-7,4.8-10.8,6.6
			l-18.6,8.8c-1.4,0.7-2.8,1.4-4.2,2.2L318,256.8c-0.2,0.1-0.5,0.3-0.7,0.3l-26,8.7c-0.4,0.1-0.8,0.2-1.2,0.2h-12.2
			c-1.6,0-3-1-3.6-2.5l-3.5-9"/>
		<path class="st4" d="M261.5,213.7l3-7.3c1.8-4.3,7.7-4.7,10-0.7l1.9,3.2"/>
		<path class="st4" d="M257.8,223.5l9.9-3.1c0.5-0.1,1,0,1.3,0.3l6.5,6.3"/>
	</g>
	<line class="st32" x1="343.9" y1="388.7" x2="429.9" y2="491"/>
	<line class="st32" x1="188.8" y1="242.6" x2="103.9" y2="134.8"/>
	<path class="st34" d="M201,311.2l11.7-0.7c0.7,0,1.4,0,2.1,0.1l11.7,2c0.8,0.1,1.6,0.4,2.4,0.7l18.6,7.3c2.6,1,5.1,2.4,7.3,4.2
		l4.7,3.7"/>
	<path class="st34" d="M193.2,255.7l2.3,5.5c0.3,0.7,0.4,1.4,0.5,2.1l0.6,10.9c0,0.8,0,1.6-0.2,2.4l-2.4,13"/>
	<path class="st34" d="M315.8,257.5l-6.9,15.7c-0.5,1.2-0.9,2.4-1.2,3.7l-0.6,2.8c-0.1,0.7-0.2,1.5-0.3,2.3l-0.3,7.8
		c0,0.8,0,1.7,0.2,2.5l3.3,20.7"/>
	<path class="st34" d="M240.3,261.7l0.4,1.6c0.7,2.8,2.4,5.3,4.9,6.8l2.9,1.9c2.2,1.4,4.8,2.1,7.4,1.9l7.9-0.6
		c1.3-0.1,2.6-0.4,3.7-0.9l13.9-6.3"/>
	<use xlink:href="#SVGID_8_"  style="overflow:visible;fill:none;stroke:#000000;stroke-miterlimit:10;"/>
</g>
<path class="st12" d="M-143.4,344.5l-0.2-0.3c-8.6-14.9-9-32.9-2-48.7c2.4-5.3,3.6-11.3,3.2-17.6c-1.1-19.5-17.2-35.1-36.7-35.7
	c-21.5-0.7-39.2,16.6-39.2,38c0,6.1,1.4,11.8,4,16.9c8,16.1,8.1,35,0,51.1l0,0l-56.9,81.9c-3.6,5.2-5.1,11.6-4.2,17.8l5.5,36.5
	c1.1,7.1,8.4,11.3,15.1,8.8l0,0l-0.7-36.9c-0.2-9.1,3.1-17.8,9.3-24.5l15.3-16.6c4-4.3,11.2-1.4,11.1,4.5l-5.2,203.1
	c-0.1,5.2,4,9.4,9.2,9.4h8.6l20.9-105.5c0.6-3.2,3.4-5.5,6.7-5.5h14.1c3.7,0,6.9,2.6,7.7,6.2l23.6,104.8h9.9c5.4,0,9.7-4.6,9.4-10
	l-14.2-201.5c-0.3-3.6,4.2-5.6,6.7-2.9l15.9,17.3c6,6.5,9.2,15.1,9,23.9l-0.7,37.3l0,0c6.7,2.6,14-1.7,15.1-8.8l5.9-39.3
	c0.7-4.4-0.4-9-3-12.7L-143.4,344.5z"/>
</svg>
