<?xml version="1.0" encoding="utf-8"?>
<!-- Generator: Adobe Illustrator 22.0.1, SVG Export Plug-In . SVG Version: 6.00 Build 0)  -->
<svg version="1.1" id="Layer_1" xmlns="http://www.w3.org/2000/svg" xmlns:xlink="http://www.w3.org/1999/xlink" x="0px" y="0px"
	 viewBox="0 0 1340 630" style="enable-background:new 0 0 1340 630;" xml:space="preserve">
<style type="text/css">
	.st0{fill:#E7E7E7;stroke:#000000;stroke-miterlimit:10;}
	.st1{clip-path:url(#SVGID_3_);}
	.st2{fill:#F8A079;}
	.st3{fill:none;stroke:#000000;stroke-miterlimit:10;}
	.st4{clip-path:url(#SVGID_3_);fill:#9AAF92;stroke:#000000;stroke-miterlimit:10;}
	.st5{clip-path:url(#SVGID_3_);fill:#BACEB2;stroke:#000000;stroke-miterlimit:10;}
	.st6{clip-path:url(#SVGID_3_);fill:#9AAF92;stroke:#000000;stroke-linejoin:round;stroke-miterlimit:10;}
	.st7{clip-path:url(#SVGID_3_);fill:#F2DCA5;}
	.st8{clip-path:url(#SVGID_3_);fill:none;stroke:#000000;stroke-miterlimit:10;}
	.st9{clip-path:url(#SVGID_3_);fill:#F2F2F2;stroke:#000000;stroke-miterlimit:10;}
	.st10{fill:#424143;}
	.st11{fill:#EF5B49;stroke:#000000;stroke-miterlimit:10;}
	.st12{fill:#E7E7E7;}
	.st13{fill:none;}
	.st14{enable-background:new    ;}
	.st15{display:none;}
	.st16{display:inline;fill:#F8A079;stroke:#000000;stroke-miterlimit:10;}
	.st17{display:inline;fill:#F2F2F2;stroke:#000000;stroke-miterlimit:10;}
	.st18{display:inline;}
	.st19{fill:#CFD9C5;stroke:#000000;stroke-miterlimit:10;}
	.st20{display:inline;fill:#EF5B49;stroke:#000000;stroke-miterlimit:10;}
	.st21{display:inline;fill:none;stroke:#000000;stroke-miterlimit:10;}
	.st22{display:inline;fill:#E8E7E7;stroke:#000000;stroke-miterlimit:10;}
	.st23{display:inline;fill:#CFD9C5;stroke:#000000;stroke-miterlimit:10;}
	.st24{clip-path:url(#SVGID_5_);}
	.st25{fill:#BFDDA1;}
	.st26{font-family:'Inconsolata-Regular';}
	.st27{font-size:113.6883px;}
	.st28{fill:#414143;stroke:#000000;stroke-miterlimit:10;}
	.st29{fill:#9AAF92;stroke:#000000;stroke-miterlimit:10;}
	.st30{fill:#DD796F;stroke:#000000;stroke-miterlimit:10;}
</style>
<rect x="890" y="501.5" class="st0" width="326" height="26.5"/>
<g>
	<defs>
		<rect id="SVGID_2_" x="890" y="134.8" width="326" height="356.2"/>
	</defs>
	<use xlink:href="#SVGID_2_"  style="overflow:visible;fill:#DDDDD3;"/>
	<clipPath id="SVGID_3_">
		<use xlink:href="#SVGID_2_"  style="overflow:visible;"/>
	</clipPath>
	<g class="st1">
		<path class="st2" d="M1185.1,251c0,3.2-1.7,6.3-2.9,9.1c-1.2,2.9-2.4,6.1-4.6,8.2c-2.2,2.2-5.2,3.7-8.1,5c-2.8,1.2-6,1.1-9.2,1.1
			c-3.2,0-6.2-0.5-9-1.7c-2.9-1.2-5.9-2.4-8.1-4.6c-2.2-2.2-3-5.4-4.2-8.3c-1.2-2.8-2.8-5.6-2.8-8.8c0-3.2,0.4-6.5,1.6-9.3
			c1.2-2.9,4.2-4.6,6.4-6.8c2.2-2.2,4.3-4.1,7.3-5.3c2.8-1.2,5.7-2.3,8.9-2.3c3.2,0,6.1,1.2,8.9,2.3c2.9,1.2,5,3.2,7.2,5.4
			c2.2,2.2,3.8,4.5,5,7.4C1182.6,245.1,1185.1,247.8,1185.1,251z"/>
		<path class="st3" d="M1185.1,251c0,3.2-1.7,6.3-2.9,9.1c-1.2,2.9-2.4,6.1-4.6,8.2c-2.2,2.2-5.2,3.7-8.1,5c-2.8,1.2-6,1.1-9.2,1.1
			c-3.2,0-6.2-0.5-9-1.7c-2.9-1.2-5.9-2.4-8.1-4.6c-2.2-2.2-3-5.4-4.2-8.3c-1.2-2.8-2.8-5.6-2.8-8.8c0-3.2,0.4-6.5,1.6-9.3
			c1.2-2.9,4.2-4.6,6.4-6.8c2.2-2.2,4.3-4.1,7.3-5.3c2.8-1.2,5.7-2.3,8.9-2.3c3.2,0,6.1,1.2,8.9,2.3c2.9,1.2,5,3.2,7.2,5.4
			c2.2,2.2,3.8,4.5,5,7.4C1182.6,245.1,1185.1,247.8,1185.1,251z"/>
	</g>
	<path class="st4" d="M1126.4,373.7c-5.9-2.3-6.5-10.4-1.1-13.6l38.4-22.8c0.5-0.3,14.1-15.7,18.5-20.7c0.9-1,2-1.7,3.3-2.2l37.2-12
		c5.6-1.8,11,3.1,9.8,8.8l-13.6,63.3c-0.2,1-0.7,2-1.3,2.8l-14.6,20.3c-2,2.8-5.7,3.9-8.9,2.6L1126.4,373.7z"/>
	<path class="st4" d="M980.5,360.9l-53.1-26c-2.1-1-4.4-1.3-6.7-0.9l-88.7,18l-1.7,36L980.5,360.9z"/>
	<polygon class="st5" points="829.6,368.6 918.6,366.1 980.5,360.9 1060.7,368.6 1228.7,360.2 1224.6,565.6 836.1,563.3 	"/>
	<path class="st4" d="M1042.4,385.3l-22.7,32.2c-13.6,22.1-51.5,33.7-75.7,43l-88.5,34.3c-3.9,1.5-6.6,5.1-7,9.3l-4.5,53.7
		c-0.5,6.2,4.2,11.5,10.4,11.8l257.9,12.8c6.7,0.3,12.1-5.4,11.4-12.1l0,0c-0.1-0.5-0.2-1.1-0.3-1.6l-11.3-44
		c-4.7-18.4-7.3-37.2-7.8-56.2l-0.1-5.3c-0.1-4.1-0.3-8.2-0.7-12.3l-30.8-64.9"/>
	<path class="st5" d="M1164.6,362.3l-11.9-21.9c-0.1-0.1-0.2-0.3-0.2-0.4l-12.2-26.4c-0.1-0.3-0.3-0.6-0.5-0.9l-11.7-18.3
		c-0.3-0.5-0.6-1.1-0.8-1.7l-4.3-12.6c-1.1-3.3-4.3-5.4-7.8-5.3l-1,0c-2,0.1-4,1-5.3,2.5l-6.1,6.6c-0.7,0.7-1.2,1.5-1.5,2.4l-6,15.2
		c-0.5,1.3-1.4,2.4-2.4,3.3l-19.1,14.9c-1.5,1.1-3.3,1.7-5.1,1.6l-20.8-0.8c-0.6,0-1.1-0.1-1.7-0.3l-30.8-8.2
		c-2.5-0.7-4.6-2.6-5.4-5.1l-5.9-17.7c-0.1-0.3-0.2-0.6-0.2-0.9l-2.7-13c-0.9-4.5-5.6-7.3-10-5.8l0,0c-1.7,0.6-3.2,1.7-4.2,3.3
		l-18.8,30.3c-0.5,0.8-0.9,1.8-1.1,2.8l-5.4,31.1c-0.1,0.6-0.3,1.2-0.5,1.8l-9.8,22.5c-0.7,1.5,0.2,3.3,1.8,3.6l81.8,19.8
		c0.5,0.1,1.1,0.2,1.6,0.2l43.4,1.3c0.8,0,1.5-0.1,2.2-0.3l81.5-21.7C1164.6,364.1,1165.1,363.1,1164.6,362.3z"/>
	<path class="st4" d="M995.7,348.9l6.4,50.2c0.2,1.4,1.4,2.5,2.9,2.4l1.9-0.1l-4.5-51.8L995.7,348.9z"/>
	<path class="st4" d="M1099.6,350.1l7.7-1.5l-3.8,51.7c-0.1,1.2-1.1,2.1-2.2,2.1h-2.2L1099.6,350.1z"/>
	<polygon class="st5" points="987,349.7 1048.6,358.4 1111.6,350.1 1110.3,346.4 1047.6,354.1 988.6,344.1 	"/>
	<polygon class="st6" points="1020.6,335.3 988.6,344.1 1047.6,354.1 1110.3,346.4 1083.6,336.1 1049.4,339.3 	"/>
	<polyline class="st7" points="1042.5,384.8 1037.5,360.4 1052.6,360.8 1057.6,361.5 1076,359.8 1072.9,385.7 	"/>
	<polyline class="st8" points="1042.4,385.3 1037.5,360.6 1052.5,361 1057.6,361.7 1076,359.9 1072.8,386.1 	"/>
	<line class="st8" x1="1057.1" y1="385.7" x2="1055.7" y2="361.7"/>
	<path class="st9" d="M977,309.2l-2.3,1.6c-1.2,0.8-2,2.1-2.3,3.5l-1.9,10.4l-2.4,13.1c-0.4,2.3,0.7,4.6,2.8,5.8l0.7,0.4
		c2,1.1,4.4,0.8,6.1-0.6l2.5-2.1c0.7-0.6,1.3-1.4,1.6-2.3l4.6-12.1c0.3-0.8,0.4-1.7,0.3-2.6l-1.3-11.3c-0.2-1.9-1.4-3.5-3.1-4.3l0,0
		C980.7,307.9,978.7,308.1,977,309.2z"/>
	<line class="st5" x1="972.1" y1="344.2" x2="981" y2="308.5"/>
	<line class="st5" x1="970.8" y1="323.8" x2="985.6" y2="328.7"/>
	<path class="st9" d="M1125.5,319.1l-1.1,2.3c-0.4,0.9-0.6,1.9-0.5,2.9l1,7.6c0.1,0.8,0.4,1.5,0.8,2.2l9.8,14.3
		c1,1.4,2.6,2.2,4.3,2.2l3-0.1c2.4-0.1,4.4-1.8,4.8-4.1l0,0c0.2-1,0.1-2-0.3-2.9l-6.2-14.4c-0.1-0.3-0.3-0.5-0.4-0.8l-6.4-9.6
		c-0.5-0.8-1.3-1.4-2.2-1.8l0,0C1129.6,315.7,1126.7,316.7,1125.5,319.1z"/>
	<line class="st5" x1="1128.6" y1="316.5" x2="1145.9" y2="349.3"/>
	<line class="st5" x1="1142.3" y1="331.7" x2="1128.6" y2="338.2"/>
	<path class="st9" d="M991.9,272.7c0.4,1.1,1.5,2,2.6,2.2c0.5,0.1,1.5,0.3,3.1-0.5c3-1.5,2.9-3.8,5.5-6.5c2.9-3.1,4.7-1.8,7.8-5.1
		c1.3-1.4,3.1-3.4,3-6.1c-0.1-2.9-2.5-5.4-4.9-6.4c-3.6-1.5-7.2,0.5-9,1.5c-1.2,0.6-4.8,2.7-6,6.6c-0.9,3.2,0.8,3.8-0.1,7.6
		C993,269.5,991.1,270.7,991.9,272.7z"/>
	<g class="st1">
		<path class="st10" d="M905.8,189.4h7l22.2,34.8h0.1v-34.8h7.4v49h-7l-22.2-34.8h-0.1v34.8h-7.4V189.4z"/>
		<path class="st10" d="M952.9,189.4h31.3v7h-23.9v14h20.4v6.6h-20.4v14.4h23.9v7h-31.3V189.4z"/>
		<path class="st10" d="M1016.3,227.5h-18.6l-3.8,10.9h-7.8l17.8-49h6.2l17.8,49h-7.8L1016.3,227.5z M1014.1,220.9l-7.1-21.4h-0.1
			l-7.1,21.4H1014.1z"/>
		<path class="st10" d="M1033.1,189.4h19.1c4.1,0,7.4,1,10,3.2c2.8,2.3,4.9,6.1,4.9,10.5c0,6.3-3.6,11.5-9.5,13.6l11.4,21.7h-8.8
			l-10.1-20.9h-9.5v20.9h-7.4V189.4z M1040.5,210.9h11.2c5.6,0,8.3-3.6,8.3-7.8c0-2.5-1-4.5-2.5-5.6c-1.4-1-2.9-1.5-5.4-1.5h-11.6
			V210.9z"/>
		<path class="st10" d="M1100.1,218.3l-14.7-28.8h7.8l10.4,21.7l10.4-21.7h7.8l-14.7,28.8v20.2h-7V218.3z"/>
		<path class="st10" d="M1124.8,197.8c2.3-4.3,7.6-8.8,15.3-8.8s13,4.5,15.3,8.8c1.6,2.9,2.1,4.3,2.1,16.1c0,11.8-0.5,13.2-2.1,16.1
			c-2.3,4.3-7.6,8.8-15.3,8.8s-13-4.5-15.3-8.8c-1.6-2.9-2.1-4.3-2.1-16.1C1122.6,202.2,1123.2,200.7,1124.8,197.8z M1132.5,227.8
			c1.5,1.9,4.1,3.6,7.6,3.6c3.5,0,6.1-1.7,7.6-3.6c1.9-2.5,2.5-3.9,2.5-13.9c0-10-0.6-11.4-2.5-13.9c-1.5-1.9-4.1-3.6-7.6-3.6
			c-3.5,0-6.1,1.7-7.6,3.6c-1.9,2.5-2.5,3.9-2.5,13.9C1130.1,224,1130.6,225.4,1132.5,227.8z"/>
		<path class="st10" d="M1165.4,189.4h7.4V221c0,6.7,4.3,10.4,10,10.4c5.6,0,10-3.6,10-10.4v-31.6h7.4v32.4c0,10.2-7.7,17-17.4,17
			c-9.7,0-17.4-6.8-17.4-17V189.4z"/>
	</g>
	<path class="st9" d="M1019.8,248.7c-1.7-0.8-4.7-2.6-6.1-6c-2.6-6,1.4-13.1,5-16.1c2.8-2.4,4.7-1.8,7.5-4.9
		c2.1-2.4,2.3-4.2,3.5-6.5c2.9-5.7,9.2-9.8,15.2-11c1.6-0.3,10.4-2,16,3.8c4.5,4.6,4.1,11.1,4,13.5c-0.1,2-0.5,8.1-4.8,12.2
		c-6.4,6.3-13.7,0.6-22,7.2c-3.8,3-4.5,5.9-9,7.5C1025.6,249.7,1022.2,249.3,1019.8,248.7z"/>
	<g class="st1">
		<path class="st10" d="M908.7,175.7c2.4,1.9,5.6,3.2,9,3.2c3.9,0,6.3-1.8,6.3-4.4c0-2.2-1.3-3.9-4.1-4.3c-1.4-0.2-2.5-0.4-4.2-0.6
			c-5.5-0.8-8.4-4.3-8.4-8.9c0-5.4,3.8-9.3,10.3-9.3c3.9,0,7.4,1.4,10.3,3.3l-2.7,4c-2.3-1.5-5-2.4-7.8-2.4c-2.9,0-5.3,1.5-5.3,4.5
			c0,1.8,1.3,3.6,4.5,4c0.8,0.1,2,0.3,3.6,0.5c5.9,0.7,8.7,4.8,8.7,9.1c0,5.8-4.3,9.2-11.1,9.2c-4.7,0-8.8-1.4-12.1-4.4L908.7,175.7
			z"/>
		<path class="st10" d="M933.9,151.7h20.2v4.5h-15.4v9h13.2v4.3h-13.2v9.3h15.4v4.5h-20.2V151.7z"/>
		<path class="st10" d="M958.6,151.7h4.5l14.3,22.5h0.1v-22.5h4.8v31.7h-4.5l-14.3-22.5h-0.1v22.5h-4.8V151.7z"/>
		<path class="st10" d="M989.1,151.7h4.8v31.7h-4.8V151.7z"/>
		<path class="st10" d="M1000.8,157.2c1.5-2.8,4.9-5.7,9.9-5.7s8.4,2.9,9.9,5.7c1,1.9,1.4,2.8,1.4,10.4c0,7.6-0.4,8.5-1.4,10.4
			c-1.5,2.8-4.9,5.7-9.9,5.7s-8.4-2.9-9.9-5.7c-1-1.9-1.4-2.8-1.4-10.4C999.5,160,999.8,159,1000.8,157.2z M1005.9,176.6
			c1,1.2,2.6,2.3,4.9,2.3s3.9-1.1,4.9-2.3c1.2-1.6,1.6-2.5,1.6-9c0-6.5-0.4-7.4-1.6-9c-1-1.2-2.6-2.3-4.9-2.3s-3.9,1.1-4.9,2.3
			c-1.2,1.6-1.6,2.5-1.6,9C1004.3,174.1,1004.6,175,1005.9,176.6z"/>
		<path class="st10" d="M1027.7,151.7h12.4c2.7,0,4.8,0.6,6.5,2.1c1.8,1.5,3.2,3.9,3.2,6.8c0,4.1-2.3,7.4-6.1,8.8l7.3,14.1h-5.7
			l-6.5-13.5h-6.1v13.5h-4.8V151.7z M1032.5,165.6h7.3c3.6,0,5.4-2.4,5.4-5c0-1.6-0.6-2.9-1.6-3.6c-0.9-0.7-1.9-1-3.5-1h-7.5V165.6z
			"/>
		<path class="st10" d="M1082.9,169.6h-12.5v13.8h-4.8v-31.7h4.8v13.6h12.5v-13.6h4.8v31.7h-4.8V169.6z"/>
		<path class="st10" d="M1094.7,157.2c1.5-2.8,4.9-5.7,9.9-5.7c5,0,8.4,2.9,9.9,5.7c1,1.9,1.4,2.8,1.4,10.4c0,7.6-0.4,8.5-1.4,10.4
			c-1.5,2.8-4.9,5.7-9.9,5.7c-5,0-8.4-2.9-9.9-5.7c-1-1.9-1.4-2.8-1.4-10.4C1093.3,160,1093.6,159,1094.7,157.2z M1099.7,176.6
			c1,1.2,2.6,2.3,4.9,2.3c2.3,0,3.9-1.1,4.9-2.3c1.2-1.6,1.6-2.5,1.6-9c0-6.5-0.4-7.4-1.6-9c-1-1.2-2.6-2.3-4.9-2.3
			c-2.3,0-3.9,1.1-4.9,2.3c-1.2,1.6-1.6,2.5-1.6,9C1098.1,174.1,1098.4,175,1099.7,176.6z"/>
		<path class="st10" d="M1121.5,151.7h4.5l9.1,20.6l8.9-20.6h4.5v31.7h-4.8v-19.8h-0.1l-6.6,15.2h-4l-6.6-15.2h-0.1v19.8h-4.8V151.7
			z"/>
		<path class="st10" d="M1155.2,151.7h20.2v4.5H1160v9h13.2v4.3H1160v9.3h15.4v4.5h-20.2V151.7z"/>
		<path class="st10" d="M1180.4,175.7c2.4,1.9,5.6,3.2,9,3.2c3.9,0,6.3-1.8,6.3-4.4c0-2.2-1.3-3.9-4.1-4.3c-1.4-0.2-2.5-0.4-4.2-0.6
			c-5.5-0.8-8.4-4.3-8.4-8.9c0-5.4,3.8-9.3,10.3-9.3c3.9,0,7.4,1.4,10.3,3.3l-2.7,4c-2.3-1.5-5-2.4-7.8-2.4c-2.9,0-5.3,1.5-5.3,4.5
			c0,1.8,1.3,3.6,4.5,4c0.8,0.1,2,0.3,3.6,0.5c5.9,0.7,8.7,4.8,8.7,9.1c0,5.8-4.3,9.2-11.1,9.2c-4.7,0-8.8-1.4-12.1-4.4
			L1180.4,175.7z"/>
	</g>
	<use xlink:href="#SVGID_2_"  style="overflow:visible;fill:none;stroke:#000000;stroke-miterlimit:10;"/>
</g>
<g id="Layer_2_1_">
</g>
<rect x="3197" y="-894.2" class="st11" width="174.7" height="174.7"/>
<rect x="2978.7" y="-893.9" class="st11" width="174.7" height="174.7"/>
<rect x="2760.3" y="-893.5" class="st11" width="174.7" height="174.7"/>
<rect x="2542" y="-893.1" class="st11" width="174.7" height="174.7"/>
<rect x="2323.7" y="-892.8" class="st11" width="174.7" height="174.7"/>
<rect x="2105.3" y="-892.4" class="st11" width="174.7" height="174.7"/>
<rect x="3197" y="-701.7" class="st11" width="174.7" height="174.7"/>
<rect x="2978.7" y="-701.3" class="st11" width="174.7" height="174.7"/>
<rect x="2760.3" y="-701" class="st11" width="174.7" height="174.7"/>
<rect x="2542" y="-700.6" class="st11" width="174.7" height="174.7"/>
<rect x="2323.7" y="-700.3" class="st11" width="174.7" height="174.7"/>
<rect x="2105.3" y="-699.9" class="st11" width="174.7" height="174.7"/>
<rect x="3197" y="-508.5" class="st11" width="174.7" height="174.7"/>
<rect x="2978.7" y="-508.1" class="st11" width="174.7" height="174.7"/>
<rect x="2760.3" y="-507.8" class="st11" width="174.7" height="174.7"/>
<rect x="2542" y="-507.4" class="st11" width="174.7" height="174.7"/>
<rect x="2323.7" y="-507" class="st11" width="174.7" height="174.7"/>
<rect x="2105.3" y="-506.7" class="st11" width="174.7" height="174.7"/>
<g>
	<g>
		<g>
			<path class="st12" d="M2875.3-566.6c0,0,10.1,9.4,33.5,12.6v27.4h-117l0.1-23.9c0,0,19.9-0.7,33.5-14.7"/>
			<path class="st12" d="M2876-566c0,0,7,28.4-25.5,28.4s-28.6-24.4-28.6-24.4s3.6-4,9.4-7.4c11.5-6.7,34.6-5.3,42.9,2.1"/>
			<path class="st12" d="M2826.1-554.3c-1.7-23.8-0.4-32.8-0.4-32.8l50.2-0.7c0,0-0.7,31.1-2.1,33.9"/>
		</g>
		<path class="st0" d="M2818.5-623.1c0,0-2.1-2.1-4.2-1.1c-2.1,1.1-1.4,9.4,1.4,12.6c0,0-1.4,16.7,11.9,14.7"/>
		<path class="st0" d="M2882.5-622.4c0,0,2.1-2.1,4.2-1.1c2.1,1.1,1.4,9.4-1.4,12.6c0,0,1.4,16.7-11.9,14.7"/>
		<g>
			<path class="st0" d="M2825.5-565.1c-13.6,14-33.5,14.7-33.5,14.7s-31.6,0.1-31.6,25.2H2935c0-26.5-26.1-28.6-26.1-28.6
				c-23.4-3.1-33.5-12.6-33.5-12.6"/>
			<path class="st0" d="M2822-562c0,0-3.9,24.4,28.6,24.4s25.5-28.4,25.5-28.4"/>
			<path class="st0" d="M2876-587.8c0,0-0.7,31.1-2.1,33.9"/>
			<path class="st0" d="M2825.7-587.1c0,0-1.4,9.1,0.4,32.8"/>
		</g>
		<path class="st0" d="M2851-562c0,0-20.3,1.4-27.6-31.4c-1.5-6.7-3.9-14.4-3.9-24.1c0,0-1.7-54.8,31.4-54.8"/>
		<path class="st0" d="M2850.1-562c0,0,21.4,1.1,28.3-33.5c1.2-6.3,3.1-13.1,3.1-22c0,0,1.7-54.8-31.4-54.8"/>
		<path class="st0" d="M2819.3-618.2c0,0-7.2-15-4.7-25.5c2.4-10.3,9.8-26.9,34.2-28.6c24.4-1.7,38.1,22.8,38.1,32.5
			c0,10.1-5,22-5,22s-1.3-25.5-7.5-30.4c-9.4-7.3-23.8-5.6-23.8-5.6s-17.5-0.7-23.8,5.6C2820.5-641.9,2819.3-618.2,2819.3-618.2z"/>
		<path class="st3" d="M2838.6-586.1c0,0,8.7,1.7,11.9,1.7c3.1,0,9.8-1.1,11.2-1.4"/>
		<path class="st12" d="M2844.2-617.2c0,0-3.1-3.5-8.4-3.5s-7.3,4.2-7.3,4.2S2834.5-633.6,2844.2-617.2z"/>
		<path class="st12" d="M2857.8-617.2c0,0,3.1-3.5,8.4-3.5s7.3,4.2,7.3,4.2S2867.6-633.6,2857.8-617.2z"/>
	</g>
	<line class="st3" x1="2883.5" y1="-611.1" x2="2880.1" y2="-603.7"/>
	<line class="st3" x1="2817.7" y1="-612.3" x2="2820.2" y2="-607.9"/>
</g>
<g>
	<g>
		<g>
			<path class="st12" d="M2657-566.6c0,0,10.1,9.4,33.5,12.6v27.4h-117l0.1-23.9c0,0,19.9-0.7,33.5-14.7"/>
			<path class="st12" d="M2657.7-566c0,0,7,28.4-25.5,28.4s-28.6-24.4-28.6-24.4s3.6-4,9.4-7.4c11.5-6.7,34.6-5.3,42.9,2.1"/>
			<path class="st12" d="M2607.8-554.3c-1.7-23.8-0.4-32.8-0.4-32.8l50.2-0.7c0,0-0.7,31.1-2.1,33.9"/>
		</g>
		<path class="st0" d="M2600.2-623.1c0,0-2.1-2.1-4.2-1.1c-2.1,1.1-1.4,9.4,1.4,12.6c0,0-1.4,16.7,11.9,14.7"/>
		<path class="st0" d="M2664.2-622.4c0,0,2.1-2.1,4.2-1.1c2.1,1.1,1.4,9.4-1.4,12.6c0,0,1.4,16.7-11.9,14.7"/>
		<g>
			<path class="st0" d="M2607.2-565.1c-13.6,14-33.5,14.7-33.5,14.7s-31.6,0.1-31.6,25.2h174.6c0-26.5-26.1-28.6-26.1-28.6
				c-23.4-3.1-33.5-12.6-33.5-12.6"/>
			<path class="st0" d="M2603.7-562c0,0-3.9,24.4,28.6,24.4s25.5-28.4,25.5-28.4"/>
			<path class="st0" d="M2657.7-587.8c0,0-0.7,31.1-2.1,33.9"/>
			<path class="st0" d="M2607.5-587.1c0,0-1.4,9.1,0.4,32.8"/>
		</g>
		<path class="st0" d="M2632.7-562c0,0-20.3,1.4-27.6-31.4c-1.5-6.7-3.9-14.4-3.9-24.1c0,0-1.7-54.8,31.4-54.8"/>
		<path class="st0" d="M2631.8-562c0,0,21.4,1.1,28.3-33.5c1.2-6.3,3.1-13.1,3.1-22c0,0,1.7-54.8-31.4-54.8"/>
		<path class="st0" d="M2601-618.2c0,0-7.2-15-4.7-25.5c2.4-10.3,9.8-26.9,34.2-28.6c24.4-1.7,38.1,22.8,38.1,32.5c0,10.1-5,22-5,22
			s-1.3-25.5-7.5-30.4c-9.4-7.3-23.8-5.6-23.8-5.6s-17.5-0.7-23.8,5.6C2602.2-641.9,2601-618.2,2601-618.2z"/>
		<path class="st3" d="M2620.3-586.1c0,0,8.7,1.7,11.9,1.7c3.1,0,9.8-1.1,11.2-1.4"/>
		<path class="st12" d="M2626-617.2c0,0-3.1-3.5-8.4-3.5s-7.3,4.2-7.3,4.2S2616.2-633.6,2626-617.2z"/>
		<path class="st12" d="M2639.5-617.2c0,0,3.1-3.5,8.4-3.5s7.3,4.2,7.3,4.2S2649.3-633.6,2639.5-617.2z"/>
	</g>
	<line class="st3" x1="2665.2" y1="-611.1" x2="2661.8" y2="-603.7"/>
	<line class="st3" x1="2599.5" y1="-612.3" x2="2602" y2="-607.9"/>
</g>
<g>
	<g>
		<g>
			<path class="st12" d="M2875.3-759.9c0,0,10.1,9.4,33.5,12.6v27.4h-117l0.1-23.9c0,0,19.9-0.7,33.5-14.7"/>
			<path class="st12" d="M2876-759.3c0,0,7,28.4-25.5,28.4s-28.6-24.4-28.6-24.4s3.6-4,9.4-7.4c11.5-6.7,34.6-5.3,42.9,2.1"/>
			<path class="st12" d="M2826.1-747.6c-1.7-23.8-0.4-32.8-0.4-32.8l50.2-0.7c0,0-0.7,31.1-2.1,33.9"/>
		</g>
		<path class="st0" d="M2818.5-816.4c0,0-2.1-2.1-4.2-1.1c-2.1,1.1-1.4,9.4,1.4,12.6c0,0-1.4,16.7,11.9,14.7"/>
		<path class="st0" d="M2882.5-815.7c0,0,2.1-2.1,4.2-1.1c2.1,1.1,1.4,9.4-1.4,12.6c0,0,1.4,16.7-11.9,14.7"/>
		<g>
			<path class="st0" d="M2825.5-758.4c-13.6,14-33.5,14.7-33.5,14.7s-31.6,0.1-31.6,25.2H2935c0-26.5-26.1-28.6-26.1-28.6
				c-23.4-3.1-33.5-12.6-33.5-12.6"/>
			<path class="st0" d="M2822-755.3c0,0-3.9,24.4,28.6,24.4s25.5-28.4,25.5-28.4"/>
			<path class="st0" d="M2876-781.1c0,0-0.7,31.1-2.1,33.9"/>
			<path class="st0" d="M2825.7-780.4c0,0-1.4,9.1,0.4,32.8"/>
		</g>
		<path class="st0" d="M2851-755.3c0,0-20.3,1.4-27.6-31.4c-1.5-6.7-3.9-14.4-3.9-24.1c0,0-1.7-54.8,31.4-54.8"/>
		<path class="st0" d="M2850.1-755.3c0,0,21.4,1.1,28.3-33.5c1.2-6.3,3.1-13.1,3.1-22c0,0,1.7-54.8-31.4-54.8"/>
		<path class="st0" d="M2819.3-811.5c0,0-7.2-15-4.7-25.5c2.4-10.3,9.8-26.9,34.2-28.6c24.4-1.7,38.1,22.8,38.1,32.5
			c0,10.1-5,22-5,22s-1.3-25.5-7.5-30.4c-9.4-7.3-23.7-5.6-23.7-5.6s-17.5-0.7-23.8,5.6C2820.5-835.2,2819.3-811.5,2819.3-811.5z"/>
		<path class="st3" d="M2838.6-779.4c0,0,8.7,1.7,11.9,1.7c3.1,0,9.8-1.1,11.2-1.4"/>
		<path class="st12" d="M2844.2-810.5c0,0-3.1-3.5-8.4-3.5s-7.3,4.2-7.3,4.2S2834.5-826.9,2844.2-810.5z"/>
		<path class="st12" d="M2857.8-810.5c0,0,3.1-3.5,8.4-3.5s7.3,4.2,7.3,4.2S2867.6-826.9,2857.8-810.5z"/>
	</g>
	<line class="st3" x1="2883.5" y1="-804.4" x2="2880.1" y2="-797"/>
	<line class="st3" x1="2817.7" y1="-805.6" x2="2820.2" y2="-801.2"/>
</g>
<g>
	<g>
		<g>
			<path class="st12" d="M2657-759.9c0,0,10.1,9.4,33.5,12.6v27.4h-117l0.1-23.9c0,0,19.9-0.7,33.5-14.7"/>
			<path class="st12" d="M2657.7-759.3c0,0,7,28.4-25.5,28.4s-28.6-24.4-28.6-24.4s3.6-4,9.4-7.4c11.5-6.7,34.6-5.3,42.9,2.1"/>
			<path class="st12" d="M2607.8-747.6c-1.7-23.8-0.4-32.8-0.4-32.8l50.3-0.7c0,0-0.7,31.1-2.1,33.9"/>
		</g>
		<path class="st0" d="M2600.2-816.4c0,0-2.1-2.1-4.2-1.1c-2.1,1.1-1.4,9.4,1.4,12.6c0,0-1.4,16.7,11.9,14.7"/>
		<path class="st0" d="M2664.2-815.7c0,0,2.1-2.1,4.2-1.1c2.1,1.1,1.4,9.4-1.4,12.6c0,0,1.4,16.7-11.9,14.7"/>
		<g>
			<path class="st0" d="M2607.2-758.4c-13.6,14-33.5,14.7-33.5,14.7s-31.6,0.1-31.6,25.2h174.6c0-26.5-26.1-28.6-26.1-28.6
				c-23.4-3.1-33.5-12.6-33.5-12.6"/>
			<path class="st0" d="M2603.7-755.3c0,0-3.9,24.4,28.6,24.4s25.5-28.4,25.5-28.4"/>
			<path class="st0" d="M2657.7-781.1c0,0-0.7,31.1-2.1,33.9"/>
			<path class="st0" d="M2607.5-780.4c0,0-1.4,9.1,0.4,32.8"/>
		</g>
		<path class="st0" d="M2632.7-755.3c0,0-20.3,1.4-27.6-31.4c-1.5-6.7-3.9-14.4-3.9-24.1c0,0-1.7-54.8,31.4-54.8"/>
		<path class="st0" d="M2631.8-755.3c0,0,21.4,1.1,28.3-33.5c1.2-6.3,3.1-13.1,3.1-22c0,0,1.7-54.8-31.4-54.8"/>
		<path class="st0" d="M2601-811.5c0,0-7.2-15-4.7-25.5c2.4-10.3,9.8-26.9,34.2-28.6c24.5-1.7,38.2,22.8,38.2,32.5c0,10.1-5,22-5,22
			s-1.3-25.5-7.5-30.4c-9.4-7.3-23.8-5.6-23.8-5.6s-17.5-0.7-23.8,5.6C2602.2-835.2,2601-811.5,2601-811.5z"/>
		<path class="st3" d="M2620.3-779.4c0,0,8.7,1.7,11.9,1.7c3.1,0,9.8-1.1,11.2-1.4"/>
		<path class="st12" d="M2626-810.5c0,0-3.1-3.5-8.4-3.5s-7.3,4.2-7.3,4.2S2616.2-826.9,2626-810.5z"/>
		<path class="st12" d="M2639.5-810.5c0,0,3.1-3.5,8.4-3.5s7.3,4.2,7.3,4.2S2649.3-826.9,2639.5-810.5z"/>
	</g>
	<line class="st3" x1="2665.2" y1="-804.4" x2="2661.8" y2="-797"/>
	<line class="st3" x1="2599.5" y1="-805.6" x2="2602" y2="-801.2"/>
</g>
<g>
	<g>
		<g>
			<path class="st12" d="M2657-373.4c0,0,10.1,9.4,33.5,12.6v27.4h-117l0.1-23.9c0,0,19.9-0.7,33.5-14.7"/>
			<path class="st12" d="M2657.7-372.8c0,0,7,28.4-25.5,28.4s-28.6-24.4-28.6-24.4s3.6-4,9.4-7.4c11.5-6.7,34.6-5.3,42.9,2.1"/>
			<path class="st12" d="M2607.8-361.1c-1.7-23.8-0.4-32.8-0.4-32.8l50.2-0.7c0,0-0.7,31.1-2.1,33.9"/>
		</g>
		<path class="st0" d="M2600.2-429.9c0,0-2.1-2.1-4.2-1.1c-2.1,1.1-1.4,9.4,1.4,12.6c0,0-1.4,16.7,11.9,14.7"/>
		<path class="st0" d="M2664.2-429.2c0,0,2.1-2.1,4.2-1.1c2.1,1.1,1.4,9.4-1.4,12.6c0,0,1.4,16.7-11.9,14.7"/>
		<g>
			<path class="st0" d="M2607.2-371.9c-13.6,14-33.5,14.7-33.5,14.7s-31.6,0.1-31.6,25.2h174.6c0-26.5-26.1-28.6-26.1-28.6
				c-23.4-3.1-33.5-12.6-33.5-12.6"/>
			<path class="st0" d="M2603.7-368.8c0,0-3.9,24.4,28.6,24.4s25.5-28.4,25.5-28.4"/>
			<path class="st0" d="M2657.7-394.6c0,0-0.7,31.1-2.1,33.9"/>
			<path class="st0" d="M2607.5-393.9c0,0-1.4,9.1,0.4,32.8"/>
		</g>
		<path class="st0" d="M2632.7-368.8c0,0-20.3,1.4-27.6-31.4c-1.5-6.7-3.9-14.4-3.9-24.1c0,0-1.7-54.8,31.4-54.8"/>
		<path class="st0" d="M2631.8-368.8c0,0,21.4,1.1,28.3-33.5c1.2-6.3,3.1-13.1,3.1-22c0,0,1.7-54.8-31.4-54.8"/>
		<path class="st0" d="M2601-425c0,0-7.2-15-4.7-25.5c2.4-10.3,9.8-26.9,34.2-28.6c24.4-1.7,38.1,22.8,38.1,32.5c0,10.1-5,22-5,22
			s-1.3-25.5-7.5-30.4c-9.4-7.3-23.8-5.6-23.8-5.6s-17.5-0.7-23.8,5.6C2602.2-448.7,2601-425,2601-425z"/>
		<path class="st3" d="M2620.3-392.9c0,0,8.7,1.7,11.9,1.7c3.1,0,9.8-1.1,11.2-1.4"/>
		<path class="st12" d="M2626-424c0,0-3.1-3.5-8.4-3.5s-7.3,4.2-7.3,4.2S2616.2-440.4,2626-424z"/>
		<path class="st12" d="M2639.5-424c0,0,3.1-3.5,8.4-3.5s7.3,4.2,7.3,4.2S2649.3-440.4,2639.5-424z"/>
	</g>
	<line class="st3" x1="2665.2" y1="-417.9" x2="2661.8" y2="-410.5"/>
	<line class="st3" x1="2599.5" y1="-419.1" x2="2602" y2="-414.7"/>
</g>
<g>
	<g>
		<g>
			<path class="st12" d="M2875.4-373.4c0,0,10.1,9.4,33.5,12.6v27.4h-117l0.1-23.9c0,0,19.9-0.7,33.5-14.7"/>
			<path class="st12" d="M2876.1-372.8c0,0,7,28.4-25.5,28.4s-28.6-24.4-28.6-24.4s3.6-4,9.4-7.4c11.5-6.7,34.6-5.3,42.9,2.1"/>
			<path class="st12" d="M2826.2-361.1c-1.7-23.8-0.4-32.8-0.4-32.8l50.2-0.7c0,0-0.7,31.1-2.1,33.9"/>
		</g>
		<path class="st0" d="M2818.5-429.9c0,0-2.1-2.1-4.2-1.1c-2.1,1.1-1.4,9.4,1.4,12.6c0,0-1.4,16.7,11.9,14.7"/>
		<path class="st0" d="M2882.5-429.2c0,0,2.1-2.1,4.2-1.1c2.1,1.1,1.4,9.4-1.4,12.6c0,0,1.4,16.7-11.9,14.7"/>
		<g>
			<path class="st0" d="M2825.5-371.9c-13.6,14-33.5,14.7-33.5,14.7s-31.6,0.1-31.6,25.2H2935c0-26.5-26.1-28.6-26.1-28.6
				c-23.4-3.1-33.5-12.6-33.5-12.6"/>
			<path class="st0" d="M2822.1-368.8c0,0-3.9,24.4,28.6,24.4s25.5-28.4,25.5-28.4"/>
			<path class="st0" d="M2876.1-394.6c0,0-0.7,31.1-2.1,33.9"/>
			<path class="st0" d="M2825.8-393.9c0,0-1.4,9.1,0.4,32.8"/>
		</g>
		<path class="st0" d="M2851-368.8c0,0-20.3,1.4-27.6-31.4c-1.5-6.7-3.9-14.4-3.9-24.1c0,0-1.7-54.8,31.4-54.8"/>
		<path class="st0" d="M2850.2-368.8c0,0,21.4,1.1,28.3-33.5c1.2-6.3,3.1-13.1,3.1-22c0,0,1.7-54.8-31.4-54.8"/>
		<path class="st0" d="M2819.4-425c0,0-7.2-15-4.7-25.5c2.4-10.3,9.8-26.9,34.2-28.6c24.4-1.7,38.1,22.8,38.1,32.5c0,10.1-5,22-5,22
			s-1.3-25.5-7.5-30.4c-9.4-7.3-23.8-5.6-23.8-5.6s-17.5-0.7-23.8,5.6C2820.6-448.7,2819.4-425,2819.4-425z"/>
		<path class="st3" d="M2838.7-392.9c0,0,8.7,1.7,11.9,1.7c3.1,0,9.8-1.1,11.2-1.4"/>
		<path class="st12" d="M2844.3-424c0,0-3.1-3.5-8.4-3.5s-7.3,4.2-7.3,4.2S2834.6-440.4,2844.3-424z"/>
		<path class="st12" d="M2857.9-424c0,0,3.1-3.5,8.4-3.5s7.3,4.2,7.3,4.2S2867.7-440.4,2857.9-424z"/>
	</g>
	<line class="st3" x1="2883.5" y1="-417.9" x2="2880.2" y2="-410.5"/>
	<line class="st3" x1="2817.8" y1="-419.1" x2="2820.3" y2="-414.7"/>
</g>
<g>
	<g>
		<g>
			<path class="st12" d="M2438.7-566.6c0,0,10.1,9.4,33.5,12.6v27.4h-117l0.1-23.9c0,0,19.9-0.7,33.5-14.7"/>
			<path class="st12" d="M2439.4-566c0,0,7,28.4-25.5,28.4s-28.6-24.4-28.6-24.4s3.6-4,9.4-7.4c11.5-6.7,34.6-5.3,42.9,2.1"/>
			<path class="st12" d="M2389.5-554.3c-1.7-23.8-0.4-32.8-0.4-32.8l50.2-0.7c0,0-0.7,31.1-2.1,33.9"/>
		</g>
		<path class="st0" d="M2381.8-623.1c0,0-2.1-2.1-4.2-1.1c-2.1,1.1-1.4,9.4,1.4,12.6c0,0-1.4,16.7,11.9,14.7"/>
		<path class="st0" d="M2445.8-622.4c0,0,2.1-2.1,4.2-1.1c2.1,1.1,1.4,9.4-1.4,12.6c0,0,1.4,16.7-11.9,14.7"/>
		<g>
			<path class="st0" d="M2388.8-565.1c-13.6,14-33.5,14.7-33.5,14.7s-31.6,0.1-31.6,25.2h174.6c0-26.5-26.1-28.6-26.1-28.6
				c-23.4-3.1-33.5-12.6-33.5-12.6"/>
			<path class="st0" d="M2385.4-562c0,0-3.9,24.4,28.6,24.4s25.5-28.4,25.5-28.4"/>
			<path class="st0" d="M2439.4-587.8c0,0-0.7,31.1-2.1,33.9"/>
			<path class="st0" d="M2389.1-587.1c0,0-1.4,9.1,0.4,32.8"/>
		</g>
		<path class="st0" d="M2414.3-562c0,0-20.3,1.4-27.6-31.4c-1.5-6.7-3.9-14.4-3.9-24.1c0,0-1.7-54.8,31.4-54.8"/>
		<path class="st0" d="M2413.5-562c0,0,21.4,1.1,28.3-33.5c1.2-6.3,3.1-13.1,3.1-22c0,0,1.7-54.8-31.4-54.8"/>
		<path class="st0" d="M2382.7-618.2c0,0-7.2-15-4.7-25.5c2.4-10.3,9.8-26.9,34.2-28.6c24.4-1.7,38.1,22.8,38.1,32.5
			c0,10.1-5,22-5,22s-1.3-25.5-7.5-30.4c-9.4-7.3-23.8-5.6-23.8-5.6s-17.5-0.7-23.8,5.6C2383.9-641.9,2382.7-618.2,2382.7-618.2z"/>
		<path class="st3" d="M2402-586.1c0,0,8.7,1.7,11.9,1.7c3.1,0,9.8-1.1,11.2-1.4"/>
		<path class="st12" d="M2407.6-617.2c0,0-3.1-3.5-8.4-3.5c-5.3,0-7.3,4.2-7.3,4.2S2397.9-633.6,2407.6-617.2z"/>
		<path class="st12" d="M2421.2-617.2c0,0,3.1-3.5,8.4-3.5s7.3,4.2,7.3,4.2S2431-633.6,2421.2-617.2z"/>
	</g>
	<line class="st3" x1="2446.8" y1="-611.1" x2="2443.5" y2="-603.7"/>
	<line class="st3" x1="2381.1" y1="-612.3" x2="2383.6" y2="-607.9"/>
</g>
<g>
	<g>
		<g>
			<path class="st12" d="M2220.5-566.6c0,0,10.1,9.4,33.5,12.6v27.4h-117l0.1-23.9c0,0,19.9-0.7,33.5-14.7"/>
			<path class="st12" d="M2221.1-566c0,0,7,28.4-25.5,28.4S2167-562,2167-562s3.6-4,9.4-7.4c11.5-6.7,34.6-5.3,42.9,2.1"/>
			<path class="st12" d="M2171.2-554.3c-1.7-23.8-0.4-32.8-0.4-32.8l50.2-0.7c0,0-0.7,31.1-2.1,33.9"/>
		</g>
		<path class="st0" d="M2163.6-623.1c0,0-2.1-2.1-4.2-1.1c-2.1,1.1-1.4,9.4,1.4,12.6c0,0-1.4,16.7,11.9,14.7"/>
		<path class="st0" d="M2227.6-622.4c0,0,2.1-2.1,4.2-1.1c2.1,1.1,1.4,9.4-1.4,12.6c0,0,1.4,16.7-11.9,14.7"/>
		<g>
			<path class="st0" d="M2170.6-565.1c-13.6,14-33.5,14.7-33.5,14.7s-31.6,0.1-31.6,25.2h174.6c0-26.5-26.1-28.6-26.1-28.6
				c-23.4-3.1-33.5-12.6-33.5-12.6"/>
			<path class="st0" d="M2167.1-562c0,0-3.9,24.4,28.6,24.4s25.5-28.4,25.5-28.4"/>
			<path class="st0" d="M2221.1-587.8c0,0-0.7,31.1-2.1,33.9"/>
			<path class="st0" d="M2170.8-587.1c0,0-1.4,9.1,0.4,32.8"/>
		</g>
		<path class="st0" d="M2196.1-562c0,0-20.3,1.4-27.6-31.4c-1.5-6.7-3.9-14.4-3.9-24.1c0,0-1.7-54.8,31.4-54.8"/>
		<path class="st0" d="M2195.2-562c0,0,21.4,1.1,28.3-33.5c1.2-6.3,3.1-13.1,3.1-22c0,0,1.7-54.8-31.4-54.8"/>
		<path class="st0" d="M2164.5-618.2c0,0-7.2-15-4.7-25.5c2.4-10.3,9.8-26.9,34.2-28.6c24.4-1.7,38.1,22.8,38.1,32.5
			c0,10.1-5,22-5,22s-1.3-25.5-7.5-30.4c-9.4-7.3-23.8-5.6-23.8-5.6s-17.5-0.7-23.8,5.6C2165.6-641.9,2164.5-618.2,2164.5-618.2z"/>
		<path class="st3" d="M2183.7-586.1c0,0,8.7,1.7,11.9,1.7c3.1,0,9.8-1.1,11.2-1.4"/>
		<path class="st12" d="M2189.3-617.2c0,0-3.1-3.5-8.4-3.5s-7.3,4.2-7.3,4.2S2179.6-633.6,2189.3-617.2z"/>
		<path class="st12" d="M2203-617.2c0,0,3.1-3.5,8.4-3.5s7.3,4.2,7.3,4.2S2212.7-633.6,2203-617.2z"/>
	</g>
	<line class="st3" x1="2228.6" y1="-611.1" x2="2225.2" y2="-603.7"/>
	<line class="st3" x1="2162.8" y1="-612.3" x2="2165.3" y2="-607.9"/>
</g>
<g>
	<g>
		<g>
			<path class="st12" d="M2438.7-759.9c0,0,10.1,9.4,33.5,12.6v27.4h-117l0.1-23.9c0,0,19.9-0.7,33.5-14.7"/>
			<path class="st12" d="M2439.4-759.3c0,0,7,28.4-25.5,28.4s-28.6-24.4-28.6-24.4s3.6-4,9.4-7.4c11.5-6.7,34.6-5.3,42.9,2.1"/>
			<path class="st12" d="M2389.5-747.6c-1.7-23.8-0.4-32.8-0.4-32.8l50.2-0.7c0,0-0.7,31.1-2.1,33.9"/>
		</g>
		<path class="st0" d="M2381.8-816.4c0,0-2.1-2.1-4.2-1.1c-2.1,1.1-1.4,9.4,1.4,12.6c0,0-1.4,16.7,11.9,14.7"/>
		<path class="st0" d="M2445.8-815.7c0,0,2.1-2.1,4.2-1.1c2.1,1.1,1.4,9.4-1.4,12.6c0,0,1.4,16.7-11.9,14.7"/>
		<g>
			<path class="st0" d="M2388.8-758.4c-13.6,14-33.5,14.7-33.5,14.7s-31.6,0.1-31.6,25.2h174.6c0-26.5-26.1-28.6-26.1-28.6
				c-23.4-3.1-33.5-12.6-33.5-12.6"/>
			<path class="st0" d="M2385.4-755.3c0,0-3.9,24.4,28.6,24.4s25.5-28.4,25.5-28.4"/>
			<path class="st0" d="M2439.4-781.1c0,0-0.7,31.1-2.1,33.9"/>
			<path class="st0" d="M2389.1-780.4c0,0-1.4,9.1,0.4,32.8"/>
		</g>
		<path class="st0" d="M2414.3-755.3c0,0-20.3,1.4-27.6-31.4c-1.5-6.7-3.9-14.4-3.9-24.1c0,0-1.7-54.8,31.4-54.8"/>
		<path class="st0" d="M2413.5-755.3c0,0,21.4,1.1,28.3-33.5c1.2-6.3,3.1-13.1,3.1-22c0,0,1.7-54.8-31.4-54.8"/>
		<path class="st0" d="M2382.7-811.5c0,0-7.2-15-4.7-25.5c2.4-10.3,9.8-26.9,34.2-28.6c24.4-1.7,38.1,22.8,38.1,32.5
			c0,10.1-5,22-5,22s-1.3-25.5-7.5-30.4c-9.4-7.3-23.8-5.6-23.8-5.6s-17.5-0.7-23.8,5.6C2383.9-835.2,2382.7-811.5,2382.7-811.5z"/>
		<path class="st3" d="M2402-779.4c0,0,8.7,1.7,11.9,1.7c3.1,0,9.8-1.1,11.2-1.4"/>
		<path class="st12" d="M2407.6-810.5c0,0-3.1-3.5-8.4-3.5c-5.3,0-7.3,4.2-7.3,4.2S2397.9-826.9,2407.6-810.5z"/>
		<path class="st12" d="M2421.2-810.5c0,0,3.1-3.5,8.4-3.5s7.3,4.2,7.3,4.2S2431-826.9,2421.2-810.5z"/>
	</g>
	<line class="st3" x1="2446.8" y1="-804.4" x2="2443.5" y2="-797"/>
	<line class="st3" x1="2381.1" y1="-805.6" x2="2383.6" y2="-801.2"/>
</g>
<g>
	<g>
		<g>
			<path class="st12" d="M2220.5-759.9c0,0,10.1,9.4,33.5,12.6v27.4h-117l0.1-23.9c0,0,19.9-0.7,33.5-14.7"/>
			<path class="st12" d="M2221.1-759.3c0,0,7,28.4-25.5,28.4s-28.6-24.4-28.6-24.4s3.6-4,9.4-7.4c11.5-6.7,34.6-5.3,42.9,2.1"/>
			<path class="st12" d="M2171.2-747.6c-1.7-23.8-0.4-32.8-0.4-32.8l50.2-0.7c0,0-0.7,31.1-2.1,33.9"/>
		</g>
		<path class="st0" d="M2163.6-816.4c0,0-2.1-2.1-4.2-1.1c-2.1,1.1-1.4,9.4,1.4,12.6c0,0-1.4,16.7,11.9,14.7"/>
		<path class="st0" d="M2227.6-815.7c0,0,2.1-2.1,4.2-1.1c2.1,1.1,1.4,9.4-1.4,12.6c0,0,1.4,16.7-11.9,14.7"/>
		<g>
			<path class="st0" d="M2170.6-758.4c-13.6,14-33.5,14.7-33.5,14.7s-31.6,0.1-31.6,25.2h174.6c0-26.5-26.1-28.6-26.1-28.6
				c-23.4-3.1-33.5-12.6-33.5-12.6"/>
			<path class="st0" d="M2167.1-755.3c0,0-3.9,24.4,28.6,24.4s25.5-28.4,25.5-28.4"/>
			<path class="st0" d="M2221.1-781.1c0,0-0.7,31.1-2.1,33.9"/>
			<path class="st0" d="M2170.8-780.4c0,0-1.4,9.1,0.4,32.8"/>
		</g>
		<path class="st0" d="M2196.1-755.3c0,0-20.3,1.4-27.6-31.4c-1.5-6.7-3.9-14.4-3.9-24.1c0,0-1.7-54.8,31.4-54.8"/>
		<path class="st0" d="M2195.2-755.3c0,0,21.4,1.1,28.3-33.5c1.2-6.3,3.1-13.1,3.1-22c0,0,1.7-54.8-31.4-54.8"/>
		<path class="st0" d="M2164.5-811.5c0,0-7.2-15-4.7-25.5c2.4-10.3,9.8-26.9,34.2-28.6c24.4-1.7,38.1,22.8,38.1,32.5
			c0,10.1-5,22-5,22s-1.3-25.5-7.5-30.4c-9.4-7.3-23.8-5.6-23.8-5.6s-17.5-0.7-23.8,5.6C2165.6-835.2,2164.5-811.5,2164.5-811.5z"/>
		<path class="st3" d="M2183.7-779.4c0,0,8.7,1.7,11.9,1.7c3.1,0,9.8-1.1,11.2-1.4"/>
		<path class="st12" d="M2189.3-810.5c0,0-3.1-3.5-8.4-3.5s-7.3,4.2-7.3,4.2S2179.6-826.9,2189.3-810.5z"/>
		<path class="st12" d="M2203-810.5c0,0,3.1-3.5,8.4-3.5s7.3,4.2,7.3,4.2S2212.7-826.9,2203-810.5z"/>
	</g>
	<line class="st3" x1="2228.6" y1="-804.4" x2="2225.2" y2="-797"/>
	<line class="st3" x1="2162.8" y1="-805.6" x2="2165.3" y2="-801.2"/>
</g>
<g>
	<g>
		<g>
			<path class="st12" d="M2220.5-373.4c0,0,10.1,9.4,33.5,12.6v27.4h-117l0.1-23.9c0,0,19.9-0.7,33.5-14.7"/>
			<path class="st12" d="M2221.1-372.8c0,0,7,28.4-25.5,28.4s-28.6-24.4-28.6-24.4s3.6-4,9.4-7.4c11.5-6.7,34.6-5.3,42.9,2.1"/>
			<path class="st12" d="M2171.2-361.1c-1.7-23.8-0.4-32.8-0.4-32.8l50.2-0.7c0,0-0.7,31.1-2.1,33.9"/>
		</g>
		<path class="st0" d="M2163.6-429.9c0,0-2.1-2.1-4.2-1.1c-2.1,1.1-1.4,9.4,1.4,12.6c0,0-1.4,16.7,11.9,14.7"/>
		<path class="st0" d="M2227.6-429.2c0,0,2.1-2.1,4.2-1.1c2.1,1.1,1.4,9.4-1.4,12.6c0,0,1.4,16.7-11.9,14.7"/>
		<g>
			<path class="st0" d="M2170.6-371.9c-13.6,14-33.5,14.7-33.5,14.7s-31.6,0.1-31.6,25.2h174.6c0-26.5-26.1-28.6-26.1-28.6
				c-23.4-3.1-33.5-12.6-33.5-12.6"/>
			<path class="st0" d="M2167.1-368.8c0,0-3.9,24.4,28.6,24.4s25.5-28.4,25.5-28.4"/>
			<path class="st0" d="M2221.1-394.6c0,0-0.7,31.1-2.1,33.9"/>
			<path class="st0" d="M2170.8-393.9c0,0-1.4,9.1,0.4,32.8"/>
		</g>
		<path class="st0" d="M2196.1-368.8c0,0-20.3,1.4-27.6-31.4c-1.5-6.7-3.9-14.4-3.9-24.1c0,0-1.7-54.8,31.4-54.8"/>
		<path class="st0" d="M2195.2-368.8c0,0,21.4,1.1,28.3-33.5c1.2-6.3,3.1-13.1,3.1-22c0,0,1.7-54.8-31.4-54.8"/>
		<path class="st0" d="M2164.5-425c0,0-7.2-15-4.7-25.5c2.4-10.3,9.8-26.9,34.2-28.6c24.4-1.7,38.1,22.8,38.1,32.5c0,10.1-5,22-5,22
			s-1.3-25.5-7.5-30.4c-9.4-7.3-23.8-5.6-23.8-5.6s-17.5-0.7-23.8,5.6C2165.6-448.7,2164.5-425,2164.5-425z"/>
		<path class="st3" d="M2183.7-392.9c0,0,8.7,1.7,11.9,1.7c3.1,0,9.8-1.1,11.2-1.4"/>
		<path class="st12" d="M2189.3-424c0,0-3.1-3.5-8.4-3.5s-7.3,4.2-7.3,4.2S2179.6-440.4,2189.3-424z"/>
		<path class="st12" d="M2203-424c0,0,3.1-3.5,8.4-3.5s7.3,4.2,7.3,4.2S2212.7-440.4,2203-424z"/>
	</g>
	<line class="st3" x1="2228.6" y1="-417.9" x2="2225.2" y2="-410.5"/>
	<line class="st3" x1="2162.8" y1="-419.1" x2="2165.3" y2="-414.7"/>
</g>
<g>
	<g>
		<g>
			<path class="st12" d="M2438.8-373.4c0,0,10.1,9.4,33.5,12.6v27.4h-117l0.1-23.9c0,0,19.9-0.7,33.5-14.7"/>
			<path class="st12" d="M2439.5-372.8c0,0,7,28.4-25.5,28.4s-28.6-24.4-28.6-24.4s3.6-4,9.4-7.4c11.5-6.7,34.6-5.3,42.9,2.1"/>
			<path class="st12" d="M2389.6-361.1c-1.7-23.8-0.4-32.8-0.4-32.8l50.2-0.7c0,0-0.7,31.1-2.1,33.9"/>
		</g>
		<path class="st0" d="M2381.9-429.9c0,0-2.1-2.1-4.2-1.1c-2.1,1.1-1.4,9.4,1.4,12.6c0,0-1.4,16.7,11.9,14.7"/>
		<path class="st0" d="M2445.9-429.2c0,0,2.1-2.1,4.2-1.1c2.1,1.1,1.4,9.4-1.4,12.6c0,0,1.4,16.7-11.9,14.7"/>
		<g>
			<path class="st0" d="M2388.9-371.9c-13.6,14-33.5,14.7-33.5,14.7s-31.6,0.1-31.6,25.2h174.6c0-26.5-26.1-28.6-26.1-28.6
				c-23.4-3.1-33.5-12.6-33.5-12.6"/>
			<path class="st0" d="M2385.5-368.8c0,0-3.9,24.4,28.6,24.4s25.5-28.4,25.5-28.4"/>
			<path class="st0" d="M2439.5-394.6c0,0-0.7,31.1-2.1,33.9"/>
			<path class="st0" d="M2389.2-393.9c0,0-1.4,9.1,0.4,32.8"/>
		</g>
		<path class="st0" d="M2414.4-368.8c0,0-20.3,1.4-27.6-31.4c-1.5-6.7-3.9-14.4-3.9-24.1c0,0-1.7-54.8,31.4-54.8"/>
		<path class="st0" d="M2413.6-368.8c0,0,21.4,1.1,28.3-33.5c1.2-6.3,3.1-13.1,3.1-22c0,0,1.7-54.8-31.4-54.8"/>
		<path class="st0" d="M2382.8-425c0,0-7.2-15-4.7-25.5c2.4-10.3,9.8-26.9,34.2-28.6c24.4-1.7,38.1,22.8,38.1,32.5c0,10.1-5,22-5,22
			s-1.3-25.5-7.5-30.4c-9.4-7.3-23.8-5.6-23.8-5.6s-17.5-0.7-23.8,5.6C2384-448.7,2382.8-425,2382.8-425z"/>
		<path class="st3" d="M2402.1-392.9c0,0,8.7,1.7,11.9,1.7c3.1,0,9.8-1.1,11.2-1.4"/>
		<path class="st12" d="M2407.7-424c0,0-3.1-3.5-8.4-3.5c-5.3,0-7.3,4.2-7.3,4.2S2398-440.4,2407.7-424z"/>
		<path class="st12" d="M2421.3-424c0,0,3.1-3.5,8.4-3.5c5.3,0,7.3,4.2,7.3,4.2S2431.1-440.4,2421.3-424z"/>
	</g>
	<line class="st3" x1="2446.9" y1="-417.9" x2="2443.6" y2="-410.5"/>
	<line class="st3" x1="2381.2" y1="-419.1" x2="2383.7" y2="-414.7"/>
</g>
<g>
	<g>
		<g>
			<path class="st12" d="M3312-566.6c0,0,10.1,9.4,33.5,12.6v27.4h-117l0.1-23.9c0,0,19.9-0.7,33.5-14.7"/>
			<path class="st12" d="M3312.7-566c0,0,7,28.4-25.5,28.4s-28.6-24.4-28.6-24.4s3.6-4,9.4-7.4c11.5-6.7,34.6-5.3,42.9,2.1"/>
			<path class="st12" d="M3262.9-554.3c-1.7-23.8-0.4-32.8-0.4-32.8l50.2-0.7c0,0-0.7,31.1-2.1,33.9"/>
		</g>
		<path class="st0" d="M3255.1-623.1c0,0-2.1-2.1-4.2-1.1c-2.1,1.1-1.4,9.4,1.4,12.6c0,0-1.4,16.7,11.9,14.7"/>
		<path class="st0" d="M3319.1-622.4c0,0,2.1-2.1,4.2-1.1c2.1,1.1,1.4,9.4-1.4,12.6c0,0,1.4,16.7-11.9,14.7"/>
		<g>
			<path class="st0" d="M3262.1-565.1c-13.6,14-33.5,14.7-33.5,14.7s-31.6,0.1-31.6,25.2h174.6c0-26.5-26.1-28.6-26.1-28.6
				c-23.4-3.1-33.5-12.6-33.5-12.6"/>
			<path class="st0" d="M3258.7-562c0,0-3.9,24.4,28.6,24.4s25.5-28.4,25.5-28.4"/>
			<path class="st0" d="M3312.7-587.8c0,0-0.7,31.1-2.1,33.9"/>
			<path class="st0" d="M3262.5-587.1c0,0-1.4,9.1,0.4,32.8"/>
		</g>
		<path class="st0" d="M3287.6-562c0,0-20.3,1.4-27.6-31.4c-1.5-6.7-3.9-14.4-3.9-24.1c0,0-1.7-54.8,31.4-54.8"/>
		<path class="st0" d="M3286.9-562c0,0,21.4,1.1,28.3-33.5c1.2-6.3,3.1-13.1,3.1-22c0,0,1.7-54.8-31.4-54.8"/>
		<path class="st0" d="M3256-618.2c0,0-7.2-15-4.7-25.5c2.4-10.3,9.8-26.9,34.2-28.6s38.1,22.8,38.1,32.5c0,10.1-5,22-5,22
			s-1.3-25.5-7.5-30.4c-9.4-7.3-23.8-5.6-23.8-5.6s-17.5-0.7-23.8,5.6C3257.2-641.9,3256-618.2,3256-618.2z"/>
		<path class="st3" d="M3275.4-586.1c0,0,8.7,1.7,11.9,1.7c3.1,0,9.8-1.1,11.2-1.4"/>
		<path class="st12" d="M3281-617.2c0,0-3.1-3.5-8.4-3.5s-7.3,4.2-7.3,4.2S3271.2-633.6,3281-617.2z"/>
		<path class="st12" d="M3294.5-617.2c0,0,3.1-3.5,8.4-3.5s7.3,4.2,7.3,4.2S3304.4-633.6,3294.5-617.2z"/>
	</g>
	<line class="st3" x1="3320.1" y1="-611.1" x2="3316.9" y2="-603.7"/>
	<line class="st3" x1="3254.5" y1="-612.3" x2="3257" y2="-607.9"/>
</g>
<g>
	<g>
		<g>
			<path class="st12" d="M3093.8-566.6c0,0,10.1,9.4,33.5,12.6v27.4h-117l0.1-23.9c0,0,19.9-0.7,33.5-14.7"/>
			<path class="st12" d="M3094.5-566c0,0,7,28.4-25.5,28.4s-28.6-24.4-28.6-24.4s3.6-4,9.4-7.4c11.5-6.7,34.6-5.3,42.9,2.1"/>
			<path class="st12" d="M3044.5-554.3c-1.7-23.8-0.4-32.8-0.4-32.8l50.2-0.7c0,0-0.7,31.1-2.1,33.9"/>
		</g>
		<path class="st0" d="M3036.9-623.1c0,0-2.1-2.1-4.2-1.1c-2.1,1.1-1.4,9.4,1.4,12.6c0,0-1.4,16.7,11.9,14.7"/>
		<path class="st0" d="M3100.9-622.4c0,0,2.1-2.1,4.2-1.1c2.1,1.1,1.4,9.4-1.4,12.6c0,0,1.4,16.7-11.9,14.7"/>
		<g>
			<path class="st0" d="M3043.9-565.1c-13.6,14-33.5,14.7-33.5,14.7s-31.6,0.1-31.6,25.2h174.6c0-26.5-26.1-28.6-26.1-28.6
				c-23.4-3.1-33.5-12.6-33.5-12.6"/>
			<path class="st0" d="M3040.5-562c0,0-3.9,24.4,28.6,24.4s25.5-28.4,25.5-28.4"/>
			<path class="st0" d="M3094.5-587.8c0,0-0.7,31.1-2.1,33.9"/>
			<path class="st0" d="M3044.2-587.1c0,0-1.4,9.1,0.4,32.8"/>
		</g>
		<path class="st0" d="M3069.4-562c0,0-20.3,1.4-27.6-31.4c-1.5-6.7-3.9-14.4-3.9-24.1c0,0-1.7-54.8,31.4-54.8"/>
		<path class="st0" d="M3068.5-562c0,0,21.4,1.1,28.3-33.5c1.2-6.3,3.1-13.1,3.1-22c0,0,1.7-54.8-31.4-54.8"/>
		<path class="st0" d="M3037.7-618.2c0,0-7.2-15-4.7-25.5c2.4-10.3,9.8-26.9,34.2-28.6c24.4-1.7,38.1,22.8,38.1,32.5
			c0,10.1-5,22-5,22s-1.3-25.5-7.5-30.4c-9.4-7.3-23.8-5.6-23.8-5.6s-17.5-0.7-23.8,5.6C3039-641.9,3037.7-618.2,3037.7-618.2z"/>
		<path class="st3" d="M3057-586.1c0,0,8.7,1.7,11.9,1.7c3.1,0,9.8-1.1,11.2-1.4"/>
		<path class="st12" d="M3062.7-617.2c0,0-3.1-3.5-8.4-3.5s-7.3,4.2-7.3,4.2S3053-633.6,3062.7-617.2z"/>
		<path class="st12" d="M3076.2-617.2c0,0,3.1-3.5,8.4-3.5s7.3,4.2,7.3,4.2S3086-633.6,3076.2-617.2z"/>
	</g>
	<line class="st3" x1="3101.9" y1="-611.1" x2="3098.5" y2="-603.7"/>
	<line class="st3" x1="3036.2" y1="-612.3" x2="3038.7" y2="-607.9"/>
</g>
<g>
	<g>
		<g>
			<path class="st12" d="M3312-759.9c0,0,10.1,9.4,33.5,12.6v27.4h-117l0.1-23.9c0,0,19.9-0.7,33.5-14.7"/>
			<path class="st12" d="M3312.7-759.3c0,0,7,28.4-25.5,28.4s-28.6-24.4-28.6-24.4s3.6-4,9.4-7.4c11.5-6.7,34.6-5.3,42.9,2.1"/>
			<path class="st12" d="M3262.9-747.6c-1.7-23.8-0.4-32.8-0.4-32.8l50.2-0.7c0,0-0.7,31.1-2.1,33.9"/>
		</g>
		<path class="st0" d="M3255.1-816.4c0,0-2.1-2.1-4.2-1.1c-2.1,1.1-1.4,9.4,1.4,12.6c0,0-1.4,16.7,11.9,14.7"/>
		<path class="st0" d="M3319.1-815.7c0,0,2.1-2.1,4.2-1.1c2.1,1.1,1.4,9.4-1.4,12.6c0,0,1.4,16.7-11.9,14.7"/>
		<g>
			<path class="st0" d="M3262.1-758.4c-13.6,14-33.5,14.7-33.5,14.7s-31.6,0.1-31.6,25.2h174.6c0-26.5-26.1-28.6-26.1-28.6
				c-23.4-3.1-33.5-12.6-33.5-12.6"/>
			<path class="st0" d="M3258.7-755.3c0,0-3.9,24.4,28.6,24.4s25.5-28.4,25.5-28.4"/>
			<path class="st0" d="M3312.7-781.1c0,0-0.7,31.1-2.1,33.9"/>
			<path class="st0" d="M3262.5-780.4c0,0-1.4,9.1,0.4,32.8"/>
		</g>
		<path class="st0" d="M3287.6-755.3c0,0-20.3,1.4-27.6-31.4c-1.5-6.7-3.9-14.4-3.9-24.1c0,0-1.7-54.8,31.4-54.8"/>
		<path class="st0" d="M3286.9-755.3c0,0,21.4,1.1,28.3-33.5c1.2-6.3,3.1-13.1,3.1-22c0,0,1.7-54.8-31.4-54.8"/>
		<path class="st0" d="M3256-811.5c0,0-7.2-15-4.7-25.5c2.4-10.3,9.8-26.9,34.2-28.6s38.1,22.8,38.1,32.5c0,10.1-5,22-5,22
			s-1.3-25.5-7.5-30.4c-9.4-7.3-23.8-5.6-23.8-5.6s-17.5-0.7-23.8,5.6C3257.2-835.2,3256-811.5,3256-811.5z"/>
		<path class="st3" d="M3275.4-779.4c0,0,8.7,1.7,11.9,1.7c3.1,0,9.8-1.1,11.2-1.4"/>
		<path class="st12" d="M3281-810.5c0,0-3.1-3.5-8.4-3.5s-7.3,4.2-7.3,4.2S3271.2-826.9,3281-810.5z"/>
		<path class="st12" d="M3294.5-810.5c0,0,3.1-3.5,8.4-3.5s7.3,4.2,7.3,4.2S3304.4-826.9,3294.5-810.5z"/>
	</g>
	<line class="st3" x1="3320.1" y1="-804.4" x2="3316.9" y2="-797"/>
	<line class="st3" x1="3254.5" y1="-805.6" x2="3257" y2="-801.2"/>
</g>
<g>
	<g>
		<g>
			<path class="st12" d="M3093.8-759.9c0,0,10.1,9.4,33.5,12.6v27.4h-117l0.1-23.9c0,0,19.9-0.7,33.5-14.7"/>
			<path class="st12" d="M3094.5-759.3c0,0,7,28.4-25.5,28.4s-28.6-24.4-28.6-24.4s3.6-4,9.4-7.4c11.5-6.7,34.6-5.3,42.9,2.1"/>
			<path class="st12" d="M3044.5-747.6c-1.7-23.8-0.4-32.8-0.4-32.8l50.2-0.7c0,0-0.7,31.1-2.1,33.9"/>
		</g>
		<path class="st0" d="M3036.9-816.4c0,0-2.1-2.1-4.2-1.1c-2.1,1.1-1.4,9.4,1.4,12.6c0,0-1.4,16.7,11.9,14.7"/>
		<path class="st0" d="M3100.9-815.7c0,0,2.1-2.1,4.2-1.1c2.1,1.1,1.4,9.4-1.4,12.6c0,0,1.4,16.7-11.9,14.7"/>
		<g>
			<path class="st0" d="M3043.9-758.4c-13.6,14-33.5,14.7-33.5,14.7s-31.6,0.1-31.6,25.2h174.6c0-26.5-26.1-28.6-26.1-28.6
				c-23.4-3.1-33.5-12.6-33.5-12.6"/>
			<path class="st0" d="M3040.5-755.3c0,0-3.9,24.4,28.6,24.4s25.5-28.4,25.5-28.4"/>
			<path class="st0" d="M3094.5-781.1c0,0-0.7,31.1-2.1,33.9"/>
			<path class="st0" d="M3044.2-780.4c0,0-1.4,9.1,0.4,32.8"/>
		</g>
		<path class="st0" d="M3069.4-755.3c0,0-20.3,1.4-27.6-31.4c-1.5-6.7-3.9-14.4-3.9-24.1c0,0-1.7-54.8,31.4-54.8"/>
		<path class="st0" d="M3068.5-755.3c0,0,21.4,1.1,28.3-33.5c1.2-6.3,3.1-13.1,3.1-22c0,0,1.7-54.8-31.4-54.8"/>
		<path class="st0" d="M3037.7-811.5c0,0-7.2-15-4.7-25.5c2.4-10.3,9.8-26.9,34.2-28.6c24.4-1.7,38.1,22.8,38.1,32.5
			c0,10.1-5,22-5,22s-1.3-25.5-7.5-30.4c-9.4-7.3-23.8-5.6-23.8-5.6s-17.5-0.7-23.8,5.6C3039-835.2,3037.7-811.5,3037.7-811.5z"/>
		<path class="st3" d="M3057-779.4c0,0,8.7,1.7,11.9,1.7c3.1,0,9.8-1.1,11.2-1.4"/>
		<path class="st12" d="M3062.7-810.5c0,0-3.1-3.5-8.4-3.5s-7.3,4.2-7.3,4.2S3053-826.9,3062.7-810.5z"/>
		<path class="st12" d="M3076.2-810.5c0,0,3.1-3.5,8.4-3.5s7.3,4.2,7.3,4.2S3086-826.9,3076.2-810.5z"/>
	</g>
	<line class="st3" x1="3101.9" y1="-804.4" x2="3098.5" y2="-797"/>
	<line class="st3" x1="3036.2" y1="-805.6" x2="3038.7" y2="-801.2"/>
</g>
<g>
	<g>
		<g>
			<path class="st12" d="M3093.8-373.4c0,0,10.1,9.4,33.5,12.6v27.4h-117l0.1-23.9c0,0,19.9-0.7,33.5-14.7"/>
			<path class="st12" d="M3094.5-372.8c0,0,7,28.4-25.5,28.4s-28.6-24.4-28.6-24.4s3.6-4,9.4-7.4c11.5-6.7,34.6-5.3,42.9,2.1"/>
			<path class="st12" d="M3044.5-361.1c-1.7-23.8-0.4-32.8-0.4-32.8l50.2-0.7c0,0-0.7,31.1-2.1,33.9"/>
		</g>
		<path class="st0" d="M3036.9-429.9c0,0-2.1-2.1-4.2-1.1c-2.1,1.1-1.4,9.4,1.4,12.6c0,0-1.4,16.7,11.9,14.7"/>
		<path class="st0" d="M3100.9-429.2c0,0,2.1-2.1,4.2-1.1c2.1,1.1,1.4,9.4-1.4,12.6c0,0,1.4,16.7-11.9,14.7"/>
		<g>
			<path class="st0" d="M3043.9-371.9c-13.6,14-33.5,14.7-33.5,14.7s-31.7,0.1-31.7,25.2h174.6c0-26.5-26.1-28.6-26.1-28.6
				c-23.4-3.1-33.5-12.6-33.5-12.6"/>
			<path class="st0" d="M3040.5-368.8c0,0-3.9,24.4,28.6,24.4s25.5-28.4,25.5-28.4"/>
			<path class="st0" d="M3094.5-394.6c0,0-0.7,31.1-2.1,33.9"/>
			<path class="st0" d="M3044.2-393.9c0,0-1.4,9.1,0.4,32.8"/>
		</g>
		<path class="st0" d="M3069.4-368.8c0,0-20.3,1.4-27.6-31.4c-1.5-6.7-3.9-14.4-3.9-24.1c0,0-1.7-54.8,31.4-54.8"/>
		<path class="st0" d="M3068.5-368.8c0,0,21.4,1.1,28.3-33.5c1.2-6.3,3.1-13.1,3.1-22c0,0,1.7-54.8-31.4-54.8"/>
		<path class="st0" d="M3037.7-425c0,0-7.2-15-4.7-25.5c2.4-10.3,9.8-26.9,34.2-28.6c24.4-1.7,38.1,22.8,38.1,32.5c0,10.1-5,22-5,22
			s-1.3-25.5-7.5-30.4c-9.4-7.3-23.8-5.6-23.8-5.6s-17.5-0.7-23.8,5.6C3039-448.7,3037.7-425,3037.7-425z"/>
		<path class="st3" d="M3057-392.9c0,0,8.7,1.7,11.9,1.7c3.1,0,9.8-1.1,11.2-1.4"/>
		<path class="st12" d="M3062.7-424c0,0-3.1-3.5-8.4-3.5s-7.3,4.2-7.3,4.2S3053-440.4,3062.7-424z"/>
		<path class="st12" d="M3076.2-424c0,0,3.1-3.5,8.4-3.5s7.3,4.2,7.3,4.2S3086-440.4,3076.2-424z"/>
	</g>
	<line class="st3" x1="3101.9" y1="-417.9" x2="3098.5" y2="-410.5"/>
	<line class="st3" x1="3036.2" y1="-419.1" x2="3038.7" y2="-414.7"/>
</g>
<g>
	<g>
		<g>
			<path class="st12" d="M3312.1-373.4c0,0,10.1,9.4,33.5,12.6v27.4h-117l0.1-23.9c0,0,19.9-0.7,33.5-14.7"/>
			<path class="st12" d="M3312.8-372.8c0,0,7,28.4-25.5,28.4s-28.6-24.4-28.6-24.4s3.6-4,9.4-7.4c11.5-6.7,34.6-5.3,42.9,2.1"/>
			<path class="st12" d="M3262.9-361.1c-1.7-23.8-0.4-32.8-0.4-32.8l50.2-0.7c0,0-0.7,31.1-2.1,33.9"/>
		</g>
		<path class="st0" d="M3255.2-429.9c0,0-2.1-2.1-4.2-1.1c-2.1,1.1-1.4,9.4,1.4,12.6c0,0-1.4,16.7,11.9,14.7"/>
		<path class="st0" d="M3319.2-429.2c0,0,2.1-2.1,4.2-1.1c2.1,1.1,1.4,9.4-1.4,12.6c0,0,1.4,16.7-11.9,14.7"/>
		<g>
			<path class="st0" d="M3262.2-371.9c-13.6,14-33.5,14.7-33.5,14.7s-31.6,0.1-31.6,25.2h174.6c0-26.5-26.1-28.6-26.1-28.6
				c-23.4-3.1-33.5-12.6-33.5-12.6"/>
			<path class="st0" d="M3258.8-368.8c0,0-3.9,24.4,28.6,24.4s25.5-28.4,25.5-28.4"/>
			<path class="st0" d="M3312.8-394.6c0,0-0.7,31.1-2.1,33.9"/>
			<path class="st0" d="M3262.5-393.9c0,0-1.4,9.1,0.4,32.8"/>
		</g>
		<path class="st0" d="M3287.7-368.8c0,0-20.3,1.4-27.6-31.4c-1.5-6.7-3.9-14.4-3.9-24.1c0,0-1.7-54.8,31.4-54.8"/>
		<path class="st0" d="M3286.9-368.8c0,0,21.4,1.1,28.3-33.5c1.2-6.3,3.1-13.1,3.1-22c0,0,1.7-54.8-31.4-54.8"/>
		<path class="st0" d="M3256.1-425c0,0-7.2-15-4.7-25.5c2.4-10.3,9.8-26.9,34.2-28.6c24.4-1.7,38.1,22.8,38.1,32.5c0,10.1-5,22-5,22
			s-1.3-25.5-7.5-30.4c-9.4-7.3-23.8-5.6-23.8-5.6s-17.5-0.7-23.8,5.6C3257.3-448.7,3256.1-425,3256.1-425z"/>
		<path class="st3" d="M3275.4-392.9c0,0,8.7,1.7,11.9,1.7c3.1,0,9.8-1.1,11.2-1.4"/>
		<path class="st12" d="M3281-424c0,0-3.1-3.5-8.4-3.5s-7.3,4.2-7.3,4.2S3271.3-440.4,3281-424z"/>
		<path class="st12" d="M3294.6-424c0,0,3.1-3.5,8.4-3.5s7.3,4.2,7.3,4.2S3304.4-440.4,3294.6-424z"/>
	</g>
	<line class="st3" x1="3320.2" y1="-417.9" x2="3316.9" y2="-410.5"/>
	<line class="st3" x1="3254.5" y1="-419.1" x2="3257" y2="-414.7"/>
</g>
<rect x="2361.2" y="-627.3" class="st13" width="113.1" height="48.7"/>
<text transform="matrix(1 0 0 1 1340 822.8358)" style="font-family:'WorkSans-Regular'; font-size:51.5274px;">BUY</text>
<rect x="2135.8" y="-441.9" class="st13" width="113.1" height="48.7"/>
<text transform="matrix(1 0 0 1 972.9553 -142.0825)" style="font-family:'WorkSans-Regular'; font-size:51.5274px;">BUY</text>
<rect x="2801.3" y="-829.8" class="st13" width="113.1" height="48.7"/>
<text transform="matrix(1 0 0 1 -175.4298 161.0818)" style="font-family:'WorkSans-Regular'; font-size:51.5274px;">BUY</text>
<g id="Layer_3" class="st15">
	<path class="st16" d="M1548.5-1061.2c-12.6-12.2-11.4-17.5-19.7-24.5c-18.1-15.3-44.1-7.6-44.6-12.1c-0.4-3.4,14-10.2,29.7-10.8
		c15.1-0.6,24,4.7,25.8,1.8c2.2-3.6-11.6-12-22.4-28.3c-10.8-16.1-9.3-26.1-17.6-54.1c-7.5-25.4-11.8-38.2-18.8-48.5
		c-14.7-21.6-33.2-29.7-31.5-32.5c1.5-2.5,17,1.8,30,11.7c14.7,11.3,17.8,23.4,20.8,22.4c5-1.6,6.1-37.7-13.5-67
		c-15.5-23.2-37.3-32-34.5-38.4c2-4.5,14.9-4.8,25.6-1.6c34.7,10.4,44.9,56.9,53.2,54.8c7.2-1.9-2.3-44.6,2.7-45.9
		c3.4-0.9,13.3,18,17.8,39.6c4.7,22.7,2.1,42-0.2,57.4c-4.3,29.9-12.5,50-10.7,50.7c2.9,1.1,21.1-47.7,27.7-45.9
		c4.3,1.2,2.3,22.7,0.2,35.9c-6.3,39.2-20.2,45.8-18.7,71.8c0.6,9.6,3.9,19.6,10.5,39.6c7.9,23.9,14.7,35.9,11.4,38.4
		C1567.8-1043.8,1554.3-1055.7,1548.5-1061.2z"/>
	<path class="st17" d="M-1097.2-797.1c-134.1,12-308.5,48.1-300.2,78.4c7.5,27.5,162.3,38.9,246.6,45.1
		c113.1,8.3,324.2,23.9,386-24.5c29.7-23.3,18.8-56.6-15-77.4C-850.9-819.2-1018-804.2-1097.2-797.1z"/>
	<path class="st17" d="M-958.5-892.5c-75.7,14.3-170.5,43.9-147.5,65.8c23.6,22.4,160.2,26.5,224.4,28.5
		c29.2,0.9,157.5,4,307.8-17.7c68.7-9.9,219.5-31.7,211.6-53C-373.8-900.4-732.6-935.4-958.5-892.5z"/>
	<path class="st17" d="M-492-1235.9c-49.2-31.4-119.3-21.6-152.7,22.7c-19,25.2-27.6,63.7-13.6,93.7c32.3,69,177.5,79.4,213.1,22.7
		C-422.1-1133.5-441.4-1203.6-492-1235.9z"/>
	<rect x="-1434" y="-1805" class="st17" width="450" height="802"/>
	<g class="st18">
		<path class="st11" d="M2467-799.6L2467-799.6c-89.7,0-162.5,72.8-162.5,162.5v420.7h325v-420.7
			C2629.5-726.9,2556.7-799.6,2467-799.6z"/>
		<circle class="st19" cx="2577.1" cy="-472.6" r="22.8"/>
	</g>
	<rect x="-1246.2" y="467.8" class="st20" width="136.9" height="136.9"/>
	<polyline class="st21" points="-1245.5,467.5 -1177.2,424.4 -1109.5,467.5 	"/>
	<circle class="st22" cx="-1176.9" cy="424.8" r="2.2"/>
	<path class="st23" d="M-1239,550.1l36.6-30.2c2.1-1.8,5.2-1.7,7.3,0.1l34.3,29.8c2.4,2,5.9,1.8,8-0.5l12.9-14.6
		c2.2-2.5,6-2.6,8.3-0.2l15.4,15.6v48.6H-1239V550.1z"/>
	<g class="st18">
		<path d="M-1178.5-595.5v865.4h-1838v-865.4H-1178.5 M-1177.5-596.5h-1840v867.4h1840V-596.5L-1177.5-596.5z"/>
	</g>
</g>
<g id="Layer_1_1_" class="st15">
</g>
<g id="Layer_4" class="st15">
	<g class="st18">
		<g>
			<g>
				<g>
					<defs>
						<rect id="SVGID_4_" x="-251" y="198" width="1842" height="145"/>
					</defs>
					<clipPath id="SVGID_5_">
						<use xlink:href="#SVGID_4_"  style="overflow:visible;"/>
					</clipPath>
					<g class="st24">
						<text transform="matrix(1 0 0 1 -374.0104 311.9448)" class="st25 st26 st27">BUY BUY BUY BUY BUY BUY BUY BUY BUY BUY BUY</text>
						<text transform="matrix(1 0 0 1 -374.0104 311.9448)" class="st3 st26 st27">BUY BUY BUY BUY BUY BUY BUY BUY BUY BUY BUY</text>
					</g>
				</g>
			</g>
		</g>
		<g>
			<rect id="SVGID_1_" x="-251" y="198" class="st3" width="1842" height="145"/>
		</g>
	</g>
</g>
<path class="st28" d="M1544,354.3l-0.2-0.3c-8.6-14.9-9-32.9-2-48.7c2.4-5.3,3.6-11.3,3.2-17.6c-1.1-19.5-17.2-35.1-36.7-35.7
	c-21.5-0.7-39.2,16.6-39.2,38c0,6.1,1.4,11.8,4,16.9c8,16.1,8.1,35,0,51.1l0,0l-56.9,81.9c-3.6,5.2-5.1,11.6-4.2,17.8l5.5,36.5
	c1.1,7.1,8.4,11.3,15.1,8.8l0,0l-0.7-36.9c-0.2-9.1,3.1-17.8,9.3-24.5l15.3-16.6c4-4.3,11.2-1.4,11.1,4.5l-5.2,203.1
	c-0.1,5.2,4,9.4,9.2,9.4h8.6l20.9-105.5c0.6-3.2,3.4-5.5,6.7-5.5h14.1c3.7,0,6.9,2.6,7.7,6.2l23.6,104.8h9.9c5.4,0,9.7-4.6,9.4-10
	l-14.2-201.5c-0.3-3.6,4.2-5.6,6.7-2.9l15.9,17.3c6,6.5,9.2,15.1,9,23.9l-0.7,37.3l0,0c6.7,2.6,14-1.7,15.1-8.8l5.9-39.3
	c0.7-4.4-0.4-9-3-12.7L1544,354.3z"/>
<g>
	<g>
		<rect x="236.5" y="669" class="st29" width="6" height="200"/>
		<path class="st29" d="M280.3,849.7h-81.6c-3.5,0-6.3,2.8-6.3,6.3v8.7h94.2V856C286.6,852.5,283.8,849.7,280.3,849.7z"/>
	</g>
	<g>
		<polygon class="st29" points="372.7,686.3 328.4,651.6 328.4,665.8 123.2,665.8 123.2,706.8 328.4,706.8 328.4,721 		"/>
		<g>
			<path class="st10" d="M139,677.4h6.1c2.3,0,4.2,1,5.3,2.9c0.9,1.5,0.9,2.1,0.9,5.8c0,3.9-0.2,4.6-1,5.8c-1,1.6-2.8,2.9-5.5,2.9
				H139V677.4z M141.7,692.4h3.2c1.5,0,2.6-0.5,3.2-1.5c0.6-0.9,0.7-1.4,0.7-4.6c0-3.1-0.1-3.9-0.8-4.9c-0.8-1.1-1.7-1.5-3.1-1.5
				h-3.2V692.4z"/>
			<path class="st10" d="M160.8,693.8L160.8,693.8c-0.6,0.9-1.4,1.3-3.1,1.3c-2.8,0-4.4-1.6-4.4-3.8c0-2,1.4-3.7,4.1-3.7h3.5v-1.3
				c0-1.2-0.8-1.6-2.6-1.6c-1.3,0-1.9,0.2-2.4,1l-2-1.5c1-1.3,2.3-1.8,4.2-1.8c3.1,0,5.2,1,5.2,4.1v8.5h-2.5V693.8z M160.8,689.6h-3
				c-1.5,0-2.2,0.6-2.2,1.5c0,0.8,0.7,1.6,2.4,1.6c2.1,0,2.8-0.2,2.8-2.2V689.6z"/>
			<path class="st10" d="M166.7,677.4h2.5v2.5h-2.5V677.4z M166.7,682.4h2.5v12.5h-2.5V682.4z"/>
			<path class="st10" d="M172.5,677.4h2.5v14.3c0,0.6,0.3,0.9,0.9,0.9h0.9v2.4h-1.1c-1.8,0-3.2-0.8-3.2-3V677.4z"/>
			<path class="st10" d="M177,682.4h2.7l2.9,8.7h0l2.9-8.7h2.7l-5.4,15c-0.7,1.9-2,2.5-3.5,2.5h-0.8v-2.4h0.7c0.6,0,1.3-0.3,1.5-1.1
				l0.7-2.1L177,682.4z"/>
			<path class="st10" d="M207.6,690c-0.7,3.3-3.1,5-6.1,5c-2.8,0-4.6-1.6-5.5-3.1c-0.6-1-0.8-1.5-0.8-5.7c0-4.2,0.2-4.7,0.8-5.7
				c0.8-1.5,2.7-3.1,5.5-3.1c3.3,0,5.6,2.3,6.1,5.2h-2.8c-0.4-1.4-1.7-2.5-3.3-2.5c-1.3,0-2.2,0.6-2.7,1.3c-0.7,0.9-0.9,1.4-0.9,5
				c0,3.6,0.2,4.1,0.9,5c0.5,0.7,1.5,1.3,2.7,1.3c1.5,0,2.6-0.8,3.3-2.4H207.6z"/>
			<path class="st10" d="M210,683.9c0.7-0.8,1.8-1.6,3.8-1.6s3.1,0.8,3.8,1.6c1,1.1,1.4,2.1,1.4,4.8c0,2.7-0.4,3.7-1.4,4.8
				c-0.7,0.8-1.8,1.6-3.8,1.6s-3.1-0.8-3.8-1.6c-1-1.1-1.4-2.1-1.4-4.8C208.7,686,209.1,684.9,210,683.9z M215.8,685.7
				c-0.4-0.5-1.2-0.9-2-0.9c-0.9,0-1.6,0.4-2,0.9c-0.5,0.7-0.6,1.2-0.6,2.9c0,1.8,0.1,2.3,0.6,3c0.4,0.5,1.2,0.9,2,0.9
				c0.9,0,1.6-0.4,2-0.9c0.5-0.7,0.6-1.2,0.6-2.9C216.4,686.9,216.3,686.4,215.8,685.7z"/>
			<path class="st10" d="M221.6,682.4h2.5v1.3h0c0.8-1,1.9-1.5,3.2-1.5c1.9,0,4.2,1.5,4.2,4.3v8.3H229v-7.4c0-1.7-1.1-2.7-2.5-2.7
				c-1.4,0-2.5,1-2.5,2.7v7.4h-2.5V682.4z"/>
			<path class="st10" d="M234.9,678.7h2.5v3.8h1.8v1.9h-1.8v7.2c0,0.7,0.3,0.9,0.9,0.9h0.9v2.4h-1.3c-1.7,0-3-1.1-3-3.1v-7.5h-1.3
				v-1.9h1.3V678.7z"/>
			<path class="st10" d="M243.5,689.6c0,2,1.3,3.1,3,3.1c1,0,2-0.4,2.7-1.2l1.8,1.5c-1.2,1.4-2.8,2-4.5,2c-2.6,0-5.5-1.2-5.5-6.3
				c0-4.8,2.7-6.4,5.1-6.4c2.8,0,5.1,2,5.1,5.3v2.1H243.5z M248.7,687.6c-0.1-1.9-1.2-2.9-2.6-2.9s-2.6,1-2.6,2.9H248.7z"/>
			<path class="st10" d="M253.9,682.4h2.5v1.3h0c0.8-1,1.9-1.5,3.2-1.5c1.9,0,4.2,1.5,4.2,4.3v8.3h-2.5v-7.4c0-1.7-1.1-2.7-2.5-2.7
				c-1.4,0-2.5,1-2.5,2.7v7.4h-2.5V682.4z"/>
			<path class="st10" d="M267.2,678.7h2.5v3.8h1.8v1.9h-1.8v7.2c0,0.7,0.3,0.9,0.9,0.9h0.9v2.4h-1.3c-1.7,0-3-1.1-3-3.1v-7.5H266
				v-1.9h1.3V678.7z"/>
			<path class="st10" d="M280,677.4h11.2v2.5h-8.5v5.2h7.3v2.4h-7.3v7.5H280V677.4z"/>
			<path class="st10" d="M294.4,689.6c0,2,1.3,3.1,3,3.1c1,0,2-0.4,2.7-1.2l1.8,1.5c-1.2,1.4-2.8,2-4.5,2c-2.6,0-5.5-1.2-5.5-6.3
				c0-4.8,2.7-6.4,5.1-6.4c2.8,0,5.1,2,5.1,5.3v2.1H294.4z M299.7,687.6c-0.1-1.9-1.2-2.9-2.6-2.9s-2.6,1-2.6,2.9H299.7z"/>
			<path class="st10" d="M306.7,689.6c0,2,1.3,3.1,3,3.1c1,0,2-0.4,2.7-1.2l1.8,1.5c-1.2,1.4-2.8,2-4.5,2c-2.6,0-5.5-1.2-5.5-6.3
				c0-4.8,2.7-6.4,5.1-6.4c2.8,0,5.1,2,5.1,5.3v2.1H306.7z M312,687.6c-0.1-1.9-1.2-2.9-2.6-2.9s-2.6,1-2.6,2.9H312z"/>
			<path class="st10" d="M324.6,693.6c-0.8,0.9-1.9,1.4-3.2,1.4c-1.5,0-2.6-0.7-3.3-1.6c-0.7-0.9-0.9-1.7-0.9-4.8
				c0-3,0.2-3.9,0.9-4.7c0.7-0.9,1.8-1.6,3.3-1.6c1.3,0,2.3,0.6,3.2,1.5v-6.4h2.5v17.5h-2.5V693.6z M319.6,688.7
				c0,1.9,0.1,3.9,2.5,3.9c2.3,0,2.5-2.1,2.5-3.9c0-1.8-0.1-3.9-2.5-3.9C319.7,684.8,319.6,686.7,319.6,688.7z"/>
		</g>
	</g>
</g>
<path class="st30" d="M909.5,509.4h-0.4c-0.9,0-1.7,0.5-2.2,1.3l-1,1.7l-1-1.7c-0.5-0.8-1.3-1.3-2.2-1.3h-0.4
	c-0.9,0-1.7,0.5-2.2,1.2l-0.2,0.4c-0.6,1-0.5,2.2,0.2,3.1l1.1,1.5c0.8,1.1,1.8,2.1,2.9,3l1.9,1.6l2.1-1.7c0.9-0.7,1.7-1.6,2.4-2.5
	l1.3-1.7c0.7-0.9,0.8-2.2,0.2-3.1l-0.2-0.4C911.2,509.8,910.4,509.4,909.5,509.4z"/>
<g>
	<path class="st10" d="M920.2,510.2h5.3v1.4h-4v2.3c0.5-0.4,1-0.5,1.6-0.5c0.8,0,1.4,0.3,1.8,0.7c0.5,0.6,0.8,1.1,0.8,2.7
		c0,1.3-0.2,1.8-0.6,2.4c-0.4,0.5-1.2,1.1-2.2,1.1c-1.3,0-2.7-0.7-2.9-2.6h1.4c0.2,0.7,0.6,1.2,1.4,1.2c1.4,0,1.4-1.2,1.4-2.1
		c0-1.1-0.3-1.9-1.4-1.9c-0.5,0-1,0.2-1.3,0.8h-1.3V510.2z"/>
	<path class="st10" d="M927.2,518.7h1.4v1.4l-1.4,1V518.7z"/>
	<path class="st10" d="M932.7,520.1h-1.6l2.1-4.2h0c-0.2,0.1-0.5,0.1-0.8,0.1c-1.3,0-2.4-0.8-2.4-2.8c0-2.3,1.5-3.2,2.9-3.2
		c1.4,0,2.8,1.2,2.8,3c0,0.6-0.1,1.2-0.4,1.7L932.7,520.1z M934.3,513.1c0-1.1-0.6-1.6-1.4-1.6c-0.7,0-1.4,0.4-1.4,1.6
		c0,1.1,0.6,1.6,1.4,1.6C933.7,514.8,934.3,514.3,934.3,513.1z"/>
	<path class="st10" d="M936.4,517.3l3.3-7.1h1.6l-3.4,7.1h2.6v-2.9h1.4v2.9h0.8v1.3H942v1.5h-1.4v-1.5h-4.2V517.3z"/>
	<path class="st10" d="M945.5,514.4h0.5c1,0,1.5-0.6,1.5-1.4s-0.7-1.4-1.5-1.4c-0.6,0-1.2,0.4-1.4,1.2h-1.4c0.1-1.4,1.3-2.6,2.7-2.6
		c1.8,0,2.9,1.4,2.9,2.8c0,0.8-0.2,1.5-1.1,2.1c0.8,0.5,1.2,1.4,1.2,2.2c0,1.8-1.3,3.1-3,3.1c-1.3,0-2.6-0.9-2.8-2.6h1.4
		c0.3,0.7,0.7,1.1,1.5,1.1c0.8,0,1.5-0.6,1.5-1.6c0-1-0.7-1.6-1.5-1.6h-0.6V514.4z"/>
	<path class="st10" d="M954,510.2h1.4v8.1c0,0.3,0.2,0.5,0.5,0.5h0.5v1.3h-0.6c-1,0-1.8-0.4-1.8-1.7V510.2z"/>
	<path class="st10" d="M957.7,510.2h1.4v1.4h-1.4V510.2z M957.7,513h1.4v7.1h-1.4V513z"/>
	<path class="st10" d="M961,510.2h1.4v6.2h0l2.7-3.3h1.7l-2.5,2.8l2.8,4.3h-1.8l-1.9-3.3l-1.1,1.3v2H961V510.2z"/>
	<path class="st10" d="M969.1,517.1c0,1.2,0.7,1.8,1.7,1.8c0.5,0,1.1-0.3,1.6-0.7l1,0.9c-0.7,0.8-1.6,1.1-2.6,1.1
		c-1.5,0-3.2-0.7-3.2-3.6c0-2.8,1.6-3.7,2.9-3.7c1.6,0,2.9,1.2,2.9,3v1.2H969.1z M972.1,515.9c0-1.1-0.7-1.7-1.5-1.7
		c-0.8,0-1.5,0.6-1.5,1.7H972.1z"/>
	<path class="st10" d="M975.3,518c0.6,0.6,1.3,0.9,2.2,0.9c0.8,0,1.4-0.3,1.4-0.9c0-0.5-0.4-0.7-0.9-0.7l-1.3-0.1
		c-1.2-0.1-2-0.8-2-2c0-1.4,1.1-2.2,2.6-2.2c1.2,0,2.1,0.4,2.8,1l-0.9,1c-0.6-0.4-1.1-0.7-1.9-0.7c-0.9,0-1.2,0.4-1.2,0.9
		c0,0.3,0.2,0.6,0.9,0.7l1.2,0.1c1.5,0.1,2.1,1,2.1,2.1c0,1.4-1.3,2.2-2.9,2.2c-1.1,0-2.2-0.4-3.1-1.3L975.3,518z"/>
</g>
<text transform="matrix(1 0 0 1 919.4768 661.4584)" class="st10" style="font-family:'DINMittelschriftStd'; font-size:14px;">5,943 likes</text>
<g>
	<path class="st10" d="M-511.9,146h-22.3v-11h56.9v11h-22.3v70.4h-12.3V146z"/>
	<path class="st10" d="M-424.1,180.8h-32.2v35.5h-12.3V135h12.3v34.8h32.2V135h12.3v81.3h-12.3V180.8z"/>
	<path class="st10" d="M-394.6,135h52v11.7h-39.6v23.2h33.8v11h-33.8v23.9h39.6v11.7h-52V135z"/>
</g>
<g>
	<path class="st10" d="M-499.2,267.3h28.9v16.6c0,16.1-12.8,28.9-29,28.9c-12.8,0-21.6-7.5-25.5-14.6c-2.6-4.8-3.5-7.2-3.5-26.7
		c0-19.5,0.9-21.9,3.5-26.7c3.9-7.1,12.7-14.6,25.5-14.6c15.4,0,26,10.9,28.6,24.1h-13c-1.9-6.3-7.8-11.8-15.5-11.8
		c-5.8,0-10.1,2.7-12.6,5.9c-3.2,4.1-4.1,6.4-4.1,23.1c0,16.7,0.9,19,4.1,23.1c2.5,3.2,6.7,5.9,12.6,5.9c9.4,0,16.7-7.1,16.7-17.2
		V279h-16.6V267.3z"/>
	<path class="st10" d="M-414.2,293.9H-445l-6.3,18.2h-13l29.6-81.3h10.3l29.6,81.3h-13L-414.2,293.9z M-417.7,283l-11.8-35.5h-0.2
		l-11.8,35.5H-417.7z"/>
	<path class="st10" d="M-386.2,230.7h12.3v69.7h39.6v11.7h-52V230.7z"/>
	<path class="st10" d="M-322.7,230.7h12.3v69.7h39.6v11.7h-52V230.7z"/>
	<path class="st10" d="M-259.2,230.7h52v11.7h-39.6v23.2h33.8v11h-33.8v23.9h39.6v11.7h-52V230.7z"/>
	<path class="st10" d="M-195.6,230.7h31.8c6.9,0,12.2,1.6,16.6,5.4c4.6,3.9,8.1,10.1,8.1,17.4c0,10.5-5.9,19.1-15.8,22.5l18.8,36.1
		h-14.6l-16.8-34.7h-15.8v34.7h-12.3V230.7z M-183.3,266.4h18.6c9.3,0,13.8-6.1,13.8-12.9c0-4.2-1.6-7.4-4.1-9.3
		c-2.3-1.7-4.8-2.5-9-2.5h-19.3V266.4z"/>
	<path class="st10" d="M-115.2,278.6l-24.4-47.9h13l17.3,36.1l17.3-36.1h13l-24.4,47.9v33.5h-11.7V278.6z"/>
</g>
<text transform="matrix(1 0 0 1 341.2658 -168.6276)" style="font-family:'DINMittelschriftStd'; font-size:114.7465px;">MoWA</text>
<g>
	<path class="st10" d="M-528.3,355.3h6.1c2.3,0,4.2,1,5.3,2.9c0.9,1.5,0.9,2.1,0.9,5.8c0,3.9-0.2,4.6-1,5.8c-1,1.6-2.8,2.9-5.5,2.9
		h-5.9V355.3z M-525.6,370.3h3.2c1.5,0,2.6-0.5,3.2-1.5c0.6-0.9,0.7-1.4,0.7-4.6c0-3.1-0.1-3.9-0.8-4.9c-0.8-1.1-1.7-1.5-3.1-1.5
		h-3.2V370.3z"/>
	<path class="st10" d="M-506.5,371.7L-506.5,371.7c-0.6,0.9-1.4,1.3-3.1,1.3c-2.8,0-4.4-1.6-4.4-3.8c0-2,1.4-3.7,4.1-3.7h3.5v-1.3
		c0-1.2-0.8-1.6-2.6-1.6c-1.3,0-1.9,0.2-2.4,1l-2-1.5c1-1.3,2.3-1.8,4.2-1.8c3.1,0,5.2,1,5.2,4.1v8.5h-2.5V371.7z M-506.5,367.5h-3
		c-1.5,0-2.2,0.6-2.2,1.5c0,0.8,0.7,1.6,2.4,1.6c2.1,0,2.8-0.2,2.8-2.2V367.5z"/>
	<path class="st10" d="M-500.7,355.3h2.5v2.5h-2.5V355.3z M-500.7,360.4h2.5v12.5h-2.5V360.4z"/>
	<path class="st10" d="M-494.9,355.3h2.5v14.3c0,0.6,0.3,0.9,0.9,0.9h0.9v2.4h-1.1c-1.8,0-3.2-0.8-3.2-3V355.3z"/>
	<path class="st10" d="M-490.3,360.4h2.7l2.9,8.7h0l2.9-8.7h2.7l-5.4,15c-0.7,1.9-2,2.5-3.5,2.5h-0.8v-2.4h0.7
		c0.6,0,1.3-0.3,1.5-1.1l0.7-2.1L-490.3,360.4z"/>
	<path class="st10" d="M-459.7,367.9c-0.7,3.3-3.1,5-6.1,5c-2.8,0-4.6-1.6-5.5-3.1c-0.6-1-0.8-1.5-0.8-5.7c0-4.2,0.2-4.7,0.8-5.7
		c0.8-1.5,2.7-3.1,5.5-3.1c3.3,0,5.6,2.3,6.1,5.2h-2.8c-0.4-1.4-1.7-2.5-3.3-2.5c-1.3,0-2.2,0.6-2.7,1.3c-0.7,0.9-0.9,1.4-0.9,5
		c0,3.6,0.2,4.1,0.9,5c0.5,0.7,1.5,1.3,2.7,1.3c1.5,0,2.6-0.8,3.3-2.4H-459.7z"/>
	<path class="st10" d="M-457.3,361.8c0.7-0.8,1.8-1.6,3.8-1.6s3.1,0.8,3.8,1.6c1,1.1,1.4,2.1,1.4,4.8c0,2.7-0.4,3.7-1.4,4.8
		c-0.7,0.8-1.8,1.6-3.8,1.6s-3.1-0.8-3.8-1.6c-1-1.1-1.4-2.1-1.4-4.8C-458.7,363.9-458.3,362.9-457.3,361.8z M-451.5,363.6
		c-0.4-0.5-1.2-0.9-2-0.9c-0.9,0-1.6,0.4-2,0.9c-0.5,0.7-0.6,1.2-0.6,2.9c0,1.8,0.1,2.3,0.6,3c0.4,0.5,1.2,0.9,2,0.9
		c0.9,0,1.6-0.4,2-0.9c0.5-0.7,0.6-1.2,0.6-2.9C-450.9,364.8-451.1,364.3-451.5,363.6z"/>
	<path class="st10" d="M-445.8,360.4h2.5v1.3h0c0.8-1,1.9-1.5,3.2-1.5c1.9,0,4.2,1.5,4.2,4.3v8.3h-2.5v-7.4c0-1.7-1.1-2.7-2.5-2.7
		c-1.4,0-2.5,1-2.5,2.7v7.4h-2.5V360.4z"/>
	<path class="st10" d="M-432.4,356.6h2.5v3.8h1.8v1.9h-1.8v7.2c0,0.7,0.3,0.9,0.9,0.9h0.9v2.4h-1.3c-1.7,0-3-1.1-3-3.1v-7.5h-1.3
		v-1.9h1.3V356.6z"/>
	<path class="st10" d="M-423.9,367.5c0,2,1.3,3.1,3,3.1c1,0,2-0.4,2.7-1.2l1.8,1.5c-1.2,1.4-2.8,2-4.5,2c-2.6,0-5.5-1.2-5.5-6.3
		c0-4.8,2.7-6.4,5.1-6.4c2.8,0,5.1,2,5.1,5.3v2.1H-423.9z M-418.6,365.5c-0.1-1.9-1.2-2.9-2.6-2.9s-2.6,1-2.6,2.9H-418.6z"/>
	<path class="st10" d="M-413.5,360.4h2.5v1.3h0c0.8-1,1.9-1.5,3.2-1.5c1.9,0,4.2,1.5,4.2,4.3v8.3h-2.5v-7.4c0-1.7-1.1-2.7-2.5-2.7
		c-1.4,0-2.5,1-2.5,2.7v7.4h-2.5V360.4z"/>
	<path class="st10" d="M-400.1,356.6h2.5v3.8h1.8v1.9h-1.8v7.2c0,0.7,0.3,0.9,0.9,0.9h0.9v2.4h-1.3c-1.7,0-3-1.1-3-3.1v-7.5h-1.3
		v-1.9h1.3V356.6z"/>
	<path class="st10" d="M-387.3,355.3h11.2v2.5h-8.5v5.2h7.3v2.4h-7.3v7.5h-2.7V355.3z"/>
	<path class="st10" d="M-372.9,367.5c0,2,1.3,3.1,3,3.1c1,0,2-0.4,2.7-1.2l1.8,1.5c-1.2,1.4-2.8,2-4.5,2c-2.6,0-5.5-1.2-5.5-6.3
		c0-4.8,2.7-6.4,5.1-6.4c2.8,0,5.1,2,5.1,5.3v2.1H-372.9z M-367.7,365.5c-0.1-1.9-1.2-2.9-2.6-2.9s-2.6,1-2.6,2.9H-367.7z"/>
	<path class="st10" d="M-360.6,367.5c0,2,1.3,3.1,3,3.1c1,0,2-0.4,2.7-1.2l1.8,1.5c-1.2,1.4-2.8,2-4.5,2c-2.6,0-5.5-1.2-5.5-6.3
		c0-4.8,2.7-6.4,5.1-6.4c2.8,0,5.1,2,5.1,5.3v2.1H-360.6z M-355.4,365.5c-0.1-1.9-1.2-2.9-2.6-2.9s-2.6,1-2.6,2.9H-355.4z"/>
	<path class="st10" d="M-342.8,371.5c-0.8,0.9-1.9,1.4-3.2,1.4c-1.5,0-2.6-0.7-3.3-1.6c-0.7-0.9-0.9-1.7-0.9-4.8
		c0-3,0.2-3.9,0.9-4.7c0.7-0.9,1.8-1.6,3.3-1.6c1.3,0,2.3,0.6,3.2,1.5v-6.4h2.5v17.5h-2.5V371.5z M-347.7,366.6
		c0,1.9,0.1,3.9,2.5,3.9c2.3,0,2.5-2.1,2.5-3.9c0-1.8-0.1-3.9-2.5-3.9C-347.6,362.7-347.7,364.7-347.7,366.6z"/>
</g>
<text transform="matrix(1 0 0 1 -528.3016 437.6139)"><tspan x="0" y="0" class="st10" style="font-family:'DINMittelschriftStd'; font-size:20px;">Special thanks to our sponsors:</tspan><tspan x="0" y="22.8" class="st10" style="font-family:'DINMittelschriftStd'; font-size:19px;">Spectral Matress</tspan><tspan x="0" y="45.6" class="st10" style="font-family:'DINMittelschriftStd'; font-size:19px;">Kindred</tspan><tspan x="0" y="68.4" class="st10" style="font-family:'DINMittelschriftStd'; font-size:19px;">Ether Box</tspan><tspan x="0" y="91.2" class="st10" style="font-family:'DINMittelschriftStd'; font-size:19px;">Datacoin</tspan></text>
<g>
	<path class="st10" d="M-300.5,362.9v-4.5l9.5,6.1l-9.5,6.1v-4.5h-27.6v-3.3H-300.5z"/>
</g>
<g>
	<path class="st10" d="M153.7,146h-22.3v-11h56.9v11H166v70.4h-12.3V146z"/>
	<path class="st10" d="M241.5,180.8h-32.2v35.5H197V135h12.3v34.8h32.2V135h12.3v81.3h-12.3V180.8z"/>
	<path class="st10" d="M271,135h52v11.7h-39.6v23.2h33.8v11h-33.8v23.9H323v11.7h-52V135z"/>
</g>
<g>
	<path class="st10" d="M166.4,267.3h28.9v16.6c0,16.1-12.8,28.9-29,28.9c-12.8,0-21.6-7.5-25.5-14.6c-2.6-4.8-3.5-7.2-3.5-26.7
		c0-19.5,0.9-21.9,3.5-26.7c3.9-7.1,12.7-14.6,25.5-14.6c15.4,0,26,10.9,28.6,24.1h-13c-1.9-6.3-7.8-11.8-15.5-11.8
		c-5.8,0-10.1,2.7-12.6,5.9c-3.2,4.1-4.1,6.4-4.1,23.1c0,16.7,0.9,19,4.1,23.1c2.5,3.2,6.7,5.9,12.6,5.9c9.4,0,16.7-7.1,16.7-17.2
		V279h-16.6V267.3z"/>
	<path class="st10" d="M251.4,293.9h-30.8l-6.3,18.2h-13l29.6-81.3h10.3l29.6,81.3h-13L251.4,293.9z M247.9,283l-11.8-35.5h-0.2
		L224.1,283H247.9z"/>
	<path class="st10" d="M279.4,230.7h12.3v69.7h39.6v11.7h-52V230.7z"/>
	<path class="st10" d="M342.9,230.7h12.3v69.7h39.6v11.7h-52V230.7z"/>
	<path class="st10" d="M406.4,230.7h52v11.7h-39.6v23.2h33.8v11h-33.8v23.9h39.6v11.7h-52V230.7z"/>
	<path class="st10" d="M469.9,230.7h31.8c6.9,0,12.2,1.6,16.6,5.4c4.6,3.9,8.1,10.1,8.1,17.4c0,10.5-5.9,19.1-15.8,22.5l18.8,36.1
		h-14.6L498,277.4h-15.8v34.7h-12.3V230.7z M482.3,266.4h18.6c9.3,0,13.8-6.1,13.8-12.9c0-4.2-1.6-7.4-4.1-9.3
		c-2.3-1.7-4.8-2.5-9-2.5h-19.3V266.4z"/>
	<path class="st10" d="M550.4,278.6l-24.4-47.9h13l17.3,36.1l17.3-36.1h13L562,278.6v33.5h-11.7V278.6z"/>
</g>
<g>
	<path class="st10" d="M139,447.1c1.1,0.9,2.5,1.4,4,1.4c1.8,0,2.8-0.8,2.8-2c0-1-0.6-1.8-1.9-1.9c-0.6-0.1-1.1-0.2-1.9-0.3
		c-2.5-0.3-3.8-1.9-3.8-4c0-2.4,1.7-4.2,4.6-4.2c1.8,0,3.3,0.6,4.6,1.5l-1.2,1.8c-1-0.7-2.3-1.1-3.5-1.1c-1.3,0-2.4,0.7-2.4,2
		c0,0.8,0.6,1.6,2,1.8c0.4,0.1,0.9,0.1,1.6,0.2c2.7,0.3,3.9,2.2,3.9,4.1c0,2.6-1.9,4.1-5,4.1c-2.1,0-3.9-0.6-5.4-2L139,447.1z"/>
	<path class="st10" d="M150.1,440.4h2v1.1c0.6-0.7,1.6-1.2,2.6-1.2c1.2,0,2.1,0.6,2.7,1.3c0.6,0.7,0.7,1.4,0.7,3.9
		c0,2.5-0.2,3.1-0.7,3.9c-0.6,0.8-1.5,1.3-2.7,1.3c-1,0-1.9-0.5-2.6-1.2v5.2h-2V440.4z M156.1,445.5c0-1.6-0.1-3.2-2-3.2
		c-1.9,0-2,1.7-2,3.2c0,1.5,0.1,3.1,2,3.1C156,448.7,156.1,447.1,156.1,445.5z"/>
	<path class="st10" d="M162,446.3c0,1.7,1,2.5,2.4,2.5c0.8,0,1.6-0.4,2.2-1l1.5,1.3c-1,1.2-2.3,1.6-3.7,1.6c-2.1,0-4.5-1-4.5-5.2
		c0-3.9,2.2-5.2,4.2-5.2c2.2,0,4.2,1.7,4.2,4.3v1.7H162z M166.3,444.6c-0.1-1.5-0.9-2.4-2.1-2.4s-2.1,0.8-2.1,2.4H166.3z"/>
	<path class="st10" d="M177.9,448.9c-0.9,1-2.1,1.8-3.6,1.8c-2.3,0-4.6-1.5-4.6-5.2c0-3.7,2.3-5.2,4.6-5.2c1.5,0,2.8,0.7,3.6,1.8
		l-1.5,1.3c-0.5-0.6-1.2-1.1-2.1-1.1c-1.7,0-2.6,0.9-2.6,3.2c0,2.2,1,3.1,2.6,3.1c0.8,0,1.6-0.4,2.1-1.1L177.9,448.9z"/>
	<path class="st10" d="M179.4,436.3h2v2h-2V436.3z M179.4,440.4h2v10.1h-2V440.4z"/>
	<path class="st10" d="M189.5,449.7L189.5,449.7c-0.5,0.7-1.2,1-2.5,1c-2.3,0-3.6-1.3-3.6-3.1c0-1.6,1.1-3,3.3-3h2.8v-1.1
		c0-1-0.6-1.3-2.1-1.3c-1.1,0-1.6,0.2-1.9,0.8l-1.6-1.2c0.8-1.1,1.9-1.5,3.4-1.5c2.5,0,4.2,0.8,4.2,3.3v6.9h-2V449.7z M189.5,446.3
		H187c-1.2,0-1.8,0.5-1.8,1.2c0,0.7,0.5,1.3,1.9,1.3c1.7,0,2.3-0.2,2.3-1.8V446.3z"/>
	<path class="st10" d="M194.1,436.3h2V448c0,0.5,0.3,0.7,0.8,0.7h0.7v1.9h-0.9c-1.5,0-2.6-0.6-2.6-2.5V436.3z"/>
	<path class="st10" d="M204.2,437.4h2v3.1h1.5v1.6h-1.5v5.9c0,0.6,0.2,0.8,0.7,0.8h0.8v1.9h-1.1c-1.4,0-2.5-0.9-2.5-2.5V442h-1v-1.6
		h1V437.4z"/>
	<path class="st10" d="M209.7,436.3h2v5.2h0c0.6-0.8,1.6-1.2,2.6-1.2c1.6,0,3.4,1.2,3.4,3.5v6.7h-2v-6c0-1.4-0.9-2.2-2-2.2
		c-1.2,0-2,0.8-2,2.2v6h-2V436.3z"/>
	<path class="st10" d="M225.7,449.7L225.7,449.7c-0.5,0.7-1.2,1-2.5,1c-2.3,0-3.6-1.3-3.6-3.1c0-1.6,1.1-3,3.3-3h2.8v-1.1
		c0-1-0.6-1.3-2.1-1.3c-1.1,0-1.6,0.2-1.9,0.8l-1.6-1.2c0.8-1.1,1.9-1.5,3.4-1.5c2.5,0,4.2,0.8,4.2,3.3v6.9h-2V449.7z M225.7,446.3
		h-2.4c-1.2,0-1.8,0.5-1.8,1.2c0,0.7,0.5,1.3,1.9,1.3c1.7,0,2.3-0.2,2.3-1.8V446.3z"/>
	<path class="st10" d="M230.4,440.4h2v1.1h0c0.6-0.8,1.6-1.2,2.6-1.2c1.6,0,3.4,1.2,3.4,3.5v6.7h-2v-6c0-1.4-0.9-2.2-2-2.2
		c-1.2,0-2,0.8-2,2.2v6h-2V440.4z"/>
	<path class="st10" d="M241.1,436.3h2v8.9h0l3.9-4.8h2.4l-3.5,4l4,6.2h-2.6l-2.7-4.7l-1.6,1.8v2.9h-2V436.3z"/>
	<path class="st10" d="M251.8,447.5c0.9,0.9,1.8,1.3,3.2,1.3c1.2,0,2-0.4,2-1.3c0-0.7-0.5-0.9-1.2-1l-1.8-0.2
		c-1.7-0.1-2.9-1.1-2.9-2.9c0-2.1,1.6-3.1,3.8-3.1c1.8,0,3,0.5,4,1.4l-1.3,1.5c-0.8-0.6-1.6-0.9-2.7-0.9c-1.3,0-1.7,0.5-1.7,1.2
		c0,0.4,0.3,0.9,1.3,1l1.7,0.1c2.1,0.1,2.9,1.4,2.9,3c0,2-1.8,3.1-4.2,3.1c-1.6,0-3.2-0.6-4.5-1.8L251.8,447.5z"/>
	<path class="st10" d="M266,437.4h2v3.1h1.5v1.6h-1.5v5.9c0,0.6,0.2,0.8,0.7,0.8h0.8v1.9h-1.1c-1.4,0-2.5-0.9-2.5-2.5V442h-1v-1.6h1
		V437.4z"/>
	<path class="st10" d="M272.1,441.6c0.6-0.6,1.5-1.3,3.1-1.3c1.6,0,2.5,0.7,3.1,1.3c0.8,0.9,1.1,1.7,1.1,3.9c0,2.2-0.3,3-1.1,3.9
		c-0.6,0.6-1.5,1.3-3.1,1.3c-1.6,0-2.5-0.7-3.1-1.3c-0.8-0.9-1.1-1.7-1.1-3.9C271,443.3,271.3,442.5,272.1,441.6z M276.8,443.1
		c-0.3-0.4-0.9-0.7-1.6-0.7s-1.3,0.3-1.6,0.7c-0.4,0.5-0.5,0.9-0.5,2.4c0,1.5,0.1,1.9,0.5,2.4c0.3,0.4,0.9,0.7,1.6,0.7
		s1.3-0.3,1.6-0.7c0.4-0.5,0.5-0.9,0.5-2.4C277.3,444,277.2,443.6,276.8,443.1z"/>
	<path class="st10" d="M286.9,441.6c0.6-0.6,1.5-1.3,3.1-1.3c1.6,0,2.5,0.7,3.1,1.3c0.8,0.9,1.1,1.7,1.1,3.9c0,2.2-0.3,3-1.1,3.9
		c-0.6,0.6-1.5,1.3-3.1,1.3c-1.6,0-2.5-0.7-3.1-1.3c-0.8-0.9-1.1-1.7-1.1-3.9C285.8,443.3,286.1,442.5,286.9,441.6z M291.6,443.1
		c-0.3-0.4-0.9-0.7-1.6-0.7s-1.3,0.3-1.6,0.7c-0.4,0.5-0.5,0.9-0.5,2.4c0,1.5,0.1,1.9,0.5,2.4c0.3,0.4,0.9,0.7,1.6,0.7
		s1.3-0.3,1.6-0.7c0.4-0.5,0.5-0.9,0.5-2.4C292.1,444,292,443.6,291.6,443.1z"/>
	<path class="st10" d="M296.3,440.4h2v6c0,1.4,0.9,2.2,2,2.2c1.1,0,2-0.8,2-2.2v-6h2v10.1h-2v-1.1h0c-0.6,0.8-1.6,1.2-2.6,1.2
		c-1.6,0-3.4-1.2-3.4-3.5V440.4z"/>
	<path class="st10" d="M307,440.4h2v1.1h0c0.6-0.8,1.6-1.2,2.6-1.2c0.8,0,1.5,0.3,2.1,0.8l-1.5,1.8c-0.5-0.4-0.8-0.5-1.3-0.5
		c-1,0-2,0.6-2,2.1v6.1h-2V440.4z"/>
	<path class="st10" d="M319.9,447.5c0.9,0.9,1.8,1.3,3.2,1.3c1.2,0,2-0.4,2-1.3c0-0.7-0.5-0.9-1.2-1l-1.8-0.2
		c-1.7-0.1-2.9-1.1-2.9-2.9c0-2.1,1.6-3.1,3.8-3.1c1.8,0,3,0.5,4,1.4l-1.3,1.5c-0.8-0.6-1.6-0.9-2.7-0.9c-1.3,0-1.7,0.5-1.7,1.2
		c0,0.4,0.3,0.9,1.3,1l1.7,0.1c2.1,0.1,2.9,1.4,2.9,3c0,2-1.8,3.1-4.2,3.1c-1.6,0-3.2-0.6-4.5-1.8L319.9,447.5z"/>
	<path class="st10" d="M329.2,440.4h2v1.1c0.6-0.7,1.6-1.2,2.6-1.2c1.2,0,2.1,0.6,2.7,1.3c0.6,0.7,0.7,1.4,0.7,3.9
		c0,2.5-0.2,3.1-0.7,3.9c-0.6,0.8-1.5,1.3-2.7,1.3c-1,0-1.9-0.5-2.6-1.2v5.2h-2V440.4z M335.3,445.5c0-1.6-0.1-3.2-2-3.2
		c-1.9,0-2,1.7-2,3.2c0,1.5,0.1,3.1,2,3.1C335.2,448.7,335.3,447.1,335.3,445.5z"/>
	<path class="st10" d="M340.2,441.6c0.6-0.6,1.5-1.3,3.1-1.3c1.6,0,2.5,0.7,3.1,1.3c0.8,0.9,1.1,1.7,1.1,3.9c0,2.2-0.3,3-1.1,3.9
		c-0.6,0.6-1.5,1.3-3.1,1.3c-1.6,0-2.5-0.7-3.1-1.3c-0.8-0.9-1.1-1.7-1.1-3.9C339.1,443.3,339.4,442.5,340.2,441.6z M344.9,443.1
		c-0.3-0.4-0.9-0.7-1.6-0.7s-1.3,0.3-1.6,0.7c-0.4,0.5-0.5,0.9-0.5,2.4c0,1.5,0.1,1.9,0.5,2.4c0.3,0.4,0.9,0.7,1.6,0.7
		s1.3-0.3,1.6-0.7c0.4-0.5,0.5-0.9,0.5-2.4C345.4,444,345.3,443.6,344.9,443.1z"/>
	<path class="st10" d="M349.6,440.4h2v1.1h0c0.6-0.8,1.6-1.2,2.6-1.2c1.6,0,3.4,1.2,3.4,3.5v6.7h-2v-6c0-1.4-0.9-2.2-2-2.2
		c-1.2,0-2,0.8-2,2.2v6h-2V440.4z"/>
	<path class="st10" d="M360.6,447.5c0.9,0.9,1.8,1.3,3.2,1.3c1.2,0,2-0.4,2-1.3c0-0.7-0.5-0.9-1.2-1l-1.8-0.2
		c-1.7-0.1-2.9-1.1-2.9-2.9c0-2.1,1.6-3.1,3.8-3.1c1.8,0,3,0.5,4,1.4l-1.3,1.5c-0.8-0.6-1.6-0.9-2.7-0.9c-1.3,0-1.7,0.5-1.7,1.2
		c0,0.4,0.3,0.9,1.3,1l1.7,0.1c2.1,0.1,2.9,1.4,2.9,3c0,2-1.8,3.1-4.2,3.1c-1.6,0-3.2-0.6-4.5-1.8L360.6,447.5z"/>
	<path class="st10" d="M370.5,441.6c0.6-0.6,1.5-1.3,3.1-1.3c1.6,0,2.5,0.7,3.1,1.3c0.8,0.9,1.1,1.7,1.1,3.9c0,2.2-0.3,3-1.1,3.9
		c-0.6,0.6-1.5,1.3-3.1,1.3c-1.6,0-2.5-0.7-3.1-1.3c-0.8-0.9-1.1-1.7-1.1-3.9C369.4,443.3,369.7,442.5,370.5,441.6z M375.2,443.1
		c-0.3-0.4-0.9-0.7-1.6-0.7s-1.3,0.3-1.6,0.7c-0.4,0.5-0.5,0.9-0.5,2.4c0,1.5,0.1,1.9,0.5,2.4c0.3,0.4,0.9,0.7,1.6,0.7
		s1.3-0.3,1.6-0.7c0.4-0.5,0.5-0.9,0.5-2.4C375.7,444,375.6,443.6,375.2,443.1z"/>
	<path class="st10" d="M379.9,440.4h2v1.1h0c0.6-0.8,1.6-1.2,2.6-1.2c0.8,0,1.5,0.3,2.1,0.8l-1.5,1.8c-0.5-0.4-0.8-0.5-1.3-0.5
		c-1,0-2,0.6-2,2.1v6.1h-2V440.4z"/>
	<path class="st10" d="M388,447.5c0.9,0.9,1.8,1.3,3.2,1.3c1.2,0,2-0.4,2-1.3c0-0.7-0.5-0.9-1.2-1l-1.8-0.2
		c-1.7-0.1-2.9-1.1-2.9-2.9c0-2.1,1.6-3.1,3.8-3.1c1.8,0,3,0.5,4,1.4l-1.3,1.5c-0.8-0.6-1.6-0.9-2.7-0.9c-1.3,0-1.7,0.5-1.7,1.2
		c0,0.4,0.3,0.9,1.3,1l1.7,0.1c2.1,0.1,2.9,1.4,2.9,3c0,2-1.8,3.1-4.2,3.1c-1.6,0-3.2-0.6-4.5-1.8L388,447.5z"/>
	<path class="st10" d="M397.4,444h2v2h-2V444z M397.4,448.5h2v2h-2V448.5z"/>
</g>
<g>
	<path class="st10" d="M150,472.4c0.8,0.6,1.8,1,2.9,1c1.3,0,2-0.6,2-1.4c0-0.7-0.4-1.3-1.4-1.4c-0.5-0.1-0.8-0.1-1.4-0.2
		c-1.8-0.2-2.7-1.4-2.7-2.9c0-1.8,1.2-3,3.4-3c1.3,0,2.4,0.5,3.4,1.1l-0.9,1.3c-0.8-0.5-1.6-0.8-2.6-0.8c-1,0-1.7,0.5-1.7,1.5
		c0,0.6,0.4,1.2,1.5,1.3c0.3,0,0.7,0.1,1.2,0.2c1.9,0.2,2.8,1.6,2.8,3c0,1.9-1.4,3-3.6,3c-1.5,0-2.9-0.5-3.9-1.4L150,472.4z"/>
	<path class="st10" d="M158.1,467.6h1.5v0.8c0.5-0.5,1.1-0.9,1.9-0.9c0.9,0,1.6,0.4,2,1c0.4,0.5,0.5,1,0.5,2.8
		c0,1.8-0.1,2.3-0.5,2.8c-0.4,0.6-1.1,1-2,1c-0.8,0-1.4-0.3-1.9-0.9v3.8h-1.5V467.6z M162.5,471.3c0-1.1-0.1-2.3-1.5-2.3
		c-1.4,0-1.5,1.2-1.5,2.3c0,1.1,0.1,2.3,1.5,2.3C162.4,473.6,162.5,472.4,162.5,471.3z"/>
	<path class="st10" d="M166.7,471.8c0,1.2,0.7,1.8,1.8,1.8c0.6,0,1.2-0.3,1.6-0.7l1.1,0.9c-0.7,0.8-1.7,1.2-2.7,1.2
		c-1.5,0-3.3-0.7-3.3-3.7c0-2.9,1.6-3.8,3-3.8c1.6,0,3,1.2,3,3.1v1.2H166.7z M169.8,470.6c0-1.1-0.7-1.7-1.6-1.7s-1.5,0.6-1.6,1.7
		H169.8z"/>
	<path class="st10" d="M178.3,473.8c-0.6,0.7-1.5,1.3-2.6,1.3c-1.7,0-3.3-1.1-3.3-3.8c0-2.7,1.6-3.8,3.3-3.8c1.1,0,2,0.5,2.6,1.3
		l-1.1,1c-0.4-0.5-0.9-0.8-1.5-0.8c-1.2,0-1.9,0.7-1.9,2.3c0,1.6,0.7,2.3,1.9,2.3c0.6,0,1.1-0.3,1.5-0.8L178.3,473.8z"/>
	<path class="st10" d="M179.4,465.4h1.5v2.2h1.1v1.1h-1.1v4.3c0,0.4,0.2,0.6,0.5,0.6h0.6v1.4h-0.8c-1,0-1.8-0.7-1.8-1.8v-4.4h-0.7
		v-1.1h0.7V465.4z"/>
	<path class="st10" d="M183.3,467.6h1.5v0.8h0c0.5-0.6,1.1-0.9,1.9-0.9c0.6,0,1.1,0.2,1.5,0.6l-1.1,1.3c-0.3-0.3-0.6-0.4-1-0.4
		c-0.7,0-1.4,0.5-1.4,1.5v4.4h-1.5V467.6z"/>
	<path class="st10" d="M192.6,474.3L192.6,474.3c-0.3,0.5-0.8,0.7-1.8,0.7c-1.6,0-2.6-1-2.6-2.3c0-1.2,0.8-2.2,2.4-2.2h2v-0.8
		c0-0.7-0.5-0.9-1.5-0.9c-0.8,0-1.1,0.1-1.4,0.6l-1.2-0.9c0.6-0.8,1.4-1.1,2.5-1.1c1.8,0,3.1,0.6,3.1,2.4v5h-1.5V474.3z
		 M192.6,471.8h-1.8c-0.9,0-1.3,0.3-1.3,0.9c0,0.5,0.4,0.9,1.4,0.9c1.2,0,1.7-0.1,1.7-1.3V471.8z"/>
	<path class="st10" d="M196,464.6h1.5v8.4c0,0.3,0.2,0.5,0.6,0.5h0.5v1.4h-0.7c-1.1,0-1.9-0.5-1.9-1.8V464.6z"/>
	<path class="st10" d="M203.3,464.6h1.5l3,6.7l2.9-6.7h1.5v10.3h-1.6v-6.4h0l-2.2,5h-1.3l-2.2-5h0v6.4h-1.6V464.6z"/>
	<path class="st10" d="M218.1,474.3L218.1,474.3c-0.3,0.5-0.8,0.7-1.8,0.7c-1.6,0-2.6-1-2.6-2.3c0-1.2,0.8-2.2,2.4-2.2h2v-0.8
		c0-0.7-0.5-0.9-1.5-0.9c-0.8,0-1.1,0.1-1.4,0.6l-1.2-0.9c0.6-0.8,1.4-1.1,2.5-1.1c1.8,0,3.1,0.6,3.1,2.4v5h-1.5V474.3z
		 M218.1,471.8h-1.8c-0.9,0-1.3,0.3-1.3,0.9c0,0.5,0.4,0.9,1.4,0.9c1.2,0,1.7-0.1,1.7-1.3V471.8z"/>
	<path class="st10" d="M221.6,465.4h1.5v2.2h1.1v1.1H223v4.3c0,0.4,0.2,0.6,0.5,0.6h0.6v1.4h-0.8c-1,0-1.8-0.7-1.8-1.8v-4.4h-0.7
		v-1.1h0.7V465.4z"/>
	<path class="st10" d="M225.5,467.6h1.5v0.8h0c0.5-0.6,1.1-0.9,1.9-0.9c0.6,0,1.1,0.2,1.5,0.6l-1.1,1.3c-0.3-0.3-0.6-0.4-1-0.4
		c-0.7,0-1.4,0.5-1.4,1.5v4.4h-1.5V467.6z"/>
	<path class="st10" d="M232,471.8c0,1.2,0.7,1.8,1.8,1.8c0.6,0,1.2-0.3,1.6-0.7l1.1,0.9c-0.7,0.8-1.7,1.2-2.7,1.2
		c-1.5,0-3.3-0.7-3.3-3.7c0-2.9,1.6-3.8,3-3.8c1.6,0,3,1.2,3,3.1v1.2H232z M235.1,470.6c0-1.1-0.7-1.7-1.6-1.7s-1.5,0.6-1.6,1.7
		H235.1z"/>
	<path class="st10" d="M238.4,472.7c0.6,0.6,1.3,0.9,2.3,0.9c0.8,0,1.5-0.3,1.5-0.9c0-0.5-0.4-0.7-0.9-0.7l-1.3-0.1
		c-1.2-0.1-2.1-0.8-2.1-2.1c0-1.5,1.2-2.3,2.7-2.3c1.3,0,2.2,0.4,2.9,1l-0.9,1.1c-0.6-0.4-1.2-0.7-2-0.7c-0.9,0-1.3,0.4-1.3,0.9
		c0,0.3,0.2,0.6,1,0.7l1.2,0.1c1.5,0.1,2.1,1,2.1,2.2c0,1.4-1.3,2.3-3,2.3c-1.2,0-2.3-0.4-3.2-1.3L238.4,472.7z"/>
	<path class="st10" d="M245.3,472.7c0.6,0.6,1.3,0.9,2.3,0.9c0.8,0,1.5-0.3,1.5-0.9c0-0.5-0.4-0.7-0.9-0.7l-1.3-0.1
		c-1.2-0.1-2.1-0.8-2.1-2.1c0-1.5,1.2-2.3,2.7-2.3c1.3,0,2.2,0.4,2.9,1l-0.9,1.1c-0.6-0.4-1.2-0.7-2-0.7c-0.9,0-1.3,0.4-1.3,0.9
		c0,0.3,0.2,0.6,1,0.7l1.2,0.1c1.5,0.1,2.1,1,2.1,2.2c0,1.4-1.3,2.3-3,2.3c-1.2,0-2.3-0.4-3.2-1.3L245.3,472.7z"/>
	<path class="st10" d="M149.9,482h1.6v5.3h0l4.3-5.3h1.9l-3.3,4.1l3.7,6.3h-1.9l-2.8-5.1l-1.8,1.9v3.2h-1.6V482z"/>
	<path class="st10" d="M158.9,482h1.5v1.5h-1.5V482z M158.9,485h1.5v7.4h-1.5V485z"/>
	<path class="st10" d="M162.4,485h1.5v0.8h0c0.5-0.6,1.1-0.9,1.9-0.9c1.1,0,2.5,0.9,2.5,2.6v4.9h-1.5V488c0-1-0.6-1.6-1.5-1.6
		c-0.8,0-1.5,0.6-1.5,1.6v4.4h-1.5V485z"/>
	<path class="st10" d="M174.6,491.6c-0.5,0.5-1.1,0.9-1.9,0.9c-0.9,0-1.6-0.4-2-1c-0.4-0.5-0.5-1-0.5-2.8c0-1.8,0.1-2.3,0.5-2.8
		c0.4-0.6,1.1-1,2-1c0.8,0,1.4,0.3,1.9,0.9V482h1.5v10.3h-1.5V491.6z M171.6,488.7c0,1.1,0.1,2.3,1.5,2.3c1.4,0,1.5-1.2,1.5-2.3
		c0-1.1-0.1-2.3-1.5-2.3C171.7,486.4,171.6,487.5,171.6,488.7z"/>
	<path class="st10" d="M177.7,485h1.5v0.8h0c0.5-0.6,1.1-0.9,1.9-0.9c0.6,0,1.1,0.2,1.5,0.6l-1.1,1.3c-0.3-0.3-0.6-0.4-1-0.4
		c-0.7,0-1.4,0.5-1.4,1.5v4.4h-1.5V485z"/>
	<path class="st10" d="M184.2,489.2c0,1.2,0.7,1.8,1.8,1.8c0.6,0,1.2-0.3,1.6-0.7l1.1,0.9c-0.7,0.8-1.7,1.2-2.7,1.2
		c-1.5,0-3.3-0.7-3.3-3.7c0-2.9,1.6-3.8,3-3.8c1.6,0,3,1.2,3,3.1v1.2H184.2z M187.3,488c0-1.1-0.7-1.7-1.6-1.7s-1.5,0.6-1.6,1.7
		H187.3z"/>
	<path class="st10" d="M194.7,491.6c-0.5,0.5-1.1,0.9-1.9,0.9c-0.9,0-1.6-0.4-2-1c-0.4-0.5-0.5-1-0.5-2.8c0-1.8,0.1-2.3,0.5-2.8
		c0.4-0.6,1.1-1,2-1c0.8,0,1.4,0.3,1.9,0.9V482h1.5v10.3h-1.5V491.6z M191.8,488.7c0,1.1,0.1,2.3,1.5,2.3c1.4,0,1.5-1.2,1.5-2.3
		c0-1.1-0.1-2.3-1.5-2.3C191.9,486.4,191.8,487.5,191.8,488.7z"/>
	<path class="st10" d="M149.9,499.4h6.6v1.5h-5v2.9h4.3v1.4h-4.3v3h5v1.5h-6.6V499.4z"/>
	<path class="st10" d="M157.9,500.2h1.5v2.2h1.1v1.1h-1.1v4.3c0,0.4,0.2,0.6,0.5,0.6h0.6v1.4h-0.8c-1,0-1.8-0.7-1.8-1.8v-4.4h-0.7
		v-1.1h0.7V500.2z"/>
	<path class="st10" d="M161.9,499.4h1.5v3.8h0c0.5-0.6,1.1-0.9,1.9-0.9c1.1,0,2.5,0.9,2.5,2.6v4.9h-1.5v-4.4c0-1-0.6-1.6-1.5-1.6
		c-0.8,0-1.5,0.6-1.5,1.6v4.4h-1.5V499.4z"/>
	<path class="st10" d="M170.8,506.7c0,1.2,0.7,1.8,1.8,1.8c0.6,0,1.2-0.3,1.6-0.7l1.1,0.9c-0.7,0.8-1.7,1.2-2.7,1.2
		c-1.5,0-3.3-0.7-3.3-3.7c0-2.9,1.6-3.8,3-3.8c1.6,0,3,1.2,3,3.1v1.2H170.8z M173.9,505.4c0-1.1-0.7-1.7-1.6-1.7s-1.5,0.6-1.6,1.7
		H173.9z"/>
	<path class="st10" d="M176.9,502.4h1.5v0.8h0c0.5-0.6,1.1-0.9,1.9-0.9c0.6,0,1.1,0.2,1.5,0.6l-1.1,1.3c-0.3-0.3-0.6-0.4-1-0.4
		c-0.7,0-1.4,0.5-1.4,1.5v4.4h-1.5V502.4z"/>
	<path class="st10" d="M186.2,499.4h4c2,0,3.1,1.1,3.1,2.8c0,0.9-0.3,1.7-1.5,2.2v0c1.1,0.3,1.7,1.3,1.7,2.4c0,1.8-1.3,2.9-2.9,2.9
		h-4.4V499.4z M187.7,500.8v3h2.3c1.1,0,1.7-0.7,1.7-1.5c0-0.8-0.5-1.5-1.7-1.5H187.7z M187.7,505.2v3.1h2.4c1.2,0,1.7-0.7,1.7-1.6
		c0-0.8-0.5-1.6-1.7-1.6H187.7z"/>
	<path class="st10" d="M195.3,503.3c0.4-0.5,1.1-0.9,2.2-0.9c1.1,0,1.8,0.5,2.2,0.9c0.6,0.6,0.8,1.2,0.8,2.8c0,1.6-0.2,2.2-0.8,2.8
		c-0.4,0.5-1.1,0.9-2.2,0.9c-1.1,0-1.8-0.5-2.2-0.9c-0.6-0.6-0.8-1.2-0.8-2.8C194.5,504.5,194.8,503.9,195.3,503.3z M198.7,504.4
		c-0.2-0.3-0.7-0.5-1.2-0.5c-0.5,0-1,0.2-1.2,0.5c-0.3,0.4-0.4,0.7-0.4,1.7c0,1.1,0.1,1.4,0.4,1.8c0.2,0.3,0.7,0.5,1.2,0.5
		c0.5,0,1-0.2,1.2-0.5c0.3-0.4,0.4-0.7,0.4-1.7C199.1,505,199,504.7,198.7,504.4z"/>
	<path class="st10" d="M201.4,502.4h1.8l1.5,2.4l1.5-2.4h1.8l-2.4,3.6l2.5,3.8h-1.8l-1.6-2.5l-1.6,2.5h-1.8l2.5-3.8L201.4,502.4z"/>
	<path class="st10" d="M155.5,522.7h-4.1v4.5h-1.6v-10.3h1.6v4.4h4.1v-4.4h1.6v10.3h-1.6V522.7z"/>
	<path class="st10" d="M163,526.5L163,526.5c-0.3,0.5-0.8,0.7-1.8,0.7c-1.6,0-2.6-1-2.6-2.3c0-1.2,0.8-2.2,2.4-2.2h2v-0.8
		c0-0.7-0.5-0.9-1.5-0.9c-0.8,0-1.1,0.1-1.4,0.6l-1.2-0.9c0.6-0.8,1.4-1.1,2.5-1.1c1.8,0,3.1,0.6,3.1,2.4v5H163V526.5z M163,524.1
		h-1.8c-0.9,0-1.3,0.3-1.3,0.9c0,0.5,0.4,0.9,1.4,0.9c1.2,0,1.7-0.1,1.7-1.3V524.1z"/>
	<path class="st10" d="M166.4,519.8h1.5v0.8c0.5-0.5,1.1-0.9,1.9-0.9c0.9,0,1.6,0.4,2,1c0.4,0.5,0.5,1,0.5,2.8
		c0,1.8-0.1,2.3-0.5,2.8c-0.4,0.6-1.1,1-2,1c-0.8,0-1.4-0.3-1.9-0.9v3.8h-1.5V519.8z M170.8,523.5c0-1.1-0.1-2.3-1.5-2.3
		c-1.4,0-1.5,1.2-1.5,2.3c0,1.1,0.1,2.3,1.5,2.3C170.7,525.8,170.8,524.7,170.8,523.5z"/>
	<path class="st10" d="M173.9,519.8h1.5v0.8c0.5-0.5,1.1-0.9,1.9-0.9c0.9,0,1.6,0.4,2,1c0.4,0.5,0.5,1,0.5,2.8
		c0,1.8-0.1,2.3-0.5,2.8c-0.4,0.6-1.1,1-2,1c-0.8,0-1.4-0.3-1.9-0.9v3.8h-1.5V519.8z M178.3,523.5c0-1.1-0.1-2.3-1.5-2.3
		c-1.4,0-1.5,1.2-1.5,2.3c0,1.1,0.1,2.3,1.5,2.3C178.3,525.8,178.3,524.7,178.3,523.5z"/>
	<path class="st10" d="M180.4,519.8h1.6l1.7,5.2h0l1.7-5.2h1.6l-3.2,8.9c-0.4,1.1-1.2,1.5-2.1,1.5h-0.5v-1.4h0.4
		c0.4,0,0.7-0.2,0.9-0.6l0.4-1.2L180.4,519.8z"/>
	<path class="st10" d="M198.5,524.3c-0.4,1.9-1.9,3-3.6,3c-1.6,0-2.7-1-3.2-1.9c-0.3-0.6-0.5-0.9-0.5-3.4c0-2.5,0.1-2.8,0.5-3.4
		c0.5-0.9,1.6-1.9,3.2-1.9c2,0,3.3,1.4,3.6,3.1h-1.7c-0.2-0.8-1-1.5-2-1.5c-0.7,0-1.3,0.3-1.6,0.8c-0.4,0.5-0.5,0.8-0.5,2.9
		c0,2.1,0.1,2.4,0.5,2.9c0.3,0.4,0.9,0.8,1.6,0.8c0.9,0,1.5-0.5,2-1.4H198.5z"/>
	<path class="st10" d="M199.9,520.7c0.4-0.5,1.1-0.9,2.2-0.9c1.1,0,1.8,0.5,2.2,0.9c0.6,0.6,0.8,1.2,0.8,2.8c0,1.6-0.2,2.2-0.8,2.8
		c-0.4,0.5-1.1,0.9-2.2,0.9c-1.1,0-1.8-0.5-2.2-0.9c-0.6-0.6-0.8-1.2-0.8-2.8C199.1,521.9,199.3,521.3,199.9,520.7z M203.3,521.8
		c-0.2-0.3-0.7-0.5-1.2-0.5c-0.5,0-1,0.2-1.2,0.5c-0.3,0.4-0.4,0.7-0.4,1.7c0,1.1,0.1,1.4,0.4,1.8c0.2,0.3,0.7,0.5,1.2,0.5
		c0.5,0,1-0.2,1.2-0.5c0.3-0.4,0.4-0.7,0.4-1.7C203.7,522.4,203.6,522.2,203.3,521.8z"/>
	<path class="st10" d="M206.8,516.9h1.5v1.5h-1.5V516.9z M206.8,519.8h1.5v7.4h-1.5V519.8z"/>
	<path class="st10" d="M210.2,519.8h1.5v0.8h0c0.5-0.6,1.1-0.9,1.9-0.9c1.1,0,2.5,0.9,2.5,2.6v4.9h-1.5v-4.4c0-1-0.6-1.6-1.5-1.6
		c-0.8,0-1.5,0.6-1.5,1.6v4.4h-1.5V519.8z"/>
</g>
<g>
	<g>
		<path class="st10" d="M137.3,363.3h6.1c2.3,0,4.2,1,5.3,2.9c0.9,1.5,0.9,2.1,0.9,5.8c0,3.9-0.2,4.6-1,5.8c-1,1.6-2.8,2.9-5.5,2.9
			h-5.9V363.3z M139.9,378.3h3.2c1.5,0,2.6-0.5,3.2-1.5c0.6-0.9,0.7-1.4,0.7-4.6c0-3.1-0.1-3.9-0.8-4.9c-0.8-1.1-1.7-1.5-3.1-1.5
			h-3.2V378.3z"/>
		<path class="st10" d="M159.1,379.7L159.1,379.7c-0.6,0.9-1.4,1.3-3.1,1.3c-2.8,0-4.4-1.6-4.4-3.8c0-2,1.4-3.7,4.1-3.7h3.5v-1.3
			c0-1.2-0.8-1.6-2.6-1.6c-1.3,0-1.9,0.2-2.4,1l-2-1.5c1-1.3,2.3-1.8,4.2-1.8c3.1,0,5.2,1,5.2,4.1v8.5h-2.5V379.7z M159.1,375.5h-3
			c-1.5,0-2.2,0.6-2.2,1.5c0,0.8,0.7,1.6,2.4,1.6c2.1,0,2.8-0.2,2.8-2.2V375.5z"/>
		<path class="st10" d="M164.9,363.3h2.5v2.5h-2.5V363.3z M164.9,368.3h2.5v12.5h-2.5V368.3z"/>
		<path class="st10" d="M170.7,363.3h2.5v14.3c0,0.6,0.3,0.9,0.9,0.9h0.9v2.4h-1.1c-1.8,0-3.2-0.8-3.2-3V363.3z"/>
		<path class="st10" d="M175.3,368.3h2.7l2.9,8.7h0l2.9-8.7h2.7l-5.4,15c-0.7,1.9-2,2.5-3.5,2.5h-0.8v-2.4h0.7
			c0.6,0,1.3-0.3,1.5-1.1l0.7-2.1L175.3,368.3z"/>
		<path class="st10" d="M205.9,375.9c-0.7,3.3-3.1,5-6.1,5c-2.8,0-4.6-1.6-5.5-3.1c-0.6-1-0.8-1.5-0.8-5.7c0-4.2,0.2-4.7,0.8-5.7
			c0.8-1.5,2.7-3.1,5.5-3.1c3.3,0,5.6,2.3,6.1,5.2h-2.8c-0.4-1.4-1.7-2.5-3.3-2.5c-1.3,0-2.2,0.6-2.7,1.3c-0.7,0.9-0.9,1.4-0.9,5
			c0,3.6,0.2,4.1,0.9,5c0.5,0.7,1.5,1.3,2.7,1.3c1.5,0,2.6-0.8,3.3-2.4H205.9z"/>
		<path class="st10" d="M208.3,369.8c0.7-0.8,1.8-1.6,3.8-1.6s3.1,0.8,3.8,1.6c1,1.1,1.4,2.1,1.4,4.8c0,2.7-0.4,3.7-1.4,4.8
			c-0.7,0.8-1.8,1.6-3.8,1.6s-3.1-0.8-3.8-1.6c-1-1.1-1.4-2.1-1.4-4.8C206.9,371.9,207.3,370.8,208.3,369.8z M214,371.6
			c-0.4-0.5-1.2-0.9-2-0.9c-0.9,0-1.6,0.4-2,0.9c-0.5,0.7-0.6,1.2-0.6,2.9c0,1.8,0.1,2.3,0.6,3c0.4,0.5,1.2,0.9,2,0.9
			c0.9,0,1.6-0.4,2-0.9c0.5-0.7,0.6-1.2,0.6-2.9C214.7,372.8,214.5,372.3,214,371.6z"/>
		<path class="st10" d="M219.8,368.3h2.5v1.3h0c0.8-1,1.9-1.5,3.2-1.5c1.9,0,4.2,1.5,4.2,4.3v8.3h-2.5v-7.4c0-1.7-1.1-2.7-2.5-2.7
			c-1.4,0-2.5,1-2.5,2.7v7.4h-2.5V368.3z"/>
		<path class="st10" d="M233.1,364.6h2.5v3.8h1.8v1.9h-1.8v7.2c0,0.7,0.3,0.9,0.9,0.9h0.9v2.4h-1.3c-1.7,0-3-1.1-3-3.1v-7.5h-1.3
			v-1.9h1.3V364.6z"/>
		<path class="st10" d="M241.7,375.5c0,2,1.3,3.1,3,3.1c1,0,2-0.4,2.7-1.2l1.8,1.5c-1.2,1.4-2.8,2-4.5,2c-2.6,0-5.5-1.2-5.5-6.3
			c0-4.8,2.7-6.4,5.1-6.4c2.8,0,5.1,2,5.1,5.3v2.1H241.7z M247,373.5c-0.1-1.9-1.2-2.9-2.6-2.9s-2.6,1-2.6,2.9H247z"/>
		<path class="st10" d="M252.1,368.3h2.5v1.3h0c0.8-1,1.9-1.5,3.2-1.5c1.9,0,4.2,1.5,4.2,4.3v8.3h-2.5v-7.4c0-1.7-1.1-2.7-2.5-2.7
			c-1.4,0-2.5,1-2.5,2.7v7.4h-2.5V368.3z"/>
		<path class="st10" d="M265.4,364.6h2.5v3.8h1.8v1.9H268v7.2c0,0.7,0.3,0.9,0.9,0.9h0.9v2.4h-1.3c-1.7,0-3-1.1-3-3.1v-7.5h-1.3
			v-1.9h1.3V364.6z"/>
		<path class="st10" d="M278.2,363.3h11.2v2.5h-8.5v5.2h7.3v2.4h-7.3v7.5h-2.7V363.3z"/>
		<path class="st10" d="M292.7,375.5c0,2,1.3,3.1,3,3.1c1,0,2-0.4,2.7-1.2l1.8,1.5c-1.2,1.4-2.8,2-4.5,2c-2.6,0-5.5-1.2-5.5-6.3
			c0-4.8,2.7-6.4,5.1-6.4c2.8,0,5.1,2,5.1,5.3v2.1H292.7z M297.9,373.5c-0.1-1.9-1.2-2.9-2.6-2.9s-2.6,1-2.6,2.9H297.9z"/>
		<path class="st10" d="M305,375.5c0,2,1.3,3.1,3,3.1c1,0,2-0.4,2.7-1.2l1.8,1.5c-1.2,1.4-2.8,2-4.5,2c-2.6,0-5.5-1.2-5.5-6.3
			c0-4.8,2.7-6.4,5.1-6.4c2.8,0,5.1,2,5.1,5.3v2.1H305z M310.2,373.5c-0.1-1.9-1.2-2.9-2.6-2.9s-2.6,1-2.6,2.9H310.2z"/>
		<path class="st10" d="M322.8,379.5c-0.8,0.9-1.9,1.4-3.2,1.4c-1.5,0-2.6-0.7-3.3-1.6c-0.7-0.9-0.9-1.7-0.9-4.8
			c0-3,0.2-3.9,0.9-4.7c0.7-0.9,1.8-1.6,3.3-1.6c1.3,0,2.3,0.6,3.2,1.5v-6.4h2.5v17.5h-2.5V379.5z M317.8,374.6
			c0,1.9,0.1,3.9,2.5,3.9c2.3,0,2.5-2.1,2.5-3.9c0-1.8-0.1-3.9-2.5-3.9C318,370.7,317.8,372.6,317.8,374.6z"/>
	</g>
	<g>
		<path class="st10" d="M365.1,370.9v-4.5l9.5,6.1l-9.5,6.1v-4.5h-27.6v-3.3H365.1z"/>
	</g>
</g>
</svg>
