<?xml version="1.0" encoding="utf-8"?>
<!-- Generator: Adobe Illustrator 22.0.1, SVG Export Plug-In . SVG Version: 6.00 Build 0)  -->
<svg version="1.1" id="Layer_1" xmlns="http://www.w3.org/2000/svg" xmlns:xlink="http://www.w3.org/1999/xlink" x="0px" y="0px"
	 viewBox="0 0 1340 630" style="enable-background:new 0 0 1340 630;" xml:space="preserve">
<style type="text/css">
	.st0{fill:#DD796F;stroke:#000000;stroke-miterlimit:10;}
	.st1{fill:#E7E7E7;stroke:#000000;stroke-miterlimit:10;}
	.st2{fill:none;stroke:#000000;stroke-miterlimit:10;}
	.st3{fill:none;}
	.st4{enable-background:new    ;}
	.st5{fill:#414143;stroke:#000000;stroke-miterlimit:10;}
	.st6{fill:#E7E7E7;}
	.st7{fill:#F2F2F2;}
	.st8{display:none;}
	.st9{display:inline;fill:#F8A079;stroke:#000000;stroke-miterlimit:10;}
	.st10{display:inline;fill:#F2F2F2;stroke:#000000;stroke-miterlimit:10;}
	.st11{display:inline;}
	.st12{fill:#EF5B49;stroke:#000000;stroke-miterlimit:10;}
	.st13{fill:#CFD9C5;stroke:#000000;stroke-miterlimit:10;}
	.st14{display:inline;fill:#EF5B49;stroke:#000000;stroke-miterlimit:10;}
	.st15{display:inline;fill:none;stroke:#000000;stroke-miterlimit:10;}
	.st16{display:inline;fill:#E8E7E7;stroke:#000000;stroke-miterlimit:10;}
	.st17{display:inline;fill:#CFD9C5;stroke:#000000;stroke-miterlimit:10;}
	.st18{clip-path:url(#SVGID_3_);}
	.st19{fill:#424143;}
	.st20{clip-path:url(#SVGID_5_);fill:#424143;stroke:#000000;stroke-miterlimit:10;}
	.st21{clip-path:url(#SVGID_5_);fill:#CCB98D;stroke:#000000;stroke-miterlimit:10;}
	.st22{clip-path:url(#SVGID_5_);fill:#DDDDD3;stroke:#000000;stroke-miterlimit:10;}
	.st23{clip-path:url(#SVGID_5_);fill:#BACEB2;stroke:#000000;stroke-miterlimit:10;}
	.st24{clip-path:url(#SVGID_5_);fill:#F2DCA5;stroke:#000000;stroke-miterlimit:10;}
	.st25{clip-path:url(#SVGID_5_);fill:#DD796F;stroke:#000000;stroke-miterlimit:10;}
	.st26{clip-path:url(#SVGID_5_);fill:none;stroke:#000000;stroke-miterlimit:10;}
	.st27{clip-path:url(#SVGID_5_);fill:#F2F2F2;stroke:#000000;stroke-miterlimit:10;}
	.st28{clip-path:url(#SVGID_5_);}
	.st29{opacity:0.42;clip-path:url(#SVGID_5_);fill:#F2F2F2;}
	.st30{clip-path:url(#SVGID_7_);fill:#CCB98D;stroke:#000000;stroke-miterlimit:10;}
	.st31{clip-path:url(#SVGID_7_);fill:#8BA4C9;stroke:#000000;stroke-miterlimit:10;}
	.st32{clip-path:url(#SVGID_5_);fill:#8BA4C9;stroke:#000000;stroke-miterlimit:10;}
	.st33{clip-path:url(#SVGID_9_);fill:#DD796F;}
	.st34{clip-path:url(#SVGID_9_);}
	.st35{clip-path:url(#SVGID_9_);fill:#F2F2F2;stroke:#000000;stroke-miterlimit:10;}
	.st36{clip-path:url(#SVGID_11_);fill:#F2F2F2;stroke:#000000;stroke-miterlimit:10;}
	.st37{clip-path:url(#SVGID_11_);fill:#9AAF92;stroke:#000000;stroke-miterlimit:10;}
	.st38{clip-path:url(#SVGID_11_);fill:#DD796F;stroke:#000000;stroke-miterlimit:10;}
	.st39{clip-path:url(#SVGID_11_);fill:none;}
	.st40{clip-path:url(#SVGID_11_);}
	.st41{fill:#424143;stroke:#DD796F;stroke-width:0.25;stroke-miterlimit:10;}
	.st42{clip-path:url(#SVGID_11_);fill:#424143;stroke:#DD796F;stroke-width:0.25;stroke-miterlimit:10;}
	.st43{clip-path:url(#SVGID_11_);fill:#424143;stroke:#424143;stroke-width:0.75;stroke-linejoin:bevel;stroke-miterlimit:10;}
	.st44{fill:none;stroke:#000000;stroke-width:0.75;stroke-miterlimit:10;}
	.st45{fill:#7A8974;stroke:#000000;stroke-miterlimit:10;}
	.st46{fill:#9AAF92;stroke:#000000;stroke-miterlimit:10;}
</style>
<g id="Layer_2_1_">
</g>
<g id="Layer_5">
	<rect x="49.7" y="-980" class="st0" width="171.8" height="171.8"/>
	<rect x="264.4" y="-979.7" class="st0" width="171.8" height="171.8"/>
	<rect x="479.2" y="-979.3" class="st0" width="171.8" height="171.8"/>
	<rect x="693.9" y="-979" class="st0" width="171.8" height="171.8"/>
	<rect x="908.6" y="-978.6" class="st0" width="171.8" height="171.8"/>
	<rect x="1123.4" y="-978.3" class="st0" width="171.8" height="171.8"/>
	<rect x="49.7" y="-790.7" class="st0" width="171.8" height="171.8"/>
	<rect x="264.4" y="-790.3" class="st0" width="171.8" height="171.8"/>
	<rect x="479.2" y="-790" class="st0" width="171.8" height="171.8"/>
	<rect x="693.9" y="-789.6" class="st0" width="171.8" height="171.8"/>
	<rect x="908.6" y="-789.3" class="st0" width="171.8" height="171.8"/>
	<rect x="1123.4" y="-789" class="st0" width="171.8" height="171.8"/>
	<rect x="49.7" y="-600.6" class="st0" width="171.8" height="171.8"/>
	<rect x="264.4" y="-600.3" class="st0" width="171.8" height="171.8"/>
	<rect x="479.2" y="-599.9" class="st0" width="171.8" height="171.8"/>
	<rect x="693.9" y="-599.6" class="st0" width="171.8" height="171.8"/>
	<rect x="908.6" y="-599.3" class="st0" width="171.8" height="171.8"/>
	<rect x="1123.4" y="-598.9" class="st0" width="171.8" height="171.8"/>
	<path class="st1" d="M1512.5-574.6c0,0-7-14.7-4.6-25c2.4-10.2,9.6-26.4,33.6-28.2c24-1.8,37.4,22.4,37.4,31.9
		c0,10-4.9,21.7-4.9,21.7s-1.2-25.1-7.4-29.9c-9.2-7.2-23.3-5.5-23.3-5.5s-17.2-0.7-23.3,5.5
		C1513.7-597.9,1512.5-574.6,1512.5-574.6z"/>
	<line class="st2" x1="1473.6" y1="-574.6" x2="1470.3" y2="-567.3"/>
	<rect x="70.6" y="-1093.2" class="st3" width="111.2" height="47.9"/>
	<text transform="matrix(1 0 0 1 70.5939 -1056.167)" style="font-family:'WorkSans-Regular'; font-size:50.6787px;">BUY</text>
	<rect x="790.2" y="-1183.7" class="st3" width="111.2" height="47.9"/>
	<text transform="matrix(1 0 0 1 790.1935 -1146.665)" style="font-family:'WorkSans-Regular'; font-size:50.6787px;">BUY</text>
	<path class="st5" d="M-129.1-674.1l-0.2-0.3c-8.6-14.9-9-32.9-2-48.7c2.4-5.3,3.6-11.3,3.2-17.6c-1.1-19.5-17.2-35.1-36.7-35.7
		c-21.5-0.7-39.2,16.6-39.2,38c0,6.1,1.4,11.8,4,16.9c8,16.1,8.1,35,0,51.1l0,0l-56.9,81.9c-3.6,5.2-5.1,11.6-4.2,17.8l5.5,36.5
		c1.1,7.1,8.4,11.3,15.1,8.8l0,0l-0.7-36.9c-0.2-9.1,3.1-17.8,9.3-24.5l15.3-16.6c4-4.3,11.2-1.4,11.1,4.5l-5.2,203.1
		c-0.1,5.2,4,9.4,9.2,9.4h8.6l20.9-105.5c0.6-3.2,3.4-5.5,6.7-5.5h14.1c3.7,0,6.9,2.6,7.7,6.2l23.5,104.7h9.9c5.4,0,9.7-4.6,9.4-10
		L-114.9-598c-0.3-3.6,4.2-5.6,6.7-2.9l15.9,17.3c6,6.5,9.2,15.1,9,23.9l-0.7,37.2l0,0c6.7,2.6,14-1.7,15.1-8.8l5.9-39.3
		c0.7-4.4-0.4-9-3-12.7L-129.1-674.1z"/>
	<g>
		<path class="st1" d="M1407.7-612.5c0,0-12,34-13,86c0,0,44,12,93,2c0,0-6-76-18-95.6c0,0-9.3-16.7-28-17.4
			C1415.7-638.5,1407.7-612.5,1407.7-612.5z"/>
		<path class="st6" d="M1459.2-532c0,0,11.2,5.7,21.7,9.4c10.5,3.8,17.7,13.6,17.7,24.8v6.3h-115.1v-2.5c0-10.9,6.6-20.8,16.7-24.8
			c5.4-2.1,18-8.1,23-13.2"/>
		<path class="st6" d="M1466.3-530.2c0,0,6.9,27.9-25.1,27.9c-31.9,0-28.1-24-28.1-24s3.6-3.9,9.2-7.2c11.3-6.6,34.1-5.2,42.2,2.1"
			/>
		<path class="st6" d="M1417.2-518.7c-1.7-23.3-0.3-32.3-0.3-32.3l49.4-0.7c0,0-0.7,30.6-2.1,33.3"/>
		<path class="st1" d="M1409.6-586.3c0,0-2.1-2.1-4.1-1c-2.1,1-1.4,9.3,1.4,12.4c0,0-1.4,16.5,11.7,14.4"/>
		<path class="st1" d="M1472.6-585.7c0,0,2.1-2.1,4.1-1c2.1,1,1.4,9.3-1.4,12.4c0,0,1.4,16.5-11.7,14.4"/>
		<path class="st1" d="M1423.7-532.5c-6.1,6.3-15.1,10.5-23,13.2c-10.2,3.5-17.1,13.2-17,24c0,1.5,0,3.1,0,4.8l115-1
			c0-2.5,0-4.7,0-6.7c0-11.1-7.2-20.8-17.8-24.2c-13.5-4.4-22.2-10.1-22.2-10.1"/>
		<path class="st1" d="M1414.1-525.3c0,0-3.8,24,28.1,24s24.5-26.3,24.5-26.3"/>
		<path class="st1" d="M1459.4-551.7c0,0-0.5,30.6-1.5,33.3"/>
		<path class="st1" d="M1423.6-551c0,0-1,8.9,0.2,32.3"/>
		<path class="st1" d="M1441.6-526.3c0,0-19.9,1.4-27.1-30.9c-1.5-6.5-3.8-14.1-3.8-23.7c0,0-1.7-53.9,30.9-53.9"/>
		<path class="st1" d="M1440.8-526.3c0,0,21,1.1,27.8-33c1.2-6.2,3.1-12.9,3.1-21.6c0,0,1.7-53.9-30.9-53.9"/>
		<path class="st2" d="M1429.6-550c0,0,8.6,1.7,11.7,1.7s9.6-1,11-1.4"/>
		<path class="st6" d="M1435-580.5c0,0-3.1-3.4-8.2-3.4s-7.2,4.1-7.2,4.1S1425.4-596.6,1435-580.5z"/>
		<path class="st6" d="M1448.4-580.5c0,0,3.1-3.4,8.2-3.4s7.2,4.1,7.2,4.1S1458-596.6,1448.4-580.5z"/>
		<line class="st2" x1="1408.9" y1="-575.7" x2="1411.4" y2="-571.4"/>
		<path class="st6" d="M1409.8-585h64.3c0,0-0.8-49.3-32.8-50.5c-31.7-1.2-31.7,50.5-31.7,50.5"/>
		<line class="st2" x1="1409.2" y1="-584.5" x2="1474.2" y2="-584.5"/>
	</g>
	<g>
		<path class="st1" d="M1177.7-928.5c0,0-12,34-13,86c0,0,44,12,93,2c0,0-6-76-18-95.6c0,0-9.3-16.7-28-17.4
			C1185.7-954.5,1177.7-928.5,1177.7-928.5z"/>
		<path class="st6" d="M1229.2-848c0,0,11.2,5.7,21.7,9.4c10.5,3.8,17.7,13.6,17.7,24.8v6.3h-115.1v-2.5c0-10.9,6.6-20.8,16.7-24.8
			c5.4-2.1,18-8.1,23-13.2"/>
		<path class="st6" d="M1236.3-846.2c0,0,6.9,27.9-25.1,27.9c-31.9,0-28.1-24-28.1-24s3.6-3.9,9.2-7.2c11.3-6.6,34.1-5.2,42.2,2.1"
			/>
		<path class="st6" d="M1187.2-834.7c-1.7-23.3-0.3-32.3-0.3-32.3l49.4-0.7c0,0-0.7,30.6-2.1,33.3"/>
		<path class="st1" d="M1179.6-902.3c0,0-2.1-2.1-4.1-1c-2.1,1-1.4,9.3,1.4,12.4c0,0-1.4,16.5,11.7,14.4"/>
		<path class="st1" d="M1242.6-901.7c0,0,2.1-2.1,4.1-1c2.1,1,1.4,9.3-1.4,12.4c0,0,1.4,16.5-11.7,14.4"/>
		<path class="st1" d="M1193.7-848.5c-6.1,6.3-15.1,10.5-23,13.2c-10.2,3.5-17.1,13.2-17,24c0,1.5,0,3.1,0,4.8h115
			c0-2.5,0-5.7,0-7.7c0-11.1-7.2-20.8-17.8-24.2c-13.5-4.4-22.2-10.1-22.2-10.1"/>
		<path class="st1" d="M1184.1-841.3c0,0-3.8,24,28.1,24s24.5-26.3,24.5-26.3"/>
		<path class="st1" d="M1229.4-867.7c0,0-0.5,30.6-1.5,33.3"/>
		<path class="st1" d="M1193.6-867c0,0-1,8.9,0.2,32.3"/>
		<path class="st1" d="M1211.6-842.3c0,0-19.9,1.4-27.1-30.9c-1.5-6.5-3.8-14.1-3.8-23.7c0,0-1.7-53.9,30.9-53.9"/>
		<path class="st1" d="M1210.8-842.3c0,0,21,1.1,27.8-33c1.2-6.2,3.1-12.9,3.1-21.6c0,0,1.7-53.9-30.9-53.9"/>
		<path class="st2" d="M1199.6-866c0,0,8.6,1.7,11.7,1.7s9.6-1,11-1.4"/>
		<path class="st6" d="M1205-896.5c0,0-3.1-3.4-8.2-3.4s-7.2,4.1-7.2,4.1S1195.4-912.6,1205-896.5z"/>
		<path class="st6" d="M1218.4-896.5c0,0,3.1-3.4,8.2-3.4s7.2,4.1,7.2,4.1S1228-912.6,1218.4-896.5z"/>
		<line class="st2" x1="1178.9" y1="-891.7" x2="1181.4" y2="-887.4"/>
		<path class="st6" d="M1179.8-901h64.3c0,0-0.8-49.3-32.8-50.5c-31.7-1.2-31.7,50.5-31.7,50.5"/>
		<line class="st2" x1="1179.2" y1="-900.5" x2="1244.2" y2="-900.5"/>
	</g>
	<g>
		<path class="st1" d="M1177.7-739.5c0,0-12,34-13,86c0,0,44,12,93,2c0,0-6-76-18-95.6c0,0-9.3-16.7-28-17.4
			C1185.7-765.5,1177.7-739.5,1177.7-739.5z"/>
		<path class="st6" d="M1229.2-659c0,0,11.2,5.7,21.7,9.4c10.5,3.8,17.7,13.6,17.7,24.8v6.3h-115.1v-2.5c0-10.9,6.6-20.8,16.7-24.8
			c5.4-2.1,18-8.1,23-13.2"/>
		<path class="st6" d="M1236.3-657.2c0,0,6.9,27.9-25.1,27.9c-31.9,0-28.1-24-28.1-24s3.6-3.9,9.2-7.2c11.3-6.6,34.1-5.2,42.2,2.1"
			/>
		<path class="st6" d="M1187.2-645.7c-1.7-23.3-0.3-32.3-0.3-32.3l49.4-0.7c0,0-0.7,30.6-2.1,33.3"/>
		<path class="st1" d="M1179.6-713.3c0,0-2.1-2.1-4.1-1c-2.1,1-1.4,9.3,1.4,12.4c0,0-1.4,16.5,11.7,14.4"/>
		<path class="st1" d="M1242.6-712.7c0,0,2.1-2.1,4.1-1c2.1,1,1.4,9.3-1.4,12.4c0,0,1.4,16.5-11.7,14.4"/>
		<path class="st1" d="M1193.7-659.5c-6.1,6.3-15.1,10.5-23,13.2c-10.2,3.5-17.1,13.2-17,24c0,1.5,0,3.1,0,4.8h115
			c0-2.5,0-5.7,0-7.7c0-11.1-7.2-20.8-17.8-24.2c-13.5-4.4-22.2-10.1-22.2-10.1"/>
		<path class="st1" d="M1184.1-652.3c0,0-3.8,24,28.1,24s24.5-26.3,24.5-26.3"/>
		<path class="st1" d="M1229.4-678.7c0,0-0.5,30.6-1.5,33.3"/>
		<path class="st1" d="M1193.6-678c0,0-1,8.9,0.2,32.3"/>
		<path class="st1" d="M1211.6-653.3c0,0-19.9,1.4-27.1-30.9c-1.5-6.5-3.8-14.1-3.8-23.7c0,0-1.7-53.9,30.9-53.9"/>
		<path class="st1" d="M1210.8-653.3c0,0,21,1.1,27.8-33c1.2-6.2,3.1-12.9,3.1-21.6c0,0,1.7-53.9-30.9-53.9"/>
		<path class="st2" d="M1199.6-677c0,0,8.6,1.7,11.7,1.7s9.6-1,11-1.4"/>
		<path class="st6" d="M1205-707.5c0,0-3.1-3.4-8.2-3.4s-7.2,4.1-7.2,4.1S1195.4-723.6,1205-707.5z"/>
		<path class="st6" d="M1218.4-707.5c0,0,3.1-3.4,8.2-3.4s7.2,4.1,7.2,4.1S1228-723.6,1218.4-707.5z"/>
		<line class="st2" x1="1178.9" y1="-702.7" x2="1181.4" y2="-698.4"/>
		<path class="st6" d="M1179.8-712h64.3c0,0-0.8-49.3-32.8-50.5c-31.7-1.2-31.7,50.5-31.7,50.5"/>
		<line class="st2" x1="1179.2" y1="-711.5" x2="1244.2" y2="-711.5"/>
	</g>
	<g>
		<path class="st1" d="M1177.7-549.5c0,0-12,34-13,86c0,0,44,12,93,2c0,0-6-76-18-95.6c0,0-9.3-16.7-28-17.4
			C1185.7-575.5,1177.7-549.5,1177.7-549.5z"/>
		<path class="st6" d="M1229.2-469c0,0,11.2,5.7,21.7,9.4c10.5,3.8,17.7,13.6,17.7,24.8v6.3h-115.1v-2.5c0-10.9,6.6-20.8,16.7-24.8
			c5.4-2.1,18-8.1,23-13.2"/>
		<path class="st6" d="M1236.3-467.2c0,0,6.9,27.9-25.1,27.9c-31.9,0-28.1-24-28.1-24s3.6-3.9,9.2-7.2c11.3-6.6,34.1-5.2,42.2,2.1"
			/>
		<path class="st6" d="M1187.2-455.7c-1.7-23.3-0.3-32.3-0.3-32.3l49.4-0.7c0,0-0.7,30.6-2.1,33.3"/>
		<path class="st1" d="M1179.6-523.3c0,0-2.1-2.1-4.1-1c-2.1,1-1.4,9.3,1.4,12.4c0,0-1.4,16.5,11.7,14.4"/>
		<path class="st1" d="M1242.6-522.7c0,0,2.1-2.1,4.1-1c2.1,1,1.4,9.3-1.4,12.4c0,0,1.4,16.5-11.7,14.4"/>
		<path class="st1" d="M1193.7-469.5c-6.1,6.3-15.1,10.5-23,13.2c-10.2,3.5-17.1,13.2-17,24c0,1.5,0,3.1,0,4.8h115
			c0-2.5,0-5.7,0-7.7c0-11.1-7.2-20.8-17.8-24.2c-13.5-4.4-22.2-10.1-22.2-10.1"/>
		<path class="st1" d="M1184.1-462.3c0,0-3.8,24,28.1,24s24.5-26.3,24.5-26.3"/>
		<path class="st1" d="M1229.4-488.7c0,0-0.5,30.6-1.5,33.3"/>
		<path class="st1" d="M1193.6-488c0,0-1,8.9,0.2,32.3"/>
		<path class="st1" d="M1211.6-463.3c0,0-19.9,1.4-27.1-30.9c-1.5-6.5-3.8-14.1-3.8-23.7c0,0-1.7-53.9,30.9-53.9"/>
		<path class="st1" d="M1210.8-463.3c0,0,21,1.1,27.8-33c1.2-6.2,3.1-12.9,3.1-21.6c0,0,1.7-53.9-30.9-53.9"/>
		<path class="st2" d="M1199.6-487c0,0,8.6,1.7,11.7,1.7s9.6-1,11-1.4"/>
		<path class="st6" d="M1205-517.5c0,0-3.1-3.4-8.2-3.4s-7.2,4.1-7.2,4.1S1195.4-533.6,1205-517.5z"/>
		<path class="st6" d="M1218.4-517.5c0,0,3.1-3.4,8.2-3.4s7.2,4.1,7.2,4.1S1228-533.6,1218.4-517.5z"/>
		<line class="st2" x1="1178.9" y1="-512.7" x2="1181.4" y2="-508.4"/>
		<path class="st6" d="M1179.8-522h64.3c0,0-0.8-49.3-32.8-50.5c-31.7-1.2-31.7,50.5-31.7,50.5"/>
		<line class="st2" x1="1179.2" y1="-521.5" x2="1244.2" y2="-521.5"/>
	</g>
	<g>
		<path class="st1" d="M960.7-928.5c0,0-12,34-13,86c0,0,44,12,93,2c0,0-6-76-18-95.6c0,0-9.3-16.7-28-17.4
			C968.7-954.5,960.7-928.5,960.7-928.5z"/>
		<path class="st6" d="M1012.2-848c0,0,11.2,5.7,21.7,9.4c10.5,3.8,17.7,13.6,17.7,24.8v6.3H936.5v-2.5c0-10.9,6.6-20.8,16.7-24.8
			c5.4-2.1,18-8.1,23-13.2"/>
		<path class="st6" d="M1019.3-846.2c0,0,6.9,27.9-25.1,27.9c-31.9,0-28.1-24-28.1-24s3.6-3.9,9.2-7.2c11.3-6.6,34.1-5.2,42.2,2.1"
			/>
		<path class="st6" d="M970.2-834.7c-1.7-23.3-0.3-32.3-0.3-32.3l49.4-0.7c0,0-0.7,30.6-2.1,33.3"/>
		<path class="st1" d="M962.6-902.3c0,0-2.1-2.1-4.1-1c-2.1,1-1.4,9.3,1.4,12.4c0,0-1.4,16.5,11.7,14.4"/>
		<path class="st1" d="M1025.6-901.7c0,0,2.1-2.1,4.1-1c2.1,1,1.4,9.3-1.4,12.4c0,0,1.4,16.5-11.7,14.4"/>
		<path class="st1" d="M976.7-848.5c-6.1,6.3-15.1,10.5-23,13.2c-10.2,3.5-17.1,13.2-17,24c0,1.5,0,3.1,0,4.8h115c0-2.5,0-5.7,0-7.7
			c0-11.1-7.2-20.8-17.8-24.2c-13.5-4.4-22.2-10.1-22.2-10.1"/>
		<path class="st1" d="M967.1-841.3c0,0-3.8,24,28.1,24c31.9,0,24.5-26.3,24.5-26.3"/>
		<path class="st1" d="M1012.4-867.7c0,0-0.5,30.6-1.5,33.3"/>
		<path class="st1" d="M976.6-867c0,0-1,8.9,0.2,32.3"/>
		<path class="st1" d="M994.6-842.3c0,0-19.9,1.4-27.1-30.9c-1.5-6.5-3.8-14.1-3.8-23.7c0,0-1.7-53.9,30.9-53.9"/>
		<path class="st1" d="M993.8-842.3c0,0,21,1.1,27.8-33c1.2-6.2,3.1-12.9,3.1-21.6c0,0,1.7-53.9-30.9-53.9"/>
		<path class="st2" d="M982.6-866c0,0,8.6,1.7,11.7,1.7c3.1,0,9.6-1,11-1.4"/>
		<path class="st6" d="M988-896.5c0,0-3.1-3.4-8.2-3.4s-7.2,4.1-7.2,4.1S978.4-912.6,988-896.5z"/>
		<path class="st6" d="M1001.4-896.5c0,0,3.1-3.4,8.2-3.4c5.1,0,7.2,4.1,7.2,4.1S1011-912.6,1001.4-896.5z"/>
		<line class="st2" x1="961.9" y1="-891.7" x2="964.4" y2="-887.4"/>
		<path class="st6" d="M962.8-901h64.3c0,0-0.8-49.3-32.8-50.5c-31.7-1.2-31.7,50.5-31.7,50.5"/>
		<line class="st2" x1="962.2" y1="-900.5" x2="1027.2" y2="-900.5"/>
	</g>
	<g>
		<path class="st1" d="M960.7-739.5c0,0-12,34-13,86c0,0,44,12,93,2c0,0-6-76-18-95.6c0,0-9.3-16.7-28-17.4
			C968.7-765.5,960.7-739.5,960.7-739.5z"/>
		<path class="st6" d="M1012.2-659c0,0,11.2,5.7,21.7,9.4c10.5,3.8,17.7,13.6,17.7,24.8v6.3H936.5v-2.5c0-10.9,6.6-20.8,16.7-24.8
			c5.4-2.1,18-8.1,23-13.2"/>
		<path class="st6" d="M1019.3-657.2c0,0,6.9,27.9-25.1,27.9c-31.9,0-28.1-24-28.1-24s3.6-3.9,9.2-7.2c11.3-6.6,34.1-5.2,42.2,2.1"
			/>
		<path class="st6" d="M970.2-645.7c-1.7-23.3-0.3-32.3-0.3-32.3l49.4-0.7c0,0-0.7,30.6-2.1,33.3"/>
		<path class="st1" d="M962.6-713.3c0,0-2.1-2.1-4.1-1c-2.1,1-1.4,9.3,1.4,12.4c0,0-1.4,16.5,11.7,14.4"/>
		<path class="st1" d="M1025.6-712.7c0,0,2.1-2.1,4.1-1c2.1,1,1.4,9.3-1.4,12.4c0,0,1.4,16.5-11.7,14.4"/>
		<path class="st1" d="M976.7-659.5c-6.1,6.3-15.1,10.5-23,13.2c-10.2,3.5-17.1,13.2-17,24c0,1.5,0,3.1,0,4.8h115c0-2.5,0-5.7,0-7.7
			c0-11.1-7.2-20.8-17.8-24.2c-13.5-4.4-22.2-10.1-22.2-10.1"/>
		<path class="st1" d="M967.1-652.3c0,0-3.8,24,28.1,24c31.9,0,24.5-26.3,24.5-26.3"/>
		<path class="st1" d="M1012.4-678.7c0,0-0.5,30.6-1.5,33.3"/>
		<path class="st1" d="M976.6-678c0,0-1,8.9,0.2,32.3"/>
		<path class="st1" d="M994.6-653.3c0,0-19.9,1.4-27.1-30.9c-1.5-6.5-3.8-14.1-3.8-23.7c0,0-1.7-53.9,30.9-53.9"/>
		<path class="st1" d="M993.8-653.3c0,0,21,1.1,27.8-33c1.2-6.2,3.1-12.9,3.1-21.6c0,0,1.7-53.9-30.9-53.9"/>
		<path class="st2" d="M982.6-677c0,0,8.6,1.7,11.7,1.7c3.1,0,9.6-1,11-1.4"/>
		<path class="st6" d="M988-707.5c0,0-3.1-3.4-8.2-3.4s-7.2,4.1-7.2,4.1S978.4-723.6,988-707.5z"/>
		<path class="st6" d="M1001.4-707.5c0,0,3.1-3.4,8.2-3.4c5.1,0,7.2,4.1,7.2,4.1S1011-723.6,1001.4-707.5z"/>
		<line class="st2" x1="961.9" y1="-702.7" x2="964.4" y2="-698.4"/>
		<path class="st6" d="M962.8-712h64.3c0,0-0.8-49.3-32.8-50.5c-31.7-1.2-31.7,50.5-31.7,50.5"/>
		<line class="st2" x1="962.2" y1="-711.5" x2="1027.2" y2="-711.5"/>
	</g>
	<g>
		<path class="st1" d="M960.7-549.5c0,0-12,34-13,86c0,0,44,12,93,2c0,0-6-76-18-95.6c0,0-9.3-16.7-28-17.4
			C968.7-575.5,960.7-549.5,960.7-549.5z"/>
		<path class="st6" d="M1012.2-469c0,0,11.2,5.7,21.7,9.4c10.5,3.8,17.7,13.6,17.7,24.8v6.3H936.5v-2.5c0-10.9,6.6-20.8,16.7-24.8
			c5.4-2.1,18-8.1,23-13.2"/>
		<path class="st6" d="M1019.3-467.2c0,0,6.9,27.9-25.1,27.9c-31.9,0-28.1-24-28.1-24s3.6-3.9,9.2-7.2c11.3-6.6,34.1-5.2,42.2,2.1"
			/>
		<path class="st6" d="M970.2-455.7c-1.7-23.3-0.3-32.3-0.3-32.3l49.4-0.7c0,0-0.7,30.6-2.1,33.3"/>
		<path class="st1" d="M962.6-523.3c0,0-2.1-2.1-4.1-1c-2.1,1-1.4,9.3,1.4,12.4c0,0-1.4,16.5,11.7,14.4"/>
		<path class="st1" d="M1025.6-522.7c0,0,2.1-2.1,4.1-1c2.1,1,1.4,9.3-1.4,12.4c0,0,1.4,16.5-11.7,14.4"/>
		<path class="st1" d="M976.7-469.5c-6.1,6.3-15.1,10.5-23,13.2c-10.2,3.5-17.1,13.2-17,24c0,1.5,0,3.1,0,4.8h115c0-2.5,0-5.7,0-7.7
			c0-11.1-7.2-20.8-17.8-24.2c-13.5-4.4-22.2-10.1-22.2-10.1"/>
		<path class="st1" d="M967.1-462.3c0,0-3.8,24,28.1,24c31.9,0,24.5-26.3,24.5-26.3"/>
		<path class="st1" d="M1012.4-488.7c0,0-0.5,30.6-1.5,33.3"/>
		<path class="st1" d="M976.6-488c0,0-1,8.9,0.2,32.3"/>
		<path class="st1" d="M994.6-463.3c0,0-19.9,1.4-27.1-30.9c-1.5-6.5-3.8-14.1-3.8-23.7c0,0-1.7-53.9,30.9-53.9"/>
		<path class="st1" d="M993.8-463.3c0,0,21,1.1,27.8-33c1.2-6.2,3.1-12.9,3.1-21.6c0,0,1.7-53.9-30.9-53.9"/>
		<path class="st2" d="M982.6-487c0,0,8.6,1.7,11.7,1.7c3.1,0,9.6-1,11-1.4"/>
		<path class="st6" d="M988-517.5c0,0-3.1-3.4-8.2-3.4s-7.2,4.1-7.2,4.1S978.4-533.6,988-517.5z"/>
		<path class="st6" d="M1001.4-517.5c0,0,3.1-3.4,8.2-3.4c5.1,0,7.2,4.1,7.2,4.1S1011-533.6,1001.4-517.5z"/>
		<line class="st2" x1="961.9" y1="-512.7" x2="964.4" y2="-508.4"/>
		<path class="st6" d="M962.8-522h64.3c0,0-0.8-49.3-32.8-50.5c-31.7-1.2-31.7,50.5-31.7,50.5"/>
		<line class="st2" x1="962.2" y1="-521.5" x2="1027.2" y2="-521.5"/>
	</g>
	<g>
		<path class="st1" d="M744.7-929.5c0,0-12,34-13,86c0,0,44,12,93,2c0,0-6-76-18-95.6c0,0-9.3-16.7-28-17.4
			C752.7-955.5,744.7-929.5,744.7-929.5z"/>
		<path class="st6" d="M796.2-849c0,0,11.2,5.7,21.7,9.4c10.5,3.8,17.7,13.6,17.7,24.8v6.3H720.5v-2.5c0-10.9,6.6-20.8,16.7-24.8
			c5.4-2.1,18-8.1,23-13.2"/>
		<path class="st6" d="M803.3-847.2c0,0,6.9,27.9-25.1,27.9c-31.9,0-28.1-24-28.1-24s3.6-3.9,9.2-7.2c11.3-6.6,34.1-5.2,42.2,2.1"/>
		<path class="st6" d="M754.2-835.7c-1.7-23.3-0.3-32.3-0.3-32.3l49.4-0.7c0,0-0.7,30.6-2.1,33.3"/>
		<path class="st1" d="M746.6-903.3c0,0-2.1-2.1-4.1-1c-2.1,1-1.4,9.3,1.4,12.4c0,0-1.4,16.5,11.7,14.4"/>
		<path class="st1" d="M809.6-902.7c0,0,2.1-2.1,4.1-1c2,1.1,1.4,9.3-1.4,12.4c0,0,1.4,16.5-11.7,14.4"/>
		<path class="st1" d="M760.7-849.5c-6.1,6.3-15.1,10.5-23,13.2c-10.2,3.5-17.1,13.2-17,24c0,1.5,0,3.1,0,4.8h115c0-2.5,0-5.7,0-7.7
			c0-11.1-7.2-20.8-17.8-24.2c-13.5-4.4-22.2-10.1-22.2-10.1"/>
		<path class="st1" d="M751.1-842.3c0,0-3.8,24,28.1,24c31.9,0,24.5-26.3,24.5-26.3"/>
		<path class="st1" d="M796.4-868.7c0,0-0.5,30.6-1.5,33.3"/>
		<path class="st1" d="M760.6-868c0,0-1,8.9,0.2,32.3"/>
		<path class="st1" d="M778.6-843.3c0,0-19.9,1.4-27.1-30.9c-1.5-6.5-3.8-14.1-3.8-23.7c0,0-1.7-53.9,30.9-53.9"/>
		<path class="st1" d="M777.8-843.3c0,0,21,1.1,27.8-33c1.2-6.2,3.1-12.9,3.1-21.6c0,0,1.7-53.9-30.9-53.9"/>
		<path class="st2" d="M766.6-867c0,0,8.6,1.7,11.7,1.7c3.1,0,9.6-1,11-1.4"/>
		<path class="st6" d="M772-897.5c0,0-3.1-3.4-8.2-3.4s-7.2,4.1-7.2,4.1S762.4-913.6,772-897.5z"/>
		<path class="st6" d="M785.4-897.5c0,0,3.1-3.4,8.2-3.4c5.1,0,7.2,4.1,7.2,4.1S795-913.6,785.4-897.5z"/>
		<line class="st2" x1="745.9" y1="-892.7" x2="748.4" y2="-888.4"/>
		<path class="st6" d="M746.8-902h64.3c0,0-0.8-49.3-32.8-50.5c-31.7-1.2-31.7,50.5-31.7,50.5"/>
		<line class="st2" x1="746.2" y1="-901.5" x2="811.2" y2="-901.5"/>
	</g>
	<g>
		<path class="st1" d="M744.7-740.5c0,0-12,34-13,86c0,0,44,12,93,2c0,0-6-76-18-95.6c0,0-9.3-16.7-28-17.4
			C752.7-766.5,744.7-740.5,744.7-740.5z"/>
		<path class="st6" d="M796.2-660c0,0,11.2,5.7,21.7,9.4c10.5,3.8,17.7,13.6,17.7,24.8v6.3H720.5v-2.5c0-10.9,6.6-20.8,16.7-24.8
			c5.4-2.1,18-8.1,23-13.2"/>
		<path class="st6" d="M803.3-658.2c0,0,6.9,27.9-25.1,27.9c-31.9,0-28.1-24-28.1-24s3.6-3.9,9.2-7.2c11.3-6.6,34.1-5.2,42.2,2.1"/>
		<path class="st6" d="M754.2-646.7c-1.7-23.3-0.3-32.3-0.3-32.3l49.4-0.7c0,0-0.7,30.6-2.1,33.3"/>
		<path class="st1" d="M746.6-714.3c0,0-2.1-2.1-4.1-1c-2.1,1-1.4,9.3,1.4,12.4c0,0-1.4,16.5,11.7,14.4"/>
		<path class="st1" d="M809.6-713.7c0,0,2.1-2.1,4.1-1s1.4,9.3-1.4,12.4c0,0,1.4,16.5-11.7,14.4"/>
		<path class="st1" d="M760.7-660.5c-6.1,6.3-15.1,10.5-23,13.2c-10.2,3.5-17.1,13.2-17,24c0,1.5,0,3.1,0,4.8h115c0-2.5,0-5.7,0-7.7
			c0-11.1-7.2-20.8-17.8-24.2c-13.5-4.4-22.2-10.1-22.2-10.1"/>
		<path class="st1" d="M751.1-653.3c0,0-3.8,24,28.1,24c31.9,0,24.5-26.3,24.5-26.3"/>
		<path class="st1" d="M796.4-679.7c0,0-0.5,30.6-1.5,33.3"/>
		<path class="st1" d="M760.6-679c0,0-1,8.9,0.2,32.3"/>
		<path class="st1" d="M778.6-654.3c0,0-19.9,1.4-27.1-30.9c-1.5-6.5-3.8-14.1-3.8-23.7c0,0-1.7-53.9,30.9-53.9"/>
		<path class="st1" d="M777.8-654.3c0,0,21,1.1,27.8-33c1.2-6.2,3.1-12.9,3.1-21.6c0,0,1.7-53.9-30.9-53.9"/>
		<path class="st2" d="M766.6-678c0,0,8.6,1.7,11.7,1.7c3.1,0,9.6-1,11-1.4"/>
		<path class="st6" d="M772-708.5c0,0-3.1-3.4-8.2-3.4s-7.2,4.1-7.2,4.1S762.4-724.6,772-708.5z"/>
		<path class="st6" d="M785.4-708.5c0,0,3.1-3.4,8.2-3.4c5.1,0,7.2,4.1,7.2,4.1S795-724.6,785.4-708.5z"/>
		<line class="st2" x1="745.9" y1="-703.7" x2="748.4" y2="-699.4"/>
		<path class="st6" d="M746.8-713h64.3c0,0-0.8-49.3-32.8-50.5c-31.7-1.2-31.7,50.5-31.7,50.5"/>
		<line class="st2" x1="746.2" y1="-712.5" x2="811.2" y2="-712.5"/>
	</g>
	<g>
		<path class="st1" d="M744.7-550.5c0,0-12,34-13,86c0,0,44,12,93,2c0,0-6-76-18-95.6c0,0-9.3-16.7-28-17.4
			C752.7-576.5,744.7-550.5,744.7-550.5z"/>
		<path class="st6" d="M796.2-470c0,0,11.2,5.7,21.7,9.4c10.5,3.8,17.7,13.6,17.7,24.8v6.3H720.5v-2.5c0-10.9,6.6-20.8,16.7-24.8
			c5.4-2.1,18-8.1,23-13.2"/>
		<path class="st6" d="M803.3-468.2c0,0,6.9,27.9-25.1,27.9c-31.9,0-28.1-24-28.1-24s3.6-3.9,9.2-7.2c11.3-6.6,34.1-5.2,42.2,2.1"/>
		<path class="st6" d="M754.2-456.7c-1.7-23.3-0.3-32.3-0.3-32.3l49.4-0.7c0,0-0.7,30.6-2.1,33.3"/>
		<path class="st1" d="M746.6-524.3c0,0-2.1-2.1-4.1-1c-2.1,1-1.4,9.3,1.4,12.4c0,0-1.4,16.5,11.7,14.4"/>
		<path class="st1" d="M809.6-523.7c0,0,2.1-2.1,4.1-1s1.4,9.3-1.4,12.4c0,0,1.4,16.5-11.7,14.4"/>
		<path class="st1" d="M760.7-470.5c-6.1,6.3-15.1,10.5-23,13.2c-10.2,3.5-17.1,13.2-17,24c0,1.5,0,3.1,0,4.8h115c0-2.5,0-5.7,0-7.7
			c0-11.1-7.2-20.8-17.8-24.2c-13.5-4.4-22.2-10.1-22.2-10.1"/>
		<path class="st1" d="M751.1-463.3c0,0-3.8,24,28.1,24c31.9,0,24.5-26.3,24.5-26.3"/>
		<path class="st1" d="M796.4-489.7c0,0-0.5,30.6-1.5,33.3"/>
		<path class="st1" d="M760.6-489c0,0-1,8.9,0.2,32.3"/>
		<path class="st1" d="M778.6-464.3c0,0-19.9,1.4-27.1-30.9c-1.5-6.5-3.8-14.1-3.8-23.7c0,0-1.7-53.9,30.9-53.9"/>
		<path class="st1" d="M777.8-464.3c0,0,21,1.1,27.8-33c1.2-6.2,3.1-12.9,3.1-21.6c0,0,1.7-53.9-30.9-53.9"/>
		<path class="st2" d="M766.6-488c0,0,8.6,1.7,11.7,1.7c3.1,0,9.6-1,11-1.4"/>
		<path class="st6" d="M772-518.5c0,0-3.1-3.4-8.2-3.4s-7.2,4.1-7.2,4.1S762.4-534.6,772-518.5z"/>
		<path class="st6" d="M785.4-518.5c0,0,3.1-3.4,8.2-3.4c5.1,0,7.2,4.1,7.2,4.1S795-534.6,785.4-518.5z"/>
		<line class="st2" x1="745.9" y1="-513.7" x2="748.4" y2="-509.4"/>
		<path class="st6" d="M746.8-523h64.3c0,0-0.8-49.3-32.8-50.5c-31.7-1.2-31.7,50.5-31.7,50.5"/>
		<line class="st2" x1="746.2" y1="-522.5" x2="811.2" y2="-522.5"/>
	</g>
	<g>
		<path class="st1" d="M527.7-929.5c0,0-12,34-13,86c0,0,44,12,93,2c0,0-6-76-18-95.6c0,0-9.3-16.7-28-17.4
			C535.7-955.5,527.7-929.5,527.7-929.5z"/>
		<path class="st6" d="M579.2-849c0,0,11.2,5.7,21.7,9.4c10.5,3.8,17.7,13.6,17.7,24.8v6.3H503.5v-2.5c0-10.9,6.6-20.8,16.7-24.8
			c5.4-2.1,18-8.1,23-13.2"/>
		<path class="st6" d="M586.3-847.2c0,0,6.9,27.9-25.1,27.9c-31.9,0-28.1-24-28.1-24s3.6-3.9,9.2-7.2c11.3-6.6,34.1-5.2,42.2,2.1"/>
		<path class="st6" d="M537.2-835.7c-1.7-23.3-0.3-32.3-0.3-32.3l49.4-0.7c0,0-0.7,30.6-2.1,33.3"/>
		<path class="st1" d="M529.6-903.3c0,0-2.1-2.1-4.1-1c-2.1,1-1.4,9.3,1.4,12.4c0,0-1.4,16.5,11.7,14.4"/>
		<path class="st1" d="M592.6-902.7c0,0,2.1-2.1,4.1-1c2,1.1,1.4,9.3-1.4,12.4c0,0,1.4,16.5-11.7,14.4"/>
		<path class="st1" d="M543.7-849.5c-6.1,6.3-15.1,10.5-23,13.2c-10.2,3.5-17.1,13.2-17,24c0,1.5,0,3.1,0,4.8h115c0-2.5,0-5.7,0-7.7
			c0-11.1-7.2-20.8-17.8-24.2c-13.5-4.4-22.2-10.1-22.2-10.1"/>
		<path class="st1" d="M534.1-842.3c0,0-3.8,24,28.1,24c31.9,0,24.5-26.3,24.5-26.3"/>
		<path class="st1" d="M579.4-868.7c0,0-0.5,30.6-1.5,33.3"/>
		<path class="st1" d="M543.6-868c0,0-1,8.9,0.2,32.3"/>
		<path class="st1" d="M561.6-843.3c0,0-19.9,1.4-27.1-30.9c-1.5-6.5-3.8-14.1-3.8-23.7c0,0-1.7-53.9,30.9-53.9"/>
		<path class="st1" d="M560.8-843.3c0,0,21,1.1,27.8-33c1.2-6.2,3.1-12.9,3.1-21.6c0,0,1.7-53.9-30.9-53.9"/>
		<path class="st2" d="M549.6-867c0,0,8.6,1.7,11.7,1.7c3.1,0,9.6-1,11-1.4"/>
		<path class="st6" d="M555-897.5c0,0-3.1-3.4-8.2-3.4s-7.2,4.1-7.2,4.1S545.4-913.6,555-897.5z"/>
		<path class="st6" d="M568.4-897.5c0,0,3.1-3.4,8.2-3.4c5.1,0,7.2,4.1,7.2,4.1S578-913.6,568.4-897.5z"/>
		<line class="st2" x1="528.9" y1="-892.7" x2="531.4" y2="-888.4"/>
		<path class="st6" d="M529.8-902h64.3c0,0-0.8-49.3-32.8-50.5c-31.7-1.2-31.7,50.5-31.7,50.5"/>
		<line class="st2" x1="529.2" y1="-901.5" x2="594.2" y2="-901.5"/>
	</g>
	<g>
		<path class="st1" d="M527.7-740.5c0,0-12,34-13,86c0,0,44,12,93,2c0,0-6-76-18-95.6c0,0-9.3-16.7-28-17.4
			C535.7-766.5,527.7-740.5,527.7-740.5z"/>
		<path class="st6" d="M579.2-660c0,0,11.2,5.7,21.7,9.4c10.5,3.8,17.7,13.6,17.7,24.8v6.3H503.5v-2.5c0-10.9,6.6-20.8,16.7-24.8
			c5.4-2.1,18-8.1,23-13.2"/>
		<path class="st6" d="M586.3-658.2c0,0,6.9,27.9-25.1,27.9c-31.9,0-28.1-24-28.1-24s3.6-3.9,9.2-7.2c11.3-6.6,34.1-5.2,42.2,2.1"/>
		<path class="st6" d="M537.2-646.7c-1.7-23.3-0.3-32.3-0.3-32.3l49.4-0.7c0,0-0.7,30.6-2.1,33.3"/>
		<path class="st1" d="M529.6-714.3c0,0-2.1-2.1-4.1-1c-2.1,1-1.4,9.3,1.4,12.4c0,0-1.4,16.5,11.7,14.4"/>
		<path class="st1" d="M592.6-713.7c0,0,2.1-2.1,4.1-1s1.4,9.3-1.4,12.4c0,0,1.4,16.5-11.7,14.4"/>
		<path class="st1" d="M543.7-660.5c-6.1,6.3-15.1,10.5-23,13.2c-10.2,3.5-17.1,13.2-17,24c0,1.5,0,3.1,0,4.8h115c0-2.5,0-5.7,0-7.7
			c0-11.1-7.2-20.8-17.8-24.2c-13.5-4.4-22.2-10.1-22.2-10.1"/>
		<path class="st1" d="M534.1-653.3c0,0-3.8,24,28.1,24c31.9,0,24.5-26.3,24.5-26.3"/>
		<path class="st1" d="M579.4-679.7c0,0-0.5,30.6-1.5,33.3"/>
		<path class="st1" d="M543.6-679c0,0-1,8.9,0.2,32.3"/>
		<path class="st1" d="M561.6-654.3c0,0-19.9,1.4-27.1-30.9c-1.5-6.5-3.8-14.1-3.8-23.7c0,0-1.7-53.9,30.9-53.9"/>
		<path class="st1" d="M560.8-654.3c0,0,21,1.1,27.8-33c1.2-6.2,3.1-12.9,3.1-21.6c0,0,1.7-53.9-30.9-53.9"/>
		<path class="st2" d="M549.6-678c0,0,8.6,1.7,11.7,1.7c3.1,0,9.6-1,11-1.4"/>
		<path class="st6" d="M555-708.5c0,0-3.1-3.4-8.2-3.4s-7.2,4.1-7.2,4.1S545.4-724.6,555-708.5z"/>
		<path class="st6" d="M568.4-708.5c0,0,3.1-3.4,8.2-3.4c5.1,0,7.2,4.1,7.2,4.1S578-724.6,568.4-708.5z"/>
		<line class="st2" x1="528.9" y1="-703.7" x2="531.4" y2="-699.4"/>
		<path class="st6" d="M529.8-713h64.3c0,0-0.8-49.3-32.8-50.5c-31.7-1.2-31.7,50.5-31.7,50.5"/>
		<line class="st2" x1="529.2" y1="-712.5" x2="594.2" y2="-712.5"/>
	</g>
	<g>
		<path class="st1" d="M527.7-550.5c0,0-12,34-13,86c0,0,44,12,93,2c0,0-6-76-18-95.6c0,0-9.3-16.7-28-17.4
			C535.7-576.5,527.7-550.5,527.7-550.5z"/>
		<path class="st6" d="M579.2-470c0,0,11.2,5.7,21.7,9.4c10.5,3.8,17.7,13.6,17.7,24.8v6.3H503.5v-2.5c0-10.9,6.6-20.8,16.7-24.8
			c5.4-2.1,18-8.1,23-13.2"/>
		<path class="st6" d="M586.3-468.2c0,0,6.9,27.9-25.1,27.9c-31.9,0-28.1-24-28.1-24s3.6-3.9,9.2-7.2c11.3-6.6,34.1-5.2,42.2,2.1"/>
		<path class="st6" d="M537.2-456.7c-1.7-23.3-0.3-32.3-0.3-32.3l49.4-0.7c0,0-0.7,30.6-2.1,33.3"/>
		<path class="st1" d="M529.6-524.3c0,0-2.1-2.1-4.1-1c-2.1,1-1.4,9.3,1.4,12.4c0,0-1.4,16.5,11.7,14.4"/>
		<path class="st1" d="M592.6-523.7c0,0,2.1-2.1,4.1-1s1.4,9.3-1.4,12.4c0,0,1.4,16.5-11.7,14.4"/>
		<path class="st1" d="M543.7-470.5c-6.1,6.3-15.1,10.5-23,13.2c-10.2,3.5-17.1,13.2-17,24c0,1.5,0,3.1,0,4.8h115c0-2.5,0-5.7,0-7.7
			c0-11.1-7.2-20.8-17.8-24.2c-13.5-4.4-22.2-10.1-22.2-10.1"/>
		<path class="st1" d="M534.1-463.3c0,0-3.8,24,28.1,24c31.9,0,24.5-26.3,24.5-26.3"/>
		<path class="st1" d="M579.4-489.7c0,0-0.5,30.6-1.5,33.3"/>
		<path class="st1" d="M543.6-489c0,0-1,8.9,0.2,32.3"/>
		<path class="st1" d="M561.6-464.3c0,0-19.9,1.4-27.1-30.9c-1.5-6.5-3.8-14.1-3.8-23.7c0,0-1.7-53.9,30.9-53.9"/>
		<path class="st1" d="M560.8-464.3c0,0,21,1.1,27.8-33c1.2-6.2,3.1-12.9,3.1-21.6c0,0,1.7-53.9-30.9-53.9"/>
		<path class="st2" d="M549.6-488c0,0,8.6,1.7,11.7,1.7c3.1,0,9.6-1,11-1.4"/>
		<path class="st6" d="M555-518.5c0,0-3.1-3.4-8.2-3.4s-7.2,4.1-7.2,4.1S545.4-534.6,555-518.5z"/>
		<path class="st6" d="M568.4-518.5c0,0,3.1-3.4,8.2-3.4c5.1,0,7.2,4.1,7.2,4.1S578-534.6,568.4-518.5z"/>
		<line class="st2" x1="528.9" y1="-513.7" x2="531.4" y2="-509.4"/>
		<path class="st7" d="M529.8-523h64.3c0,0-0.8-49.3-32.8-50.5c-31.7-1.2-31.7,50.5-31.7,50.5"/>
		<line class="st2" x1="529.2" y1="-522.5" x2="594.2" y2="-522.5"/>
	</g>
	<g>
		<path class="st1" d="M311.7-930.5c0,0-12,34-13,86c0,0,44,12,93,2c0,0-6-76-18-95.6c0,0-9.3-16.7-28-17.4
			C319.7-956.5,311.7-930.5,311.7-930.5z"/>
		<path class="st6" d="M363.2-850c0,0,11.2,5.7,21.7,9.4c10.5,3.8,17.7,13.6,17.7,24.8v6.3H287.5v-2.5c0-10.9,6.6-20.8,16.7-24.8
			c5.4-2.1,18-8.1,23-13.2"/>
		<path class="st6" d="M370.3-848.2c0,0,6.9,27.9-25.1,27.9s-28.1-24-28.1-24s3.6-3.9,9.2-7.2c11.3-6.6,34.1-5.2,42.2,2.1"/>
		<path class="st6" d="M321.2-836.7c-1.7-23.3-0.3-32.3-0.3-32.3l49.4-0.7c0,0-0.7,30.6-2.1,33.3"/>
		<path class="st1" d="M313.6-904.3c0,0-2.1-2.1-4.1-1c-2.1,1-1.4,9.3,1.4,12.4c0,0-1.4,16.5,11.7,14.4"/>
		<path class="st1" d="M376.6-903.7c0,0,2.1-2.1,4.1-1c2.1,1,1.4,9.3-1.4,12.4c0,0,1.4,16.5-11.7,14.4"/>
		<path class="st1" d="M327.7-850.5c-6.1,6.3-15.1,10.5-23,13.2c-10.2,3.5-17.1,13.2-17,24c0,1.5,0,3.1,0,4.8h115c0-2.5,0-5.7,0-7.7
			c0-11.1-7.2-20.8-17.8-24.2c-13.5-4.4-22.2-10.1-22.2-10.1"/>
		<path class="st1" d="M318.1-843.3c0,0-3.8,24,28.1,24s24.5-26.3,24.5-26.3"/>
		<path class="st1" d="M363.4-869.7c0,0-0.5,30.6-1.5,33.3"/>
		<path class="st1" d="M327.6-869c0,0-1,8.9,0.2,32.3"/>
		<path class="st1" d="M345.6-844.3c0,0-19.9,1.4-27.1-30.9c-1.5-6.5-3.8-14.1-3.8-23.7c0,0-1.7-53.9,30.9-53.9"/>
		<path class="st1" d="M344.8-844.3c0,0,21,1.1,27.8-33c1.2-6.2,3.1-12.9,3.1-21.6c0,0,1.7-53.9-30.9-53.9"/>
		<path class="st2" d="M333.6-868c0,0,8.6,1.7,11.7,1.7s9.6-1,11-1.4"/>
		<path class="st6" d="M339-898.5c0,0-3.1-3.4-8.2-3.4s-7.2,4.1-7.2,4.1S329.4-914.6,339-898.5z"/>
		<path class="st6" d="M352.4-898.5c0,0,3.1-3.4,8.2-3.4s7.2,4.1,7.2,4.1S362-914.6,352.4-898.5z"/>
		<line class="st2" x1="312.9" y1="-893.7" x2="315.4" y2="-889.4"/>
		<path class="st6" d="M313.8-903h64.3c0,0-0.8-49.3-32.8-50.5c-31.7-1.2-31.7,50.5-31.7,50.5"/>
		<line class="st2" x1="313.2" y1="-902.5" x2="378.2" y2="-902.5"/>
	</g>
	<g>
		<path class="st1" d="M311.7-740.5c0,0-12,34-13,86c0,0,44,12,93,2c0,0-6-76-18-95.6c0,0-9.3-16.7-28-17.4
			C319.7-766.5,311.7-740.5,311.7-740.5z"/>
		<path class="st6" d="M363.2-660c0,0,11.2,5.7,21.7,9.4c10.5,3.8,17.7,13.6,17.7,24.8v6.3H287.5v-2.5c0-10.9,6.6-20.8,16.7-24.8
			c5.4-2.1,18-8.1,23-13.2"/>
		<path class="st6" d="M370.3-658.2c0,0,6.9,27.9-25.1,27.9s-28.1-24-28.1-24s3.6-3.9,9.2-7.2c11.3-6.6,34.1-5.2,42.2,2.1"/>
		<path class="st6" d="M321.2-646.7c-1.7-23.3-0.3-32.3-0.3-32.3l49.4-0.7c0,0-0.7,30.6-2.1,33.3"/>
		<path class="st1" d="M313.6-714.3c0,0-2.1-2.1-4.1-1c-2.1,1-1.4,9.3,1.4,12.4c0,0-1.4,16.5,11.7,14.4"/>
		<path class="st1" d="M376.6-713.7c0,0,2.1-2.1,4.1-1c2.1,1,1.4,9.3-1.4,12.4c0,0,1.4,16.5-11.7,14.4"/>
		<path class="st1" d="M327.7-660.5c-6.1,6.3-15.1,10.5-23,13.2c-10.2,3.5-17.1,13.2-17,24c0,1.5,0,3.1,0,4.8h115c0-2.5,0-5.7,0-7.7
			c0-11.1-7.2-20.8-17.8-24.2c-13.5-4.4-22.2-10.1-22.2-10.1"/>
		<path class="st1" d="M318.1-653.3c0,0-3.8,24,28.1,24s24.5-26.3,24.5-26.3"/>
		<path class="st1" d="M363.4-679.7c0,0-0.5,30.6-1.5,33.3"/>
		<path class="st1" d="M327.6-679c0,0-1,8.9,0.2,32.3"/>
		<path class="st1" d="M345.6-654.3c0,0-19.9,1.4-27.1-30.9c-1.5-6.5-3.8-14.1-3.8-23.7c0,0-1.7-53.9,30.9-53.9"/>
		<path class="st1" d="M344.8-654.3c0,0,21,1.1,27.8-33c1.2-6.2,3.1-12.9,3.1-21.6c0,0,1.7-53.9-30.9-53.9"/>
		<path class="st2" d="M333.6-678c0,0,8.6,1.7,11.7,1.7s9.6-1,11-1.4"/>
		<path class="st6" d="M339-708.5c0,0-3.1-3.4-8.2-3.4s-7.2,4.1-7.2,4.1S329.4-724.6,339-708.5z"/>
		<path class="st6" d="M352.4-708.5c0,0,3.1-3.4,8.2-3.4s7.2,4.1,7.2,4.1S362-724.6,352.4-708.5z"/>
		<line class="st2" x1="312.9" y1="-703.7" x2="315.4" y2="-699.4"/>
		<path class="st6" d="M313.8-713h64.3c0,0-0.8-49.3-32.8-50.5c-31.7-1.2-31.7,50.5-31.7,50.5"/>
		<line class="st2" x1="313.2" y1="-712.5" x2="378.2" y2="-712.5"/>
	</g>
	<g>
		<path class="st1" d="M311.7-550.5c0,0-12,34-13,86c0,0,44,12,93,2c0,0-6-76-18-95.6c0,0-9.3-16.7-28-17.4
			C319.7-576.5,311.7-550.5,311.7-550.5z"/>
		<path class="st6" d="M363.2-470c0,0,11.2,5.7,21.7,9.4c10.5,3.8,17.7,13.6,17.7,24.8v6.3H287.5v-2.5c0-10.9,6.6-20.8,16.7-24.8
			c5.4-2.1,18-8.1,23-13.2"/>
		<path class="st6" d="M370.3-468.2c0,0,6.9,27.9-25.1,27.9s-28.1-24-28.1-24s3.6-3.9,9.2-7.2c11.3-6.6,34.1-5.2,42.2,2.1"/>
		<path class="st6" d="M321.2-456.7c-1.7-23.3-0.3-32.3-0.3-32.3l49.4-0.7c0,0-0.7,30.6-2.1,33.3"/>
		<path class="st1" d="M313.6-524.3c0,0-2.1-2.1-4.1-1c-2.1,1-1.4,9.3,1.4,12.4c0,0-1.4,16.5,11.7,14.4"/>
		<path class="st1" d="M376.6-523.7c0,0,2.1-2.1,4.1-1c2.1,1,1.4,9.3-1.4,12.4c0,0,1.4,16.5-11.7,14.4"/>
		<path class="st1" d="M327.7-470.5c-6.1,6.3-15.1,10.5-23,13.2c-10.2,3.5-17.1,13.2-17,24c0,1.5,0,3.1,0,4.8h115c0-2.5,0-5.7,0-7.7
			c0-11.1-7.2-20.8-17.8-24.2c-13.5-4.4-22.2-10.1-22.2-10.1"/>
		<path class="st1" d="M318.1-463.3c0,0-3.8,24,28.1,24s24.5-26.3,24.5-26.3"/>
		<path class="st1" d="M363.4-489.7c0,0-0.5,30.6-1.5,33.3"/>
		<path class="st1" d="M327.6-489c0,0-1,8.9,0.2,32.3"/>
		<path class="st1" d="M345.6-464.3c0,0-19.9,1.4-27.1-30.9c-1.5-6.5-3.8-14.1-3.8-23.7c0,0-1.7-53.9,30.9-53.9"/>
		<path class="st1" d="M344.8-464.3c0,0,21,1.1,27.8-33c1.2-6.2,3.1-12.9,3.1-21.6c0,0,1.7-53.9-30.9-53.9"/>
		<path class="st2" d="M333.6-488c0,0,8.6,1.7,11.7,1.7s9.6-1,11-1.4"/>
		<path class="st6" d="M339-518.5c0,0-3.1-3.4-8.2-3.4s-7.2,4.1-7.2,4.1S329.4-534.6,339-518.5z"/>
		<path class="st6" d="M352.4-518.5c0,0,3.1-3.4,8.2-3.4s7.2,4.1,7.2,4.1S362-534.6,352.4-518.5z"/>
		<line class="st2" x1="312.9" y1="-513.7" x2="315.4" y2="-509.4"/>
		<path class="st6" d="M313.8-523h64.3c0,0-0.8-49.3-32.8-50.5c-31.7-1.2-31.7,50.5-31.7,50.5"/>
		<line class="st2" x1="313.2" y1="-522.5" x2="378.2" y2="-522.5"/>
	</g>
	<g>
		<path class="st1" d="M94.7-930.5c0,0-12,34-13,86c0,0,44,12,93,2c0,0-6-76-18-95.6c0,0-9.3-16.7-28-17.4
			C102.7-956.5,94.7-930.5,94.7-930.5z"/>
		<path class="st6" d="M146.2-850c0,0,11.2,5.7,21.7,9.4c10.5,3.8,17.7,13.6,17.7,24.8v6.3H70.5v-2.5c0-10.9,6.6-20.8,16.7-24.8
			c5.4-2.1,18-8.1,23-13.2"/>
		<path class="st6" d="M153.3-848.2c0,0,6.9,27.9-25.1,27.9s-28.1-24-28.1-24s3.6-3.9,9.2-7.2c11.3-6.6,34.1-5.2,42.2,2.1"/>
		<path class="st6" d="M104.2-836.7c-1.7-23.3-0.3-32.3-0.3-32.3l49.4-0.7c0,0-0.7,30.6-2.1,33.3"/>
		<path class="st1" d="M96.6-904.3c0,0-2.1-2.1-4.1-1c-2.1,1-1.4,9.3,1.4,12.4c0,0-1.4,16.5,11.7,14.4"/>
		<path class="st1" d="M159.6-903.7c0,0,2.1-2.1,4.1-1c2.1,1,1.4,9.3-1.4,12.4c0,0,1.4,16.5-11.7,14.4"/>
		<path class="st1" d="M110.7-850.5c-6.1,6.3-15.1,10.5-23,13.2c-10.2,3.5-17.1,13.2-17,24c0,1.5,0,3.1,0,4.8h115c0-2.5,0-5.7,0-7.7
			c0-11.1-7.2-20.8-17.8-24.2c-13.5-4.4-22.2-10.1-22.2-10.1"/>
		<path class="st1" d="M101.1-843.3c0,0-3.8,24,28.1,24s24.5-26.3,24.5-26.3"/>
		<path class="st1" d="M146.4-869.7c0,0-0.5,30.6-1.5,33.3"/>
		<path class="st1" d="M110.6-869c0,0-1,8.9,0.2,32.3"/>
		<path class="st1" d="M128.6-844.3c0,0-19.9,1.4-27.1-30.9c-1.5-6.5-3.8-14.1-3.8-23.7c0,0-1.7-53.9,30.9-53.9"/>
		<path class="st1" d="M127.8-844.3c0,0,21,1.1,27.8-33c1.2-6.2,3.1-12.9,3.1-21.6c0,0,1.7-53.9-30.9-53.9"/>
		<path class="st2" d="M116.6-868c0,0,8.6,1.7,11.7,1.7s9.6-1,11-1.4"/>
		<path class="st6" d="M122-898.5c0,0-3.1-3.4-8.2-3.4s-7.2,4.1-7.2,4.1S112.4-914.6,122-898.5z"/>
		<path class="st6" d="M135.4-898.5c0,0,3.1-3.4,8.2-3.4s7.2,4.1,7.2,4.1S145-914.6,135.4-898.5z"/>
		<line class="st2" x1="95.9" y1="-893.7" x2="98.4" y2="-889.4"/>
		<path class="st6" d="M96.8-903h64.3c0,0-0.8-49.3-32.8-50.5C96.6-954.7,96.6-903,96.6-903"/>
		<line class="st2" x1="96.2" y1="-902.5" x2="161.2" y2="-902.5"/>
	</g>
	<g>
		<path class="st1" d="M94.7-741.5c0,0-12,34-13,86c0,0,44,12,93,2c0,0-6-76-18-95.6c0,0-9.3-16.7-28-17.4
			C102.7-767.5,94.7-741.5,94.7-741.5z"/>
		<path class="st6" d="M146.2-661c0,0,11.2,5.7,21.7,9.4c10.5,3.8,17.7,13.6,17.7,24.8v6.3H70.5v-2.5c0-10.9,6.6-20.8,16.7-24.8
			c5.4-2.1,18-8.1,23-13.2"/>
		<path class="st6" d="M153.3-659.2c0,0,6.9,27.9-25.1,27.9s-28.1-24-28.1-24s3.6-3.9,9.2-7.2c11.3-6.6,34.1-5.2,42.2,2.1"/>
		<path class="st6" d="M104.2-647.7c-1.7-23.3-0.3-32.3-0.3-32.3l49.4-0.7c0,0-0.7,30.6-2.1,33.3"/>
		<path class="st1" d="M96.6-715.3c0,0-2.1-2.1-4.1-1c-2.1,1-1.4,9.3,1.4,12.4c0,0-1.4,16.5,11.7,14.4"/>
		<path class="st1" d="M159.6-714.7c0,0,2.1-2.1,4.1-1c2.1,1,1.4,9.3-1.4,12.4c0,0,1.4,16.5-11.7,14.4"/>
		<path class="st1" d="M110.7-661.5c-6.1,6.3-15.1,10.5-23,13.2c-10.2,3.5-17.1,13.2-17,24c0,1.5,0,3.1,0,4.8h115c0-2.5,0-5.7,0-7.7
			c0-11.1-7.2-20.8-17.8-24.2c-13.5-4.4-22.2-10.1-22.2-10.1"/>
		<path class="st1" d="M101.1-654.3c0,0-3.8,24,28.1,24s24.5-26.3,24.5-26.3"/>
		<path class="st1" d="M146.4-680.7c0,0-0.5,30.6-1.5,33.3"/>
		<path class="st1" d="M110.6-680c0,0-1,8.9,0.2,32.3"/>
		<path class="st1" d="M128.6-655.3c0,0-19.9,1.4-27.1-30.9c-1.5-6.5-3.8-14.1-3.8-23.7c0,0-1.7-53.9,30.9-53.9"/>
		<path class="st1" d="M127.8-655.3c0,0,21,1.1,27.8-33c1.2-6.2,3.1-12.9,3.1-21.6c0,0,1.7-53.9-30.9-53.9"/>
		<path class="st2" d="M116.6-679c0,0,8.6,1.7,11.7,1.7s9.6-1,11-1.4"/>
		<path class="st6" d="M122-709.5c0,0-3.1-3.4-8.2-3.4s-7.2,4.1-7.2,4.1S112.4-725.6,122-709.5z"/>
		<path class="st6" d="M135.4-709.5c0,0,3.1-3.4,8.2-3.4s7.2,4.1,7.2,4.1S145-725.6,135.4-709.5z"/>
		<line class="st2" x1="95.9" y1="-704.7" x2="98.4" y2="-700.4"/>
		<path class="st6" d="M96.8-714h64.3c0,0-0.8-49.3-32.8-50.5C96.6-765.7,96.6-714,96.6-714"/>
		<line class="st2" x1="96.2" y1="-713.5" x2="161.2" y2="-713.5"/>
	</g>
	<g>
		<path class="st1" d="M94.7-551.5c0,0-12,34-13,86c0,0,44,12,93,2c0,0-6-76-18-95.6c0,0-9.3-16.7-28-17.4
			C102.7-577.5,94.7-551.5,94.7-551.5z"/>
		<path class="st6" d="M146.2-471c0,0,11.2,5.7,21.7,9.4c10.5,3.8,17.7,13.6,17.7,24.8v6.3H70.5v-2.5c0-10.9,6.6-20.8,16.7-24.8
			c5.4-2.1,18-8.1,23-13.2"/>
		<path class="st6" d="M153.3-469.2c0,0,6.9,27.9-25.1,27.9s-28.1-24-28.1-24s3.6-3.9,9.2-7.2c11.3-6.6,34.1-5.2,42.2,2.1"/>
		<path class="st6" d="M104.2-457.7c-1.7-23.3-0.3-32.3-0.3-32.3l49.4-0.7c0,0-0.7,30.6-2.1,33.3"/>
		<path class="st1" d="M96.6-525.3c0,0-2.1-2.1-4.1-1c-2.1,1-1.4,9.3,1.4,12.4c0,0-1.4,16.5,11.7,14.4"/>
		<path class="st1" d="M159.6-524.7c0,0,2.1-2.1,4.1-1c2.1,1,1.4,9.3-1.4,12.4c0,0,1.4,16.5-11.7,14.4"/>
		<path class="st1" d="M110.7-471.5c-6.1,6.3-15.1,10.5-23,13.2c-10.2,3.5-17.1,13.2-17,24c0,1.5,0,3.1,0,4.8h115c0-2.5,0-5.7,0-7.7
			c0-11.1-7.2-20.8-17.8-24.2c-13.5-4.4-22.2-10.1-22.2-10.1"/>
		<path class="st1" d="M101.1-464.3c0,0-3.8,24,28.1,24s24.5-26.3,24.5-26.3"/>
		<path class="st1" d="M146.4-490.7c0,0-0.5,30.6-1.5,33.3"/>
		<path class="st1" d="M110.6-490c0,0-1,8.9,0.2,32.3"/>
		<path class="st1" d="M128.6-465.3c0,0-19.9,1.4-27.1-30.9c-1.5-6.5-3.8-14.1-3.8-23.7c0,0-1.7-53.9,30.9-53.9"/>
		<path class="st1" d="M127.8-465.3c0,0,21,1.1,27.8-33c1.2-6.2,3.1-12.9,3.1-21.6c0,0,1.7-53.9-30.9-53.9"/>
		<path class="st2" d="M116.6-489c0,0,8.6,1.7,11.7,1.7s9.6-1,11-1.4"/>
		<path class="st6" d="M122-519.5c0,0-3.1-3.4-8.2-3.4s-7.2,4.1-7.2,4.1S112.4-535.6,122-519.5z"/>
		<path class="st6" d="M135.4-519.5c0,0,3.1-3.4,8.2-3.4s7.2,4.1,7.2,4.1S145-535.6,135.4-519.5z"/>
		<line class="st2" x1="95.9" y1="-514.7" x2="98.4" y2="-510.4"/>
		<path class="st6" d="M96.8-524h64.3c0,0-0.8-49.3-32.8-50.5C96.6-575.7,96.6-524,96.6-524"/>
		<line class="st2" x1="96.2" y1="-523.5" x2="161.2" y2="-523.5"/>
	</g>
	<rect x="516.3" y="-1090.5" class="st3" width="111.2" height="47.9"/>
	<text transform="matrix(1 0 0 1 516.3127 -1053.4697)" style="font-family:'WorkSans-Regular'; font-size:50.6787px;">BUY</text>
</g>
<g id="Layer_3" class="st8">
	<path class="st9" d="M-398.8-299.3c-12.6-12.2-11.4-17.5-19.7-24.5c-18.1-15.3-44.1-7.6-44.6-12.1c-0.4-3.4,14-10.2,29.7-10.8
		c15.1-0.6,24,4.7,25.8,1.8c2.2-3.6-11.6-12-22.4-28.3c-10.8-16.1-9.3-26.1-17.6-54.1c-7.5-25.4-11.8-38.2-18.8-48.5
		c-14.7-21.6-33.2-29.7-31.5-32.5c1.5-2.5,17,1.8,30,11.7c14.7,11.3,17.8,23.4,20.8,22.4c5-1.6,6.1-37.7-13.5-67
		c-15.5-23.2-37.3-32-34.5-38.4c2-4.5,14.9-4.8,25.6-1.6c34.7,10.4,44.9,56.9,53.2,54.8c7.2-1.9-2.3-44.6,2.7-45.9
		c3.4-0.9,13.3,18,17.8,39.6c4.7,22.7,2.1,42-0.2,57.4c-4.3,29.9-12.5,50-10.7,50.7c2.9,1.1,21.1-47.7,27.7-45.9
		c4.3,1.2,2.3,22.7,0.2,35.9c-6.3,39.2-20.2,45.8-18.7,71.8c0.6,9.6,3.9,19.6,10.5,39.6c7.9,23.9,14.7,35.9,11.4,38.4
		C-379.5-281.9-393-293.7-398.8-299.3z"/>
	<path class="st10" d="M-3044.5-35.2c-134.1,12-308.5,48.1-300.2,78.4c7.5,27.5,162.3,38.9,246.6,45.1
		c113.1,8.3,324.2,23.9,386-24.5c29.7-23.3,18.8-56.6-15-77.4C-2798.2-57.3-2965.3-42.3-3044.5-35.2z"/>
	<path class="st10" d="M-2905.8-130.6c-75.7,14.4-170.5,43.9-147.5,65.8c23.6,22.4,160.2,26.5,224.4,28.5
		c29.2,0.9,157.5,4,307.8-17.7c68.7-9.9,219.5-31.7,211.6-53C-2321.1-138.5-2679.9-173.4-2905.8-130.6z"/>
	<path class="st10" d="M-2439.3-473.9c-49.2-31.4-119.3-21.6-152.7,22.7c-19,25.2-27.6,63.7-13.6,93.7
		c32.3,69,177.5,79.4,213.1,22.7C-2369.4-371.5-2388.7-441.6-2439.3-473.9z"/>
	<rect x="-3381.3" y="-1043" class="st10" width="450" height="802"/>
	<g class="st11">
		<path class="st12" d="M519.7-37.7L519.7-37.7c-89.7,0-162.5,72.8-162.5,162.5v420.7h325V124.8C682.2,35.1,609.4-37.7,519.7-37.7z"
			/>
		<circle class="st13" cx="629.8" cy="289.4" r="22.8"/>
	</g>
	<rect x="-3193.5" y="1229.8" class="st14" width="136.9" height="136.9"/>
	<polyline class="st15" points="-3192.9,1229.4 -3124.5,1186.4 -3056.8,1229.4 	"/>
	<circle class="st16" cx="-3124.2" cy="1186.7" r="2.2"/>
	<path class="st17" d="M-3186.3,1312l36.6-30.3c2.1-1.8,5.2-1.7,7.3,0.1l34.3,29.8c2.4,2,5.9,1.8,8-0.5l12.9-14.6
		c2.2-2.5,6-2.6,8.3-0.2l15.4,15.6v48.6h-122.9L-3186.3,1312z"/>
	<g class="st11">
		<path d="M-3125.8,166.5v865.4h-1838V166.5H-3125.8 M-3124.8,165.5h-1840v867.4h1840L-3124.8,165.5L-3124.8,165.5z"/>
	</g>
</g>
<g id="Layer_1_1_" class="st8">
</g>
<g id="Layer_4" class="st8">
	<g class="st11">
		<g>
			<defs>
				<rect id="SVGID_2_" x="-2198.3" y="960" width="1842" height="145"/>
			</defs>
			<clipPath id="SVGID_3_">
				<use xlink:href="#SVGID_2_"  style="overflow:visible;"/>
			</clipPath>
			<g class="st18">
				
					<text transform="matrix(1 0 0 1 -2321.321 1073.8856)" style="fill:#BFDDA1; font-family:'Inconsolata-Bold'; font-size:113.6883px;">BUY BUY BUY BUY BUY BUY BUY BUY BUY BUY BUY</text>
				
					<text transform="matrix(1 0 0 1 -2321.321 1073.8856)" class="st2" style="font-family:'Inconsolata-Bold'; font-size:113.6883px;">BUY BUY BUY BUY BUY BUY BUY BUY BUY BUY BUY</text>
			</g>
		</g>
		<g>
			<rect id="SVGID_1_" x="-2198.3" y="960" class="st2" width="1842" height="145"/>
		</g>
	</g>
</g>
<g>
	<path class="st19" d="M852.8-231h42.7c9.3,0,17.4,1.4,26.5,9.7c7.1,6.4,12.7,18,12.7,32.9c0,19.6-12.7,41.5-36.9,41.5h-27.1V-93
		h-17.9V-231z M870.7-166.6h26.5c13.2,0,19.7-11.4,19.7-22.3c0-9.3-3.1-14.9-7.6-18.4c-4-3.1-7.6-3.9-12.7-3.9h-25.8V-166.6z"/>
	<path class="st19" d="M951-231h17.9V-93H951V-231z"/>
	<path class="st19" d="M993.7-231h17.9v118.2h57.4V-93h-75.3V-231z"/>
	<path class="st19" d="M1085.7-231h17.9v118.2h57.4V-93h-75.3V-231z"/>
</g>
<g>
	<defs>
		<rect id="SVGID_4_" x="890" y="134.8" width="326" height="356.2"/>
	</defs>
	<use xlink:href="#SVGID_4_"  style="overflow:visible;fill:#DDDDD3;"/>
	<clipPath id="SVGID_5_">
		<use xlink:href="#SVGID_4_"  style="overflow:visible;"/>
	</clipPath>
	<path class="st20" d="M906.3,227.5v-14.1c0-0.5,0.1-1,0.3-1.4l3.5-7.3c0.5-1,0.4-2.2-0.2-3.2v0c-0.9-1.4-2.8-1.8-4.3-1l-3.8,2.2
		c-0.7,0.4-1.5,0.1-1.9-0.5l0,0c-0.4-0.7-0.1-1.5,0.6-1.9l5.6-2.9c1.4-0.7,3.2-0.3,4.1,1l2.4,3.5c0.7,1,0.8,2.3,0.2,3.4l-4.1,7.4
		c-0.3,0.5-0.4,1-0.4,1.5l-0.2,12.9"/>
	<path class="st21" d="M971.4,395.9h168.5c3.3,0,5.7,3.2,4.7,6.4l-2.1,6.6c-0.2,0.6-0.3,1.3-0.2,2l6,53c0.1,1-0.7,1.8-1.6,1.8h-2.1
		c-3.3,0-6-2.3-6.6-5.5l-10.9-43.3c-0.4-2.3-2.5-4-4.8-4h-133c-2.3,0-4.3,1.6-4.8,3.9l-9.3,42.7c-0.8,3.8-4.2,6.5-8.1,6.5l-1.7,0
		c-1.1,0-2-1-1.8-2.1l6.3-50.8c0.1-0.7,0-1.4-0.2-2.1l-2.7-8.6C965.7,399.2,968,395.9,971.4,395.9z"/>
	<path class="st22" d="M1059.1,193.6l7.8,4.1c0.1,0.1,0.3,0.1,0.4,0.2l2.8,0.6c1.2,0.3,1.8,1.7,1,2.7l-1.2,1.5
		c-0.7,0.9-0.4,2.2,0.7,2.6l0,0c1,0.5,1.3,1.8,0.6,2.7l-0.4,0.5c-0.2,0.3-0.6,0.5-0.9,0.6l-1.2,0.3c-0.9,0.2-1.4,1.1-1.3,1.9
		l0.5,3.3c0.1,0.4,0,0.9-0.3,1.2l-0.6,0.9c0,0-0.1,0.1-0.1,0.1l-2.5,4.6c-0.1,0.2-0.2,0.4-0.2,0.6l-0.1,1c-0.1,0.9-0.8,1.5-1.7,1.5
		l-2.5,0.1"/>
	<polyline class="st22" points="966.9,259.2 964.8,261.9 966.4,272.8 971.8,279.5 	"/>
	<path class="st23" d="M979.1,272.7h-9.9c-1.4,0-2.6-1.1-2.6-2.6v-20.4c0-1.4,1.1-2.6,2.6-2.6h9.9c1.4,0,2.6,1.1,2.6,2.6v20.4
		C981.6,271.5,980.5,272.7,979.1,272.7z"/>
	<path class="st22" d="M970.1,287.5l2.2,4.1c0.1,0.1,0.1,0.3,0.2,0.4l6,14.8c0.6,1.4,1.9,2.4,3.4,2.5l0,0c1.5,0.1,2.9-0.5,3.8-1.8
		l6.8-10c1.1-1.6,0.9-3.7-0.4-5.1l-3.9-4.1c-0.1-0.1-0.1-0.1-0.2-0.2l-3.4-4.1c-0.5-0.6-0.8-1.3-0.9-2.1l-1.1-7.9
		c-0.1-0.8,0-1.6,0.4-2.4l2.2-4.3c0.4-0.8,0.5-1.7,0.4-2.6l-0.8-4.1c-0.2-0.8-0.5-1.5-1.1-2.1l-0.9-0.9c-1.4-1.3-3.5-1.6-5.1-0.6
		l-4.6,2.9c-0.6,0.4-1.1,0.9-1.4,1.6l-3.7,7.2c-0.1,0.2-0.2,0.3-0.3,0.4h0c-1.3,1.8-1.6,4.2-0.9,6.3l1.1,3.3c0,0.1,0.1,0.2,0.1,0.3
		l1.8,7.2C969.8,286.8,970,287.2,970.1,287.5z"/>
	<polyline class="st23" points="1378.5,395 1372,372.9 1370.3,359 1370.7,352 1374.7,351 1374.7,360.6 1381,351.7 1385.2,344.3 
		1391,347.8 1392.4,356.6 1387.3,369.8 1387,377.5 1389.2,381.2 1401.5,386.3 	"/>
	<path class="st23" d="M1036.2,255.1l-14.2,18.5c-2,2.6-4.3,4.9-6.8,6.9l-10.5,8.3c-1.4,1.1-3.4,1.2-4.9,0.2l-4.1-2.7
		c-2.6-1.7-6-0.9-7.6,1.7l-10.2,16.5c-1.4,2.3-2.2,4.9-2.2,7.6v9.3c0,0.6,0.1,1.1,0.4,1.7l4.8,10.9c0.5,1.2,1.7,2.1,3,2.4l2.1,0.4
		c12.5,2.6,25.5-1.4,34.4-10.6l11-11.3"/>
	<path class="st22" d="M1028.2,431.5l5.5,19l-7.5,4.8l-18,4.5c0,0-2.2,4.8-1.2,4.5s40.7-1.2,40.7-1.2l-1.5-30L1028.2,431.5z"/>
	<polygon class="st22" points="1109.2,428.5 1112.7,451.2 1115.4,456.8 1111.9,462.2 1079.7,463.5 1079.9,461 1081.9,456.2 
		1088.7,453.5 1092.9,447.8 1087.9,429.8 	"/>
	<path class="st24" d="M1104,340l4.6,47.5c0,0,0,0,0,0l2,45.5c0,0.5-0.3,0.8-0.8,0.9l-21.3,1.4c-2.3,0.1-4.4-1.3-5.2-3.5l-5.8-17.4
		c-0.2-0.6-0.3-1.2-0.5-1.8l-10.3-54.1c-0.2-0.8-1.2-0.9-1.6-0.2l-16.5,37.7c-0.1,0.1-0.1,0.2-0.1,0.4l1.8,36.7
		c0.1,2.5-2,4.5-4.5,4.2l-16.7-2c-2-0.2-3.6-1.6-4.1-3.6l-9.8-37.7c0-0.1,0-0.2,0-0.3l5.6-49.5c0-0.4,0.4-0.7,0.8-0.7l81.5-4.3
		C1103.6,339.2,1104,339.5,1104,340z"/>
	<polyline class="st22" points="1041.5,230.2 1046,249.2 1052.2,260.9 1068.5,235.7 1062.7,231.6 1055.5,219.9 	"/>
	<path class="st22" d="M1064,209.8c0.1,2.4-0.4,4.3-1.2,7c-1.2,4.3-3.4,12.4-10.8,17.5c-5.3,3.6-11,3.8-13.8,3.9
		c-3.6,0.1-7.5,0.3-11.3-1.9c-6.4-3.6-8.3-11.2-10.1-18.8c-1.6-6.4-2.3-9.6-1.4-13.5c2.2-9.1,12.1-17,22.9-17.4
		C1052.6,186.2,1063.6,199.6,1064,209.8z"/>
	<path class="st22" d="M1015.5,226.9"/>
	<path class="st22" d="M1016.1,219.7l0.3,11.6c0.1,3.2,3.5,5.1,6.3,3.6l3.9-2.2"/>
	<path class="st23" d="M1062.7,231.6l-4.1,16.8c-0.6,2.3-2.6,3.9-5,3.9l-0.8,0c-1.7,0-3.2-0.8-4.2-2.2l-3.8-5.4l-8.2,9.7
		c-0.3,0.4-0.6,0.9-0.8,1.4l-8.7,21.3c-0.1,0.3-0.2,0.6-0.3,0.9l-2.5,12.3c0,0.1,0,0.2-0.1,0.3l-9.3,34.7c-0.1,0.2-0.1,0.4-0.1,0.6
		l-5.9,39.8c-0.1,0.4-0.1,0.7,0,1.1l2.1,30.6c0.1,1.8,1.2,3.4,2.7,4.2l5.5,2.9c0.6,0.3,1.3,0.5,2,0.6l27.7,2.1c0.3,0,0.7,0,1,0
		l41-4.9c0.3,0,0.7-0.1,1-0.2l18.6-6.2c2.1-0.7,3.5-2.7,3.5-4.9l-0.1-13.3l-1.3-29.9c0-0.2,0-0.4-0.1-0.7
		c-0.5-2.9-4.2-23.9-5.6-27.1c-1.3-3.1,3.7-35,4.8-42.3c0.2-1,0-2-0.4-2.9l-14.6-33.1c-0.2-0.5-0.6-1-0.9-1.4l-3.8-4
		c-0.7-0.7-1.5-1.2-2.5-1.5l-17.3-4.4c-0.7-0.2-1.4-0.2-2.1-0.1L1062.7,231.6z"/>
	<polyline class="st22" points="1065.4,212.3 1060.3,207.6 1063.4,200.6 	"/>
	
		<ellipse transform="matrix(0.8928 -0.4505 0.4505 0.8928 19.4119 488.0826)" class="st23" cx="1035.2" cy="203.3" rx="59.5" ry="10.3"/>
	<path class="st23" d="M1011.7,212.9c0,0-4.1-17.9,11.7-26.4c15.9-8.4,28.2,0.7,31.7,4.2"/>
	<path class="st25" d="M1027.2,277.1l8.2-1.7c1.9-0.5,3.9-0.7,5.9-0.7h10.5c4.3,0,8.5-0.8,12.5-2.4l8.1-3.3l1.2,15.5l0,0
		c-6.2,0.3-4.7,1.4-13,1.7l-8.1-0.3c-6-0.6-18.2,1.2-24,2.8l-4.2,1.9L1027.2,277.1z"/>
	<path class="st22" d="M1050.1,208c0,0,2.8-11.2,10.2-9.8c7.3,1.3,9.3,14.3,2.7,16"/>
	<line class="st22" x1="1059.8" y1="203.1" x2="1059.8" y2="210.6"/>
	<path class="st23" d="M1033.9,448.7l4.9,1.3c0.3,0.1,0.5,0.1,0.8,0l8.5-1.6c0.9-0.2,1.7,0.3,2,1.2l1.2,3.7c0,0,0,0.1,0,0.1l0.9,3.4
		c0.4,1.5,0.3,3.1-0.2,4.5l-0.7,1.8c-0.1,0.2-0.2,0.3-0.3,0.5l-1.5,1.8c-0.4,0.4-0.9,0.7-1.5,0.6l-19-1.1c-0.1,0-0.2,0-0.3,0
		l-20.7,1.9c-0.8,0.1-1.5-0.1-2.1-0.5l-2-1.4c-0.7-0.5-1.2-1.2-1.4-2l-0.7-3.1c-0.3-1.1,0.1-2.4,1-3.1l2.3-2.1
		c0.6-0.6,1.5-0.9,2.3-0.8l7.6,0.5c0.3,0,0.6,0,0.9-0.2l6.4-3c0.2-0.1,0.4-0.3,0.6-0.4l4.1-4.8c0.5-0.6,0.6-1.4,0.2-2l-1-1.7
		c-0.3-0.6-0.3-1.3,0-1.9l0,0c0.5-0.8,1.5-1,2.3-0.6l0.2,0.1c0.3,0.2,0.6,0.5,0.8,0.8l3.4,7.1C1033,448.2,1033.4,448.6,1033.9,448.7
		z"/>
	<path class="st23" d="M1083.9,455l3.6-5.5c0.5-0.8,0.6-1.7,0.4-2.6l-0.3-1.1c-0.1-0.3-0.3-0.7-0.5-1l-1.5-2.2
		c-0.8-1.1-0.8-2.6,0.1-3.7l0,0c0.5-0.6,1.2-1.1,2-1.2l5.6-0.9c0.2,0,0.5-0.1,0.7,0l6.3,0.5c0.1,0,0.3,0,0.4,0.1l1.5,0.3
		c0.9,0.2,1.7,0.8,2.2,1.7l0.1,0.2c0.2,0.3,0.4,0.6,0.6,0.8l1.9,1.9c0.8,0.8,2.1,1.1,3.2,0.8l1.1-0.4c0.7-0.2,1.5-0.2,2.2,0.1l0,0
		c0.9,0.4,1.6,1.1,1.8,2l0.6,1.9c0.1,0.3,0.1,0.6,0.1,1l-0.2,7.7"/>
	<path class="st23" d="M1102.1,450.8l6.2-0.9c0.9-0.1,1.9,0,2.8,0.3c1.9,0.8,5.2,2.1,5.6,2.5c0.3,0.2,0.6,0.8,1,1.5
		c0.8,1.4,0.8,3.1,0.2,4.6l-1.3,3.1c-0.5,1.2-1.4,2.1-2.5,2.7l-1.8,0.9c-0.7,0.4-1.5,0.6-2.3,0.6l-25,0.3c-0.3,0-0.6,0-0.9-0.1
		l-2.5-0.4c-2.1-0.3-3.7-1.8-4.3-3.8l0,0c-0.3-0.9-0.3-1.9,0-2.8l0.4-1.5c0.1-0.3,0.2-0.6,0.3-0.9l0.8-1.8c0.6-1.3,1.6-2.3,2.9-2.8
		l1.7-0.7c0.7-0.3,1.5-0.4,2.3-0.4l8.1,0.4"/>
	<path class="st26" d="M1088.1,448.8c0,0,14.7-2,15-2"/>
	<line class="st26" x1="1024.6" y1="449" x2="1031.6" y2="451.8"/>
	<circle class="st27" cx="1447.7" cy="410.1" r="23.3"/>
	<path class="st22" d="M1114.5,345l3.7,8.4l1.2,2.3c0.4,0.9,0.4,1.9-0.2,2.7l0,0c-0.6,0.8-0.7,1.8-0.2,2.7l1.1,2.2
		c0.6,1.2,0.3,2.5-0.7,3.3l-1.1,0.9c-1.8,1.4-4.4,2.1-6.9,1.7l-0.7-0.1c-0.9-0.1-1.8-0.5-2.4-1.1l-1.3-1.3c-2.8-2.8-4.4-6.3-4.7-9.9
		l-0.7-8.6l-1.6-8.9l5.2-12.7l8.3,8.8L1114.5,345z"/>
	<path class="st23" d="M1086.2,250.2l7.7,47.9c0,0.2,0,0.3,0.1,0.5l1.8,37c0.1,2.2,1.8,4,4,4.2l12.6,1.2c0.6,0.1,1.2,0,1.7-0.2
		l15.9-4.8c0.3-0.1,0.6-0.2,0.9-0.4l7.5-4.3c2-1.1,2.8-3.6,1.9-5.7l-25.1-55.6c-1.9-4.1-4.1-8.1-6.7-11.8l-12-17.4"/>
	<g class="st28">
		<path d="M1028.7,279.7l2.4-0.7c1.2-0.3,2,0.2,2.3,1.1c0.1,0.5,0.1,1.1-0.5,1.6l0,0c0.7,0,1.2,0.5,1.4,1.1c0.3,1.1-0.3,2-1.2,2.2
			l-2.6,0.7L1028.7,279.7z M1029.9,280.3l0.5,1.8l1.3-0.4c0.7-0.2,0.9-0.7,0.7-1.2c-0.1-0.5-0.6-0.8-1.2-0.6L1029.9,280.3z
			 M1030.7,282.9l0.5,1.9l1.4-0.4c0.7-0.2,0.9-0.7,0.7-1.2c-0.1-0.5-0.6-0.8-1.3-0.6L1030.7,282.9z"/>
		<path d="M1039.4,282.2l-2.4,0.5l-0.2,1.5l-1,0.2l1-6.7l0.8-0.2l3.5,5.8l-1,0.2L1039.4,282.2z M1039,281.4l-1.5-2.6l0,0l-0.4,2.9
			L1039,281.4z"/>
		<path d="M1042.6,276.9l0.9,0l2.7,4.7l0,0l0.2-4.5l1,0l-0.2,6.4l-0.9,0l-2.7-4.7l0,0l-0.2,4.5l-1,0L1042.6,276.9z"/>
		<path d="M1049.7,277.2l1,0l-0.2,3.3l0,0l2.8-3.2l1.2,0.1l-2.2,2.4l2.1,4l-1.2-0.1l-1.6-3.2l-1.2,1.1l-0.1,2l-1,0L1049.7,277.2z"/>
		<path d="M1056.2,277.5l4.1,0.2l0,0.9l-3.1-0.2l-0.1,1.8l2.7,0.1l0,0.9l-2.7-0.1l-0.1,1.9l3.1,0.2l0,0.9l-4.1-0.2L1056.2,277.5z"/>
		<path d="M1061,278.4l2.4-0.8c0.5-0.2,1-0.2,1.4,0c0.4,0.2,0.9,0.6,1,1.1c0.3,0.8,0,1.6-0.6,2.1l2.3,2.2l-1.1,0.4l-2.1-2.2
			l-1.2,0.4l0.9,2.6l-0.9,0.3L1061,278.4z M1062.8,280.8l1.4-0.5c0.7-0.2,0.9-0.8,0.7-1.3c-0.1-0.3-0.3-0.5-0.5-0.6
			c-0.2-0.1-0.4-0.1-0.7,0l-1.4,0.5L1062.8,280.8z"/>
	</g>
	<path class="st23" d="M991,283.3"/>
	<line class="st23" x1="984.2" y1="259.6" x2="974.5" y2="269.3"/>
	<circle class="st22" cx="973.9" cy="250.8" r="0.8"/>
	<path class="st22" d="M1008.1,244.6"/>
	<polygon class="st29" points="947.7,365.3 1158.5,195.5 1158,222.8 947.5,392.8 	"/>
	<polygon class="st29" points="947.7,404.2 1158.3,238.5 1158.2,248.8 948,413.5 	"/>
	<g class="st28">
		<defs>
			<rect id="SVGID_6_" x="947.8" y="146.4" width="210.4" height="333"/>
		</defs>
		<clipPath id="SVGID_7_">
			<use xlink:href="#SVGID_6_"  style="overflow:visible;"/>
		</clipPath>
		<rect x="947.8" y="466.2" class="st30" width="210.4" height="27.6"/>
		<path class="st31" d="M885.8,251.2l9.3,10.3l10.2-1.5l0,0c7-1,13.4-4.4,18.1-9.7l0.7-0.8l9.3,1.6c4.2,0.7,8.2,2.3,11.9,4.6h0
			c3.7,2.3,6.8,5.3,9.3,8.9l20.2,28.3l-16.5,18.3l-6.3-10.3l-10.2-13.3l2.4,22.1c0.4,3.9,0.5,7.9,0.2,11.8l-1,15.5
			c-0.1,2.2-0.1,4.4,0.2,6.5l2.5,18.3c0.4,3.1-0.9,6.3-3.5,8.1l-1.2,0.9c-9.2,6.4-20.2,9.9-31.4,9.9h-6.4l-29-6.7l-7.3-8.7
			l10.7-34.7l2.7-23l2-24l-9.3,15.2l-15,11.5l-10-27.7l17.3-17.7l12-12.3L885.8,251.2z"/>
		<use xlink:href="#SVGID_6_"  style="overflow:visible;fill:none;stroke:#000000;stroke-miterlimit:10;"/>
	</g>
	<path class="st21" d="M881,243.5c0.7-0.4,7.6-2.6,9.3-3.1c0.3-0.1,0.5-0.2,0.7-0.3l7.8-5c0.3-0.2,0.6-0.5,0.8-0.8l5.3-7.6
		c0.6-0.8,1.5-1.3,2.5-1.3l0,0c1,0,1.9,0.5,2.5,1.3l4.7,7.2c0.3,0.4,0.6,0.7,1,0.9l7.5,4.3c0.2,0.1,0.5,0.2,0.7,0.3l9.8,2.5
		c0.3,0.1,0.7,0.2,1,0.4l1,0.7c2.7,1.9,0.9,6.1-2.3,5.4l-18.5-4c-0.2,0-0.3-0.1-0.5-0.1l-9.9-0.5c-0.2,0-0.4,0-0.6,0l-10.8,1.6
		c-0.3,0-0.5,0.1-0.8,0.2l-10,4.3l-5.7,2.2c-1.6,0.6-3.4-0.3-3.9-1.9c-0.2-0.5-0.2-0.9,0-1.1C873.2,248.7,881,243.5,881,243.5z"/>
	<path class="st32" d="M886,241l9.3,10.3l10.2-1.5l0,0c7-1,13.4-4.4,18.1-9.7l0.7-0.8l9.3,1.6c4.2,0.7,8.2,2.3,11.9,4.6l0,0
		c3.7,2.3,6.8,5.3,9.3,8.9l20.2,28.3L958.5,301l-6.3-10.3L942,277.3l2.4,22.1c0.4,3.9,0.5,7.9,0.2,11.8l-1,15.5
		c-0.1,2.2-0.1,4.4,0.2,6.5l2.5,18.3c0.4,3.1-0.9,6.3-3.5,8.1l-1.2,0.9c-9.2,6.4-20.2,9.9-31.4,9.9h-6.4l-29-6.7l-7.3-8.7l10.7-34.7
		l2.7-23l2-24l-9.3,15.2l-15,11.5l-10-27.7l17.3-17.7l12-12.3L886,241z"/>
	<circle class="st20" cx="907" cy="202.7" r="3.8"/>
	<circle class="st20" cx="1197.3" cy="202.7" r="3.8"/>
	<polyline class="st25" points="885.7,268.8 897.4,270 911,269.1 925.8,264.5 926.5,279.2 912.3,282.4 896.7,283 883.3,279.6 	"/>
	<g class="st28">
		<path d="M887.2,270.9l2.4,0.6c1.2,0.3,1.7,1.1,1.5,2.1c-0.1,0.5-0.4,1-1.2,1.1l0,0c0.6,0.3,0.8,1,0.7,1.7
			c-0.3,1.1-1.2,1.6-2.2,1.4l-2.6-0.6L887.2,270.9z M887.4,274.5l-0.4,1.9l1.5,0.3c0.7,0.2,1.1-0.2,1.2-0.7c0.1-0.5-0.1-1-0.8-1.2
			L887.4,274.5z M888,271.9l-0.4,1.8l1.4,0.3c0.7,0.2,1.1-0.2,1.2-0.7c0.1-0.5-0.1-1-0.8-1.1L888,271.9z"/>
		<path d="M895.4,277.9l-2.4-0.6l-0.8,1.3l-1-0.2l3.7-5.7l0.8,0.2l0.8,6.8l-1-0.2L895.4,277.9z M895.4,277l-0.3-2.9l0,0l-1.5,2.5
			L895.4,277z"/>
		<path d="M898.9,273.3l0.9,0l2.9,4.6l0,0l0-4.6l1,0l-0.1,6.4l-0.9,0l-2.9-4.6h0l0,4.6l-1,0L898.9,273.3z"/>
		<path d="M905.9,273.4l1,0l0,3.3h0l2.6-3.3l1.2,0l-2.1,2.5l2.3,3.9l-1.2,0l-1.7-3.1l-1.1,1.2l0,2l-1,0L905.9,273.4z"/>
		<path d="M911.8,272.7l4-0.8l0.2,0.9l-3.1,0.6l0.4,1.8l2.6-0.5l0.2,0.8l-2.6,0.5l0.4,1.8l3.1-0.6l0.2,0.9l-4,0.8L911.8,272.7z"/>
		<path d="M917.5,271.6l2.5-0.5c0.5-0.1,1-0.1,1.4,0.2c0.4,0.2,0.8,0.6,0.9,1.2c0.2,0.8-0.2,1.6-0.9,2l2,2.5l-1.1,0.2l-1.8-2.4
			l-1.2,0.2l0.5,2.7l-1,0.2L917.5,271.6z M919,274.1l1.4-0.3c0.7-0.1,1-0.7,0.9-1.2c-0.1-0.3-0.2-0.5-0.5-0.6
			c-0.2-0.1-0.4-0.1-0.7-0.1l-1.5,0.3L919,274.1z"/>
	</g>
	<use xlink:href="#SVGID_4_"  style="overflow:visible;fill:none;stroke:#000000;stroke-miterlimit:10;"/>
</g>
<g>
	<defs>
		<rect id="SVGID_8_" x="497" y="134.8" width="326" height="356.2"/>
	</defs>
	<use xlink:href="#SVGID_8_"  style="overflow:visible;fill:#DDDDD3;"/>
	<clipPath id="SVGID_9_">
		<use xlink:href="#SVGID_8_"  style="overflow:visible;"/>
	</clipPath>
	<path class="st33" d="M497,134.6V491h326V134.6H497z M811.6,480.9H506.5V145.5h305.1V480.9z"/>
	<g class="st34">
		<path class="st19" d="M532,164.9h4.6v30.2H532V164.9z"/>
		<path class="st19" d="M542.9,164.9h4.3l13.7,21.5h0.1v-21.5h4.6v30.2h-4.3l-13.7-21.5h-0.1v21.5h-4.6V164.9z"/>
		<path class="st19" d="M577.1,169h-8.3v-4.1H590v4.1h-8.3v26.1h-4.6V169z"/>
		<path class="st19" d="M593.2,164.9h19.3v4.3h-14.7v8.6h12.6v4.1h-12.6v8.9h14.7v4.3h-19.3V164.9z"/>
		<path class="st19" d="M616.8,164.9h4.6v25.9h14.7v4.3h-19.3V164.9z"/>
		<path class="st19" d="M640.4,164.9h4.6v25.9h14.7v4.3h-19.3V164.9z"/>
		<path class="st19" d="M664,164.9h4.6v30.2H664V164.9z"/>
		<path class="st19" d="M684.8,178.5h10.7v6.2c0,6-4.8,10.7-10.8,10.7c-4.8,0-8-2.8-9.5-5.4c-1-1.8-1.3-2.7-1.3-9.9
			c0-7.3,0.3-8.2,1.3-9.9c1.4-2.6,4.7-5.4,9.5-5.4c5.7,0,9.7,4,10.6,9h-4.8c-0.7-2.3-2.9-4.4-5.8-4.4c-2.2,0-3.7,1-4.7,2.2
			c-1.2,1.5-1.5,2.4-1.5,8.6s0.3,7,1.5,8.6c0.9,1.2,2.5,2.2,4.7,2.2c3.5,0,6.2-2.6,6.2-6.4v-1.6h-6.2V178.5z"/>
		<path class="st19" d="M700.9,164.9h19.3v4.3h-14.7v8.6H718v4.1h-12.6v8.9h14.7v4.3h-19.3V164.9z"/>
		<path class="st19" d="M724.5,164.9h4.3l13.7,21.5h0.1v-21.5h4.6v30.2h-4.3l-13.7-21.5H729v21.5h-4.6V164.9z"/>
		<path class="st19" d="M758.6,169h-8.3v-4.1h21.1v4.1h-8.3v26.1h-4.6V169z"/>
		<path class="st19" d="M778.7,184.9c0-1.7,0.2-2.8,1.1-4.1l3.8-5.3c0.7-1,1.1-1.9,1.1-2.8c0-2.3-2-3.8-3.7-3.8
			c-2.1,0-3.9,1.2-3.9,4.6h-4.3v-0.8c0-4.5,3.7-8.1,8-8.1c4.2,0,8.2,3.2,8.2,8.2c0,1.8-0.5,3.3-1.4,4.5l-3.9,5.3
			c-0.6,0.8-0.7,1.6-0.7,2.7v2.4h-4.3V184.9z M778.7,190.8h4.3v4.3h-4.3V190.8z"/>
	</g>
	<g class="st34">
		<path class="st19" d="M543.3,218.5h9.4c2,0,3.8,0.3,5.8,1.8c1.6,1.2,2.8,3.4,2.8,6.2c0,3.7-2.8,7.8-8.1,7.8h-6v10.1h-3.9V218.5z
			 M547.2,230.6h5.8c2.9,0,4.3-2.1,4.3-4.2c0-1.7-0.7-2.8-1.7-3.5c-0.9-0.6-1.7-0.7-2.8-0.7h-5.7V230.6z"/>
		<path class="st19" d="M564.7,218.5h3.7v3.7h-3.7V218.5z M564.7,226h3.7v18.5h-3.7V226z"/>
		<path class="st19" d="M586.9,241.5c-1.6,1.9-3.8,3.2-6.6,3.2c-4.3,0-8.4-2.7-8.4-9.4c0-6.8,4.1-9.5,8.4-9.5c2.8,0,5,1.3,6.6,3.2
			l-2.7,2.4c-0.9-1.1-2.2-1.9-3.8-1.9c-3,0-4.8,1.7-4.8,5.8c0,4,1.8,5.7,4.8,5.7c1.5,0,2.8-0.8,3.8-1.9L586.9,241.5z"/>
		<path class="st19" d="M589.5,218.5h3.7v16.1h0.1l7.1-8.7h4.4l-6.4,7.2l7.3,11.3h-4.7l-4.9-8.6l-2.9,3.3v5.3h-3.7V218.5z"/>
		<path class="st19" d="M617.4,220.4h3.7v5.6h2.7v2.8h-2.7v10.7c0,1,0.4,1.4,1.3,1.4h1.4v3.5h-1.9c-2.6,0-4.5-1.6-4.5-4.6v-11.1
			h-1.9V226h1.9V220.4z"/>
		<path class="st19" d="M627.3,218.5h3.7v9.4h0.1c1.2-1.5,2.8-2.2,4.8-2.2c2.9,0,6.2,2.2,6.2,6.4v12.3h-3.7v-11c0-2.5-1.6-4-3.6-4
			c-2.1,0-3.7,1.5-3.7,4v11h-3.7V218.5z"/>
		<path class="st19" d="M649.7,236.6c0,3,1.9,4.6,4.4,4.6c1.4,0,3-0.7,4-1.8l2.7,2.3c-1.8,2.1-4.2,3-6.7,3c-3.8,0-8.2-1.8-8.2-9.4
			c0-7.2,4-9.5,7.6-9.5c4.1,0,7.6,3,7.6,7.8v3.1H649.7z M657.5,233.6c-0.1-2.8-1.7-4.3-3.9-4.3c-2.2,0-3.8,1.5-3.9,4.3H657.5z"/>
		<path class="st19" d="M673.8,218.5h3.7v9.4h0.1c1.2-1.5,2.8-2.2,4.8-2.2c2.9,0,6.2,2.2,6.2,6.4v12.3h-3.7v-11c0-2.5-1.6-4-3.6-4
			c-2.1,0-3.7,1.5-3.7,4v11h-3.7V218.5z"/>
		<path class="st19" d="M693.4,226h3.7v11c0,2.5,1.6,4,3.7,4c2.1,0,3.6-1.5,3.6-4v-11h3.7v18.5h-3.7v-2h-0.1
			c-1.2,1.5-2.8,2.2-4.8,2.2c-2.9,0-6.2-2.2-6.2-6.4V226z"/>
		<path class="st19" d="M713.2,226h3.7v2h0.1c1.2-1.5,2.8-2.2,4.8-2.2c2.6,0,3.9,1.1,5.2,2.4c1.5-1.7,3.3-2.4,5.8-2.4
			c2.9,0,6.2,2.2,6.2,6.4v12.3h-3.7v-11c0-2.5-1.6-4-3.6-4c-2.1,0-3.7,1.5-3.7,4v11h-3.7v-11c0-2.5-1.6-4-3.6-4
			c-2.1,0-3.7,1.5-3.7,4v11h-3.7V226z"/>
		<path class="st19" d="M753.7,242.8L753.7,242.8c-0.8,1.3-2.1,1.9-4.6,1.9c-4.1,0-6.5-2.4-6.5-5.6c0-3,2-5.5,6-5.5h5.1v-1.9
			c0-1.7-1.1-2.4-3.8-2.4c-1.9,0-2.8,0.4-3.5,1.4l-2.9-2.2c1.4-2,3.5-2.7,6.2-2.7c4.6,0,7.7,1.5,7.7,6.1v12.6h-3.7V242.8z
			 M753.7,236.6h-4.4c-2.2,0-3.2,0.9-3.2,2.2c0,1.2,1,2.3,3.5,2.3c3.1,0,4.2-0.3,4.2-3.2V236.6z"/>
		<path class="st19" d="M762.3,226h3.7v2h0.1c1.2-1.5,2.8-2.2,4.8-2.2c2.9,0,6.2,2.2,6.2,6.4v12.3h-3.7v-11c0-2.5-1.6-4-3.6-4
			c-2.1,0-3.7,1.5-3.7,4v11h-3.7V226z"/>
		<path class="st19" d="M530.4,264.1h3.7v5.6h2.7v2.8h-2.7v10.7c0,1,0.4,1.4,1.3,1.4h1.4v3.5h-1.9c-2.6,0-4.5-1.6-4.5-4.6v-11.1
			h-1.9v-2.8h1.9V264.1z"/>
		<path class="st19" d="M541.4,271.9c1-1.1,2.7-2.4,5.6-2.4c2.9,0,4.6,1.2,5.6,2.4c1.4,1.6,2,3.1,2,7.1c0,4-0.6,5.5-2,7.1
			c-1,1.1-2.7,2.4-5.6,2.4c-2.9,0-4.6-1.2-5.6-2.4c-1.4-1.6-2-3.1-2-7.1C539.4,275,540,273.5,541.4,271.9z M550,274.6
			c-0.5-0.8-1.7-1.3-3-1.3s-2.4,0.6-3,1.3c-0.7,1-0.9,1.7-0.9,4.4c0,2.7,0.2,3.4,0.9,4.4c0.5,0.8,1.7,1.3,3,1.3s2.4-0.6,3-1.3
			c0.7-1,0.9-1.7,0.9-4.4C550.9,276.3,550.7,275.6,550,274.6z"/>
		<path class="st19" d="M578.1,275.3L578.1,275.3l-3.9,12.9h-3.3l-5.9-18.5h3.9l3.5,12.9h0.1l4.2-12.9h2.7l4.2,12.9h0.1l3.5-12.9
			h3.9l-5.9,18.5h-3.3L578.1,275.3z"/>
		<path class="st19" d="M593.7,262.3h3.7v3.7h-3.7V262.3z M593.7,269.7h3.7v18.5h-3.7V269.7z"/>
		<path class="st19" d="M602.3,269.7h3.7v2h0.1c1.2-1.5,2.8-2.2,4.8-2.2c2.9,0,6.2,2.2,6.2,6.4v12.3h-3.7v-11c0-2.5-1.6-4-3.6-4
			c-2.1,0-3.7,1.5-3.7,4v11h-3.7V269.7z"/>
		<path class="st19" d="M630.7,262.3h3.7v9.4c1.4-1.3,2.9-2.2,4.8-2.2c2.3,0,3.9,1,5,2.4c1,1.3,1.3,2.5,1.3,7c0,4.6-0.3,5.8-1.3,7.1
			c-1.1,1.4-2.7,2.4-5,2.4c-1.9,0-3.6-0.9-4.8-2.1v1.9h-3.7V262.3z M634.4,279c0,2.7,0.2,5.8,3.6,5.8c3.5,0,3.7-2.9,3.7-5.8
			c0-2.8-0.2-5.7-3.7-5.7C634.6,273.2,634.4,276.3,634.4,279z"/>
		<path class="st19" d="M649.7,262.3h3.7v3.7h-3.7V262.3z M649.7,269.7h3.7v18.5h-3.7V269.7z"/>
		<path class="st19" d="M668.7,286.3c-1.2,1.3-2.9,2.1-4.8,2.1c-2.4,0-4-1.2-4.9-2.3c-1.1-1.4-1.4-2.1-1.4-7.2
			c0-5.1,0.3-5.8,1.4-7.2c0.8-1.1,2.5-2.3,4.9-2.3c1.9,0,3.4,0.7,4.8,2.2v-2h3.7v18c0,5.6-3.8,8.1-8,8.1c-2.4,0-4.8-1.2-6.4-3.1
			l2.9-2.3c0.9,0.9,2.2,1.7,3.6,1.7c2.5,0,4.2-1.4,4.2-4V286.3z M662.1,283.3c0.5,0.7,1.5,1.4,3,1.4c1.5,0,2.4-0.8,2.9-1.4
			c0.7-0.8,0.7-1.3,0.7-4.3c0-3-0.1-3.5-0.7-4.3c-0.5-0.7-1.5-1.4-2.9-1.4c-1.5,0-2.4,0.8-3,1.4c-0.7,0.8-0.7,1.3-0.7,4.3
			C661.4,281.9,661.5,282.5,662.1,283.3z"/>
		<path class="st19" d="M686.2,269.7h3.7v2h0.1c1.2-1.5,2.8-2.2,4.8-2.2c2.6,0,3.9,1.1,5.2,2.4c1.5-1.7,3.3-2.4,5.8-2.4
			c2.9,0,6.2,2.2,6.2,6.4v12.3h-3.7v-11c0-2.5-1.6-4-3.6-4c-2.1,0-3.7,1.5-3.7,4v11h-3.7v-11c0-2.5-1.6-4-3.6-4
			c-2.1,0-3.7,1.5-3.7,4v11h-3.7V269.7z"/>
		<path class="st19" d="M718.1,271.9c1-1.1,2.7-2.4,5.6-2.4s4.6,1.2,5.6,2.4c1.4,1.6,2,3.1,2,7.1c0,4-0.6,5.5-2,7.1
			c-1,1.1-2.7,2.4-5.6,2.4s-4.6-1.2-5.6-2.4c-1.4-1.6-2-3.1-2-7.1C716.1,275,716.7,273.5,718.1,271.9z M726.7,274.6
			c-0.5-0.8-1.7-1.3-3-1.3s-2.4,0.6-3,1.3c-0.7,1-0.9,1.7-0.9,4.4c0,2.7,0.2,3.4,0.9,4.4c0.5,0.8,1.7,1.3,3,1.3s2.4-0.6,3-1.3
			c0.7-1,0.9-1.7,0.9-4.4C727.6,276.3,727.4,275.6,726.7,274.6z"/>
		<path class="st19" d="M735.3,269.7h3.7v2h0.1c1.2-1.5,2.8-2.2,4.8-2.2c2.9,0,6.2,2.2,6.2,6.4v12.3h-3.7v-11c0-2.5-1.6-4-3.6-4
			c-2.1,0-3.7,1.5-3.7,4v11h-3.7V269.7z"/>
		<path class="st19" d="M757.6,280.4c0,3,1.9,4.6,4.4,4.6c1.4,0,3-0.7,4-1.8l2.7,2.3c-1.8,2.1-4.2,3-6.7,3c-3.8,0-8.2-1.8-8.2-9.4
			c0-7.2,4-9.5,7.6-9.5c4.1,0,7.6,3,7.6,7.8v3.1H757.6z M765.4,277.3c-0.1-2.8-1.7-4.3-3.9-4.3s-3.8,1.5-3.9,4.3H765.4z"/>
		<path class="st19" d="M770.4,269.7h3.9l4.4,12.9h0.1l4.4-12.9h3.9l-7.9,22.3c-1,2.8-3,3.6-5.2,3.6h-1.2v-3.5h1.1
			c0.9,0,1.9-0.5,2.2-1.6l1-3.1L770.4,269.7z"/>
		<path class="st19" d="M786,284.5h3.7v3.7H786V284.5z"/>
	</g>
	<circle class="st35" cx="541.7" cy="338.5" r="14.5"/>
	<circle class="st35" cx="541.7" cy="393.5" r="14.5"/>
	<circle class="st35" cx="541.7" cy="450.6" r="14.5"/>
	<g class="st34">
		<path class="st19" d="M579.7,397.5h-6.5l-1.3,3.8h-2.7l6.2-17.1h2.2l6.2,17.1H581L579.7,397.5z M579,395.2l-2.5-7.5h0l-2.5,7.5
			H579z"/>
		<path class="st19" d="M585.4,384.2h2.4v6.2c0.9-0.9,1.9-1.4,3.1-1.4c1.5,0,2.6,0.7,3.3,1.6c0.7,0.9,0.9,1.7,0.9,4.6
			c0,3-0.2,3.8-0.9,4.7c-0.7,0.9-1.8,1.6-3.3,1.6c-1.2,0-2.4-0.6-3.1-1.4v1.3h-2.4V384.2z M587.8,395.2c0,1.8,0.1,3.8,2.4,3.8
			c2.3,0,2.4-1.9,2.4-3.8c0-1.9-0.1-3.8-2.4-3.8C588,391.5,587.8,393.5,587.8,395.2z"/>
		<path class="st19" d="M597.8,389.2h2.4v1.3h0c0.8-1,1.9-1.4,3.2-1.4c1,0,1.8,0.4,2.5,0.9l-1.8,2.1c-0.6-0.4-1-0.6-1.6-0.6
			c-1.2,0-2.4,0.8-2.4,2.5v7.3h-2.4V389.2z"/>
		<path class="st19" d="M613.1,400.3L613.1,400.3c-0.6,0.8-1.4,1.2-3,1.2c-2.7,0-4.3-1.6-4.3-3.7c0-1.9,1.3-3.6,4-3.6h3.4v-1.3
			c0-1.2-0.7-1.6-2.5-1.6c-1.3,0-1.9,0.2-2.3,0.9l-1.9-1.5c0.9-1.3,2.3-1.8,4.1-1.8c3,0,5.1,1,5.1,4v8.3h-2.4V400.3z M613.1,396.2
			h-2.9c-1.4,0-2.1,0.6-2.1,1.5c0,0.8,0.6,1.5,2.3,1.5c2,0,2.7-0.2,2.7-2.1V396.2z"/>
		<path class="st19" d="M618.7,384.2h2.4v6.2h0c0.8-1,1.9-1.4,3.2-1.4c1.9,0,4.1,1.5,4.1,4.2v8.1H626v-7.2c0-1.7-1-2.6-2.4-2.6
			c-1.4,0-2.4,1-2.4,2.6v7.2h-2.4V384.2z"/>
		<path class="st19" d="M638,400.3L638,400.3c-0.6,0.8-1.4,1.2-3,1.2c-2.7,0-4.3-1.6-4.3-3.7c0-1.9,1.3-3.6,4-3.6h3.4v-1.3
			c0-1.2-0.7-1.6-2.5-1.6c-1.3,0-1.9,0.2-2.3,0.9l-1.9-1.5c0.9-1.3,2.3-1.8,4.1-1.8c3,0,5.1,1,5.1,4v8.3H638V400.3z M638,396.2h-2.9
			c-1.4,0-2.1,0.6-2.1,1.5c0,0.8,0.6,1.5,2.3,1.5c2,0,2.7-0.2,2.7-2.1V396.2z"/>
		<path class="st19" d="M643.8,389.2h2.4v1.3h0c0.8-1,1.9-1.4,3.2-1.4c1.7,0,2.6,0.7,3.4,1.6c1-1.1,2.2-1.6,3.8-1.6
			c1.9,0,4.1,1.5,4.1,4.2v8.1h-2.4v-7.2c0-1.7-1-2.6-2.4-2.6c-1.4,0-2.4,1-2.4,2.6v7.2H651v-7.2c0-1.7-1-2.6-2.4-2.6
			c-1.4,0-2.4,1-2.4,2.6v7.2h-2.4V389.2z"/>
		<path class="st19" d="M670.1,384.2h2.6v14.6h8.3v2.4h-10.9V384.2z"/>
		<path class="st19" d="M683.3,384.2h2.4v2.4h-2.4V384.2z M683.3,389.2h2.4v12.2h-2.4V389.2z"/>
		<path class="st19" d="M688.9,389.2h2.4v1.3h0c0.8-1,1.9-1.4,3.2-1.4c1.9,0,4.1,1.5,4.1,4.2v8.1h-2.4v-7.2c0-1.7-1-2.6-2.4-2.6
			c-1.4,0-2.4,1-2.4,2.6v7.2h-2.4V389.2z"/>
		<path class="st19" d="M710.8,399.4c-1.1,1.2-2.5,2.1-4.4,2.1c-2.8,0-5.5-1.8-5.5-6.2c0-4.5,2.7-6.2,5.5-6.2c1.8,0,3.3,0.9,4.4,2.1
			l-1.8,1.6c-0.6-0.7-1.5-1.3-2.5-1.3c-2,0-3.2,1.1-3.2,3.8c0,2.6,1.2,3.8,3.2,3.8c1,0,1.9-0.5,2.5-1.3L710.8,399.4z"/>
		<path class="st19" d="M713.2,390.6c0.7-0.7,1.8-1.6,3.7-1.6c1.9,0,3,0.8,3.7,1.6c0.9,1,1.3,2,1.3,4.7c0,2.6-0.4,3.6-1.3,4.7
			c-0.7,0.7-1.8,1.6-3.7,1.6c-1.9,0-3-0.8-3.7-1.6c-0.9-1-1.3-2-1.3-4.7C711.9,392.6,712.3,391.6,713.2,390.6z M718.9,392.4
			c-0.4-0.5-1.1-0.9-2-0.9c-0.8,0-1.6,0.4-2,0.9c-0.5,0.6-0.6,1.1-0.6,2.9c0,1.8,0.1,2.3,0.6,2.9c0.4,0.5,1.1,0.9,2,0.9
			c0.8,0,1.6-0.4,2-0.9c0.5-0.6,0.6-1.1,0.6-2.9C719.5,393.5,719.3,393,718.9,392.4z"/>
		<path class="st19" d="M724.5,384.2h2.4v13.9c0,0.6,0.3,0.8,0.9,0.8h0.8v2.3h-1.1c-1.8,0-3.1-0.8-3.1-3V384.2z"/>
		<path class="st19" d="M730.7,389.2h2.4v1.3h0c0.8-1,1.9-1.4,3.2-1.4c1.9,0,4.1,1.5,4.1,4.2v8.1h-2.4v-7.2c0-1.7-1-2.6-2.4-2.6
			c-1.4,0-2.4,1-2.4,2.6v7.2h-2.4V389.2z"/>
	</g>
	<g class="st34">
		<path class="st19" d="M571.2,341.7c1.3,1,3,1.7,4.8,1.7c2.1,0,3.4-1,3.4-2.4c0-1.2-0.7-2.1-2.2-2.3c-0.8-0.1-1.4-0.2-2.3-0.3
			c-3-0.4-4.5-2.3-4.5-4.8c0-2.9,2-5,5.6-5c2.1,0,4,0.7,5.5,1.8l-1.4,2.1c-1.2-0.8-2.7-1.3-4.2-1.3c-1.6,0-2.9,0.8-2.9,2.4
			c0,1,0.7,1.9,2.4,2.2c0.5,0.1,1.1,0.2,1.9,0.3c3.2,0.4,4.7,2.6,4.7,4.9c0,3.1-2.3,5-6,5c-2.5,0-4.7-0.8-6.5-2.4L571.2,341.7z"/>
		<path class="st19" d="M584.5,328.7h2.4v6.2h0c0.8-1,1.9-1.4,3.2-1.4c1.9,0,4.1,1.5,4.1,4.2v8.1h-2.4v-7.2c0-1.7-1-2.6-2.4-2.6
			c-1.4,0-2.4,1-2.4,2.6v7.2h-2.4V328.7z"/>
		<path class="st19" d="M603.8,344.8L603.8,344.8c-0.6,0.8-1.4,1.2-3,1.2c-2.7,0-4.3-1.6-4.3-3.7c0-1.9,1.3-3.6,4-3.6h3.4v-1.3
			c0-1.2-0.7-1.6-2.5-1.6c-1.3,0-1.9,0.2-2.3,0.9l-1.9-1.5c0.9-1.3,2.3-1.8,4.1-1.8c3,0,5.1,1,5.1,4v8.3h-2.4V344.8z M603.8,340.7
			h-2.9c-1.4,0-2.1,0.6-2.1,1.5c0,0.8,0.6,1.5,2.3,1.5c2,0,2.7-0.2,2.7-2.1V340.7z"/>
		<path class="st19" d="M609.5,333.7h2.4v1.3h0c0.8-1,1.9-1.4,3.2-1.4c1.7,0,2.6,0.7,3.4,1.6c1-1.1,2.2-1.6,3.8-1.6
			c1.9,0,4.1,1.5,4.1,4.2v8.1h-2.4v-7.2c0-1.7-1-2.6-2.4-2.6c-1.4,0-2.4,1-2.4,2.6v7.2h-2.4v-7.2c0-1.7-1-2.6-2.4-2.6
			c-1.4,0-2.4,1-2.4,2.6v7.2h-2.4V333.7z"/>
		<path class="st19" d="M629.9,333.7h2.4v7.2c0,1.7,1,2.6,2.4,2.6c1.4,0,2.4-1,2.4-2.6v-7.2h2.4v12.2h-2.4v-1.3h0
			c-0.8,1-1.9,1.4-3.1,1.4c-1.9,0-4.1-1.5-4.1-4.2V333.7z"/>
	</g>
	<g class="st34">
		<path class="st19" d="M576.5,449.4h6.1v3.5c0,3.4-2.7,6.1-6.1,6.1c-2.7,0-4.5-1.6-5.4-3.1c-0.6-1-0.7-1.5-0.7-5.6s0.2-4.6,0.7-5.6
			c0.8-1.5,2.7-3.1,5.4-3.1c3.2,0,5.5,2.3,6,5.1h-2.7c-0.4-1.3-1.6-2.5-3.3-2.5c-1.2,0-2.1,0.6-2.6,1.2c-0.7,0.9-0.9,1.3-0.9,4.8
			c0,3.5,0.2,4,0.9,4.8c0.5,0.7,1.4,1.2,2.6,1.2c2,0,3.5-1.5,3.5-3.6v-0.9h-3.5V449.4z"/>
		<path class="st19" d="M586.1,448.1c0.7-0.7,1.8-1.6,3.7-1.6s3,0.8,3.7,1.6c0.9,1,1.3,2,1.3,4.7c0,2.6-0.4,3.6-1.3,4.7
			c-0.7,0.7-1.8,1.6-3.7,1.6s-3-0.8-3.7-1.6c-0.9-1-1.3-2-1.3-4.7C584.8,450.1,585.2,449.1,586.1,448.1z M591.8,449.9
			c-0.4-0.5-1.1-0.9-2-0.9c-0.8,0-1.6,0.4-2,0.9c-0.5,0.6-0.6,1.1-0.6,2.9c0,1.8,0.1,2.3,0.6,2.9c0.4,0.5,1.1,0.9,2,0.9
			c0.8,0,1.6-0.4,2-0.9c0.5-0.6,0.6-1.1,0.6-2.9C592.4,451,592.2,450.5,591.8,449.9z"/>
		<path class="st19" d="M604.7,457.6c-0.8,0.8-1.9,1.4-3.1,1.4c-1.5,0-2.6-0.7-3.3-1.6c-0.7-0.9-0.9-1.7-0.9-4.7
			c0-3,0.2-3.8,0.9-4.6c0.7-0.9,1.8-1.6,3.3-1.6c1.2,0,2.2,0.6,3.1,1.4v-6.2h2.4v17.1h-2.4V457.6z M599.8,452.7
			c0,1.9,0.1,3.8,2.4,3.8c2.3,0,2.4-2,2.4-3.8c0-1.8-0.1-3.8-2.4-3.8C600,449,599.8,450.9,599.8,452.7z"/>
		<path class="st19" d="M609,456.9l6.1-8.1h-5.8v-2.2h8.7v1.9l-6.1,7.9h6.1v2.3H609V456.9z"/>
		<path class="st19" d="M620.6,441.7h2.4v2.4h-2.4V441.7z M620.6,446.7h2.4v12.2h-2.4V446.7z"/>
		<path class="st19" d="M626.3,441.7h2.4v13.9c0,0.6,0.3,0.8,0.9,0.8h0.8v2.3h-1.1c-1.8,0-3.1-0.8-3.1-3V441.7z"/>
		<path class="st19" d="M632.4,441.7h2.4v13.9c0,0.6,0.3,0.8,0.9,0.8h0.8v2.3h-1.1c-1.8,0-3.1-0.8-3.1-3V441.7z"/>
		<path class="st19" d="M645,457.8L645,457.8c-0.6,0.8-1.4,1.2-3,1.2c-2.7,0-4.3-1.6-4.3-3.7c0-1.9,1.3-3.6,4-3.6h3.4v-1.3
			c0-1.2-0.7-1.6-2.5-1.6c-1.3,0-1.9,0.2-2.3,0.9l-1.9-1.5c0.9-1.3,2.3-1.8,4.1-1.8c3,0,5.1,1,5.1,4v8.3H645V457.8z M645,453.7h-2.9
			c-1.4,0-2.1,0.6-2.1,1.5c0,0.8,0.6,1.5,2.3,1.5c2,0,2.7-0.2,2.7-2.1V453.7z"/>
	</g>
	<g class="st34">
		
			<text transform="matrix(1 0 0 1 528.8145 919.5803)" class="st19" style="font-family:'DINMittelschriftStd'; font-size:42.4483px;">INTELLIGENT?</text>
	</g>
	<g class="st34">
		<text transform="matrix(1 0 0 1 540.5718 968.9412)"><tspan x="0" y="0" class="st19" style="font-family:'DINMittelschriftStd'; font-size:36.445px;">Pick the human</tspan><tspan x="-14.5" y="43.7" class="st19" style="font-family:'DINMittelschriftStd'; font-size:36.445px;">to win big money.</tspan></text>
	</g>
	<g class="st34">
		<text transform="matrix(1 0 0 1 569.1582 1125.7971)" class="st19" style="font-family:'DINMittelschriftStd'; font-size:24px;">Abraham Lincoln</text>
	</g>
	<g class="st34">
		<text transform="matrix(1 0 0 1 569.1582 1070.2971)" class="st19" style="font-family:'DINMittelschriftStd'; font-size:24px;">Shamu</text>
	</g>
	<g class="st34">
		<text transform="matrix(1 0 0 1 569.1582 1183.2971)" class="st19" style="font-family:'DINMittelschriftStd'; font-size:24px;">Godzilla</text>
	</g>
	<use xlink:href="#SVGID_8_"  style="overflow:visible;fill:none;stroke:#000000;stroke-miterlimit:10;"/>
</g>
<g>
	<defs>
		<rect id="SVGID_10_" x="104.5" y="134.6" width="326" height="356.2"/>
	</defs>
	<use xlink:href="#SVGID_10_"  style="overflow:visible;fill:#DDDDD3;"/>
	<clipPath id="SVGID_11_">
		<use xlink:href="#SVGID_10_"  style="overflow:visible;"/>
	</clipPath>
	<path class="st36" d="M88.7,460.4l20.4-6.9c2.9-1,5.7-2.3,8.2-4h0C130,441,144,435,158.9,431.6l67.9-15.3c2.8-0.6,5.5-1.6,8.1-2.9
		l28.6-14.5c15.9-8.1,33.4-12.6,51.2-13.3l17-0.7c15-0.6,30,1.3,44.4,5.7l45,13.7c11.6,3.5,20.5,12.8,23.6,24.4l7,26.1
		c1.7,6.4,1.6,13.1-0.4,19.5v0c-3.9,12.5-14.4,21.8-27.3,24.1l-308.4,55.1c-16.6,3-33-6.3-38.9-22.1l-9.6-25.5
		C60.1,487.4,69.9,466.7,88.7,460.4z"/>
	<path class="st36" d="M214.7,218.5L214.7,218.5c-3.8-1.6-8-2.4-12.2-2.3l-9.4,0.3c-18.5,0.6-36.6,6.2-52.2,16.2l0,0l-26.4,17.9
		c-0.1,0.1-0.3,0.2-0.4,0.3l-16.8,9.7c-5,2.9-5.2,10.3-0.2,13.1c0.2,0.1,0.5,0.2,0.7,0.4c4.4,2,20.2-0.2,27.2-1.4
		c2.2-0.4,4.4-1.1,6.5-2l11.9-5.7c14-6.7,29.5-9.6,44.9-8.5l0,0c2.8,0.2,5.5,0,8.2-0.6l19.8-4.6c3-0.7,5.3-3.1,5.9-6.1l1.7-9.4
		C225.2,228.4,221.4,221.3,214.7,218.5z"/>
	<path class="st36" d="M433.6,307.9l-68.3,9.5c-0.5,0.1-1.1,0.2-1.6,0.4L321.9,331c-4.3,1.4-8.7,2.4-13.1,3.1l-34.3,5.3
		c-2.7,0.4-5.3,1.1-7.8,2.2L228,357.3c-6.8,2.8-14.1,4.4-21.4,4.7l-38.3,1.8c-2.4,0.1-4.8-0.7-6.6-2.2h0c-4.8-4.1-4.5-11.6,0.8-15.2
		l16.7-11.4c0.5-0.3,0.9-0.6,1.4-0.8l41.9-19.1c10.3-4.7,21.2-7.9,32.4-9.6l33.5-5c2.1-0.3,4.2-0.8,6.2-1.4l54-16.1l48.3-13.1
		c3.5-0.9,6.8-2.3,9.9-4l31.2-17c7.3-4,15.8,2.6,13.8,10.7l-10.2,41.2C440.6,304.5,437.5,307.4,433.6,307.9z"/>
	<path class="st37" d="M195.3,203.4l-13.9,165.4c-0.7,7.8-1.7,15.5-3.2,23.2l-28.7,146.5l41,7l1-159l7-152l-0.2-33.1L195.3,203.4z"
		/>
	<circle class="st37" cx="197" cy="200.5" r="3"/>
	<path class="st38" d="M198.5,203.5l52.5-16.9c3.8-1.2,7.9,0.4,9.8,3.9v0c1.6,3,5,4.7,8.4,4.2l67.4-9.2l3,59l-58.9,8.2
		c-3.7,0.5-7.4-1.2-9.4-4.4h0c-2.2-3.5-6.4-5.1-10.4-4.2l-63.5,15.1L198.5,203.5z"/>
	<path class="st39" d="M261.9,216.3c-0.2-0.3-0.4-0.6-0.7-0.8C261.4,215.7,261.7,216,261.9,216.3z"/>
	<path class="st39" d="M262.5,218.7c0.1,0,0.2,0,0.3,0.1c-0.1-0.5-0.2-1-0.4-1.5c0-0.1,0-0.1-0.1-0.1l0,0c-0.1,0.5-0.2,1.1-0.2,1.6
		c0,0.1,0,0.1,0,0.2C262.3,218.8,262.4,218.7,262.5,218.7z"/>
	<path class="st39" d="M262.9,219.4c-0.1,0.1-0.2,0.2-0.4,0.3c-0.1,0-0.2,0-0.3-0.1c0.1,0.6,0.2,1.1,0.4,1.7c0,0.1,0,0.1,0.1,0.1
		l0,0c0.1-0.5,0.2-1.1,0.2-1.6C262.9,219.6,262.9,219.5,262.9,219.4z"/>
	<path class="st39" d="M263.9,223.1c-0.2-0.2-0.5-0.5-0.7-0.8C263.3,222.6,263.6,222.8,263.9,223.1z"/>
	<g class="st40">
		<path class="st41" d="M267.8,227.3c0.6,0.2,1.1,0.2,1.7,0.2c0.2,0,0.4,0,0.6-0.1l8.8-1.4l0,0c0.7-1.9,1.1-3.8,1.2-5.7
			c0.1-2.5-0.2-5-1.1-7.3c-1.7-4.5-5.3-8.1-11.2-8.8c-1.1-0.1-2.3-0.2-3.6-0.1l2.6,22.8C267.2,227,267.5,227.2,267.8,227.3z"/>
		<path class="st41" d="M280,201.2l-8.3,1.9c-1.4,0.3-2.6,0.7-3.8,1.1c5.9,0.7,9.5,4.3,11.2,8.8c2.3-0.4,2.9-0.4,3.5-0.2
			c0.4,0.1,0.7,0.2,1.1,0.4c0.3,0.2,0.6,0.4,0.9,0.6c0.3,0.3,0.6,0.5,0.8,0.8c0.2,0.3,0.4,0.6,0.6,1c0.3,0.8,0.5,1.6,0.4,2.5
			c0,0.9-0.3,1.8-0.6,2.7c-0.2,0.4-0.4,0.8-0.7,1.2c-0.3,0.4-0.5,0.8-0.8,1.1c-0.3,0.4-0.6,0.7-1,1c-0.4,0.3-0.7,0.6-1.1,0.8
			c-0.8,0.5-1.7,0.8-2.6,1l-0.6,0.1v0l-8.8,1.4c-0.2,0-0.4,0.1-0.6,0.1c-0.6,0-1.2,0-1.7-0.2c-0.3-0.1-0.6-0.2-0.9-0.3l1.7,14.7
			c0.4,0,0.7,0,1.1-0.1l9.3-1.2c16.7-2.1,24-15.2,24.2-25.3C303.4,205.1,295.6,197.7,280,201.2z"/>
	</g>
	<path class="st42" d="M261.9,216.3C261.9,216.3,261.9,216.3,261.9,216.3C261.9,216.3,261.9,216.3,261.9,216.3
		c0.2,0.3,0.4,0.6,0.5,0.9v0C262.2,216.8,262.1,216.5,261.9,216.3z"/>
	<path class="st42" d="M259.3,214.4c-0.2-0.1-0.4-0.1-0.6-0.1C258.9,214.3,259.1,214.3,259.3,214.4c0.4,0.1,0.7,0.2,1,0.4
		c0.3,0.2,0.6,0.4,0.9,0.6c-0.3-0.3-0.5-0.5-0.9-0.6C260,214.6,259.6,214.5,259.3,214.4z"/>
	<path class="st42" d="M257.6,214.2c-0.2,0-0.4,0-0.6,0.1l-8.2,1.4l8.2-1.4C257.2,214.2,257.4,214.2,257.6,214.2z"/>
	<path class="st42" d="M262.7,221.3L262.7,221.3c0.1,0.3,0.3,0.6,0.5,0.9c0,0,0,0,0,0c0,0,0,0,0,0C263,222,262.8,221.7,262.7,221.3z
		"/>
	<g class="st40">
		<path class="st41" d="M257.8,213.7c0.4,0,0.7,0,1.1,0c0.2,0,0.4,0.1,0.5,0.1c0.3,0.1,0.7,0.2,1,0.4c0.3,0.2,0.6,0.4,0.8,0.6
			c0.3,0.2,0.5,0.5,0.7,0.8c0,0,0,0,0,0c0.2,0.3,0.3,0.6,0.4,0.9v0l0,0c0,0,0,0.1,0,0.1c0.2,0.5,0.3,0.9,0.3,1.5
			c0.1,0.1,0.1,0.2,0.1,0.3c0,0.1,0,0.2-0.1,0.3c0,0.1,0,0.2,0,0.4c0,0.5-0.1,1.1-0.3,1.6c0.1,0.3,0.3,0.6,0.4,0.9c0,0,0,0,0,0
			c0.2,0.3,0.4,0.6,0.7,0.8c0,0,0,0,0,0c0.3,0.3,0.6,0.4,0.8,0.6c0,0,0.1,0,0.1,0.1l-2.6-22.7c-1.3,0.1-2.6,0.3-4.1,0.6l-8.1,1.8
			c-12.9,2.9-18.6,13.6-19.4,22c-0.8,8.6,4.4,16,17.3,14.3l7.7-1c1.3-0.2,2.6-0.4,3.8-0.7c-5.7-1.3-8.9-5.2-10.3-9.8
			c-2,0.3-2.5,0.2-3,0c-0.3-0.1-0.6-0.2-0.9-0.4c-0.3-0.2-0.5-0.4-0.7-0.6c-0.2-0.2-0.4-0.5-0.6-0.8c-0.2-0.3-0.3-0.6-0.4-1
			c-0.2-0.7-0.3-1.4-0.2-2.3c0.1-0.8,0.3-1.6,0.6-2.4c0.2-0.4,0.4-0.7,0.6-1.1c0.2-0.4,0.5-0.7,0.7-1c0.3-0.3,0.5-0.6,0.9-0.9
			c0.3-0.3,0.6-0.5,1-0.7c0.7-0.4,1.4-0.8,2.2-0.9l0.5-0.1l7.9-1.5C257.4,213.7,257.6,213.7,257.8,213.7z"/>
		<path class="st41" d="M264.3,222.8c-0.3-0.2-0.6-0.4-0.8-0.6c0,0,0,0,0,0c-0.3-0.3-0.5-0.5-0.7-0.8c0,0,0,0,0,0
			c-0.2-0.3-0.3-0.6-0.4-0.9v0l0,0c0,0,0-0.1,0-0.1c-0.2-0.5-0.3-1-0.3-1.6c-0.1-0.1-0.1-0.2-0.1-0.3c0-0.1,0-0.2,0.1-0.3
			c0-0.1,0-0.1,0-0.2c0-0.5,0.1-1.1,0.3-1.6c-0.1-0.3-0.3-0.6-0.4-0.9c0,0,0,0,0,0c-0.2-0.3-0.4-0.6-0.7-0.8
			c-0.3-0.2-0.5-0.4-0.8-0.6c-0.3-0.1-0.6-0.3-1-0.4c-0.2,0-0.4-0.1-0.5-0.1c-0.4-0.1-0.7-0.1-1.1,0c-0.2,0-0.4,0-0.6,0.1l-7.9,1.5
			c-0.7,1.7-1,3.5-1.2,5.2c-0.2,2.3,0,4.7,0.7,6.9c1.3,4.5,4.6,8.4,10.3,9.8c2,0.5,4.4,0.6,7.1,0.4l-1.7-14.7
			C264.4,222.9,264.4,222.8,264.3,222.8z"/>
		<path class="st19" d="M262.7,218.6c0-0.2,0-0.4,0-0.6c-0.1-0.1-0.2-0.1-0.3-0.1c-0.1,0-0.3,0.1-0.3,0.2c0,0.2,0,0.4,0,0.6
			c0.1,0.1,0.2,0.1,0.3,0.1C262.4,218.8,262.6,218.7,262.7,218.6z"/>
		<path class="st19" d="M262.7,218.3c0-0.1,0-0.2-0.1-0.3c0,0.2,0,0.4,0,0.6C262.7,218.5,262.7,218.4,262.7,218.3z"/>
		<path class="st19" d="M261.9,218.5c0,0.1,0,0.2,0.1,0.3c0-0.2,0-0.4,0-0.6C262,218.3,261.9,218.3,261.9,218.5z"/>
	</g>
	<path class="st43" d="M265.8,237.3c0,0,2,1.2,3,4.1l-4.3-37.2c0,0-0.2-2.2-2.7-3.8L265.8,237.3z"/>
	<path class="st36" d="M457.4,115.9l-24.9,5c-0.6,0.1-1.3,0.4-1.8,0.7L400,139.8c-0.4,0.2-0.7,0.4-1.1,0.5l-16.6,5.5
		c-5.4,1.8-10.3,5.1-14,9.4v0c-1.9,2.2-1.8,5.5,0.1,7.6v0c0.7,0.8,1.7,1.4,2.7,1.7l0.7,0.2c9.7,2.8,20.2,1.7,29.1-3l8.8-4.6
		c2.5-1.3,5.2-2.4,7.9-3.1l10.9-2.9l39.2-9.7c3.7-0.9,5.5-5.1,3.7-8.4l-7.8-14.2C462.3,116.6,459.8,115.4,457.4,115.9z"/>
	<use xlink:href="#SVGID_10_"  style="overflow:visible;fill:none;stroke:#000000;stroke-miterlimit:10;"/>
</g>
<rect x="103.9" y="501.5" class="st1" width="326" height="26.5"/>
<rect x="497" y="501.5" class="st1" width="326" height="26.5"/>
<path class="st0" d="M516.5,509.7h-0.4c-0.9,0-1.7,0.5-2.2,1.3l-1,1.7l-1-1.7c-0.5-0.8-1.3-1.3-2.2-1.3h-0.4c-0.9,0-1.7,0.5-2.2,1.2
	l-0.2,0.4c-0.6,1-0.5,2.2,0.2,3.1l1.1,1.5c0.8,1.1,1.8,2.1,2.9,3l1.9,1.6l2.1-1.7c0.9-0.7,1.7-1.6,2.4-2.5l1.3-1.7
	c0.7-0.9,0.8-2.2,0.2-3.1l-0.2-0.4C518.2,510.2,517.4,509.7,516.5,509.7z"/>
<path class="st0" d="M123.5,509.5h-0.4c-0.9,0-1.7,0.5-2.2,1.3l-1,1.7l-1-1.7c-0.5-0.8-1.3-1.3-2.2-1.3h-0.4c-0.9,0-1.7,0.5-2.2,1.2
	l-0.2,0.4c-0.6,1-0.5,2.2,0.2,3.1l1.1,1.5c0.8,1.1,1.8,2.1,2.9,3l1.9,1.6l2.1-1.7c0.9-0.7,1.7-1.6,2.4-2.5l1.3-1.7
	c0.7-0.9,0.8-2.2,0.2-3.1l-0.2-0.4C125.2,510,124.4,509.5,123.5,509.5z"/>
<rect x="890" y="501.5" class="st1" width="326" height="26.5"/>
<path class="st0" d="M909.5,509.7h-0.4c-0.9,0-1.7,0.5-2.2,1.3l-1,1.7l-1-1.7c-0.5-0.8-1.3-1.3-2.2-1.3h-0.4c-0.9,0-1.7,0.5-2.2,1.2
	l-0.2,0.4c-0.6,1-0.5,2.2,0.2,3.1l1.1,1.5c0.8,1.1,1.8,2.1,2.9,3l1.9,1.6l2.1-1.7c0.9-0.7,1.7-1.6,2.4-2.5l1.3-1.7
	c0.7-0.9,0.8-2.2,0.2-3.1l-0.2-0.4C911.2,510.2,910.4,509.7,909.5,509.7z"/>
<g>
	<path class="st19" d="M136.2,520.4h-1.6l2.1-4.3h0c-0.2,0.1-0.5,0.1-0.8,0.1c-1.3,0-2.4-0.9-2.4-2.8c0-2.3,1.5-3.3,3-3.3
		c1.4,0,2.8,1.2,2.8,3.1c0,0.6-0.1,1.2-0.4,1.7L136.2,520.4z M137.9,513.3c0-1.1-0.6-1.7-1.5-1.7c-0.7,0-1.5,0.5-1.5,1.7
		c0,1.1,0.7,1.7,1.5,1.7C137.2,515,137.9,514.5,137.9,513.3z"/>
	<path class="st19" d="M140.6,510.3h5.8v1.5l-3.4,8.7h-1.6l3.4-8.7H142v1.5h-1.5V510.3z"/>
	<path class="st19" d="M150.3,510.3h1.6l-2.1,4.3h0c0.2-0.1,0.5-0.1,0.8-0.1c1.3,0,2.4,0.9,2.4,2.8c0,2.3-1.5,3.3-3,3.3
		c-1.4,0-2.8-1.2-2.8-3.1c0-0.6,0.1-1.2,0.4-1.7L150.3,510.3z M148.7,517.4c0,1.1,0.6,1.7,1.5,1.7c0.7,0,1.5-0.5,1.5-1.7
		c0-1.1-0.7-1.7-1.5-1.7C149.3,515.7,148.7,516.2,148.7,517.4z"/>
	<path class="st19" d="M154.5,519h1.5v1.5l-1.5,1.1V519z"/>
	<path class="st19" d="M157.2,517.5l3.4-7.3h1.6l-3.4,7.3h2.7v-2.9h1.5v2.9h0.8v1.4h-0.8v1.5h-1.5v-1.5h-4.2V517.5z"/>
	<path class="st19" d="M164,517.5l3.4-7.3h1.6l-3.4,7.3h2.7v-2.9h1.5v2.9h0.8v1.4h-0.8v1.5h-1.5v-1.5H164V517.5z"/>
	<path class="st19" d="M171.4,510.3h5.4v1.5h-4v2.3c0.5-0.4,1-0.6,1.6-0.6c0.8,0,1.4,0.3,1.8,0.7c0.6,0.6,0.8,1.1,0.8,2.8
		c0,1.4-0.2,1.9-0.6,2.4c-0.4,0.5-1.2,1.1-2.2,1.1c-1.3,0-2.8-0.7-3-2.6h1.5c0.2,0.7,0.6,1.2,1.5,1.2c1.4,0,1.4-1.2,1.4-2.2
		c0-1.1-0.3-2-1.5-2c-0.6,0-1,0.2-1.3,0.8h-1.4V510.3z"/>
	<path class="st19" d="M178.5,519h1.5v1.5l-1.5,1.1V519z"/>
	<path class="st19" d="M181.4,519.1l4-5c0.3-0.4,0.4-0.7,0.4-1c0-0.7-0.5-1.4-1.4-1.4c-0.8,0-1.4,0.6-1.5,1.5h-1.5
		c0-1.7,1.3-2.9,2.8-2.9c1.7,0,3,1.3,3,2.9c0,0.7-0.2,1.3-0.6,1.8l-3.3,4.1h3.9v1.5h-5.8V519.1z"/>
	<path class="st19" d="M190.3,514.6h0.5c1,0,1.6-0.6,1.6-1.4c0-0.8-0.7-1.5-1.5-1.5c-0.6,0-1.2,0.4-1.4,1.2h-1.5
		c0.1-1.4,1.4-2.7,2.8-2.7c1.8,0,3,1.4,3,2.9c0,0.8-0.2,1.6-1.1,2.1c0.9,0.5,1.2,1.4,1.2,2.2c0,1.9-1.4,3.1-3.1,3.1
		c-1.4,0-2.6-0.9-2.9-2.6h1.5c0.3,0.7,0.7,1.2,1.5,1.2c0.8,0,1.5-0.6,1.5-1.6c0-1-0.7-1.6-1.6-1.6h-0.6V514.6z"/>
	<path class="st19" d="M197.4,511.8l-1.4,1.1v-1.5l1.4-1.1h1.5v10.2h-1.5V511.8z"/>
	<path class="st19" d="M205.9,510.3h1.5v8.3c0,0.3,0.2,0.5,0.5,0.5h0.5v1.4h-0.6c-1.1,0-1.9-0.5-1.9-1.8V510.3z"/>
	<path class="st19" d="M209.6,510.3h1.5v1.5h-1.5V510.3z M209.6,513.2h1.5v7.2h-1.5V513.2z"/>
	<path class="st19" d="M213,510.3h1.5v6.3h0l2.8-3.4h1.7l-2.5,2.8l2.8,4.4h-1.8l-1.9-3.4l-1.1,1.3v2.1H213V510.3z"/>
	<path class="st19" d="M221.3,517.4c0,1.2,0.7,1.8,1.7,1.8c0.6,0,1.2-0.3,1.6-0.7l1.1,0.9c-0.7,0.8-1.6,1.2-2.6,1.2
		c-1.5,0-3.2-0.7-3.2-3.7c0-2.8,1.6-3.7,3-3.7c1.6,0,3,1.2,3,3.1v1.2H221.3z M224.4,516.2c0-1.1-0.7-1.7-1.5-1.7s-1.5,0.6-1.5,1.7
		H224.4z"/>
	<path class="st19" d="M227.6,518.2c0.6,0.6,1.3,0.9,2.3,0.9c0.8,0,1.4-0.3,1.4-0.9c0-0.5-0.4-0.7-0.9-0.7l-1.3-0.1
		c-1.2-0.1-2.1-0.8-2.1-2.1c0-1.5,1.2-2.2,2.7-2.2c1.3,0,2.1,0.4,2.8,1l-0.9,1.1c-0.6-0.4-1.2-0.7-1.9-0.7c-0.9,0-1.2,0.4-1.2,0.9
		c0,0.3,0.2,0.6,1,0.7l1.2,0.1c1.5,0.1,2.1,1,2.1,2.2c0,1.4-1.3,2.2-3,2.2c-1.2,0-2.3-0.4-3.2-1.3L227.6,518.2z"/>
</g>
<text transform="matrix(1 0 0 1 790.1937 778.264)" class="st19" style="font-family:'DINMittelschriftStd'; font-size:14.2746px;">6,245,643 likes</text>
<g>
	<path class="st19" d="M527.8,517.7l3.4-7.3h1.6l-3.4,7.3h2.7v-2.9h1.5v2.9h0.8v1.4h-0.8v1.5H532V519h-4.2V517.7z"/>
	<path class="st19" d="M535.4,519.1h1.5v1.5l-1.5,1.1V519.1z"/>
	<path class="st19" d="M541.5,510.4h1.6l-2.1,4.3h0c0.2-0.1,0.5-0.1,0.8-0.1c1.3,0,2.4,0.9,2.4,2.8c0,2.3-1.5,3.3-3,3.3
		c-1.4,0-2.8-1.2-2.8-3.1c0-0.6,0.1-1.2,0.4-1.7L541.5,510.4z M539.9,517.5c0,1.1,0.6,1.7,1.5,1.7c0.7,0,1.5-0.5,1.5-1.7
		c0-1.1-0.7-1.7-1.5-1.7C540.5,515.9,539.9,516.4,539.9,517.5z"/>
	<path class="st19" d="M545.5,510.4h5.4v1.5h-4v2.3c0.5-0.4,1-0.6,1.6-0.6c0.8,0,1.4,0.3,1.8,0.7c0.6,0.6,0.8,1.1,0.8,2.8
		c0,1.4-0.2,1.9-0.6,2.4c-0.4,0.5-1.2,1.1-2.2,1.1c-1.3,0-2.8-0.7-3-2.6h1.5c0.2,0.7,0.6,1.2,1.5,1.2c1.4,0,1.4-1.2,1.4-2.2
		c0-1.1-0.3-2-1.5-2c-0.6,0-1,0.2-1.3,0.8h-1.4V510.4z"/>
	<path class="st19" d="M551.8,517.7l3.4-7.3h1.6l-3.4,7.3h2.7v-2.9h1.5v2.9h0.8v1.4h-0.8v1.5H556V519h-4.2V517.7z"/>
	<path class="st19" d="M562.8,510.4h1.5v8.3c0,0.3,0.2,0.5,0.5,0.5h0.5v1.4h-0.6c-1.1,0-1.9-0.5-1.9-1.8V510.4z"/>
	<path class="st19" d="M566.5,510.4h1.5v1.5h-1.5V510.4z M566.5,513.3h1.5v7.2h-1.5V513.3z"/>
	<path class="st19" d="M569.9,510.4h1.5v6.3h0l2.8-3.4h1.7l-2.5,2.8l2.8,4.4h-1.8l-1.9-3.4l-1.1,1.3v2.1h-1.5V510.4z"/>
	<path class="st19" d="M578.3,517.5c0,1.2,0.7,1.8,1.7,1.8c0.6,0,1.2-0.3,1.6-0.7l1.1,0.9c-0.7,0.8-1.6,1.2-2.6,1.2
		c-1.5,0-3.2-0.7-3.2-3.7c0-2.8,1.6-3.7,3-3.7c1.6,0,3,1.2,3,3.1v1.2H578.3z M581.3,516.3c0-1.1-0.7-1.7-1.5-1.7s-1.5,0.6-1.5,1.7
		H581.3z"/>
	<path class="st19" d="M584.5,518.3c0.6,0.6,1.3,0.9,2.3,0.9c0.8,0,1.4-0.3,1.4-0.9c0-0.5-0.4-0.7-0.9-0.7l-1.3-0.1
		c-1.2-0.1-2.1-0.8-2.1-2.1c0-1.5,1.2-2.2,2.7-2.2c1.3,0,2.1,0.4,2.8,1l-0.9,1.1c-0.6-0.4-1.2-0.7-1.9-0.7c-0.9,0-1.2,0.4-1.2,0.9
		c0,0.3,0.2,0.6,1,0.7l1.2,0.1c1.5,0.1,2.1,1,2.1,2.2c0,1.4-1.3,2.2-3,2.2c-1.2,0-2.3-0.4-3.2-1.3L584.5,518.3z"/>
</g>
<g>
	<line class="st44" x1="801.9" y1="148.8" x2="808.5" y2="155.4"/>
	<line class="st44" x1="808.5" y1="148.8" x2="801.7" y2="155.6"/>
</g>
<polygon class="st45" points="1365.4,300.3 1348.6,280 1348.6,-42 1410.5,-47.4 "/>
<polygon class="st46" points="1365.4,300.3 1383.9,-47.2 1652.4,-49.2 1642.3,307.8 "/>
<g>
	<path class="st19" d="M923.8,510.5h1.6l-2.1,4.3h0c0.2-0.1,0.5-0.1,0.8-0.1c1.3,0,2.4,0.9,2.4,2.8c0,2.3-1.5,3.3-3,3.3
		c-1.4,0-2.8-1.2-2.8-3.1c0-0.6,0.1-1.2,0.4-1.7L923.8,510.5z M922.2,517.6c0,1.1,0.6,1.7,1.5,1.7c0.7,0,1.5-0.5,1.5-1.7
		c0-1.1-0.7-1.7-1.5-1.7C922.8,516,922.2,516.5,922.2,517.6z"/>
	<path class="st19" d="M928.1,519.2h1.5v1.5l-1.5,1.1V519.2z"/>
	<path class="st19" d="M931,519.3l4-5c0.3-0.4,0.4-0.7,0.4-1c0-0.7-0.5-1.4-1.4-1.4c-0.8,0-1.4,0.6-1.5,1.5H931
		c0-1.7,1.3-2.9,2.8-2.9c1.7,0,3,1.3,3,2.9c0,0.7-0.2,1.3-0.6,1.8l-3.3,4.1h3.9v1.5H931V519.3z"/>
	<path class="st19" d="M937.5,517.8l3.4-7.3h1.6l-3.4,7.3h2.7v-2.9h1.5v2.9h0.8v1.4h-0.8v1.5h-1.5v-1.5h-4.2V517.8z"/>
	<path class="st19" d="M944.9,510.5h5.4v1.5h-4v2.3c0.5-0.4,1-0.6,1.6-0.6c0.8,0,1.4,0.3,1.8,0.7c0.6,0.6,0.8,1.1,0.8,2.8
		c0,1.4-0.2,1.9-0.6,2.4c-0.4,0.5-1.2,1.1-2.2,1.1c-1.3,0-2.8-0.7-3-2.6h1.5c0.2,0.7,0.6,1.2,1.5,1.2c1.4,0,1.4-1.2,1.4-2.2
		c0-1.1-0.3-2-1.5-2c-0.6,0-1,0.2-1.3,0.8h-1.4V510.5z"/>
	<path class="st19" d="M952,519.2h1.5v1.5l-1.5,1.1V519.2z"/>
	<path class="st19" d="M958.1,510.5h1.6l-2.1,4.3h0c0.2-0.1,0.5-0.1,0.8-0.1c1.3,0,2.4,0.9,2.4,2.8c0,2.3-1.5,3.3-3,3.3
		c-1.4,0-2.8-1.2-2.8-3.1c0-0.6,0.1-1.2,0.4-1.7L958.1,510.5z M956.5,517.6c0,1.1,0.6,1.7,1.5,1.7c0.7,0,1.5-0.5,1.5-1.7
		c0-1.1-0.7-1.7-1.5-1.7S956.5,516.5,956.5,517.6z"/>
	<path class="st19" d="M961.5,517.8l3.4-7.3h1.6l-3.4,7.3h2.7v-2.9h1.5v2.9h0.8v1.4h-0.8v1.5h-1.5v-1.5h-4.2V517.8z"/>
	<path class="st19" d="M970.7,514.8h0.5c1,0,1.6-0.6,1.6-1.4c0-0.8-0.7-1.5-1.5-1.5c-0.6,0-1.2,0.4-1.4,1.2h-1.5
		c0.1-1.4,1.4-2.7,2.8-2.7c1.8,0,3,1.4,3,2.9c0,0.8-0.2,1.6-1.1,2.1c0.9,0.5,1.2,1.4,1.2,2.2c0,1.9-1.4,3.1-3.1,3.1
		c-1.4,0-2.6-0.9-2.9-2.6h1.5c0.3,0.7,0.7,1.2,1.5,1.2c0.8,0,1.5-0.6,1.5-1.6c0-1-0.7-1.6-1.6-1.6h-0.6V514.8z"/>
	<path class="st19" d="M979.4,510.5h1.5v8.3c0,0.3,0.2,0.5,0.5,0.5h0.5v1.4h-0.6c-1.1,0-1.9-0.5-1.9-1.8V510.5z"/>
	<path class="st19" d="M983.1,510.5h1.5v1.5h-1.5V510.5z M983.1,513.4h1.5v7.2h-1.5V513.4z"/>
	<path class="st19" d="M986.5,510.5h1.5v6.3h0l2.8-3.4h1.7l-2.5,2.8l2.8,4.4H991l-1.9-3.4l-1.1,1.3v2.1h-1.5V510.5z"/>
	<path class="st19" d="M994.8,517.6c0,1.2,0.7,1.8,1.7,1.8c0.6,0,1.2-0.3,1.6-0.7l1.1,0.9c-0.7,0.8-1.6,1.2-2.6,1.2
		c-1.5,0-3.2-0.7-3.2-3.7c0-2.8,1.6-3.7,3-3.7c1.6,0,3,1.2,3,3.1v1.2H994.8z M997.9,516.4c0-1.1-0.7-1.7-1.5-1.7
		c-0.9,0-1.5,0.6-1.5,1.7H997.9z"/>
	<path class="st19" d="M1001.1,518.5c0.6,0.6,1.3,0.9,2.3,0.9c0.8,0,1.4-0.3,1.4-0.9c0-0.5-0.4-0.7-0.9-0.7l-1.3-0.1
		c-1.2-0.1-2.1-0.8-2.1-2.1c0-1.5,1.2-2.2,2.7-2.2c1.3,0,2.1,0.4,2.8,1l-0.9,1.1c-0.6-0.4-1.2-0.7-1.9-0.7c-0.9,0-1.2,0.4-1.2,0.9
		c0,0.3,0.2,0.6,1,0.7l1.2,0.1c1.5,0.1,2.1,1,2.1,2.2c0,1.4-1.3,2.2-3,2.2c-1.2,0-2.3-0.4-3.2-1.3L1001.1,518.5z"/>
</g>
</svg>
