<?xml version="1.0" encoding="utf-8"?>
<!-- Generator: Adobe Illustrator 22.1.0, SVG Export Plug-In . SVG Version: 6.00 Build 0)  -->
<svg version="1.1" xmlns="http://www.w3.org/2000/svg" xmlns:xlink="http://www.w3.org/1999/xlink" x="0px" y="0px"
	 viewBox="0 0 30 30" style="enable-background:new 0 0 30 30;" xml:space="preserve">
<style type="text/css">
	.st0{fill:#F2D070;}
	.st1{fill:#FFFEE1;}
	.st2{fill:#FFEB91;}
	.st3{fill:#6B6E7E;}
	.st4{fill:#C2C3CA;}
	.st5{fill:#64BC46;}
	.st6{fill:#E5E516;}
	.st7{fill:#30313C;}
	.st8{fill:#616675;}
	.st9{display:none;}
	.st10{display:inline;fill:#F8EE5A;}
</style>
<g id="Layer_4">
	<rect x="-2.8" y="27.4" class="st0" width="1.5" height="1.5"/>
	<rect x="-2.8" y="28.9" class="st0" width="1.5" height="1.5"/>
	<rect x="-3.3" y="18.8" class="st0" width="1.5" height="1.5"/>
	<rect x="-2.1" y="20.8" class="st0" width="1.5" height="1.5"/>
	<rect x="-4.6" y="21.3" class="st0" width="1.5" height="1.5"/>
	<polygon class="st1" points="28.5,43.7 28.5,40 27.2,40 27.2,34.3 2.9,34.3 2.9,40 1.5,40 1.5,43.7 0,43.7 0,45.6 1.5,45.6 
		2.9,45.6 2.9,45.6 27.1,45.6 27.2,45.6 28.5,45.6 30,45.6 30,43.7 	"/>
	<rect x="-43.7" y="47.1" class="st1" width="24.3" height="11.3"/>
	<rect x="-45.1" y="52.8" class="st1" width="1.5" height="5.6"/>
	<rect x="-46.6" y="56.6" class="st1" width="1.5" height="1.9"/>
	
		<rect x="-19.5" y="52.8" transform="matrix(-1 -4.458490e-11 4.458490e-11 -1 -37.5729 111.2329)" class="st1" width="1.5" height="5.6"/>
	
		<rect x="-18.1" y="56.6" transform="matrix(-1 -4.458490e-11 4.458490e-11 -1 -34.6354 114.9741)" class="st1" width="1.5" height="1.9"/>
	
		<rect x="40.1" y="20.3" transform="matrix(-1 -4.458490e-11 4.458490e-11 -1 81.7292 47.5781)" class="st0" width="1.5" height="7"/>
	
		<rect x="41.6" y="21.8" transform="matrix(-1 -4.497881e-11 4.497881e-11 -1 84.5729 49.0469)" class="st0" width="1.4" height="5.5"/>
	
		<rect x="43" y="21.8" transform="matrix(-1 -4.497881e-11 4.497881e-11 -1 87.3249 49.0469)" class="st0" width="1.4" height="5.5"/>
</g>
<g id="Layer_3">
	<polyline class="st2" points="-350.8,20.2 -350.8,30.2 -328.3,30.2 -328.3,20.2 -350.8,20.2 	"/>
	<circle class="st2" cx="-336.3" cy="-20.8" r="9.9"/>
	<polygon class="st3" points="-389.1,33 -389.1,32.2 -391.3,32.2 -391.3,31.5 -392.8,31.5 -392.8,30 -393.5,30 -393.5,24.5 
		-395.1,24.5 -396.6,24.5 -396.6,30 -397.3,30 -397.3,31.5 -398.8,31.5 -398.8,32.2 -401.1,32.2 -401.1,33 -402.6,33 -402.6,34.4 
		-395.1,34.4 -387.6,34.4 -387.6,33 	"/>
	<polygon class="st4" points="22.5,28.2 22.5,27.2 19.7,27.2 19.7,26.3 17.8,26.3 17.8,24.4 17,24.4 17,17.6 15,17.6 13.1,17.6 
		13.1,24.4 12.2,24.4 12.2,26.3 10.4,26.3 10.4,27.2 7.5,27.2 7.5,28.2 5.7,28.2 5.7,30 15,30 24.4,30 24.4,28.2 	"/>
	<polygon class="st3" points="-14.3,28.2 -14.3,27.2 -17.2,27.2 -17.2,26.3 -19,26.3 -19,24.4 -19.9,24.4 -19.9,17.6 -21.8,17.6 
		-23.7,17.6 -23.7,24.4 -24.6,24.4 -24.6,26.3 -26.5,26.3 -26.5,27.2 -29.3,27.2 -29.3,28.2 -31.2,28.2 -31.2,30 -21.8,30 -12.5,30 
		-12.5,28.2 	"/>
	<polygon class="st5" points="-446.2,4.9 -446.2,10.3 -446.9,10.3 -446.9,11.8 -448.4,11.8 -448.4,12.6 -450.7,12.6 -450.7,13.3 
		-452.1,13.3 -452.1,14.8 -444.7,14.8 -444.7,4.9 	"/>
	<polyline class="st2" points="-461.6,-6.4 -468.3,-15.4 -445.8,-15.4 -452.6,-6.4 -461.6,-6.4 	"/>
</g>
<g id="Layer_1">
	<g>
		<defs>
			<rect id="SVGID_1_" x="-488.4" y="23.5" width="24" height="24"/>
		</defs>
		<clipPath id="SVGID_2_">
			<use xlink:href="#SVGID_1_"  style="overflow:visible;"/>
		</clipPath>
		<g transform="matrix(1 0 0 1 3.051758e-05 0)" style="clip-path:url(#SVGID_2_);">
			
				<image style="overflow:visible;" width="32" height="32" xlink:href="favi.png"  transform="matrix(0.75 0 0 0.75 -488.3698 23.5391)">
			</image>
		</g>
	</g>
	<polygon class="st6" points="-449.1,-9.5 -449.1,-8.7 -449.9,-8.7 -449.9,-7.2 -450.6,-7.2 -450.6,-5.7 -451.4,-5.7 -451.4,-4.2 
		-452.2,-4.2 -452.2,-2.7 -452.9,-2.7 -452.9,-1.2 -453.7,-1.2 -453.7,-0.4 -454.4,-0.4 -454.4,1.1 -455.1,1.1 -455.1,1.8 
		-455.9,1.8 -455.9,6.3 -455.1,6.3 -455.1,7 -454.4,7 -454.4,7.8 -452.2,7.8 -452.2,7 -451.4,7 -451.4,6.3 -449.9,6.3 -449.9,7.1 
		-449.1,7.1 -449.1,7.8 -446.9,7.8 -446.9,7 -446.2,7 -446.2,6.3 -445.4,6.3 -445.4,5.5 -444.7,5.5 -444.7,-9.5 	"/>
	<polygon class="st7" points="-384.6,21.7 -384.6,21 -385.3,21 -385.3,19.5 -386.1,19.5 -386.1,18.7 -386.8,18.7 -386.8,17.2 
		-387.6,17.2 -387.6,15.7 -388.3,15.7 -388.3,14.2 -389.1,14.2 -389.1,12.7 -389.8,12.7 -389.8,11.2 -390.6,11.2 -390.6,10.4 
		-395.1,10.4 -399.6,10.4 -399.6,11.2 -400.3,11.2 -400.3,12.7 -401,12.7 -401,14.2 -401.8,14.2 -401.8,15.7 -402.6,15.7 
		-402.6,17.2 -403.3,17.2 -403.3,18.7 -404.1,18.7 -404.1,19.5 -404.8,19.5 -404.8,21 -405.5,21 -405.5,21.7 -406.3,21.7 
		-406.3,26.2 -405.6,26.2 -405.6,26.9 -404.8,26.9 -404.8,27.7 -402.6,27.7 -402.6,26.9 -401.8,26.9 -401.8,26.2 -400.3,26.2 
		-400.3,27 -399.6,27 -399.6,27.7 -397.3,27.7 -397.3,26.9 -396.6,26.9 -396.6,26.2 -395.8,26.2 -395.8,25.4 -395.1,25.4 
		-394.3,25.4 -394.3,26.2 -393.5,26.2 -393.5,26.9 -392.8,26.9 -392.8,27.7 -390.6,27.7 -390.6,27 -389.8,27 -389.8,26.2 
		-388.3,26.2 -388.3,26.9 -387.6,26.9 -387.6,27.7 -385.3,27.7 -385.3,26.9 -384.6,26.9 -384.6,26.2 -383.8,26.2 -383.8,21.7 	"/>
	<polygon class="st8" points="28.1,14.1 28.1,13.2 27.2,13.2 27.2,11.3 26.3,11.3 26.3,10.4 25.3,10.4 25.3,8.5 24.4,8.5 24.4,6.6 
		23.5,6.6 23.5,4.7 22.5,4.7 22.5,2.8 21.6,2.8 21.6,1 20.6,1 20.6,0 15,0 9.4,0 9.4,1 8.5,1 8.5,2.8 7.6,2.8 7.6,4.7 6.6,4.7 
		6.6,6.6 5.7,6.6 5.7,8.5 4.8,8.5 4.8,10.4 3.8,10.4 3.8,11.3 2.9,11.3 2.9,13.2 2,13.2 2,14.1 1,14.1 1,19.7 1.9,19.7 1.9,20.6 
		2.9,20.6 2.9,21.5 5.6,21.5 5.6,20.6 6.6,20.6 6.6,19.7 8.5,19.7 8.5,20.6 9.4,20.6 9.4,21.5 12.2,21.5 12.2,20.6 13.1,20.6 
		13.1,19.7 14.1,19.7 14.1,18.7 15,18.7 16,18.7 16,19.7 17,19.7 17,20.6 17.9,20.6 17.9,21.5 20.6,21.5 20.6,20.6 21.6,20.6 
		21.6,19.7 23.5,19.7 23.5,20.6 24.4,20.6 24.4,21.5 27.2,21.5 27.2,20.6 28.1,20.6 28.1,19.7 29.1,19.7 29.1,14.1 	"/>
	<polygon class="st7" points="-8.7,14.1 -8.7,13.2 -9.7,13.2 -9.7,11.3 -10.6,11.3 -10.6,10.4 -11.6,10.4 -11.6,8.5 -12.5,8.5 
		-12.5,6.6 -13.4,6.6 -13.4,4.7 -14.4,4.7 -14.4,2.8 -15.3,2.8 -15.3,1 -16.2,1 -16.2,0 -21.8,0 -27.4,0 -27.4,1 -28.4,1 -28.4,2.8 
		-29.3,2.8 -29.3,4.7 -30.3,4.7 -30.3,6.6 -31.2,6.6 -31.2,8.5 -32.1,8.5 -32.1,10.4 -33.1,10.4 -33.1,11.3 -34,11.3 -34,13.2 
		-34.9,13.2 -34.9,14.1 -35.9,14.1 -35.9,19.7 -34.9,19.7 -34.9,20.6 -34,20.6 -34,21.5 -31.2,21.5 -31.2,20.6 -30.3,20.6 
		-30.3,19.7 -28.4,19.7 -28.4,20.6 -27.4,20.6 -27.4,21.5 -24.7,21.5 -24.7,20.6 -23.7,20.6 -23.7,19.7 -22.8,19.7 -22.8,18.7 
		-21.8,18.7 -20.9,18.7 -20.9,19.7 -19.9,19.7 -19.9,20.6 -19,20.6 -19,21.5 -16.2,21.5 -16.2,20.6 -15.3,20.6 -15.3,19.7 
		-13.4,19.7 -13.4,20.6 -12.4,20.6 -12.4,21.5 -9.7,21.5 -9.7,20.6 -8.7,20.6 -8.7,19.7 -7.8,19.7 -7.8,14.1 	"/>
	<rect x="-93.4" y="-8.1" class="st7" width="1.5" height="1.5"/>
	<rect x="-93.4" y="-9.6" class="st7" width="1.5" height="1.5"/>
	<rect x="-94.9" y="-9.6" class="st7" width="1.5" height="1.5"/>
	<rect x="-92" y="-9.6" class="st7" width="1.5" height="1.5"/>
	<rect x="-92.7" y="-10.3" class="st7" width="1.5" height="1.5"/>
	<rect x="-93.4" y="-11" class="st7" width="1.5" height="1.5"/>
	<rect x="-94.2" y="-8.8" class="st7" width="1.5" height="1.5"/>
	<rect x="-92.7" y="-8.8" class="st7" width="1.5" height="1.5"/>
	<rect x="-94.2" y="-10.3" class="st7" width="1.5" height="1.5"/>
</g>
<g id="Layer_2" class="st9">
	<rect x="-399.6" y="10.4" class="st10" width="9" height="15"/>
	<rect x="-400.3" y="11.2" class="st10" width="3.9" height="3.1"/>
	<rect x="-401.1" y="12.7" class="st10" width="3.9" height="3.1"/>
</g>
</svg>
