<?xml version="1.0" encoding="utf-8"?>
<!-- Generator: Adobe Illustrator 22.1.0, SVG Export Plug-In . SVG Version: 6.00 Build 0)  -->
<svg version="1.1" id="Layer_1" xmlns="http://www.w3.org/2000/svg" xmlns:xlink="http://www.w3.org/1999/xlink" x="0px" y="0px"
	 viewBox="0 0 32 32" style="enable-background:new 0 0 32 32;" xml:space="preserve">
<style type="text/css">
	.st0{fill:#231F20;}
</style>
<path class="st0" d="M20.5,16c16-2.8,12.8-11.5-1.2-3.2c9.4-13.3,0.9-17.2-3.1-1.4C13.4-4.6,4.7-1.4,13,12.6
	c-13.2-9.4-17-0.9-1.3,3.1c-16,2.8-12.8,11.5,1.2,3.2C3.5,32.2,12,36.1,16,20.3c2.8,16,11.5,12.8,3.2-1.2C32.4,28.4,36.3,20,20.5,16
	z M18.3,16.8c-0.5,1.2-1.9,1.7-3.1,1.2c-1.2-0.6-1.8-2-1.2-3.2c0.5-1.2,1.9-1.7,3.1-1.2S18.8,15.6,18.3,16.8z"/>
</svg>
