<?xml version="1.0" encoding="utf-8"?>
<!-- Generator: Adobe Illustrator 22.0.1, SVG Export Plug-In . SVG Version: 6.00 Build 0)  -->
<svg version="1.1" id="Layer_1" xmlns="http://www.w3.org/2000/svg" xmlns:xlink="http://www.w3.org/1999/xlink" x="0px" y="0px"
	 viewBox="0 0 1340 630" style="enable-background:new 0 0 1340 630;" xml:space="preserve">
<style type="text/css">
	.st0{fill:#DD796F;stroke:#000000;stroke-miterlimit:10;}
	.st1{fill:none;stroke:#000000;stroke-miterlimit:10;}
	.st2{fill:#F2F2F2;stroke:#000000;stroke-miterlimit:10;}
	.st3{fill:#564D4D;stroke:#000000;stroke-miterlimit:10;}
	.st4{fill:#22B573;stroke:#000000;stroke-miterlimit:10;}
	.st5{fill:#22B573;}
	.st6{fill:#E8E7E7;stroke:#000000;stroke-miterlimit:10;}
	.st7{stroke:#000000;stroke-miterlimit:10;}
</style>
<g>
	<path class="st0" d="M245,117.9L245,117.9c0-1.3,1.1-2.4,2.4-2.4h8.2c1.3,0,2.4,1.1,2.4,2.4l0,0c0,1.3-1.1,2.4-2.4,2.4h-8.2
		C246.1,120.3,245,119.2,245,117.9z"/>
	<path class="st0" d="M248.3,111.1V107h6.5v4.1c0,1.3-1.1,2.4-2.4,2.4h-1.7C249.3,113.5,248.3,112.5,248.3,111.1z"/>
	<path class="st0" d="M228.3,114.8L228.3,114.8c0-1.3,1.1-2.4,2.4-2.4h41.6c1.3,0,2.4,1.1,2.4,2.4l0,0c0,1.3-1.1,2.4-2.4,2.4h-41.6
		C229.4,117.1,228.3,116.1,228.3,114.8z"/>
</g>
<g>
	<g id="Layer_6">
		<g>
			<line class="st1" x1="-83.5" y1="-118.2" x2="1449.5" y2="-118.2"/>
		</g>
		<g>
			<line class="st1" x1="-83.5" y1="-81.2" x2="1449.5" y2="-81.2"/>
		</g>
		<g>
			<line class="st1" x1="-83.5" y1="-44.2" x2="1449.5" y2="-44.2"/>
		</g>
		<g>
			<line class="st1" x1="-83.5" y1="-7.2" x2="1449.5" y2="-7.2"/>
		</g>
		<g>
			<line class="st1" x1="-83.5" y1="29.8" x2="1449.5" y2="29.8"/>
		</g>
		<g>
			<line class="st1" x1="-83.5" y1="66.8" x2="1449.5" y2="66.8"/>
		</g>
		<g>
			<line class="st1" x1="-83.5" y1="103.8" x2="1449.5" y2="103.8"/>
		</g>
		<g>
			<line class="st1" x1="-83.5" y1="140.8" x2="1449.5" y2="140.8"/>
		</g>
		<g>
			<line class="st1" x1="-83.5" y1="177.8" x2="1449.5" y2="177.8"/>
		</g>
		<g>
			<line class="st1" x1="-83.5" y1="214.8" x2="1449.5" y2="214.8"/>
		</g>
		<line class="st1" x1="-13" y1="-118.1" x2="-13" y2="-158.8"/>
		<line class="st1" x1="75" y1="-118.1" x2="75" y2="-158.8"/>
		<line class="st1" x1="162.5" y1="-118.7" x2="162.5" y2="-158.8"/>
		<line class="st1" x1="251.5" y1="-118.7" x2="251.5" y2="-158.8"/>
		<line class="st1" x1="340" y1="-118.1" x2="340" y2="-158.8"/>
		<line class="st1" x1="428" y1="-118.1" x2="428" y2="-158.8"/>
		<line class="st1" x1="515.5" y1="-118.7" x2="515.5" y2="-158.8"/>
		<line class="st1" x1="604.5" y1="-118.7" x2="604.5" y2="-159.4"/>
		<line class="st1" x1="32" y1="-81.1" x2="32" y2="-118.2"/>
		<line class="st1" x1="119.5" y1="-80.7" x2="119.5" y2="-117.7"/>
		<line class="st1" x1="208.5" y1="-80.7" x2="208.5" y2="-117.7"/>
		<line class="st1" x1="297" y1="-81.1" x2="297" y2="-118.2"/>
		<line class="st1" x1="385" y1="-81.1" x2="385" y2="-118.2"/>
		<line class="st1" x1="472.5" y1="-80.7" x2="472.5" y2="-117.7"/>
		<line class="st1" x1="561.5" y1="-80.7" x2="561.5" y2="-117.7"/>
		<line class="st1" x1="650.5" y1="-80.7" x2="650.5" y2="-117.7"/>
		<line class="st1" x1="-13" y1="-44.1" x2="-13" y2="-81.2"/>
		<line class="st1" x1="75" y1="-44.1" x2="75" y2="-81.2"/>
		<line class="st1" x1="162.5" y1="-43.7" x2="162.5" y2="-80.7"/>
		<line class="st1" x1="251.5" y1="-43.7" x2="251.5" y2="-80.7"/>
		<line class="st1" x1="340" y1="-44.1" x2="340" y2="-81.2"/>
		<line class="st1" x1="428" y1="-44.1" x2="428" y2="-81.2"/>
		<line class="st1" x1="515.5" y1="-43.7" x2="515.5" y2="-80.7"/>
		<line class="st1" x1="604.5" y1="-43.7" x2="604.5" y2="-80.7"/>
		<line class="st1" x1="32" y1="-7.1" x2="32" y2="-44.2"/>
		<line class="st1" x1="119.5" y1="-6.7" x2="119.5" y2="-43.7"/>
		<line class="st1" x1="208.5" y1="-6.7" x2="208.5" y2="-43.7"/>
		<line class="st1" x1="297" y1="-7.1" x2="297" y2="-44.2"/>
		<line class="st1" x1="385" y1="-7.1" x2="385" y2="-44.2"/>
		<line class="st1" x1="472.5" y1="-6.7" x2="472.5" y2="-43.7"/>
		<line class="st1" x1="561.5" y1="-6.7" x2="561.5" y2="-43.7"/>
		<line class="st1" x1="650.5" y1="-6.7" x2="650.5" y2="-43.7"/>
		<line class="st1" x1="-13" y1="29.9" x2="-13" y2="-7.2"/>
		<line class="st1" x1="75" y1="29.9" x2="75" y2="-7.2"/>
		<line class="st1" x1="162.5" y1="30.3" x2="162.5" y2="-6.7"/>
		<line class="st1" x1="251.5" y1="30.3" x2="251.5" y2="-6.7"/>
		<line class="st1" x1="340" y1="29.9" x2="340" y2="-7.2"/>
		<line class="st1" x1="428" y1="29.9" x2="428" y2="-7.2"/>
		<line class="st1" x1="515.5" y1="30.3" x2="515.5" y2="-6.7"/>
		<line class="st1" x1="604.5" y1="30.3" x2="604.5" y2="-6.7"/>
		<line class="st1" x1="32" y1="66.9" x2="32" y2="29.8"/>
		<line class="st1" x1="119.5" y1="67.3" x2="119.5" y2="30.3"/>
		<line class="st1" x1="208.5" y1="67.3" x2="208.5" y2="30.3"/>
		<line class="st1" x1="297" y1="66.9" x2="297" y2="29.8"/>
		<line class="st1" x1="385" y1="66.9" x2="385" y2="29.8"/>
		<line class="st1" x1="472.5" y1="67.3" x2="472.5" y2="30.3"/>
		<line class="st1" x1="561.5" y1="67.3" x2="561.5" y2="30.3"/>
		<line class="st1" x1="650.5" y1="67.3" x2="650.5" y2="30.3"/>
		<line class="st1" x1="32" y1="140.9" x2="32" y2="103.8"/>
		<line class="st1" x1="119.5" y1="141.3" x2="119.5" y2="104.3"/>
		<line class="st1" x1="208.5" y1="141.3" x2="208.5" y2="104.3"/>
		<line class="st1" x1="297" y1="140.9" x2="297" y2="103.8"/>
		<line class="st1" x1="385" y1="140.9" x2="385" y2="103.8"/>
		<line class="st1" x1="472.5" y1="141.3" x2="472.5" y2="104.3"/>
		<line class="st1" x1="561.5" y1="141.3" x2="561.5" y2="104.3"/>
		<line class="st1" x1="650.5" y1="141.3" x2="650.5" y2="104.3"/>
		<line class="st1" x1="32" y1="214.9" x2="32" y2="177.8"/>
		<line class="st1" x1="119.5" y1="215.3" x2="119.5" y2="178.3"/>
		<line class="st1" x1="208.5" y1="215.3" x2="208.5" y2="178.3"/>
		<line class="st1" x1="297" y1="214.9" x2="297" y2="177.8"/>
		<line class="st1" x1="385" y1="214.9" x2="385" y2="177.8"/>
		<line class="st1" x1="472.5" y1="215.3" x2="472.5" y2="178.3"/>
		<line class="st1" x1="561.5" y1="215.3" x2="561.5" y2="178.3"/>
		<line class="st1" x1="650.5" y1="215.3" x2="650.5" y2="178.3"/>
		<line class="st1" x1="-13" y1="255.5" x2="-13" y2="214.8"/>
		<line class="st1" x1="75" y1="255.5" x2="75" y2="214.8"/>
		<line class="st1" x1="162.5" y1="256" x2="162.5" y2="215.3"/>
		<line class="st1" x1="251.5" y1="256" x2="251.5" y2="215.3"/>
		<line class="st1" x1="340" y1="255.5" x2="340" y2="214.8"/>
		<line class="st1" x1="428" y1="255.5" x2="428" y2="214.8"/>
		<line class="st1" x1="515.5" y1="256" x2="515.5" y2="215.3"/>
		<line class="st1" x1="604.5" y1="256" x2="604.5" y2="215.3"/>
		<line class="st1" x1="-13" y1="103.9" x2="-13" y2="66.8"/>
		<line class="st1" x1="75" y1="103.9" x2="75" y2="66.8"/>
		<line class="st1" x1="162.5" y1="104.3" x2="162.5" y2="67.3"/>
		<line class="st1" x1="251.5" y1="104.3" x2="251.5" y2="67.3"/>
		<line class="st1" x1="340" y1="103.9" x2="340" y2="66.8"/>
		<line class="st1" x1="428" y1="103.9" x2="428" y2="66.8"/>
		<line class="st1" x1="515.5" y1="104.3" x2="515.5" y2="67.3"/>
		<line class="st1" x1="604.5" y1="104.3" x2="604.5" y2="67.3"/>
		<line class="st1" x1="-13" y1="177.9" x2="-13" y2="140.8"/>
		<line class="st1" x1="75" y1="177.9" x2="75" y2="140.8"/>
		<line class="st1" x1="162.5" y1="178.3" x2="162.5" y2="141.3"/>
		<line class="st1" x1="251.5" y1="178.3" x2="251.5" y2="141.3"/>
		<line class="st1" x1="340" y1="177.9" x2="340" y2="140.8"/>
		<line class="st1" x1="428" y1="177.9" x2="428" y2="140.8"/>
		<line class="st1" x1="515.5" y1="178.3" x2="515.5" y2="141.3"/>
		<line class="st1" x1="604.5" y1="178.3" x2="604.5" y2="141.3"/>
		<line class="st1" x1="698" y1="-118.1" x2="698" y2="-158.8"/>
		<line class="st1" x1="786" y1="-118.1" x2="786" y2="-158.8"/>
		<line class="st1" x1="873.5" y1="-118.7" x2="873.5" y2="-158.8"/>
		<line class="st1" x1="962.5" y1="-118.7" x2="962.5" y2="-158.8"/>
		<line class="st1" x1="1051" y1="-118.1" x2="1051" y2="-158.8"/>
		<line class="st1" x1="1139" y1="-118.1" x2="1139" y2="-158.8"/>
		<line class="st1" x1="1226.5" y1="-118.7" x2="1226.5" y2="-158.8"/>
		<line class="st1" x1="1315.5" y1="-118.7" x2="1315.5" y2="-159.4"/>
		<line class="st1" x1="743" y1="-81.1" x2="743" y2="-118.2"/>
		<line class="st1" x1="830.5" y1="-80.7" x2="830.5" y2="-117.7"/>
		<line class="st1" x1="919.5" y1="-80.7" x2="919.5" y2="-117.7"/>
		<line class="st1" x1="1008" y1="-81.1" x2="1008" y2="-118.2"/>
		<line class="st1" x1="1096" y1="-81.1" x2="1096" y2="-118.2"/>
		<line class="st1" x1="1183.5" y1="-80.7" x2="1183.5" y2="-117.7"/>
		<line class="st1" x1="1272.5" y1="-80.7" x2="1272.5" y2="-117.7"/>
		<line class="st1" x1="1361.5" y1="-80.7" x2="1361.5" y2="-117.7"/>
		<line class="st1" x1="698" y1="-44.1" x2="698" y2="-81.2"/>
		<line class="st1" x1="786" y1="-44.1" x2="786" y2="-81.2"/>
		<line class="st1" x1="873.5" y1="-43.7" x2="873.5" y2="-80.7"/>
		<line class="st1" x1="962.5" y1="-43.7" x2="962.5" y2="-80.7"/>
		<line class="st1" x1="1051" y1="-44.1" x2="1051" y2="-81.2"/>
		<line class="st1" x1="1139" y1="-44.1" x2="1139" y2="-81.2"/>
		<line class="st1" x1="1226.5" y1="-43.7" x2="1226.5" y2="-80.7"/>
		<line class="st1" x1="1315.5" y1="-43.7" x2="1315.5" y2="-80.7"/>
		<line class="st1" x1="743" y1="-7.1" x2="743" y2="-44.2"/>
		<line class="st1" x1="830.5" y1="-6.7" x2="830.5" y2="-43.7"/>
		<line class="st1" x1="919.5" y1="-6.7" x2="919.5" y2="-43.7"/>
		<line class="st1" x1="1008" y1="-7.1" x2="1008" y2="-44.2"/>
		<line class="st1" x1="1096" y1="-7.1" x2="1096" y2="-44.2"/>
		<line class="st1" x1="1183.5" y1="-6.7" x2="1183.5" y2="-43.7"/>
		<line class="st1" x1="1272.5" y1="-6.7" x2="1272.5" y2="-43.7"/>
		<line class="st1" x1="1361.5" y1="-6.7" x2="1361.5" y2="-43.7"/>
		<line class="st1" x1="698" y1="29.9" x2="698" y2="-7.2"/>
		<line class="st1" x1="786" y1="29.9" x2="786" y2="-7.2"/>
		<line class="st1" x1="873.5" y1="30.3" x2="873.5" y2="-6.7"/>
		<line class="st1" x1="962.5" y1="30.3" x2="962.5" y2="-6.7"/>
		<line class="st1" x1="1051" y1="29.9" x2="1051" y2="-7.2"/>
		<line class="st1" x1="1139" y1="29.9" x2="1139" y2="-7.2"/>
		<line class="st1" x1="1226.5" y1="30.3" x2="1226.5" y2="-6.7"/>
		<line class="st1" x1="1315.5" y1="30.3" x2="1315.5" y2="-6.7"/>
		<line class="st1" x1="743" y1="66.9" x2="743" y2="29.8"/>
		<line class="st1" x1="830.5" y1="67.3" x2="830.5" y2="30.3"/>
		<line class="st1" x1="919.5" y1="67.3" x2="919.5" y2="30.3"/>
		<line class="st1" x1="1008" y1="66.9" x2="1008" y2="29.8"/>
		<line class="st1" x1="1096" y1="66.9" x2="1096" y2="29.8"/>
		<line class="st1" x1="1183.5" y1="67.3" x2="1183.5" y2="30.3"/>
		<line class="st1" x1="1272.5" y1="67.3" x2="1272.5" y2="30.3"/>
		<line class="st1" x1="1361.5" y1="67.3" x2="1361.5" y2="30.3"/>
		<line class="st1" x1="743" y1="140.9" x2="743" y2="103.8"/>
		<line class="st1" x1="830.5" y1="141.3" x2="830.5" y2="104.3"/>
		<line class="st1" x1="919.5" y1="141.3" x2="919.5" y2="104.3"/>
		<line class="st1" x1="1008" y1="140.9" x2="1008" y2="103.8"/>
		<line class="st1" x1="1096" y1="140.9" x2="1096" y2="103.8"/>
		<line class="st1" x1="1183.5" y1="141.3" x2="1183.5" y2="104.3"/>
		<line class="st1" x1="1272.5" y1="141.3" x2="1272.5" y2="104.3"/>
		<line class="st1" x1="1361.5" y1="141.3" x2="1361.5" y2="104.3"/>
		<line class="st1" x1="743" y1="214.9" x2="743" y2="177.8"/>
		<line class="st1" x1="830.5" y1="215.3" x2="830.5" y2="178.3"/>
		<line class="st1" x1="919.5" y1="215.3" x2="919.5" y2="178.3"/>
		<line class="st1" x1="1008" y1="214.9" x2="1008" y2="177.8"/>
		<line class="st1" x1="1096" y1="214.9" x2="1096" y2="177.8"/>
		<line class="st1" x1="1183.5" y1="215.3" x2="1183.5" y2="178.3"/>
		<line class="st1" x1="1272.5" y1="215.3" x2="1272.5" y2="178.3"/>
		<line class="st1" x1="1361.5" y1="215.3" x2="1361.5" y2="178.3"/>
		<line class="st1" x1="698" y1="255.5" x2="698" y2="214.8"/>
		<line class="st1" x1="786" y1="255.5" x2="786" y2="214.8"/>
		<line class="st1" x1="873.5" y1="256" x2="873.5" y2="215.3"/>
		<line class="st1" x1="962.5" y1="256" x2="962.5" y2="215.3"/>
		<line class="st1" x1="1051" y1="255.5" x2="1051" y2="214.8"/>
		<line class="st1" x1="1139" y1="255.5" x2="1139" y2="214.8"/>
		<line class="st1" x1="1226.5" y1="256" x2="1226.5" y2="215.3"/>
		<line class="st1" x1="1315.5" y1="256" x2="1315.5" y2="215.3"/>
		<line class="st1" x1="698" y1="103.9" x2="698" y2="66.8"/>
		<line class="st1" x1="786" y1="103.9" x2="786" y2="66.8"/>
		<line class="st1" x1="873.5" y1="104.3" x2="873.5" y2="67.3"/>
		<line class="st1" x1="962.5" y1="104.3" x2="962.5" y2="67.3"/>
		<line class="st1" x1="1051" y1="103.9" x2="1051" y2="66.8"/>
		<line class="st1" x1="1139" y1="103.9" x2="1139" y2="66.8"/>
		<line class="st1" x1="1226.5" y1="104.3" x2="1226.5" y2="67.3"/>
		<line class="st1" x1="1315.5" y1="104.3" x2="1315.5" y2="67.3"/>
		<line class="st1" x1="698" y1="177.9" x2="698" y2="140.8"/>
		<line class="st1" x1="786" y1="177.9" x2="786" y2="140.8"/>
		<line class="st1" x1="873.5" y1="178.3" x2="873.5" y2="141.3"/>
		<line class="st1" x1="962.5" y1="178.3" x2="962.5" y2="141.3"/>
		<line class="st1" x1="1051" y1="177.9" x2="1051" y2="140.8"/>
		<line class="st1" x1="1139" y1="177.9" x2="1139" y2="140.8"/>
		<line class="st1" x1="1226.5" y1="178.3" x2="1226.5" y2="141.3"/>
		<line class="st1" x1="1315.5" y1="178.3" x2="1315.5" y2="141.3"/>
	</g>
	<g id="Layer_6_1_">
		<g>
			<line class="st1" x1="-83.5" y1="255.8" x2="1449.5" y2="255.8"/>
		</g>
		<g>
			<line class="st1" x1="-83.5" y1="292.8" x2="1449.5" y2="292.8"/>
		</g>
		<g>
			<line class="st1" x1="-83.5" y1="329.8" x2="1449.5" y2="329.8"/>
		</g>
		<g>
			<line class="st1" x1="-83.5" y1="366.8" x2="1449.5" y2="366.8"/>
		</g>
		<g>
			<line class="st1" x1="-83.5" y1="403.8" x2="1449.5" y2="403.8"/>
		</g>
		<g>
			<line class="st1" x1="-83.5" y1="440.8" x2="1449.5" y2="440.8"/>
		</g>
		<g>
			<line class="st1" x1="-83.5" y1="477.8" x2="1449.5" y2="477.8"/>
		</g>
		<g>
			<line class="st1" x1="-83.5" y1="514.8" x2="1449.5" y2="514.8"/>
		</g>
		<g>
			<line class="st1" x1="-83.5" y1="551.8" x2="1449.5" y2="551.8"/>
		</g>
		<g>
			<line class="st1" x1="-83.5" y1="588.8" x2="1449.5" y2="588.8"/>
		</g>
		<line class="st1" x1="32" y1="292.9" x2="32" y2="255.8"/>
		<line class="st1" x1="119.5" y1="293.3" x2="119.5" y2="256.3"/>
		<line class="st1" x1="208.5" y1="293.3" x2="208.5" y2="256.3"/>
		<line class="st1" x1="297" y1="292.9" x2="297" y2="255.8"/>
		<line class="st1" x1="385" y1="292.9" x2="385" y2="255.8"/>
		<line class="st1" x1="472.5" y1="293.3" x2="472.5" y2="256.3"/>
		<line class="st1" x1="561.5" y1="293.3" x2="561.5" y2="256.3"/>
		<line class="st1" x1="650.5" y1="293.3" x2="650.5" y2="256.3"/>
		<line class="st1" x1="-13" y1="329.9" x2="-13" y2="292.8"/>
		<line class="st1" x1="75" y1="329.9" x2="75" y2="292.8"/>
		<line class="st1" x1="162.5" y1="330.3" x2="162.5" y2="293.3"/>
		<line class="st1" x1="251.5" y1="330.3" x2="251.5" y2="293.3"/>
		<line class="st1" x1="340" y1="329.9" x2="340" y2="292.8"/>
		<line class="st1" x1="428" y1="329.9" x2="428" y2="292.8"/>
		<line class="st1" x1="515.5" y1="330.3" x2="515.5" y2="293.3"/>
		<line class="st1" x1="604.5" y1="330.3" x2="604.5" y2="293.3"/>
		<line class="st1" x1="32" y1="366.9" x2="32" y2="329.8"/>
		<line class="st1" x1="119.5" y1="367.3" x2="119.5" y2="330.3"/>
		<line class="st1" x1="208.5" y1="367.3" x2="208.5" y2="330.3"/>
		<line class="st1" x1="297" y1="366.9" x2="297" y2="329.8"/>
		<line class="st1" x1="385" y1="366.9" x2="385" y2="329.8"/>
		<line class="st1" x1="472.5" y1="367.3" x2="472.5" y2="330.3"/>
		<line class="st1" x1="561.5" y1="367.3" x2="561.5" y2="330.3"/>
		<line class="st1" x1="650.5" y1="367.3" x2="650.5" y2="330.3"/>
		<line class="st1" x1="-13" y1="403.9" x2="-13" y2="366.8"/>
		<line class="st1" x1="75" y1="403.9" x2="75" y2="366.8"/>
		<line class="st1" x1="162.5" y1="404.3" x2="162.5" y2="367.3"/>
		<line class="st1" x1="251.5" y1="404.3" x2="251.5" y2="367.3"/>
		<line class="st1" x1="340" y1="403.9" x2="340" y2="366.8"/>
		<line class="st1" x1="428" y1="403.9" x2="428" y2="366.8"/>
		<line class="st1" x1="515.5" y1="404.3" x2="515.5" y2="367.3"/>
		<line class="st1" x1="604.5" y1="404.3" x2="604.5" y2="367.3"/>
		<line class="st1" x1="32" y1="440.9" x2="32" y2="403.8"/>
		<line class="st1" x1="119.5" y1="441.3" x2="119.5" y2="404.3"/>
		<line class="st1" x1="208.5" y1="441.3" x2="208.5" y2="404.3"/>
		<line class="st1" x1="297" y1="440.9" x2="297" y2="403.8"/>
		<line class="st1" x1="385" y1="440.9" x2="385" y2="403.8"/>
		<line class="st1" x1="472.5" y1="441.3" x2="472.5" y2="404.3"/>
		<line class="st1" x1="561.5" y1="441.3" x2="561.5" y2="404.3"/>
		<line class="st1" x1="650.5" y1="441.3" x2="650.5" y2="404.3"/>
		<line class="st1" x1="32" y1="514.9" x2="32" y2="477.8"/>
		<line class="st1" x1="119.5" y1="515.3" x2="119.5" y2="478.3"/>
		<line class="st1" x1="208.5" y1="515.3" x2="208.5" y2="478.3"/>
		<line class="st1" x1="297" y1="514.9" x2="297" y2="477.8"/>
		<line class="st1" x1="385" y1="514.9" x2="385" y2="477.8"/>
		<line class="st1" x1="472.5" y1="515.3" x2="472.5" y2="478.3"/>
		<line class="st1" x1="561.5" y1="515.3" x2="561.5" y2="478.3"/>
		<line class="st1" x1="650.5" y1="515.3" x2="650.5" y2="478.3"/>
		<line class="st1" x1="32" y1="588.9" x2="32" y2="551.8"/>
		<line class="st1" x1="119.5" y1="589.3" x2="119.5" y2="552.3"/>
		<line class="st1" x1="208.5" y1="589.3" x2="208.5" y2="552.3"/>
		<line class="st1" x1="297" y1="588.9" x2="297" y2="551.8"/>
		<line class="st1" x1="385" y1="588.9" x2="385" y2="551.8"/>
		<line class="st1" x1="472.5" y1="589.3" x2="472.5" y2="552.3"/>
		<line class="st1" x1="561.5" y1="589.3" x2="561.5" y2="552.3"/>
		<line class="st1" x1="650.5" y1="589.3" x2="650.5" y2="552.3"/>
		<line class="st1" x1="-13" y1="635.7" x2="-13" y2="588.8"/>
		<line class="st1" x1="75" y1="635.7" x2="75" y2="588.8"/>
		<line class="st1" x1="162.5" y1="636.3" x2="162.5" y2="589.4"/>
		<line class="st1" x1="251.5" y1="636.3" x2="251.5" y2="589.4"/>
		<line class="st1" x1="340" y1="635.7" x2="340" y2="588.8"/>
		<line class="st1" x1="428" y1="635.7" x2="428" y2="588.8"/>
		<line class="st1" x1="515.5" y1="636.3" x2="515.5" y2="589.4"/>
		<line class="st1" x1="604.5" y1="636.3" x2="604.5" y2="589.4"/>
		<line class="st1" x1="-13" y1="477.9" x2="-13" y2="440.8"/>
		<line class="st1" x1="75" y1="477.9" x2="75" y2="440.8"/>
		<line class="st1" x1="162.5" y1="478.3" x2="162.5" y2="441.3"/>
		<line class="st1" x1="251.5" y1="478.3" x2="251.5" y2="441.3"/>
		<line class="st1" x1="340" y1="477.9" x2="340" y2="440.8"/>
		<line class="st1" x1="428" y1="477.9" x2="428" y2="440.8"/>
		<line class="st1" x1="515.5" y1="478.3" x2="515.5" y2="441.3"/>
		<line class="st1" x1="604.5" y1="478.3" x2="604.5" y2="441.3"/>
		<line class="st1" x1="-13" y1="551.9" x2="-13" y2="514.8"/>
		<line class="st1" x1="75" y1="551.9" x2="75" y2="514.8"/>
		<line class="st1" x1="162.5" y1="552.3" x2="162.5" y2="515.3"/>
		<line class="st1" x1="251.5" y1="552.3" x2="251.5" y2="515.3"/>
		<line class="st1" x1="340" y1="551.9" x2="340" y2="514.8"/>
		<line class="st1" x1="428" y1="551.9" x2="428" y2="514.8"/>
		<line class="st1" x1="515.5" y1="552.3" x2="515.5" y2="515.3"/>
		<line class="st1" x1="604.5" y1="552.3" x2="604.5" y2="515.3"/>
		<line class="st1" x1="743" y1="292.9" x2="743" y2="255.8"/>
		<line class="st1" x1="830.5" y1="293.3" x2="830.5" y2="256.3"/>
		<line class="st1" x1="919.5" y1="293.3" x2="919.5" y2="256.3"/>
		<line class="st1" x1="1008" y1="292.9" x2="1008" y2="255.8"/>
		<line class="st1" x1="1096" y1="292.9" x2="1096" y2="255.8"/>
		<line class="st1" x1="1183.5" y1="293.3" x2="1183.5" y2="256.3"/>
		<line class="st1" x1="1272.5" y1="293.3" x2="1272.5" y2="256.3"/>
		<line class="st1" x1="1361.5" y1="293.3" x2="1361.5" y2="256.3"/>
		<line class="st1" x1="698" y1="329.9" x2="698" y2="292.8"/>
		<line class="st1" x1="786" y1="329.9" x2="786" y2="292.8"/>
		<line class="st1" x1="873.5" y1="330.3" x2="873.5" y2="293.3"/>
		<line class="st1" x1="962.5" y1="330.3" x2="962.5" y2="293.3"/>
		<line class="st1" x1="1051" y1="329.9" x2="1051" y2="292.8"/>
		<line class="st1" x1="1139" y1="329.9" x2="1139" y2="292.8"/>
		<line class="st1" x1="1226.5" y1="330.3" x2="1226.5" y2="293.3"/>
		<line class="st1" x1="1315.5" y1="330.3" x2="1315.5" y2="293.3"/>
		<line class="st1" x1="743" y1="366.9" x2="743" y2="329.8"/>
		<line class="st1" x1="830.5" y1="367.3" x2="830.5" y2="330.3"/>
		<line class="st1" x1="919.5" y1="367.3" x2="919.5" y2="330.3"/>
		<line class="st1" x1="1008" y1="366.9" x2="1008" y2="329.8"/>
		<line class="st1" x1="1096" y1="366.9" x2="1096" y2="329.8"/>
		<line class="st1" x1="1183.5" y1="367.3" x2="1183.5" y2="330.3"/>
		<line class="st1" x1="1272.5" y1="367.3" x2="1272.5" y2="330.3"/>
		<line class="st1" x1="1361.5" y1="367.3" x2="1361.5" y2="330.3"/>
		<line class="st1" x1="698" y1="403.9" x2="698" y2="366.8"/>
		<line class="st1" x1="786" y1="403.9" x2="786" y2="366.8"/>
		<line class="st1" x1="873.5" y1="404.3" x2="873.5" y2="367.3"/>
		<line class="st1" x1="962.5" y1="404.3" x2="962.5" y2="367.3"/>
		<line class="st1" x1="1051" y1="403.9" x2="1051" y2="366.8"/>
		<line class="st1" x1="1139" y1="403.9" x2="1139" y2="366.8"/>
		<line class="st1" x1="1226.5" y1="404.3" x2="1226.5" y2="367.3"/>
		<line class="st1" x1="1315.5" y1="404.3" x2="1315.5" y2="367.3"/>
		<line class="st1" x1="743" y1="440.9" x2="743" y2="403.8"/>
		<line class="st1" x1="830.5" y1="441.3" x2="830.5" y2="404.3"/>
		<line class="st1" x1="919.5" y1="441.3" x2="919.5" y2="404.3"/>
		<line class="st1" x1="1008" y1="440.9" x2="1008" y2="403.8"/>
		<line class="st1" x1="1096" y1="440.9" x2="1096" y2="403.8"/>
		<line class="st1" x1="1183.5" y1="441.3" x2="1183.5" y2="404.3"/>
		<line class="st1" x1="1272.5" y1="441.3" x2="1272.5" y2="404.3"/>
		<line class="st1" x1="1361.5" y1="441.3" x2="1361.5" y2="404.3"/>
		<line class="st1" x1="743" y1="514.9" x2="743" y2="477.8"/>
		<line class="st1" x1="830.5" y1="515.3" x2="830.5" y2="478.3"/>
		<line class="st1" x1="919.5" y1="515.3" x2="919.5" y2="478.3"/>
		<line class="st1" x1="1008" y1="514.9" x2="1008" y2="477.8"/>
		<line class="st1" x1="1096" y1="514.9" x2="1096" y2="477.8"/>
		<line class="st1" x1="1183.5" y1="515.3" x2="1183.5" y2="478.3"/>
		<line class="st1" x1="1272.5" y1="515.3" x2="1272.5" y2="478.3"/>
		<line class="st1" x1="1361.5" y1="515.3" x2="1361.5" y2="478.3"/>
		<line class="st1" x1="743" y1="588.9" x2="743" y2="551.8"/>
		<line class="st1" x1="830.5" y1="589.3" x2="830.5" y2="552.3"/>
		<line class="st1" x1="919.5" y1="589.3" x2="919.5" y2="552.3"/>
		<line class="st1" x1="1008" y1="588.9" x2="1008" y2="551.8"/>
		<line class="st1" x1="1096" y1="588.9" x2="1096" y2="551.8"/>
		<line class="st1" x1="1183.5" y1="589.3" x2="1183.5" y2="552.3"/>
		<line class="st1" x1="1272.5" y1="589.3" x2="1272.5" y2="552.3"/>
		<line class="st1" x1="1361.5" y1="589.3" x2="1361.5" y2="552.3"/>
		<line class="st1" x1="698" y1="635.7" x2="698" y2="588.8"/>
		<line class="st1" x1="786" y1="635.7" x2="786" y2="588.8"/>
		<line class="st1" x1="873.5" y1="636.3" x2="873.5" y2="589.4"/>
		<line class="st1" x1="962.5" y1="636.3" x2="962.5" y2="589.4"/>
		<line class="st1" x1="1051" y1="635.7" x2="1051" y2="588.8"/>
		<line class="st1" x1="1139" y1="635.7" x2="1139" y2="588.8"/>
		<line class="st1" x1="1226.5" y1="636.3" x2="1226.5" y2="589.4"/>
		<line class="st1" x1="1315.5" y1="636.3" x2="1315.5" y2="589.4"/>
		<line class="st1" x1="698" y1="477.9" x2="698" y2="440.8"/>
		<line class="st1" x1="786" y1="477.9" x2="786" y2="440.8"/>
		<line class="st1" x1="873.5" y1="478.3" x2="873.5" y2="441.3"/>
		<line class="st1" x1="962.5" y1="478.3" x2="962.5" y2="441.3"/>
		<line class="st1" x1="1051" y1="477.9" x2="1051" y2="440.8"/>
		<line class="st1" x1="1139" y1="477.9" x2="1139" y2="440.8"/>
		<line class="st1" x1="1226.5" y1="478.3" x2="1226.5" y2="441.3"/>
		<line class="st1" x1="1315.5" y1="478.3" x2="1315.5" y2="441.3"/>
		<line class="st1" x1="698" y1="551.9" x2="698" y2="514.8"/>
		<line class="st1" x1="786" y1="551.9" x2="786" y2="514.8"/>
		<line class="st1" x1="873.5" y1="552.3" x2="873.5" y2="515.3"/>
		<line class="st1" x1="962.5" y1="552.3" x2="962.5" y2="515.3"/>
		<line class="st1" x1="1051" y1="551.9" x2="1051" y2="514.8"/>
		<line class="st1" x1="1139" y1="551.9" x2="1139" y2="514.8"/>
		<line class="st1" x1="1226.5" y1="552.3" x2="1226.5" y2="515.3"/>
		<line class="st1" x1="1315.5" y1="552.3" x2="1315.5" y2="515.3"/>
	</g>
</g>
<path class="st2" d="M1031.7,316.5c-12.8,6.5-22.9,14.3-35.9,24.3c-21.4,16.4-21.5,20.3-42.8,36.6c-22.8,17.5-28.3,17.4-35.3,28.4
	c-7.1,11.2-12.9,29.3-7.3,42.7c12,28.9,80.8,19.7,93.6,18.1c40.5-5,50.2-18,91.7-18.1c12,0,23.5,1.5,46.6,4.6
	c56.1,7.5,60.7,14.5,84.6,11.8c9.7-1.1,46.4-5.2,61.5-31.4c5.5-9.5,6.6-19.2,7.9-30.4c1.5-13.3,3.5-30.2-4.2-46.7
	c-9.6-20.8-29.2-29.8-43.8-36.6c-6.8-3.2-18.2-7.7-54.6-12.7c-28.1-3.9-45.6-6.3-70.7-6C1087.5,301.4,1060.7,301.7,1031.7,316.5z"/>
<g>
	<path class="st0" d="M1062.3,539.8L1062.3,539.8c-1.3,0-2.4-1.1-2.4-2.4v-8.2c0-1.3,1.1-2.4,2.4-2.4l0,0c1.3,0,2.4,1.1,2.4,2.4v8.2
		C1064.7,538.8,1063.6,539.8,1062.3,539.8z"/>
	<path class="st0" d="M1055.5,536.6h-4.1v-6.5h4.1c1.3,0,2.4,1.1,2.4,2.4v1.7C1057.9,535.5,1056.8,536.6,1055.5,536.6z"/>
	<path class="st0" d="M1059.2,556.5L1059.2,556.5c-1.3,0-2.4-1.1-2.4-2.4v-41.6c0-1.3,1.1-2.4,2.4-2.4l0,0c1.3,0,2.4,1.1,2.4,2.4
		v41.6C1061.5,555.5,1060.5,556.5,1059.2,556.5z"/>
</g>
<path class="st2" d="M126.8,499.1c2.4-1,6.7-2.8,11.5-6c20.2-13.6,19-31.1,40.5-52.5c9.7-9.7,16.9-13,21-14.5
	c11.3-4.2,20.9-3.3,23.5-3c3.5,0.4,26.5,3.1,31.5,17.7c4.7,13.8-9.3,30.8-22.2,38.2c-11.6,6.6-13.7,0.6-33.2,7.8
	c-17.4,6.4-21.8,13.4-35.8,13.2c-4.7-0.1-6.5-0.9-16.2-1.2C138.6,498.4,131.5,498.8,126.8,499.1z"/>
<rect x="688.5" y="145.9" class="st3" width="726" height="23.4"/>
<rect x="108.3" y="223.9" class="st3" width="23.4" height="277.2"/>
<rect x="46.6" y="560.2" class="st3" width="23.4" height="154.5"/>
<g id="Layer_3">
</g>
<g>
	<path class="st4" d="M-639.3-454.6c0,0-100-205-155-102s52,205,52,205s-39.9-12.7-78-1c-12.3,3.8-19.2,18.1-6.4,18.1l163.5,0.4
		l-76.2-140.5l48,88"/>
	<path class="st4" d="M-317.5-454.5c0,0,100-205,155-102s-52,205-52,205s39.9-12.7,78-1c12.3,3.8,19.2,18.1,6.4,18.1l-163.5,0.4
		l76.2-140.5l-48,88"/>
	<path class="st4" d="M-248.2-410.4l-53-158.8c-2.7-8.1-5.9-15.9-9.6-23.3c-3.7-50.7-20.6-102.2-47.4-135.4
		c-47-58.5-112.1-45.2-199.2-27.5c-61.3,12.5-78.4,32.9-84.3,40.7c-25.5,33.6-36.1,87.3-33.3,136.4c-2.9,7.5-5.4,15.2-7.4,23.2
		l-36.9,149.4c-8.9,36,16,71.3,50.3,71.3h371.8C-261-334.5-235.9-373.5-248.2-410.4z"/>
	<path class="st5" d="M-227-574c-41,39-54,61-54,61l9,23l-6,8l12.5,94.4L-218-475"/>
	<path class="st5" d="M-742-521c41,39,23,10,23,10l21-3l6,8l-12.5,94.4L-752-499"/>
	<g>
		<line class="st1" x1="-638.5" y1="-398.5" x2="-618.5" y2="-466.5"/>
		<path class="st4" d="M-634.5-413.5c30,33,69,58,69,58s20.7-2.8,36.6,3.9c9,3.8,6.4,17.2-3.4,17.2L-616-334
			c0,0-79.9-15.1-82.2-82.3"/>
	</g>
	<g>
		<line class="st1" x1="-327.7" y1="-398.5" x2="-347.7" y2="-466.5"/>
		<path class="st4" d="M-331.7-413.5c-30,33-69,58-69,58s-27.3-3.6-43.4,7.5c-6,4.1-3.1,13.5,4.2,13.5l89.7,0.4
			c0,0,79.9-15.1,82.2-82.3"/>
	</g>
	<path class="st4" d="M-647.5-699.5c0.2-5.6,1.8-28.9,20-45c20.7-18.2,54.3-19.6,82-2"/>
	<path class="st4" d="M-351.5-711.5c-1.3-30.2-21.7-55.5-49-62c-22.1-5.2-45.9,2.6-62,20"/>
	<path class="st4" d="M-364.5-682.5c-32.7-8.2-82.6-16.6-143-11c-53.1,4.9-95.8,18.9-125,31"/>
	<g>
		<path class="st6" d="M-622.5-723.5l5.8-6.2c7.8-8.3,18.4-13.4,29.8-14.2l6.9-0.5l-19.8,12L-622.5-723.5z"/>
		<path d="M-600.8-740.4c-9.2,3.4-11.6,7.6-11.3,9.7c0.3,1.8,4.8,1.2,7.4,0.5c7.2-2,13.9-9,13.5-11.3
			C-591.5-743.5-597.4-741.6-600.8-740.4z"/>
	</g>
	<g>
		<path class="st6" d="M-424.9-750.8l8.5-0.6c11.4-0.7,22.6,2.8,31.5,10l5.4,4.3l-22.6-4.8L-424.9-750.8z"/>
		<path d="M-405.3-743.4c8.9,4,13.6,2.7,14.9,1c1.1-1.4-2.6-4.2-5-5.6c-6.5-3.6-16.3-3.3-17.6-1.4
			C-414.2-747.7-408.7-744.9-405.3-743.4z"/>
	</g>
	<line class="st1" x1="-518.5" y1="-738.5" x2="-506.5" y2="-728.5"/>
	<line class="st1" x1="-490.5" y1="-730.5" x2="-485.5" y2="-742.5"/>
	<line class="st1" x1="-561.5" y1="-346.5" x2="-549.3" y2="-334.1"/>
	<line class="st1" x1="-546.5" y1="-348.5" x2="-535.3" y2="-334.5"/>
	<line class="st1" x1="-536.5" y1="-349.5" x2="-524.4" y2="-339.2"/>
	<line class="st1" x1="-409.4" y1="-346.5" x2="-421.5" y2="-334.1"/>
	<line class="st1" x1="-424.4" y1="-348.5" x2="-435.5" y2="-334.5"/>
	<line class="st1" x1="-434.4" y1="-349.5" x2="-446.5" y2="-339.2"/>
</g>
<polygon class="st7" points="472.5,589 472.5,552 428.5,552 428.5,515 472.5,515 472.5,478 515.5,478 515.4,440.8 472.4,440.8 
	472.4,403.9 427.9,403.9 428,366.8 385,366.8 385,329.8 340,329.8 340,293 385,292.5 385,255.5 427.5,255.5 473,256 515.5,255.5 
	515.5,215 604.5,215 604.5,256 650,256 650,293 698,293 698,330 743,330 743,367 786,367 786,404 831,404 831,441 786,441 
	786,477.9 830.6,478.2 830.5,515 873,515 873,552 830.5,552 830.5,588.6 786,588.5 786,648.5 515.7,648.5 515.7,589 "/>
<path class="st2" d="M634.7,240.3c-7.5,19.1-15.2,19.4-18,32c-4,18.3,6.8,42.7,24.7,52c17.1,8.9,35.8,1.5,70-12.7
	c38.8-16.1,35.1-22.6,58.7-29.3c38.3-11,50.2,5.6,85.3-8.7c9.9-4,32.8-13.3,39.3-34c3.6-11.4,0.6-21-4.7-37.3
	c-7.6-23.5-17.1-52.8-42.7-67.3c-6.5-3.7-22-5.2-52.7-8c-49.3-4.5-74.2-6.7-85.3-2c-18.8,7.9-30.3,21.9-44.7,39.3
	c-7.9,9.6-16.6,21.2-22,38.7C637.5,219.7,640.9,224.4,634.7,240.3z"/>
<rect x="-18.9" y="-19.9" class="st3" width="1377.9" height="91.9"/>
<rect x="-29.5" y="184.4" class="st3" width="723" height="23.4"/>
<rect x="786" y="84" class="st3" width="723" height="23.4"/>
<path class="st3" d="M1747.4,151.8c10.6,0,19.3,8.6,19.3,19.3h23.4v-4.2c0-21.3-17.2-38.5-38.5-38.5h-4.4L1747.4,151.8z"/>
<path class="st3" d="M1466.3,225.8c10.6,0,19.3,8.6,19.3,19.3h23.4v-4.2c0-21.3-17.2-38.5-38.5-38.5h-4.4L1466.3,225.8z"/>
<path class="st3" d="M1010,169.3c10.6,0,19.3,8.6,19.3,19.3h23.4v-4.2c0-21.3-17.2-38.5-38.5-38.5h-4.4L1010,169.3z"/>
<path class="st3" d="M131.7,227.1c0-10.6,8.6-19.3,19.3-19.3v-23.4h-4.2c-21.3,0-38.5,17.2-38.5,38.5v4.4L131.7,227.1z"/>
<path class="st3" d="M639.6,145.8c-10.6,0-19.3-8.6-19.3-19.3l0,0v-4c0-21.3-17.2-38.5-38.5-38.5h-4.4l0.2,23.4
	c10.6,0,19.3,8.6,19.3,19.3l0,0v4c0,21.3,17.2,38.5,38.5,38.5h4.4L639.6,145.8z"/>
<path class="st3" d="M1857.9,99.8c10.6,0,19.3,8.6,19.3,19.3h23.4v-4.2c0-21.3-17.2-38.5-38.5-38.5h-4.4L1857.9,99.8z"/>
<path class="st3" d="M1909.9,241.3c10.6,0,19.3,8.6,19.3,19.3h23.4v-4.2c0-21.3-17.2-38.5-38.5-38.5h-4.4L1909.9,241.3z"/>
<path class="st3" d="M770.5,84c-21.3,0-38.5,17.2-38.5,38.5v23.4l0,0v19.2c0,10.6-8.6,19.3-19.3,19.3h-19.2v23.4h23.4
	c21.3,0,38.5-17.2,38.5-38.5v-23.4l0,0v-19.2c0-10.6,8.6-19.3,19.3-19.3h19.2V84H770.5z"/>
<rect x="-32" y="84" class="st3" width="610" height="23.4"/>
<rect x="639.8" y="145.9" class="st3" width="370" height="23.4"/>
<rect x="1029.3" y="188.6" class="st3" width="23.4" height="459.9"/>
<rect x="1091.3" y="621.5" class="st3" width="23.4" height="100"/>
<path class="st3" d="M1076.2,580.2h-4.4l0,0c-10.5-0.1-19-8.7-19-19.3h-23.4v4.2c0,21.3,17.2,38.5,38.5,38.5h4.4l0,0
	c10.5,0.1,19,8.7,19,19.3h23.4v-4.2C1114.7,597.4,1097.4,580.2,1076.2,580.2z"/>
<path class="st3" d="M108.3,499.9c0,10.5-8.4,19.1-18.9,19.3l0,0h-4.2c-21.3,0-38.5,17.2-38.5,38.5v4.4l23.4-0.2
	c0-10.5,8.4-19.1,18.9-19.3l0,0h4.2c21.3,0,38.5-17.2,38.5-38.5v-4.4L108.3,499.9z"/>
<path class="st3" d="M106.5,500.9v-2.3c0-0.6,0.5-1.1,1.1-1.1h27.1c0.6,0,1.1,0.5,1.1,1.1v2.3c0,0.6-0.5,1.1-1.1,1.1h-27.1
	C107,501.9,106.5,501.5,106.5,500.9z"/>
<g>
	<path class="st0" d="M110.3,498c-12.8,0-23.2,10.4-23.2,23.2c0,12.8,10.4,23.2,23.2,23.2s23.2-10.4,23.2-23.2
		C133.5,508.4,123.1,498,110.3,498z M127.9,519.5h-13.6l9.6-9.6C126.2,512.5,127.6,515.9,127.9,519.5z M112.2,503.6
		c3.6,0.4,6.8,1.8,9.4,4l-9.4,9.4V503.6z M108.9,517.3l-9.8-9.8c2.7-2.2,6.1-3.7,9.8-4V517.3z M108.9,538.8c-3.7-0.3-7.1-1.7-9.8-4
		l9.8-9.8V538.8z M112.2,525.4l9.4,9.4c-2.6,2.2-5.9,3.6-9.4,4V525.4z M96.7,509.9l9.6,9.6H92.7C93.1,515.9,94.5,512.5,96.7,509.9z
		 M92.7,522.8h13.6l-9.6,9.6C94.5,529.8,93.1,526.5,92.7,522.8z M124,532.4l-9.6-9.6H128C127.6,526.5,126.2,529.8,124,532.4z"/>
	<circle class="st0" cx="110.3" cy="521.2" r="7.6"/>
</g>
<path class="st3" d="M152.1,210.8h-2.3c-0.6,0-1.1-0.5-1.1-1.1v-27.1c0-0.6,0.5-1.1,1.1-1.1h2.3c0.6,0,1.1,0.5,1.1,1.1v27.1
	C153.2,210.3,152.7,210.8,152.1,210.8z"/>
<path class="st3" d="M105.3,228.4v-2.3c0-0.6,0.5-1.1,1.1-1.1h27.1c0.6,0,1.1,0.5,1.1,1.1v2.3c0,0.6-0.5,1.1-1.1,1.1h-27.1
	C105.8,229.5,105.3,229,105.3,228.4z"/>
<path class="st3" d="M43.7,563.2v-2.3c0-0.6,0.5-1.1,1.1-1.1h27.1c0.6,0,1.1,0.5,1.1,1.1v2.3c0,0.6-0.5,1.1-1.1,1.1H44.8
	C44.2,564.3,43.7,563.8,43.7,563.2z"/>
<path class="st3" d="M640.9,172.3h-2.3c-0.6,0-1.1-0.5-1.1-1.1v-27.1c0-0.6,0.5-1.1,1.1-1.1h2.3c0.6,0,1.1,0.5,1.1,1.1v27.1
	C642,171.8,641.5,172.3,640.9,172.3z"/>
<path class="st3" d="M579.1,110.3h-2.3c-0.6,0-1.1-0.5-1.1-1.1V82.1c0-0.6,0.5-1.1,1.1-1.1h2.3c0.6,0,1.1,0.5,1.1,1.1v27.1
	C580.2,109.9,579.7,110.3,579.1,110.3z"/>
<path class="st3" d="M795.1,110.3h-2.3c-0.6,0-1.1-0.5-1.1-1.1V82.1c0-0.6,0.5-1.1,1.1-1.1h2.3c0.6,0,1.1,0.5,1.1,1.1v27.1
	C796.2,109.9,795.7,110.3,795.1,110.3z"/>
<path class="st3" d="M694.6,210.8h-2.3c-0.6,0-1.1-0.5-1.1-1.1v-27.1c0-0.6,0.5-1.1,1.1-1.1h2.3c0.6,0,1.1,0.5,1.1,1.1v27.1
	C695.7,210.3,695.2,210.8,694.6,210.8z"/>
<path class="st3" d="M1011,172.3h-2.3c-0.6,0-1.1-0.5-1.1-1.1v-27.1c0-0.6,0.5-1.1,1.1-1.1h2.3c0.6,0,1.1,0.5,1.1,1.1v27.1
	C1012.1,171.8,1011.6,172.3,1011,172.3z"/>
<path class="st3" d="M1026.4,189.7v-2.3c0-0.6,0.5-1.1,1.1-1.1h27.1c0.6,0,1.1,0.5,1.1,1.1v2.3c0,0.6-0.5,1.1-1.1,1.1h-27.1
	C1026.8,190.8,1026.4,190.3,1026.4,189.7z"/>
<path class="st3" d="M1026.4,562.1v-2.3c0-0.6,0.5-1.1,1.1-1.1h27.1c0.6,0,1.1,0.5,1.1,1.1v2.3c0,0.6-0.5,1.1-1.1,1.1h-27.1
	C1026.8,563.1,1026.4,562.7,1026.4,562.1z"/>
<path class="st3" d="M1088.3,624v-2.3c0-0.6,0.5-1.1,1.1-1.1h27.1c0.6,0,1.1,0.5,1.1,1.1v2.3c0,0.6-0.5,1.1-1.1,1.1h-27.1
	C1088.8,625.1,1088.3,624.6,1088.3,624z"/>
<path class="st2" d="M327.5,340c-21.1-1.2-36,6.6-39.5,8.5c-3.7,2-10.3,5.7-16.5,13c-1.2,1.4-7.4,8.8-11,20.5
	c-2.7,9-7.8,25.2,0,36.5c9.7,14.2,34.1,12.3,50.5,11c8.4-0.7,15.1-1.2,23-5c15.3-7.3,22.5-20.4,27-28.5c7.4-13.5,14.8-26.9,9.5-38.5
	C363.4,342,338.8,340.6,327.5,340z"/>
</svg>
