<?xml version="1.0" encoding="utf-8"?>
<!-- Generator: Adobe Illustrator 22.0.1, SVG Export Plug-In . SVG Version: 6.00 Build 0)  -->
<svg version="1.1" id="Layer_1" xmlns="http://www.w3.org/2000/svg" xmlns:xlink="http://www.w3.org/1999/xlink" x="0px" y="0px"
	 viewBox="0 0 1340 630" style="enable-background:new 0 0 1340 630;" xml:space="preserve">
<style type="text/css">
	.st0{fill:#9AAF92;stroke:#000000;stroke-miterlimit:10;}
	.st1{fill:#84CE9B;stroke:#000000;stroke-miterlimit:10;}
	.st2{fill:#CCB98D;stroke:#000000;stroke-miterlimit:10;}
	.st3{fill:#F2DCA5;stroke:#000000;stroke-miterlimit:10;}
	.st4{fill:#414143;}
	.st5{fill:#9AAF92;stroke:#9AAF92;stroke-miterlimit:10;}
	.st6{fill:none;}
	.st7{fill:none;stroke:#000000;stroke-miterlimit:10;}
	.st8{fill:#9AAF92;}
	.st9{fill:#E8E0CD;stroke:#000000;stroke-miterlimit:10;}
	.st10{fill:#424143;stroke:#E8E0CD;stroke-miterlimit:10;}
	.st11{fill:#424143;}
	.st12{fill:#F2F2F2;stroke:#000000;stroke-miterlimit:10;}
	.st13{stroke:#000000;stroke-miterlimit:10;}
	.st14{fill:#84CE9B;}
	.st15{fill:#DD796F;}
	.st16{display:none;}
	.st17{display:inline;fill:#84CE9B;stroke:#000000;stroke-miterlimit:10;}
</style>
<path class="st0" d="M412.8,173c-0.1-1.5-1.1-2.7-2.5-3.2c-0.2-0.1-0.5-0.1-0.8-0.2c-2.1-6.5-10.1-9.5-16.7-9.5h-16.1
	c-7.2,0-13.4,5.5-13.8,12.8c-0.2,4.4,1.7,8.4,4.9,11c1.2,1,1.7,2.5,1.2,4l-2.4,8.1h2.7l4.9-7.9c0.4-0.7,1.2-1.1,2.1-1.1l0,0h16.8
	h0.1c0.8,0,1.6,0.4,2.1,1.1l4.9,7.9h2.7l-2.6-8.7c-0.3-1.2-0.2-2.8,1-3.2c3.2-1.2,5.7-2.5,7.2-4.8l1.5-0.5c1.8-0.3,3-1.9,2.9-3.7
	L412.8,173z"/>
<path class="st1" d="M973.3,418.2c-1.9-0.4,1.5-10.6-4.5-17.2c-2.7-3-6.4-4-13.8-5.8c-11.9-3-16.2-1.3-20.6-5.6
	c-0.4-0.4-4.7-4.8-3.5-8.9c1.1-3.6,5.7-4.9,6.9-5.2c2.7-0.8,8.1-1.5,20.8,5.7c12.5,7.1,18.8,10.6,20.7,17.9
	C981.8,408.5,975.3,418.5,973.3,418.2z"/>
<path class="st1" d="M981.3,421c-3.6,1-13.3-21.9-14.5-24.7c-0.3-0.7-0.6-1.4-1-2.4c-1.5-3.9-3.2-9.8-7.4-27.1
	c-8-33.6-8.2-39.1-5.5-40.8c3.7-2.3,11.2,3.4,11.7,3.8c11.9,9.4,4.1,21.7,13,50.3c0,0,6.9,22.2,5,37.8
	C982.6,418.8,982.3,420.7,981.3,421z"/>
<path class="st1" d="M983.2,417.6c-1.5,0.1-3.5-9.8-4.3-17.3c-0.4-3.7-1.3-13.9,0.8-28.3c1.6-11,2.6-17.2,7-24
	c3.6-5.7,10.8-13.7,14.3-12.2c4.1,1.8,3.9,17.1-2.2,28.8c-4,7.8-7.8,8.7-10.5,17.2c-1.2,3.8-0.8,4.7-2,16.7
	C985,411.2,984.4,417.6,983.2,417.6z"/>
<path class="st1" d="M987.2,418.2c-1.9-0.2-4.2-8-2.7-15.7c2.2-10.8,10.1-10.8,17.7-22.8c8.4-13.3,3.8-21.4,14.2-32.3
	c2.1-2.3,7.3-7.7,10.8-6.3c4.7,1.9,5.9,16.1,1,27.2c-3.3,7.6-9.3,12.9-21.2,23.5c-6,5.3-8.7,7.1-12.2,12.2
	C989.6,411.7,989,418.3,987.2,418.2z"/>
<path class="st1" d="M993.8,417.5c-1,0-1.6-5.2-3-11.5c-2.5-10.9-4.7-12-7.7-21.8c-2.5-8.4-3.1-15.2-4.1-28.9
	c-0.9-12.4-1.4-18.6,0.9-19.5c2.7-1,8.3,5.6,11.5,11.8c4.9,9.5,1.6,12.8,4.2,37.2c0.5,4.9,1.5,12.3,0.5,22.3
	C996,408.5,995.2,417.5,993.8,417.5z"/>
<path class="st1" d="M997.3,416.8c-1.5-0.4-0.9-7.1-0.2-14.2c2.5-25.1,10.3-34.6,13.2-37.7c1.9-2,3.9-4.2,5.2-3.7
	c3.2,1.4-2.3,20.2-5.7,30C1006.4,401.1,999.8,417.5,997.3,416.8z"/>
<rect x="1154" y="441.8" class="st0" width="35.8" height="3.3"/>
<path class="st2" d="M217.9,195h-8.2c-1.9,0-3.4-1.5-3.4-3.4V107c0-1.9,1.5-3.4,3.4-3.4h8.2c1.9,0,3.4,1.5,3.4,3.4v84.6
	C221.3,193.5,219.8,195,217.9,195z"/>
<path class="st2" d="M237.4,195h-12.7c-1.9,0-3.4-1.5-3.4-3.4v-75.2c0-1.9,1.5-3.4,3.4-3.4h12.7c1.9,0,3.4,1.5,3.4,3.4v75.2
	C240.7,193.5,239.2,195,237.4,195z"/>
<path class="st2" d="M296,195h-8.2c-1.9,0-3.4-1.5-3.4-3.4v-75.2c0-1.9,1.5-3.4,3.4-3.4h8.2c1.9,0,3.4,1.5,3.4,3.4v75.2
	C299.4,193.5,297.9,195,296,195z"/>
<path class="st2" d="M248.6,195h-4.5c-1.9,0-3.4-1.5-3.4-3.4v-61c0-1.9,1.5-3.4,3.4-3.4h4.5c1.9,0,3.4,1.5,3.4,3.4v61
	C251.9,193.5,250.4,195,248.6,195z"/>
<path class="st2" d="M315.2,195h-12.5c-1.9,0-3.4-1.5-3.4-3.4v-47.5c0-1.9,1.5-3.4,3.4-3.4h12.5c1.9,0,3.4,1.5,3.4,3.4v47.5
	C318.5,193.5,317,195,315.2,195z"/>
<path class="st2" d="M262.3,194.8l-7.9-2.2c-1.8-0.5-2.8-2.3-2.3-4.1l17.3-63.2c0.5-1.8,2.3-2.8,4.1-2.3l7.9,2.2
	c1.8,0.5,2.8,2.3,2.3,4.1l-17.3,63.2C265.9,194.2,264.1,195.3,262.3,194.8z"/>
<polygon class="st0" points="187,195 197.2,181.5 206.4,146.8 206.4,195 "/>
<polygon class="st0" points="338,195 327.8,181.5 318.6,146.8 318.6,195 "/>
<path class="st2" d="M330.6,311.8h-4.1c-1.9,0-3.4-1.5-3.4-3.4v-64.6c0-1.9,1.5-3.4,3.4-3.4h4.1c1.9,0,3.4,1.5,3.4,3.4v64.6
	C334,310.3,332.5,311.8,330.6,311.8z"/>
<path class="st2" d="M347,311.8h-9.6c-1.9,0-3.4-1.5-3.4-3.4v-66.8c0-1.9,1.5-3.4,3.4-3.4h9.6c1.9,0,3.4,1.5,3.4,3.4v66.8
	C350.3,310.3,348.8,311.8,347,311.8z"/>
<path class="st2" d="M385.3,311.8h-11.6c-1.9,0-3.4-1.5-3.4-3.4v-57.7c0-1.9,1.5-3.4,3.4-3.4h11.6c1.9,0,3.4,1.5,3.4,3.4v57.7
	C388.6,310.3,387.1,311.8,385.3,311.8z"/>
<path class="st2" d="M353.7,311.8L353.7,311.8c-1.9,0-3.4-1.5-3.4-3.4v-37.3c0-1.9,1.5-3.4,3.4-3.4l0,0c1.9,0,3.4,1.5,3.4,3.4v37.3
	C357,310.3,355.5,311.8,353.7,311.8z"/>
<path class="st2" d="M360.4,311.8L360.4,311.8c-1.9,0-3.4-1.5-3.4-3.4v-37.3c0-1.9,1.5-3.4,3.4-3.4l0,0c1.9,0,3.4,1.5,3.4,3.4v37.3
	C363.7,310.3,362.2,311.8,360.4,311.8z"/>
<path class="st2" d="M367,311.8L367,311.8c-1.9,0-3.4-1.5-3.4-3.4v-37.3c0-1.9,1.5-3.4,3.4-3.4l0,0c1.9,0,3.4,1.5,3.4,3.4v37.3
	C370.4,310.3,368.9,311.8,367,311.8z"/>
<polygon class="st0" points="303.8,311.3 314,297.8 323.2,263.1 323.2,311.3 "/>
<polygon class="st0" points="408,311.3 397.8,297.8 388.6,263.1 388.6,311.3 "/>
<g id="Layer_2_1_">
</g>
<rect x="208.3" y="283.5" class="st0" width="45" height="29"/>
<path class="st3" d="M70,468.5c0,0-58.4,2.3-58.4-9.8c0-12.2,5.7-23.1,7.4-24.2c3-2,60,1,61,14S70,468.5,70,468.5z"/>
<path class="st0" d="M37.8,467.6h446.4c15,0,27.1,12.2,27.1,27.1v2c0,15-12.2,27.1-27.1,27.1H19.9c-5.1,0-9.3-4.2-9.3-9.3v-19.8
	C10.6,479.8,22.8,467.6,37.8,467.6z"/>
<path class="st2" d="M11,368v144c0,6.6,5.3,11.9,11.9,11.9h476.8h23.6v41.7v66H513l-9.1-73.2c-1.1-8.5-8.3-14.8-16.8-14.8h-452
	c-9.1,0-16.8,7-17.6,16.1L11,631.5H-1v-66v-41.7v-161h6.7C8.6,362.8,11,365.1,11,368z"/>
<path class="st0" d="M501,471.5L501,471.5c-3.8-2.5-8.6-3.9-13.5-3.9H73.2L61,467.5c-3.5,6.2-47.7,85.5-22,115
	c4.5,5.1,10.6,8.5,20,14c8.1,4.8,27.7,15.3,57,20c43,7,65.3-5.2,126-9c43.5-2.7,37.2,3.2,89,1c47.5-2,49.3-6.8,113-13
	c75.6-7.3,95.1-2.7,104-17C551.9,572.3,564,525.5,501,471.5z"/>
<path class="st0" d="M423.3,202.5h-239c-7.2,0-13-3.6-13-8l0,0h265l0,0C436.3,198.9,430.5,202.5,423.3,202.5z"/>
<path class="st4" d="M479.1,631.6v-15.9v-0.2c0.2-4.3,3.6-7.5,7.9-7.5s7.7,3.3,7.9,7.5v0.3l0,0v15.7h-15.8V631.6z"/>
<g>
	<circle class="st5" cx="987.3" cy="174.6" r="56.2"/>
	<line class="st6" x1="991.3" y1="149.8" x2="987.3" y2="174.7"/>
	<line class="st7" x1="991.1" y1="150.9" x2="987.3" y2="174.7"/>
	<line class="st6" x1="1016.2" y1="203.1" x2="987.3" y2="174.7"/>
	<line class="st7" x1="1015.4" y1="202.3" x2="987.3" y2="174.7"/>
	<circle class="st8" cx="987.3" cy="174.7" r="2.8"/>
	<line class="st7" x1="987.3" y1="126.4" x2="987.3" y2="130.9"/>
	<g>
		<line class="st7" x1="1011.5" y1="132.9" x2="1009.2" y2="136.8"/>
		<line class="st7" x1="1029.4" y1="151.1" x2="1025.6" y2="153.3"/>
	</g>
	<g>
		<line class="st7" x1="1028.9" y1="198.9" x2="1025.1" y2="196.7"/>
		<line class="st7" x1="1010.7" y1="216.8" x2="1008.6" y2="213"/>
	</g>
	<g>
		<line class="st7" x1="962.8" y1="216.1" x2="965.1" y2="212.3"/>
		<line class="st7" x1="945" y1="197.8" x2="948.9" y2="195.7"/>
	</g>
	<g>
		<line class="st7" x1="945.9" y1="150" x2="949.8" y2="152.3"/>
		<line class="st7" x1="964.3" y1="132.3" x2="966.4" y2="136.1"/>
	</g>
	<line class="st7" x1="987.3" y1="218.2" x2="987.3" y2="222.7"/>
	<line class="st7" x1="1035.6" y1="174.1" x2="1031.1" y2="174.1"/>
	<line class="st7" x1="943.9" y1="174.1" x2="939.4" y2="174.1"/>
	<circle class="st7" cx="987.3" cy="174.5" r="56.8"/>
</g>
<path class="st0" d="M831.2,115.1H586.6c-2.6,0-4.7-2.1-4.7-4.7l0,0c0-2.6,2.1-4.7,4.7-4.7h244.6c2.6,0,4.7,2.1,4.7,4.7l0,0
	C835.9,113,833.8,115.1,831.2,115.1z"/>
<rect x="633.5" y="103.9" class="st9" width="19.4" height="25.6"/>
<rect x="766.8" y="103.9" class="st9" width="19.4" height="25.6"/>
<path class="st6" d="M704.1,261c-0.1,0.1-0.2,0.1-0.4,0.2c1.7,0.4,3.4,0.6,5.1,0.6c2.8,0,5.6-0.6,8.2-1.7c0.1-0.1,0.2-0.1,0.4-0.2
	c-1.7-0.4-3.4-0.6-5.1-0.6C709.5,259.3,706.7,259.8,704.1,261z"/>
<path class="st6" d="M708.9,314.2c-6,0-11.9-1.1-17.6-3.1v2c0,2.9,0.6,5.7,1.7,8.4c0.5,1.3,1.2,2.5,1.9,3.7c0.8,1.1,1.6,2.2,2.6,3.2
	s2,1.9,3.1,2.6c1.1,0.8,2.3,1.4,3.6,2c2.6,1.1,5.3,1.7,8.2,1.7c2.8,0,5.6-0.6,8.2-1.7c1.2-0.5,2.4-1.2,3.6-2
	c1.1-0.8,2.2-1.7,3.1-2.6c1-1,1.8-2,2.6-3.2s1.4-2.4,1.9-3.7c0.9-2.2,1.5-4.1,1.6-12C725.3,312.7,716.9,314.2,708.9,314.2
	L708.9,314.2z"/>
<g>
	<path class="st9" d="M804.9,485.5c-60.4-3.5-123.5-1.8-184.2-2.1c0.6-120.5-2.1-240.1-2.5-360.4c60.5,0.5,121,1.1,181.5,0
		C801.5,244.5,806.2,363.7,804.9,485.5z"/>
	<g>
		<path class="st10" d="M709.8,173.9C709.6,171.4,709.6,171.5,709.8,173.9c-48.1,0.9-55.9,36.1-57.9,77.3
			c-0.3,5.9,0.6,20.3,0.6,27.3c0,4.6,0.6,9.6,1,14.1c9.2-17.8,20.2-30.7,37-41.9c-0.1-3.7,0.3-8.2,1.2-11.5c0.5-2,1.2-2.7,1.9-4.2
			c0.7-1.4,1.6-2.3,2.5-3.4s1.9-1.9,3.1-2.7c1.2-0.8,2.3-1.6,3.6-2c2.6-0.9,5.3-1.7,8.1-1.7c2.9,0,5.5,0.7,8.3,1.7
			c1.3,0.4,2.5,1.2,3.6,2s2.2,1.6,3.2,2.6s1.9,1.9,2.7,3.2s1.5,2.1,2,3.8c1,3.5,1.7,5.3,2,9.9c0.1,0.8,0.1,0.8,0.1,5.2
			c0.1,4.4,0.6,19.1,0.5,25.8c0,2.6-0.6,6.2-1.6,8.7c-0.5,1.2-1.1,2.6-1.8,3.7s-1.6,2.2-2.5,3.2s-2,1.8-3,2.6
			c-1.1,0.8-2.1,1.3-3.2,1.9c-0.1,0.1-0.2,0.1-0.4,0.2c-2.7,0.8-5.3,1.6-8.2,1.7c-1.7,0.1-3.4-0.3-5.1-0.5c-1.1,0.6-2.2,1.1-3.2,1.9
			s-2.1,1.6-3,2.6s-1.8,2-2.6,3.2c-0.7,1.3-1.5,2.2-1.8,3.8c-0.8,3.2-1.6,5.2-1.6,8.8c-0.1,9.6,0.2,20,0,29.9
			c6.3,0.8,11.4,3.6,18,2.7c-0.2,0.3-0.2,0.3,0,0c8.8-1.3,16.6-0.3,25-5.4c17.1-10.3,28.8-22.1,36.8-41.9c3.1-7.7,3.6-19.5,3.7-29.3
			c0-7-0.1-22.8-0.8-29.3C773.2,204.3,757.9,173,709.8,173.9z"/>
		<path class="st10" d="M775.1,308.1c-9.2,17.9-20.6,30.6-37.6,41.5c0,3.7-0.5,8.1-1.5,11.4c-0.6,1.9-1.3,2.7-2.1,4.1
			s-1.7,2.3-2.7,3.4s-2,1.9-3.2,2.7c-1.2,0.8-2.3,1.5-3.6,1.9c-2.7,0.8-5.3,1.5-8.1,1.4s-5.5-0.7-8.2-1.5c-1.3-0.4-2.5-1.1-3.6-1.9
			s-2.2-1.6-3.2-2.6s-1.9-2-2.6-3.3c-0.7-1.3-1.5-2.1-1.9-3.8c-0.9-3.4-1.4-5.3-1.7-9.8c0-0.8,0-0.8,0-5.1c0-4.3-0.2-18.9-0.1-25.5
			c0-2.5,0.6-6.1,1.6-8.6c0.5-1.2,1.1-2.6,1.9-3.7c0.7-1.1,1.6-2.2,2.5-3.2s2-1.9,3-2.6c1.1-0.8,2.1-1.3,3.2-1.9
			c0.1-0.1,0.2-0.1,0.4-0.2c2.7-0.8,5.3-1.6,8.2-1.7c1.7-0.1,3.4,0.3,5.1,0.5c1.1-0.6,2.2-1.1,3.2-1.9s2.1-1.6,3-2.6s1.8-2,2.5-3.2
			c0.7-1.3,1.4-2.2,1.8-3.8c0.8-3.2,1.6-5.3,1.6-9c0-9.7-0.5-20.2-0.5-30.2c-6.3-0.7-11.4-3.7-18-2.7c0.2-0.3,0.2-0.3,0,0
			c-8.8,1.4-16.5,0.5-24.8,5.7c-16.9,10.6-28.1,22.6-36.2,42.3c-3.1,7.7-3.6,19.3-3.8,29c-0.2,6.9-0.5,22.3,0.1,28.9
			c3.5,44.2,18.3,73.6,66.1,72.9c0.1,2.2,0.1,2.1,0,0c47.8-0.6,57.8-33.9,60.4-75.3c0.4-5.9-0.2-20.3-0.2-27.4
			C776.1,317.7,775.6,312.7,775.1,308.1z"/>
		<path class="st11" d="M714.4,298.8c0.8,0,1.4,0.6,1.4,1.4s-0.6,1.4-1.4,1.4c-0.8,0-1.4-0.6-1.4-1.4S713.6,298.9,714.4,298.8z"/>
	</g>
</g>
<path class="st0" d="M826.4,117.8h-4.3c-0.7,0-1.2-0.5-1.2-1.2v-12.3c0-0.7,0.5-1.2,1.2-1.2h4.3c0.7,0,1.2,0.5,1.2,1.2v12.3
	C827.6,117.2,827.1,117.8,826.4,117.8z"/>
<path class="st0" d="M595.7,117.8h-4.3c-0.7,0-1.2-0.5-1.2-1.2v-12.3c0-0.7,0.5-1.2,1.2-1.2h4.3c0.7,0,1.2,0.5,1.2,1.2v12.3
	C596.9,117.2,596.4,117.8,595.7,117.8z"/>
<path class="st0" d="M1260.5,443.5H909.9v11.2h18.9l1.9,176.9h7.7l2.9-176.9h288.3l2.9,176.9h8.6l1.9-176.9h17.4
	c0.8,0,1.5-0.7,1.5-1.5V445C1262,444.2,1261.3,443.5,1260.5,443.5z"/>
<path class="st0" d="M1175.9,536.5c0.6,0,1.1-0.5,1-1.1c-0.5-3.4-3.5-6-7.2-6h-67.6c-3.6,0-6.6,2.6-7.2,6c-0.1,0.6,0.4,1.1,1,1.1
	h22.9c0.6,0,1.1,0.6,1,1.2l-24.6,92.7c-0.2,0.6,0.3,1.2,1,1.2h3.4c0.4,0,0.8-0.3,0.9-0.7l28.8-93.8c0.1-0.4,0.5-0.7,0.9-0.7l0,0
	c0.5,0,1,0.4,1,0.9l3,93.3c0,0.5,0.5,0.9,1,0.9h3.5c0.5,0,1-0.4,1-1l0.9-93.2c0-0.5,0.4-1,1-1l0,0c0.4,0,0.8,0.3,0.9,0.7l28.8,93.8
	c0.1,0.4,0.5,0.7,0.9,0.7h3.4c0.6,0,1.1-0.6,1-1.2l-24.6-92.7c-0.2-0.6,0.3-1.2,1-1.2L1175.9,536.5L1175.9,536.5z"/>
<polygon class="st0" points="1135.9,405.4 1117.2,443.5 1155.5,443.5 "/>
<rect x="1050.8" y="307.3" class="st0" width="170.2" height="115.3"/>
<rect x="1056.8" y="313.4" class="st12" width="158.6" height="103.5"/>
<path class="st0" d="M1078.4,438.6l1-1c0.4-0.4,0.9-0.6,1.4-0.6h72.8c0.6,0,1.1,0.2,1.5,0.6l0.9,1c1,1.1,0.1,2.7-1.5,2.7h-74.7
	C1078.2,441.3,1077.4,439.7,1078.4,438.6z"/>
<path class="st0" d="M1160.5,439.2h-85.6c-0.7,0-1.3,0.6-1.3,1.3v3h88.2v-3C1161.8,439.7,1161.2,439.2,1160.5,439.2z"/>
<path class="st0" d="M1187.1,442.8L1187.1,442.8c-0.6-0.5-0.9-1.2-0.9-1.9v-0.7c0-0.8,0.4-1.6,1.2-2l1.8-1.1
	c0.5-0.3,1.1-0.5,1.7-0.5h3.6c0.7,0,1.3,0.2,1.8,0.6l1,0.7c0.7,0.5,1.1,1.2,1.1,2v0.8c0,0.6-0.3,1.2-0.7,1.7l-0.3,0.3
	c-0.5,0.5-1.3,0.9-2.2,0.9h-6C1188.4,443.5,1187.7,443.2,1187.1,442.8z"/>
<g>
	<path class="st0" d="M1034.2,620.3h-79.8c-4.1,0-7.5-3.3-7.5-7.5V468.5c0-4.1,3.3-7.5,7.5-7.5h79.8c4.1,0,7.5,3.3,7.5,7.5v144.4
		C1041.7,617,1038.3,620.3,1034.2,620.3z"/>
	<g>
		<line class="st7" x1="947" y1="472" x2="1041.7" y2="472"/>
		<path d="M982.9,472l3.3,2c0.9,0.5,1.9,0.8,2.9,0.8h10.4c1.1,0,2.1-0.3,3-0.9l3.1-2L982.9,472z"/>
	</g>
	<g>
		<line class="st7" x1="947" y1="497.6" x2="1041.7" y2="497.6"/>
		<path d="M982.9,497.6l3.3,2c0.9,0.5,1.9,0.8,2.9,0.8h10.4c1.1,0,2.1-0.3,3-0.9l3.1-2L982.9,497.6z"/>
	</g>
	<g>
		<line class="st7" x1="947" y1="531.1" x2="1041.7" y2="531.1"/>
		<path d="M982.9,531.1l3.3,2c0.9,0.5,1.9,0.8,2.9,0.8h10.4c1.1,0,2.1-0.3,3-0.9l3.1-2L982.9,531.1z"/>
	</g>
	<g>
		<line class="st7" x1="947" y1="564.6" x2="1041.7" y2="564.6"/>
		<path d="M982.9,564.6l3.3,2c0.9,0.5,1.9,0.8,2.9,0.8h10.4c1.1,0,2.1-0.3,3-0.9l3.1-2L982.9,564.6z"/>
	</g>
	<path d="M964.5,630h-2.9c-0.7,0-1.3-0.6-1.3-1.3v-6.5c0-0.7,0.6-1.3,1.3-1.3h2.9c0.7,0,1.3,0.6,1.3,1.3v6.5
		C965.8,629.4,965.2,630,964.5,630z"/>
	<path d="M1026.5,630h-2.9c-0.7,0-1.3-0.6-1.3-1.3v-6.5c0-0.7,0.6-1.3,1.3-1.3h2.9c0.7,0,1.3,0.6,1.3,1.3v6.5
		C1027.8,629.4,1027.2,630,1026.5,630z"/>
</g>
<path class="st1" d="M233,281.5c0-2.5,9.8-5.5,19-4.8c2.8,0.2,9.5,0.7,15.8,5c4.9,3.3,11.3,10,17,13.7c0.5,0.3,1.2,0.8,2.2,1.2
	c2.9,1.1,5.8,0.5,15.9,3c3,0.7,5.3,1.4,7,2c3.3,1.1,4.4,2.3,6.9,2.3c1.3,0,2.5-0.4,4.8-1.3c3.7-1.3,4.4-2,7-3c1.2-0.5,4.6-1.8,8.8-2
	c2.9-0.2,3.1,0.4,8.5,0.9c6.6,0.7,7.1-0.1,11,0.8c3.5,0.8,7.1,1.6,8.8,4.5c1.1,2.1,1,4.8,0.2,6.5c-2,4.6-9.8,5.1-24.2,5.8
	c-32.6,1.5-39.2,1.4-49-1.5c-3.1-0.9-6.7-2-11.2-4.2c-7.3-3.6-18.3-16.3-29.3-22.3C241.6,282.1,233,283.8,233,281.5z"/>
<path class="st0" d="M974.1,434.5l-2.4-24.5h31.2l-1.5,24.2c-0.3,5.2-4.7,9.3-9.9,9.3h-7.6C978.9,443.4,974.6,439.6,974.1,434.5z"/>
<g>
	<g>
		<polygon class="st0" points="1309.6,50 1296.5,37.3 1299.2,34.5 1308.9,43.9 1339.9,-2.8 1343.2,-0.6 		"/>
	</g>
	<circle class="st0" cx="1308.9" cy="46.8" r="4.4"/>
</g>
<path class="st0" d="M1313.4,30.1c0.7-0.5,1-1.4,0.5-2.1l-2.6-4.2l0,0l0,0c-1-1.6-3.1-2.1-4.8-1.1l-33.8,21
	c-2.1,1.3-2.8,4.1-1.5,6.2l0,0l3.8-2.4c0.9-0.6,2.2-0.3,2.8,0.7l1,1.7c0.4,0.7,1.3,0.9,2,0.5L1313.4,30.1z"/>
<polyline class="st13" points="384.9,160.1 384.9,166.2 385.2,166.2 385.2,160.1 "/>
<path class="st0" d="M397.2,162l0.9-2c0.5-1.2,1.9-1.8,3.1-1.5l0,0l0,0l-0.7,4.4"/>
<path class="st12" d="M1197.8,370.4h-121.9c-2,0-3.7-1.7-3.7-3.7v-2.9c0-2,1.7-3.7,3.7-3.7h121.9c2,0,3.7,1.7,3.7,3.7v2.9
	C1201.5,368.8,1199.8,370.4,1197.8,370.4z"/>
<rect x="1056.8" y="313.4" class="st12" width="158.6" height="6.4"/>
<path class="st14" d="M1162.3,382.3h-22.5c-1.1,0-1.9-0.9-1.9-1.9v-2.5c0-1.1,0.9-1.9,1.9-1.9h22.5c1.1,0,1.9,0.9,1.9,1.9v2.5
	C1164.2,381.5,1163.4,382.3,1162.3,382.3z"/>
<path class="st15" d="M1132.5,382.3H1110c-1.1,0-1.9-0.9-1.9-1.9v-2.5c0-1.1,0.9-1.9,1.9-1.9h22.5c1.1,0,1.9,0.9,1.9,1.9v2.5
	C1134.4,381.5,1133.6,382.3,1132.5,382.3z"/>
<path class="st0" d="M423.3,320h-239c-7.2,0-13-3.8-13-8.5l0,0h265l0,0C436.3,316.2,430.5,320,423.3,320z"/>
<path class="st1" d="M227.2,273.5c-7.6-2.1-14.3,0.3-16.2,1c-7.8,2.9-8.7,7-18,13.8c-7.8,5.6-9.2,4.2-17,9.2
	c-7.6,4.9-17.3,11.2-21.8,22.2c-2.9,7.1-3,14.6-3.1,25c0,3.8,0.1,9.6-0.9,15c-0.1,0.7-0.6,2.7-0.8,5.5c-0.2,2.6-0.1,4.4,0,6.2
	c0.4,10-0.8,11.1,0.8,13.8c0.1,0.2,2.4,3.9,6,4.2c4.8,0.5,8.7-5.4,11.5-9.5c0,0,4.8-7.1,6.6-18c0.3-1.8,0.4-3.6,0.4-3.6
	c0.2-3.2-0.3-5.5,0.2-15.8c0.7-13.2,0.9-19.9,3-23.7c0.6-1.1,2.9-5.1,7.5-8c7.7-4.8,15.1-2.3,18.1-7.4c0.9-1.6,0.1-1.7,1.4-5.6
	c0.7-2.2,2.1-7.1,5.3-9.9c3.8-3.4,8.8-3.8,18.7-4.5c7-0.5,9.9,0.1,10.3-1.2C240,280.3,233.9,275.3,227.2,273.5z"/>
<path class="st1" d="M239.4,282.7c0.3-1.4-7.8-5-16.1-5.9c-3-0.3-4.7-0.2-6.3,0.3c-4.7,1.5-7.2,5.5-7.9,6.8c-2,3.4-1.7,5.6-2.7,10
	c-1.5,6.8-3.4,6.7-7,15.9c-2.7,6.9-3.9,12.6-4.8,16.8c-1.3,6.3-0.8,6.5-2.1,15.3c-2.4,16.2-4.9,20.4-1.9,26.2c0.5,1,3.2,5.9,7,6
	c5.3,0.2,8.9-8.9,9.3-9.9c1.8-4.8,0.8-8.1,0.5-13.7c-0.5-8.8,0.9-15.5,2.1-21.4c3-14.7,7.2-14.4,7.5-25c0.1-3.9-0.3-7.8,2.1-12.2
	c0.5-1,2.7-4.8,7-7.2C232.7,281.2,239.1,283.9,239.4,282.7z"/>
<path class="st1" d="M230.8,283.4c0-0.5,8.9-4,17.5-0.9c9.3,3.3,13.1,12.5,15.4,18c5,11.9,3.9,23.2,2.5,37
	c-0.6,6.1-3.2,9.8-2.6,16.7c0.4,5.4,1.9,6.4,4.5,15.1c3.2,10.5,5.2,17.7,3.1,25.5c-0.5,1.8-3,10.9-9.1,12c-5.8,1-11.1-6-11.7-6.9
	c-4.1-5.4-3-9.6-5-19.1c-2.6-12.1-5.5-11-7.9-22.1c-2.8-12.6-1-23.3-0.6-25.4c2.1-12,6-13,6.5-24.2c0.1-3.5-0.7-8-2.5-17
	c-0.5-2.7-1.1-5.5-3.5-7.2C234.4,282.8,230.8,283.7,230.8,283.4z"/>
<g id="Layer_2_2_" class="st16">
	<path class="st17" d="M246.6,279.1l5.7-3.1c0.7-0.4,1.4-0.5,2.1-0.5h9c0.6,0,1.1,0.1,1.6,0.3l10.5,4.1c1.1,0.4,2,1.2,2.5,2.3
		l5.3,11.3c0.6,1.3,1.8,2.2,3.1,2.5l16.6,3.5c0.2,0,0.3,0.1,0.5,0.1l13.1,4.4c1.1,0.4,2.3,0.3,3.3-0.2l12.3-5.8
		c0.7-0.3,1.5-0.5,2.2-0.4l25.2,1.8c1.1,0.1,2.1,0.5,2.9,1.3l3.2,3.2c0.4,0.4,0.8,1,1,1.5l0,0c1.2,2.9-1,6.1-4.2,6.1h-77.9
		c-1.1,0-2.2-0.4-3.1-1.2l-5.8-5.4c-0.3-0.2-0.5-0.4-0.8-0.6l-21.3-12.2c-0.1-0.1-0.3-0.2-0.4-0.3l-7-5.1
		C243.4,284.8,243.7,280.7,246.6,279.1z"/>
	<path class="st17" d="M224.8,278.3l-10.7-4.8c-9.7-4.3-21.1-2.9-29.4,3.8l-1.2,1c-0.2,0.1-0.3,0.2-0.5,0.3l-19.3,9.3
		c-3.5,1.7-6.2,4.5-7.8,8.1l-3.8,8.6c-0.6,1.3-0.9,2.6-1,4l-3.8,43.7c0,0.1,0,0.2-0.1,0.4l-3.4,15.5c-0.3,1.5-1,3-2,4.2l-10.7,14
		c-0.5,0.7-0.7,1.5-0.5,2.4l3.1,11.7c0.3,1.2,1.4,2,2.6,2h13.6c0.8,0,1.6-0.4,2.1-1l12.9-15.7c0.2-0.2,0.3-0.5,0.4-0.7l9.6-24.1
		c0.1-0.3,0.2-0.7,0.2-1v-17.3c0-0.1,0-0.2,0-0.3l2.9-23.2l0,0c0.2-0.6,0.4-1.3,0.8-1.8l10.6-15.9c0.4-0.6,1.1-1.1,1.9-1.2l11.8-1.7
		c0.6-0.1,1.2-0.4,1.6-0.9l8-8.9c0.2-0.2,0.4-0.5,0.5-0.8l1.1-2.8c0.4-1,1.4-1.7,2.5-1.7h5.2h1.4c2.4,0,3.6-2.9,1.9-4.6l0,0
		C225.4,278.6,225.1,278.4,224.8,278.3z"/>
	<path class="st17" d="M234,275.8c-0.5-0.3-1-0.6-1.6-0.7l-8.3-1.5c-1.2-0.2-2.4,0.1-3.4,0.8l-6.6,5.1c-0.6,0.5-1.1,1.1-1.4,1.8
		l-14.4,37.8c-0.8,2-1,4.2-0.8,6.3l1.5,13.1c0.1,0.4,0,0.9-0.1,1.3l-5.4,27.1c-0.3,1.4,0.2,2.8,1.2,3.8l1.3,1.3
		c1.7,1.7,4.5,1.6,6.1-0.1l7-7.7c0.6-0.7,1-1.6,1.1-2.5c0.2-3,0.9-8.3-0.1-10.5c-0.6-1.3,1-16,1-16l1.9-18.9c0.1-0.7,0.3-1.4,0.7-2
		l7.6-11c0.5-0.7,0.8-1.5,0.8-2.4v-8.2c0-1,0.3-1.9,0.9-2.6l4-5c0.8-1,2-1.6,3.3-1.6h15C245.5,283.5,234,275.8,234,275.8z"/>
	<path class="st17" d="M238.1,284.8l4.5,5.8c0.4,0.6,0.7,1.3,0.7,2V308c0,0.3,0,0.6-0.1,0.9l-8.3,30.5c-1.1,3.9-0.8,8.1,0.6,11.9
		l2.7,7.1c0,0.1,0,0.1,0.1,0.2l9.6,21.1c0.3,0.6,0.3,1.2,0.3,1.8l-0.2,1.6c-1,7.8,1.6,15.7,7.2,21.3l0,0c0.7,0.7,1.7,1.1,2.7,0.9
		l0,0c8.5-1,14.4-8.8,13.2-17.2l-3.3-23.3c-0.3-2.2-0.9-4.4-1.8-6.4l-2.2-5c-0.3-0.6-0.3-1.2-0.2-1.8l4.2-26.7c0-0.2,0-0.4,0-0.6
		l-0.4-11.3c0-0.2,0-0.5-0.1-0.7l-3.7-14.9c-0.1-0.5-0.4-1-0.7-1.4l-13.5-15.3c-0.6-0.7-1.5-1.1-2.5-1.1h-6.2c-0.9,0-1.7,0.3-2.3,1
		l0,0C237.2,281.6,237.1,283.5,238.1,284.8z"/>
</g>
<g id="Layer_3">
</g>
</svg>
