<?xml version="1.0" encoding="utf-8"?>
<!-- Generator: Adobe Illustrator 22.0.1, SVG Export Plug-In . SVG Version: 6.00 Build 0)  -->
<svg version="1.1" id="Layer_1" xmlns="http://www.w3.org/2000/svg" xmlns:xlink="http://www.w3.org/1999/xlink" x="0px" y="0px"
	 viewBox="0 0 1340 630" style="enable-background:new 0 0 1340 630;" xml:space="preserve">
<style type="text/css">
	.st0{fill:#8BA4C9;}
	.st1{fill:#F8A079;stroke:#000000;stroke-miterlimit:10;}
	.st2{fill:#F2DCA5;}
	.st3{fill:#F2DCA5;stroke:#000000;stroke-miterlimit:10;}
	.st4{fill:#F2F2F2;}
	.st5{fill:none;stroke:#000000;stroke-miterlimit:10;}
	.st6{fill:#414143;stroke:#000000;stroke-miterlimit:10;}
	.st7{fill:#41B369;}
	.st8{fill:#CCB98D;stroke:#000000;stroke-miterlimit:10;}
	.st9{fill:#9AAF92;stroke:#000000;stroke-miterlimit:10;}
	.st10{fill:#E8E7E7;}
	.st11{fill:#414143;}
	.st12{fill:#CFD9C5;}
	.st13{fill:#BFDDA1;}
	.st14{fill:#F8A079;}
	.st15{fill:#EF5B49;}
	.st16{fill:#FCC638;}
	.st17{fill:#C1C5E8;}
	.st18{fill:#DDDDD3;}
	.st19{fill:#F2F2F2;stroke:#000000;stroke-miterlimit:10;}
	.st20{fill:#E8E7E7;stroke:#000000;stroke-miterlimit:10;}
	.st21{fill:#EF5B49;stroke:#000000;stroke-miterlimit:10;}
</style>
<g>
	<rect x="161.7" y="56.4" class="st0" width="1022.5" height="223"/>
	<path class="st0" d="M1183.7,56.9v222H162.2v-222L1183.7,56.9 M1184.7,55.9H161.2v224h1023.5V55.9L1184.7,55.9z"/>
</g>
<g>
	<path class="st1" d="M999.6,317.6c-2.5,0.2-5-1.4-7.4-1.6c-2.5-0.2-5.3,1.3-7.7,0.8c-2.5-0.6-5-1.1-7.3-2s-3.9-3.5-6.1-4.7
		c-2.2-1.2-5-1.5-6.9-3.1c-2-1.5-3.4-3.7-5.2-5.5s-4.4-2.9-5.9-4.9s-3.3-4.1-4.4-6.3c-1.2-2.2-1.7-4.9-2.6-7.3
		c-0.8-2.3-0.4-5.1-0.9-7.6c-0.5-2.4-0.4-4.9-0.6-7.4c-0.2-2.5,0-4.9,0.2-7.4s-1.5-5.4-0.9-7.8c0.6-2.5,3.3-4.3,4.2-6.6
		s1.2-4.9,2.5-7.1c1.2-2.2,2.8-4.1,4.4-6.1c1.5-2,3.8-3.2,5.6-4.9c1.8-1.8,2.6-4.5,4.7-6c2-1.5,3.8-3.5,6-4.7s4.8-1.7,7.2-2.6
		c2.3-0.8,4.8-1.7,7.3-2.2c2.4-0.5,5-1.5,7.5-1.7s5.2,0.6,7.6,0.8c2.5,0.2,4.9,1.6,7.3,2.1c2.5,0.6,5,0.7,7.4,1.6
		c2.3,0.9,4.1,2.9,6.3,4.1c2.2,1.2,4.4,2.3,6.4,3.8s3.8,3.2,5.6,5c1.8,1.8,3.4,3.6,4.9,5.6s3.1,3.9,4.3,6.1c1.2,2.2,3.3,4.1,4.2,6.5
		c0.8,2.3-0.6,5.4-0.1,7.9c0.5,2.4,2.5,4.7,2.7,7.2s0.7,5.2,0.5,7.7s-0.5,5.2-1.1,7.6c-0.6,2.5-1.4,5.1-2.3,7.4
		c-0.9,2.4-4.1,3.7-5.3,5.8c-1.2,2.2-2.5,4.2-4,6.2s-2.3,4.6-4.1,6.3c-1.8,1.8-3.9,3.2-5.9,4.7s-4.3,2.4-6.6,3.6
		c-2.2,1.2-4.7,1.5-7,2.4c-2.3,0.8-4.4,2.4-6.9,2.9C1004.6,316.8,1002.1,317.5,999.6,317.6z"/>
</g>
<g>
	<polyline class="st2" points="597.1,275.8 624.9,274.3 652.6,271.9 680.5,270.9 708,268 735.9,266.2 763.5,264.1 791.2,261.7 
		819.1,260.3 846.6,257.4 874.4,256 902,253.4 929.8,251.8 957.4,248.2 984.9,245.8 1012.7,243.8 1040.3,241.4 1068.1,239.9 
		1095.9,238 1123.8,236.7 1151.2,233.2 1179.2,231.9 1206.7,230 1234.5,232.2 1261.8,236.9 1289.9,238.6 1317.5,242.2 1345.1,245.2 
		1372.7,248.4 1400.2,252.2 1427.7,256 1455.7,257.8 1483,262.3 1511.1,264.1 1538.5,268.2 1566.3,270.6 1594,273.7 1621.7,277 
		1649.4,280 	"/>
	<polyline class="st3" points="597.1,275.8 624.9,274.3 652.6,271.9 680.5,270.9 708,268 735.9,266.2 763.5,264.1 791.2,261.7 
		819.1,260.3 846.6,257.4 874.4,256 902,253.4 929.8,251.8 957.4,248.2 984.9,245.8 1012.7,243.8 1040.3,241.4 1068.1,239.9 
		1095.9,238 1123.8,236.7 1151.2,233.2 1179.2,231.9 1206.7,230 1234.5,232.2 1261.8,236.9 1289.9,238.6 1317.5,242.2 1345.1,245.2 
		1372.7,248.4 1400.2,252.2 1427.7,256 1455.7,257.8 1483,262.3 1511.1,264.1 1538.5,268.2 1566.3,270.6 1594,273.7 1621.7,277 
		1649.4,280 	"/>
	<g>
		<path class="st4" d="M1191.5,144.9c-1.9,2.3-4.5,2.8-4.9,3.1c-4.1,3.4-8.4,5-13,6.3c-4.8,1.3-9.5,2.5-14.5,2.5
			c-4.9-0.1-10-0.2-14.9-0.8c-5.1-0.6-10-1.8-14.8-2c-5.1-0.3-9.7-0.1-13.8,0.4c-5,0.6-9.1,2.8-13.1,4.2c-4.5,1.6-8.8,2.9-12.7,5
			c-4,2.1-7.8,4.7-12,6.8c-3.9,1.9-8.4,2.8-13.1,4.1c-4,1.2-8.3,3-13.3,3.5c-4.1,0.4-8.7-0.9-13.8-1.1c-3.5-0.2-8.1,0.7-13.1,0
			c-4.1-0.6-8.2-2.1-12.5-3.6c-4-1.3-8.1-2.8-11.8-5.3c-3.5-2.3-7.4-4.6-10.2-8.3c-3.1-4.1-4.7-8.9-5.7-12.9c-1.7-7-1.7-13-1.6-14.1
			c0.5-5.6,3.5-9.7,6.4-14.8c2.2-3.9,5.1-8.1,8.8-13.4c2.7-3.8,4.4-8,7.1-11.5c2.7-3.5,5.3-7.1,8.6-10.5c2.9-3,6.2-6.1,10-9.2
			c2.6-2.1,7.7-5,13.7-8.7c4.1-2.5,9.1-4.6,14.5-6.7c4.7-1.9,9.5-5.1,15.1-6c5.7-1,10.4-0.2,14.8,0.1c4.8,0.4,9.3,1,14.5,2.4
			c4.1,1.1,8.5,3,14,4.4c4.2,1,9,1.6,14.5,2.6c4.3,0.8,9,2.6,14.3,3.4c4.9,0.7,9.2,1.1,13.1,1.5c5.1,0.5,9.5-0.4,13.2-0.2
			c5.6,0.3,9.7,1.2,13,1.6c4.8,0.7,7.6,2.3,11.2,5.7c3.7,3.5,7.2,7.2,9.4,12.1c2,4.6,3.2,9.7,3.9,15c0.6,5.1,1.1,10.4,0.5,15.6
			c-0.6,5.2-1.8,10.5-3.7,15.2C1197.6,136.3,1194.8,141,1191.5,144.9z"/>
		<path class="st5" d="M1191.5,144.9c-1.9,2.3-4.5,2.8-4.9,3.1c-4.1,3.4-8.4,5-13,6.3c-4.8,1.3-9.5,2.5-14.5,2.5
			c-4.9-0.1-10-0.2-14.9-0.8c-5.1-0.6-10-1.8-14.8-2c-5.1-0.3-9.7-0.1-13.8,0.4c-5,0.6-9.1,2.8-13.1,4.2c-4.5,1.6-8.8,2.9-12.7,5
			c-4,2.1-7.8,4.7-12,6.8c-3.9,1.9-8.4,2.8-13.1,4.1c-4,1.2-8.3,3-13.3,3.5c-4.1,0.4-8.7-0.9-13.8-1.1c-3.5-0.2-8.1,0.7-13.1,0
			c-4.1-0.6-8.2-2.1-12.5-3.6c-4-1.3-8.1-2.8-11.8-5.3c-3.5-2.3-7.4-4.6-10.2-8.3c-3.1-4.1-4.7-8.9-5.7-12.9c-1.7-7-1.7-13-1.6-14.1
			c0.5-5.6,3.5-9.7,6.4-14.8c2.2-3.9,5.1-8.1,8.8-13.4c2.7-3.8,4.4-8,7.1-11.5c2.7-3.5,5.3-7.1,8.6-10.5c2.9-3,6.2-6.1,10-9.2
			c2.6-2.1,7.7-5,13.7-8.7c4.1-2.5,9.1-4.6,14.5-6.7c4.7-1.9,9.5-5.1,15.1-6c5.7-1,10.4-0.2,14.8,0.1c4.8,0.4,9.3,1,14.5,2.4
			c4.1,1.1,8.5,3,14,4.4c4.2,1,9,1.6,14.5,2.6c4.3,0.8,9,2.6,14.3,3.4c4.9,0.7,9.2,1.1,13.1,1.5c5.1,0.5,9.5-0.4,13.2-0.2
			c5.6,0.3,9.7,1.2,13,1.6c4.8,0.7,7.6,2.3,11.2,5.7c3.7,3.5,7.2,7.2,9.4,12.1c2,4.6,3.2,9.7,3.9,15c0.6,5.1,1.1,10.4,0.5,15.6
			c-0.6,5.2-1.8,10.5-3.7,15.2C1197.6,136.3,1194.8,141,1191.5,144.9z"/>
	</g>
</g>
<g>
	<polyline class="st2" points="-75.6,250.8 -57.8,249.3 -40.1,246.9 -22.3,245.9 -4.7,243 13.1,241.2 30.8,239.1 48.5,236.7 
		66.3,235.3 83.9,232.4 101.7,231 119.3,228.4 137.1,226.8 154.7,223.2 172.3,220.8 190.1,218.8 207.7,216.4 225.5,214.9 243.3,213 
		261.1,211.7 278.6,208.2 296.5,206.9 314.1,205 331.9,207.2 349.3,211.9 367.3,213.6 384.9,217.2 402.6,220.2 420.2,223.4 
		437.8,227.2 455.4,231 473.3,232.8 490.7,237.3 508.7,239.1 526.2,243.2 544,245.6 561.7,248.7 579.4,252 597.1,255 	"/>
	<polyline class="st3" points="-75.6,250.8 -57.8,249.3 -40.1,246.9 -22.3,245.9 -4.7,243 13.1,241.2 30.8,239.1 48.5,236.7 
		66.3,235.3 83.9,232.4 101.7,231 119.3,228.4 137.1,226.8 154.7,223.2 172.3,220.8 190.1,218.8 207.7,216.4 225.5,214.9 243.3,213 
		261.1,211.7 278.6,208.2 296.5,206.9 314.1,205 331.9,207.2 349.3,211.9 367.3,213.6 384.9,217.2 402.6,220.2 420.2,223.4 
		437.8,227.2 455.4,231 473.3,232.8 490.7,237.3 508.7,239.1 526.2,243.2 544,245.6 561.7,248.7 579.4,252 597.1,255 	"/>
	<g>
		<path class="st4" d="M387.9,211.4c-1.4-0.1-3.6-6.4-2.6-13.6c1-7.2,4.9-12.2,9-17.8c2.7-3.7,4.3-4.1,8.7-8.8
			c2-2.1,3.9-5.6,7.7-9.8c4-4.3,7-7.3,9-10c3.9-5.3,4.7-7.6,8.3-11.4c3.5-3.9,6.4-6,9.2-7.9c4.2-2.8,7.3-5.4,10-8.1
			c2.9-2.9,6-5.4,9.5-8.8c1-1,4-5.8,9.8-10.6c3.3-2.7,7.4-5.4,11.7-8.3c3.8-2.6,8.5-4.2,12.8-6.5c1.9-1,6.3-4.3,13.2-6.7
			c4.1-1.4,8.8-3.5,14.2-4.6c4.6-0.9,9.6-1.2,14.9-1.5c4.7-0.2,9.8-0.5,15,0.1c2.2,0.3,7.7,2.3,12.9,3.8c5.2,1.5,10.9,3,11.5,6.5
			c0.4,2.1-2.4,3.7-3.4,5.2c-3.3,4.6-7.1,6.7-12.2,8c-4.6,1.1-10.1,1-14.9,3.9c-7.1,4.3-7.6,10.6-12.3,17.4c-3,4.3-5.8,7.9-9.5,10.5
			c-3.4,2.4-8.1,3.4-13,5.5c-3.7,1.6-7.5,4.3-12.5,6.4c-3.8,1.6-8.6,2.3-13.4,4.5c-3.9,1.8-7.6,4.8-12.2,7.1
			c-3.9,1.9-8.2,3.7-12.7,6.1c-5,2.7-10.2,4.6-15.2,7.5c-4.5,2.6-9.3,5.4-14.4,8.9c-7.7,5.3-7.3,7.5-12.6,10.4
			c-4.7,2.6-8.9,3.3-12,4.6c-4.5,1.9-7,3.9-9.5,7.7C389.1,206.8,389.1,211.4,387.9,211.4z"/>
		<path class="st5" d="M387.9,211.4c-1.4-0.1-3.6-6.4-2.6-13.6c1-7.2,4.9-12.2,9-17.8c2.7-3.7,4.3-4.1,8.7-8.8
			c2-2.1,3.9-5.6,7.7-9.8c4-4.3,7-7.3,9-10c3.9-5.3,4.7-7.6,8.3-11.4c3.5-3.9,6.4-6,9.2-7.9c4.2-2.8,7.3-5.4,10-8.1
			c2.9-2.9,6-5.4,9.5-8.8c1-1,4-5.8,9.8-10.6c3.3-2.7,7.4-5.4,11.7-8.3c3.8-2.6,8.5-4.2,12.8-6.5c1.9-1,6.3-4.3,13.2-6.7
			c4.1-1.4,8.8-3.5,14.2-4.6c4.6-0.9,9.6-1.2,14.9-1.5c4.7-0.2,9.8-0.5,15,0.1c2.2,0.3,7.7,2.3,12.9,3.8c5.2,1.5,10.9,3,11.5,6.5
			c0.4,2.1-2.4,3.7-3.4,5.2c-3.3,4.6-7.1,6.7-12.2,8c-4.6,1.1-10.1,1-14.9,3.9c-7.1,4.3-7.6,10.6-12.3,17.4c-3,4.3-5.8,7.9-9.5,10.5
			c-3.4,2.4-8.1,3.4-13,5.5c-3.7,1.6-7.5,4.3-12.5,6.4c-3.8,1.6-8.6,2.3-13.4,4.5c-3.9,1.8-7.6,4.8-12.2,7.1
			c-3.9,1.9-8.2,3.7-12.7,6.1c-5,2.7-10.2,4.6-15.2,7.5c-4.5,2.6-9.3,5.4-14.4,8.9c-7.7,5.3-7.3,7.5-12.6,10.4
			c-4.7,2.6-8.9,3.3-12,4.6c-4.5,1.9-7,3.9-9.5,7.7C389.1,206.8,389.1,211.4,387.9,211.4z"/>
	</g>
	<g>
		<path class="st4" d="M157.2,180.9c3.1,3.2,5.7,6.9,9.6,8.5c3.9,1.6,8.6,1,12.8,1.4c4.3,0.4,8.6,0.3,12.7,0c4.7-0.4,9-0.8,12.7-1.3
			c5.1-0.7,9.2-1.8,12.9-3.1c4.5-1.6,8.2-3.6,11.9-5.7c3.7-2.1,7.3-4.4,11.6-6.7c3.5-1.8,7.9-2.6,12.7-4.2c3.7-1.3,7.9-2.4,12.8-3.5
			c4.9-1.1,8.6-2,11.9-2.4c4.3-0.6,7.6-2.3,11.9-3.1c3.3-0.6,7.1-1,11.9-2.6c4.8-1.6,9.2-3.3,13.3-4.9c4.7-1.8,8.8-3.8,12.5-6.3
			c3.9-2.6,7.6-5.3,10.4-9.4c2.4-3.6,4-7.9,5.2-12.3c1.2-4.3,2.9-8.7,2.9-13.2c0-4.5-2.2-8.8-3.5-13c-1.3-4.3-2.3-8.8-5-12.3
			c-3.4-4.5-8.1-7.2-12.9-9.5c-4.8-2.4-9.9-4.8-15.1-5.6c-5.6-0.8-11.2-0.6-16.2-0.4c-6.9,0.3-12.9,0.8-16.1,1.4
			c-5.6,0.9-10.5,2.5-14.8,4.1c-5.2,1.9-9.4,4.7-13.6,7.2c-4.4,2.7-8.9,4.9-13.2,7.8c-4,2.7-7.9,5.8-12.7,8.4
			c-4.1,2.2-8.2,5.4-13.6,7.2c-4.4,1.5-9.3,2.9-14.9,4c-7.4,1.4-13.2,0.3-17.8,0.8c-6.6,0.7-11,2.4-16.1,6.9
			c-3.3,2.9-6.4,6.4-8.6,10.7c-2.1,3.9-3.5,8.4-4.5,13c-1,4.5-1.6,9.1-1.4,13.7c0.2,4.7,1.1,9.3,2.6,13.5
			C150.9,174.2,154,177.5,157.2,180.9z"/>
		<path class="st5" d="M157.2,180.9c3.1,3.2,5.7,6.9,9.6,8.5c3.9,1.6,8.6,1,12.8,1.4c4.3,0.4,8.6,0.3,12.7,0c4.7-0.4,9-0.8,12.7-1.3
			c5.1-0.7,9.2-1.8,12.9-3.1c4.5-1.6,8.2-3.6,11.9-5.7c3.7-2.1,7.3-4.4,11.6-6.7c3.5-1.8,7.9-2.6,12.7-4.2c3.7-1.3,7.9-2.4,12.8-3.5
			c4.9-1.1,8.6-2,11.9-2.4c4.3-0.6,7.6-2.3,11.9-3.1c3.3-0.6,7.1-1,11.9-2.6c4.8-1.6,9.2-3.3,13.3-4.9c4.7-1.8,8.8-3.8,12.5-6.3
			c3.9-2.6,7.6-5.3,10.4-9.4c2.4-3.6,4-7.9,5.2-12.3c1.2-4.3,2.9-8.7,2.9-13.2c0-4.5-2.2-8.8-3.5-13c-1.3-4.3-2.3-8.8-5-12.3
			c-3.4-4.5-8.1-7.2-12.9-9.5c-4.8-2.4-9.9-4.8-15.1-5.6c-5.6-0.8-11.2-0.6-16.2-0.4c-6.9,0.3-12.9,0.8-16.1,1.4
			c-5.6,0.9-10.5,2.5-14.8,4.1c-5.2,1.9-9.4,4.7-13.6,7.2c-4.4,2.7-8.9,4.9-13.2,7.8c-4,2.7-7.9,5.8-12.7,8.4
			c-4.1,2.2-8.2,5.4-13.6,7.2c-4.4,1.5-9.3,2.9-14.9,4c-7.4,1.4-13.2,0.3-17.8,0.8c-6.6,0.7-11,2.4-16.1,6.9
			c-3.3,2.9-6.4,6.4-8.6,10.7c-2.1,3.9-3.5,8.4-4.5,13c-1,4.5-1.6,9.1-1.4,13.7c0.2,4.7,1.1,9.3,2.6,13.5
			C150.9,174.2,154,177.5,157.2,180.9z"/>
	</g>
</g>
<polygon class="st3" points="770.2,-71.2 941.8,-68.1 924.8,-75.3 908.8,-84.3 892.2,-92.3 876.2,-101.5 859.5,-109.3 843.6,-118.4 
	826.8,-112.4 810,-106.4 793,-100.9 776.4,-94.3 759.1,-89.5 751.3,-86.6 740.8,-94.9 727.4,-106.3 712.8,-116.2 700,-128.4 
	685.8,-138.6 670.1,-128.8 653.7,-119.5 638.4,-108.2 622,-98.9 605.8,-89 589.5,-79.5 573.7,-69.1 557.7,-59 795,-49.8 
	781.6,-61.3 "/>
<path class="st3" d="M491.2,249.6L442,211.1c-2.4-1.9-5.8-0.1-6.1,3.3l-3.9,38.1c-0.3,2.7,1.5,5.1,3.9,5.2L489,258
	C492.9,258,494.5,252.1,491.2,249.6z"/>
<g>
	<g>
		<path class="st4" d="M621.1,288.9c-1.8-3.8-1.3-8.2-0.9-12.5c0.4-4,0.7-8.3,2.4-12.3c1.7-3.8,4.2-7.4,6.6-10.7
			c2.6-3.6,5.3-7,8.2-9.6c4.7-4.2,8.9-7.1,13.3-8.6c4.8-1.6,9.8-2.2,15.4-3.3c4.5-0.9,9.2-2.2,14.8-4.5c4.2-1.7,9.4-2.8,14.5-6
			c5.3-3.3,9.1-5.7,12.9-8.2c3.7-2.5,7.2-5.1,13.1-7.4c4.1-1.6,9.5-4.8,16.2-5.8c5.1-0.8,11.2-1.1,17.4,0.1
			c3.6,0.7,9.1,2.2,14.3,4.9c4.2,2.2,8.3,5.6,11,10.4c2.2,4,2.5,8.4,2.5,12.1c0,5.8-1.2,10.7-1.8,12.3c-1.2,3.4-3.3,6.9-7.1,10.9
			c-2.4,2.5-6,4.8-10.2,8c-3,2.2-6.6,4.5-10.8,7.2c-4.2,2.6-7.5,6-12.8,8.7c-3.7,1.9-8.4,3.7-14,6.3c-4,1.8-8.6,4-14,6.4
			c-4.2,1.8-9.2,3-14.5,5.3c-4.6,2-8.2,4.1-11.5,5.5c-5.1,2.1-9.2,2.7-12.2,3.8c-5.7,2.1-8.4,3.6-12.1,3.7c-1.4,0-7.7-0.6-15.2-1.9
			c-4.8-0.9-9.8-2.3-14.4-4.7C628,296.5,623.3,293.7,621.1,288.9z"/>
		<path class="st5" d="M621.1,288.9c-1.8-3.8-1.3-8.2-0.9-12.5c0.4-4,0.7-8.3,2.4-12.3c1.7-3.8,4.2-7.4,6.6-10.7
			c2.6-3.6,5.3-7,8.2-9.6c4.7-4.2,8.9-7.1,13.3-8.6c4.8-1.6,9.8-2.2,15.4-3.3c4.5-0.9,9.2-2.2,14.8-4.5c4.2-1.7,9.4-2.8,14.5-6
			c5.3-3.3,9.1-5.7,12.9-8.2c3.7-2.5,7.2-5.1,13.1-7.4c4.1-1.6,9.5-4.8,16.2-5.8c5.1-0.8,11.2-1.1,17.4,0.1
			c3.6,0.7,9.1,2.2,14.3,4.9c4.2,2.2,8.3,5.6,11,10.4c2.2,4,2.5,8.4,2.5,12.1c0,5.8-1.2,10.7-1.8,12.3c-1.2,3.4-3.3,6.9-7.1,10.9
			c-2.4,2.5-6,4.8-10.2,8c-3,2.2-6.6,4.5-10.8,7.2c-4.2,2.6-7.5,6-12.8,8.7c-3.7,1.9-8.4,3.7-14,6.3c-4,1.8-8.6,4-14,6.4
			c-4.2,1.8-9.2,3-14.5,5.3c-4.6,2-8.2,4.1-11.5,5.5c-5.1,2.1-9.2,2.7-12.2,3.8c-5.7,2.1-8.4,3.6-12.1,3.7c-1.4,0-7.7-0.6-15.2-1.9
			c-4.8-0.9-9.8-2.3-14.4-4.7C628,296.5,623.3,293.7,621.1,288.9z"/>
	</g>
	<polygon class="st3" points="267.9,573.1 250,572.2 232.1,573 214.2,572.8 196.3,571.5 178.4,573.1 160.5,573 143.5,572 
		142.5,554.8 143.9,536.8 142.8,518.7 142.4,500.6 142.6,482.6 142.6,464.5 142.4,446.5 144,428.5 143.8,410.4 142.8,392.3 
		143.2,374.3 143.6,356.2 142.9,338.2 144,320.2 143.1,302.1 142.2,284 142.7,266 142.9,248.2 160.3,248 178,248.7 195.7,247.9 
		213.3,247.6 231,248.5 247.5,247.5 263.8,249 280.4,248.3 298.2,248.9 316.2,248.8 334.1,248.8 352,248 370,249 388,249.3 
		406.1,247.4 424.1,248.7 442.1,248.8 460.2,248.6 478.2,248.8 496.2,247.7 532.2,247.8 550.2,247.6 568.2,248.5 586.3,248.8 
		604.3,248.7 622.3,249.1 640.3,249.2 658.4,247.6 676.4,247.9 694.4,248.1 712.4,249.3 730.5,248.5 748.4,249.1 766.5,248.6 
		784.5,247.8 802.5,247.5 820.5,248.3 838.5,248.1 856.6,247.5 874.5,248.5 892.6,248.7 910.6,247.8 928.6,249.2 946.6,249.3 
		964.7,248.7 982.7,247.5 1000.7,248.1 1018.7,247.7 1036.7,248.4 1054.7,249.2 1072.7,249.1 1090.8,248.9 1108.8,248.1 
		1126.8,247.9 1144.8,247.9 1162.8,248.7 1179.9,248.9 1180.3,266 1180.7,284.1 1179.8,302.1 1180.7,320.2 1180.9,338.2 
		1179.4,356.2 1180.8,374.4 1180.1,392.4 1179.5,410.4 1179.4,428.5 1180.4,446.6 1180.7,464.6 1180.2,482.6 1180.6,500.7 
		1180.6,518.7 1179.7,536.8 1181.1,554.9 1179.9,571.9 1162.9,571.4 1145,571.9 1127.1,571.7 1109.2,572.3 1091.3,572.2 
		1073.4,572.4 1055.5,572.4 1037.6,571.7 1019.7,572.7 1001.8,573.2 983.9,572.5 966,571.9 948.1,571.6 930.2,572.1 912.3,572 
		894.4,571.4 876.4,572.6 858.6,571.7 840.6,572.8 822.8,571.9 804.9,571.8 786.9,572.2 769.1,572.2 751.2,571.5 733.3,571.9 
		715.3,572.6 697.5,572.1 679.5,573.1 661.7,572.3 643.8,571.9 625.9,572.3 607.9,572.9 590.1,571.5 572.2,571.5 554.3,571.5 
		536.4,572.1 518.5,572.9 500.6,572.8 482.7,572.1 464.8,573.1 446.9,572.4 429,572 411.1,572.1 393.2,572.5 375.3,573.1 
		357.4,572.9 339.5,572.6 321.6,571.6 303.7,572.3 285.8,573.3 	"/>
</g>
<g>
	<g>
		<path class="st4" d="M409.5,203.1c-0.8-2.3-2.2-5.6-1.7-9.7c0.7-5.3,3.5-9.6,7.7-13.4c3.4-3,7.8-5.8,13-8.6
			c4.1-2.2,8.6-5,13.7-7.5c4.3-2.2,9.6-3.3,14.5-6c4.3-2.3,8.1-6.2,12.8-9c5.3-3.2,9.6-5.7,13-8c5.5-3.7,9.8-5.3,13.3-7.6
			c3.9-2.5,7.5-4.6,13.6-6.7c4.3-1.5,8.6-2.7,14.4-3.2c4-0.3,8.8-0.3,14.8-1c4.2-0.5,9.2-0.4,14.8-1.4c6.9-1.2,10.2-2.4,12.5-3.2
			c5.5-1.9,9.8-4.4,13.3-7.6c3.9-3.5,7.4-7.2,10.6-11.2c3.1-3.9,6.4-7.5,10.6-11c3.8-3.1,7.6-5.3,11.7-7c4.4-1.8,8.5-4.2,13-5
			c4.7-0.8,9.5,0,13.9-0.6c7.9-0.9,12.7,0.3,17.3,1.7c5,1.5,9.9,3,17.7,1.7c5.7-1,9.2-4,12.5-5.4c4.6-2,8.5-3.4,13.6-2.1
			c4.5,1.1,9.2,4.1,12.3,7.6c3.5,4,4.5,9.3,3.7,13.4c-0.9,4.6-5,6.3-11.8,9.3c-4.1,1.8-8.8,4.3-14.6,7.1c-6,3-10.7,5.7-14,8.3
			c-5.6,4.4-8.2,8.5-11.3,11.7c-3.2,3.3-6.6,5.5-13.8,7.4c-5.1,1.4-9.6,2.7-13.9,3.2c-5,0.5-9.7,1.5-14.4,1.4
			c-4.7-0.1-9.4-1.1-14.4-1.1c-4.5,0-9.2,0.4-14.4,0.9c-4.4,0.5-9.2,0.5-14.4,1.7c-4.9,1.2-11.1,4.2-19.5,7.9c-5.3,2.3-9,3.4-12,5.3
			c-3.5,2.2-6,5.1-11,7.2c-5.1,2.2-9.2,1.8-14.2,2.5c-3.7,0.5-8.1,0.9-14.2,1.8c-3.6,0.5-7.9,0.8-12.6,1.3c-4,0.4-8.3,1.1-12.6,2.2
			c-4,1-7.4,3.7-11.3,5.8c-4.4,2.4-7.8,3.7-10.7,5.8c-2.9,2-5.9,3.7-10.8,5.2c-4.8,1.4-9.3,4.2-15.2,3.6c-3.7-0.4-5.2-2.8-9.2-2.5
			c-4.4,0.4-10.8,2.6-11.3,5.5c-0.2,1.5,1.8,2.2,1.7,3.9C416.1,200.3,412.7,201.9,409.5,203.1z"/>
		<path class="st5" d="M409.5,203.1c-0.8-2.3-2.2-5.6-1.7-9.7c0.7-5.3,3.5-9.6,7.7-13.4c3.4-3,7.8-5.8,13-8.6
			c4.1-2.2,8.6-5,13.7-7.5c4.3-2.2,9.6-3.3,14.5-6c4.3-2.3,8.1-6.2,12.8-9c5.3-3.2,9.6-5.7,13-8c5.5-3.7,9.8-5.3,13.3-7.6
			c3.9-2.5,7.5-4.6,13.6-6.7c4.3-1.5,8.6-2.7,14.4-3.2c4-0.3,8.8-0.3,14.8-1c4.2-0.5,9.2-0.4,14.8-1.4c6.9-1.2,10.2-2.4,12.5-3.2
			c5.5-1.9,9.8-4.4,13.3-7.6c3.9-3.5,7.4-7.2,10.6-11.2c3.1-3.9,6.4-7.5,10.6-11c3.8-3.1,7.6-5.3,11.7-7c4.4-1.8,8.5-4.2,13-5
			c4.7-0.8,9.5,0,13.9-0.6c7.9-0.9,12.7,0.3,17.3,1.7c5,1.5,9.9,3,17.7,1.7c5.7-1,9.2-4,12.5-5.4c4.6-2,8.5-3.4,13.6-2.1
			c4.5,1.1,9.2,4.1,12.3,7.6c3.5,4,4.5,9.3,3.7,13.4c-0.9,4.6-5,6.3-11.8,9.3c-4.1,1.8-8.8,4.3-14.6,7.1c-6,3-10.7,5.7-14,8.3
			c-5.6,4.4-8.2,8.5-11.3,11.7c-3.2,3.3-6.6,5.5-13.8,7.4c-5.1,1.4-9.6,2.7-13.9,3.2c-5,0.5-9.7,1.5-14.4,1.4
			c-4.7-0.1-9.4-1.1-14.4-1.1c-4.5,0-9.2,0.4-14.4,0.9c-4.4,0.5-9.2,0.5-14.4,1.7c-4.9,1.2-11.1,4.2-19.5,7.9c-5.3,2.3-9,3.4-12,5.3
			c-3.5,2.2-6,5.1-11,7.2c-5.1,2.2-9.2,1.8-14.2,2.5c-3.7,0.5-8.1,0.9-14.2,1.8c-3.6,0.5-7.9,0.8-12.6,1.3c-4,0.4-8.3,1.1-12.6,2.2
			c-4,1-7.4,3.7-11.3,5.8c-4.4,2.4-7.8,3.7-10.7,5.8c-2.9,2-5.9,3.7-10.8,5.2c-4.8,1.4-9.3,4.2-15.2,3.6c-3.7-0.4-5.2-2.8-9.2-2.5
			c-4.4,0.4-10.8,2.6-11.3,5.5c-0.2,1.5,1.8,2.2,1.7,3.9C416.1,200.3,412.7,201.9,409.5,203.1z"/>
	</g>
	<path class="st3" d="M429.5,253.5c0,0-21.5-7,0-8l-2-5c-3.1,0,6-10-2.3-14.3l0,0l-5.8-33.2c-0.3-1.6-2-2.4-3.4-1.6l-8.2,4.8
		c-0.7,0.4-1.1,1.1-1.1,1.9l-1,41.1l-3.3,2.2l-7.5-38.7c-0.3-1.7-2.2-2.5-3.7-1.7l-6.5,3.5c-0.8,0.4-1.3,1.3-1.3,2.2l-4.7,48.3
		l-2.9,1.9"/>
</g>
<path class="st6" d="M1514.4-151.9L1514.4-151.9c0.3-1.9,1.5-3.4,3.1-4.2c0.6-0.3,1.1-0.7,1.5-1.3c1.2-1.7,0.9-4.1-0.6-5.5
	c-1.7-1.5-4.4-1.3-5.8,0.5c-0.4,0.5-0.7,1.1-0.8,1.7c-0.4,1.9-1.7,3.5-3.5,4.3l0,0l-10.3,3c-0.7,0.2-1.2,0.6-1.6,1.2l-2,3.4
	c-0.4,0.7-0.1,1.5,0.7,1.8l0,0l2.4-3.1c0.6-0.8,1.5-1.3,2.4-1.4l2.4-0.3c0.6-0.1,1,0.6,0.6,1.1l-14.2,16.6c-0.4,0.4-0.3,1.1,0.1,1.4
	l0.7,0.6l8.9-7.4c0.3-0.2,0.7-0.2,0.9,0l1.2,1c0.3,0.3,0.4,0.7,0.2,1l-5.1,10.3l0.8,0.7c0.5,0.4,1.1,0.3,1.5-0.2l12.5-17.8
	c0.2-0.3,0.7-0.2,0.8,0.2l0.2,2.5c0.1,0.9-0.3,1.9-0.9,2.6l-2.6,3.1l0,0c0.4,0.7,1.3,0.8,1.9,0.3l3.2-2.9c0.4-0.3,0.6-0.8,0.6-1.3
	L1514.4-151.9z"/>
<g>
	<polyline class="st5" points="-936.7,376.2 -927.9,323.6 -920.4,370.4 	"/>
	<g>
		<path class="st7" d="M-924.8,342.6c-1.3,0-2.7-0.1-4-0.4l-20.9-3.7c-6.1-1.1-11.3-4.4-14.9-9.5c-3.5-5-4.9-11.1-3.8-17.2
			c1.9-11,11.5-19,22.6-19c1.3,0,2.7,0.1,4,0.4l11.4,2l0.2-0.3c4.3-5.9,11.3-9.5,18.6-9.5c4.8,0,9.3,1.5,13.2,4.2l4.6,3.2
			c10.4,7.3,12.8,21.7,5.5,32.1c-4.3,6.1-11.3,9.7-18.8,9.7h-0.6l-0.2,0.2C-912.1,339.8-918.3,342.6-924.8,342.6z"/>
		<path d="M-911.5,286c4.7,0,9.1,1.4,13,4.1l4.6,3.2c10.1,7.2,12.6,21.2,5.4,31.4c-4.2,6-11.1,9.5-18.4,9.5c-0.1,0-0.2,0-0.3,0h-0.5
			l-0.3,0.3c-4.3,4.8-10.4,7.5-16.7,7.5c-1.3,0-2.6-0.1-3.9-0.3l-20.9-3.7c-12.2-2.2-20.4-13.9-18.3-26.1
			c1.9-10.8,11.2-18.6,22.1-18.6c1.3,0,2.6,0.1,3.9,0.3l11.1,2l0.6,0.1l0.4-0.5C-925.5,289.5-918.7,286-911.5,286 M-911.5,285
			c-7.3,0-14.4,3.4-19,9.7l-11.1-2c-1.4-0.2-2.8-0.4-4.1-0.4c-11.2,0-21.1,8-23.1,19.4l0,0c-2.3,12.8,6.3,25,19.1,27.2l20.9,3.7
			c1.4,0.2,2.8,0.4,4.1,0.4c6.8,0,13.1-3,17.5-7.8c0.1,0,0.2,0,0.4,0c7.4,0,14.6-3.5,19.2-9.9l0,0c7.5-10.6,5-25.3-5.6-32.8
			l-4.6-3.2C-902.1,286.4-906.8,285-911.5,285L-911.5,285z"/>
	</g>
</g>
<polygon class="st8" points="145.4,543.4 942.4,249.4 944.8,249.4 324,578.5 141.7,573.6 "/>
<path class="st9" d="M110,475.6c0,0,782.7-251.8,765.9-194c-0.4,1.4-1.4,2.6-2.8,3.2L235.3,601.6L73.9,566.9L110,475.6z"/>
<g>
	<path class="st4" d="M535.1,427.1L474,455.7c-1.4,0.6-2,2.3-1.3,3.6l0.5,1.1c0.6,1.4,2.3,2,3.6,1.3l61.1-28.6
		c1.4-0.6,2-2.3,1.3-3.6l-0.5-1.1C538.1,427.1,536.4,426.5,535.1,427.1z"/>
</g>
<g>
	<polyline class="st5" points="-323.5,404.1 -320.7,352.6 -308.3,398.4 	"/>
	<g>
		<path class="st7" d="M-330,373.3c-6.5,0-12.6-3.2-16.3-8.5l-5-7.2c-3-4.3-4.1-9.6-3.2-14.8c1-5.2,3.9-9.7,8.2-12.7l18.3-12.6
			c3.3-2.3,7.2-3.5,11.2-3.5c6.5,0,12.6,3.2,16.3,8.5l5,7.2c6.2,9,3.9,21.3-5.1,27.4l-18.3,12.6C-322.1,372.1-326,373.3-330,373.3
			L-330,373.3z"/>
		<path d="M-316.7,314.6c6.3,0,12.3,3.1,15.9,8.3l5,7.2c6,8.7,3.8,20.7-4.9,26.8l-18.3,12.6c-3.2,2.2-7,3.4-10.9,3.4
			c-6.3,0-12.3-3.1-15.9-8.3l-5-7.2c-2.9-4.2-4-9.3-3.1-14.4s3.8-9.4,8-12.4l18.3-12.6C-324.4,315.8-320.6,314.6-316.7,314.6
			 M-316.7,313.6c-4,0-8,1.2-11.5,3.6l-18.3,12.6c-9.2,6.3-11.5,18.9-5.2,28.1l5,7.2c3.9,5.7,10.2,8.8,16.7,8.8c4,0,8-1.2,11.5-3.6
			l18.3-12.6c9.2-6.3,11.5-18.9,5.2-28.1l-5-7.2C-303.9,316.7-310.3,313.6-316.7,313.6L-316.7,313.6z"/>
	</g>
</g>
<path class="st10" d="M457.1,468.1l-0.5-1.1c-0.6-1.4-2.2-2-3.6-1.3l-63.8,29.8c-0.1,0.1-0.3,0.1-0.4,0.2l-79.9,37.4
	c-1.4,0.6-2,2.3-1.3,3.6l0.5,1.1c0.6,1.4,2.3,2,3.6,1.3l83.8-39.2c0.1-0.1,0.2-0.1,0.4-0.2l59.9-28
	C457.2,471.1,457.8,469.4,457.1,468.1z"/>
<g>
	<path class="st10" d="M609.4,392.3l-53.6,25.1c-1.4,0.6-2,2.3-1.3,3.6l0.5,1.1c0.6,1.4,2.3,2,3.6,1.3l53.6-25.1
		c1.4-0.6,2-2.3,1.3-3.6l-0.5-1.1C612.4,392.2,610.8,391.7,609.4,392.3z"/>
</g>
<g>
	<path class="st10" d="M671.1,363.7l-40.3,18.9c-1.4,0.6-1.9,2.2-1.3,3.5l0.5,1.1c0.6,1.4,2.2,1.9,3.5,1.3l40.3-18.9
		c1.4-0.6,1.9-2.2,1.3-3.5l-0.5-1.1C674,363.6,672.5,363,671.1,363.7z"/>
</g>
<g>
	<path class="st10" d="M723.1,339.6l-11.9,5.6c-1.3,0.6-1.8,2.1-1.2,3.3l0.5,1c0.6,1.3,2.1,1.8,3.3,1.2l11.9-5.6
		c1.3-0.6,1.8-2.1,1.2-3.3l-0.5-1C725.8,339.5,724.4,339,723.1,339.6z"/>
</g>
<g>
	<path class="st10" d="M746.6,328.6l-6.7,3.2c-1.2,0.5-1.8,2-1.1,3.2l0.4,1c0.5,1.2,2,1.8,3.2,1.1l6.7-3.2c1.2-0.5,1.8-2,1.1-3.2
		l-0.4-1C749.2,328.6,747.8,328.1,746.6,328.6z"/>
</g>
<g>
	<path class="st10" d="M768.1,319.2l-5.5,2.6c-1,0.4-1.5,1.7-0.9,2.6l0.4,0.8c0.4,1,1.7,1.5,2.6,0.9l5.5-2.6c1-0.4,1.5-1.7,0.9-2.6
		l-0.4-0.8C770.3,319.1,769.1,318.7,768.1,319.2z"/>
</g>
<g>
	<path class="st10" d="M797.5,305.3l-4.3,2c-0.8,0.3-1.1,1.3-0.7,2l0.3,0.6c0.3,0.8,1.3,1.1,2,0.7l4.3-2c0.8-0.3,1.1-1.3,0.7-2
		l-0.3-0.6C799.2,305.3,798.3,304.9,797.5,305.3z"/>
</g>
<g>
	<path class="st10" d="M692.2,354.3l-12,5.6c-1.3,0.6-1.8,2.1-1.2,3.3l0.5,1c0.6,1.3,2.1,1.8,3.3,1.2l12-5.6
		c1.3-0.6,1.8-2.1,1.2-3.3l-0.5-1C694.9,354.3,693.4,353.7,692.2,354.3z"/>
</g>
<g>
	<polyline class="st5" points="-234.3,296.4 -233.6,277.3 -230.3,296.4 	"/>
	<g>
		<path class="st7" d="M-228,285.7c-0.3,0-0.5,0-0.8,0l-9.4-0.9c-4.4-0.4-7.7-4.4-7.3-8.9l0.4-3.7c0.4-4.2,3.9-7.3,8-7.3
			c0.3,0,0.5,0,0.8,0l9.4,0.9c2.2,0.2,4.1,1.3,5.5,2.9c1.4,1.7,2,3.8,1.8,5.9l-0.4,3.7C-220.4,282.6-223.8,285.7-228,285.7
			L-228,285.7z"/>
		<path d="M-237,265.4c0.3,0,0.5,0,0.8,0l9.4,0.9c4.2,0.4,7.2,4.1,6.8,8.3l-0.4,3.7c-0.4,3.9-3.6,6.8-7.5,6.8c-0.3,0-0.5,0-0.8,0
			l-9.4-0.9c-2-0.2-3.8-1.2-5.1-2.7c-1.3-1.6-1.9-3.5-1.7-5.6l0.4-3.7C-244.2,268.3-240.9,265.4-237,265.4 M-237,264.4
			c-4.4,0-8.1,3.3-8.5,7.7l-0.4,3.7c-0.5,4.7,3,8.9,7.7,9.4l9.4,0.9c0.3,0,0.6,0,0.9,0c4.4,0,8.1-3.3,8.5-7.7l0.4-3.7
			c0.5-4.7-3-8.9-7.7-9.4l-9.4-0.9C-236.4,264.4-236.7,264.4-237,264.4L-237,264.4z"/>
	</g>
</g>
<g>
	<path class="st5" d="M-164.4,487.8l-6-19.7c-0.3-1.1-0.4-2.3-0.4-3.4v-32.1l-6.2-4.3l-18.5,64"/>
	<g>
		<path class="st7" d="M-161.9,451c-8.5,0-16.5-4.1-21.4-11.1l-0.2-0.2h-0.3c-0.5,0-1,0-1.5,0c-8.6,0-16.7-4.2-21.6-11.4
			c-4-5.8-5.5-12.7-4.2-19.6s5.1-12.9,10.9-16.8l12-8.3c4.4-3,9.5-4.6,14.9-4.6c8.6,0,16.7,4.2,21.6,11.4c1.6,2.4,2.9,5,3.7,7.8
			l0.1,0.4h0.5c14.5,0,26.2,11.8,26.2,26.2s-11.7,26.2-26.1,26.2H-161.9z"/>
		<path d="M-173.2,379.5c8.5,0,16.4,4.2,21.2,11.1c1.6,2.3,2.8,4.9,3.6,7.7l0.2,0.7h0.8h0.2c14.2,0,25.7,11.5,25.7,25.7
			s-11.5,25.7-25.7,25.7h-14.7c-8.3,0-16.2-4.1-21-10.9l-0.3-0.5h-0.6c-0.5,0-1,0-1.4,0c-8.5,0-16.4-4.2-21.2-11.1
			c-3.9-5.7-5.4-12.5-4.1-19.3c1.2-6.8,5-12.6,10.7-16.5l12-8.3C-183.5,381.1-178.4,379.5-173.2,379.5L-173.2,379.5 M-173.2,378.5
			c-5.2,0-10.5,1.5-15.1,4.7l-12,8.3c-12.2,8.4-15.2,25-6.8,37.2l0,0c5.2,7.5,13.5,11.6,22,11.6c0.5,0,1,0,1.5,0
			c4.8,6.8,12.8,11.3,21.8,11.3h14.6c14.8,0,26.7-12,26.7-26.7s-12-26.7-26.7-26.7h-0.2c-0.8-2.8-2-5.5-3.7-8l0,0
			C-156.4,382.6-164.7,378.5-173.2,378.5L-173.2,378.5z"/>
	</g>
</g>
<g>
	<path class="st7" d="M-706.7,555.6c-26.1,0-49.5-17.4-57-42.4l-7.4-24.8c-9.4-31.4,8.5-64.7,39.9-74.1l51.1-15.3
		c5.6-1.7,11.3-2.5,17.1-2.5c26.1,0,49.5,17.4,57,42.4l7.4,24.8c9.4,31.4-8.5,64.7-39.9,74.1l-51.1,15.3
		C-695.1,554.8-700.9,555.6-706.7,555.6L-706.7,555.6z"/>
	<path d="M-662.9,396.9c12.4,0,24.8,4.1,34.9,11.5c10.4,7.6,17.9,18.2,21.6,30.6l7.4,24.8c4.5,15.1,2.9,31.1-4.6,44.9
		c-7.5,13.8-19.9,24-35,28.5l-51.1,15.3c-5.5,1.7-11.2,2.5-17,2.5c-12.4,0-24.8-4.1-34.9-11.5c-10.4-7.6-17.9-18.2-21.6-30.6
		l-7.4-24.8c-9.3-31.2,8.4-64.1,39.6-73.5l51.1-15.3C-674.4,397.8-668.7,396.9-662.9,396.9 M-662.9,395.9c-5.7,0-11.5,0.8-17.3,2.5
		l-51.1,15.3c-31.7,9.5-49.8,43-40.2,74.7l7.4,24.8c7.8,26,31.6,42.8,57.4,42.8c5.7,0,11.5-0.8,17.3-2.5l51.1-15.3
		c31.7-9.5,49.8-43,40.2-74.7l-7.4-24.8C-613.3,412.7-637.1,395.9-662.9,395.9L-662.9,395.9z"/>
</g>
<path class="st6" d="M1521.9,344.9l-0.2-0.3c-8.6-14.9-9-32.9-2-48.7c2.4-5.3,3.6-11.3,3.2-17.6c-1.1-19.5-17.2-35.1-36.7-35.7
	c-21.5-0.7-39.2,16.6-39.2,38c0,6.1,1.4,11.8,4,16.9c8,16.1,8.1,35,0,51.1l0,0l-56.9,81.9c-3.6,5.2-5.1,11.6-4.2,17.8l5.5,36.5
	c1.1,7.1,8.4,11.3,15.1,8.8l0,0l-0.7-36.9c-0.2-9.1,3.1-17.8,9.3-24.5l15.3-16.6c4-4.3,11.2-1.4,11.1,4.5l-5.2,203.1
	c-0.1,5.2,4,9.4,9.2,9.4h8.6l20.9-105.5c0.6-3.2,3.4-5.5,6.7-5.5h14.1c3.7,0,6.9,2.6,7.7,6.2l23.6,104.8h9.9c5.4,0,9.7-4.6,9.4-10
	L1536.1,421c-0.3-3.6,4.2-5.6,6.7-2.9l15.9,17.3c6,6.5,9.2,15.1,9,23.9l-0.7,37.3l0,0c6.7,2.6,14-1.7,15.1-8.8l5.9-39.3
	c0.7-4.4-0.4-9-3-12.7L1521.9,344.9z"/>
<g>
	<rect x="-7" y="-338" class="st11" width="63" height="63"/>
	<rect x="56" y="-338" class="st10" width="63" height="63"/>
	<rect x="119" y="-338" class="st12" width="63" height="63"/>
	<rect x="182" y="-338" class="st13" width="63" height="63"/>
	<rect x="245" y="-338" class="st7" width="63" height="63"/>
	<rect x="308" y="-338" class="st14" width="63" height="63"/>
	<rect x="371" y="-338" class="st15" width="63" height="63"/>
	<rect x="434" y="-338" class="st16" width="63" height="63"/>
	<rect x="497" y="-338" class="st17" width="63" height="63"/>
</g>
<g>
	<path class="st4" d="M527.9-134.9c-1-3.8-23.5-9-49.2-9.5c-8.9-2-21.5-2.5-34.7-3c-12-0.5-24.4-2.1-34.8-0.1
		c-10.5,2-25.1,7.9-22,11.8c3.1,3.9,23.4,1.7,32.3,2.4c1.8,0.1,6.2,2.4,12.5,2.4c6.9,2.2,19.3,6.7,26.2,7.3c4,0.3,22.1,0.1,43-2.7
		C510.6-127.6,528.9-131.2,527.9-134.9z"/>
	<path class="st5" d="M527.9-134.9c-1-3.8-23.5-9-49.2-9.5c-8.9-2-21.5-2.5-34.7-3c-12-0.5-24.4-2.1-34.8-0.1
		c-10.5,2-25.1,7.9-22,11.8c3.1,3.9,23.4,1.7,32.3,2.4c1.8,0.1,6.2,2.4,12.5,2.4c6.9,2.2,19.3,6.7,26.2,7.3c4,0.3,22.1,0.1,43-2.7
		C510.6-127.6,528.9-131.2,527.9-134.9z"/>
</g>
<g>
	<path class="st4" d="M61.7-186.6c0.9,3.5,13.4,7.9,33.6,10.7c11.5,1.6,24.8,1.5,38.2,1.8c8.9,2,20.2,5.8,32.8,6.9
		c10.7,1,22.2,2.8,33.4,2.6c11.7-0.2,22.6-5.4,32.7-7.3c15.1-2.9,34.1-6.3,29.7-11.9c-4.4-5.7-30.6-11-43.3-12
		c-2.6-0.2-9,0.8-18,0.7c-9.9-3.2-28.4-3.5-38.2-4.2c-3.6-0.3-15.1-0.9-30.6-0.5c-9,0.3-19.2,2.8-30.2,4.3
		C88.1-193.6,60.3-191.9,61.7-186.6z"/>
	<path class="st5" d="M61.7-186.6c0.9,3.5,13.4,7.9,33.6,10.7c11.5,1.6,24.8,1.5,38.2,1.8c8.9,2,20.2,5.8,32.8,6.9
		c10.7,1,22.2,2.8,33.4,2.6c11.7-0.2,22.6-5.4,32.7-7.3c15.1-2.9,34.1-6.3,29.7-11.9c-4.4-5.7-30.6-11-43.3-12
		c-2.6-0.2-9,0.8-18,0.7c-9.9-3.2-28.4-3.5-38.2-4.2c-3.6-0.3-15.1-0.9-30.6-0.5c-9,0.3-19.2,2.8-30.2,4.3
		C88.1-193.6,60.3-191.9,61.7-186.6z"/>
</g>
<g>
	<path class="st4" d="M-96-91.7c-2.6-11.7-10.5-21.2-21.2-29.9c-8.7-7.1-18.8-15-31.4-20.4c-10.7-4.6-24.1-4.2-36.8-7.7
		c-11.6-3.2-22.8-9.9-35.5-12.4c-12.1-2.3-25-0.5-37.5-2.2c-12.4-1.7-24.8-2.9-37.1-4c-12.7-1.2-24.8-7.6-36.9-8.4
		c-13.1-0.8-25.8,0-37.5-0.4c-13.8-0.5-26.5,0.9-37.5,0.8c-17.3-0.2-29.8-3.1-36.8-3c-0.2-2.2-0.7-2.3-1.3-4.5
		c-2.4-10.8-10.8-18.4-20.3-26.6c-7.8-6.8-16.7-13.5-28.2-18.8c-9.7-4.5-19.8-10.6-31.4-14.2c-10.6-3.2-22.4-3.3-34.1-5.8
		c-11-2.4-22.3-4.1-33.9-5.9c-11.3-1.8-22.8-2.3-34.2-3.6c-11.5-1.3-22.6-6.1-33.9-7c-11.8-0.9-23.2-3.9-34.3-4.5
		c-12.1-0.6-23.8-1.4-34.5-1.7c-12.9-0.4-24.6,3.4-34.6,3.3c-18.3-0.1-30.9-1.9-34.5-1.8c-4.4,0.1-17.6,3.8-36.5,4.9
		c-10.6,0.6-23.4-3-36.9-1.8c-11.5,1-23.5,5.4-36.2,6.8c-11.9,1.3-24.5-0.6-36.8,1.2c-12.1,1.8-23.3,9.2-35.2,11.4
		c-12.3,2.4-25.8-1.4-37.3,1.5c-12.5,3.2-23.4,10.4-34.1,14.5c-12.7,4.9-25.8,7.7-34.6,13.9c-11.7,8.3-16,21-17.6,32
		c-1.6,10.9,3.1,20.7,10.8,31.2c6.4,8.8,12.2,20.2,21.6,27.8c9.4,7.6,22.2,10.5,31.4,16.3c13.7,8.6,24.5,16.4,29.4,18.9
		c10.8,5.6,21.7,11.7,34.7,15.9c10.9,3.5,23.9,1.7,38,4c11.2,1.8,22.9,10.1,37.1,11c11.5,0.8,24.4,0.9,38.3,1
		c11.7,0.1,24.4-4,38.1-4.4c11.9-0.3,24.5-2.1,38-2.8c12-0.7,25.2,0.2,38.6-0.8c5.9,9.6,12.3,22.3,22.3,30.8
		c9.6,8.1,20.9,15.3,30.7,21.5c14.5,9.2,26.8,16.8,31.9,19.5c9.8,5.1,22.7,3.4,34.2,7.4c9.9,3.4,19.6,9.7,32.1,12
		c10.1,1.9,21.6,1.4,34.2,2.5c10.4,0.9,21.6,2.3,34.1,2.7c10.6,0.3,22,3.9,34.3,3.8c10.7-0.1,21.9-6.2,34.1-6.7
		c10.8-0.4,22.1-0.9,34.2-1.6c10.9-0.7,22.1-2.2,34.1-3.2c10.9-0.8,22.7,2.9,34.5,1.9c13-1.1,25.1-1.2,36.5-1.7
		c13.2-0.6,25.3-4.4,36.5-4.4c13.4,0,25.5,5,36.6,5.2c13.6,0.2,25.8,1.1,36.8,0.6c13.4-0.6,24.1-8.9,35-12.3
		c11.3-3.5,20.1-8.8,30.4-17.3c3.1-2.6,16.5-8.7,27.1-21.4c7-8.4,14.6-18.2,19.2-29C-94.9-68.3-93.4-80.3-96-91.7z"/>
	<path class="st5" d="M-96-91.7c-2.6-11.7-10.5-21.2-21.2-29.9c-8.7-7.1-18.8-15-31.4-20.4c-10.7-4.6-24.1-4.2-36.8-7.7
		c-11.6-3.2-22.8-9.9-35.5-12.4c-12.1-2.3-25-0.5-37.5-2.2c-12.4-1.7-24.8-2.9-37.1-4c-12.7-1.2-24.8-7.6-36.9-8.4
		c-13.1-0.8-25.8,0-37.5-0.4c-13.8-0.5-26.5,0.9-37.5,0.8c-17.3-0.2-29.8-3.1-36.8-3c-0.2-2.2-0.7-2.3-1.3-4.5
		c-2.4-10.8-10.8-18.4-20.3-26.6c-7.8-6.8-16.7-13.5-28.2-18.8c-9.7-4.5-19.8-10.6-31.4-14.2c-10.6-3.2-22.4-3.3-34.1-5.8
		c-11-2.4-22.3-4.1-33.9-5.9c-11.3-1.8-22.8-2.3-34.2-3.6c-11.5-1.3-22.6-6.1-33.9-7c-11.8-0.9-23.2-3.9-34.3-4.5
		c-12.1-0.6-23.8-1.4-34.5-1.7c-12.9-0.4-24.6,3.4-34.6,3.3c-18.3-0.1-30.9-1.9-34.5-1.8c-4.4,0.1-17.6,3.8-36.5,4.9
		c-10.6,0.6-23.4-3-36.9-1.8c-11.5,1-23.5,5.4-36.2,6.8c-11.9,1.3-24.5-0.6-36.8,1.2c-12.1,1.8-23.3,9.2-35.2,11.4
		c-12.3,2.4-25.8-1.4-37.3,1.5c-12.5,3.2-23.4,10.4-34.1,14.5c-12.7,4.9-25.8,7.7-34.6,13.9c-11.7,8.3-16,21-17.6,32
		c-1.6,10.9,3.1,20.7,10.8,31.2c6.4,8.8,12.2,20.2,21.6,27.8c9.4,7.6,22.2,10.5,31.4,16.3c13.7,8.6,24.5,16.4,29.4,18.9
		c10.8,5.6,21.7,11.7,34.7,15.9c10.9,3.5,23.9,1.7,38,4c11.2,1.8,22.9,10.1,37.1,11c11.5,0.8,24.4,0.9,38.3,1
		c11.7,0.1,24.4-4,38.1-4.4c11.9-0.3,24.5-2.1,38-2.8c12-0.7,25.2,0.2,38.6-0.8c5.9,9.6,12.3,22.3,22.3,30.8
		c9.6,8.1,20.9,15.3,30.7,21.5c14.5,9.2,26.8,16.8,31.9,19.5c9.8,5.1,22.7,3.4,34.2,7.4c9.9,3.4,19.6,9.7,32.1,12
		c10.1,1.9,21.6,1.4,34.2,2.5c10.4,0.9,21.6,2.3,34.1,2.7c10.6,0.3,22,3.9,34.3,3.8c10.7-0.1,21.9-6.2,34.1-6.7
		c10.8-0.4,22.1-0.9,34.2-1.6c10.9-0.7,22.1-2.2,34.1-3.2c10.9-0.8,22.7,2.9,34.5,1.9c13-1.1,25.1-1.2,36.5-1.7
		c13.2-0.6,25.3-4.4,36.5-4.4c13.4,0,25.5,5,36.6,5.2c13.6,0.2,25.8,1.1,36.8,0.6c13.4-0.6,24.1-8.9,35-12.3
		c11.3-3.5,20.1-8.8,30.4-17.3c3.1-2.6,16.5-8.7,27.1-21.4c7-8.4,14.6-18.2,19.2-29C-94.9-68.3-93.4-80.3-96-91.7z"/>
</g>
<g>
	<path class="st4" d="M1373.5-75.9c-2-8.7-9-13.9-21.8-18.2c-9.2-3.1-20-4.4-31.1-5.9c-10.9-1.5-21.7-5.1-31.6-5.6
		c-15.1-0.7-27-3.8-31.6-3.7c-0.1-0.8-0.7,1.9-0.9,1.1c-2-8.8-12.6-11.8-25.6-16.1c-9.3-3.1-19.2-9.6-30.5-11.1
		c-11.1-1.5-22.6,0.6-32.6,0.1c-16.9-0.8-30-0.5-32.4-0.5c-3.1,0.1-18.9,0.2-37.5,2.2c-12.2,1.4-24.9,5.2-36.5,8.2
		c-16.2,4.2-29.9,7.3-31.2,16.3c-2.1,14.6,27.7,28.7,33,31.5c7.7,4,15.7,7.1,28.7,8.7c8.1,1,17.7-1.3,30.3-1.6
		c8.7-0.2,17.1,6.4,28.8,5.6c6.9,11.2,28.6,15.6,32.8,17.8c8.6,4.5,17.1,7.6,32.9,9c9.2,0.8,20.4,2.6,35,2c10.1-0.4,21.5-3.3,35-4.5
		c15.7-1.4,28.1-0.1,37.9,0.1c16.1,0.2,27.5,3.6,37.3-4.4C1364.2-46.9,1376.6-62.2,1373.5-75.9z"/>
	<path class="st5" d="M1373.5-75.9c-2-8.7-9-13.9-21.8-18.2c-9.2-3.1-20-4.4-31.1-5.9c-10.9-1.5-21.7-5.1-31.6-5.6
		c-15.1-0.7-27-3.8-31.6-3.7c-0.1-0.8-0.7,1.9-0.9,1.1c-2-8.8-12.6-11.8-25.6-16.1c-9.3-3.1-19.2-9.6-30.5-11.1
		c-11.1-1.5-22.6,0.6-32.6,0.1c-16.9-0.8-30-0.5-32.4-0.5c-3.1,0.1-18.9,0.2-37.5,2.2c-12.2,1.4-24.9,5.2-36.5,8.2
		c-16.2,4.2-29.9,7.3-31.2,16.3c-2.1,14.6,27.7,28.7,33,31.5c7.7,4,15.7,7.1,28.7,8.7c8.1,1,17.7-1.3,30.3-1.6
		c8.7-0.2,17.1,6.4,28.8,5.6c6.9,11.2,28.6,15.6,32.8,17.8c8.6,4.5,17.1,7.6,32.9,9c9.2,0.8,20.4,2.6,35,2c10.1-0.4,21.5-3.3,35-4.5
		c15.7-1.4,28.1-0.1,37.9,0.1c16.1,0.2,27.5,3.6,37.3-4.4C1364.2-46.9,1376.6-62.2,1373.5-75.9z"/>
</g>
<path class="st6" d="M-201.5,230c18,0,26.6-16.3,26.6-29.9c0-17.7,16.7-32.1,37.3-32.1s37.3,14.4,37.3,32.1
	c0,12.9,9.8,29.2,27.8,29.2"/>
<g>
	<path class="st3" d="M469.9,253.7c-6-2.4-10.2-8.2-10.2-15.1c0-8.9,7.2-16.2,16.2-16.2c8.9,0,16.2,7.2,16.2,16.2
		c0,6.5-3.8,12.1-9.4,14.7"/>
</g>
<path class="st3" d="M403.5,256.5l32.9-44.8c1.5-2.1,4.6-2.1,6.2,0l32.9,44.8"/>
<path class="st18" d="M-9.1-5.2v635.9h1358V-5.2H-9.1z M663.9,528.4H180.2V319h483.7V528.4z M663.9,308H180.2V96.8h483.7V308z
	 M1159.6,528.4H676.9V319h482.7L1159.6,528.4L1159.6,528.4z M1159.6,308H675.9V96.8h483.7L1159.6,308L1159.6,308z"/>
<rect x="676.5" y="96.8" class="st5" width="483.2" height="210.7"/>
<rect x="180.3" y="96.8" class="st5" width="484.2" height="210.7"/>
<rect x="676.5" y="318.5" class="st5" width="483.2" height="209.9"/>
<rect x="180.3" y="318.5" class="st5" width="484.2" height="209.9"/>
<path class="st19" d="M779.6,518.3c-2.7,3.9-1,4.3-5,12.2c-1.9,3.8-3.4,5.8-2.5,7.8c0.8,1.8,3.1,2.9,4.9,3.1
	c1.9,0.3,3.5-0.2,4.5-0.6c5.5-2,9.8-6.5,13.2-9.9c7.6-7.7,6.9-7.6,10.2-10.2c3.7-2.9,5.1-3.3,6.4-5.6c1.8-3.2,2.1-8.2-1.1-11.6
	c-2-2.1-5.3-3.6-8.6-3c-3.5,0.6-4.4,3-10.5,8.4C783.7,515.5,782.4,514.3,779.6,518.3z"/>
<rect x="-1241.5" y="2154.5" class="st5" width="1839" height="866.9"/>
<g id="Layer_1_1_">
	<polyline class="st10" points="-1212,662 -1588,1202 -797,1202 -1086,662 	"/>
</g>
<path class="st20" d="M1793.5,7.5c-5.5-50.9-60.1-89.8-111-90c-55.5-0.3-101.1,45.3-114,86c-10,31.6,2.2,52.3-18,90
	c-10.5,19.7-19.2,24-24,43c-2.6,10.2-3.4,21.9-2.5,32.7c-9.2,4.1-16.8,11.6-20.5,19.3c-5.8,12,1.2,17.1-5,34c-3.6,9.8-5.8,7.8-17,28
	c-9.5,17.2-11.4,25-9,32c1.2,3.7,3.4,6.3,5,8l11,2c1-3.3,2.8-8,6-13c0.9-1.4,6.6-10.2,16-16c12.7-7.9,20.7-3.3,32-7
	c20.4-6.7,39.1-36,32-61c-0.7-2.4-1.7-5-2.9-7.5c14-14.7,33.1-35.2,64.9-50.5c46.9-22.5,63.8-6,100-30
	C1740.9,104.6,1799.6,64.4,1793.5,7.5z"/>
<path class="st9" d="M768.2,536.7l0.6,2.5c0.1,0.4,0,0.9-0.3,1.2l-5.8,6.5c-1.3,1.4-0.6,3.7,1.3,4.3l7.6,2.1c0.5,0.1,0.8,0.5,1,1
	l0.8,3.3c0.1,0.6,0.7,1,1.3,1h11c0.6,0,1.2-0.4,1.3-1l5.2-20.8c0.2-0.8-0.4-1.7-1.3-1.7h-21.4C768.6,535,768,535.8,768.2,536.7z
	 M769.4,549.9c-1.9-0.5-2.5-2.9-1.1-4.4l0,0c0.7-0.7,2-0.4,2.3,0.6l0.5,2.1C771.4,549.3,770.4,550.2,769.4,549.9L769.4,549.9z"/>
<g>
	<path class="st9" d="M997,402.9l-26.3,160.9c-0.4,2.5-2.6,4.3-5.1,4.2l-93.9-4.6c-2.6-0.1-4.7-2.3-4.7-5v-2c0-2.8,2.4-5.1,5.2-5
		l83.4,4.5c2.5,0.1,4.7-1.6,5.2-4.1l26.5-150.6c0.4-2.4,2.5-4.1,4.9-4.1l0,0C995.2,397.1,997.5,399.9,997,402.9z"/>
	<path class="st9" d="M1007.2,623.2l-64.1-76.9l30.7-32.6c2.7-2.9,0.7-7.6-3.3-7.6h-102c-2.5,0-4.5,2-4.5,4.5c0,2.5,2,4.5,4.5,4.5
		h79.1c3.9,0,6,4.7,3.3,7.6l-93.8,99.8c-2.7,2.9-0.7,7.6,3.3,7.6h1.7c1.2,0,2.4-0.5,3.3-1.4l71.9-76.2l61.5,76c0.8,1,2,1.6,3.3,1.6
		h1.9C1007.5,630.1,1009.5,625.9,1007.2,623.2z"/>
</g>
<path class="st21" d="M647,766.5H496l7.3-4.8c7-4.7,15.2-7.2,23.7-7.2h120"/>
<path class="st8" d="M808,561.6c1.6-0.7,1.2-3.6-0.5-3.6h-137h-1h-137c-1.7,0-2.1,2.8-0.5,3.6l17.8,7.9c0.9,0.4,1.2,1.6,0.8,2.6
	l-24.9,56.7c-0.5,1.2,0.2,2.7,1.3,2.7l0,0c0.5,0,1-0.3,1.2-0.8l33.8-58.4c0.3-0.5,0.7-0.8,1.2-0.8h106.2h1h105.2
	c0.5,0,0.9,0.3,1.2,0.8l34.5,58.5c0.3,0.5,0.7,0.8,1.2,0.8h0.3c1.1,0,1.9-1.5,1.3-2.7l-24.9-56.7c-0.4-1,0-2.2,0.8-2.6L808,561.6z"
	/>
<path class="st10" d="M889,274"/>
<path class="st9" d="M306.5,631.5h162.2c12.8,0,19.7-15,11.3-24.8c-10.1-11.8-25.7-24.5-48.5-30.2c-42.5-10.6-63.1-23.6-67.2-26.4
	c-0.4-0.3-0.8-0.6-1.2-1c-3.3-2.8-24-18.8-51.5,0.4c-19.8,13.9-27.4,45.2-30.3,64.9c-1.3,9,5.7,17.1,14.8,17.1H306.5z"/>
<path class="st19" d="M829.2,464.2c-4.8,6.3-8.6,9-13.3,17.5c-1.9,3.4-3.6,7.1-2.5,11.2c0.2,0.6,1.2,4.1,4.2,5.7
	c6.3,3.2,15.6-5.4,16-5.8c5.1-4.8,3.7-7.4,8.8-11.8c4.1-3.5,6.3-2.9,11.8-6.3c5.1-3.1,9.2-5.8,11.8-10.8c0.6-1.2,4.6-8.8,1-16
	c-0.4-0.9-1.8-3.6-4.8-5.5c-6.2-3.9-15-1.8-20.5,2C834.9,448.8,837.9,452.6,829.2,464.2z"/>
<g>
	<path class="st4" d="M690.5-182c-0.8-1.4-0.7-4-1.7-6.4c-0.7-1.8-2.2-3.7-2.7-6c-0.4-2-1.3-4.3-1.4-6.5c-0.1-2.1,0-4.5,0.3-6.7
		c0.4-2.4,1.2-4.9,2.2-7.2c0.9-2.2,2.7-4.2,4-6.2c1.3-1.9,2.7-4.1,4.3-5.9c1.6-1.7,3.8-3,5.7-4.7c1.8-1.6,4.1-2.4,6.1-3.9
		c1.9-1.4,3.6-3.2,5.7-4.5c2-1.3,3.6-3.4,5.7-4.6c2.1-1.2,4.5-1.8,6.7-2.9c2.1-1.1,4-2.7,6.3-3.7c2.2-1,5-0.6,7.2-1.5
		s4.2-2.5,6.5-3.3c2.2-0.9,5-0.4,7.3-1.2c2.2-0.8,4.3-2.1,6.6-2.9c2.3-0.8,4.1-2.9,6.4-3.6c2.3-0.7,5.1,0.1,7.4-0.6
		c2.3-0.7,4-3.7,6.3-4.3s4.8-0.6,7.2-1.3c2.3-0.6,4.6-1.7,6.9-2.3c2.3-0.6,5.2,0.9,7.5,0.3c2.4-0.5,4.3-2.8,6.7-3.3s4.7-1.3,7-1.8
		c2.4-0.5,5.2,1.1,7.5,0.7c2.4-0.5,4.5-2.3,6.9-2.7s5,0.5,7.4,0.1s4.8-0.9,7.1-1.3c2.4-0.4,4.4-3,6.8-3.3c2.4-0.4,5.1,1.1,7.5,0.7
		c2.4-0.4,4.7-1.8,7-2.1c2.4-0.3,5.1,1.1,7.4,0.8c2.4-0.3,4.7-1.7,7.1-2c2.4-0.3,4.8-1.2,7.1-1.5c2.4-0.3,4.9-0.1,7.3-0.4
		c2.5-0.2,4.8-1.2,7.2-1.4c2.5-0.2,5,0.7,7.3,0.5c2.5-0.2,4.9,0.2,7.3,0c2.5-0.2,4.9-0.4,7.2-0.6c2.5-0.1,4.9-0.1,7.2-0.1
		c2.6-0.1,5-0.8,7.2-0.8c2.6,0,5.1-0.4,7.3-0.4c2.8,0.1,5.3,0,7.3,0.2c4.1,0.4,5.3,1.7,5.5,2.7c0.1,0.6-0.8,1.7-5.4,3.5
		c-2,0.8-4.9,0.4-7.7,1.4c-2.2,0.8-4.6,1.6-7.3,2.5c-2.2,0.8-4.5,2-7.1,2.9c-2.3,0.8-4.3,2.9-6.8,3.8c-2.3,0.8-4.7,1.9-7.2,2.8
		c-2.3,0.8-4.7,1.2-6.9,2c-2.3,0.8-4.5,1.5-6.7,2.3c-2.3,0.8-4.2,2.5-6.4,3.3c-2.3,0.8-4.8,0.8-7,1.6c-2.3,0.8-4.8,0.8-7,1.6
		c-2.3,0.8-4.6,1.4-6.8,2.2c-2.3,0.8-3.9,3.4-6.1,4.1c-2.3,0.8-4.6,1.3-6.8,2.1c-2.3,0.8-5.1-0.2-7.3,0.6c-2.3,0.8-4.6,1.4-6.8,2.2
		c-2.3,0.8-4.3,2.1-6.6,2.9c-2.3,0.7-4.5,1.7-6.7,2.4c-2.3,0.7-4.7,1-6.9,1.6c-2.3,0.7-4,3.4-6.2,4c-2.3,0.7-4.7,0.9-7,1.6
		c-2.3,0.6-5.1-0.5-7.4,0.1c-2.3,0.6-4.2,2.6-6.5,3.2c-2.3,0.6-4.6,1.3-6.9,1.8c-2.3,0.5-5-0.5-7.3,0s-4.2,2.9-6.6,3.4
		c0,0-2.8-0.6-7.1,0.4c-2,0.5-4.3,1.1-6.8,1.8c-2.1,0.6-4.8,0-7.2,0.7c-2.2,0.6-3.8,3.5-6.1,4.3c-2.2,0.7-5-0.3-7.3,0.5
		c-2.2,0.8-4.4,1.8-6.6,2.6c-2.2,0.9-4.1,2.4-6.3,3.4c-2.2,0.9-4.5,1.5-6.6,2.6c-2.1,1-4.5,1.6-6.6,2.8c-2.1,1.2-3.4,3.7-5.3,4.9
		c-2,1.3-4,2.6-5.8,4c-1.9,1.5-4.4,2.2-6.1,3.8c-1,1-2.8,3.2-4.3,5.8c-1.1,1.9-0.8,4.4-1.1,7c-0.4,4.5,0.7,8,1.9,10.1
		c0,0-3-1.3-4.8-3.6C692.4-178.9,691-181.1,690.5-182z"/>
	<path class="st19" d="M690.5-182c-0.8-1.4-0.7-4-1.7-6.4c-0.7-1.8-2.2-3.7-2.7-6c-0.4-2-1.3-4.3-1.4-6.5c-0.1-2.1,0-4.5,0.3-6.7
		c0.4-2.4,1.2-4.9,2.2-7.2c0.9-2.2,2.7-4.2,4-6.2c1.3-1.9,2.7-4.1,4.3-5.9c1.6-1.7,3.8-3,5.7-4.7c1.8-1.6,4.1-2.4,6.1-3.9
		c1.9-1.4,3.6-3.2,5.7-4.5c2-1.3,3.6-3.4,5.7-4.6c2.1-1.2,4.5-1.8,6.7-2.9c2.1-1.1,4-2.7,6.3-3.7c2.2-1,5-0.6,7.2-1.5
		s4.2-2.5,6.5-3.3c2.2-0.9,5-0.4,7.3-1.2c2.2-0.8,4.3-2.1,6.6-2.9c2.3-0.8,4.1-2.9,6.4-3.6c2.3-0.7,5.1,0.1,7.4-0.6
		c2.3-0.7,4-3.7,6.3-4.3s4.8-0.6,7.2-1.3c2.3-0.6,4.6-1.7,6.9-2.3c2.3-0.6,5.2,0.9,7.5,0.3c2.4-0.5,4.3-2.8,6.7-3.3s4.7-1.3,7-1.8
		c2.4-0.5,5.2,1.1,7.5,0.7c2.4-0.5,4.5-2.3,6.9-2.7s5,0.5,7.4,0.1s4.8-0.9,7.1-1.3c2.4-0.4,4.4-3,6.8-3.3c2.4-0.4,5.1,1.1,7.5,0.7
		c2.4-0.4,4.7-1.8,7-2.1c2.4-0.3,5.1,1.1,7.4,0.8c2.4-0.3,4.7-1.7,7.1-2c2.4-0.3,4.8-1.2,7.1-1.5c2.4-0.3,4.9-0.1,7.3-0.4
		c2.5-0.2,4.8-1.2,7.2-1.4c2.5-0.2,5,0.7,7.3,0.5c2.5-0.2,4.9,0.2,7.3,0c2.5-0.2,4.9-0.4,7.2-0.6c2.5-0.1,4.9-0.1,7.2-0.1
		c2.6-0.1,5-0.8,7.2-0.8c2.6,0,5.1-0.4,7.3-0.4c2.8,0.1,5.3,0,7.3,0.2c4.1,0.4,5.3,1.7,5.5,2.7c0.1,0.6-0.8,1.7-5.4,3.5
		c-2,0.8-4.9,0.4-7.7,1.4c-2.2,0.8-4.6,1.6-7.3,2.5c-2.2,0.8-4.5,2-7.1,2.9c-2.3,0.8-4.3,2.9-6.8,3.8c-2.3,0.8-4.7,1.9-7.2,2.8
		c-2.3,0.8-4.7,1.2-6.9,2c-2.3,0.8-4.5,1.5-6.7,2.3c-2.3,0.8-4.2,2.5-6.4,3.3c-2.3,0.8-4.8,0.8-7,1.6c-2.3,0.8-4.8,0.8-7,1.6
		c-2.3,0.8-4.6,1.4-6.8,2.2c-2.3,0.8-3.9,3.4-6.1,4.1c-2.3,0.8-4.6,1.3-6.8,2.1c-2.3,0.8-5.1-0.2-7.3,0.6c-2.3,0.8-4.6,1.4-6.8,2.2
		c-2.3,0.8-4.3,2.1-6.6,2.9c-2.3,0.7-4.5,1.7-6.7,2.4c-2.3,0.7-4.7,1-6.9,1.6c-2.3,0.7-4,3.4-6.2,4c-2.3,0.7-4.7,0.9-7,1.6
		c-2.3,0.6-5.1-0.5-7.4,0.1c-2.3,0.6-4.2,2.6-6.5,3.2c-2.3,0.6-4.6,1.3-6.9,1.8c-2.3,0.5-5-0.5-7.3,0s-4.2,2.9-6.6,3.4
		c0,0-2.8-0.6-7.1,0.4c-2,0.5-4.3,1.1-6.8,1.8c-2.1,0.6-4.8,0-7.2,0.7c-2.2,0.6-3.8,3.5-6.1,4.3c-2.2,0.7-5-0.3-7.3,0.5
		c-2.2,0.8-4.4,1.8-6.6,2.6c-2.2,0.9-4.1,2.4-6.3,3.4c-2.2,0.9-4.5,1.5-6.6,2.6c-2.1,1-4.5,1.6-6.6,2.8c-2.1,1.2-3.4,3.7-5.3,4.9
		c-2,1.3-4,2.6-5.8,4c-1.9,1.5-4.4,2.2-6.1,3.8c-1,1-2.8,3.2-4.3,5.8c-1.1,1.9-0.8,4.4-1.1,7c-0.4,4.5,0.7,8,1.9,10.1
		c0,0-3-1.3-4.8-3.6C692.4-178.9,691-181.1,690.5-182z"/>
</g>
<g>
	<path class="st4" d="M667.5-172.8c-0.8-1.4-0.7-4-1.7-6.4c-0.7-1.8-2.2-3.7-2.7-6c-0.4-2-1.3-4.3-1.4-6.5c-0.1-2.1,0-4.5,0.3-6.7
		c0.4-2.3,1-4.7,1.7-7c0.6-2.3,2-4.4,2.9-6.6c0.9-2.2,1.7-4.5,2.8-6.6c1.1-2.1,2.8-3.8,4.1-5.8c1.2-2,3.2-3.4,4.7-5.3
		c1.4-1.9,2.5-4,4-5.8s2.4-4.2,4-5.9c1.6-1.7,3.7-2.9,5.5-4.6c1.7-1.6,3-3.7,4.8-5.2s4.6-1.9,6.4-3.3c1.8-1.5,3.3-3.4,5.2-4.8
		c1.9-1.4,4.6-1.6,6.6-2.9c1.9-1.3,3.6-3.1,5.6-4.3c2-1.3,3.2-3.7,5.2-4.9c2-1.2,4.9-1,6.9-2.1c2.1-1.2,3-4.4,5.1-5.5
		c2.1-1.1,4.5-1.6,6.6-2.6c2.1-1.1,4.1-2.5,6.2-3.5c2.2-1,5.2-0.1,7.3-1c2.2-1,3.7-3.5,5.9-4.3c2.2-0.9,4.4-2,6.5-2.8
		c2.3-0.8,5.2,0.4,7.4-0.4c2.3-0.8,4.1-2.8,6.3-3.5c2.4-0.7,5,0,7.2-0.5c2.5-0.6,4.7-1.2,6.8-1.6c2.7-0.5,4.8-3,6.7-3.2
		c3.9-0.3,5.8,1.6,6.1,2.9c0.1,0.6,0.5,3.1-2.2,6.5c-1.2,1.5-4,2-6.1,3.9c-1.5,1.4-2.6,3.7-4.7,5.3c-1.7,1.3-3.3,3.2-5.5,4.5
		c-1.9,1.2-4.1,2-6.3,3.2c-2,1.1-3.8,2.8-6,3.8c-2.2,1.1-4.9,1.1-6.8,2.1c-2.2,1.2-4.6,1.8-6.5,2.9c-2.2,1.2-4.2,2.6-6.1,3.7
		c-2.2,1.4-4.3,2.5-6.1,3.8c-2.1,1.5-3.6,3.5-5.3,4.8c-2.1,1.7-3.5,3.6-4.9,5.1c-1.9,2-3.2,3.8-4.5,5.5c-1.6,2.1-4.1,2.9-5.5,4.6
		c-1.5,1.7-2.1,4.2-4.4,5.5c-1.7,1-4.3,0.7-7,1.6c-1.9,0.7-4.1,1.1-6.7,1.8c-2.1,0.5-4.2,1.3-6.8,1.8c0,0-2,2.9-5.6,6.1
		c-1.6,1.5-3.3,3.4-5.4,5.5c-1.6,1.7-3.7,3.3-5.5,5.4c-1.6,1.9-3.2,3.8-4.9,6c-1.5,2-2.1,4.6-3.6,6.9c-1.3,2.1-3.4,3.8-4.7,6.2
		c-1.2,2.2-3.1,4.2-4.2,6.6c-0.6,1.3-1.6,3.3-2.3,6.1c-0.4,1.7,1.1,4.1,0.9,6.6c-0.4,4.5,1,7.7,2.2,9.8c0,0-1.5-2.6-3.3-5
		C671.3-171.2,668-171.9,667.5-172.8z"/>
	<path class="st19" d="M667.5-172.8c-0.8-1.4-0.7-4-1.7-6.4c-0.7-1.8-2.2-3.7-2.7-6c-0.4-2-1.3-4.3-1.4-6.5c-0.1-2.1,0-4.5,0.3-6.7
		c0.4-2.3,1-4.7,1.7-7c0.6-2.3,2-4.4,2.9-6.6c0.9-2.2,1.7-4.5,2.8-6.6c1.1-2.1,2.8-3.8,4.1-5.8c1.2-2,3.2-3.4,4.7-5.3
		c1.4-1.9,2.5-4,4-5.8s2.4-4.2,4-5.9c1.6-1.7,3.7-2.9,5.5-4.6c1.7-1.6,3-3.7,4.8-5.2s4.6-1.9,6.4-3.3c1.8-1.5,3.3-3.4,5.2-4.8
		c1.9-1.4,4.6-1.6,6.6-2.9c1.9-1.3,3.6-3.1,5.6-4.3c2-1.3,3.2-3.7,5.2-4.9c2-1.2,4.9-1,6.9-2.1c2.1-1.2,3-4.4,5.1-5.5
		c2.1-1.1,4.5-1.6,6.6-2.6c2.1-1.1,4.1-2.5,6.2-3.5c2.2-1,5.2-0.1,7.3-1c2.2-1,3.7-3.5,5.9-4.3c2.2-0.9,4.4-2,6.5-2.8
		c2.3-0.8,5.2,0.4,7.4-0.4c2.3-0.8,4.1-2.8,6.3-3.5c2.4-0.7,5,0,7.2-0.5c2.5-0.6,4.7-1.2,6.8-1.6c2.7-0.5,4.8-3,6.7-3.2
		c3.9-0.3,5.8,1.6,6.1,2.9c0.1,0.6,0.5,3.1-2.2,6.5c-1.2,1.5-4,2-6.1,3.9c-1.5,1.4-2.6,3.7-4.7,5.3c-1.7,1.3-3.3,3.2-5.5,4.5
		c-1.9,1.2-4.1,2-6.3,3.2c-2,1.1-3.8,2.8-6,3.8c-2.2,1.1-4.9,1.1-6.8,2.1c-2.2,1.2-4.6,1.8-6.5,2.9c-2.2,1.2-4.2,2.6-6.1,3.7
		c-2.2,1.4-4.3,2.5-6.1,3.8c-2.1,1.5-3.6,3.5-5.3,4.8c-2.1,1.7-3.5,3.6-4.9,5.1c-1.9,2-3.2,3.8-4.5,5.5c-1.6,2.1-4.1,2.9-5.5,4.6
		c-1.5,1.7-2.1,4.2-4.4,5.5c-1.7,1-4.3,0.7-7,1.6c-1.9,0.7-4.1,1.1-6.7,1.8c-2.1,0.5-4.2,1.3-6.8,1.8c0,0-2,2.9-5.6,6.1
		c-1.6,1.5-3.3,3.4-5.4,5.5c-1.6,1.7-3.7,3.3-5.5,5.4c-1.6,1.9-3.2,3.8-4.9,6c-1.5,2-2.1,4.6-3.6,6.9c-1.3,2.1-3.4,3.8-4.7,6.2
		c-1.2,2.2-3.1,4.2-4.2,6.6c-0.6,1.3-1.6,3.3-2.3,6.1c-0.4,1.7,1.1,4.1,0.9,6.6c-0.4,4.5,1,7.7,2.2,9.8c0,0-1.5-2.6-3.3-5
		C671.3-171.2,668-171.9,667.5-172.8z"/>
</g>
<path class="st3" d="M723.7,71.7"/>
</svg>
