<?xml version="1.0" encoding="utf-8"?>
<!-- Generator: Adobe Illustrator 22.0.1, SVG Export Plug-In . SVG Version: 6.00 Build 0)  -->
<svg version="1.1" id="Layer_1" xmlns="http://www.w3.org/2000/svg" xmlns:xlink="http://www.w3.org/1999/xlink" x="0px" y="0px"
	 viewBox="0 0 1340 630" style="enable-background:new 0 0 1340 630;" xml:space="preserve">
<style type="text/css">
	.st0{fill:#565950;}
	.st1{fill:#565950;stroke:#000000;stroke-miterlimit:10;}
	.st2{enable-background:new    ;}
	.st3{fill:none;stroke:#000000;stroke-miterlimit:10;}
	.st4{fill:#DDDDD3;}
	.st5{clip-path:url(#SVGID_3_);fill:#DDDDD3;}
	.st6{fill:#4C4F47;}
	.st7{clip-path:url(#SVGID_5_);}
	.st8{fill:#F2DCA5;}
	.st9{clip-path:url(#SVGID_7_);}
	.st10{clip-path:url(#SVGID_9_);}
	.st11{clip-path:url(#SVGID_11_);}
	.st12{fill:#C1C5E8;}
	.st13{fill:#F2DCA5;stroke:#000000;stroke-miterlimit:10;}
	.st14{fill:#414143;stroke:#000000;stroke-miterlimit:10;}
	.st15{fill:#414143;}
	.st16{fill:#E8E7E7;}
	.st17{fill:#CFD9C5;}
	.st18{fill:#BFDDA1;}
	.st19{fill:#41B369;}
	.st20{fill:#F8A079;}
	.st21{fill:#EF5B49;}
	.st22{fill:#FCC638;}
	.st23{fill:#EF5B49;stroke:#000000;stroke-miterlimit:10;}
	.st24{fill:#4C4F47;stroke:#000000;stroke-miterlimit:10;}
	.st25{fill:#636375;}
</style>
<g id="Layer_3">
</g>
<g>
	<g>
		<g>
			<path class="st0" d="M479.9,335.7l19.1-1.5l19.7-0.4l24.6,5.8l8.9,11.2l5,13.8l-3.6,17.3l-12.2,12.9l-17,5.3l-24.9,0.6l1,21
				l0.4,20.8l-16.3,1.7l-0.3-18.5l-0.7-18.1l-2-18.1l0.5-18.2l-2.4-18.1L479.9,335.7z M497.9,385.7l25-1.9l13.3-5.1l4.3-13.6
				l-7.7-14.9l-12.4-1.1l-23.4,1.3l1.1,16.9L497.9,385.7z"/>
			<path class="st1" d="M479.9,335.7l19.1-1.5l19.7-0.4l24.6,5.8l8.9,11.2l5,13.8l-3.6,17.3l-12.2,12.9l-17,5.3l-24.9,0.6l1,21
				l0.4,20.8l-16.3,1.7l-0.3-18.5l-0.7-18.1l-2-18.1l0.5-18.2l-2.4-18.1L479.9,335.7z M497.9,385.7l25-1.9l13.3-5.1l4.3-13.6
				l-7.7-14.9l-12.4-1.1l-23.4,1.3l1.1,16.9L497.9,385.7z"/>
		</g>
		<g>
			<path class="st0" d="M632.3,388.9l-21.2,1.1l-21,1.4l0.9,15.1l-0.5,15.9l2,16.2l-16.8,0.3l-0.9-18l-1.3-18.1l-0.5-18.2l-1.3-18.1
				l-1.9-18.1l-0.7-18.7l17.3-0.5l0.3,15.7l2.2,15.5l-0.4,16.1l21.9-1.3l21.2-1.9l-0.1-15.1l-1.2-15.5l-1.1-15.8h16.2l2.4,17.4
				l0.9,18.1l0.3,18.2l1.2,18.1l-0.1,18.2l1.7,18.1l-16.2,0.6l-0.7-15.5l-1.1-15.8L632.3,388.9z"/>
			<path class="st1" d="M632.3,388.9l-21.2,1.1l-21,1.4l0.9,15.1l-0.5,15.9l2,16.2l-16.8,0.3l-0.9-18l-1.3-18.1l-0.5-18.2l-1.3-18.1
				l-1.9-18.1l-0.7-18.7l17.3-0.5l0.3,15.7l2.2,15.5l-0.4,16.1l21.9-1.3l21.2-1.9l-0.1-15.1l-1.2-15.5l-1.1-15.8h16.2l2.4,17.4
				l0.9,18.1l0.3,18.2l1.2,18.1l-0.1,18.2l1.7,18.1l-16.2,0.6l-0.7-15.5l-1.1-15.8L632.3,388.9z"/>
		</g>
		<g>
			<path class="st0" d="M690.3,388.2l-8.3-15.7l-9-15.6l-9.4-15.4l-8.9-16l17.6-0.3l9.4,14.9l7.8,16.1l8.7,14.6l6.5-15.7l7-16.4
				l6.6-17l18.3-0.6l-7.8,16.7l-8,16.1l-6.8,16.7l-6.4,16.7l0.5,22.3l1.2,22.4l-15.7,1l-1.2-22.5L690.3,388.2z"/>
			<path class="st1" d="M690.3,388.2l-8.3-15.7l-9-15.6l-9.4-15.4l-8.9-16l17.6-0.3l9.4,14.9l7.8,16.1l8.7,14.6l6.5-15.7l7-16.4
				l6.6-17l18.3-0.6l-7.8,16.7l-8,16.1l-6.8,16.7l-6.4,16.7l0.5,22.3l1.2,22.4l-15.7,1l-1.2-22.5L690.3,388.2z"/>
		</g>
		<g>
			<path class="st0" d="M750.5,402.4l15.3,8.3l16.6,2.2l13.9-4.8l7.5-12.2l-15.7-14.8l-14.5-0.2l-15.2-3.4l-10.7-11.2l-4.1-14.6
				l3.7-17l12.3-12.4l17.2-4.6l18.8,2l17.1,7.7l-8.9,13.6l-12.7-4.6l-14.1-2.2l-12.9,4.4l-4.2,12.5l16,12.2l12.3,1l15.6,4.2
				l10.8,11.6l5.1,14.8l-3.8,18.2l-14.5,11.6l-18.2,3.2l-15.1,0.3l-14.3-4.8l-13.5-7.7L750.5,402.4z"/>
			<path class="st1" d="M750.5,402.4l15.3,8.3l16.6,2.2l13.9-4.8l7.5-12.2l-15.7-14.8l-14.5-0.2l-15.2-3.4l-10.7-11.2l-4.1-14.6
				l3.7-17l12.3-12.4l17.2-4.6l18.8,2l17.1,7.7l-8.9,13.6l-12.7-4.6l-14.1-2.2l-12.9,4.4l-4.2,12.5l16,12.2l12.3,1l15.6,4.2
				l10.8,11.6l5.1,14.8l-3.8,18.2l-14.5,11.6l-18.2,3.2l-15.1,0.3l-14.3-4.8l-13.5-7.7L750.5,402.4z"/>
		</g>
		<g>
			<path class="st0" d="M832.8,316.1l16.4-0.6l1.9,17.9l1.2,18.1l-0.7,18.2l1.2,18.1l0.9,18.1l1,17.7l-15.7,1.1l-2-17.9l0.5-18.2
				l-2.2-18.1l0.2-18.2l-0.9-18.1L832.8,316.1z"/>
			<path class="st1" d="M832.8,316.1l16.4-0.6l1.9,17.9l1.2,18.1l-0.7,18.2l1.2,18.1l0.9,18.1l1,17.7l-15.7,1.1l-2-17.9l0.5-18.2
				l-2.2-18.1l0.2-18.2l-0.9-18.1L832.8,316.1z"/>
		</g>
		<g>
			<path class="st0" d="M949.9,388.2l-6.1,17.1l-13.1,12.2l-17.4,4.5l-19.6-5.2l-16.3-12.3l-5.1-17.7l-0.4-18.3l-1.4-18.2l3.5-17.9
				l13.7-15.4l19.7-5.6l18,2.3l13.3,12.1l8.7,15.6l-17.3,0.1l-8.3-10.5l-13.5-3l-16.7,8.3l-4.3,15.4l0.3,16.1l0.8,16.1l6.7,14.5
				l17.2,6.1l12.6-3.8l7.3-11.7L949.9,388.2z"/>
			<path class="st1" d="M949.9,388.2l-6.1,17.1l-13.1,12.2l-17.4,4.5l-19.6-5.2l-16.3-12.3l-5.1-17.7l-0.4-18.3l-1.4-18.2l3.5-17.9
				l13.7-15.4l19.7-5.6l18,2.3l13.3,12.1l8.7,15.6l-17.3,0.1l-8.3-10.5l-13.5-3l-16.7,8.3l-4.3,15.4l0.3,16.1l0.8,16.1l6.7,14.5
				l17.2,6.1l12.6-3.8l7.3-11.7L949.9,388.2z"/>
		</g>
		<g>
			<path class="st0" d="M1017.6,390.9l-20.8,0.3l-21,1.6l-6.6,25.3l-18,1.2l6.1-18.9l4.8-18.7l6.8-18.1l5.7-18.5l6-18.4l4.3-19.3
				l14.7-0.7l7.4,18.2l7.7,17.7l7.3,17.9l6.8,18.1l7.7,17.7l7.6,17.2l-16.3,0.7L1017.6,390.9z M1012.1,376.7l-5.4-16l-6.4-15.4
				l-6.8-15.3l0.4,0.1l-4.9,16l-3.6,16.3l-5.6,16.1l16.2-0.6L1012.1,376.7z"/>
			<path class="st1" d="M1017.6,390.9l-20.8,0.3l-21,1.6l-6.6,25.3l-18,1.2l6.1-18.9l4.8-18.7l6.8-18.1l5.7-18.5l6-18.4l4.3-19.3
				l14.7-0.7l7.4,18.2l7.7,17.7l7.3,17.9l6.8,18.1l7.7,17.7l7.6,17.2l-16.3,0.7L1017.6,390.9z M1012.1,376.7l-5.4-16l-6.4-15.4
				l-6.8-15.3l0.4,0.1l-4.9,16l-3.6,16.3l-5.6,16.1l16.2-0.6L1012.1,376.7z"/>
		</g>
		<g>
			<path class="st0" d="M1049.9,304.1l17.2-0.6l0.3,18.8l1.1,18.6l1.1,18.6l1.8,18.6l1,18.2l17.2-1.3l17.7-0.2l17.2-0.4l1.1,14.8
				l-17.2,0.2l-17.3,2.1l-17.3,1.5l-18,0.6l0.2-18.7l-1.9-18.1l-0.8-18.1v-18.2l-1.5-18.1L1049.9,304.1z"/>
			<path class="st1" d="M1049.9,304.1l17.2-0.6l0.3,18.8l1.1,18.6l1.1,18.6l1.8,18.6l1,18.2l17.2-1.3l17.7-0.2l17.2-0.4l1.1,14.8
				l-17.2,0.2l-17.3,2.1l-17.3,1.5l-18,0.6l0.2-18.7l-1.9-18.1l-0.8-18.1v-18.2l-1.5-18.1L1049.9,304.1z"/>
		</g>
	</g>
</g>
<text transform="matrix(1 0 0 1 -1414.8223 -856.1953)" style="font-family:'DINMittelschriftStd'; font-size:153px;">THE</text>
<text transform="matrix(1 0 0 1 -1414.8223 -856.1953)" class="st3" style="font-family:'DINMittelschriftStd'; font-size:153px;">THE</text>
<text transform="matrix(1 0 0 1 -1410.8223 -676.1953)" style="font-family:'DINMittelschriftStd'; font-size:153px;">WEB</text>
<text transform="matrix(1 0 0 1 -1410.8223 -676.1953)" class="st3" style="font-family:'DINMittelschriftStd'; font-size:153px;">WEB</text>
<text transform="matrix(1 0 0 1 -1231.8223 -533.1953)" style="font-family:'DINMittelschriftStd'; font-size:153px;">IS</text>
<text transform="matrix(1 0 0 1 -1231.8223 -533.1953)" class="st3" style="font-family:'DINMittelschriftStd'; font-size:153px;">IS</text>
<text transform="matrix(1 0 0 1 -1061.8223 -437.1953)" style="font-family:'DINMittelschriftStd'; font-size:153px;">PHYSICAL</text>
<text transform="matrix(1 0 0 1 -1061.8223 -437.1953)" class="st3" style="font-family:'DINMittelschriftStd'; font-size:153px;">PHYSICAL</text>
<g>
	<g>
		<g>
			<polyline id="SVGID_1_" class="st4" points="162,546 312,-138 1462,-121 1473,111 215,594 			"/>
		</g>
		<g>
			<g>
				<defs>
					<polyline id="SVGID_2_" points="162,546 312,-138 1462,-121 1473,111 215,594 					"/>
				</defs>
				<clipPath id="SVGID_3_">
					<use xlink:href="#SVGID_2_"  style="overflow:visible;"/>
				</clipPath>
				<polyline class="st5" points="162,546 312,-138 1462,-121 1473,111 215,594 				"/>
			</g>
		</g>
	</g>
	<path class="st6" d="M636.5,377.3l-21.2,1.1l-21,1.4l0.9,15.1l-0.5,15.9l2,16.2l-16.8,0.3l-0.9-18l-1.3-18.1l-0.5-18.2l-1.3-18.1
		l-1.9-18.1l-0.7-18.7l17.3-0.5l0.3,15.7l2.2,15.5l-0.4,16.1l21.9-1.3l21.2-1.9l-0.1-15.1l-1.2-15.5l-1.1-15.8h16.2l2.4,17.4
		l0.9,18.1l0.3,18.2l1.2,18.1l-0.1,18.2l1.7,18.1l-16.2,0.6l-0.7-15.5l-1.1-15.8L636.5,377.3z"/>
	<path class="st6" d="M397.2,151.1l-14.4,5.4l-14.4,3.1l-3.9-13.6l17.7-6.5l18.7-3.8l18.3-5.4l18.2-5.9l3.4,13.8l-13.5,4.9
		l-14.4,3.8l4.5,18.3l6.3,17.8l4.9,18.2l5,18.2l5.7,18l-16,4.6l-4.6-18.3l-6.5-17.7l-4.9-18.2l-4.2-18.4L397.2,151.1z"/>
	<path class="st6" d="M522.9,163.7l-20.6,5.7L481,175l5.2,15.6l4.2,15.3l4,14.9l-15,4.3l-4.8-17l-6.4-17l-3.9-17.8l-5.2-17.4
		l-5-17.4l-6.3-17.7l17.1-4.8l4.9,15.3l3.1,15.3l4.6,15.6l21.1-6.5l21.2-6l-4.5-15.5l-4-15.1l-4.9-14.5l15.9-5.3l4.6,17.9l5.3,17.3
		l4.3,17.7l6.5,17l4.1,17.7l6,17.7l-16.3,3.9l-4.2-15l-4.5-15.2L522.9,163.7z"/>
	<path class="st6" d="M542.9,93l17.2-5.4l17.1-3.5l16.9-4.4l16.2-5.3l5.1,14.8l-17.3,5.5L581,99.3l-16.7,4.7l4,14.6l4.5,14.4l14.1-4
		l14.7-3.6l14.2-4.2l5,14.1l-15,4.2l-14.5,4.4l-15,3.6l4.9,15.5l4,16.2l17.3-6l17.2-4.3l16.7-5l4.4,14.5l-16.5,5.4l-16.7,4.7
		l-16.7,4.9l-17.2,5.2l-4.1-18.2l-6.5-17l-4.9-17.5l-3.9-17.8l-5.3-17.4L542.9,93z"/>
	<path class="st6" d="M711.9,84.5l17.2,3.8l0.4,19.5l1.7,19.8l1.3,19.8l0.4,19.8l0.8,0.1l7.5-18.6l9.2-17.9l8.2-18.3l9.2-17.6
		l11.8,1.4l0.6,20.3l3,19.9l1.2,20l2.2,19.9l-0.1-0.2l7.8-18.2l7.1-18.5l8.9-17.8l7.2-18.1l17.2,2.3l-7.3,17.5l-7.5,17.1l-8.4,16.7
		l-8.1,16.9l-6,17.8l-8.4,16.9l-13.7-2.1l-0.8-16.4l-1.9-16.1l-0.4-16.3l-1.5-16.2l-2.6-16.1l-0.3-0.2l-7.2,14.6l-6,15.1l-6.9,14.7
		l-6.3,15l-6.9,15.2l-14.5-2.6l-0.4-19.1l-2.2-18.6l-1-18.7l-1.6-18.6l-2-18.6L711.9,84.5z"/>
	<path class="st6" d="M847,107.9l17.6,3.3l17,3.8l17.2,2.6l17.1,2.8l-2.9,14.8l-17.2-1.6l-17.4-3.4l-17.6-3.9l-2.4,15.7l-1.9,14.8
		l13.9,3.9l14.9,2.6l15,1.8l-2.2,14.8l-15-3.9l-14.9-2.4l-14.9-1.7l-3.7,15.5l-2.1,16.1l17.6,3.7l17.4,3.1l16.8,2.8l-2.1,14.5
		l-16.9-3.1l-17.3-2.1l-17-3.8l-16.4-3.1l1.5-17.5l3.7-17.8l4-17.7l2.1-18.1l2.4-18L847,107.9z"/>
	<path class="st6" d="M930.8,122.2l21.3,4.2l20.8,3.7l15.7,5.1l10.4,12.9l1,16.4l-7.1,13l-12.9,7.4l-0.5,1l11.2,10.9l2.3,16
		l-5.7,15.2l-13.5,9l-16.1,1.8l-14.9-3.4l-15.1-2.6l-14.4-3l2.9-17.4l3.2-17.9l2.9-17.9l3.3-17.9l2.5-18L930.8,122.2z M945.4,141
		l-2.9,14.6l-2.8,15.3l23.6,3.4l19.4-11.8l-14.2-18L945.4,141z M937.5,186.2l-3,15.4l-2.9,16.1l25.1,3.7l12.8-1.7l7.1-10.7
		l-2.4-13.1l-12.1-5.9L937.5,186.2z"/>
	<path class="st6" d="M282.6,306.8l17.2,2.7l-4.2,18.2l-3,17.9l-3.5,17.8l-1.6,18.2l-4.7,17.6l-2.8,17.4l-16.5-1.8l4.2-18.2
		l1.8-18.1l3.5-17.8l3.8-17.8l3.5-17.8L282.6,306.8z"/>
	<path class="st6" d="M308.9,395.3l13.1,10.2l15.5,5.6l14.7-0.1l10.1-10.8l-12.6-16.7l-13.4-5.7l-14.2-6l-7.9-13.1l-1.8-15.2
		l7.4-16.3l15.5-8.9l18-0.5l17.8,6.4l14.3,11l-10.7,12l-11.3-8.5l-13.8-3.8l-12.8,1.7l-7,10.2l12.3,15.7l11.8,3.5l13.3,8.7l9.9,12.2
		l0.5,15.8l-7.3,17.2l-17,7.7l-18.7,0.3l-14.7-3.7l-12.9-8.1l-11-10.7L308.9,395.3z"/>
	<path class="st6" d="M485.9,324.5L505,323l19.7-0.4l24.6,5.8l8.9,11.2l5,13.8l-3.6,17.3l-12.2,12.9l-17,5.3l-24.9,0.6l1,21
		l0.4,20.8l-16.3,1.7l-0.3-18.5l-0.7-18.1l-2-18.1l0.5-18.2l-2.4-18.1L485.9,324.5z M503.9,374.5l25-1.9l13.3-5.1l4.3-13.6
		l-7.7-14.9l-12.4-1.1l-23.4,1.3l1.1,16.9L503.9,374.5z"/>
	<g>
		<g>
			<g>
				<defs>
					<polyline id="SVGID_4_" points="162,546 312,-138 1462,-121 1473,111 215,594 					"/>
				</defs>
				<clipPath id="SVGID_5_">
					<use xlink:href="#SVGID_4_"  style="overflow:visible;"/>
				</clipPath>
				<g class="st7">
					<g>
						<g>
							<path class="st8" d="M391.2,162.3l-14.4,5.4l-14.4,3.1l-3.9-13.6l17.7-6.5l18.7-3.8l18.3-5.4l18.2-5.9l3.4,13.8l-13.5,4.9
								l-14.4,3.8l4.5,18.3l6.3,17.8l4.9,18.2l5,18.2l5.7,18l-16,4.6l-4.6-18.3l-6.5-17.7l-4.9-18.2l-4.2-18.4L391.2,162.3z"/>
							<path class="st3" d="M391.2,162.3l-14.4,5.4l-14.4,3.1l-3.9-13.6l17.7-6.5l18.7-3.8l18.3-5.4l18.2-5.9l3.4,13.8l-13.5,4.9
								l-14.4,3.8l4.5,18.3l6.3,17.8l4.9,18.2l5,18.2l5.7,18l-16,4.6l-4.6-18.3l-6.5-17.7l-4.9-18.2l-4.2-18.4L391.2,162.3z"/>
						</g>
						<g>
							<path class="st8" d="M516.9,174.9l-20.6,5.7l-21.3,5.6l5.2,15.6l4.2,15.3l4,14.9l-15,4.3l-4.8-17l-6.4-17l-3.9-17.8
								l-5.2-17.4l-5-17.4l-6.3-17.7l17.1-4.8l4.9,15.3l3.1,15.3l4.6,15.6l21.1-6.5l21.2-6l-4.5-15.5l-4-15.1l-4.9-14.5l15.9-5.3
								l4.6,17.9l5.3,17.3l4.3,17.7l6.5,17l4.1,17.7l6,17.7l-16.3,3.9l-4.2-15l-4.5-15.2L516.9,174.9z"/>
							<path class="st3" d="M516.9,174.9l-20.6,5.7l-21.3,5.6l5.2,15.6l4.2,15.3l4,14.9l-15,4.3l-4.8-17l-6.4-17l-3.9-17.8
								l-5.2-17.4l-5-17.4l-6.3-17.7l17.1-4.8l4.9,15.3l3.1,15.3l4.6,15.6l21.1-6.5l21.2-6l-4.5-15.5l-4-15.1l-4.9-14.5l15.9-5.3
								l4.6,17.9l5.3,17.3l4.3,17.7l6.5,17l4.1,17.7l6,17.7l-16.3,3.9l-4.2-15l-4.5-15.2L516.9,174.9z"/>
						</g>
						<g>
							<path class="st8" d="M536.9,104.2l17.2-5.4l17.1-3.5l16.9-4.4l16.2-5.3l5.1,14.8l-17.3,5.5l-17.1,4.6l-16.7,4.7l4,14.6
								l4.5,14.4l14.1-4l14.7-3.6l14.2-4.2l5,14.1l-15,4.2l-14.5,4.4l-15,3.6l4.9,15.5l4,16.2l17.3-6l17.2-4.3l16.7-5l4.4,14.5
								l-16.5,5.4l-16.7,4.7l-16.7,4.9l-17.2,5.2l-4.1-18.2l-6.5-17l-4.9-17.5l-3.9-17.8l-5.3-17.4L536.9,104.2z"/>
							<path class="st3" d="M536.9,104.2l17.2-5.4l17.1-3.5l16.9-4.4l16.2-5.3l5.1,14.8l-17.3,5.5l-17.1,4.6l-16.7,4.7l4,14.6
								l4.5,14.4l14.1-4l14.7-3.6l14.2-4.2l5,14.1l-15,4.2l-14.5,4.4l-15,3.6l4.9,15.5l4,16.2l17.3-6l17.2-4.3l16.7-5l4.4,14.5
								l-16.5,5.4l-16.7,4.7l-16.7,4.9l-17.2,5.2l-4.1-18.2l-6.5-17l-4.9-17.5l-3.9-17.8l-5.3-17.4L536.9,104.2z"/>
						</g>
					</g>
				</g>
			</g>
		</g>
	</g>
	<g>
		<g>
			<g>
				<defs>
					<polyline id="SVGID_6_" points="162,546 312,-138 1462,-121 1473,111 215,594 					"/>
				</defs>
				<clipPath id="SVGID_7_">
					<use xlink:href="#SVGID_6_"  style="overflow:visible;"/>
				</clipPath>
				<g class="st9">
					<g>
						<g>
							<path class="st8" d="M705.9,95.7l17.2,3.8l0.4,19.5l1.7,19.8l1.3,19.8l0.4,19.8l0.8,0.1l7.5-18.6l9.2-17.9l8.2-18.3l9.2-17.6
								l11.8,1.4l0.6,20.3l3,19.9l1.2,20l2.2,19.9l-0.1-0.2l7.8-18.2l7.1-18.5l8.9-17.8l7.2-18.1l17.2,2.3l-7.3,17.5l-7.5,17.1
								l-8.4,16.7l-8.1,16.9l-6,17.8L783,220l-13.7-2.1l-0.8-16.4l-1.9-16.1l-0.4-16.3l-1.5-16.2l-2.6-16.1l-0.3-0.2l-7.2,14.6
								l-6,15.1l-6.9,14.7l-6.3,15l-6.9,15.2l-14.5-2.6l-0.4-19.1l-2.2-18.6l-1-18.7l-1.6-18.6l-2-18.6L705.9,95.7z"/>
							<path class="st3" d="M705.9,95.7l17.2,3.8l0.4,19.5l1.7,19.8l1.3,19.8l0.4,19.8l0.8,0.1l7.5-18.6l9.2-17.9l8.2-18.3l9.2-17.6
								l11.8,1.4l0.6,20.3l3,19.9l1.2,20l2.2,19.9l-0.1-0.2l7.8-18.2l7.1-18.5l8.9-17.8l7.2-18.1l17.2,2.3l-7.3,17.5l-7.5,17.1
								l-8.4,16.7l-8.1,16.9l-6,17.8L783,220l-13.7-2.1l-0.8-16.4l-1.9-16.1l-0.4-16.3l-1.5-16.2l-2.6-16.1l-0.3-0.2l-7.2,14.6
								l-6,15.1l-6.9,14.7l-6.3,15l-6.9,15.2l-14.5-2.6l-0.4-19.1l-2.2-18.6l-1-18.7l-1.6-18.6l-2-18.6L705.9,95.7z"/>
						</g>
						<g>
							<path class="st8" d="M841,119.1l17.6,3.3l17,3.8l17.2,2.6l17.1,2.8l-2.9,14.8l-17.2-1.6l-17.4-3.4l-17.6-3.9l-2.4,15.7
								l-1.9,14.8l13.9,3.9l14.9,2.6l15,1.8l-2.2,14.8l-15-3.9l-14.9-2.4l-14.9-1.7l-3.7,15.5l-2.1,16.1l17.6,3.7l17.4,3.1l16.8,2.8
								l-2.1,14.5l-16.9-3.1l-17.3-2.1l-17-3.8l-16.4-3.1l1.5-17.5l3.7-17.8l4-17.7l2.1-18.1l2.4-18L841,119.1z"/>
							<path class="st3" d="M841,119.1l17.6,3.3l17,3.8l17.2,2.6l17.1,2.8l-2.9,14.8l-17.2-1.6l-17.4-3.4l-17.6-3.9l-2.4,15.7
								l-1.9,14.8l13.9,3.9l14.9,2.6l15,1.8l-2.2,14.8l-15-3.9l-14.9-2.4l-14.9-1.7l-3.7,15.5l-2.1,16.1l17.6,3.7l17.4,3.1l16.8,2.8
								l-2.1,14.5l-16.9-3.1l-17.3-2.1l-17-3.8l-16.4-3.1l1.5-17.5l3.7-17.8l4-17.7l2.1-18.1l2.4-18L841,119.1z"/>
						</g>
						<g>
							<path class="st8" d="M924.8,133.4l21.3,4.2l20.8,3.7l15.7,5.1l10.4,12.9l1,16.4l-7.1,13l-12.9,7.4l-0.5,1l11.2,10.9l2.3,16
								l-5.7,15.2l-13.5,9l-16.1,1.8l-14.9-3.4l-15.1-2.6l-14.4-3l2.9-17.4l3.2-17.9l2.9-17.9l3.3-17.9l2.5-18L924.8,133.4z
								 M939.4,152.2l-2.9,14.6l-2.8,15.3l23.6,3.4l19.4-11.8l-14.2-18L939.4,152.2z M931.5,197.4l-3,15.4l-2.9,16.1l25.1,3.7
								l12.8-1.7l7.1-10.7l-2.4-13.1l-12.1-5.9L931.5,197.4z"/>
							<path class="st3" d="M924.8,133.4l21.3,4.2l20.8,3.7l15.7,5.1l10.4,12.9l1,16.4l-7.1,13l-12.9,7.4l-0.5,1l11.2,10.9l2.3,16
								l-5.7,15.2l-13.5,9l-16.1,1.8l-14.9-3.4l-15.1-2.6l-14.4-3l2.9-17.4l3.2-17.9l2.9-17.9l3.3-17.9l2.5-18L924.8,133.4z
								 M939.4,152.2l-2.9,14.6l-2.8,15.3l23.6,3.4l19.4-11.8l-14.2-18L939.4,152.2z M931.5,197.4l-3,15.4l-2.9,16.1l25.1,3.7
								l12.8-1.7l7.1-10.7l-2.4-13.1l-12.1-5.9L931.5,197.4z"/>
						</g>
					</g>
				</g>
			</g>
		</g>
	</g>
	<g>
		<g>
			<g>
				<defs>
					<polyline id="SVGID_8_" points="162,546 312,-138 1462,-121 1473,111 215,594 					"/>
				</defs>
				<clipPath id="SVGID_9_">
					<use xlink:href="#SVGID_8_"  style="overflow:visible;"/>
				</clipPath>
				<g class="st10">
					<g>
						<g>
							<path class="st8" d="M276.6,318l17.2,2.7l-4.2,18.2l-3,17.9l-3.5,17.8l-1.6,18.2l-4.7,17.6l-2.8,17.4l-16.5-1.8l4.2-18.2
								l1.8-18.1l3.5-17.8l3.8-17.8l3.5-17.8L276.6,318z"/>
							<path class="st3" d="M276.6,318l17.2,2.7l-4.2,18.2l-3,17.9l-3.5,17.8l-1.6,18.2l-4.7,17.6l-2.8,17.4l-16.5-1.8l4.2-18.2
								l1.8-18.1l3.5-17.8l3.8-17.8l3.5-17.8L276.6,318z"/>
						</g>
						<g>
							<path class="st8" d="M302.9,406.5l13.1,10.2l15.5,5.6l14.7-0.1l10.1-10.8l-12.6-16.7l-13.4-5.7l-14.2-6l-7.9-13.1l-1.8-15.2
								l7.4-16.3l15.5-8.9l18-0.5l17.8,6.4l14.3,11l-10.7,12l-11.3-8.5l-13.8-3.8l-12.8,1.7l-7,10.2l12.3,15.7l11.8,3.5l13.3,8.7
								l9.9,12.2l0.5,15.8l-7.3,17.2l-17,7.7l-18.7,0.3l-14.7-3.7l-12.9-8.1l-11-10.7L302.9,406.5z"/>
							<path class="st3" d="M302.9,406.5l13.1,10.2l15.5,5.6l14.7-0.1l10.1-10.8l-12.6-16.7l-13.4-5.7l-14.2-6l-7.9-13.1l-1.8-15.2
								l7.4-16.3l15.5-8.9l18-0.5l17.8,6.4l14.3,11l-10.7,12l-11.3-8.5l-13.8-3.8l-12.8,1.7l-7,10.2l12.3,15.7l11.8,3.5l13.3,8.7
								l9.9,12.2l0.5,15.8l-7.3,17.2l-17,7.7l-18.7,0.3l-14.7-3.7l-12.9-8.1l-11-10.7L302.9,406.5z"/>
						</g>
					</g>
				</g>
			</g>
		</g>
	</g>
	<g>
		<g>
			<g>
				<defs>
					<polyline id="SVGID_10_" points="162,546 312,-138 1462,-121 1473,111 215,594 					"/>
				</defs>
				<clipPath id="SVGID_11_">
					<use xlink:href="#SVGID_10_"  style="overflow:visible;"/>
				</clipPath>
				<g class="st11">
					<g>
						<g>
							<path class="st6" d="M697,379.9l-8.3-15.7l-9-15.6l-9.4-15.4l-8.9-16l17.6-0.3l9.4,14.9l7.8,16.1l8.7,14.6l6.5-15.7l7-16.4
								l6.6-17l18.3-0.6l-7.8,16.7l-8,16.1l-6.8,16.7l-6.4,16.7l0.5,22.3l1.2,22.4l-15.7,1l-1.2-22.5L697,379.9z"/>
							<path class="st6" d="M697,379.9l-8.3-15.7l-9-15.6l-9.4-15.4l-8.9-16l17.6-0.3l9.4,14.9l7.8,16.1l8.7,14.6l6.5-15.7l7-16.4
								l6.6-17l18.3-0.6l-7.8,16.7l-8,16.1l-6.8,16.7l-6.4,16.7l0.5,22.3l1.2,22.4l-15.7,1l-1.2-22.5L697,379.9z"/>
						</g>
						<g>
							<path class="st6" d="M757.2,394.1l15.3,8.3l16.6,2.2l13.9-4.8l7.5-12.2l-15.7-14.8l-14.5-0.2l-15.2-3.4L754.4,358l-4.1-14.6
								l3.7-17l12.3-12.4l17.2-4.6l18.8,2l17.1,7.7l-8.9,13.6l-12.7-4.6l-14.1-2.2l-12.9,4.4l-4.2,12.5l16,12.2l12.3,1l15.6,4.2
								l10.8,11.6l5.1,14.8l-3.8,18.2l-14.5,11.6l-18.2,3.2l-15.1,0.3l-14.3-4.8l-13.5-7.7L757.2,394.1z"/>
							<path class="st6" d="M757.2,394.1l15.3,8.3l16.6,2.2l13.9-4.8l7.5-12.2l-15.7-14.8l-14.5-0.2l-15.2-3.4L754.4,358l-4.1-14.6
								l3.7-17l12.3-12.4l17.2-4.6l18.8,2l17.1,7.7l-8.9,13.6l-12.7-4.6l-14.1-2.2l-12.9,4.4l-4.2,12.5l16,12.2l12.3,1l15.6,4.2
								l10.8,11.6l5.1,14.8l-3.8,18.2l-14.5,11.6l-18.2,3.2l-15.1,0.3l-14.3-4.8l-13.5-7.7L757.2,394.1z"/>
						</g>
						<g>
							<path class="st6" d="M839.5,307.8l16.4-0.6l1.9,17.9l1.2,18.1l-0.7,18.2l1.2,18.1l0.9,18.1l1,17.7l-15.7,1.1l-2-17.9
								l0.5-18.2l-2.2-18.1l0.2-18.2l-0.9-18.1L839.5,307.8z"/>
							<path class="st6" d="M839.5,307.8l16.4-0.6l1.9,17.9l1.2,18.1l-0.7,18.2l1.2,18.1l0.9,18.1l1,17.7l-15.7,1.1l-2-17.9
								l0.5-18.2l-2.2-18.1l0.2-18.2l-0.9-18.1L839.5,307.8z"/>
						</g>
						<g>
							<path class="st6" d="M956.7,379.9l-6.1,17.1l-13.1,12.2l-17.4,4.5l-19.6-5.2l-16.3-12.3l-5.1-17.7l-0.4-18.3l-1.4-18.2
								l3.5-17.9l13.7-15.4l19.7-5.6l18,2.3l13.3,12.1l8.7,15.6l-17.3,0.1l-8.3-10.5l-13.5-3l-16.7,8.3l-4.3,15.4l0.3,16.1l0.8,16.1
								l6.7,14.5l17.2,6.1l12.6-3.8l7.3-11.7L956.7,379.9z"/>
							<path class="st6" d="M956.7,379.9l-6.1,17.1l-13.1,12.2l-17.4,4.5l-19.6-5.2l-16.3-12.3l-5.1-17.7l-0.4-18.3l-1.4-18.2
								l3.5-17.9l13.7-15.4l19.7-5.6l18,2.3l13.3,12.1l8.7,15.6l-17.3,0.1l-8.3-10.5l-13.5-3l-16.7,8.3l-4.3,15.4l0.3,16.1l0.8,16.1
								l6.7,14.5l17.2,6.1l12.6-3.8l7.3-11.7L956.7,379.9z"/>
						</g>
						<g>
							<path class="st8" d="M479.9,335.7l19.1-1.5l19.7-0.4l24.6,5.8l8.9,11.2l5,13.8l-3.6,17.3l-12.2,12.9l-17,5.3l-24.9,0.6l1,21
								l0.4,20.8l-16.3,1.7l-0.3-18.5l-0.7-18.1l-2-18.1l0.5-18.2l-2.4-18.1L479.9,335.7z M497.9,385.7l25-1.9l13.3-5.1l4.3-13.6
								l-7.7-14.9l-12.4-1.1l-23.4,1.3l1.1,16.9L497.9,385.7z"/>
							<path class="st3" d="M479.9,335.7l19.1-1.5l19.7-0.4l24.6,5.8l8.9,11.2l5,13.8l-3.6,17.3l-12.2,12.9l-17,5.3l-24.9,0.6l1,21
								l0.4,20.8l-16.3,1.7l-0.3-18.5l-0.7-18.1l-2-18.1l0.5-18.2l-2.4-18.1L479.9,335.7z M497.9,385.7l25-1.9l13.3-5.1l4.3-13.6
								l-7.7-14.9l-12.4-1.1l-23.4,1.3l1.1,16.9L497.9,385.7z"/>
						</g>
						<g>
							<path class="st8" d="M632.3,388.9l-21.2,1.1l-21,1.4l0.9,15.1l-0.5,15.9l2,16.2l-16.8,0.3l-0.9-18l-1.3-18.1l-0.5-18.2
								l-1.3-18.1l-1.9-18.1l-0.7-18.7l17.3-0.5l0.3,15.7l2.2,15.5l-0.4,16.1l21.9-1.3l21.2-1.9l-0.1-15.1l-1.2-15.5l-1.1-15.8h16.2
								l2.4,17.4l0.9,18.1l0.3,18.2l1.2,18.1l-0.1,18.2l1.7,18.1l-16.2,0.6l-0.7-15.5l-1.1-15.8L632.3,388.9z"/>
							<path class="st3" d="M632.3,388.9l-21.2,1.1l-21,1.4l0.9,15.1l-0.5,15.9l2,16.2l-16.8,0.3l-0.9-18l-1.3-18.1l-0.5-18.2
								l-1.3-18.1l-1.9-18.1l-0.7-18.7l17.3-0.5l0.3,15.7l2.2,15.5l-0.4,16.1l21.9-1.3l21.2-1.9l-0.1-15.1l-1.2-15.5l-1.1-15.8h16.2
								l2.4,17.4l0.9,18.1l0.3,18.2l1.2,18.1l-0.1,18.2l1.7,18.1l-16.2,0.6l-0.7-15.5l-1.1-15.8L632.3,388.9z"/>
						</g>
						<g>
							<path class="st8" d="M690.3,388.2l-8.3-15.7l-9-15.6l-9.4-15.4l-8.9-16l17.6-0.3l9.4,14.9l7.8,16.1l8.7,14.6l6.5-15.7l7-16.4
								l6.6-17l18.3-0.6l-7.8,16.7l-8,16.1l-6.8,16.7l-6.4,16.7l0.5,22.3l1.2,22.4l-15.7,1l-1.2-22.5L690.3,388.2z"/>
							<path class="st3" d="M690.3,388.2l-8.3-15.7l-9-15.6l-9.4-15.4l-8.9-16l17.6-0.3l9.4,14.9l7.8,16.1l8.7,14.6l6.5-15.7l7-16.4
								l6.6-17l18.3-0.6l-7.8,16.7l-8,16.1l-6.8,16.7l-6.4,16.7l0.5,22.3l1.2,22.4l-15.7,1l-1.2-22.5L690.3,388.2z"/>
						</g>
						<g>
							<path class="st8" d="M750.5,402.4l15.3,8.3l16.6,2.2l13.9-4.8l7.5-12.2l-15.7-14.8l-14.5-0.2l-15.2-3.4l-10.7-11.2l-4.1-14.6
								l3.7-17l12.3-12.4l17.2-4.6l18.8,2l17.1,7.7l-8.9,13.6l-12.7-4.6l-14.1-2.2l-12.9,4.4l-4.2,12.5l16,12.2l12.3,1l15.6,4.2
								l10.8,11.6l5.1,14.8l-3.8,18.2l-14.5,11.6l-18.2,3.2l-15.1,0.3l-14.3-4.8l-13.5-7.7L750.5,402.4z"/>
							<path class="st3" d="M750.5,402.4l15.3,8.3l16.6,2.2l13.9-4.8l7.5-12.2l-15.7-14.8l-14.5-0.2l-15.2-3.4l-10.7-11.2l-4.1-14.6
								l3.7-17l12.3-12.4l17.2-4.6l18.8,2l17.1,7.7l-8.9,13.6l-12.7-4.6l-14.1-2.2l-12.9,4.4l-4.2,12.5l16,12.2l12.3,1l15.6,4.2
								l10.8,11.6l5.1,14.8l-3.8,18.2l-14.5,11.6l-18.2,3.2l-15.1,0.3l-14.3-4.8l-13.5-7.7L750.5,402.4z"/>
						</g>
						<g>
							<path class="st8" d="M832.8,316.1l16.4-0.6l1.9,17.9l1.2,18.1l-0.7,18.2l1.2,18.1l0.9,18.1l1,17.7l-15.7,1.1l-2-17.9
								l0.5-18.2l-2.2-18.1l0.2-18.2l-0.9-18.1L832.8,316.1z"/>
							<path class="st3" d="M832.8,316.1l16.4-0.6l1.9,17.9l1.2,18.1l-0.7,18.2l1.2,18.1l0.9,18.1l1,17.7l-15.7,1.1l-2-17.9
								l0.5-18.2l-2.2-18.1l0.2-18.2l-0.9-18.1L832.8,316.1z"/>
						</g>
						<g>
							<path class="st12" d="M949.9,388.2l-6.1,17.1l-13.1,12.2l-17.4,4.5l-19.6-5.2l-16.3-12.3l-5.1-17.7l-0.4-18.3l-1.4-18.2
								l3.5-17.9l13.7-15.4l19.7-5.6l18,2.3l13.3,12.1l8.7,15.6l-17.3,0.1l-8.3-10.5l-13.5-3l-16.7,8.3l-4.3,15.4l0.3,16.1l0.8,16.1
								l6.7,14.5l17.2,6.1l12.6-3.8l7.3-11.7L949.9,388.2z"/>
							<path class="st13" d="M949.9,388.2l-6.1,17.1l-13.1,12.2l-17.4,4.5l-19.6-5.2l-16.3-12.3l-5.1-17.7l-0.4-18.3l-1.4-18.2
								l3.5-17.9l13.7-15.4l19.7-5.6l18,2.3l13.3,12.1l8.7,15.6l-17.3,0.1l-8.3-10.5l-13.5-3l-16.7,8.3l-4.3,15.4l0.3,16.1l0.8,16.1
								l6.7,14.5l17.2,6.1l12.6-3.8l7.3-11.7L949.9,388.2z"/>
						</g>
						<g>
							<path class="st12" d="M1017.6,390.9l-20.8,0.3l-21,1.6l-6.6,25.3l-18,1.2l6.1-18.9l4.8-18.7l6.8-18.1l5.7-18.5l6-18.4
								l4.3-19.3l14.7-0.7l7.4,18.2l7.7,17.7l7.3,17.9l6.8,18.1l7.7,17.7l7.6,17.2l-16.3,0.7L1017.6,390.9z M1012.1,376.7l-5.4-16
								l-6.4-15.4l-6.8-15.3l0.4,0.1l-4.9,16l-3.6,16.3l-5.6,16.1l16.2-0.6L1012.1,376.7z"/>
							<path class="st3" d="M1017.6,390.9l-20.8,0.3l-21,1.6l-6.6,25.3l-18,1.2l6.1-18.9l4.8-18.7l6.8-18.1l5.7-18.5l6-18.4
								l4.3-19.3l14.7-0.7l7.4,18.2l7.7,17.7l7.3,17.9l6.8,18.1l7.7,17.7l7.6,17.2l-16.3,0.7L1017.6,390.9z M1012.1,376.7l-5.4-16
								l-6.4-15.4l-6.8-15.3l0.4,0.1l-4.9,16l-3.6,16.3l-5.6,16.1l16.2-0.6L1012.1,376.7z"/>
						</g>
						<g>
							<path class="st12" d="M1049.9,304.1l17.2-0.6l0.3,18.8l1.1,18.6l1.1,18.6l1.8,18.6l1,18.2l17.2-1.3l17.7-0.2l17.2-0.4
								l1.1,14.8l-17.2,0.2l-17.3,2.1l-17.3,1.5l-18,0.6l0.2-18.7l-1.9-18.1l-0.8-18.1v-18.2l-1.5-18.1L1049.9,304.1z"/>
							<path class="st3" d="M1049.9,304.1l17.2-0.6l0.3,18.8l1.1,18.6l1.1,18.6l1.8,18.6l1,18.2l17.2-1.3l17.7-0.2l17.2-0.4
								l1.1,14.8l-17.2,0.2l-17.3,2.1l-17.3,1.5l-18,0.6l0.2-18.7l-1.9-18.1l-0.8-18.1v-18.2l-1.5-18.1L1049.9,304.1z"/>
						</g>
					</g>
				</g>
			</g>
		</g>
	</g>
</g>
<g id="Layer_1_1_">
	<path class="st14" d="M-1676.1-725.2l-0.2-0.3c-8.6-14.9-9-32.9-2-48.7c2.4-5.3,3.6-11.3,3.2-17.6c-1.1-19.5-17.2-35.1-36.7-35.7
		c-21.5-0.7-39.2,16.6-39.2,38c0,6.1,1.4,11.8,4,16.9c8,16.1,8.1,35,0,51.1l0,0l-56.9,81.9c-3.6,5.2-5.1,11.6-4.2,17.8l5.5,36.5
		c1.1,7.1,8.4,11.3,15.1,8.8l0,0l-0.7-36.9c-0.2-9.1,3.1-17.8,9.3-24.5l15.3-16.6c4-4.3,11.2-1.4,11.1,4.5l-5.2,203.1
		c-0.1,5.2,4,9.4,9.2,9.4h8.6L-1719-543c0.6-3.2,3.4-5.5,6.7-5.5h14.1c3.7,0,6.9,2.6,7.7,6.2l23.6,104.8h9.9c5.4,0,9.7-4.6,9.4-10
		l-14.2-201.5c-0.3-3.6,4.2-5.6,6.7-2.9l15.9,17.3c6,6.5,9.2,15.1,9,23.9l-0.7,37.3l0,0c6.7,2.6,14-1.7,15.1-8.8l5.9-39.3
		c0.7-4.4-0.4-9-3-12.7L-1676.1-725.2z"/>
	<g>
		<rect x="-746" y="-919" class="st15" width="63" height="63"/>
		<rect x="-683" y="-919" class="st16" width="63" height="63"/>
		<rect x="-620" y="-919" class="st17" width="63" height="63"/>
		<rect x="-557" y="-919" class="st18" width="63" height="63"/>
		<rect x="-494" y="-919" class="st19" width="63" height="63"/>
		<rect x="-431" y="-919" class="st20" width="63" height="63"/>
		<rect x="-368" y="-919" class="st21" width="63" height="63"/>
		<rect x="-305" y="-919" class="st22" width="63" height="63"/>
		<rect x="-242" y="-919" class="st12" width="63" height="63"/>
	</g>
	<g>
		<polyline class="st3" points="-319,26 -319,-4 175.3,-4 175.3,26 		"/>
		<path class="st3" d="M174.7,26"/>
		<polyline class="st3" points="174.7,-4 669,-4 669,26 		"/>
		<path class="st3" d="M668,26"/>
		<path class="st3" d="M1162.3,26"/>
		<line class="st3" x1="668" y1="-4" x2="1162.3" y2="-4"/>
		<polyline class="st3" points="1161.7,26 1161.7,-4 1656,-4 1656,26 		"/>
		<g>
			<circle cx="-309" cy="11" r="2"/>
		</g>
		<g>
			<circle cx="166" cy="11" r="2"/>
		</g>
		<g>
			<circle cx="184" cy="11" r="2"/>
		</g>
		<g>
			<circle cx="659" cy="11" r="2"/>
		</g>
		<g>
			<circle cx="678" cy="11" r="2"/>
		</g>
		<g>
			<circle cx="1153" cy="11" r="2"/>
		</g>
		<g>
			<circle cx="1171" cy="11" r="2"/>
		</g>
		<g>
			<circle cx="1646" cy="11" r="2"/>
		</g>
	</g>
	<g>
		<polyline class="st3" points="-319,56 -319,26 175.3,26 175.3,56 		"/>
		<path class="st3" d="M174.7,56"/>
		<polyline class="st3" points="174.7,26 669,26 669,56 		"/>
		<path class="st3" d="M668,56"/>
		<path class="st3" d="M1162.3,56"/>
		<line class="st3" x1="668" y1="26" x2="1162.3" y2="26"/>
		<polyline class="st3" points="1161.7,56 1161.7,26 1656,26 1656,56 		"/>
		<g>
			<circle cx="-309" cy="41" r="2"/>
		</g>
		<g>
			<circle cx="166" cy="41" r="2"/>
		</g>
		<g>
			<circle cx="184" cy="41" r="2"/>
		</g>
		<g>
			<circle cx="659" cy="41" r="2"/>
		</g>
		<g>
			<circle cx="678" cy="41" r="2"/>
		</g>
		<g>
			<circle cx="1153" cy="41" r="2"/>
		</g>
		<g>
			<circle cx="1171" cy="41" r="2"/>
		</g>
		<g>
			<circle cx="1646" cy="41" r="2"/>
		</g>
	</g>
	<g>
		<polyline class="st3" points="-319,86 -319,56 175.3,56 175.3,86 		"/>
		<path class="st3" d="M174.7,86"/>
		<polyline class="st3" points="174.7,56 669,56 669,86 		"/>
		<path class="st3" d="M668,86"/>
		<path class="st3" d="M1162.3,86"/>
		<line class="st3" x1="668" y1="56" x2="1162.3" y2="56"/>
		<polyline class="st3" points="1161.7,86 1161.7,56 1656,56 1656,86 		"/>
		<g>
			<circle cx="-309" cy="71" r="2"/>
		</g>
		<g>
			<circle cx="166" cy="71" r="2"/>
		</g>
		<g>
			<circle cx="184" cy="71" r="2"/>
		</g>
		<g>
			<circle cx="659" cy="71" r="2"/>
		</g>
		<g>
			<circle cx="678" cy="71" r="2"/>
		</g>
		<g>
			<circle cx="1153" cy="71" r="2"/>
		</g>
		<g>
			<circle cx="1171" cy="71" r="2"/>
		</g>
		<g>
			<circle cx="1646" cy="71" r="2"/>
		</g>
	</g>
	<g>
		<polyline class="st3" points="-319,116 -319,86 175.3,86 175.3,116 		"/>
		<path class="st3" d="M174.7,116"/>
		<polyline class="st3" points="174.7,86 669,86 669,116 		"/>
		<path class="st3" d="M668,116"/>
		<path class="st3" d="M1162.3,116"/>
		<line class="st3" x1="668" y1="86" x2="1162.3" y2="86"/>
		<polyline class="st3" points="1161.7,116 1161.7,86 1656,86 1656,116 		"/>
		<g>
			<circle cx="-309" cy="101" r="2"/>
		</g>
		<g>
			<circle cx="166" cy="101" r="2"/>
		</g>
		<g>
			<circle cx="184" cy="101" r="2"/>
		</g>
		<g>
			<circle cx="659" cy="101" r="2"/>
		</g>
		<g>
			<circle cx="678" cy="101" r="2"/>
		</g>
		<g>
			<circle cx="1153" cy="101" r="2"/>
		</g>
		<g>
			<circle cx="1171" cy="101" r="2"/>
		</g>
		<g>
			<circle cx="1646" cy="101" r="2"/>
		</g>
	</g>
	<g>
		<polyline class="st3" points="-319,146 -319,116 175.3,116 175.3,146 		"/>
		<path class="st3" d="M174.7,146"/>
		<polyline class="st3" points="174.7,116 669,116 669,146 		"/>
		<path class="st3" d="M668,146"/>
		<path class="st3" d="M1162.3,146"/>
		<line class="st3" x1="668" y1="116" x2="1162.3" y2="116"/>
		<polyline class="st3" points="1161.7,146 1161.7,116 1656,116 1656,146 		"/>
		<g>
			<circle cx="-309" cy="131" r="2"/>
		</g>
		<g>
			<circle cx="166" cy="131" r="2"/>
		</g>
		<g>
			<circle cx="184" cy="131" r="2"/>
		</g>
		<g>
			<circle cx="659" cy="131" r="2"/>
		</g>
		<g>
			<circle cx="678" cy="131" r="2"/>
		</g>
		<g>
			<circle cx="1153" cy="131" r="2"/>
		</g>
		<g>
			<circle cx="1171" cy="131" r="2"/>
		</g>
		<g>
			<circle cx="1646" cy="131" r="2"/>
		</g>
	</g>
	<g>
		<polyline class="st3" points="-319,176 -319,146 175.3,146 175.3,176 		"/>
		<path class="st3" d="M174.7,176"/>
		<polyline class="st3" points="174.7,146 669,146 669,176 		"/>
		<path class="st3" d="M668,176"/>
		<path class="st3" d="M1162.3,176"/>
		<line class="st3" x1="668" y1="146" x2="1162.3" y2="146"/>
		<polyline class="st3" points="1161.7,176 1161.7,146 1656,146 1656,176 		"/>
		<g>
			<circle cx="-309" cy="161" r="2"/>
		</g>
		<g>
			<circle cx="166" cy="161" r="2"/>
		</g>
		<g>
			<circle cx="184" cy="161" r="2"/>
		</g>
		<g>
			<circle cx="659" cy="161" r="2"/>
		</g>
		<g>
			<circle cx="678" cy="161" r="2"/>
		</g>
		<g>
			<circle cx="1153" cy="161" r="2"/>
		</g>
		<g>
			<circle cx="1171" cy="161" r="2"/>
		</g>
		<g>
			<circle cx="1646" cy="161" r="2"/>
		</g>
	</g>
	<g>
		<polyline class="st3" points="-319,206 -319,176 175.3,176 175.3,206 		"/>
		<path class="st3" d="M174.7,206"/>
		<polyline class="st3" points="174.7,176 669,176 669,206 		"/>
		<path class="st3" d="M668,206"/>
		<path class="st3" d="M1162.3,206"/>
		<line class="st3" x1="668" y1="176" x2="1162.3" y2="176"/>
		<polyline class="st3" points="1161.7,206 1161.7,176 1656,176 1656,206 		"/>
		<g>
			<circle cx="-309" cy="191" r="2"/>
		</g>
		<g>
			<circle cx="166" cy="191" r="2"/>
		</g>
		<g>
			<circle cx="184" cy="191" r="2"/>
		</g>
		<g>
			<circle cx="659" cy="191" r="2"/>
		</g>
		<g>
			<circle cx="678" cy="191" r="2"/>
		</g>
		<g>
			<circle cx="1153" cy="191" r="2"/>
		</g>
		<g>
			<circle cx="1171" cy="191" r="2"/>
		</g>
		<g>
			<circle cx="1646" cy="191" r="2"/>
		</g>
	</g>
	<g>
		<polyline class="st3" points="-319,236 -319,206 175.3,206 175.3,236 		"/>
		<path class="st3" d="M174.7,236"/>
		<polyline class="st3" points="174.7,206 669,206 669,236 		"/>
		<path class="st3" d="M668,236"/>
		<path class="st3" d="M1162.3,236"/>
		<line class="st3" x1="668" y1="206" x2="1162.3" y2="206"/>
		<polyline class="st3" points="1161.7,236 1161.7,206 1656,206 1656,236 		"/>
		<g>
			<circle cx="-309" cy="221" r="2"/>
		</g>
		<g>
			<circle cx="166" cy="221" r="2"/>
		</g>
		<g>
			<circle cx="184" cy="221" r="2"/>
		</g>
		<g>
			<circle cx="659" cy="221" r="2"/>
		</g>
		<g>
			<circle cx="678" cy="221" r="2"/>
		</g>
		<g>
			<circle cx="1153" cy="221" r="2"/>
		</g>
		<g>
			<circle cx="1171" cy="221" r="2"/>
		</g>
		<g>
			<circle cx="1646" cy="221" r="2"/>
		</g>
	</g>
	<g>
		<polyline class="st3" points="-319,266 -319,236 175.3,236 175.3,266 		"/>
		<path class="st3" d="M174.7,266"/>
		<polyline class="st3" points="174.7,236 669,236 669,266 		"/>
		<path class="st3" d="M668,266"/>
		<path class="st3" d="M1162.3,266"/>
		<line class="st3" x1="668" y1="236" x2="1162.3" y2="236"/>
		<polyline class="st3" points="1161.7,266 1161.7,236 1656,236 1656,266 		"/>
		<g>
			<circle cx="-309" cy="251" r="2"/>
		</g>
		<g>
			<circle cx="166" cy="251" r="2"/>
		</g>
		<g>
			<circle cx="184" cy="251" r="2"/>
		</g>
		<g>
			<circle cx="659" cy="251" r="2"/>
		</g>
		<g>
			<circle cx="678" cy="251" r="2"/>
		</g>
		<g>
			<circle cx="1153" cy="251" r="2"/>
		</g>
		<g>
			<circle cx="1171" cy="251" r="2"/>
		</g>
		<g>
			<circle cx="1646" cy="251" r="2"/>
		</g>
	</g>
	<g>
		<polyline class="st3" points="-319,296 -319,266 175.3,266 175.3,296 		"/>
		<path class="st3" d="M174.7,296"/>
		<polyline class="st3" points="174.7,266 669,266 669,296 		"/>
		<path class="st3" d="M668,296"/>
		<path class="st3" d="M1162.3,296"/>
		<line class="st3" x1="668" y1="266" x2="1162.3" y2="266"/>
		<polyline class="st3" points="1161.7,296 1161.7,266 1656,266 1656,296 		"/>
		<g>
			<circle cx="-309" cy="281" r="2"/>
		</g>
		<g>
			<circle cx="166" cy="281" r="2"/>
		</g>
		<g>
			<circle cx="184" cy="281" r="2"/>
		</g>
		<g>
			<circle cx="659" cy="281" r="2"/>
		</g>
		<g>
			<circle cx="678" cy="281" r="2"/>
		</g>
		<g>
			<circle cx="1153" cy="281" r="2"/>
		</g>
		<g>
			<circle cx="1171" cy="281" r="2"/>
		</g>
		<g>
			<circle cx="1646" cy="281" r="2"/>
		</g>
	</g>
	<g>
		<polyline class="st3" points="-319,326 -319,296 175.3,296 175.3,326 		"/>
		<path class="st3" d="M174.7,326"/>
		<polyline class="st3" points="174.7,296 669,296 669,326 		"/>
		<path class="st3" d="M668,326"/>
		<path class="st3" d="M1162.3,326"/>
		<line class="st3" x1="668" y1="296" x2="1162.3" y2="296"/>
		<polyline class="st3" points="1161.7,326 1161.7,296 1656,296 1656,326 		"/>
		<g>
			<circle cx="-309" cy="311" r="2"/>
		</g>
		<g>
			<circle cx="166" cy="311" r="2"/>
		</g>
		<g>
			<circle cx="184" cy="311" r="2"/>
		</g>
		<g>
			<circle cx="659" cy="311" r="2"/>
		</g>
		<g>
			<circle cx="678" cy="311" r="2"/>
		</g>
		<g>
			<circle cx="1153" cy="311" r="2"/>
		</g>
		<g>
			<circle cx="1171" cy="311" r="2"/>
		</g>
		<g>
			<circle cx="1646" cy="311" r="2"/>
		</g>
	</g>
	<g>
		<polyline class="st3" points="-319,356 -319,326 175.3,326 175.3,356 		"/>
		<path class="st3" d="M174.7,356"/>
		<polyline class="st3" points="174.7,326 669,326 669,356 		"/>
		<path class="st3" d="M668,356"/>
		<path class="st3" d="M1162.3,356"/>
		<line class="st3" x1="668" y1="326" x2="1162.3" y2="326"/>
		<polyline class="st3" points="1161.7,356 1161.7,326 1656,326 1656,356 		"/>
		<g>
			<circle cx="-309" cy="341" r="2"/>
		</g>
		<g>
			<circle cx="166" cy="341" r="2"/>
		</g>
		<g>
			<circle cx="184" cy="341" r="2"/>
		</g>
		<g>
			<circle cx="659" cy="341" r="2"/>
		</g>
		<g>
			<circle cx="678" cy="341" r="2"/>
		</g>
		<g>
			<circle cx="1153" cy="341" r="2"/>
		</g>
		<g>
			<circle cx="1171" cy="341" r="2"/>
		</g>
		<g>
			<circle cx="1646" cy="341" r="2"/>
		</g>
	</g>
	<g>
		<polyline class="st3" points="-319,386 -319,356 175.3,356 175.3,386 		"/>
		<path class="st3" d="M174.7,386"/>
		<polyline class="st3" points="174.7,356 669,356 669,386 		"/>
		<path class="st3" d="M668,386"/>
		<path class="st3" d="M1162.3,386"/>
		<line class="st3" x1="668" y1="356" x2="1162.3" y2="356"/>
		<polyline class="st3" points="1161.7,386 1161.7,356 1656,356 1656,386 		"/>
		<g>
			<circle cx="-309" cy="371" r="2"/>
		</g>
		<g>
			<circle cx="166" cy="371" r="2"/>
		</g>
		<g>
			<circle cx="184" cy="371" r="2"/>
		</g>
		<g>
			<circle cx="659" cy="371" r="2"/>
		</g>
		<g>
			<circle cx="678" cy="371" r="2"/>
		</g>
		<g>
			<circle cx="1153" cy="371" r="2"/>
		</g>
		<g>
			<circle cx="1171" cy="371" r="2"/>
		</g>
		<g>
			<circle cx="1646" cy="371" r="2"/>
		</g>
	</g>
	<g>
		<polyline class="st3" points="-319,416 -319,386 175.3,386 175.3,416 		"/>
		<path class="st3" d="M174.7,416"/>
		<polyline class="st3" points="174.7,386 669,386 669,416 		"/>
		<path class="st3" d="M668,416"/>
		<path class="st3" d="M1162.3,416"/>
		<line class="st3" x1="668" y1="386" x2="1162.3" y2="386"/>
		<polyline class="st3" points="1161.7,416 1161.7,386 1656,386 1656,416 		"/>
		<g>
			<circle cx="-309" cy="401" r="2"/>
		</g>
		<g>
			<circle cx="166" cy="401" r="2"/>
		</g>
		<g>
			<circle cx="184" cy="401" r="2"/>
		</g>
		<g>
			<circle cx="659" cy="401" r="2"/>
		</g>
		<g>
			<circle cx="678" cy="401" r="2"/>
		</g>
		<g>
			<circle cx="1153" cy="401" r="2"/>
		</g>
		<g>
			<circle cx="1171" cy="401" r="2"/>
		</g>
		<g>
			<circle cx="1646" cy="401" r="2"/>
		</g>
	</g>
	<g>
		<polyline class="st3" points="-319,446 -319,416 175.3,416 175.3,446 		"/>
		<path class="st3" d="M174.7,446"/>
		<polyline class="st3" points="174.7,416 669,416 669,446 		"/>
		<path class="st3" d="M668,446"/>
		<path class="st3" d="M1162.3,446"/>
		<line class="st3" x1="668" y1="416" x2="1162.3" y2="416"/>
		<polyline class="st3" points="1161.7,446 1161.7,416 1656,416 1656,446 		"/>
		<g>
			<circle cx="-309" cy="431" r="2"/>
		</g>
		<g>
			<circle cx="166" cy="431" r="2"/>
		</g>
		<g>
			<circle cx="184" cy="431" r="2"/>
		</g>
		<g>
			<circle cx="659" cy="431" r="2"/>
		</g>
		<g>
			<circle cx="678" cy="431" r="2"/>
		</g>
		<g>
			<circle cx="1153" cy="431" r="2"/>
		</g>
		<g>
			<circle cx="1171" cy="431" r="2"/>
		</g>
		<g>
			<circle cx="1646" cy="431" r="2"/>
		</g>
	</g>
	<g>
		<polyline class="st3" points="-319,476 -319,446 175.3,446 175.3,476 		"/>
		<path class="st3" d="M174.7,476"/>
		<polyline class="st3" points="174.7,446 669,446 669,476 		"/>
		<path class="st3" d="M668,476"/>
		<path class="st3" d="M1162.3,476"/>
		<line class="st3" x1="668" y1="446" x2="1162.3" y2="446"/>
		<polyline class="st3" points="1161.7,476 1161.7,446 1656,446 1656,476 		"/>
		<g>
			<circle cx="-309" cy="461" r="2"/>
		</g>
		<g>
			<circle cx="166" cy="461" r="2"/>
		</g>
		<g>
			<circle cx="184" cy="461" r="2"/>
		</g>
		<g>
			<circle cx="659" cy="461" r="2"/>
		</g>
		<g>
			<circle cx="678" cy="461" r="2"/>
		</g>
		<g>
			<circle cx="1153" cy="461" r="2"/>
		</g>
		<g>
			<circle cx="1171" cy="461" r="2"/>
		</g>
		<g>
			<circle cx="1646" cy="461" r="2"/>
		</g>
	</g>
	<g>
		<polyline class="st3" points="-319,506 -319,476 175.3,476 175.3,506 		"/>
		<path class="st3" d="M174.7,506"/>
		<polyline class="st3" points="174.7,476 669,476 669,506 		"/>
		<path class="st3" d="M668,506"/>
		<path class="st3" d="M1162.3,506"/>
		<line class="st3" x1="668" y1="476" x2="1162.3" y2="476"/>
		<polyline class="st3" points="1161.7,506 1161.7,476 1656,476 1656,506 		"/>
		<g>
			<circle cx="-309" cy="491" r="2"/>
		</g>
		<g>
			<circle cx="166" cy="491" r="2"/>
		</g>
		<g>
			<circle cx="184" cy="491" r="2"/>
		</g>
		<g>
			<circle cx="659" cy="491" r="2"/>
		</g>
		<g>
			<circle cx="678" cy="491" r="2"/>
		</g>
		<g>
			<circle cx="1153" cy="491" r="2"/>
		</g>
		<g>
			<circle cx="1171" cy="491" r="2"/>
		</g>
		<g>
			<circle cx="1646" cy="491" r="2"/>
		</g>
	</g>
	<g>
		<polyline class="st3" points="-319,536 -319,506 175.3,506 175.3,536 		"/>
		<path class="st3" d="M174.7,536"/>
		<polyline class="st3" points="174.7,506 669,506 669,536 		"/>
		<path class="st3" d="M668,536"/>
		<path class="st3" d="M1162.3,536"/>
		<line class="st3" x1="668" y1="506" x2="1162.3" y2="506"/>
		<polyline class="st3" points="1161.7,536 1161.7,506 1656,506 1656,536 		"/>
		<g>
			<circle cx="-309" cy="521" r="2"/>
		</g>
		<g>
			<circle cx="166" cy="521" r="2"/>
		</g>
		<g>
			<circle cx="184" cy="521" r="2"/>
		</g>
		<g>
			<circle cx="659" cy="521" r="2"/>
		</g>
		<g>
			<circle cx="678" cy="521" r="2"/>
		</g>
		<g>
			<circle cx="1153" cy="521" r="2"/>
		</g>
		<g>
			<circle cx="1171" cy="521" r="2"/>
		</g>
		<g>
			<circle cx="1646" cy="521" r="2"/>
		</g>
	</g>
	<g>
		<polyline class="st3" points="-319,566 -319,536 175.3,536 175.3,566 		"/>
		<path class="st3" d="M174.7,566"/>
		<polyline class="st3" points="174.7,536 669,536 669,566 		"/>
		<path class="st3" d="M668,566"/>
		<path class="st3" d="M1162.3,566"/>
		<line class="st3" x1="668" y1="536" x2="1162.3" y2="536"/>
		<polyline class="st3" points="1161.7,566 1161.7,536 1656,536 1656,566 		"/>
		<g>
			<circle cx="-309" cy="551" r="2"/>
		</g>
		<g>
			<circle cx="166" cy="551" r="2"/>
		</g>
		<g>
			<circle cx="184" cy="551" r="2"/>
		</g>
		<g>
			<circle cx="659" cy="551" r="2"/>
		</g>
		<g>
			<circle cx="678" cy="551" r="2"/>
		</g>
		<g>
			<circle cx="1153" cy="551" r="2"/>
		</g>
		<g>
			<circle cx="1171" cy="551" r="2"/>
		</g>
		<g>
			<circle cx="1646" cy="551" r="2"/>
		</g>
	</g>
	<g>
		<polyline class="st3" points="-319,596 -319,566 175.3,566 175.3,596 		"/>
		<path class="st3" d="M174.7,596"/>
		<polyline class="st3" points="174.7,566 669,566 669,596 		"/>
		<path class="st3" d="M668,596"/>
		<path class="st3" d="M1162.3,596"/>
		<line class="st3" x1="668" y1="566" x2="1162.3" y2="566"/>
		<polyline class="st3" points="1161.7,596 1161.7,566 1656,566 1656,596 		"/>
		<g>
			<circle cx="-309" cy="581" r="2"/>
		</g>
		<g>
			<circle cx="166" cy="581" r="2"/>
		</g>
		<g>
			<circle cx="184" cy="581" r="2"/>
		</g>
		<g>
			<circle cx="659" cy="581" r="2"/>
		</g>
		<g>
			<circle cx="678" cy="581" r="2"/>
		</g>
		<g>
			<circle cx="1153" cy="581" r="2"/>
		</g>
		<g>
			<circle cx="1171" cy="581" r="2"/>
		</g>
		<g>
			<circle cx="1646" cy="581" r="2"/>
		</g>
	</g>
	<g>
		<polyline class="st3" points="-319,640 -319,596 175.3,596 175.3,640 		"/>
		<path class="st3" d="M174.7,626"/>
		<polyline class="st3" points="174.7,596 669,596 669,640 		"/>
		<path class="st3" d="M668,626"/>
		<path class="st3" d="M1162.3,626"/>
		<line class="st3" x1="668" y1="596" x2="1162.3" y2="596"/>
		<polyline class="st3" points="1161.7,640 1161.7,596 1656,596 1656,640 		"/>
		<g>
			<circle cx="-309" cy="611" r="2"/>
		</g>
		<g>
			<circle cx="166" cy="611" r="2"/>
		</g>
		<g>
			<circle cx="184" cy="611" r="2"/>
		</g>
		<g>
			<circle cx="659" cy="611" r="2"/>
		</g>
		<g>
			<circle cx="678" cy="611" r="2"/>
		</g>
		<g>
			<circle cx="1153" cy="611" r="2"/>
		</g>
		<g>
			<circle cx="1171" cy="611" r="2"/>
		</g>
		<g>
			<circle cx="1646" cy="611" r="2"/>
		</g>
	</g>
</g>
<polyline class="st23" points="-2128.5,-1182.5 -2101.5,-1214.5 -2066.5,-1302.5 -1991.5,-1222.5 -2031.5,-1204.5 -2026.5,-1183.5 
	"/>
<g>
	<path class="st1" d="M158,548.3l-1.2,28.1c-0.7,15.3,12.6,27.6,27.9,25.7l29.9-3.8L158,548.3z"/>
	
		<rect x="180.3" y="527.5" transform="matrix(0.6622 -0.7493 0.7493 0.6622 -364.0261 333.4268)" class="st1" width="15" height="86"/>
</g>
<g>
	<path class="st1" d="M102,654.5l62.2-70c4.7-5.3,11.6-5,16,0.8l53.3,69.2h-10.2l-50.9-61l-61.1,61H102z"/>
	<circle class="st1" cx="172" cy="587" r="3.5"/>
</g>
<path class="st14" d="M-333.5-1386l52,79.5h9l-51.7-79.5h31.7v-10.5h-6.7l-33.8-47l54.6-31.2l-7.9-8.1l-149.3,85.8l-247,0.4
	l-115.8,56.3l4.9,9.1l110.8-54.4h5.6l-58.3,83.1h10l59.2-83.1l223.5-0.3h109.2L-333.5-1386L-333.5-1386z M-305-1396.5l-109.6-0.4
	l76.6-43.7L-305-1396.5z"/>
<g>
	
		<rect x="-1309.3" y="-1152.2" transform="matrix(0.9372 -0.3488 0.3488 0.9372 324.7333 -470.3616)" class="st14" width="331" height="30.5"/>
	<g>
		<circle cx="-996.7" cy="-1191.6" r="2.1"/>
	</g>
	<g>
		<circle cx="-1290.9" cy="-1082.4" r="2.1"/>
	</g>
</g>
<g>
	<polygon class="st24" points="1286.3,418.8 1038.7,532.5 1051.5,560.2 1299,446.4 	"/>
	<g>
		<circle cx="1284.6" cy="436.3" r="2.1"/>
	</g>
	<g>
		<circle cx="1052.8" cy="542.6" r="2.1"/>
	</g>
</g>
<g>
	<polygon class="st24" points="138,216 160,379.5 190.2,375.4 168.2,211.8 	"/>
	<g>
		<circle cx="153.8" cy="221.3" r="2.1"/>
	</g>
	<g>
		<circle cx="173.8" cy="369" r="2.1"/>
	</g>
</g>
<path class="st24" d="M543.8,607.6l20.8-64.3c1.2-3.8,3.6-7.2,6.8-9.6l36.3-27.7c0.5-0.4,1-0.8,1.5-1.2l23.7-22
	c2.3-2.2,5.2-3.7,8.3-4.6l52.1-14.1c4-1.1,8.3-0.9,12.2,0.6l91.4,35.3c5.5,2.1,9.7,6.6,11.6,12.1l8.2,24.5c1.2,3.7,3.6,7,6.7,9.4
	l31.9,24.3c3.4,2.6,5.9,6.3,7,10.4l7.4,26.8c3.4,12.5-5.9,24.9-18.9,24.9l-288.1,0.8C549.2,633.4,539.7,620.4,543.8,607.6z"/>
<path class="st24" d="M841.3,624.3l11.1-11.7c0.7-0.8,1.6-1.3,2.6-1.5l30.2-7.3c0.8-0.2,1.6-0.6,2.2-1.1l15.5-12.9
	c1-0.8,2.2-1.3,3.5-1.3h22.1c1.3,0,2.5,0.5,3.5,1.3l17.5,14.7l17.3,13.5c0.5,0.4,0.9,0.8,1.2,1.3l3.9,5.8c2.4,3.6-0.2,8.4-4.5,8.4
	H845.2C840.4,633.5,838,627.8,841.3,624.3z"/>
<path class="st24" d="M472.5,626.1l6.1-7.5c0.5-0.7,1.3-1.2,2.1-1.4L493,613c1-0.3,2.1-0.3,3.1,0.1l10.5,4c0.6,0.2,1.2,0.6,1.7,1.1
	l7.1,7.6c2.7,2.9,0.7,7.7-3.3,7.7h-35.9C472.2,633.5,470.1,629.1,472.5,626.1z"/>
<path class="st24" d="M509.1,625.5l0.4-1.5c0.6-2.1,2.4-3.5,4.6-3.5h2c2,0,3.8,1.2,4.5,3.1l0.5,1.5c1.1,3.1-1.2,6.4-4.5,6.4h-3
	C510.6,631.5,508.3,628.5,509.1,625.5z"/>
<path class="st1" d="M1199.2,631.4h217.2h2.8h217.2l0,0c0-6.8-5.5-12.4-12.4-12.4h-33.3c-7.8,0-14.1-6.3-14.1-14.1V441.8h-11.4
	l-9.3,163.9c-0.4,7.5-6.6,13.3-14.1,13.3h-122.7h-2.8h-122.7c-7.5,0-13.6-5.8-14.1-13.3l-9.3-163.9H1259v163.1
	c0,7.8-6.3,14.1-14.1,14.1h-33.3C1204.7,619,1199.2,624.5,1199.2,631.4L1199.2,631.4z"/>
<path class="st24" d="M141.8,623.4l-23.9-24.5c-0.3-0.3-0.6-0.6-0.8-0.9l-4.2-5.6c-3.7-5-11.2-5.1-15.1-0.2l-9.3,11.9
	c-0.7,0.9-1.6,1.7-2.6,2.3l-13.6,8.1c-3.2,1.9-5.6,4.9-6.9,8.4l-1.4,3.9c-2.2,6.2,2.3,12.7,8.9,12.7h62
	C143.4,639.5,147.6,629.4,141.8,623.4z"/>
<rect x="-1530" y="-1163" class="st25" width="63" height="63"/>
<g>
	<path class="st1" d="M905.1,557.3l-3.8-3.5l-1.9-1.7l-3.8-3.5c0,0-28,32.4-40.3,21.2l15.4,14l1.9,1.7l15.4,14
		C875.6,588.2,905.1,557.3,905.1,557.3z"/>
	<path class="st1" d="M890.9,594.8l-32-29.1c-0.6-0.6-1.5-0.7-2.3-0.4l-1.7,0.7c-1.5,0.6-1.9,2.6-0.7,3.6l33.3,30.2
		c1.2,1.1,3.1,0.5,3.6-1l0.5-1.8C891.8,596.2,891.5,595.4,890.9,594.8z"/>
	<path class="st1" d="M940.9,537.9l-8.3,51.8l-24.1-21.9l-24.1-21.9l-24-21.9l50.8-13.2c2.7-0.7,5.6,0,7.7,1.9l19.5,17.7
		C940.4,532.3,941.4,535.1,940.9,537.9z"/>
</g>
</svg>
