<?xml version="1.0" encoding="utf-8"?>
<!-- Generator: Adobe Illustrator 22.0.1, SVG Export Plug-In . SVG Version: 6.00 Build 0)  -->
<svg version="1.1" id="Layer_1" xmlns="http://www.w3.org/2000/svg" xmlns:xlink="http://www.w3.org/1999/xlink" x="0px" y="0px"
	 viewBox="0 0 1340 630" style="enable-background:new 0 0 1340 630;" xml:space="preserve">
<style type="text/css">
	.st0{fill:#DDDDD3;}
	.st1{fill:#F2DCA5;}
	.st2{fill:#F2DCA5;stroke:#000000;stroke-miterlimit:10;}
	.st3{fill:#565950;}
	.st4{fill:none;stroke:#000000;stroke-miterlimit:10;}
	.st5{fill:#464651;}
	.st6{clip-path:url(#SVGID_4_);fill:#DDDDD3;}
	.st7{fill:#4C4F47;}
	.st8{clip-path:url(#SVGID_7_);}
	.st9{clip-path:url(#SVGID_9_);}
	.st10{clip-path:url(#SVGID_11_);}
	.st11{fill:#F2F2F2;}
	.st12{clip-path:url(#SVGID_13_);}
	.st13{fill:#414143;stroke:#000000;stroke-miterlimit:10;}
	.st14{fill:#414143;}
	.st15{fill:#E8E7E7;}
	.st16{fill:#CFD9C5;}
	.st17{fill:#BFDDA1;}
	.st18{fill:#41B369;}
	.st19{fill:#F8A079;}
	.st20{fill:#EF5B49;}
	.st21{fill:#FCC638;}
	.st22{fill:#C1C5E8;}
	.st23{enable-background:new    ;}
	.st24{fill:#565950;stroke:#000000;stroke-miterlimit:10;}
	.st25{fill:#4C4F47;stroke:#000000;stroke-miterlimit:10;}
	.st26{fill:#E8E7E7;stroke:#000000;stroke-miterlimit:10;}
	.st27{fill:#F2F2F2;stroke:#000000;stroke-miterlimit:10;}
	.st28{fill:#9AAF92;stroke:#000000;stroke-miterlimit:10;}
	.st29{fill:#DD796F;}
	.st30{fill:#DDDDD3;stroke:#000000;stroke-miterlimit:10;}
	.st31{clip-path:url(#SVGID_15_);}
	.st32{clip-path:url(#SVGID_17_);fill:#84CE9B;}
	.st33{clip-path:url(#SVGID_19_);fill:#84CE9B;}
	.st34{clip-path:url(#SVGID_21_);fill:#84CE9B;}
	.st35{clip-path:url(#SVGID_23_);fill:#84CE9B;}
	.st36{clip-path:url(#SVGID_25_);fill:#84CE9B;}
	.st37{fill:#464651;stroke:#000000;stroke-miterlimit:10;}
	.st38{clip-path:url(#SVGID_27_);fill:#9AAF92;stroke:#000000;stroke-miterlimit:10;}
	.st39{clip-path:url(#SVGID_29_);fill:#9AAF92;stroke:#000000;stroke-miterlimit:10;}
</style>
<g id="Layer_4">
	<path class="st0" d="M921.1,466.5c0,22.3,8.4,45.2,0.4,64.6c-8.3,20.1-22.8,38.3-37.9,53.5c-15.2,15.2-37.8,18.8-57.9,27.1
		c-19.4,8-37.8,17.2-60.1,17.2s-45.9,3.3-65.3-4.7c-20.1-8.3-40.4-21.7-55.5-36.8c-15.2-15.2-25.6-36.7-33.9-56.8
		c-8-19.4-12.2-41.8-12.2-64.1c0-22.3-1-46.8,7.1-66.2c8.3-20.1,31.2-32.2,46.3-47.3c15.2-15.2,32.3-25.8,52.4-34.1
		c19.4-8,38.9-23.3,61.2-23.3s44.5,8.8,63.9,16.8c20.1,8.3,43.3,16.8,58.4,31.9c15.2,15.2,18.2,40.6,26.5,60.7
		C922.4,424.3,921.1,444.2,921.1,466.5z"/>
</g>
<path class="st1" d="M514.8,113.5l16.2-1.6l1.5,18.1l1.6,18.1l0.7,18.2l2.6,18l0.3,18.2l2.5,18.3l-16.7,0.9l-0.8-18l-2.1-18
	l-0.7-18.2l-2.9-18l-0.4-18.2L514.8,113.5z"/>
<path class="st1" d="M573,123.6l-14.4,0.9l-14.6,0.7l-1.9-14.8l19.5-0.9l19-1.2l18.9-2.5l19.2-1.3L619,119l-14.2,2.3l-14.5,0.9
	l1.4,18.5l1.5,18.8l2.2,18.7l1.1,18.8l1,18.9l-16.1,0.8l-1.5-18.4l-2.3-18.7l-0.4-18.9l-3.3-18.6L573,123.6z"/>
<path class="st1" d="M702.1,89l16.3,0.8l-0.3,18.6l-2,18.6l-0.4,18.7l-1.6,18.6l-1.1,18.9l17.9,1.6l17.8-0.7l18.3,1.1l-1.2,16.7
	l-17.7-1.2l-17.3-1.5l-17.4-0.9l-18-0.2l2.3-18.6l-0.2-18.2l0.8-18.1l2.1-18.1l0.9-18.1L702.1,89z"/>
<path class="st1" d="M786.6,93.3l16.3,1.6l-0.8,17.7l-1.5,18.1l-0.7,18.1l-0.5,18.2l-1.8,18.1L797,203l-16.8-0.1l0.8-18.7l2.6-18
	l0.2-18.2l1.3-18.1l0.8-18.1L786.6,93.3z"/>
<path class="st1" d="M826.1,95.6l17.3,0.6l-2.1,19.2v18.7l-2.3,18.6l0.5-0.4l12.2-13.2l12.5-12.9l12.1-13.3l11.2-14.6l19.8,1.9
	l-11.7,14.2l-12.4,13.7L869.3,141l10.1,16.8l8.7,17l8.5,17.1l8.6,17.5l-20.2-1l-9.1-18.4l-7.8-18.8l-9.2-18.8l-10.9,9.8l-8.9,10.2
	l-1.4,16.3l-0.9,17l-17.3-1l1.5-18.5l0.7-18.1l2.1-18.1l-0.6-18.2l2.1-18.1L826.1,95.6z"/>
<path class="st1" d="M922.8,101.5l17,1.2l17.4,1l17.4,1l18-0.1l-1.7,16l-17.5-1.2l-17.7,0.4l-18-2.4l-1,16l-0.3,15.5l15,1.7
	l15.1-0.3l15.1,1.2l-1.4,14.2l-14.6,0.1l-15-1.3l-15.3-1l-0.5,16.2l-1,15.9l17.6,1.7l17.7-0.3l17.8,1.5l-1.6,15l-16.8-0.3l-17.4-0.3
	l-17.4-1.4l-17.9-0.8l2.2-18.6l-0.4-18.2l2.6-18v-18.2l2.3-18.1L922.8,101.5z"/>
<path class="st2" d="M121.8,149.8l20.9-1.9l21.3-0.5l22.7,4.5l11.9,22.7l-4.1,18.7l-14.4,12.9l10,15.2l9.4,15.5l9.6,15.8l-20.1,1.9
	l-7.7-15.9l-9.9-14.2l-8.1-14.8l-21.2,0.5l1.2,15.9l1.8,15.4l0.7,15.5l-15.9,0.6l-2-17.5l-1.1-18.1l-0.8-18.1l-1.1-18.1l-1.4-18.1
	L121.8,149.8z M141.3,196.3l25.1-2.2l13.5-4.7l3.5-13.7l-5.9-12.4l-12.6-2.5l-25.8,2.2l1.7,16.6L141.3,196.3z"/>
<path class="st1" d="M214.6,142.8l17.5-0.2l17.4-1.3l17.3-2.4l17.2-0.7l0.8,14.7l-17.1,1.9L250,156l-17.2,1.7l1.5,15l0.8,15.1
	l14.7-0.2l15-1.9l15.1-0.7l1.3,14.9l-15.2,1.9l-15.1,1l-14.4,0.8V219l1,16.7l18.3-1.5l17.6-2.4l18.2-1.4l1,16.7l-17.7,1.4l-17.4,0.8
	l-17.3,1.7l-17.6,0.9l-0.7-18.4l-1.2-18.1l-2.5-18l-0.9-18.1l-1.4-18.1L214.6,142.8z"/>
<path class="st1" d="M361,217.5l-20.4,0.2l-20.4,2.6l-7.1,24.4l-16.8,1.5l4.4-18.6l5.6-18.5l4.8-18.7l6.7-18.2l5.2-18.6l4.5-19
	l14.4-1.2l8.1,17.9l7,18l7.4,17.9l9.5,16.9l7,18l8.2,17.7l-17.4,0.8L361,217.5z M355.1,202.6L350,187l-7.4-15l-5.7-15.7l-1,0.2
	l-3.2,16.4l-4.4,16.1l-3.8,15.6h15.2L355.1,202.6z"/>
<path class="st1" d="M401.1,143.9l-15.2,0.9l-15.2,1.8l-0.5-14.7l18.8-0.7l18.9-3.1l19-0.7l18.6-0.6l1.7,14.2l-15,1.9l-14.4,0.5
	l0.2,18.5l0.9,18.8l2.2,18.7l1.7,18.8l0.9,18.6l-16.1,1.2l-2.4-18.6l-0.6-18.9l-1.7-18.8l-0.4-18.9L401.1,143.9z"/>
<path class="st1" d="M1053.6,135.6l16.6-11.9l20-3.2l19.5,6.8l11.2,17.1l2.2,17.6l-1,18.2l-2.1,18.2l-7.7,16.3l-15.6,12.4l-19.9,3.5
	l-18.4-8.3l-12.7-15.5L1044,189l1.9-18.1l2.7-18L1053.6,135.6z M1063.6,204l15.2,10.7l17.7-6.3l6-14.3l4.1-15.6l1.5-16l-4-15.4
	l-15.8-9.5l-18.3,4.8l-6.9,14.7l-1.5,16l-2.5,15.9L1063.6,204z"/>
<path class="st1" d="M1148.4,129.1l15.5,0.7l7,17.3l9.1,16l7.6,16.7l7.2,16.9l7.5,16.8v-0.4l3-19.1l2.4-19.2l1.7-19.3l2.7-19.5
	l17,2.3l-2.8,18.1l-1.6,18.1l-3.2,17.9l-2,18l-1.5,18.1l-1.6,18.6l-16.2-2.3l-8.4-16.4l-7.2-16.9l-7.9-16.5l-7.3-16.9l-8.2-16.4
	l-1.2,0.1l-2.2,19.2l-2.6,19.2l-1.7,19.3l-1.9,19.7l-17-2.4l3-18.1l1.8-18.1l2-18l2.8-18l0.7-18.2L1148.4,129.1z"/>
<g id="Layer_2_1_">
	<g>
		<g>
			<g>
				<path class="st3" d="M64.2,168.8H49.8l-14.6,1.3l-1-14.1l18.7-2.6l19-1.1l19-1.5l18.8-0.1l0.7,13.7l-14.3,1.3l-15.4,1.1
					l1.5,19.2l0.9,18.8l1.9,18.8l2.2,18.7l0.7,18.7l-16.4,1.4l-0.6-18.9L68,224.8l-0.4-18.9l-2.3-18.7L64.2,168.8z"/>
				<path class="st4" d="M64.2,168.8H49.8l-14.6,1.3l-1-14.1l18.7-2.6l19-1.1l19-1.5l18.8-0.1l0.7,13.7l-14.3,1.3l-15.4,1.1
					l1.5,19.2l0.9,18.8l1.9,18.8l2.2,18.7l0.7,18.7l-16.4,1.4l-0.6-18.9L68,224.8l-0.4-18.9l-2.3-18.7L64.2,168.8z"/>
			</g>
			<g>
				<path class="st5" d="M121.8,149.8l20.9-1.9l21.3-0.5l22.7,4.5l11.9,22.7l-4.1,18.7l-14.4,12.9l10,15.2l9.4,15.5l9.6,15.8
					l-20.1,1.9l-7.7-15.9l-9.9-14.2l-8.1-14.8l-21.2,0.5l1.2,15.9l1.8,15.4l0.7,15.5l-15.9,0.6l-2-17.5l-1.1-18.1l-0.8-18.1
					l-1.1-18.1l-1.4-18.1L121.8,149.8z M141.3,196.3l25.1-2.2l13.5-4.7l3.5-13.7l-5.9-12.4l-12.6-2.5l-25.8,2.2l1.7,16.6
					L141.3,196.3z"/>
				<path class="st4" d="M121.8,149.8l20.9-1.9l21.3-0.5l22.7,4.5l11.9,22.7l-4.1,18.7l-14.4,12.9l10,15.2l9.4,15.5l9.6,15.8
					l-20.1,1.9l-7.7-15.9l-9.9-14.2l-8.1-14.8l-21.2,0.5l1.2,15.9l1.8,15.4l0.7,15.5l-15.9,0.6l-2-17.5l-1.1-18.1l-0.8-18.1
					l-1.1-18.1l-1.4-18.1L121.8,149.8z M141.3,196.3l25.1-2.2l13.5-4.7l3.5-13.7l-5.9-12.4l-12.6-2.5l-25.8,2.2l1.7,16.6
					L141.3,196.3z"/>
			</g>
			<g>
				<path class="st5" d="M214.6,142.8l17.5-0.2l17.4-1.3l17.3-2.4l17.2-0.7l0.8,14.7l-17.1,1.9L250,156l-17.2,1.7l1.5,15l0.8,15.1
					l14.7-0.2l15-1.9l15.1-0.7l1.3,14.9l-15.2,1.9l-15.1,1l-14.4,0.8V219l1,16.7l18.3-1.5l17.6-2.4l18.2-1.4l1,16.7l-17.7,1.4
					l-17.4,0.8l-17.3,1.7l-17.6,0.9l-0.7-18.4l-1.2-18.1l-2.5-18l-0.9-18.1l-1.4-18.1L214.6,142.8z"/>
				<path class="st4" d="M214.6,142.8l17.5-0.2l17.4-1.3l17.3-2.4l17.2-0.7l0.8,14.7l-17.1,1.9L250,156l-17.2,1.7l1.5,15l0.8,15.1
					l14.7-0.2l15-1.9l15.1-0.7l1.3,14.9l-15.2,1.9l-15.1,1l-14.4,0.8V219l1,16.7l18.3-1.5l17.6-2.4l18.2-1.4l1,16.7l-17.7,1.4
					l-17.4,0.8l-17.3,1.7l-17.6,0.9l-0.7-18.4l-1.2-18.1l-2.5-18l-0.9-18.1l-1.4-18.1L214.6,142.8z"/>
			</g>
			<g>
				<path class="st5" d="M361,217.5l-20.4,0.2l-20.4,2.6l-7.1,24.4l-16.8,1.5l4.4-18.6l5.6-18.5l4.8-18.7l6.7-18.2l5.2-18.6l4.5-19
					l14.4-1.2l8.1,17.9l7,18l7.4,17.9l9.5,16.9l7,18l8.2,17.7l-17.4,0.8L361,217.5z M355.1,202.6L350,187l-7.4-15l-5.7-15.7l-1,0.2
					l-3.2,16.4l-4.4,16.1l-3.8,15.6h15.2L355.1,202.6z"/>
				<path class="st4" d="M361,217.5l-20.4,0.2l-20.4,2.6l-7.1,24.4l-16.8,1.5l4.4-18.6l5.6-18.5l4.8-18.7l6.7-18.2l5.2-18.6l4.5-19
					l14.4-1.2l8.1,17.9l7,18l7.4,17.9l9.5,16.9l7,18l8.2,17.7l-17.4,0.8L361,217.5z M355.1,202.6L350,187l-7.4-15l-5.7-15.7l-1,0.2
					l-3.2,16.4l-4.4,16.1l-3.8,15.6h15.2L355.1,202.6z"/>
			</g>
			<g>
				<path class="st5" d="M401.1,143.9l-15.2,0.9l-15.2,1.8l-0.5-14.7l18.8-0.7l18.9-3.1l19-0.7l18.6-0.6l1.7,14.2l-15,1.9l-14.4,0.5
					l0.2,18.5l0.9,18.8l2.2,18.7l1.7,18.8l0.9,18.6l-16.1,1.2l-2.4-18.6l-0.6-18.9l-1.7-18.8l-0.4-18.9L401.1,143.9z"/>
				<path class="st4" d="M401.1,143.9l-15.2,0.9l-15.2,1.8l-0.5-14.7l18.8-0.7l18.9-3.1l19-0.7l18.6-0.6l1.7,14.2l-15,1.9l-14.4,0.5
					l0.2,18.5l0.9,18.8l2.2,18.7l1.7,18.8l0.9,18.6l-16.1,1.2l-2.4-18.6l-0.6-18.9l-1.7-18.8l-0.4-18.9L401.1,143.9z"/>
			</g>
		</g>
	</g>
	<g>
		<g>
			<g>
				<path class="st5" d="M1053.6,135.6l16.6-11.9l20-3.2l19.5,6.8l11.2,17.1l2.2,17.6l-1,18.2l-2.1,18.2l-7.7,16.3l-15.6,12.4
					l-19.9,3.5l-18.4-8.3l-12.7-15.5L1044,189l1.9-18.1l2.7-18L1053.6,135.6z M1063.6,204l15.2,10.7l17.7-6.3l6-14.3l4.1-15.6
					l1.5-16l-4-15.4l-15.8-9.5l-18.3,4.8l-6.9,14.7l-1.5,16l-2.5,15.9L1063.6,204z"/>
				<path class="st4" d="M1053.6,135.6l16.6-11.9l20-3.2l19.5,6.8l11.2,17.1l2.2,17.6l-1,18.2l-2.1,18.2l-7.7,16.3l-15.6,12.4
					l-19.9,3.5l-18.4-8.3l-12.7-15.5L1044,189l1.9-18.1l2.7-18L1053.6,135.6z M1063.6,204l15.2,10.7l17.7-6.3l6-14.3l4.1-15.6
					l1.5-16l-4-15.4l-15.8-9.5l-18.3,4.8l-6.9,14.7l-1.5,16l-2.5,15.9L1063.6,204z"/>
			</g>
			<g>
				<path class="st5" d="M1148.4,129.1l15.5,0.7l7,17.3l9.1,16l7.6,16.7l7.2,16.9l7.5,16.8v-0.4l3-19.1l2.4-19.2l1.7-19.3l2.7-19.5
					l17,2.3l-2.8,18.1l-1.6,18.1l-3.2,17.9l-2,18l-1.5,18.1l-1.6,18.6l-16.2-2.3l-8.4-16.4l-7.2-16.9l-7.9-16.5l-7.3-16.9l-8.2-16.4
					l-1.2,0.1l-2.2,19.2l-2.6,19.2l-1.7,19.3l-1.9,19.7l-17-2.4l3-18.1l1.8-18.1l2-18l2.8-18l0.7-18.2L1148.4,129.1z"/>
				<path class="st4" d="M1148.4,129.1l15.5,0.7l7,17.3l9.1,16l7.6,16.7l7.2,16.9l7.5,16.8v-0.4l3-19.1l2.4-19.2l1.7-19.3l2.7-19.5
					l17,2.3l-2.8,18.1l-1.6,18.1l-3.2,17.9l-2,18l-1.5,18.1l-1.6,18.6l-16.2-2.3l-8.4-16.4l-7.2-16.9l-7.9-16.5l-7.3-16.9l-8.2-16.4
					l-1.2,0.1l-2.2,19.2l-2.6,19.2l-1.7,19.3l-1.9,19.7l-17-2.4l3-18.1l1.8-18.1l2-18l2.8-18l0.7-18.2L1148.4,129.1z"/>
			</g>
			<g>
				<path class="st3" d="M1251.5,141l17.4,3.4l17.4,0.7l17.2,3.1l17.6,1.4l-1.9,16.1l-17.8-2.2l-17.6-1.9l-17.3-2.4l-2.9,15
					l-1.2,15.6l15.1,2.2l15.1,0.9l15.5,1.9l-1.9,15.6l-15.5-1.9l-15-1.6l-15.4-3.2l-0.9,16.6l-2.5,15.9l17.8,1.2l17.5,3l17.9,1.8
					l-1.7,16.5l-17.8-2.7l-17.3-1.9L1256,252l-17.9-2l3.3-18.4l2.1-18l2.6-18l0.7-18.2l3.8-17.8L1251.5,141z"/>
				<path class="st4" d="M1251.5,141l17.4,3.4l17.4,0.7l17.2,3.1l17.6,1.4l-1.9,16.1l-17.8-2.2l-17.6-1.9l-17.3-2.4l-2.9,15
					l-1.2,15.6l15.1,2.2l15.1,0.9l15.5,1.9l-1.9,15.6l-15.5-1.9l-15-1.6l-15.4-3.2l-0.9,16.6l-2.5,15.9l17.8,1.2l17.5,3l17.9,1.8
					l-1.7,16.5l-17.8-2.7l-17.3-1.9L1256,252l-17.9-2l3.3-18.4l2.1-18l2.6-18l0.7-18.2l3.8-17.8L1251.5,141z"/>
			</g>
		</g>
	</g>
	<g>
		<g>
			<g>
				<polygon id="SVGID_2_" class="st0" points="284.4,-289 497.9,-75 -21,-109 164,548 208.5,565.5 805.4,233.3 1137.1,565.8 
					1182.7,554.3 1402.8,-46.1 				"/>
			</g>
			<g>
				<g>
					<g>
						<defs>
							<polygon id="SVGID_3_" points="284.4,-289 497.9,-75 -21,-109 164,548 208.5,565.5 805.4,233.3 1137.1,565.8 1182.7,554.3 
								1402.8,-46.1 							"/>
						</defs>
						<clipPath id="SVGID_4_">
							<use xlink:href="#SVGID_3_"  style="overflow:visible;"/>
						</clipPath>
						<polygon class="st6" points="284.4,-289 497.9,-75 -21,-109 164,548 208.5,565.5 805.4,233.3 1137.1,565.8 1182.7,554.3 
							1402.8,-46.1 						"/>
					</g>
				</g>
			</g>
		</g>
		<path class="st7" d="M517.4,100.8l16.2-1.6l1.5,18.1l1.6,18.1l0.7,18.2l2.6,18l0.3,18.2l2.5,18.3L526,209l-0.8-18l-2.1-18
			l-0.7-18.2l-2.9-18l-0.4-18.2L517.4,100.8z"/>
		<path class="st7" d="M575.6,110.9l-14.4,0.9l-14.6,0.7l-1.9-14.8l19.5-0.9l19-1.2l18.9-2.5l19.2-1.3l0.3,14.5l-14.2,2.3l-14.5,0.9
			l1.4,18.5l1.5,18.8l2.2,18.7l1.1,18.8l1,18.9L584,204l-1.5-18.4l-2.3-18.7l-0.4-18.9l-3.3-18.6L575.6,110.9z"/>
		<path class="st7" d="M704.7,76.3l16.3,0.8l-0.3,18.6l-2,18.6l-0.4,18.7l-1.6,18.6l-1.1,18.9l17.9,1.6l17.8-0.7l18.3,1.1l-1.2,16.7
			l-17.7-1.2l-17.3-1.5l-17.4-0.9l-18-0.2l2.3-18.6l-0.2-18.2l0.8-18.1l2.1-18.1l0.9-18.1L704.7,76.3z"/>
		<path class="st7" d="M789.2,80.6l16.3,1.6l-0.8,17.7l-1.5,18.1l-0.7,18.1l-0.5,18.2l-1.8,18.1l-0.6,17.9l-16.8-0.1l0.8-18.7
			l2.6-18l0.2-18.2l1.3-18.1l0.8-18.1L789.2,80.6z"/>
		<path class="st7" d="M828.7,82.9l17.3,0.6l-2.1,19.2v18.7l-2.3,18.6l0.5-0.4l12.2-13.2l12.5-12.9l12.1-13.3l11.2-14.6l19.8,1.9
			l-11.7,14.2l-12.4,13.7l-13.9,12.9l10.1,16.8l8.7,17l8.5,17.1l8.6,17.5l-20.2-1l-9.1-18.4l-7.8-18.8l-9.2-18.8l-10.9,9.8
			l-8.9,10.2l-1.4,16.3l-0.9,17l-17.3-1l1.5-18.5l0.7-18.1l2.1-18.1l-0.6-18.2l2.1-18.1L828.7,82.9z"/>
		<path class="st7" d="M925.4,88.8l17,1.2l17.4,1l17.4,1l18-0.1l-1.7,16l-17.5-1.2l-17.7,0.4l-18-2.4l-1,16l-0.3,15.5l15,1.7
			l15.1-0.3l15.1,1.2l-1.4,14.2l-14.6,0.1l-15-1.3l-15.3-1l-0.5,16.2l-1,15.9l17.6,1.7l17.7-0.3l17.8,1.5l-1.6,15l-16.8-0.3
			l-17.4-0.3l-17.4-1.4l-17.9-0.8l2.2-18.6l-0.4-18.2l2.6-18V125l2.3-18.1L925.4,88.8z"/>
		<path class="st7" d="M124.4,137.1l20.9-1.9l21.3-0.5l22.7,4.5l11.9,22.7l-4.1,18.7l-14.4,12.9l10,15.2l9.4,15.5l9.6,15.8
			l-20.1,1.9l-7.7-15.9l-9.9-14.2l-8.1-14.8l-21.2,0.5l1.2,15.9l1.8,15.4l0.7,15.5l-15.9,0.6l-2-17.5l-1.1-18.1l-0.8-18.1l-1.1-18.1
			l-1.4-18.1L124.4,137.1z M143.9,183.6l25.1-2.2l13.5-4.7L186,163l-5.9-12.4l-12.6-2.5l-25.8,2.2l1.7,16.6L143.9,183.6z"/>
		<path class="st7" d="M217.2,130.1l17.5-0.2l17.4-1.3l17.3-2.4l17.2-0.7l0.8,14.7l-17.1,1.9l-17.7,1.2l-17.2,1.7l1.5,15l0.8,15.1
			l14.7-0.2l15-1.9l15.1-0.7l1.3,14.9l-15.2,1.9l-15.1,1l-14.4,0.8v15.4l1,16.7l18.3-1.5l17.6-2.4l18.2-1.4l1,16.7l-17.7,1.4
			l-17.4,0.8l-17.3,1.7l-17.6,0.9l-0.7-18.4l-1.2-18.1l-2.5-18l-0.9-18.1l-1.4-18.1L217.2,130.1z"/>
		<path class="st7" d="M363.6,204.8l-20.4,0.2l-20.4,2.6l-7.1,24.4l-16.8,1.5l4.4-18.6l5.6-18.5l4.8-18.7l6.7-18.2l5.2-18.6l4.5-19
			l14.4-1.2l8.1,17.9l7,18l7.4,17.9l9.5,16.9l7,18l8.2,17.7l-17.4,0.8L363.6,204.8z M357.7,189.9l-5.1-15.6l-7.4-15l-5.7-15.7
			l-1,0.2l-3.2,16.4l-4.4,16.1l-3.8,15.6h15.2L357.7,189.9z"/>
		<path class="st7" d="M403.7,131.2l-15.2,0.9l-15.2,1.8l-0.5-14.7l18.8-0.7l18.9-3.1l19-0.7l18.6-0.6l1.7,14.2l-15,1.9l-14.4,0.5
			l0.2,18.5l0.9,18.8l2.2,18.7l1.7,18.8l0.9,18.6l-16.1,1.2l-2.4-18.6l-0.6-18.9l-1.7-18.8l-0.4-18.9L403.7,131.2z"/>
		<path class="st7" d="M1056.2,122.9l16.6-11.9l20-3.2l19.5,6.8l11.2,17.1l2.2,17.6l-1,18.2l-2.1,18.2l-7.7,16.3l-15.6,12.4
			l-19.9,3.5l-18.4-8.3l-12.7-15.5l-1.7-17.8l1.9-18.1l2.7-18L1056.2,122.9z M1066.2,191.3l15.2,10.7l17.7-6.3l6-14.3l4.1-15.6
			l1.5-16l-4-15.4l-15.8-9.5l-18.3,4.8l-6.9,14.7l-1.5,16l-2.5,15.9L1066.2,191.3z"/>
		<path class="st7" d="M1151,116.4l15.5,0.7l7,17.3l9.1,16l7.6,16.7l7.2,16.9l7.5,16.8v-0.4l3-19.1l2.4-19.2l1.7-19.3l2.7-19.5
			l17,2.3l-2.8,18.1l-1.6,18.1l-3.2,17.9l-2,18l-1.5,18.1l-1.6,18.6l-16.2-2.3l-8.4-16.4l-7.2-16.9l-7.9-16.5l-7.3-16.9l-8.2-16.4
			l-1.2,0.1l-2.2,19.2l-2.6,19.2l-1.7,19.3l-1.9,19.7l-17-2.4l3-18.1l1.8-18.1l2-18l2.8-18l0.7-18.2L1151,116.4z"/>
		<g>
			<g>
				<g>
					<g>
						<defs>
							<polygon id="SVGID_6_" points="284.4,-289 497.9,-75 -21,-109 164,548 208.5,565.5 805.4,233.3 1137.1,565.8 1182.7,554.3 
								1402.8,-46.1 							"/>
						</defs>
						<clipPath id="SVGID_7_">
							<use xlink:href="#SVGID_6_"  style="overflow:visible;"/>
						</clipPath>
						<g class="st8">
							<g>
								<g>
									<path class="st1" d="M514.8,113.5l16.2-1.6l1.5,18.1l1.6,18.1l0.7,18.2l2.6,18l0.3,18.2l2.5,18.3l-16.7,0.9l-0.8-18
										l-2.1-18l-0.7-18.2l-2.9-18l-0.4-18.2L514.8,113.5z"/>
									<path class="st4" d="M514.8,113.5l16.2-1.6l1.5,18.1l1.6,18.1l0.7,18.2l2.6,18l0.3,18.2l2.5,18.3l-16.7,0.9l-0.8-18
										l-2.1-18l-0.7-18.2l-2.9-18l-0.4-18.2L514.8,113.5z"/>
								</g>
								<g>
									<path class="st1" d="M573,123.6l-14.4,0.9l-14.6,0.7l-1.9-14.8l19.5-0.9l19-1.2l18.9-2.5l19.2-1.3L619,119l-14.2,2.3
										l-14.5,0.9l1.4,18.5l1.5,18.8l2.2,18.7l1.1,18.8l1,18.9l-16.1,0.8l-1.5-18.4l-2.3-18.7l-0.4-18.9l-3.3-18.6L573,123.6z"/>
									<path class="st4" d="M573,123.6l-14.4,0.9l-14.6,0.7l-1.9-14.8l19.5-0.9l19-1.2l18.9-2.5l19.2-1.3L619,119l-14.2,2.3
										l-14.5,0.9l1.4,18.5l1.5,18.8l2.2,18.7l1.1,18.8l1,18.9l-16.1,0.8l-1.5-18.4l-2.3-18.7l-0.4-18.9l-3.3-18.6L573,123.6z"/>
								</g>
							</g>
						</g>
					</g>
				</g>
			</g>
		</g>
		<g>
			<g>
				<g>
					<g>
						<defs>
							<polygon id="SVGID_8_" points="284.4,-289 497.9,-75 -21,-109 164,548 208.5,565.5 805.4,233.3 1137.1,565.8 1182.7,554.3 
								1402.8,-46.1 							"/>
						</defs>
						<clipPath id="SVGID_9_">
							<use xlink:href="#SVGID_8_"  style="overflow:visible;"/>
						</clipPath>
						<g class="st9">
							<g>
								<g>
									<path class="st1" d="M702.1,89l16.3,0.8l-0.3,18.6l-2,18.6l-0.4,18.7l-1.6,18.6l-1.1,18.9l17.9,1.6l17.8-0.7l18.3,1.1
										l-1.2,16.7l-17.7-1.2l-17.3-1.5l-17.4-0.9l-18-0.2l2.3-18.6l-0.2-18.2l0.8-18.1l2.1-18.1l0.9-18.1L702.1,89z"/>
									<path class="st4" d="M702.1,89l16.3,0.8l-0.3,18.6l-2,18.6l-0.4,18.7l-1.6,18.6l-1.1,18.9l17.9,1.6l17.8-0.7l18.3,1.1
										l-1.2,16.7l-17.7-1.2l-17.3-1.5l-17.4-0.9l-18-0.2l2.3-18.6l-0.2-18.2l0.8-18.1l2.1-18.1l0.9-18.1L702.1,89z"/>
								</g>
								<g>
									<path class="st1" d="M786.6,93.3l16.3,1.6l-0.8,17.7l-1.5,18.1l-0.7,18.1l-0.5,18.2l-1.8,18.1L797,203l-16.8-0.1l0.8-18.7
										l2.6-18l0.2-18.2l1.3-18.1l0.8-18.1L786.6,93.3z"/>
									<path class="st4" d="M786.6,93.3l16.3,1.6l-0.8,17.7l-1.5,18.1l-0.7,18.1l-0.5,18.2l-1.8,18.1L797,203l-16.8-0.1l0.8-18.7
										l2.6-18l0.2-18.2l1.3-18.1l0.8-18.1L786.6,93.3z"/>
								</g>
								<g>
									<path class="st1" d="M826.1,95.6l17.3,0.6l-2.1,19.2v18.7l-2.3,18.6l0.5-0.4l12.2-13.2l12.5-12.9l12.1-13.3l11.2-14.6
										l19.8,1.9l-11.7,14.2l-12.4,13.7L869.3,141l10.1,16.8l8.7,17l8.5,17.1l8.6,17.5l-20.2-1l-9.1-18.4l-7.8-18.8l-9.2-18.8
										l-10.9,9.8l-8.9,10.2l-1.4,16.3l-0.9,17l-17.3-1l1.5-18.5l0.7-18.1l2.1-18.1l-0.6-18.2l2.1-18.1L826.1,95.6z"/>
									<path class="st4" d="M826.1,95.6l17.3,0.6l-2.1,19.2v18.7l-2.3,18.6l0.5-0.4l12.2-13.2l12.5-12.9l12.1-13.3l11.2-14.6
										l19.8,1.9l-11.7,14.2l-12.4,13.7L869.3,141l10.1,16.8l8.7,17l8.5,17.1l8.6,17.5l-20.2-1l-9.1-18.4l-7.8-18.8l-9.2-18.8
										l-10.9,9.8l-8.9,10.2l-1.4,16.3l-0.9,17l-17.3-1l1.5-18.5l0.7-18.1l2.1-18.1l-0.6-18.2l2.1-18.1L826.1,95.6z"/>
								</g>
								<g>
									<path class="st1" d="M922.8,101.5l17,1.2l17.4,1l17.4,1l18-0.1l-1.7,16l-17.5-1.2l-17.7,0.4l-18-2.4l-1,16l-0.3,15.5
										l15,1.7l15.1-0.3l15.1,1.2l-1.4,14.2l-14.6,0.1l-15-1.3l-15.3-1l-0.5,16.2l-1,15.9l17.6,1.7l17.7-0.3l17.8,1.5l-1.6,15
										l-16.8-0.3l-17.4-0.3l-17.4-1.4l-17.9-0.8l2.2-18.6l-0.4-18.2l2.6-18v-18.2l2.3-18.1L922.8,101.5z"/>
									<path class="st4" d="M922.8,101.5l17,1.2l17.4,1l17.4,1l18-0.1l-1.7,16l-17.5-1.2l-17.7,0.4l-18-2.4l-1,16l-0.3,15.5
										l15,1.7l15.1-0.3l15.1,1.2l-1.4,14.2l-14.6,0.1l-15-1.3l-15.3-1l-0.5,16.2l-1,15.9l17.6,1.7l17.7-0.3l17.8,1.5l-1.6,15
										l-16.8-0.3l-17.4-0.3l-17.4-1.4l-17.9-0.8l2.2-18.6l-0.4-18.2l2.6-18v-18.2l2.3-18.1L922.8,101.5z"/>
								</g>
							</g>
						</g>
					</g>
				</g>
			</g>
		</g>
		<g>
			<g>
				<g>
					<g>
						<defs>
							<polygon id="SVGID_10_" points="284.4,-289 497.9,-75 -21,-109 164,548 208.5,565.5 805.4,233.3 1137.1,565.8 1182.7,554.3 
								1402.8,-46.1 							"/>
						</defs>
						<clipPath id="SVGID_11_">
							<use xlink:href="#SVGID_10_"  style="overflow:visible;"/>
						</clipPath>
						<g class="st10">
							<g>
								<g>
									<path class="st7" d="M67.1,161.9H52.7l-14.6,1.3l-1-14.1l18.7-2.6l19-1.1l19-1.5l18.8-0.1l0.7,13.7L99,158.8l-15.4,1.1
										l1.5,19.2l0.9,18.8l1.9,18.8l2.2,18.7l0.7,18.7l-16.4,1.4l-0.6-18.9l-2.9-18.7L70.5,199l-2.3-18.7L67.1,161.9z"/>
									<path class="st7" d="M67.1,161.9H52.7l-14.6,1.3l-1-14.1l18.7-2.6l19-1.1l19-1.5l18.8-0.1l0.7,13.7L99,158.8l-15.4,1.1
										l1.5,19.2l0.9,18.8l1.9,18.8l2.2,18.7l0.7,18.7l-16.4,1.4l-0.6-18.9l-2.9-18.7L70.5,199l-2.3-18.7L67.1,161.9z"/>
								</g>
								<g>
									<path class="st1" d="M64.2,168.8H49.8l-14.6,1.3l-1-14.1l18.7-2.6l19-1.1l19-1.5l18.8-0.1l0.7,13.7l-14.3,1.3l-15.4,1.1
										l1.5,19.2l0.9,18.8l1.9,18.8l2.2,18.7l0.7,18.7l-16.4,1.4l-0.6-18.9L68,224.8l-0.4-18.9l-2.3-18.7L64.2,168.8z"/>
									<path class="st4" d="M64.2,168.8H49.8l-14.6,1.3l-1-14.1l18.7-2.6l19-1.1l19-1.5l18.8-0.1l0.7,13.7l-14.3,1.3l-15.4,1.1
										l1.5,19.2l0.9,18.8l1.9,18.8l2.2,18.7l0.7,18.7l-16.4,1.4l-0.6-18.9L68,224.8l-0.4-18.9l-2.3-18.7L64.2,168.8z"/>
								</g>
								<g>
									<path class="st11" d="M121.8,149.8l20.9-1.9l21.3-0.5l22.7,4.5l11.9,22.7l-4.1,18.7l-14.4,12.9l10,15.2l9.4,15.5l9.6,15.8
										l-20.1,1.9l-7.7-15.9l-9.9-14.2l-8.1-14.8l-21.2,0.5l1.2,15.9l1.8,15.4l0.7,15.5l-15.9,0.6l-2-17.5l-1.1-18.1l-0.8-18.1
										l-1.1-18.1l-1.4-18.1L121.8,149.8z M141.3,196.3l25.1-2.2l13.5-4.7l3.5-13.7l-5.9-12.4l-12.6-2.5l-25.8,2.2l1.7,16.6
										L141.3,196.3z"/>
									<path class="st2" d="M121.8,149.8l20.9-1.9l21.3-0.5l22.7,4.5l11.9,22.7l-4.1,18.7l-14.4,12.9l10,15.2l9.4,15.5l9.6,15.8
										l-20.1,1.9l-7.7-15.9l-9.9-14.2l-8.1-14.8l-21.2,0.5l1.2,15.9l1.8,15.4l0.7,15.5l-15.9,0.6l-2-17.5l-1.1-18.1l-0.8-18.1
										l-1.1-18.1l-1.4-18.1L121.8,149.8z M141.3,196.3l25.1-2.2l13.5-4.7l3.5-13.7l-5.9-12.4l-12.6-2.5l-25.8,2.2l1.7,16.6
										L141.3,196.3z"/>
								</g>
								<g>
									<path class="st1" d="M214.6,142.8l17.5-0.2l17.4-1.3l17.3-2.4l17.2-0.7l0.8,14.7l-17.1,1.9L250,156l-17.2,1.7l1.5,15
										l0.8,15.1l14.7-0.2l15-1.9l15.1-0.7l1.3,14.9l-15.2,1.9l-15.1,1l-14.4,0.8V219l1,16.7l18.3-1.5l17.6-2.4l18.2-1.4l1,16.7
										l-17.7,1.4l-17.4,0.8l-17.3,1.7l-17.6,0.9l-0.7-18.4l-1.2-18.1l-2.5-18l-0.9-18.1l-1.4-18.1L214.6,142.8z"/>
									<path class="st4" d="M214.6,142.8l17.5-0.2l17.4-1.3l17.3-2.4l17.2-0.7l0.8,14.7l-17.1,1.9L250,156l-17.2,1.7l1.5,15
										l0.8,15.1l14.7-0.2l15-1.9l15.1-0.7l1.3,14.9l-15.2,1.9l-15.1,1l-14.4,0.8V219l1,16.7l18.3-1.5l17.6-2.4l18.2-1.4l1,16.7
										l-17.7,1.4l-17.4,0.8l-17.3,1.7l-17.6,0.9l-0.7-18.4l-1.2-18.1l-2.5-18l-0.9-18.1l-1.4-18.1L214.6,142.8z"/>
								</g>
								<g>
									<path class="st1" d="M361,217.5l-20.4,0.2l-20.4,2.6l-7.1,24.4l-16.8,1.5l4.4-18.6l5.6-18.5l4.8-18.7l6.7-18.2l5.2-18.6
										l4.5-19l14.4-1.2l8.1,17.9l7,18l7.4,17.9l9.5,16.9l7,18l8.2,17.7l-17.4,0.8L361,217.5z M355.1,202.6L350,187l-7.4-15
										l-5.7-15.7l-1,0.2l-3.2,16.4l-4.4,16.1l-3.8,15.6h15.2L355.1,202.6z"/>
									<path class="st4" d="M361,217.5l-20.4,0.2l-20.4,2.6l-7.1,24.4l-16.8,1.5l4.4-18.6l5.6-18.5l4.8-18.7l6.7-18.2l5.2-18.6
										l4.5-19l14.4-1.2l8.1,17.9l7,18l7.4,17.9l9.5,16.9l7,18l8.2,17.7l-17.4,0.8L361,217.5z M355.1,202.6L350,187l-7.4-15
										l-5.7-15.7l-1,0.2l-3.2,16.4l-4.4,16.1l-3.8,15.6h15.2L355.1,202.6z"/>
								</g>
								<g>
									<path class="st1" d="M401.1,143.9l-15.2,0.9l-15.2,1.8l-0.5-14.7l18.8-0.7l18.9-3.1l19-0.7l18.6-0.6l1.7,14.2l-15,1.9
										l-14.4,0.5l0.2,18.5l0.9,18.8l2.2,18.7l1.7,18.8l0.9,18.6l-16.1,1.2l-2.4-18.6l-0.6-18.9l-1.7-18.8l-0.4-18.9L401.1,143.9z
										"/>
									<path class="st4" d="M401.1,143.9l-15.2,0.9l-15.2,1.8l-0.5-14.7l18.8-0.7l18.9-3.1l19-0.7l18.6-0.6l1.7,14.2l-15,1.9
										l-14.4,0.5l0.2,18.5l0.9,18.8l2.2,18.7l1.7,18.8l0.9,18.6l-16.1,1.2l-2.4-18.6l-0.6-18.9l-1.7-18.8l-0.4-18.9L401.1,143.9z
										"/>
								</g>
							</g>
						</g>
					</g>
				</g>
			</g>
		</g>
		<g>
			<g>
				<g>
					<g>
						<defs>
							<polygon id="SVGID_12_" points="284.4,-289 497.9,-75 -21,-109 164,548 208.5,565.5 805.4,233.3 1137.1,565.8 1182.7,554.3 
								1402.8,-46.1 							"/>
						</defs>
						<clipPath id="SVGID_13_">
							<use xlink:href="#SVGID_12_"  style="overflow:visible;"/>
						</clipPath>
						<g class="st12">
							<g>
								<g>
									<path class="st1" d="M1053.6,135.6l16.6-11.9l20-3.2l19.5,6.8l11.2,17.1l2.2,17.6l-1,18.2l-2.1,18.2l-7.7,16.3l-15.6,12.4
										l-19.9,3.5l-18.4-8.3l-12.7-15.5L1044,189l1.9-18.1l2.7-18L1053.6,135.6z M1063.6,204l15.2,10.7l17.7-6.3l6-14.3l4.1-15.6
										l1.5-16l-4-15.4l-15.8-9.5l-18.3,4.8l-6.9,14.7l-1.5,16l-2.5,15.9L1063.6,204z"/>
									<path class="st4" d="M1053.6,135.6l16.6-11.9l20-3.2l19.5,6.8l11.2,17.1l2.2,17.6l-1,18.2l-2.1,18.2l-7.7,16.3l-15.6,12.4
										l-19.9,3.5l-18.4-8.3l-12.7-15.5L1044,189l1.9-18.1l2.7-18L1053.6,135.6z M1063.6,204l15.2,10.7l17.7-6.3l6-14.3l4.1-15.6
										l1.5-16l-4-15.4l-15.8-9.5l-18.3,4.8l-6.9,14.7l-1.5,16l-2.5,15.9L1063.6,204z"/>
								</g>
								<g>
									<path class="st1" d="M1148.4,129.1l15.5,0.7l7,17.3l9.1,16l7.6,16.7l7.2,16.9l7.5,16.8v-0.4l3-19.1l2.4-19.2l1.7-19.3
										l2.7-19.5l17,2.3l-2.8,18.1l-1.6,18.1l-3.2,17.9l-2,18l-1.5,18.1l-1.6,18.6l-16.2-2.3l-8.4-16.4l-7.2-16.9l-7.9-16.5
										l-7.3-16.9l-8.2-16.4l-1.2,0.1l-2.2,19.2l-2.6,19.2l-1.7,19.3l-1.9,19.7l-17-2.4l3-18.1l1.8-18.1l2-18l2.8-18l0.7-18.2
										L1148.4,129.1z"/>
									<path class="st4" d="M1148.4,129.1l15.5,0.7l7,17.3l9.1,16l7.6,16.7l7.2,16.9l7.5,16.8v-0.4l3-19.1l2.4-19.2l1.7-19.3
										l2.7-19.5l17,2.3l-2.8,18.1l-1.6,18.1l-3.2,17.9l-2,18l-1.5,18.1l-1.6,18.6l-16.2-2.3l-8.4-16.4l-7.2-16.9l-7.9-16.5
										l-7.3-16.9l-8.2-16.4l-1.2,0.1l-2.2,19.2l-2.6,19.2l-1.7,19.3l-1.9,19.7l-17-2.4l3-18.1l1.8-18.1l2-18l2.8-18l0.7-18.2
										L1148.4,129.1z"/>
								</g>
								<g>
									<path class="st7" d="M1254.3,132.1l17.4,3.4l17.4,0.7l17.2,3.1l17.6,1.4l-1.9,16.1l-17.8-2.2l-17.6-1.9l-17.3-2.4l-2.9,15
										l-1.2,15.6l15.1,2.2l15.1,0.9l15.5,1.9l-1.9,15.6l-15.5-1.9l-15-1.6l-15.4-3.2l-0.9,16.6l-2.5,15.9l17.8,1.2l17.5,3
										l17.9,1.8l-1.7,16.5l-17.8-2.7l-17.3-1.9l-17.3-2.1l-17.9-2l3.3-18.4l2.1-18l2.6-18l0.7-18.2l3.8-17.8L1254.3,132.1z"/>
									<path class="st7" d="M1254.3,132.1l17.4,3.4l17.4,0.7l17.2,3.1l17.6,1.4l-1.9,16.1l-17.8-2.2l-17.6-1.9l-17.3-2.4l-2.9,15
										l-1.2,15.6l15.1,2.2l15.1,0.9l15.5,1.9l-1.9,15.6l-15.5-1.9l-15-1.6l-15.4-3.2l-0.9,16.6l-2.5,15.9l17.8,1.2l17.5,3
										l17.9,1.8l-1.7,16.5l-17.8-2.7l-17.3-1.9l-17.3-2.1l-17.9-2l3.3-18.4l2.1-18l2.6-18l0.7-18.2l3.8-17.8L1254.3,132.1z"/>
								</g>
								<g>
									<path class="st1" d="M1251.5,141l17.4,3.4l17.4,0.7l17.2,3.1l17.6,1.4l-1.9,16.1l-17.8-2.2l-17.6-1.9l-17.3-2.4l-2.9,15
										l-1.2,15.6l15.1,2.2l15.1,0.9l15.5,1.9l-1.9,15.6l-15.5-1.9l-15-1.6l-15.4-3.2l-0.9,16.6l-2.5,15.9l17.8,1.2l17.5,3
										l17.9,1.8l-1.7,16.5l-17.8-2.7l-17.3-1.9L1256,252l-17.9-2l3.3-18.4l2.1-18l2.6-18l0.7-18.2l3.8-17.8L1251.5,141z"/>
									<path class="st4" d="M1251.5,141l17.4,3.4l17.4,0.7l17.2,3.1l17.6,1.4l-1.9,16.1l-17.8-2.2l-17.6-1.9l-17.3-2.4l-2.9,15
										l-1.2,15.6l15.1,2.2l15.1,0.9l15.5,1.9l-1.9,15.6l-15.5-1.9l-15-1.6l-15.4-3.2l-0.9,16.6l-2.5,15.9l17.8,1.2l17.5,3
										l17.9,1.8l-1.7,16.5l-17.8-2.7l-17.3-1.9L1256,252l-17.9-2l3.3-18.4l2.1-18l2.6-18l0.7-18.2l3.8-17.8L1251.5,141z"/>
								</g>
							</g>
						</g>
					</g>
				</g>
			</g>
		</g>
	</g>
</g>
<path class="st13" d="M-754.1,353.8l-0.2-0.3c-8.6-14.9-9-32.9-2-48.7c2.4-5.3,3.6-11.3,3.2-17.6c-1.1-19.5-17.2-35.1-36.7-35.7
	c-21.5-0.7-39.2,16.6-39.2,38c0,6.1,1.4,11.8,4,16.9c8,16.1,8.1,35,0,51.1l0,0l-56.9,81.9c-3.6,5.2-5.1,11.6-4.2,17.8l5.5,36.5
	c1.1,7.1,8.4,11.3,15.1,8.8l0,0l-0.7-36.9c-0.2-9.1,3.1-17.8,9.3-24.5l15.3-16.6c4-4.3,11.2-1.4,11.1,4.5l-5.2,203.1
	c-0.1,5.2,4,9.4,9.2,9.4h8.6L-797,536c0.6-3.2,3.4-5.5,6.7-5.5h14.1c3.7,0,6.9,2.6,7.7,6.2l23.6,104.8h9.9c5.4,0,9.7-4.6,9.4-10
	L-739.8,430c-0.3-3.6,4.2-5.6,6.7-2.9l15.9,17.3c6,6.5,9.2,15.1,9,23.9l-0.7,37.3l0,0c6.7,2.6,14-1.7,15.1-8.8l5.9-39.3
	c0.7-4.4-0.4-9-3-12.7L-754.1,353.8z"/>
<g>
	<rect x="-2454" y="144" class="st14" width="63" height="63"/>
	<rect x="-2391" y="144" class="st15" width="63" height="63"/>
	<rect x="-2328" y="144" class="st16" width="63" height="63"/>
	<rect x="-2265" y="144" class="st17" width="63" height="63"/>
	<rect x="-2202" y="144" class="st18" width="63" height="63"/>
	<rect x="-2139" y="144" class="st19" width="63" height="63"/>
	<rect x="-2076" y="144" class="st20" width="63" height="63"/>
	<rect x="-2013" y="144" class="st21" width="63" height="63"/>
	<rect x="-1950" y="144" class="st22" width="63" height="63"/>
</g>
<g>
	<polyline class="st4" points="-319,26 -319,-4 175.3,-4 175.3,26 	"/>
	<path class="st4" d="M174.7,26"/>
	<polyline class="st4" points="174.7,-4 669,-4 669,26 	"/>
	<path class="st4" d="M668,26"/>
	<path class="st4" d="M1162.3,26"/>
	<line class="st4" x1="668" y1="-4" x2="1162.3" y2="-4"/>
	<polyline class="st4" points="1161.7,26 1161.7,-4 1656,-4 1656,26 	"/>
	<g>
		<circle cx="-309" cy="11" r="2"/>
	</g>
	<g>
		<circle cx="166" cy="11" r="2"/>
	</g>
	<g>
		<circle cx="184" cy="11" r="2"/>
	</g>
	<g>
		<circle cx="659" cy="11" r="2"/>
	</g>
	<g>
		<circle cx="678" cy="11" r="2"/>
	</g>
	<g>
		<circle cx="1153" cy="11" r="2"/>
	</g>
	<g>
		<circle cx="1171" cy="11" r="2"/>
	</g>
	<g>
		<circle cx="1646" cy="11" r="2"/>
	</g>
</g>
<g>
	<polyline class="st4" points="-319,56 -319,26 175.3,26 175.3,56 	"/>
	<path class="st4" d="M174.7,56"/>
	<polyline class="st4" points="174.7,26 669,26 669,56 	"/>
	<path class="st4" d="M668,56"/>
	<path class="st4" d="M1162.3,56"/>
	<line class="st4" x1="668" y1="26" x2="1162.3" y2="26"/>
	<polyline class="st4" points="1161.7,56 1161.7,26 1656,26 1656,56 	"/>
	<g>
		<circle cx="-309" cy="41" r="2"/>
	</g>
	<g>
		<circle cx="166" cy="41" r="2"/>
	</g>
	<g>
		<circle cx="184" cy="41" r="2"/>
	</g>
	<g>
		<circle cx="659" cy="41" r="2"/>
	</g>
	<g>
		<circle cx="678" cy="41" r="2"/>
	</g>
	<g>
		<circle cx="1153" cy="41" r="2"/>
	</g>
	<g>
		<circle cx="1171" cy="41" r="2"/>
	</g>
	<g>
		<circle cx="1646" cy="41" r="2"/>
	</g>
</g>
<g>
	<polyline class="st4" points="-319,86 -319,56 175.3,56 175.3,86 	"/>
	<path class="st4" d="M174.7,86"/>
	<polyline class="st4" points="174.7,56 669,56 669,86 	"/>
	<path class="st4" d="M668,86"/>
	<path class="st4" d="M1162.3,86"/>
	<line class="st4" x1="668" y1="56" x2="1162.3" y2="56"/>
	<polyline class="st4" points="1161.7,86 1161.7,56 1656,56 1656,86 	"/>
	<g>
		<circle cx="-309" cy="71" r="2"/>
	</g>
	<g>
		<circle cx="166" cy="71" r="2"/>
	</g>
	<g>
		<circle cx="184" cy="71" r="2"/>
	</g>
	<g>
		<circle cx="659" cy="71" r="2"/>
	</g>
	<g>
		<circle cx="678" cy="71" r="2"/>
	</g>
	<g>
		<circle cx="1153" cy="71" r="2"/>
	</g>
	<g>
		<circle cx="1171" cy="71" r="2"/>
	</g>
	<g>
		<circle cx="1646" cy="71" r="2"/>
	</g>
</g>
<g>
	<polyline class="st4" points="-319,116 -319,86 175.3,86 175.3,116 	"/>
	<path class="st4" d="M174.7,116"/>
	<polyline class="st4" points="174.7,86 669,86 669,116 	"/>
	<path class="st4" d="M668,116"/>
	<path class="st4" d="M1162.3,116"/>
	<line class="st4" x1="668" y1="86" x2="1162.3" y2="86"/>
	<polyline class="st4" points="1161.7,116 1161.7,86 1656,86 1656,116 	"/>
	<g>
		<circle cx="-309" cy="101" r="2"/>
	</g>
	<g>
		<circle cx="166" cy="101" r="2"/>
	</g>
	<g>
		<circle cx="184" cy="101" r="2"/>
	</g>
	<g>
		<circle cx="659" cy="101" r="2"/>
	</g>
	<g>
		<circle cx="678" cy="101" r="2"/>
	</g>
	<g>
		<circle cx="1153" cy="101" r="2"/>
	</g>
	<g>
		<circle cx="1171" cy="101" r="2"/>
	</g>
	<g>
		<circle cx="1646" cy="101" r="2"/>
	</g>
</g>
<g>
	<polyline class="st4" points="-319,146 -319,116 175.3,116 175.3,146 	"/>
	<path class="st4" d="M174.7,146"/>
	<polyline class="st4" points="174.7,116 669,116 669,146 	"/>
	<path class="st4" d="M668,146"/>
	<path class="st4" d="M1162.3,146"/>
	<line class="st4" x1="668" y1="116" x2="1162.3" y2="116"/>
	<polyline class="st4" points="1161.7,146 1161.7,116 1656,116 1656,146 	"/>
	<g>
		<circle cx="-309" cy="131" r="2"/>
	</g>
	<g>
		<circle cx="166" cy="131" r="2"/>
	</g>
	<g>
		<circle cx="184" cy="131" r="2"/>
	</g>
	<g>
		<circle cx="659" cy="131" r="2"/>
	</g>
	<g>
		<circle cx="678" cy="131" r="2"/>
	</g>
	<g>
		<circle cx="1153" cy="131" r="2"/>
	</g>
	<g>
		<circle cx="1171" cy="131" r="2"/>
	</g>
	<g>
		<circle cx="1646" cy="131" r="2"/>
	</g>
</g>
<g>
	<polyline class="st4" points="-319,176 -319,146 175.3,146 175.3,176 	"/>
	<path class="st4" d="M174.7,176"/>
	<polyline class="st4" points="174.7,146 669,146 669,176 	"/>
	<path class="st4" d="M668,176"/>
	<path class="st4" d="M1162.3,176"/>
	<line class="st4" x1="668" y1="146" x2="1162.3" y2="146"/>
	<polyline class="st4" points="1161.7,176 1161.7,146 1656,146 1656,176 	"/>
	<g>
		<circle cx="-309" cy="161" r="2"/>
	</g>
	<g>
		<circle cx="166" cy="161" r="2"/>
	</g>
	<g>
		<circle cx="184" cy="161" r="2"/>
	</g>
	<g>
		<circle cx="659" cy="161" r="2"/>
	</g>
	<g>
		<circle cx="678" cy="161" r="2"/>
	</g>
	<g>
		<circle cx="1153" cy="161" r="2"/>
	</g>
	<g>
		<circle cx="1171" cy="161" r="2"/>
	</g>
	<g>
		<circle cx="1646" cy="161" r="2"/>
	</g>
</g>
<g>
	<polyline class="st4" points="-319,206 -319,176 175.3,176 175.3,206 	"/>
	<path class="st4" d="M174.7,206"/>
	<polyline class="st4" points="174.7,176 669,176 669,206 	"/>
	<path class="st4" d="M668,206"/>
	<path class="st4" d="M1162.3,206"/>
	<line class="st4" x1="668" y1="176" x2="1162.3" y2="176"/>
	<polyline class="st4" points="1161.7,206 1161.7,176 1656,176 1656,206 	"/>
	<g>
		<circle cx="-309" cy="191" r="2"/>
	</g>
	<g>
		<circle cx="166" cy="191" r="2"/>
	</g>
	<g>
		<circle cx="184" cy="191" r="2"/>
	</g>
	<g>
		<circle cx="659" cy="191" r="2"/>
	</g>
	<g>
		<circle cx="678" cy="191" r="2"/>
	</g>
	<g>
		<circle cx="1153" cy="191" r="2"/>
	</g>
	<g>
		<circle cx="1171" cy="191" r="2"/>
	</g>
	<g>
		<circle cx="1646" cy="191" r="2"/>
	</g>
</g>
<g>
	<polyline class="st4" points="-319,236 -319,206 175.3,206 175.3,236 	"/>
	<path class="st4" d="M174.7,236"/>
	<polyline class="st4" points="174.7,206 669,206 669,236 	"/>
	<path class="st4" d="M668,236"/>
	<path class="st4" d="M1162.3,236"/>
	<line class="st4" x1="668" y1="206" x2="1162.3" y2="206"/>
	<polyline class="st4" points="1161.7,236 1161.7,206 1656,206 1656,236 	"/>
	<g>
		<circle cx="-309" cy="221" r="2"/>
	</g>
	<g>
		<circle cx="166" cy="221" r="2"/>
	</g>
	<g>
		<circle cx="184" cy="221" r="2"/>
	</g>
	<g>
		<circle cx="659" cy="221" r="2"/>
	</g>
	<g>
		<circle cx="678" cy="221" r="2"/>
	</g>
	<g>
		<circle cx="1153" cy="221" r="2"/>
	</g>
	<g>
		<circle cx="1171" cy="221" r="2"/>
	</g>
	<g>
		<circle cx="1646" cy="221" r="2"/>
	</g>
</g>
<g>
	<polyline class="st4" points="-319,266 -319,236 175.3,236 175.3,266 	"/>
	<path class="st4" d="M174.7,266"/>
	<polyline class="st4" points="174.7,236 669,236 669,266 	"/>
	<path class="st4" d="M668,266"/>
	<path class="st4" d="M1162.3,266"/>
	<line class="st4" x1="668" y1="236" x2="1162.3" y2="236"/>
	<polyline class="st4" points="1161.7,266 1161.7,236 1656,236 1656,266 	"/>
	<g>
		<circle cx="-309" cy="251" r="2"/>
	</g>
	<g>
		<circle cx="166" cy="251" r="2"/>
	</g>
	<g>
		<circle cx="184" cy="251" r="2"/>
	</g>
	<g>
		<circle cx="659" cy="251" r="2"/>
	</g>
	<g>
		<circle cx="678" cy="251" r="2"/>
	</g>
	<g>
		<circle cx="1153" cy="251" r="2"/>
	</g>
	<g>
		<circle cx="1171" cy="251" r="2"/>
	</g>
	<g>
		<circle cx="1646" cy="251" r="2"/>
	</g>
</g>
<g>
	<polyline class="st4" points="-319,296 -319,266 175.3,266 175.3,296 	"/>
	<path class="st4" d="M174.7,296"/>
	<polyline class="st4" points="174.7,266 669,266 669,296 	"/>
	<path class="st4" d="M668,296"/>
	<path class="st4" d="M1162.3,296"/>
	<line class="st4" x1="668" y1="266" x2="1162.3" y2="266"/>
	<polyline class="st4" points="1161.7,296 1161.7,266 1656,266 1656,296 	"/>
	<g>
		<circle cx="-309" cy="281" r="2"/>
	</g>
	<g>
		<circle cx="166" cy="281" r="2"/>
	</g>
	<g>
		<circle cx="184" cy="281" r="2"/>
	</g>
	<g>
		<circle cx="659" cy="281" r="2"/>
	</g>
	<g>
		<circle cx="678" cy="281" r="2"/>
	</g>
	<g>
		<circle cx="1153" cy="281" r="2"/>
	</g>
	<g>
		<circle cx="1171" cy="281" r="2"/>
	</g>
	<g>
		<circle cx="1646" cy="281" r="2"/>
	</g>
</g>
<g>
	<polyline class="st4" points="-319,326 -319,296 175.3,296 175.3,326 	"/>
	<path class="st4" d="M174.7,326"/>
	<polyline class="st4" points="174.7,296 669,296 669,326 	"/>
	<path class="st4" d="M668,326"/>
	<path class="st4" d="M1162.3,326"/>
	<line class="st4" x1="668" y1="296" x2="1162.3" y2="296"/>
	<polyline class="st4" points="1161.7,326 1161.7,296 1656,296 1656,326 	"/>
	<g>
		<circle cx="-309" cy="311" r="2"/>
	</g>
	<g>
		<circle cx="166" cy="311" r="2"/>
	</g>
	<g>
		<circle cx="184" cy="311" r="2"/>
	</g>
	<g>
		<circle cx="659" cy="311" r="2"/>
	</g>
	<g>
		<circle cx="678" cy="311" r="2"/>
	</g>
	<g>
		<circle cx="1153" cy="311" r="2"/>
	</g>
	<g>
		<circle cx="1171" cy="311" r="2"/>
	</g>
	<g>
		<circle cx="1646" cy="311" r="2"/>
	</g>
</g>
<g>
	<polyline class="st4" points="-319,356 -319,326 175.3,326 175.3,356 	"/>
	<path class="st4" d="M174.7,356"/>
	<polyline class="st4" points="174.7,326 669,326 669,356 	"/>
	<path class="st4" d="M668,356"/>
	<path class="st4" d="M1162.3,356"/>
	<line class="st4" x1="668" y1="326" x2="1162.3" y2="326"/>
	<polyline class="st4" points="1161.7,356 1161.7,326 1656,326 1656,356 	"/>
	<g>
		<circle cx="-309" cy="341" r="2"/>
	</g>
	<g>
		<circle cx="166" cy="341" r="2"/>
	</g>
	<g>
		<circle cx="184" cy="341" r="2"/>
	</g>
	<g>
		<circle cx="659" cy="341" r="2"/>
	</g>
	<g>
		<circle cx="678" cy="341" r="2"/>
	</g>
	<g>
		<circle cx="1153" cy="341" r="2"/>
	</g>
	<g>
		<circle cx="1171" cy="341" r="2"/>
	</g>
	<g>
		<circle cx="1646" cy="341" r="2"/>
	</g>
</g>
<g>
	<polyline class="st4" points="-319,386 -319,356 175.3,356 175.3,386 	"/>
	<path class="st4" d="M174.7,386"/>
	<polyline class="st4" points="174.7,356 669,356 669,386 	"/>
	<path class="st4" d="M668,386"/>
	<path class="st4" d="M1162.3,386"/>
	<line class="st4" x1="668" y1="356" x2="1162.3" y2="356"/>
	<polyline class="st4" points="1161.7,386 1161.7,356 1656,356 1656,386 	"/>
	<g>
		<circle cx="-309" cy="371" r="2"/>
	</g>
	<g>
		<circle cx="166" cy="371" r="2"/>
	</g>
	<g>
		<circle cx="184" cy="371" r="2"/>
	</g>
	<g>
		<circle cx="659" cy="371" r="2"/>
	</g>
	<g>
		<circle cx="678" cy="371" r="2"/>
	</g>
	<g>
		<circle cx="1153" cy="371" r="2"/>
	</g>
	<g>
		<circle cx="1171" cy="371" r="2"/>
	</g>
	<g>
		<circle cx="1646" cy="371" r="2"/>
	</g>
</g>
<g>
	<polyline class="st4" points="-319,416 -319,386 175.3,386 175.3,416 	"/>
	<path class="st4" d="M174.7,416"/>
	<polyline class="st4" points="174.7,386 669,386 669,416 	"/>
	<path class="st4" d="M668,416"/>
	<path class="st4" d="M1162.3,416"/>
	<line class="st4" x1="668" y1="386" x2="1162.3" y2="386"/>
	<polyline class="st4" points="1161.7,416 1161.7,386 1656,386 1656,416 	"/>
	<g>
		<circle cx="-309" cy="401" r="2"/>
	</g>
	<g>
		<circle cx="166" cy="401" r="2"/>
	</g>
	<g>
		<circle cx="184" cy="401" r="2"/>
	</g>
	<g>
		<circle cx="659" cy="401" r="2"/>
	</g>
	<g>
		<circle cx="678" cy="401" r="2"/>
	</g>
	<g>
		<circle cx="1153" cy="401" r="2"/>
	</g>
	<g>
		<circle cx="1171" cy="401" r="2"/>
	</g>
	<g>
		<circle cx="1646" cy="401" r="2"/>
	</g>
</g>
<g>
	<polyline class="st4" points="-319,446 -319,416 175.3,416 175.3,446 	"/>
	<path class="st4" d="M174.7,446"/>
	<polyline class="st4" points="174.7,416 669,416 669,446 	"/>
	<path class="st4" d="M668,446"/>
	<path class="st4" d="M1162.3,446"/>
	<line class="st4" x1="668" y1="416" x2="1162.3" y2="416"/>
	<polyline class="st4" points="1161.7,446 1161.7,416 1656,416 1656,446 	"/>
	<g>
		<circle cx="-309" cy="431" r="2"/>
	</g>
	<g>
		<circle cx="166" cy="431" r="2"/>
	</g>
	<g>
		<circle cx="184" cy="431" r="2"/>
	</g>
	<g>
		<circle cx="659" cy="431" r="2"/>
	</g>
	<g>
		<circle cx="678" cy="431" r="2"/>
	</g>
	<g>
		<circle cx="1153" cy="431" r="2"/>
	</g>
	<g>
		<circle cx="1171" cy="431" r="2"/>
	</g>
	<g>
		<circle cx="1646" cy="431" r="2"/>
	</g>
</g>
<g>
	<polyline class="st4" points="-319,476 -319,446 175.3,446 175.3,476 	"/>
	<path class="st4" d="M174.7,476"/>
	<polyline class="st4" points="174.7,446 669,446 669,476 	"/>
	<path class="st4" d="M668,476"/>
	<path class="st4" d="M1162.3,476"/>
	<line class="st4" x1="668" y1="446" x2="1162.3" y2="446"/>
	<polyline class="st4" points="1161.7,476 1161.7,446 1656,446 1656,476 	"/>
	<g>
		<circle cx="-309" cy="461" r="2"/>
	</g>
	<g>
		<circle cx="166" cy="461" r="2"/>
	</g>
	<g>
		<circle cx="184" cy="461" r="2"/>
	</g>
	<g>
		<circle cx="659" cy="461" r="2"/>
	</g>
	<g>
		<circle cx="678" cy="461" r="2"/>
	</g>
	<g>
		<circle cx="1153" cy="461" r="2"/>
	</g>
	<g>
		<circle cx="1171" cy="461" r="2"/>
	</g>
	<g>
		<circle cx="1646" cy="461" r="2"/>
	</g>
</g>
<g>
	<polyline class="st4" points="-319,506 -319,476 175.3,476 175.3,506 	"/>
	<path class="st4" d="M174.7,506"/>
	<polyline class="st4" points="174.7,476 669,476 669,506 	"/>
	<path class="st4" d="M668,506"/>
	<path class="st4" d="M1162.3,506"/>
	<line class="st4" x1="668" y1="476" x2="1162.3" y2="476"/>
	<polyline class="st4" points="1161.7,506 1161.7,476 1656,476 1656,506 	"/>
	<g>
		<circle cx="-309" cy="491" r="2"/>
	</g>
	<g>
		<circle cx="166" cy="491" r="2"/>
	</g>
	<g>
		<circle cx="184" cy="491" r="2"/>
	</g>
	<g>
		<circle cx="659" cy="491" r="2"/>
	</g>
	<g>
		<circle cx="678" cy="491" r="2"/>
	</g>
	<g>
		<circle cx="1153" cy="491" r="2"/>
	</g>
	<g>
		<circle cx="1171" cy="491" r="2"/>
	</g>
	<g>
		<circle cx="1646" cy="491" r="2"/>
	</g>
</g>
<g>
	<polyline class="st4" points="-319,536 -319,506 175.3,506 175.3,536 	"/>
	<path class="st4" d="M174.7,536"/>
	<polyline class="st4" points="174.7,506 669,506 669,536 	"/>
	<path class="st4" d="M668,536"/>
	<path class="st4" d="M1162.3,536"/>
	<line class="st4" x1="668" y1="506" x2="1162.3" y2="506"/>
	<polyline class="st4" points="1161.7,536 1161.7,506 1656,506 1656,536 	"/>
	<g>
		<circle cx="-309" cy="521" r="2"/>
	</g>
	<g>
		<circle cx="166" cy="521" r="2"/>
	</g>
	<g>
		<circle cx="184" cy="521" r="2"/>
	</g>
	<g>
		<circle cx="659" cy="521" r="2"/>
	</g>
	<g>
		<circle cx="678" cy="521" r="2"/>
	</g>
	<g>
		<circle cx="1153" cy="521" r="2"/>
	</g>
	<g>
		<circle cx="1171" cy="521" r="2"/>
	</g>
	<g>
		<circle cx="1646" cy="521" r="2"/>
	</g>
</g>
<g>
	<polyline class="st4" points="-319,566 -319,536 175.3,536 175.3,566 	"/>
	<path class="st4" d="M174.7,566"/>
	<polyline class="st4" points="174.7,536 669,536 669,566 	"/>
	<path class="st4" d="M668,566"/>
	<path class="st4" d="M1162.3,566"/>
	<line class="st4" x1="668" y1="536" x2="1162.3" y2="536"/>
	<polyline class="st4" points="1161.7,566 1161.7,536 1656,536 1656,566 	"/>
	<g>
		<circle cx="-309" cy="551" r="2"/>
	</g>
	<g>
		<circle cx="166" cy="551" r="2"/>
	</g>
	<g>
		<circle cx="184" cy="551" r="2"/>
	</g>
	<g>
		<circle cx="659" cy="551" r="2"/>
	</g>
	<g>
		<circle cx="678" cy="551" r="2"/>
	</g>
	<g>
		<circle cx="1153" cy="551" r="2"/>
	</g>
	<g>
		<circle cx="1171" cy="551" r="2"/>
	</g>
	<g>
		<circle cx="1646" cy="551" r="2"/>
	</g>
</g>
<g>
	<polyline class="st4" points="-319,596 -319,566 175.3,566 175.3,596 	"/>
	<path class="st4" d="M174.7,596"/>
	<polyline class="st4" points="174.7,566 669,566 669,596 	"/>
	<path class="st4" d="M668,596"/>
	<path class="st4" d="M1162.3,596"/>
	<line class="st4" x1="668" y1="566" x2="1162.3" y2="566"/>
	<polyline class="st4" points="1161.7,596 1161.7,566 1656,566 1656,596 	"/>
	<g>
		<circle cx="-309" cy="581" r="2"/>
	</g>
	<g>
		<circle cx="166" cy="581" r="2"/>
	</g>
	<g>
		<circle cx="184" cy="581" r="2"/>
	</g>
	<g>
		<circle cx="659" cy="581" r="2"/>
	</g>
	<g>
		<circle cx="678" cy="581" r="2"/>
	</g>
	<g>
		<circle cx="1153" cy="581" r="2"/>
	</g>
	<g>
		<circle cx="1171" cy="581" r="2"/>
	</g>
	<g>
		<circle cx="1646" cy="581" r="2"/>
	</g>
</g>
<g>
	<polyline class="st4" points="-319,640 -319,596 175.3,596 175.3,640 	"/>
	<path class="st4" d="M174.7,626"/>
	<polyline class="st4" points="174.7,596 669,596 669,640 	"/>
	<path class="st4" d="M668,626"/>
	<path class="st4" d="M1162.3,626"/>
	<line class="st4" x1="668" y1="596" x2="1162.3" y2="596"/>
	<polyline class="st4" points="1161.7,640 1161.7,596 1656,596 1656,640 	"/>
	<g>
		<circle cx="-309" cy="611" r="2"/>
	</g>
	<g>
		<circle cx="166" cy="611" r="2"/>
	</g>
	<g>
		<circle cx="184" cy="611" r="2"/>
	</g>
	<g>
		<circle cx="659" cy="611" r="2"/>
	</g>
	<g>
		<circle cx="678" cy="611" r="2"/>
	</g>
	<g>
		<circle cx="1153" cy="611" r="2"/>
	</g>
	<g>
		<circle cx="1171" cy="611" r="2"/>
	</g>
	<g>
		<circle cx="1646" cy="611" r="2"/>
	</g>
</g>
<text transform="matrix(1 0 0 1 -1621.8223 460.8047)" style="font-family:'DINMittelschriftStd'; font-size:153px;">IT</text>
<text transform="matrix(1 0 0 1 -1621.8223 460.8047)" class="st4" style="font-family:'DINMittelschriftStd'; font-size:153px;">IT</text>
<text transform="matrix(1 0 0 1 -1427.8223 482.8047)" style="font-family:'DINMittelschriftStd'; font-size:153px;">LIKE</text>
<text transform="matrix(1 0 0 1 -1427.8223 482.8047)" class="st4" style="font-family:'DINMittelschriftStd'; font-size:153px;">LIKE</text>
<text transform="matrix(1 0 0 1 -1471.8223 286.8047)" style="font-family:'DINMittelschriftStd'; font-size:153px;">TREAT</text>
<text transform="matrix(1 0 0 1 -1471.8223 286.8047)" class="st4" style="font-family:'DINMittelschriftStd'; font-size:153px;">TREAT</text>
<text transform="matrix(1 0 0 1 -1419.8223 665.8047)" style="font-family:'DINMittelschriftStd'; font-size:153px;">ONE</text>
<text transform="matrix(1 0 0 1 -1419.8223 665.8047)" class="st4" style="font-family:'DINMittelschriftStd'; font-size:153px;">ONE</text>
<path class="st24" d="M900,561.6c1.6-0.7,1.2-3.6-0.5-3.6h-137h-1h-137c-1.7,0-2.1,2.8-0.5,3.6l17.8,7.9c0.9,0.4,1.2,1.6,0.8,2.6
	l-24.9,56.7c-0.5,1.2,0.2,2.7,1.3,2.7l0,0c0.5,0,1-0.3,1.2-0.8l33.8-58.4c0.3-0.5,0.7-0.8,1.2-0.8h106.2h1h105.2
	c0.5,0,0.9,0.3,1.2,0.8l34.5,58.5c0.3,0.5,0.7,0.8,1.2,0.8h0.3c1.1,0,1.9-1.5,1.3-2.7l-24.9-56.7c-0.4-1,0-2.2,0.8-2.6L900,561.6z"
	/>
<path class="st25" d="M994,585.5c0,0-13.1,27-13.6,41s1.5,24,1.5,24h13.6c0,0-7.5-21,5.5-52"/>
<path class="st25" d="M876.9,617.6L876.9,617.6c1.1-1.4,2.5-2.4,4.1-3.1l31.7-12.9c1.9-0.8,3.7-1.6,5.6-2.5l5.6-2.7
	c11-5.3,24.2-2.5,32,6.9l0,0c1.7,2,4.1,3.3,6.7,3.5l14.1,1.2c3.6,0.3,6.7,2.5,8.2,5.9l2.6,5.8c2.9,6.5-1.9,13.8-9,13.8h-93.7
	C876.5,633.5,871.8,624.1,876.9,617.6z"/>
<g>
	<polygon class="st25" points="543,454.2 707.5,441.5 705.2,411.2 540.6,423.8 	"/>
	<g>
		<circle cx="549.2" cy="438.7" r="2.1"/>
	</g>
	<g>
		<circle cx="697.8" cy="427.1" r="2.1"/>
	</g>
</g>
<path class="st24" d="M430.2,565.2l5.2,2.3c0.1,0,0.1,0.1,0.2,0.1c15.6,9.3,33.5,12.9,51.1,10.5l19.7-2.7c0.7-0.1,1.4,0.2,1.8,0.9
	l33.7,56.4c0.7,1.2-0.2,2.8-1.6,2.8l0,0c-0.5,0-1-0.2-1.3-0.6l-33.9-34.6c-0.1-0.1-0.2-0.2-0.3-0.3l-12.3-7.7
	c-2-1.2-4.1-2.1-6.4-2.5l-5.4-1.1c-0.8-0.2-1.5-0.3-2.3-0.3l-9.9-0.6c-3.3-0.2-6.6-0.2-10,0l-6.5,0.4c-2.3,0.2-4.6,0.8-6.6,2l-8.7,5
	c-0.2,0.1-0.4,0.3-0.5,0.4l-31.2,38c-0.3,0.4-0.9,0.7-1.4,0.7h-3.3c-1.3,0-2.2-1.4-1.7-2.6l29.1-65.7
	C428.2,565.2,429.2,564.8,430.2,565.2z"/>
<path class="st25" d="M145.3,629.9l29-17.2c0.1-0.1,0.3-0.1,0.4-0.2l29.4-10.8c0.3-0.1,0.5-0.2,0.7-0.4l8.4-6.9
	c4.5-3.7,11.2-3,14.8,1.6l14.4,18.6l10.6,14.5c0.2,0.3,0.5,0.6,0.9,0.8l0,0c2.4,1.2,1.5,4.7-1.1,4.7H146.6
	C144,634.5,143.1,631.2,145.3,629.9z"/>
<path class="st26" d="M-1572.5,145.5c-3.7-4.3-9-11.7-11-22c-3.5-18.2,5.6-33.3,11-42c15.4-24.6,28.4-20.4,45-43
	c17.3-23.6,9.2-36.5,23-47c22.7-17.3,73.9-5,82,19c8.3,24.5-27.1,64.9-64,77c-21,6.9-36.3,2.6-52,16c-13.7,11.8-18.3,29-20,41"/>
<path class="st13" d="M-1684.8,18.7l0.6,2.5c0.1,0.4,0,0.9-0.3,1.2l-5.8,6.5c-1.3,1.4-0.6,3.7,1.3,4.3l7.6,2.1c0.5,0.1,0.8,0.5,1,1
	l0.8,3.3c0.1,0.6,0.7,1,1.3,1h11c0.6,0,1.2-0.4,1.3-1l5.2-20.8c0.2-0.8-0.4-1.7-1.3-1.7h-21.4C-1684.4,17-1685,17.8-1684.8,18.7z
	 M-1683.6,31.9c-1.9-0.5-2.5-2.9-1.1-4.4l0,0c0.7-0.7,2-0.4,2.3,0.6l0.5,2.1C-1681.6,31.3-1682.6,32.2-1683.6,31.9L-1683.6,31.9z"/>
<g>
	<path class="st27" d="M757.5,550.5l4.8-65.4c0.1-1.5,1.3-2.6,2.8-2.6h0.7c1.5,0,2.7,1.2,2.8,2.7l3.8,65.3"/>
	<path class="st28" d="M749,548.5c1.2-1.6,1.8-3.7,1.4-5.9c-0.6-3-2.9-5.4-5.9-5.9c-5.2-1-9.8,3.5-8.8,8.7c0.5,3,2.9,5.3,5.8,6
		c1.8,0.4,3.5,0.1,4.9-0.6l4.6,3.7c3,2.4,6.7,3.6,10.4,3.6h6.5c3.9,0,7.7-1.4,10.7-3.8l3.9-3.2c1-0.8,0.4-2.4-0.9-2.4L749,548.5
		L749,548.5z M739.5,544c0-1.9,1.6-3.5,3.5-3.5s3.5,1.6,3.5,3.5s-1.6,3.5-3.5,3.5S739.5,545.9,739.5,544z"/>
	<path class="st29" d="M762.8,480.2l-0.9-0.9c-1.2-1.2-1.6-2.9-1.2-4.5l5.3-18.4l4.4,19.5c0.3,1.5-0.1,3.1-1.2,4.2l0,0
		C767.4,482,764.6,482,762.8,480.2z"/>
</g>
<g>
	<path class="st24" d="M154.7,534.8l5.3,27.6c2.9,15.1,18.6,23.9,33,18.6l28.2-10.5L154.7,534.8z"/>
	
		<rect x="181.3" y="506.5" transform="matrix(0.4722 -0.8815 0.8815 0.4722 -384.6984 456.4507)" class="st24" width="15" height="86"/>
</g>
<g>
	<path class="st24" d="M109,636.5l62.2-70c4.7-5.3,11.6-5,16,0.8l53.3,69.2h-10.2l-50.9-61l-61.1,61H109z"/>
	<circle class="st24" cx="179" cy="569" r="3.5"/>
</g>
<g>
	<path class="st24" d="M1120.8,558.7l20.9,18.7c11.5,10.2,29.3,7.7,37.5-5.3l16-25.5L1120.8,558.7z"/>
	
		<rect x="1113.8" y="542.1" transform="matrix(0.9871 -0.1602 0.1602 0.9871 -73.1056 192.4176)" class="st24" width="86" height="15"/>
</g>
<g>
	<path class="st24" d="M1091,639.5l62.2-70c4.7-5.3,11.6-5,16,0.8l53.3,69.2h-10.2l-50.9-61l-61.1,61H1091z"/>
	<circle class="st24" cx="1161" cy="572" r="3.5"/>
</g>
<g>
	<path class="st13" d="M-2636-113.5l53.8,114.8c12.3,26.3,41.4,40.2,69.6,33.4l109-26.2l-0.5-0.7c-4-6.2-11.3-9.5-18.6-8.2
		l-61.8,10.8c-31.7,3.8-48.2,9.1-80.6-37.1l-47-77.5c-3.5-5.7-9.7-9.2-16.4-9.2h-7.5V-113.5z"/>
	<path class="st13" d="M-2649,97.5l61-64.8c12.9-13.6,30.4-22,49.1-23.4l0,0c20.4-1.5,40.5,5.4,55.7,19.1l76.2,68.7l-22.5,0.4
		l-62.5-54.8c-12.6-9.7-28.3-14.3-44.1-13l0,0c-13.3,1.1-25.9,6.4-36.1,15l-54.4,52.8C-2626.6,97.5-2649,97.5-2649,97.5z"/>
	<circle class="st13" cx="-2532" cy="20" r="5.5"/>
</g>
<g>
	<path class="st13" d="M-2206,125.5l61-64.8c12.9-13.6,30.4-22,49.1-23.4l0,0c20.4-1.5,40.5,5.4,55.7,19.1l76.2,68.7l-22.5,0.4
		l-62.5-54.8c-12.6-9.7-28.3-14.3-44.1-13l0,0c-13.3,1.1-25.9,6.4-36.1,15l-54.4,52.8H-2206z"/>
	<circle class="st13" cx="-2089" cy="48" r="5.5"/>
</g>
<path class="st25" d="M20.4,623.9l10.1-36.4c1.2-4.4,4.5-7.9,8.8-9.3l4.3-1.4c2.5-0.8,4.7-2.4,6.3-4.4L68,549.7
	c2.2-2.7,5.2-4.5,8.7-5l17.6-2.6c2.6-0.4,5.3,0,7.8,1.1l23.7,11.1c1.7,0.8,3.2,1.9,4.4,3.3l12.7,14.3c0.9,1.1,1.7,2.3,2.3,3.6
	l16.2,37c0.6,1.4,1.4,2.6,2.4,3.7l0,0c7.9,8.7,1.9,22.7-9.8,22.9l-120.4,2.1C24.7,641.3,18,632.7,20.4,623.9z"/>
<g>
	<polygon class="st7" points="1192.2,294 922.6,255.3 918.3,285.5 1188,324.2 	"/>
	<polygon class="st30" points="1194.8,300.7 925.2,262 920.9,292.2 1190.6,330.9 	"/>
	<g>
		<circle cx="1183.9" cy="314.5" r="2.1"/>
	</g>
	<g>
		<circle cx="931.5" cy="278.2" r="2.1"/>
	</g>
</g>
<path class="st13" d="M-3148.2,11l106.9,145c11,14.9,30,21.7,47.9,17l134.7-34.9c4.6-1.2,7.5-5.8,6.5-10.5l0,0
	c-3.1-14.6-18-23.4-32.3-19.2l-47.7,14c-44,13-91.4-3.4-118.1-40.7L-3133-33.6c-5.3-7.4-16.6-6.1-20.1,2.2l0,0
	C-3159.2-17.4-3157.3-1.2-3148.2,11z"/>
<g>
	<g>
		<g>
			<g>
				<g>
					<defs>
						<path id="SVGID_14_" d="M921.1,466.5c0,22.3,8.4,45.2,0.4,64.6c-8.3,20.1-22.8,38.3-37.9,53.5c-15.2,15.2-37.8,18.8-57.9,27.1
							c-19.4,8-37.8,17.2-60.1,17.2s-45.9,3.3-65.3-4.7c-20.1-8.3-40.4-21.7-55.5-36.8c-15.2-15.2-25.6-36.7-33.9-56.8
							c-8-19.4-12.2-41.8-12.2-64.1c0-22.3-1-46.8,7.1-66.2c8.3-20.1,31.2-32.2,46.3-47.3c15.2-15.2,32.3-25.8,52.4-34.1
							c19.4-8,38.9-23.3,61.2-23.3s44.5,8.8,63.9,16.8c20.1,8.3,43.3,16.8,58.4,31.9c15.2,15.2,18.2,40.6,26.5,60.7
							C922.4,424.3,921.1,444.2,921.1,466.5z"/>
					</defs>
					<clipPath id="SVGID_15_">
						<use xlink:href="#SVGID_14_"  style="overflow:visible;"/>
					</clipPath>
					<g class="st31">
						<polygon class="st30" points="543,454.2 707.5,441.5 705.2,411.2 540.6,423.8 						"/>
						<g>
							<circle cx="549.2" cy="438.7" r="2.1"/>
						</g>
						<g>
							<circle cx="697.8" cy="427.1" r="2.1"/>
						</g>
					</g>
				</g>
			</g>
		</g>
	</g>
</g>
<g>
	<g>
		<path id="SVGID_5_" class="st7" d="M1000.5,555.2c-23.2-2-49.1,9.1-49.4,19c-0.1,4.8,5.8,8.4,17.7,15.7
			c12.3,7.5,23.4,14.3,39.8,16.6c14.9,2.1,42.5,1.7,46.8-8.5C1060.5,585.7,1032.4,558,1000.5,555.2z"/>
	</g>
	<g>
		<g>
			<g>
				<g>
					<defs>
						<path id="SVGID_16_" d="M1000.5,555.2c-23.2-2-49.1,9.1-49.4,19c-0.1,4.8,5.8,8.4,17.7,15.7c12.3,7.5,23.4,14.3,39.8,16.6
							c14.9,2.1,42.5,1.7,46.8-8.5C1060.5,585.7,1032.4,558,1000.5,555.2z"/>
					</defs>
					<clipPath id="SVGID_17_">
						<use xlink:href="#SVGID_16_"  style="overflow:visible;"/>
					</clipPath>
					<path class="st32" d="M961.7,551.3c-5.4,4.5-3.8,14.9,3,19.2c6.8,4.2,15.5,0.5,16.1,0.2c1.8-0.8,6-2.7,7.1-6.3
						c1.6-5.5-4.7-11.6-10.9-13.9C976.3,550.2,967,546.9,961.7,551.3z"/>
				</g>
			</g>
		</g>
	</g>
	<g>
		<g>
			<g>
				<g>
					<defs>
						<path id="SVGID_18_" d="M1000.5,555.2c-23.2-2-49.1,9.1-49.4,19c-0.1,4.8,5.8,8.4,17.7,15.7c12.3,7.5,23.4,14.3,39.8,16.6
							c14.9,2.1,42.5,1.7,46.8-8.5C1060.5,585.7,1032.4,558,1000.5,555.2z"/>
					</defs>
					<clipPath id="SVGID_19_">
						<use xlink:href="#SVGID_18_"  style="overflow:visible;"/>
					</clipPath>
					<path class="st33" d="M1004.8,556c10.3-7,27.5-5.7,40.2-0.1c5.9,2.6,12.1,5.3,14.8,11.5c3.1,7.2,0.6,17.4-5.3,19.5
						c-8.8,3.1-15.7-15.5-39.9-20.6c-5.2-1.1-13.3-1.9-13.9-5.1C1000.4,559.1,1003.4,557,1004.8,556z"/>
				</g>
			</g>
		</g>
	</g>
	<g>
		<g>
			<g>
				<g>
					<defs>
						<path id="SVGID_20_" d="M1000.5,555.2c-23.2-2-49.1,9.1-49.4,19c-0.1,4.8,5.8,8.4,17.7,15.7c12.3,7.5,23.4,14.3,39.8,16.6
							c14.9,2.1,42.5,1.7,46.8-8.5C1060.5,585.7,1032.4,558,1000.5,555.2z"/>
					</defs>
					<clipPath id="SVGID_21_">
						<use xlink:href="#SVGID_20_"  style="overflow:visible;"/>
					</clipPath>
					<path class="st34" d="M1051.3,597.5c-12.1-5.8-31.6,5.3-31.2,12.3c0.1,1.6,1.2,2.7,2.4,3.9c5.1,5,13.3,4.9,22.5,4.6
						c8.5-0.3,12.7-0.4,14.6-2.7C1063.2,611.2,1058.8,601.1,1051.3,597.5z"/>
				</g>
			</g>
		</g>
	</g>
	<g>
		<g>
			<g>
				<g>
					<defs>
						<path id="SVGID_22_" d="M1000.5,555.2c-23.2-2-49.1,9.1-49.4,19c-0.1,4.8,5.8,8.4,17.7,15.7c12.3,7.5,23.4,14.3,39.8,16.6
							c14.9,2.1,42.5,1.7,46.8-8.5C1060.5,585.7,1032.4,558,1000.5,555.2z"/>
					</defs>
					<clipPath id="SVGID_23_">
						<use xlink:href="#SVGID_22_"  style="overflow:visible;"/>
					</clipPath>
					<path class="st35" d="M951.3,585c1.8-3.3,11.4-3,18.2-0.4c11.3,4.3,19,16.4,16,20c-3.1,3.7-18.6-0.7-27.9-8.9
						C956.3,594.4,949.4,588.4,951.3,585z"/>
				</g>
			</g>
		</g>
	</g>
	<g>
		<g>
			<g>
				<g>
					<defs>
						<path id="SVGID_24_" d="M1000.5,555.2c-23.2-2-49.1,9.1-49.4,19c-0.1,4.8,5.8,8.4,17.7,15.7c12.3,7.5,23.4,14.3,39.8,16.6
							c14.9,2.1,42.5,1.7,46.8-8.5C1060.5,585.7,1032.4,558,1000.5,555.2z"/>
					</defs>
					<clipPath id="SVGID_25_">
						<use xlink:href="#SVGID_24_"  style="overflow:visible;"/>
					</clipPath>
					<path class="st36" d="M1019.8,586.4c-1.3-1.4-4.9-5.3-12.9-7.9c-4.6-1.5-15.1-4.1-17-1.2c-1.5,2.3,3.2,7.2,6.5,9.8
						c9.5,7.4,24.7,8.4,26.5,5.1C1023.6,590.8,1021.9,588.9,1019.8,586.4z"/>
				</g>
			</g>
		</g>
	</g>
	<g>
		<path id="SVGID_1_" class="st4" d="M1000.5,555.2c-23.2-2-49.1,9.1-49.4,19c-0.1,4.8,5.8,8.4,17.7,15.7
			c12.3,7.5,23.4,14.3,39.8,16.6c14.9,2.1,42.5,1.7,46.8-8.5C1060.5,585.7,1032.4,558,1000.5,555.2z"/>
	</g>
</g>
<path class="st37" d="M-2508.8,589.4h217.2h2.8h217.2l0,0c0-6.8-5.5-12.4-12.4-12.4h-33.3c-7.8,0-14.1-6.3-14.1-14.1V399.8h-11.4
	l-9.3,163.9c-0.4,7.5-6.6,13.3-14.1,13.3h-122.7h-2.8h-122.7c-7.5,0-13.6-5.8-14.1-13.3l-9.2-163.9h-11.4v163.1
	c0,7.8-6.3,14.1-14.1,14.1h-33.3C-2503.3,577-2508.8,582.5-2508.8,589.4L-2508.8,589.4z"/>
<path class="st24" d="M364.6,430.5c-4,0-6.7,4.2-5,7.8l50.2,107c12.3,26.3,44.7,45.2,85.7,33.2l85.9-24c3.5-1,5.1-5.1,3.2-8.2l0,0
	c-1.8-2.9-5.2-4.4-8.6-3.8l-68.3,11.9c-31.7,3.8-48.1,9.1-80.5-36.9c-0.1-0.1-0.1-0.2-0.2-0.3l-47.3-78.1
	C376.4,433.7,370.8,430.5,364.6,430.5L364.6,430.5z"/>
<g>
	<g>
		<g>
			<g>
				<g>
					<defs>
						<polygon id="SVGID_26_" points="284.4,-289 497.9,-75 -21,-109 164,548 208.5,565.5 805.4,233.3 1137.1,565.8 1182.7,554.3 
							1402.8,-46.1 						"/>
					</defs>
					<clipPath id="SVGID_27_">
						<use xlink:href="#SVGID_26_"  style="overflow:visible;"/>
					</clipPath>
					<path class="st38" d="M364.6,430.5c-4,0-6.7,4.2-5,7.8l50.2,107c12.3,26.3,44.7,45.2,85.7,33.2l85.9-24c3.5-1,5.1-5.1,3.2-8.2
						l0,0c-1.8-2.9-5.2-4.4-8.6-3.8l-68.3,11.9c-31.7,3.8-48.1,9.1-80.5-36.9c-0.1-0.1-0.1-0.2-0.2-0.3l-47.3-78.1
						C376.4,433.7,370.8,430.5,364.6,430.5L364.6,430.5z"/>
				</g>
			</g>
		</g>
	</g>
</g>
<g>
	<g>
		<g>
			<g>
				<g>
					<defs>
						<path id="SVGID_28_" d="M921.1,466.5c0,22.3,8.4,45.2,0.4,64.6c-8.3,20.1-22.8,38.3-37.9,53.5c-15.2,15.2-37.8,18.8-57.9,27.1
							c-19.4,8-37.8,17.2-60.1,17.2s-45.9,3.3-65.3-4.7c-20.1-8.3-40.4-21.7-55.5-36.8c-15.2-15.2-25.6-36.7-33.9-56.8
							c-8-19.4-12.2-41.8-12.2-64.1c0-22.3-1-46.8,7.1-66.2c8.3-20.1,31.2-32.2,46.3-47.3c15.2-15.2,32.3-25.8,52.4-34.1
							c19.4-8,38.9-23.3,61.2-23.3s44.5,8.8,63.9,16.8c20.1,8.3,43.3,16.8,58.4,31.9c15.2,15.2,18.2,40.6,26.5,60.7
							C922.4,424.3,921.1,444.2,921.1,466.5z"/>
					</defs>
					<clipPath id="SVGID_29_">
						<use xlink:href="#SVGID_28_"  style="overflow:visible;"/>
					</clipPath>
					<path class="st39" d="M900,561.6c1.6-0.7,1.2-3.6-0.5-3.6h-137h-1h-137c-1.7,0-2.1,2.8-0.5,3.6l17.8,7.9
						c0.9,0.4,1.2,1.6,0.8,2.6l-24.9,56.7c-0.5,1.2,0.2,2.7,1.3,2.7l0,0c0.5,0,1-0.3,1.2-0.8l33.8-58.4c0.3-0.5,0.7-0.8,1.2-0.8
						h106.2h1h105.2c0.5,0,0.9,0.3,1.2,0.8l34.5,58.5c0.3,0.5,0.7,0.8,1.2,0.8h0.3c1.1,0,1.9-1.5,1.3-2.7l-24.9-56.7
						c-0.4-1,0-2.2,0.8-2.6L900,561.6z"/>
				</g>
			</g>
		</g>
	</g>
</g>
</svg>
