<?xml version="1.0" encoding="utf-8"?>
<!-- Generator: Adobe Illustrator 22.0.1, SVG Export Plug-In . SVG Version: 6.00 Build 0)  -->
<svg version="1.1" id="Layer_1" xmlns="http://www.w3.org/2000/svg" xmlns:xlink="http://www.w3.org/1999/xlink" x="0px" y="0px"
	 viewBox="0 0 1340 630" style="enable-background:new 0 0 1340 630;" xml:space="preserve">
<style type="text/css">
	.st0{fill:#DDDDD3;}
	.st1{fill:none;stroke:#000000;stroke-miterlimit:10;}
	.st2{fill:#4C4F47;stroke:#000000;stroke-miterlimit:10;}
	.st3{fill:#1A1A1A;}
	.st4{fill:#DD796F;}
	.st5{fill:#414143;stroke:#000000;stroke-miterlimit:10;}
	.st6{fill:#414143;}
	.st7{fill:#E8E7E7;}
	.st8{fill:#CFD9C5;}
	.st9{fill:#BFDDA1;}
	.st10{fill:#41B369;}
	.st11{fill:#F8A079;}
	.st12{fill:#EF5B49;}
	.st13{fill:#FCC638;}
	.st14{fill:#565950;stroke:#000000;stroke-miterlimit:10;}
	.st15{clip-path:url(#SVGID_2_);}
	.st16{fill:#DDDDD3;stroke:#000000;stroke-miterlimit:10;}
	.st17{clip-path:url(#SVGID_4_);}
	.st18{clip-path:url(#SVGID_6_);}
	.st19{clip-path:url(#SVGID_8_);}
	.st20{clip-path:url(#SVGID_10_);}
</style>
<g id="Layer_2_1_">
	<path class="st0" d="M573.7,326.5c0,4.9-2.8,9.7-3.2,14.4c-0.4,4.9-0.2,9.7-1.1,14.5c-0.8,4.8-1.5,9.6-2.7,14.3
		c-1.3,4.7-1.4,9.9-3,14.4c-1.7,4.6-6.6,7.8-8.6,12.2c-2.1,4.4-3.6,9-6,13.1c-2.4,4.2-3.7,9.1-6.5,13.1s-6.2,7.6-9.3,11.3
		c-3.1,3.7-6.7,7-10.1,10.4c-3.4,3.4-6,7.8-9.7,11c-3.7,3.1-7.7,6-11.7,8.8s-8.9,4.1-13.1,6.6c-4.2,2.4-8.5,4.6-12.9,6.6
		s-8.1,5.9-12.7,7.6c-4.5,1.6-9.9,1.1-14.6,2.3c-4.7,1.2-9.6,0.7-14.4,1.6c-4.7,0.8-9.1,4.3-14,4.7c-4.8,0.4-9.7-2.1-14.6-2.1
		s-9.6,0.3-14.4-0.1c-4.9-0.4-9.9,0.9-14.6,0.1c-4.8-0.8-9.2-3.4-13.9-4.6c-4.7-1.3-8.9-3.6-13.5-5.3c-4.6-1.7-9.2-2.8-13.6-4.9
		s-9-3.5-13.2-6c-4.2-2.4-7.4-6.2-11.4-9s-8.4-4.8-12.1-8c-3.7-3.1-8.9-4.7-12.3-8.1s-4.8-8.8-7.9-12.5s-7.2-6.7-10-10.6
		c-2.8-4-5.6-8-8-12.2s-5.1-8.4-7.1-12.8s-3.8-9-5.5-13.6c-1.6-4.5-1.9-9.6-3.1-14.3c-1.2-4.7-1.3-9.5-2.1-14.3
		c-0.8-4.7-3.6-9.2-4-14.1c-0.4-4.8-0.8-9.7-0.8-14.6s2.5-9.6,3-14.4c0.4-4.9,0.7-9.6,1.5-14.4s2.4-9.3,3.7-14s2.7-9.2,4.3-13.7
		c1.7-4.6,3.5-8.9,5.5-13.3c2.1-4.4,1.7-10.1,4.1-14.3s7-7.1,9.8-11c2.8-4,4.1-9.1,7.2-12.8s7-6.8,10.5-10.2
		c3.4-3.4,7.5-6.1,11.2-9.3c3.7-3.1,8.1-5.2,12.1-8s7.1-6.9,11.3-9.3c4.2-2.4,9.4-2.8,13.8-4.9c4.4-2,8.4-4.7,13-6.4
		c4.5-1.6,8.9-4,13.6-5.2s9.7-0.7,14.5-1.5c4.7-0.8,9.2-3.8,14.1-4.2c4.8-0.4,9.7,0.3,14.6,0.3s9.7,0.3,14.5,0.7
		c4.9,0.4,9.8,0.1,14.6,0.9c4.8,0.8,9.5,2.5,14.1,3.7c4.7,1.3,9.9,1.3,14.4,3c4.6,1.7,8.4,5.3,12.8,7.4c4.4,2.1,7.9,5.7,12,8.2
		c4.2,2.4,9.8,2.7,13.7,5.4c4,2.8,8.1,5.6,11.8,8.7c3.7,3.1,5.4,8.5,8.8,11.9c3.4,3.4,7.8,6,10.9,9.7c3.1,3.7,6.4,7.3,9.2,11.3
		s5.5,8,8,12.2c2.4,4.2,3.8,8.9,5.9,13.3c2,4.4,5,8.4,6.6,13c1.6,4.5,4.1,9,5.4,13.7c1.2,4.7,1.1,9.8,1.9,14.6
		c0.8,4.7,2,9.5,2.4,14.4C572.9,316.7,573.7,321.6,573.7,326.5z"/>
	<g>
		<path class="st0" d="M1058.6,326.5c0,4.9,0.7,9.8,0.3,14.6c-0.4,4.9-2.8,9.4-3.6,14.1c-0.8,4.8,1.1,10.2-0.2,14.9
			c-1.3,4.7-5.5,8.5-7.2,13c-1.7,4.6-3.3,9-5.3,13.4c-2.1,4.4-2.2,9.8-4.6,14s-5.3,8.3-8.1,12.2c-2.8,4-5.9,7.8-9,11.5
			s-6.9,6.9-10.3,10.4s-6.4,7.5-10.1,10.6c-3.7,3.1-9.6,3.4-13.5,6.2c-4,2.8-6,8.6-10.2,11s-9.3,3.3-13.7,5.4
			c-4.4,2-9.1,3.2-13.7,4.8c-4.5,1.6-9.5,1.7-14.2,2.9c-4.7,1.2-9,3.6-13.8,4.5c-4.7,0.8-9.3,3.2-14.2,3.6c-4.8,0.4-9.7,0-14.6,0
			c-4.9,0-9.9,0.9-14.7,0.4c-4.9-0.4-9.4-3.4-14.1-4.2c-4.8-0.8-9.4-2.2-14-3.4c-4.7-1.3-10.2,0-14.7-1.7c-4.6-1.7-8.5-5-12.9-7
			c-4.4-2.1-8.4-4.8-12.6-7.2c-4.2-2.4-9.4-3.3-13.4-6.1c-4-2.8-7.8-6-11.5-9.1s-6.7-7.2-10.1-10.6c-3.4-3.4-4.8-8.6-8-12.3
			c-3.1-3.7-8.3-5.8-11.1-9.8s-4.6-8.6-7-12.8c-2.4-4.2-4.2-8.7-6.2-13.1s-5.1-8.4-6.8-12.9c-1.6-4.5-3.3-9.2-4.6-13.9
			c-1.2-4.7-2-9.5-2.9-14.3c-0.8-4.7-0.1-9.7-0.5-14.6c-0.4-4.8-1.6-9.6-1.6-14.5s2.2-9.6,2.6-14.4c0.4-4.9-1.9-10-1.1-14.8
			c0.8-4.8,2-9.6,3.2-14.3c1.3-4.7,2.2-9.6,3.9-14.1c1.7-4.6,5.2-8.4,7.2-12.8c2.1-4.4,4.2-8.7,6.6-12.9c2.4-4.2,4.1-8.9,6.9-12.9
			c2.8-4,7-6.9,10.1-10.6c3.1-3.7,5.1-8.5,8.5-11.9s7.7-6.1,11.4-9.2c3.7-3.1,7.9-5.6,11.9-8.4c4-2.8,7.2-6.8,11.4-9.2
			s9.2-3.5,13.6-5.6c4.4-2,8.9-3.8,13.5-5.5c4.5-1.6,9.5-1.7,14.2-3c4.7-1.2,9-3.6,13.8-4.5c4.7-0.8,9.7,0.2,14.5-0.2
			s9.5-2.8,14.4-2.8s9.7,0.9,14.5,1.3c4.9,0.4,9.5,1.9,14.2,2.8c4.8,0.8,9.5,1.6,14.2,2.9c4.7,1.3,9.5,2,14,3.7
			c4.6,1.7,9.7,2.1,14,4.2c4.4,2.1,8.7,4.5,12.9,7c4.2,2.4,7.7,6,11.7,8.8s8.4,5.1,12.1,8.2c3.7,3.1,5.7,8.1,9.1,11.6
			s8.5,5.3,11.7,9c3.1,3.7,6.6,7.3,9.4,11.2c2.8,4,2.6,9.8,5,14s5.1,8.1,7.2,12.5c2,4.4,6.1,8,7.7,12.5s1.5,9.7,2.8,14.4
			c1.2,4.7,1.6,9.5,2.4,14.3c0.8,4.7,3.1,9.3,3.5,14.2C1059.3,316.7,1058.6,321.6,1058.6,326.5z"/>
	</g>
</g>
<g id="Layer_1_1_">
	<g>
		<polyline class="st1" points="-319,26 -319,-4 175.3,-4 175.3,26 		"/>
		<path class="st1" d="M174.7,26"/>
		<polyline class="st1" points="174.7,-4 669,-4 669,26 		"/>
		<path class="st1" d="M668,26"/>
		<path class="st1" d="M1162.3,26"/>
		<line class="st1" x1="668" y1="-4" x2="1162.3" y2="-4"/>
		<polyline class="st1" points="1161.7,26 1161.7,-4 1656,-4 1656,26 		"/>
		<g>
			<circle cx="-309" cy="11" r="2"/>
		</g>
		<g>
			<circle cx="166" cy="11" r="2"/>
		</g>
		<g>
			<circle cx="184" cy="11" r="2"/>
		</g>
		<g>
			<circle cx="659" cy="11" r="2"/>
		</g>
		<g>
			<circle cx="678" cy="11" r="2"/>
		</g>
		<g>
			<circle cx="1153" cy="11" r="2"/>
		</g>
		<g>
			<circle cx="1171" cy="11" r="2"/>
		</g>
		<g>
			<circle cx="1646" cy="11" r="2"/>
		</g>
	</g>
	<g>
		<polyline class="st1" points="-319,56 -319,26 175.3,26 175.3,56 		"/>
		<path class="st1" d="M174.7,56"/>
		<polyline class="st1" points="174.7,26 669,26 669,56 		"/>
		<path class="st1" d="M668,56"/>
		<path class="st1" d="M1162.3,56"/>
		<line class="st1" x1="668" y1="26" x2="1162.3" y2="26"/>
		<polyline class="st1" points="1161.7,56 1161.7,26 1656,26 1656,56 		"/>
		<g>
			<circle cx="-309" cy="41" r="2"/>
		</g>
		<g>
			<circle cx="166" cy="41" r="2"/>
		</g>
		<g>
			<circle cx="184" cy="41" r="2"/>
		</g>
		<g>
			<circle cx="659" cy="41" r="2"/>
		</g>
		<g>
			<circle cx="678" cy="41" r="2"/>
		</g>
		<g>
			<circle cx="1153" cy="41" r="2"/>
		</g>
		<g>
			<circle cx="1171" cy="41" r="2"/>
		</g>
		<g>
			<circle cx="1646" cy="41" r="2"/>
		</g>
	</g>
	<g>
		<polyline class="st1" points="-319,86 -319,56 175.3,56 175.3,86 		"/>
		<path class="st1" d="M174.7,86"/>
		<polyline class="st1" points="174.7,56 669,56 669,86 		"/>
		<path class="st1" d="M668,86"/>
		<path class="st1" d="M1162.3,86"/>
		<line class="st1" x1="668" y1="56" x2="1162.3" y2="56"/>
		<polyline class="st1" points="1161.7,86 1161.7,56 1656,56 1656,86 		"/>
		<g>
			<circle cx="-309" cy="71" r="2"/>
		</g>
		<g>
			<circle cx="166" cy="71" r="2"/>
		</g>
		<g>
			<circle cx="184" cy="71" r="2"/>
		</g>
		<g>
			<circle cx="659" cy="71" r="2"/>
		</g>
		<g>
			<circle cx="678" cy="71" r="2"/>
		</g>
		<g>
			<circle cx="1153" cy="71" r="2"/>
		</g>
		<g>
			<circle cx="1171" cy="71" r="2"/>
		</g>
		<g>
			<circle cx="1646" cy="71" r="2"/>
		</g>
	</g>
	<g>
		<polyline class="st1" points="-319,116 -319,86 175.3,86 175.3,116 		"/>
		<path class="st1" d="M174.7,116"/>
		<polyline class="st1" points="174.7,86 669,86 669,116 		"/>
		<path class="st1" d="M668,116"/>
		<path class="st1" d="M1162.3,116"/>
		<line class="st1" x1="668" y1="86" x2="1162.3" y2="86"/>
		<polyline class="st1" points="1161.7,116 1161.7,86 1656,86 1656,116 		"/>
		<g>
			<circle cx="-309" cy="101" r="2"/>
		</g>
		<g>
			<circle cx="166" cy="101" r="2"/>
		</g>
		<g>
			<circle cx="184" cy="101" r="2"/>
		</g>
		<g>
			<circle cx="659" cy="101" r="2"/>
		</g>
		<g>
			<circle cx="678" cy="101" r="2"/>
		</g>
		<g>
			<circle cx="1153" cy="101" r="2"/>
		</g>
		<g>
			<circle cx="1171" cy="101" r="2"/>
		</g>
		<g>
			<circle cx="1646" cy="101" r="2"/>
		</g>
	</g>
	<g>
		<polyline class="st1" points="-319,146 -319,116 175.3,116 175.3,146 		"/>
		<path class="st1" d="M174.7,146"/>
		<polyline class="st1" points="174.7,116 669,116 669,146 		"/>
		<path class="st1" d="M668,146"/>
		<path class="st1" d="M1162.3,146"/>
		<line class="st1" x1="668" y1="116" x2="1162.3" y2="116"/>
		<polyline class="st1" points="1161.7,146 1161.7,116 1656,116 1656,146 		"/>
		<g>
			<circle cx="-309" cy="131" r="2"/>
		</g>
		<g>
			<circle cx="166" cy="131" r="2"/>
		</g>
		<g>
			<circle cx="184" cy="131" r="2"/>
		</g>
		<g>
			<circle cx="659" cy="131" r="2"/>
		</g>
		<g>
			<circle cx="678" cy="131" r="2"/>
		</g>
		<g>
			<circle cx="1153" cy="131" r="2"/>
		</g>
		<g>
			<circle cx="1171" cy="131" r="2"/>
		</g>
		<g>
			<circle cx="1646" cy="131" r="2"/>
		</g>
	</g>
	<g>
		<polyline class="st1" points="-319,176 -319,146 175.3,146 175.3,176 		"/>
		<path class="st1" d="M174.7,176"/>
		<polyline class="st1" points="174.7,146 669,146 669,176 		"/>
		<path class="st1" d="M668,176"/>
		<path class="st1" d="M1162.3,176"/>
		<line class="st1" x1="668" y1="146" x2="1162.3" y2="146"/>
		<polyline class="st1" points="1161.7,176 1161.7,146 1656,146 1656,176 		"/>
		<g>
			<circle cx="-309" cy="161" r="2"/>
		</g>
		<g>
			<circle cx="166" cy="161" r="2"/>
		</g>
		<g>
			<circle cx="184" cy="161" r="2"/>
		</g>
		<g>
			<circle cx="659" cy="161" r="2"/>
		</g>
		<g>
			<circle cx="678" cy="161" r="2"/>
		</g>
		<g>
			<circle cx="1153" cy="161" r="2"/>
		</g>
		<g>
			<circle cx="1171" cy="161" r="2"/>
		</g>
		<g>
			<circle cx="1646" cy="161" r="2"/>
		</g>
	</g>
	<g>
		<polyline class="st1" points="-319,206 -319,176 175.3,176 175.3,206 		"/>
		<path class="st1" d="M174.7,206"/>
		<polyline class="st1" points="174.7,176 669,176 669,206 		"/>
		<path class="st1" d="M668,206"/>
		<path class="st1" d="M1162.3,206"/>
		<line class="st1" x1="668" y1="176" x2="1162.3" y2="176"/>
		<polyline class="st1" points="1161.7,206 1161.7,176 1656,176 1656,206 		"/>
		<g>
			<circle cx="-309" cy="191" r="2"/>
		</g>
		<g>
			<circle cx="166" cy="191" r="2"/>
		</g>
		<g>
			<circle cx="184" cy="191" r="2"/>
		</g>
		<g>
			<circle cx="659" cy="191" r="2"/>
		</g>
		<g>
			<circle cx="678" cy="191" r="2"/>
		</g>
		<g>
			<circle cx="1153" cy="191" r="2"/>
		</g>
		<g>
			<circle cx="1171" cy="191" r="2"/>
		</g>
		<g>
			<circle cx="1646" cy="191" r="2"/>
		</g>
	</g>
	<g>
		<polyline class="st1" points="-319,236 -319,206 175.3,206 175.3,236 		"/>
		<path class="st1" d="M174.7,236"/>
		<polyline class="st1" points="174.7,206 669,206 669,236 		"/>
		<path class="st1" d="M668,236"/>
		<path class="st1" d="M1162.3,236"/>
		<line class="st1" x1="668" y1="206" x2="1162.3" y2="206"/>
		<polyline class="st1" points="1161.7,236 1161.7,206 1656,206 1656,236 		"/>
		<g>
			<circle cx="-309" cy="221" r="2"/>
		</g>
		<g>
			<circle cx="166" cy="221" r="2"/>
		</g>
		<g>
			<circle cx="184" cy="221" r="2"/>
		</g>
		<g>
			<circle cx="659" cy="221" r="2"/>
		</g>
		<g>
			<circle cx="678" cy="221" r="2"/>
		</g>
		<g>
			<circle cx="1153" cy="221" r="2"/>
		</g>
		<g>
			<circle cx="1171" cy="221" r="2"/>
		</g>
		<g>
			<circle cx="1646" cy="221" r="2"/>
		</g>
	</g>
	<g>
		<polyline class="st1" points="-319,266 -319,236 175.3,236 175.3,266 		"/>
		<path class="st1" d="M174.7,266"/>
		<polyline class="st1" points="174.7,236 669,236 669,266 		"/>
		<path class="st1" d="M668,266"/>
		<path class="st1" d="M1162.3,266"/>
		<line class="st1" x1="668" y1="236" x2="1162.3" y2="236"/>
		<polyline class="st1" points="1161.7,266 1161.7,236 1656,236 1656,266 		"/>
		<g>
			<circle cx="-309" cy="251" r="2"/>
		</g>
		<g>
			<circle cx="166" cy="251" r="2"/>
		</g>
		<g>
			<circle cx="184" cy="251" r="2"/>
		</g>
		<g>
			<circle cx="659" cy="251" r="2"/>
		</g>
		<g>
			<circle cx="678" cy="251" r="2"/>
		</g>
		<g>
			<circle cx="1153" cy="251" r="2"/>
		</g>
		<g>
			<circle cx="1171" cy="251" r="2"/>
		</g>
		<g>
			<circle cx="1646" cy="251" r="2"/>
		</g>
	</g>
	<g>
		<polyline class="st1" points="-319,296 -319,266 175.3,266 175.3,296 		"/>
		<path class="st1" d="M174.7,296"/>
		<polyline class="st1" points="174.7,266 669,266 669,296 		"/>
		<path class="st1" d="M668,296"/>
		<path class="st1" d="M1162.3,296"/>
		<line class="st1" x1="668" y1="266" x2="1162.3" y2="266"/>
		<polyline class="st1" points="1161.7,296 1161.7,266 1656,266 1656,296 		"/>
		<g>
			<circle cx="-309" cy="281" r="2"/>
		</g>
		<g>
			<circle cx="166" cy="281" r="2"/>
		</g>
		<g>
			<circle cx="184" cy="281" r="2"/>
		</g>
		<g>
			<circle cx="659" cy="281" r="2"/>
		</g>
		<g>
			<circle cx="678" cy="281" r="2"/>
		</g>
		<g>
			<circle cx="1153" cy="281" r="2"/>
		</g>
		<g>
			<circle cx="1171" cy="281" r="2"/>
		</g>
		<g>
			<circle cx="1646" cy="281" r="2"/>
		</g>
	</g>
	<g>
		<polyline class="st1" points="-319,326 -319,296 175.3,296 175.3,326 		"/>
		<path class="st1" d="M174.7,326"/>
		<polyline class="st1" points="174.7,296 669,296 669,326 		"/>
		<path class="st1" d="M668,326"/>
		<path class="st1" d="M1162.3,326"/>
		<line class="st1" x1="668" y1="296" x2="1162.3" y2="296"/>
		<polyline class="st1" points="1161.7,326 1161.7,296 1656,296 1656,326 		"/>
		<g>
			<circle cx="-309" cy="311" r="2"/>
		</g>
		<g>
			<circle cx="166" cy="311" r="2"/>
		</g>
		<g>
			<circle cx="184" cy="311" r="2"/>
		</g>
		<g>
			<circle cx="659" cy="311" r="2"/>
		</g>
		<g>
			<circle cx="678" cy="311" r="2"/>
		</g>
		<g>
			<circle cx="1153" cy="311" r="2"/>
		</g>
		<g>
			<circle cx="1171" cy="311" r="2"/>
		</g>
		<g>
			<circle cx="1646" cy="311" r="2"/>
		</g>
	</g>
	<g>
		<polyline class="st1" points="-319,356 -319,326 175.3,326 175.3,356 		"/>
		<path class="st1" d="M174.7,356"/>
		<polyline class="st1" points="174.7,326 669,326 669,356 		"/>
		<path class="st1" d="M668,356"/>
		<path class="st1" d="M1162.3,356"/>
		<line class="st1" x1="668" y1="326" x2="1162.3" y2="326"/>
		<polyline class="st1" points="1161.7,356 1161.7,326 1656,326 1656,356 		"/>
		<g>
			<circle cx="-309" cy="341" r="2"/>
		</g>
		<g>
			<circle cx="166" cy="341" r="2"/>
		</g>
		<g>
			<circle cx="184" cy="341" r="2"/>
		</g>
		<g>
			<circle cx="659" cy="341" r="2"/>
		</g>
		<g>
			<circle cx="678" cy="341" r="2"/>
		</g>
		<g>
			<circle cx="1153" cy="341" r="2"/>
		</g>
		<g>
			<circle cx="1171" cy="341" r="2"/>
		</g>
		<g>
			<circle cx="1646" cy="341" r="2"/>
		</g>
	</g>
	<g>
		<polyline class="st1" points="-319,386 -319,356 175.3,356 175.3,386 		"/>
		<path class="st1" d="M174.7,386"/>
		<polyline class="st1" points="174.7,356 669,356 669,386 		"/>
		<path class="st1" d="M668,386"/>
		<path class="st1" d="M1162.3,386"/>
		<line class="st1" x1="668" y1="356" x2="1162.3" y2="356"/>
		<polyline class="st1" points="1161.7,386 1161.7,356 1656,356 1656,386 		"/>
		<g>
			<circle cx="-309" cy="371" r="2"/>
		</g>
		<g>
			<circle cx="166" cy="371" r="2"/>
		</g>
		<g>
			<circle cx="184" cy="371" r="2"/>
		</g>
		<g>
			<circle cx="659" cy="371" r="2"/>
		</g>
		<g>
			<circle cx="678" cy="371" r="2"/>
		</g>
		<g>
			<circle cx="1153" cy="371" r="2"/>
		</g>
		<g>
			<circle cx="1171" cy="371" r="2"/>
		</g>
		<g>
			<circle cx="1646" cy="371" r="2"/>
		</g>
	</g>
	<g>
		<polyline class="st1" points="-319,416 -319,386 175.3,386 175.3,416 		"/>
		<path class="st1" d="M174.7,416"/>
		<polyline class="st1" points="174.7,386 669,386 669,416 		"/>
		<path class="st1" d="M668,416"/>
		<path class="st1" d="M1162.3,416"/>
		<line class="st1" x1="668" y1="386" x2="1162.3" y2="386"/>
		<polyline class="st1" points="1161.7,416 1161.7,386 1656,386 1656,416 		"/>
		<g>
			<circle cx="-309" cy="401" r="2"/>
		</g>
		<g>
			<circle cx="166" cy="401" r="2"/>
		</g>
		<g>
			<circle cx="184" cy="401" r="2"/>
		</g>
		<g>
			<circle cx="659" cy="401" r="2"/>
		</g>
		<g>
			<circle cx="678" cy="401" r="2"/>
		</g>
		<g>
			<circle cx="1153" cy="401" r="2"/>
		</g>
		<g>
			<circle cx="1171" cy="401" r="2"/>
		</g>
		<g>
			<circle cx="1646" cy="401" r="2"/>
		</g>
	</g>
	<g>
		<polyline class="st1" points="-319,446 -319,416 175.3,416 175.3,446 		"/>
		<path class="st1" d="M174.7,446"/>
		<polyline class="st1" points="174.7,416 669,416 669,446 		"/>
		<path class="st1" d="M668,446"/>
		<path class="st1" d="M1162.3,446"/>
		<line class="st1" x1="668" y1="416" x2="1162.3" y2="416"/>
		<polyline class="st1" points="1161.7,446 1161.7,416 1656,416 1656,446 		"/>
		<g>
			<circle cx="-309" cy="431" r="2"/>
		</g>
		<g>
			<circle cx="166" cy="431" r="2"/>
		</g>
		<g>
			<circle cx="184" cy="431" r="2"/>
		</g>
		<g>
			<circle cx="659" cy="431" r="2"/>
		</g>
		<g>
			<circle cx="678" cy="431" r="2"/>
		</g>
		<g>
			<circle cx="1153" cy="431" r="2"/>
		</g>
		<g>
			<circle cx="1171" cy="431" r="2"/>
		</g>
		<g>
			<circle cx="1646" cy="431" r="2"/>
		</g>
	</g>
	<g>
		<polyline class="st1" points="-319,476 -319,446 175.3,446 175.3,476 		"/>
		<path class="st1" d="M174.7,476"/>
		<polyline class="st1" points="174.7,446 669,446 669,476 		"/>
		<path class="st1" d="M668,476"/>
		<path class="st1" d="M1162.3,476"/>
		<line class="st1" x1="668" y1="446" x2="1162.3" y2="446"/>
		<polyline class="st1" points="1161.7,476 1161.7,446 1656,446 1656,476 		"/>
		<g>
			<circle cx="-309" cy="461" r="2"/>
		</g>
		<g>
			<circle cx="166" cy="461" r="2"/>
		</g>
		<g>
			<circle cx="184" cy="461" r="2"/>
		</g>
		<g>
			<circle cx="659" cy="461" r="2"/>
		</g>
		<g>
			<circle cx="678" cy="461" r="2"/>
		</g>
		<g>
			<circle cx="1153" cy="461" r="2"/>
		</g>
		<g>
			<circle cx="1171" cy="461" r="2"/>
		</g>
		<g>
			<circle cx="1646" cy="461" r="2"/>
		</g>
	</g>
	<g>
		<polyline class="st1" points="-319,506 -319,476 175.3,476 175.3,506 		"/>
		<path class="st1" d="M174.7,506"/>
		<polyline class="st1" points="174.7,476 669,476 669,506 		"/>
		<path class="st1" d="M668,506"/>
		<path class="st1" d="M1162.3,506"/>
		<line class="st1" x1="668" y1="476" x2="1162.3" y2="476"/>
		<polyline class="st1" points="1161.7,506 1161.7,476 1656,476 1656,506 		"/>
		<g>
			<circle cx="-309" cy="491" r="2"/>
		</g>
		<g>
			<circle cx="166" cy="491" r="2"/>
		</g>
		<g>
			<circle cx="184" cy="491" r="2"/>
		</g>
		<g>
			<circle cx="659" cy="491" r="2"/>
		</g>
		<g>
			<circle cx="678" cy="491" r="2"/>
		</g>
		<g>
			<circle cx="1153" cy="491" r="2"/>
		</g>
		<g>
			<circle cx="1171" cy="491" r="2"/>
		</g>
		<g>
			<circle cx="1646" cy="491" r="2"/>
		</g>
	</g>
	<g>
		<polyline class="st1" points="-319,536 -319,506 175.3,506 175.3,536 		"/>
		<path class="st1" d="M174.7,536"/>
		<polyline class="st1" points="174.7,506 669,506 669,536 		"/>
		<path class="st1" d="M668,536"/>
		<path class="st1" d="M1162.3,536"/>
		<line class="st1" x1="668" y1="506" x2="1162.3" y2="506"/>
		<polyline class="st1" points="1161.7,536 1161.7,506 1656,506 1656,536 		"/>
		<g>
			<circle cx="-309" cy="521" r="2"/>
		</g>
		<g>
			<circle cx="166" cy="521" r="2"/>
		</g>
		<g>
			<circle cx="184" cy="521" r="2"/>
		</g>
		<g>
			<circle cx="659" cy="521" r="2"/>
		</g>
		<g>
			<circle cx="678" cy="521" r="2"/>
		</g>
		<g>
			<circle cx="1153" cy="521" r="2"/>
		</g>
		<g>
			<circle cx="1171" cy="521" r="2"/>
		</g>
		<g>
			<circle cx="1646" cy="521" r="2"/>
		</g>
	</g>
	<g>
		<polyline class="st1" points="-319,566 -319,536 175.3,536 175.3,566 		"/>
		<path class="st1" d="M174.7,566"/>
		<polyline class="st1" points="174.7,536 669,536 669,566 		"/>
		<path class="st1" d="M668,566"/>
		<path class="st1" d="M1162.3,566"/>
		<line class="st1" x1="668" y1="536" x2="1162.3" y2="536"/>
		<polyline class="st1" points="1161.7,566 1161.7,536 1656,536 1656,566 		"/>
		<g>
			<circle cx="-309" cy="551" r="2"/>
		</g>
		<g>
			<circle cx="166" cy="551" r="2"/>
		</g>
		<g>
			<circle cx="184" cy="551" r="2"/>
		</g>
		<g>
			<circle cx="659" cy="551" r="2"/>
		</g>
		<g>
			<circle cx="678" cy="551" r="2"/>
		</g>
		<g>
			<circle cx="1153" cy="551" r="2"/>
		</g>
		<g>
			<circle cx="1171" cy="551" r="2"/>
		</g>
		<g>
			<circle cx="1646" cy="551" r="2"/>
		</g>
	</g>
	<g>
		<polyline class="st1" points="-319,596 -319,566 175.3,566 175.3,596 		"/>
		<path class="st1" d="M174.7,596"/>
		<polyline class="st1" points="174.7,566 669,566 669,596 		"/>
		<path class="st1" d="M668,596"/>
		<path class="st1" d="M1162.3,596"/>
		<line class="st1" x1="668" y1="566" x2="1162.3" y2="566"/>
		<polyline class="st1" points="1161.7,596 1161.7,566 1656,566 1656,596 		"/>
		<g>
			<circle cx="-309" cy="581" r="2"/>
		</g>
		<g>
			<circle cx="166" cy="581" r="2"/>
		</g>
		<g>
			<circle cx="184" cy="581" r="2"/>
		</g>
		<g>
			<circle cx="659" cy="581" r="2"/>
		</g>
		<g>
			<circle cx="678" cy="581" r="2"/>
		</g>
		<g>
			<circle cx="1153" cy="581" r="2"/>
		</g>
		<g>
			<circle cx="1171" cy="581" r="2"/>
		</g>
		<g>
			<circle cx="1646" cy="581" r="2"/>
		</g>
	</g>
	<g>
		<polyline class="st1" points="-319,640 -319,596 175.3,596 175.3,640 		"/>
		<path class="st1" d="M174.7,626"/>
		<polyline class="st1" points="174.7,596 669,596 669,640 		"/>
		<path class="st1" d="M668,626"/>
		<path class="st1" d="M1162.3,626"/>
		<line class="st1" x1="668" y1="596" x2="1162.3" y2="596"/>
		<polyline class="st1" points="1161.7,640 1161.7,596 1656,596 1656,640 		"/>
		<g>
			<circle cx="-309" cy="611" r="2"/>
		</g>
		<g>
			<circle cx="166" cy="611" r="2"/>
		</g>
		<g>
			<circle cx="184" cy="611" r="2"/>
		</g>
		<g>
			<circle cx="659" cy="611" r="2"/>
		</g>
		<g>
			<circle cx="678" cy="611" r="2"/>
		</g>
		<g>
			<circle cx="1153" cy="611" r="2"/>
		</g>
		<g>
			<circle cx="1171" cy="611" r="2"/>
		</g>
		<g>
			<circle cx="1646" cy="611" r="2"/>
		</g>
	</g>
</g>
<g id="Layer_3">
	<g>
		<polygon class="st2" points="1278.3,472.2 1018.3,553.6 1027.5,582.7 1287.4,501.3 		"/>
		<g>
			<circle cx="1274.4" cy="489.4" r="2.1"/>
		</g>
		<g>
			<circle cx="1031" cy="565.5" r="2.1"/>
		</g>
	</g>
	<path class="st2" d="M465.8,605.3l-11.9-17.1c-2.2-3.1-5.2-5.5-8.7-6.8l-9.6-3.6c-5.6-2.1-11.9-1.4-16.9,1.9l-3.6,2.4
		c-4.1,2.7-7,7-8,11.9l-3.9,19.3c-2.4,11.8,6.9,22.7,19,22.3l29-1C465.9,634.2,474.3,617.5,465.8,605.3z"/>
	<polygon class="st3" points="526.5,202.5 501.6,463.4 524.5,680.5 800.5,704.5 821.5,475.5 809.5,205.5 	"/>
	<g>
		
			<rect x="650.9" y="37.6" transform="matrix(1.350274e-02 -0.9999 0.9999 1.350274e-02 454.0702 866.4366)" class="st2" width="30.5" height="331"/>
		<g>
			<circle cx="823.1" cy="205.2" r="2.1"/>
		</g>
		<g>
			<circle cx="509.3" cy="200.8" r="2.1"/>
		</g>
	</g>
	<g>
		
			<rect x="793.9" y="197.5" transform="matrix(0.999 -4.472572e-02 4.472572e-02 0.999 -15.4258 36.5531)" class="st2" width="30.5" height="331"/>
		<g>
			<circle cx="816.1" cy="519.8" r="2.1"/>
		</g>
		<g>
			<circle cx="802.3" cy="206.2" r="2.1"/>
		</g>
	</g>
	<g>
		<polygon class="st2" points="483.5,442.4 509.9,713.5 540.2,710.5 513.8,439.4 		"/>
		<g>
			<circle cx="499.5" cy="449.7" r="2.1"/>
		</g>
		<g>
			<circle cx="524.1" cy="703.5" r="2.1"/>
		</g>
	</g>
	<g>
		<path class="st4" d="M421.2,329c0,4-4,7-6.6,9.6s-5.6,4.8-9.6,4.8s-7.9-1.3-10.5-3.9s-5.8-6.5-5.8-10.5s4.5-6.6,7.1-9.2
			s5.2-4.6,9.2-4.6s8.2,0.3,10.8,2.9C418.5,320.8,421.2,325,421.2,329z"/>
	</g>
	<g>
		<polygon class="st2" points="802.5,508.4 771,779 801.3,782.5 832.7,511.9 		"/>
		<g>
			<circle cx="816.5" cy="519" r="2.1"/>
		</g>
		<g>
			<circle cx="787" cy="772.2" r="2.1"/>
		</g>
	</g>
	<path class="st5" d="M-674.1-706.2l-0.2-0.3c-8.6-14.9-9-32.9-2-48.7c2.4-5.3,3.6-11.3,3.2-17.6c-1.1-19.5-17.2-35.1-36.7-35.7
		c-21.5-0.7-39.2,16.6-39.2,38c0,6.1,1.4,11.8,4,16.9c8,16.1,8.1,35,0,51.1l0,0l-56.9,81.9c-3.6,5.2-5.1,11.6-4.2,17.8l5.5,36.5
		c1.1,7.1,8.4,11.3,15.1,8.8l0,0l-0.7-36.9c-0.2-9.1,3.1-17.8,9.3-24.5l15.3-16.6c4-4.3,11.2-1.4,11.1,4.5l-5.2,203.1
		c-0.1,5.2,4,9.4,9.2,9.4h8.6L-717-524c0.6-3.2,3.4-5.5,6.7-5.5h14.1c3.7,0,6.9,2.6,7.7,6.2l23.6,104.8h9.9c5.4,0,9.7-4.6,9.4-10
		L-659.8-630c-0.3-3.6,4.2-5.6,6.7-2.9l15.9,17.3c6,6.5,9.2,15.1,9,23.9l-0.7,37.3l0,0c6.7,2.6,14-1.7,15.1-8.8l5.9-39.3
		c0.7-4.4-0.4-9-3-12.7L-674.1-706.2z"/>
	<g>
		<rect x="-539" y="-822" class="st6" width="63" height="63"/>
		<rect x="-476" y="-822" class="st7" width="63" height="63"/>
		<rect x="-413" y="-822" class="st8" width="63" height="63"/>
		<rect x="-350" y="-822" class="st9" width="63" height="63"/>
		<rect x="-287" y="-822" class="st10" width="63" height="63"/>
		<rect x="-224" y="-822" class="st11" width="63" height="63"/>
		<rect x="-161" y="-822" class="st12" width="63" height="63"/>
		<rect x="-98" y="-822" class="st13" width="63" height="63"/>
		<rect x="-35" y="-822" class="st7" width="63" height="63"/>
	</g>
	<g>
		<path class="st4" d="M908.2,329c0,4-4,7-6.6,9.6s-5.6,4.8-9.6,4.8s-7.9-1.3-10.5-3.9s-5.8-6.5-5.8-10.5s4.5-6.6,7.1-9.2
			s5.2-4.6,9.2-4.6s8.2,0.3,10.8,2.9C905.5,320.8,908.2,325,908.2,329z"/>
	</g>
	<path class="st14" d="M916.5,298.5h6l-28.6-19.1c9.8-0.7,17.6-8.9,17.6-18.9c0-10.5-8.5-19-19-19s-19,8.5-19,19
		c0,10,7.7,18.2,17.6,18.9l-29.6,19.1h6v61h-6c0,3.9,3.1,7,7,7h47c3.9,0,7-3.1,7-7h-6V298.5z M878.5,260.5c0-7.7,6.3-14,14-14
		s14,6.3,14,14c0,7.7-6.3,14-14,14S878.5,268.2,878.5,260.5z M890.5,359.5h-20v-61h20V359.5z M913.5,359.5h-20v-61h20V359.5z"/>
	<g>
		<g>
			<g>
				<defs>
					<circle id="SVGID_1_" cx="405.5" cy="326.5" r="166.5"/>
				</defs>
				<clipPath id="SVGID_2_">
					<use xlink:href="#SVGID_1_"  style="overflow:visible;"/>
				</clipPath>
				<g class="st15">
					<polygon class="st16" points="506.9,189.5 486.4,461.2 516.8,463.4 537.3,191.8 					"/>
					<g>
						<circle cx="521.4" cy="199.5" r="2.1"/>
					</g>
					<g>
						<circle cx="502.1" cy="453.7" r="2.1"/>
					</g>
				</g>
			</g>
		</g>
		<g>
			<g>
				<defs>
					<circle id="SVGID_3_" cx="405.5" cy="326.5" r="166.5"/>
				</defs>
				<clipPath id="SVGID_4_">
					<use xlink:href="#SVGID_3_"  style="overflow:visible;"/>
				</clipPath>
				<g class="st17">
					<polygon class="st16" points="483.5,442.4 509.9,713.5 540.2,710.5 513.8,439.4 					"/>
					<g>
						<circle cx="499.5" cy="449.7" r="2.1"/>
					</g>
					<g>
						<circle cx="524.1" cy="703.5" r="2.1"/>
					</g>
				</g>
			</g>
		</g>
		<g>
			<g>
				<defs>
					<circle id="SVGID_5_" cx="405.5" cy="326.5" r="166.5"/>
				</defs>
				<clipPath id="SVGID_6_">
					<use xlink:href="#SVGID_5_"  style="overflow:visible;"/>
				</clipPath>
				<g class="st18">
					
						<rect x="650.9" y="37.6" transform="matrix(1.350274e-02 -0.9999 0.9999 1.350274e-02 454.0702 866.4366)" class="st16" width="30.5" height="331"/>
					<g>
						<circle cx="823.1" cy="205.2" r="2.1"/>
					</g>
					<g>
						<circle cx="509.3" cy="200.8" r="2.1"/>
					</g>
				</g>
			</g>
		</g>
	</g>
	<g>
		<g>
			<g>
				<defs>
					<circle id="SVGID_7_" cx="892.5" cy="326.5" r="166.5"/>
				</defs>
				<clipPath id="SVGID_8_">
					<use xlink:href="#SVGID_7_"  style="overflow:visible;"/>
				</clipPath>
				<g class="st19">
					
						<rect x="650.9" y="37.6" transform="matrix(1.350274e-02 -0.9999 0.9999 1.350274e-02 454.0702 866.4366)" class="st16" width="30.5" height="331"/>
					<g>
						<circle cx="823.1" cy="205.2" r="2.1"/>
					</g>
					<g>
						<circle cx="509.3" cy="200.8" r="2.1"/>
					</g>
				</g>
			</g>
		</g>
		<g>
			<g>
				<defs>
					<circle id="SVGID_9_" cx="892.5" cy="326.5" r="166.5"/>
				</defs>
				<clipPath id="SVGID_10_">
					<use xlink:href="#SVGID_9_"  style="overflow:visible;"/>
				</clipPath>
				<g class="st20">
					
						<rect x="793.9" y="197.5" transform="matrix(0.999 -4.472572e-02 4.472572e-02 0.999 -15.4258 36.5531)" class="st16" width="30.5" height="331"/>
					<g>
						<circle cx="816.1" cy="519.8" r="2.1"/>
					</g>
					<g>
						<circle cx="802.3" cy="206.2" r="2.1"/>
					</g>
				</g>
			</g>
		</g>
	</g>
	<path class="st2" d="M456.2,620.5L456.2,620.5c1.2-1.6,2.8-2.9,4.7-3.7l13.9-6c2.7-1.2,4.9-3.4,6-6.1l2.8-6.8
		c1.5-3.7,4.8-6.3,8.7-6.9l16.5-2.5c2.1-0.3,4.2-0.1,6.2,0.8l21.4,9.2c2.3,1,4.3,2.8,5.5,5l3.4,6.2c0.5,0.9,0.9,1.9,1.1,2.9l1.7,7.5
		c1.5,6.8-3.4,13.3-10.3,13.8l-71.7,4.6C456.5,639.1,450.5,628.3,456.2,620.5z"/>
	<path class="st14" d="M429.5,298.5h6l-28.6-19.1c9.8-0.7,17.6-8.9,17.6-18.9c0-10.5-8.5-19-19-19s-19,8.5-19,19
		c0,10,7.7,18.2,17.6,18.9l-29.6,19.1h6v61h-6c0,3.9,3.1,7,7,7h47c3.9,0,7-3.1,7-7h-6V298.5z M391.5,260.5c0-7.7,6.3-14,14-14
		s14,6.3,14,14c0,7.7-6.3,14-14,14S391.5,268.2,391.5,260.5z M403.5,359.5h-20v-61h20V359.5z M426.5,359.5h-20v-61h20V359.5z"/>
	<circle class="st14" cx="405.5" cy="251.5" r="7"/>
	<circle class="st14" cx="892.5" cy="251.5" r="7"/>
	<path class="st5" d="M-236.6-536.6l-9.3-26.6c-1.6-4.6-5.1-8.3-9.6-10.2l-17.3-7.2c-3-1.2-5.6-3.3-7.5-6l-20.7-29.3
		c-0.3-0.4-0.6-0.9-0.9-1.4l-8.1-14.1c-2.3-3.9-6-6.8-10.4-8l-18.2-5c-2.6-0.7-5-2.1-7-3.9l-12.9-11.9c-4.9-4.5-11.9-5.8-18.1-3.3
		l-56.7,23c-4.6,1.9-8.1,5.6-9.8,10.3l-2.8,8c-1.7,4.9-1.1,10.2,1.6,14.6l6,9.8c4.9,8,2.5,18.3-5.3,23.4l0,0
		c-1.9,1.2-3.6,2.9-4.9,4.8l-12.4,18.3c-1.7,2.5-2.7,5.4-2.9,8.4l-0.5,7.1c-0.7,9.1,6,17.2,15.1,18.3l15.8,1.9
		c0.6,0.1,1.3,0.1,1.9,0.1l178.6,1.8C-241.1-513.6-232.7-525.4-236.6-536.6z"/>
	<path class="st2" d="M92.6,614.7c-7.2-5.3-14-10.2-17.3-12.6c-1.3-0.9-2.8-1.6-4.4-1.8l-30.8-5.2c-0.7-0.1-1.4-0.3-2-0.6l-48-18.7
		c-1.8-0.7-3.8-0.9-5.7-0.5l-42.4,7.8c-1.6,0.3-3,0.9-4.3,1.9l-16.1,11.9c-0.3,0.2-0.6,0.5-0.9,0.7l-21.4,19.8
		c-7,6.5-2.3,18.2,7.2,18.1l180-1.9C96.5,633.4,100.7,620.6,92.6,614.7z"/>
	<path class="st2" d="M75.9,624.5l0.5-2.1c0.7-3.1,2.6-5.8,5.3-7.6l14.8-9.7c2.6-1.7,5.7-2.3,8.7-1.8l10,1.7
		c2.2,0.4,4.2,1.3,5.8,2.7l12.2,10.1c2.1,1.8,3.6,4.2,4.2,6.9l0,0c1.6,7.6-4.2,14.8-12,14.8H87.9C80,639.5,74.2,632.2,75.9,624.5z"
		/>
	<path class="st2" d="M221.5,633.5l2.2-5.4c1.2-3,3.4-5.4,6.3-6.9l2-1c3.5-1.8,7.6-1.8,11.2-0.3l0.9,0.4c1.6,0.7,3.1,1.8,4.3,3.1
		l9.2,10"/>
	<path class="st2" d="M1054.4,636.7l34.5-77.8c0.4-0.9,0.7-1.9,0.8-2.9l1.7-12.1c1.4-10.2,14.8-13,20.1-4.2l5.8,9.4
		c0.2,0.3,0.3,0.6,0.5,0.9l17.4,35.8c0.9,1.8,1.2,3.8,1,5.9l-2.2,22.4c-0.3,2.9,0.6,5.8,2.4,8l2.8,3.4c5.4,6.6,1.5,16.6-7,17.7
		l-66.3,8.8C1057.4,653.1,1050.9,644.5,1054.4,636.7z"/>
	<path class="st2" d="M1131.7,562c-0.1,0.1-0.1,0.1-0.2,0.2c-3.4,3.9-3.9,9.5-1.3,13.9l15.9,27.1c0.9,1.5,2.1,2.8,3.6,3.8l18.5,12.6
		c0.8,0.6,1.7,1,2.7,1.4l32.6,11.8c1.3,0.5,2.7,0.7,4,0.7h3.4c9.2,0,14.9-9.9,10.4-17.8l-0.7-1.3c-0.7-1.2-1.6-2.3-2.7-3.2
		l-33.7-28.1c-0.4-0.4-0.9-0.7-1.3-1l-35.8-22.3C1142,556.7,1135.6,557.6,1131.7,562z"/>
	<path class="st2" d="M1059,620L1059,620c-1-1-2.3-1.7-3.7-2l-13.6-2.9c-2.1-0.4-4.2,0-5.9,1.3l-3.8,2.8c-1,0.8-1.9,1.8-2.4,3v0.1
		c-2,4.8,1.5,10.1,6.7,10.1h17.4C1060.4,632.5,1063.6,624.6,1059,620z"/>
	<g>
		
			<rect x="253.7" y="62.8" transform="matrix(0.9872 -0.1596 0.1596 0.9872 -7.0837 67.9049)" class="st2" width="331" height="30.5"/>
		<g>
			<circle cx="574.1" cy="53.1" r="2.1"/>
		</g>
		<g>
			<circle cx="264.3" cy="102.9" r="2.1"/>
		</g>
	</g>
	<g>
		<polygon class="st2" points="-98,398.5 28.7,504.2 48.2,480.8 -78.5,375.1 		"/>
		<g>
			<circle cx="-82.8" cy="391.8" r="2.1"/>
		</g>
		<g>
			<circle cx="31.8" cy="487.1" r="2.1"/>
		</g>
	</g>
</g>
</svg>
