<?xml version="1.0" encoding="utf-8"?>
<!-- Generator: Adobe Illustrator 22.0.1, SVG Export Plug-In . SVG Version: 6.00 Build 0)  -->
<svg version="1.1" id="Layer_1" xmlns="http://www.w3.org/2000/svg" xmlns:xlink="http://www.w3.org/1999/xlink" x="0px" y="0px"
	 viewBox="0 0 1340 630" style="enable-background:new 0 0 1340 630;" xml:space="preserve">
<style type="text/css">
	.st0{fill:#DD796F;}
	.st1{fill:none;stroke:#000000;stroke-miterlimit:10;}
	.st2{fill:#EF5B49;}
	.st3{fill:#E8E7E7;stroke:#000000;stroke-miterlimit:10;}
	.st4{display:none;}
	.st5{display:inline;fill:#F8A079;stroke:#000000;stroke-miterlimit:10;}
	.st6{display:inline;fill:#F2F2F2;stroke:#000000;stroke-miterlimit:10;}
	.st7{display:inline;}
	.st8{fill:#EF5B49;stroke:#000000;stroke-miterlimit:10;}
	.st9{fill:#CFD9C5;stroke:#000000;stroke-miterlimit:10;}
	.st10{display:inline;fill:#EF5B49;stroke:#000000;stroke-miterlimit:10;}
	.st11{display:inline;fill:none;stroke:#000000;stroke-miterlimit:10;}
	.st12{display:inline;fill:#E8E7E7;stroke:#000000;stroke-miterlimit:10;}
	.st13{display:inline;fill:#CFD9C5;stroke:#000000;stroke-miterlimit:10;}
	.st14{clip-path:url(#SVGID_3_);}
	.st15{fill:#CECEC6;stroke:#000000;stroke-miterlimit:10;}
</style>
<g>
	<path class="st0" d="M413.4,455.5c-6-4.2-14.9-16.6-24.7-28.4c-7.8-9.5-13.8-19.6-13.7-32.5c0.1-11.8,2.7-23.3,12.7-34
		c7.3-7.8,16.7-16.4,28.8-24.5c9.3-6.3,20.7-11.8,32.8-18.6c10.9-6.2,22.8-8.9,32.6-14c11.2-5.7,21.5-11.2,31.6-15.7
		c11.4-5.2,22.4-8.9,32.8-12.9c11.5-4.5,20.7-13.3,31.5-16.9c11.4-3.9,23.4-5,34.4-8.6c11.1-3.6,21.6-8.8,33-12.9
		c10.7-3.8,21.7-7.5,33.1-12.3c10.3-4.3,22.1-6.7,33.3-12.2c10-4.9,18.3-14.1,29.3-20.3c12.8-7.2,22.8-13.2,32-18.8
		c10.9-6.7,20.3-13.3,31.8-19.5c9.3-5.1,21.6-7.2,35.1-13c12.1-5.2,23.9-9.3,35-13.3c12.7-4.5,23.8-10.9,34.9-14
		c13.6-3.9,26.7-3.3,37.3-5.5c18.2-3.8,31-4.9,36.9-5.6c12.2-1.5,24.8-8.2,38.7-9.2c12.5-0.9,25.9-1.7,39.7-1.2
		c12.5,0.5,25.4,4.8,39,7.2c12.3,2.2,24.9,5.8,38,10c11.5,3.7,26.2,4.8,40.2,11.7c11.2,5.5,22.2,14.6,34.1,24.4
		c10.7,8.8,17.5,20.2,25,29.6c8.8,11.1,17.5,20.8,22.8,31.2c7.2,13.9,12.2,26.4,15.5,35.6c3.2,9.1,7,19.9,10.3,31.7
		c2.8,10.2,1.5,21.8,2.7,33.1c1.1,10.8,4.2,21.7,2.5,32.9c-1.6,10.6-4.7,21.3-10,31.7c-6.4,12.6-16.3,20.8-25.8,29
		c-9.9,8.6-20.5,15.8-32,22.2c-11.5,6.4-21.3,15.6-32.7,20.9c-12,5.6-25.3,7.6-36.8,12.1c-12.5,4.9-24.9,8.1-36.6,11.9
		c-13.1,4.2-24.5,11.2-36.1,14.2c-14.1,3.6-27.3,4.1-38.2,6.2c-19.5,3.7-32.9,6.6-37.9,7.1c-10.2,1.1-22.3,3.3-36.8,3.6
		c-10.8,0.2-23.1,0.4-37,0.2c-11.2-0.2-23.5-0.5-36.9-0.9c-11.4-0.3-23.5-5.1-36.7-5.6c-11.5-0.4-23.8-1.6-36.8-2.1
		c-11.7-0.5-24,1.7-37,1.2c-11.7-0.5-23.9-3.2-36.8-3.8c-14.3-0.6-26.9-0.2-38-0.7c-15.4-0.7-27.8-0.7-37.9-1.2
		c-20.1-1.2-30.9-3.5-37.7-4.2c-15.1-1.6-9.8-0.2-38-0.7c-13.4-0.2-25.8,1.6-37.3,1.6c-13.5,0-25.9,0.1-37.4-0.1
		c-13.5-0.2-25.9-1.7-37.3-2.9c-13.1-1.4-25.1-4.2-36.5-8.1C436.6,466.7,424.3,463.1,413.4,455.5z"/>
	<path class="st1" d="M413.4,455.5c-6-4.2-14.9-16.6-24.7-28.4c-7.8-9.5-13.8-19.6-13.7-32.5c0.1-11.8,2.7-23.3,12.7-34
		c7.3-7.8,16.7-16.4,28.8-24.5c9.3-6.3,20.7-11.8,32.8-18.6c10.9-6.2,22.8-8.9,32.6-14c11.2-5.7,21.5-11.2,31.6-15.7
		c11.4-5.2,22.4-8.9,32.8-12.9c11.5-4.5,20.7-13.3,31.5-16.9c11.4-3.9,23.4-5,34.4-8.6c11.1-3.6,21.6-8.8,33-12.9
		c10.7-3.8,21.7-7.5,33.1-12.3c10.3-4.3,22.1-6.7,33.3-12.2c10-4.9,18.3-14.1,29.3-20.3c12.8-7.2,22.8-13.2,32-18.8
		c10.9-6.7,20.3-13.3,31.8-19.5c9.3-5.1,21.6-7.2,35.1-13c12.1-5.2,23.9-9.3,35-13.3c12.7-4.5,23.8-10.9,34.9-14
		c13.6-3.9,26.7-3.3,37.3-5.5c18.2-3.8,31-4.9,36.9-5.6c12.2-1.5,24.8-8.2,38.7-9.2c12.5-0.9,25.9-1.7,39.7-1.2
		c12.5,0.5,25.4,4.8,39,7.2c12.3,2.2,24.9,5.8,38,10c11.5,3.7,26.2,4.8,40.2,11.7c11.2,5.5,22.2,14.6,34.1,24.4
		c10.7,8.8,17.5,20.2,25,29.6c8.8,11.1,17.5,20.8,22.8,31.2c7.2,13.9,12.2,26.4,15.5,35.6c3.2,9.1,7,19.9,10.3,31.7
		c2.8,10.2,1.5,21.8,2.7,33.1c1.1,10.8,4.2,21.7,2.5,32.9c-1.6,10.6-4.7,21.3-10,31.7c-6.4,12.6-16.3,20.8-25.8,29
		c-9.9,8.6-20.5,15.8-32,22.2c-11.5,6.4-21.3,15.6-32.7,20.9c-12,5.6-25.3,7.6-36.8,12.1c-12.5,4.9-24.9,8.1-36.6,11.9
		c-13.1,4.2-24.5,11.2-36.1,14.2c-14.1,3.6-27.3,4.1-38.2,6.2c-19.5,3.7-32.9,6.6-37.9,7.1c-10.2,1.1-22.3,3.3-36.8,3.6
		c-10.8,0.2-23.1,0.4-37,0.2c-11.2-0.2-23.5-0.5-36.9-0.9c-11.4-0.3-23.5-5.1-36.7-5.6c-11.5-0.4-23.8-1.6-36.8-2.1
		c-11.7-0.5-24,1.7-37,1.2c-11.7-0.5-23.9-3.2-36.8-3.8c-14.3-0.6-26.9-0.2-38-0.7c-15.4-0.7-27.8-0.7-37.9-1.2
		c-20.1-1.2-30.9-3.5-37.7-4.2c-15.1-1.6-9.8-0.2-38-0.7c-13.4-0.2-25.8,1.6-37.3,1.6c-13.5,0-25.9,0.1-37.4-0.1
		c-13.5-0.2-25.9-1.7-37.3-2.9c-13.1-1.4-25.1-4.2-36.5-8.1C436.6,466.7,424.3,463.1,413.4,455.5z"/>
</g>
<g id="Layer_2_1_">
</g>
<g>
	<path class="st2" d="M1697.1-511c-0.6-7.1-12.4-13.3-25.6-21.3c-8.1-4.9-18.5-8.1-29.9-12.6c-9.5-3.8-19.7-7-30.9-10.1
		c-10.2-2.8-20.6-5.3-31.7-7.3c-10.7-1.9-20.3-9.5-31.3-10.5c-9.3-4.5-20-8.7-31.8-12.6c-10.3-3.4-22.4-3.6-34-6.3
		c-10.9-2.5-22.1-5.2-33.7-6.7c-11.3-1.4-22.8-3.4-34.2-3.6c-11.6-0.2-23.5-1.5-34.6-0.1c-11.6,1.4-22.7,6.1-33.4,9.5
		c-10.2,3.2-20.8,8.8-30.9,14.4c-11,6.1-22.5,10.5-28.4,18.1c-4.7-0.9-8.7,1.5-13.6,0.8c-7-6.4-16.1-16.6-29.7-22.8
		c-10.2-4.6-23.3-5.8-36-9.7c-11.3-3.4-23.2-6.9-35.8-9.4c-11.9-2.3-24.6-2.6-37-3.7c-9.3-4.5-18.9-12.8-30.7-16.7
		c-10.3-3.4-22.3-4-33.9-6.7c-10.9-2.5-22.7-1.4-34.2-2.9c-11.3-1.4-22.4-6.7-33.8-6.9c-11.6-0.2-23,2.5-34.2,3.8
		c-11.6,1.4-23.4,1.5-34.1,4.9c-10.2,3.2-20.6,9.5-30.6,15.1c-11,6.1-20.9,13.2-26.8,20.8c-10.2-2-21.2-1.1-31.7-2.2
		c-10.5-1.1-20.8-6.3-31.3-6.3c-10.7,0-21,4.4-31.3,5.7c-10.7,1.4-22.3-1.7-32.1,1.4c-10.7,3.4-20,14.1-30.5,20
		c-11.8,6.7-22.7,12.9-28,21.2c-4.3-0.5-8.7-2.8-13-3.1c-9.3-4.5-21-6.3-32.7-10.2c-10.3-3.4-21.6-5.1-33.3-7.7
		c-10.9-2.5-21.9-4.8-33.5-6.3c-11.3-1.4-22.6-1.1-34-1.3c-11.6-0.2-22.9-2.7-34.1-1.4c-11.6,1.4-23.3,2.1-33.9,5.4
		c-10.2,3.2-20.5,9.5-30.6,15c-11,6.1-21.6,11.2-27.6,18.8c-10.2-2-20.5-0.1-31-1.2c-10.5-1.1-20.8,0-31.3,0
		c-10.7,0-21.3-3.5-31.6-2.1c-10.7,1.4-22,0.7-31.8,3.8c-9,2.8-18.5,8.4-27.6,13.2c-9.5,4.9-15.6,14.3-22.2,20.5
		c-8.9,8.4-16.7,16.1-13.6,25c3,8.4,12.3,17.9,24.4,23.3c9.4,4.2,21.9,4.5,32.5,7.2c12,3.1,23,8.6,31.4,10.3
		c5.2,1,18.7,0.6,36.9,1.9c9.5,6.5,22.4,13.7,36.1,17.7c14.4,4.1,29,7.9,39.1,9.9c5.6,1.1,21,3.5,41.7,4.6c12,0.6,26.3-1.1,41.8-2.3
		c12.9-1,26.4-4.9,40.8-7.9c8-1.7,18.9-3.2,30.1-6c9.9-2.5,21-3.6,30.1-7c11.8-4.5,22-10.5,26.5-16.5c0.9,0.1,1.3-2.2,2.2-2.2
		c0.1,0.4-1.4,2.6-1.3,3c3,8.4,12,18.1,24,23.5c9.4,4.2,21.7,5,32.4,7.8c12,3.1,23.4,6.4,31.9,8.1c5.2,1,19.4-1.7,37.7-0.5
		c9.5,6.5,22.2,14.5,35.9,18.4c14.4,4.1,28.7,7.9,38.8,9.9c5.6,1.1,20.7,0.3,41.4,1.4c12,0.6,26,5.6,41.5,4.4
		c12.9-1,26.1-6.8,40.5-9.8c8-1.7,19.1-2,30.3-4.9c9.9-2.5,20.9-3.7,30-7.2c11.8-4.5,20.6-12.1,25.1-18.1c9.2,0.9,20.6,2.7,33.1,2.7
		c10.1,0,20.7-3.9,32.4-5.1c10.3-1.1,20.9-2.5,32.1-4.9c8-1.7,18.9-2.7,30-5.6c9.9-2.5,19.9-5.7,29-9.1
		c11.7-4.4,21.9-10.4,26.4-16.4c9.5,4.5,21.7,9.1,32.7,12c12.4,3.3,24.4,5,33,6.7c5.6,1.1,20.1,2.9,40.9,4c12,0.6,26.1,7.1,41.5,5.9
		c12.9-1,26.7-4.8,41.1-7.9c8-1.7,17.7-8.1,28.9-11c9.9-2.5,21.6-0.8,30.8-4.3c11.8-4.5,20-13.8,24.4-19.8
		c9.2,0.9,21.2,4.6,33.7,4.6c10.1,0,20.9-2.6,32.6-3.8c10.3-1.1,20.7-4,31.9-6.3c8.7-1.8,20.3-4.5,32.5-7.7c11.1-2.9,22-6,31.5-10.1
		C1684-497.9,1697.8-502.5,1697.1-511z"/>
	<path class="st1" d="M1697.1-511c-0.6-7.1-12.4-13.3-25.6-21.3c-8.1-4.9-18.5-8.1-29.9-12.6c-9.5-3.8-19.7-7-30.9-10.1
		c-10.2-2.8-20.6-5.3-31.7-7.3c-10.7-1.9-20.3-9.5-31.3-10.5c-9.3-4.5-20-8.7-31.8-12.6c-10.3-3.4-22.4-3.6-34-6.3
		c-10.9-2.5-22.1-5.2-33.7-6.7c-11.3-1.4-22.8-3.4-34.2-3.6c-11.6-0.2-23.5-1.5-34.6-0.1c-11.6,1.4-22.7,6.1-33.4,9.5
		c-10.2,3.2-20.8,8.8-30.9,14.4c-11,6.1-22.5,10.5-28.4,18.1c-4.7-0.9-8.7,1.5-13.6,0.8c-7-6.4-16.1-16.6-29.7-22.8
		c-10.2-4.6-23.3-5.8-36-9.7c-11.3-3.4-23.2-6.9-35.8-9.4c-11.9-2.3-24.6-2.6-37-3.7c-9.3-4.5-18.9-12.8-30.7-16.7
		c-10.3-3.4-22.3-4-33.9-6.7c-10.9-2.5-22.7-1.4-34.2-2.9c-11.3-1.4-22.4-6.7-33.8-6.9c-11.6-0.2-23,2.5-34.2,3.8
		c-11.6,1.4-23.4,1.5-34.1,4.9c-10.2,3.2-20.6,9.5-30.6,15.1c-11,6.1-20.9,13.2-26.8,20.8c-10.2-2-21.2-1.1-31.7-2.2
		c-10.5-1.1-20.8-6.3-31.3-6.3c-10.7,0-21,4.4-31.3,5.7c-10.7,1.4-22.3-1.7-32.1,1.4c-10.7,3.4-20,14.1-30.5,20
		c-11.8,6.7-22.7,12.9-28,21.2c-4.3-0.5-8.7-2.8-13-3.1c-9.3-4.5-21-6.3-32.7-10.2c-10.3-3.4-21.6-5.1-33.3-7.7
		c-10.9-2.5-21.9-4.8-33.5-6.3c-11.3-1.4-22.6-1.1-34-1.3c-11.6-0.2-22.9-2.7-34.1-1.4c-11.6,1.4-23.3,2.1-33.9,5.4
		c-10.2,3.2-20.5,9.5-30.6,15c-11,6.1-21.6,11.2-27.6,18.8c-10.2-2-20.5-0.1-31-1.2c-10.5-1.1-20.8,0-31.3,0
		c-10.7,0-21.3-3.5-31.6-2.1c-10.7,1.4-22,0.7-31.8,3.8c-9,2.8-18.5,8.4-27.6,13.2c-9.5,4.9-15.6,14.3-22.2,20.5
		c-8.9,8.4-16.7,16.1-13.6,25c3,8.4,12.3,17.9,24.4,23.3c9.4,4.2,21.9,4.5,32.5,7.2c12,3.1,23,8.6,31.4,10.3
		c5.2,1,18.7,0.6,36.9,1.9c9.5,6.5,22.4,13.7,36.1,17.7c14.4,4.1,29,7.9,39.1,9.9c5.6,1.1,21,3.5,41.7,4.6c12,0.6,26.3-1.1,41.8-2.3
		c12.9-1,26.4-4.9,40.8-7.9c8-1.7,18.9-3.2,30.1-6c9.9-2.5,21-3.6,30.1-7c11.8-4.5,22-10.5,26.5-16.5c0.9,0.1,1.3-2.2,2.2-2.2
		c0.1,0.4-1.4,2.6-1.3,3c3,8.4,12,18.1,24,23.5c9.4,4.2,21.7,5,32.4,7.8c12,3.1,23.4,6.4,31.9,8.1c5.2,1,19.4-1.7,37.7-0.5
		c9.5,6.5,22.2,14.5,35.9,18.4c14.4,4.1,28.7,7.9,38.8,9.9c5.6,1.1,20.7,0.3,41.4,1.4c12,0.6,26,5.6,41.5,4.4
		c12.9-1,26.1-6.8,40.5-9.8c8-1.7,19.1-2,30.3-4.9c9.9-2.5,20.9-3.7,30-7.2c11.8-4.5,20.6-12.1,25.1-18.1c9.2,0.9,20.6,2.7,33.1,2.7
		c10.1,0,20.7-3.9,32.4-5.1c10.3-1.1,20.9-2.5,32.1-4.9c8-1.7,18.9-2.7,30-5.6c9.9-2.5,19.9-5.7,29-9.1
		c11.7-4.4,21.9-10.4,26.4-16.4c9.5,4.5,21.7,9.1,32.7,12c12.4,3.3,24.4,5,33,6.7c5.6,1.1,20.1,2.9,40.9,4c12,0.6,26.1,7.1,41.5,5.9
		c12.9-1,26.7-4.8,41.1-7.9c8-1.7,17.7-8.1,28.9-11c9.9-2.5,21.6-0.8,30.8-4.3c11.8-4.5,20-13.8,24.4-19.8
		c9.2,0.9,21.2,4.6,33.7,4.6c10.1,0,20.9-2.6,32.6-3.8c10.3-1.1,20.7-4,31.9-6.3c8.7-1.8,20.3-4.5,32.5-7.7c11.1-2.9,22-6,31.5-10.1
		C1684-497.9,1697.8-502.5,1697.1-511z"/>
</g>
<g>
	<rect x="-3781.7" y="1191.6" class="st3" width="5162.5" height="38.4"/>
	<rect x="-3573" y="1163.2" class="st3" width="5145" height="28.4"/>
	<rect x="-3373" y="1134.7" class="st3" width="5145" height="28.4"/>
	<rect x="-3173" y="1106.3" class="st3" width="5145" height="28.4"/>
	<rect x="-2973" y="1077.9" class="st3" width="5145" height="28.4"/>
	<rect x="-2773" y="1049.5" class="st3" width="5145" height="28.4"/>
	<rect x="-2573" y="1021" class="st3" width="5145" height="28.4"/>
	<rect x="-2361" y="992.6" class="st3" width="5145" height="28.4"/>
	<rect x="-2161" y="964.2" class="st3" width="5145" height="28.4"/>
	<rect x="-1961" y="935.8" class="st3" width="5145" height="28.4"/>
</g>
<g>
	<path class="st2" d="M267.4-709.2c-0.5-4.2-10-12.6-25-16.7c-9-2.5-20.9,0.9-31.6,0c-9.7-3.9-22.5-14-37-15.6
		c-13.3-1.5-27.7,2.3-39.5,5.2c-8.1,2-18.1,2.7-22.4,7.2c-15.8-2.6-32.8,1.5-47.3,5.2c-11.8,3-25.6,8.3-22.6,15.2
		c3.1,7,21.8,13.8,31.6,15.5c2,0.3,8.1-3.5,15.1-3.1c7.5,4.3,20.9,8.5,28.5,9.8c4.4,0.8,24.1,5.1,47.5,1.2
		c9.3-1.5,26.8-9.3,31.2-14.3c8.9,0.8,24,7.9,39.1,5.4C245.8-696,268.1-702.7,267.4-709.2z"/>
	<path class="st1" d="M267.4-709.2c-0.5-4.2-10-12.6-25-16.7c-9-2.5-20.9,0.9-31.6,0c-9.7-3.9-22.5-14-37-15.6
		c-13.3-1.5-27.7,2.3-39.5,5.2c-8.1,2-18.1,2.7-22.4,7.2c-15.8-2.6-32.8,1.5-47.3,5.2c-11.8,3-25.6,8.3-22.6,15.2
		c3.1,7,21.8,13.8,31.6,15.5c2,0.3,8.1-3.5,15.1-3.1c7.5,4.3,20.9,8.5,28.5,9.8c4.4,0.8,24.1,5.1,47.5,1.2
		c9.3-1.5,26.8-9.3,31.2-14.3c8.9,0.8,24,7.9,39.1,5.4C245.8-696,268.1-702.7,267.4-709.2z"/>
</g>
<g id="Layer_3" class="st4">
	<path class="st5" d="M-398.8-299.3c-12.6-12.2-11.4-17.5-19.7-24.5c-18.1-15.3-44.1-7.6-44.6-12.1c-0.4-3.4,14-10.2,29.7-10.8
		c15.1-0.6,24,4.7,25.8,1.8c2.2-3.6-11.6-12-22.4-28.3c-10.8-16.1-9.3-26.1-17.6-54.1c-7.5-25.4-11.8-38.2-18.8-48.5
		c-14.7-21.6-33.2-29.7-31.5-32.5c1.5-2.5,17,1.8,30,11.7c14.7,11.3,17.8,23.4,20.8,22.4c5-1.6,6.1-37.7-13.5-67
		c-15.5-23.2-37.3-32-34.5-38.4c2-4.5,14.9-4.8,25.6-1.6c34.7,10.4,44.9,56.9,53.2,54.8c7.2-1.9-2.3-44.6,2.7-45.9
		c3.4-0.9,13.3,18,17.8,39.6c4.7,22.7,2.1,42-0.2,57.4c-4.3,29.9-12.5,50-10.7,50.7c2.9,1.1,21.1-47.7,27.7-45.9
		c4.3,1.2,2.3,22.7,0.2,35.9c-6.3,39.2-20.2,45.8-18.7,71.8c0.6,9.6,3.9,19.6,10.5,39.6c7.9,23.9,14.7,35.9,11.4,38.4
		C-379.5-281.9-393-293.7-398.8-299.3z"/>
	<path class="st6" d="M-3044.5-35.2c-134.1,12-308.5,48.1-300.2,78.4c7.5,27.5,162.3,38.9,246.6,45.1c113.1,8.3,324.2,23.9,386-24.5
		c29.7-23.3,18.8-56.6-15-77.4C-2798.2-57.3-2965.3-42.3-3044.5-35.2z"/>
	<path class="st6" d="M-2905.8-130.6c-75.7,14.4-170.5,43.9-147.5,65.8c23.6,22.4,160.2,26.5,224.4,28.5
		c29.2,0.9,157.5,4,307.8-17.7c68.7-9.9,219.5-31.7,211.6-53C-2321.1-138.5-2679.9-173.4-2905.8-130.6z"/>
	<path class="st6" d="M-2439.3-473.9c-49.2-31.4-119.3-21.6-152.7,22.7c-19,25.2-27.6,63.7-13.6,93.7c32.3,69,177.5,79.4,213.1,22.7
		C-2369.4-371.5-2388.7-441.6-2439.3-473.9z"/>
	<rect x="-3381.3" y="-1043" class="st6" width="450" height="802"/>
	<g class="st7">
		<path class="st8" d="M519.7-37.7L519.7-37.7c-89.7,0-162.5,72.8-162.5,162.5v420.7h325V124.8C682.2,35.1,609.4-37.7,519.7-37.7z"
			/>
		<circle class="st9" cx="629.8" cy="289.4" r="22.8"/>
	</g>
	<rect x="-3193.5" y="1229.8" class="st10" width="136.9" height="136.9"/>
	<polyline class="st11" points="-3192.9,1229.4 -3124.5,1186.4 -3056.8,1229.4 	"/>
	<circle class="st12" cx="-3124.2" cy="1186.7" r="2.2"/>
	<path class="st13" d="M-3186.3,1312l36.6-30.2c2.1-1.8,5.2-1.7,7.3,0.1l34.3,29.8c2.4,2,5.9,1.8,8-0.5l12.9-14.6
		c2.2-2.5,6-2.6,8.3-0.2l15.4,15.6v48.6h-122.9L-3186.3,1312z"/>
	<g class="st7">
		<path d="M-3125.8,166.5v865.4h-1838V166.5H-3125.8 M-3124.8,165.5h-1840v867.4h1840L-3124.8,165.5L-3124.8,165.5z"/>
	</g>
</g>
<g id="Layer_1_1_" class="st4">
</g>
<g id="Layer_4" class="st4">
	<g class="st7">
		<g>
			<defs>
				<rect id="SVGID_2_" x="-2198.3" y="960" width="1842" height="145"/>
			</defs>
			<clipPath id="SVGID_3_">
				<use xlink:href="#SVGID_2_"  style="overflow:visible;"/>
			</clipPath>
			<g class="st14">
				
					<text transform="matrix(1 0 0 1 -2321.321 1073.8856)" style="fill:#BFDDA1; font-family:'Inconsolata-Bold'; font-size:113.6883px;">BUY BUY BUY BUY BUY BUY BUY BUY BUY BUY BUY</text>
				
					<text transform="matrix(1 0 0 1 -2321.321 1073.8856)" class="st1" style="font-family:'Inconsolata-Bold'; font-size:113.6883px;">BUY BUY BUY BUY BUY BUY BUY BUY BUY BUY BUY</text>
			</g>
		</g>
		<g>
			<rect id="SVGID_1_" x="-2198.3" y="960" class="st1" width="1842" height="145"/>
		</g>
	</g>
</g>
<rect x="-16.3" y="345.8" class="st15" width="1370.3" height="294.2"/>
</svg>
