<?xml version="1.0" encoding="utf-8"?>
<!-- Generator: Adobe Illustrator 22.0.1, SVG Export Plug-In . SVG Version: 6.00 Build 0)  -->
<svg version="1.1" id="Layer_1" xmlns="http://www.w3.org/2000/svg" xmlns:xlink="http://www.w3.org/1999/xlink" x="0px" y="0px"
	 viewBox="0 0 1340 630" style="enable-background:new 0 0 1340 630;" xml:space="preserve">
<style type="text/css">
	.st0{fill:#E8E7E7;stroke:#000000;stroke-miterlimit:10;}
	.st1{fill:#EF5B49;}
	.st2{fill:none;stroke:#000000;stroke-miterlimit:10;}
	.st3{fill:#C1C5E8;}
	.st4{display:none;}
	.st5{display:inline;fill:#F8A079;stroke:#000000;stroke-miterlimit:10;}
	.st6{display:inline;fill:#F2F2F2;stroke:#000000;stroke-miterlimit:10;}
	.st7{display:inline;}
	.st8{fill:#EF5B49;stroke:#000000;stroke-miterlimit:10;}
	.st9{fill:#CFD9C5;stroke:#000000;stroke-miterlimit:10;}
	.st10{display:inline;fill:#EF5B49;stroke:#000000;stroke-miterlimit:10;}
	.st11{display:inline;fill:none;stroke:#000000;stroke-miterlimit:10;}
	.st12{display:inline;fill:#E8E7E7;stroke:#000000;stroke-miterlimit:10;}
	.st13{display:inline;fill:#CFD9C5;stroke:#000000;stroke-miterlimit:10;}
	.st14{clip-path:url(#SVGID_3_);}
	.st15{fill:#BFDDA1;}
	.st16{font-family:'Inconsolata';}
	.st17{font-size:113.6883px;}
	.st18{fill:#414143;stroke:#000000;stroke-miterlimit:10;}
	.st19{fill:#DDDDD3;stroke:#000000;stroke-miterlimit:10;}
	.st20{fill:#414143;}
	.st21{fill:#E8E7E7;}
	.st22{fill:#CFD9C5;}
	.st23{fill:#41B369;}
	.st24{fill:#F8A079;}
	.st25{fill:#FCC638;}
</style>
<rect x="574" y="908.1" transform="matrix(6.123234e-17 -1 1 6.123234e-17 -266.7713 1581.5092)" class="st0" width="166.7" height="32.2"/>
<g>
	<path class="st1" d="M2381.4-4.4c-1.9-7.3-23.9-20.9-59.6-27.8c-19.2-3.7-43.5,3.2-67.8,0.7c-21.3-2.1-42.8-15.7-65.5-16.2
		c-18.1-4.1-41.3-0.9-65.7-3.9C2102-54,2080-62.1,2057.2-63c-21.8-0.9-44.4,8.2-65.9,9.2c-23,1.1-44.6,4.5-64.8,8.4
		c-27.3,5.2-60.9,6.9-74.7,17.2c-26.3-2.1-53,6-80.3,6.7c-28.4,0.7-56-0.6-80.9,4.3c-39.8,7.7-91.1,25.2-79.7,39.6
		c6.3,8.2,32.9,5.2,58.8,8.8c21.5,3,43,17.6,58.1,18.7c6.7,0.6,23.5,1.1,47.2,1.3c12.9,4.1,32.1-0.2,50.4,2.1
		c18.7,2.2,37.4,1.5,50.4,2.4c9.5,0.7,39.2,5.8,79.9,4.7c23.7-0.7,52.1,5.4,81,1.5c14.2-2.1,35.5-6,55.3-9.5
		c23.5-4.3,46.3-7.7,54-13.8c16.8,0.4,36.8-12.1,61.6-13.4c19.4-0.9,41.3,3.7,63.7,0.7c15.1-2.1,37-9.2,57.9-13.1
		C2358.2,7.8,2383.4,3.7,2381.4-4.4z"/>
	<path class="st2" d="M2381.4-4.4c-1.9-7.3-23.9-20.9-59.6-27.8c-19.2-3.7-43.5,3.2-67.8,0.7c-21.3-2.1-42.8-15.7-65.5-16.2
		c-18.1-4.1-41.3-0.9-65.7-3.9C2102-54,2080-62.1,2057.2-63c-21.8-0.9-44.4,8.2-65.9,9.2c-23,1.1-44.6,4.5-64.8,8.4
		c-27.3,5.2-60.9,6.9-74.7,17.2c-26.3-2.1-53,6-80.3,6.7c-28.4,0.7-56-0.6-80.9,4.3c-39.8,7.7-91.1,25.2-79.7,39.6
		c6.3,8.2,32.9,5.2,58.8,8.8c21.5,3,43,17.6,58.1,18.7c6.7,0.6,23.5,1.1,47.2,1.3c12.9,4.1,32.1-0.2,50.4,2.1
		c18.7,2.2,37.4,1.5,50.4,2.4c9.5,0.7,39.2,5.8,79.9,4.7c23.7-0.7,52.1,5.4,81,1.5c14.2-2.1,35.5-6,55.3-9.5
		c23.5-4.3,46.3-7.7,54-13.8c16.8,0.4,36.8-12.1,61.6-13.4c19.4-0.9,41.3,3.7,63.7,0.7c15.1-2.1,37-9.2,57.9-13.1
		C2358.2,7.8,2383.4,3.7,2381.4-4.4z"/>
</g>
<path class="st0" d="M657.4,699.8c0.4,0,0.7,0,1.1,0.1c11.7,1.9,28.1,6.3,43.4,17.7c35.7,26.6,36.5,69.4,52.5,112.5
	c10.3,27.9,30.2,64.6,72.2,102.5c4.5,4,1.6,11.5-4.4,11.5H658.8h-2.9H492.7c-6,0-8.9-7.4-4.4-11.5c42-38,61.8-74.6,72.2-102.5
	c16-43.1,16.8-85.9,52.5-112.5c15.3-11.4,31.7-15.8,43.4-17.7C656.7,699.8,657,699.8,657.4,699.8L657.4,699.8z"/>
<path class="st3" d="M657.4,317.2"/>
<rect x="464" y="993.5" class="st0" width="386.7" height="32.2"/>
<rect x="1410.8" y="545.7" class="st0" width="290.7" height="56"/>
<rect x="476.4" y="-206.6" transform="matrix(-1.836970e-16 1 -1 -1.836970e-16 401.1372 -758.2751)" class="st0" width="206.7" height="56"/>
<rect x="657.7" y="-321.5" class="st0" width="158" height="56"/>
<g>
	<path class="st1" d="M1627.4,237.8c-0.6-3-10.3-4.3-24.4-5.6c-3-3.4-17.1-13-32.8-13.4c-11.3-3.5-33-6.7-47.7-2.8
		c-4.8,1.3-9.6,7-12,9.5c-9.6-1-20.9-3.7-29.5-1.5c-6.1,1.6-14.3,6.9-14.8,10c-1.6,0.3-1.9,0.8-3.5,1.2c-7,1.9-18.1,8.1-16,11.7
		c1.9,3.3,14.8,3.4,21.2,4.1l2.1-1.2c2.1,3.6,12.8,3.6,18.7,4.2c1.2,0.1,4.2,1.6,8.4,1.7c4.6,2,12.9,3.4,17.5,3.9
		c2.7,0.3,15.1,6,29.1,3.4c5.5-1,15.9-7.3,18.4-10.1c5.3,0.2,14.2,3.9,23.2,2.2c5.7-1.1,16-8,17.9-10.9c2.2-0.2,5-1.4,7.4-1.9
		C1616.9,241,1628,241.1,1627.4,237.8z"/>
	<path class="st2" d="M1627.4,237.8c-0.6-3-10.3-4.3-24.4-5.6c-3-3.4-17.1-13-32.8-13.4c-11.3-3.5-33-6.7-47.7-2.8
		c-4.8,1.3-9.6,7-12,9.5c-9.6-1-20.9-3.7-29.5-1.5c-6.1,1.6-14.3,6.9-14.8,10c-1.6,0.3-1.9,0.8-3.5,1.2c-7,1.9-18.1,8.1-16,11.7
		c1.9,3.3,14.8,3.4,21.2,4.1l2.1-1.2c2.1,3.6,12.8,3.6,18.7,4.2c1.2,0.1,4.2,1.6,8.4,1.7c4.6,2,12.9,3.4,17.5,3.9
		c2.7,0.3,15.1,6,29.1,3.4c5.5-1,15.9-7.3,18.4-10.1c5.3,0.2,14.2,3.9,23.2,2.2c5.7-1.1,16-8,17.9-10.9c2.2-0.2,5-1.4,7.4-1.9
		C1616.9,241,1628,241.1,1627.4,237.8z"/>
</g>
<g id="Layer_2_1_">
</g>
<g id="Layer_3" class="st4">
	<path class="st5" d="M1548.5-1061.2c-12.6-12.2-11.4-17.5-19.7-24.5c-18.1-15.3-44.1-7.6-44.6-12.1c-0.4-3.4,14-10.2,29.7-10.8
		c15.1-0.6,24,4.7,25.8,1.8c2.2-3.6-11.6-12-22.4-28.3c-10.8-16.1-9.3-26.1-17.6-54.1c-7.5-25.4-11.8-38.2-18.8-48.5
		c-14.7-21.6-33.2-29.7-31.5-32.5c1.5-2.5,17,1.8,30,11.7c14.7,11.3,17.8,23.4,20.8,22.4c5-1.6,6.1-37.7-13.5-67
		c-15.5-23.2-37.3-32-34.5-38.4c2-4.5,14.9-4.8,25.6-1.6c34.7,10.4,44.9,56.9,53.2,54.8c7.2-1.9-2.3-44.6,2.7-45.9
		c3.4-0.9,13.3,18,17.8,39.6c4.7,22.7,2.1,42-0.2,57.4c-4.3,29.9-12.5,50-10.7,50.7c2.9,1.1,21.1-47.7,27.7-45.9
		c4.3,1.2,2.3,22.7,0.2,35.9c-6.3,39.2-20.2,45.8-18.7,71.8c0.6,9.6,3.9,19.6,10.5,39.6c7.9,23.9,14.7,35.9,11.4,38.4
		C1567.8-1043.8,1554.3-1055.7,1548.5-1061.2z"/>
	<path class="st6" d="M-1097.2-797.1c-134.1,12-308.5,48.1-300.2,78.4c7.5,27.5,162.3,38.9,246.6,45.1
		c113.1,8.3,324.2,23.9,386-24.5c29.7-23.3,18.8-56.6-15-77.4C-850.9-819.2-1018-804.2-1097.2-797.1z"/>
	<path class="st6" d="M-958.5-892.5c-75.7,14.3-170.5,43.9-147.5,65.8c23.6,22.4,160.2,26.5,224.4,28.5c29.2,0.9,157.5,4,307.8-17.7
		c68.7-9.9,219.5-31.7,211.6-53C-373.8-900.4-732.6-935.4-958.5-892.5z"/>
	<path class="st6" d="M-492-1235.9c-49.2-31.4-119.3-21.6-152.7,22.7c-19,25.2-27.6,63.7-13.6,93.7c32.3,69,177.5,79.4,213.1,22.7
		C-422.1-1133.5-441.4-1203.6-492-1235.9z"/>
	<rect x="-1434" y="-1805" class="st6" width="450" height="802"/>
	<g class="st7">
		<path class="st8" d="M2467-799.6L2467-799.6c-89.7,0-162.5,72.8-162.5,162.5v420.7h325v-420.7
			C2629.5-726.9,2556.7-799.6,2467-799.6z"/>
		<circle class="st9" cx="2577.1" cy="-472.6" r="22.8"/>
	</g>
	<rect x="-1246.2" y="467.8" class="st10" width="136.9" height="136.9"/>
	<polyline class="st11" points="-1245.5,467.5 -1177.2,424.4 -1109.5,467.5 	"/>
	<circle class="st12" cx="-1176.9" cy="424.8" r="2.2"/>
	<path class="st13" d="M-1239,550.1l36.6-30.2c2.1-1.8,5.2-1.7,7.3,0.1l34.3,29.8c2.4,2,5.9,1.8,8-0.5l12.9-14.6
		c2.2-2.5,6-2.6,8.3-0.2l15.4,15.6v48.6H-1239V550.1z"/>
	<g class="st7">
		<path d="M-1178.5-595.5v865.4h-1838v-865.4H-1178.5 M-1177.5-596.5h-1840v867.4h1840V-596.5L-1177.5-596.5z"/>
	</g>
</g>
<g id="Layer_1_1_" class="st4">
</g>
<g id="Layer_4" class="st4">
	<g class="st7">
		<g>
			<g>
				<g>
					<defs>
						<rect id="SVGID_2_" x="-251" y="198" width="1842" height="145"/>
					</defs>
					<clipPath id="SVGID_3_">
						<use xlink:href="#SVGID_2_"  style="overflow:visible;"/>
					</clipPath>
					<g class="st14">
						<text transform="matrix(1 0 0 1 -374.0104 311.9442)" class="st15 st16 st17">BUY BUY BUY BUY BUY BUY BUY BUY BUY BUY BUY</text>
						<text transform="matrix(1 0 0 1 -374.0104 311.9442)" class="st2 st16 st17">BUY BUY BUY BUY BUY BUY BUY BUY BUY BUY BUY</text>
					</g>
				</g>
			</g>
		</g>
		<g>
			<rect id="SVGID_1_" x="-251" y="198" class="st2" width="1842" height="145"/>
		</g>
	</g>
</g>
<path class="st18" d="M390.9-435.3l-0.2-0.3c-8.6-14.9-9-32.9-2-48.7c2.4-5.3,3.6-11.3,3.2-17.6c-1.1-19.5-17.2-35.1-36.7-35.7
	c-21.5-0.7-39.2,16.6-39.2,38c0,6.1,1.4,11.8,4,16.9c8,16.1,8.1,35,0,51.1l0,0l-56.9,81.9c-3.6,5.2-5.1,11.6-4.2,17.8l5.5,36.5
	c1.1,7.1,8.4,11.3,15.1,8.8l0,0l-0.7-36.9c-0.2-9.1,3.1-17.8,9.3-24.5l15.3-16.6c4-4.3,11.2-1.4,11.1,4.5L309.3-157
	c-0.1,5.2,4,9.4,9.2,9.4h8.6L348-253.1c0.6-3.2,3.4-5.5,6.7-5.5h14.1c3.7,0,6.9,2.6,7.7,6.2l23.6,104.8h9.9c5.4,0,9.7-4.6,9.4-10
	l-14.2-201.5c-0.3-3.6,4.2-5.6,6.7-2.9l15.9,17.3c6,6.5,9.2,15.1,9,23.9l-0.7,37.3l0,0c6.7,2.6,14-1.7,15.1-8.8l5.9-39.3
	c0.7-4.4-0.4-9-3-12.7L390.9-435.3z"/>
<rect x="-8.7" y="601.6" class="st19" width="1357.5" height="38.4"/>
<g>
	<rect x="760" y="-113" class="st20" width="63" height="63"/>
	<rect x="823" y="-113" class="st21" width="63" height="63"/>
	<rect x="886" y="-113" class="st22" width="63" height="63"/>
	<rect x="949" y="-113" class="st15" width="63" height="63"/>
	<rect x="1012" y="-113" class="st23" width="63" height="63"/>
	<rect x="1075" y="-113" class="st24" width="63" height="63"/>
	<rect x="1138" y="-113" class="st1" width="63" height="63"/>
	<rect x="1201" y="-113" class="st25" width="63" height="63"/>
	<rect x="1264" y="-113" class="st3" width="63" height="63"/>
</g>
<g>
	<path class="st1" d="M1876,802c-2.3-10.3-13.9-16.9-29-22c-10.9-3.7-23.5-8.1-36.7-9.9c-12.9-1.8-26.4,1.9-38.2,1.3
		c-17.9-0.9-32.3-4.8-37.7-4.7c-0.1-0.9-3.3-0.4-3.5-1.3c-2.3-10.4-11.7-15.2-27.1-20.3c-11.1-3.7-22.9-11.6-36.2-13.3
		c-13.1-1.7-26.8-1.4-38.6-1.9c-20-0.9-35.7,1.1-38.5,1.1c-3,0.1-16.6-2.7-33.6-1.2c-10.3,0.9-21.7,4.2-33.1,6.1
		c-11.6,1.9-22.1,7.1-31.7,10.4c-13.9,4.8-23.4,9.1-24.6,17.6c-1.2,8.1,3.9,16.9,12.4,23.8c9.5,7.7,22.1,11.1,25.4,12.8
		c9.1,4.7,18.4,7.9,33.8,9.8c9.5,1.2,20.9,0.7,35.8,0.5c10.3-0.2,22,2.9,35.8,1.9c8.2,13.2,29.4,26.8,34.4,29.3
		c10.2,5.3,22.3,9.9,41,11.6c10.9,1,24.6-2.7,42-3.4c11.9-0.5,25.8,0.7,41.8-0.7c18.6-1.6,32.8-4.6,44.4-4.5
		c19.1,0.3,32.6,4,44.1-5.5C1861.3,837.2,1879.7,818.2,1876,802z"/>
	<path class="st2" d="M1876,802c-2.3-10.3-13.9-16.9-29-22c-10.9-3.7-23.5-8.1-36.7-9.9c-12.9-1.8-26.4,1.9-38.2,1.3
		c-17.9-0.9-32.3-4.8-37.7-4.7c-0.1-0.9-3.3-0.4-3.5-1.3c-2.3-10.4-11.7-15.2-27.1-20.3c-11.1-3.7-22.9-11.6-36.2-13.3
		c-13.1-1.7-26.8-1.4-38.6-1.9c-20-0.9-35.7,1.1-38.5,1.1c-3,0.1-16.6-2.7-33.6-1.2c-10.3,0.9-21.7,4.2-33.1,6.1
		c-11.6,1.9-22.1,7.1-31.7,10.4c-13.9,4.8-23.4,9.1-24.6,17.6c-1.2,8.1,3.9,16.9,12.4,23.8c9.5,7.7,22.1,11.1,25.4,12.8
		c9.1,4.7,18.4,7.9,33.8,9.8c9.5,1.2,20.9,0.7,35.8,0.5c10.3-0.2,22,2.9,35.8,1.9c8.2,13.2,29.4,26.8,34.4,29.3
		c10.2,5.3,22.3,9.9,41,11.6c10.9,1,24.6-2.7,42-3.4c11.9-0.5,25.8,0.7,41.8-0.7c18.6-1.6,32.8-4.6,44.4-4.5
		c19.1,0.3,32.6,4,44.1-5.5C1861.3,837.2,1879.7,818.2,1876,802z"/>
</g>
</svg>
