<?xml version="1.0" encoding="utf-8"?>
<!-- Generator: Adobe Illustrator 22.0.1, SVG Export Plug-In . SVG Version: 6.00 Build 0)  -->
<svg version="1.1" id="Layer_1" xmlns="http://www.w3.org/2000/svg" xmlns:xlink="http://www.w3.org/1999/xlink" x="0px" y="0px"
	 viewBox="0 0 133.6 75.8" style="enable-background:new 0 0 133.6 75.8;" xml:space="preserve">
<style type="text/css">
	.st0{fill:#FFFFFF;}
	.st1{fill:#FFFFFF;stroke:#000000;stroke-miterlimit:10;}
	.st2{fill:#FFFFFF;stroke:#000000;stroke-width:0.5;stroke-miterlimit:10;}
	.st3{fill:#F2DCA5;stroke:#000000;stroke-miterlimit:10;}
	.st4{fill:#F2F2F2;stroke:#000000;stroke-miterlimit:10;}
	.st5{fill:#DDDDD3;stroke:#000000;stroke-miterlimit:10;}
	.st6{fill:none;stroke:#424143;stroke-width:3;stroke-miterlimit:10;}
	.st7{fill:#424143;}
</style>
<g>
	<circle class="st0" cx="1361.9" cy="-104.2" r="55.5"/>
	<path d="M1361.9-159.2c30.3,0,55,24.7,55,55s-24.7,55-55,55c-30.3,0-55-24.7-55-55S1331.6-159.2,1361.9-159.2 M1361.9-160.2
		c-30.9,0-56,25.1-56,56s25.1,56,56,56c30.9,0,56-25.1,56-56S1392.8-160.2,1361.9-160.2L1361.9-160.2z"/>
</g>
<polygon class="st1" points="1124.4,-126.8 1083.4,-168.8 1095.4,-182.8 1120.4,-166.8 1112.4,-223.8 1128.4,-224.8 1137.4,-169.8 
	1138.4,-224.8 1153.4,-224.8 1153.4,-169.8 1166.4,-221.8 1179.4,-217.8 1169.4,-164.8 1187.4,-195.8 1193.4,-188.8 1170.4,-124.8 
	1176.4,-110.8 1118.4,-110.8 "/>
<path class="st1" d="M1202.9,9.3l-25.3-32.7c-2.3-3-1.8-7.3,1.1-9.7v0c3.1-2.5,7.7-2,10.1,1.3l6.6,9c0.8,1.1,2.7,0.5,2.5-1
	l-4.1-46.8c-0.3-3,1.8-5.6,4.7-6.2l0,0c3.2-0.6,6.2,1.6,6.7,4.8l6.1,41.1l0.9-47.6c0.1-4.1,3.4-7.4,7.6-7.4h0c4.2,0,7.6,3.4,7.6,7.6
	l1,44.4l6.9-42c0.6-3.8,4.3-6.2,8-5.4l0,0c3.4,0.8,5.6,4.1,5.1,7.5c-2.1,13.1-7,42.9-7,42.9l7.5-21.6c0.8-2.4,3.5-3.7,5.9-2.8v0
	c2.1,0.8,3.3,3,2.9,5.2l-12.9,62.7c-0.2,0.9-0.1,1.9,0.3,2.8l5.4,12.6h-51l4.3-14.7C1204.1,12.1,1203.8,10.5,1202.9,9.3z"/>
<path class="st1" d="M1111.8,24.4l-4.4,29.8l-1-52l-8-1l-3,52l-4-52h-9v53l-6.1-41.2c-0.5-3.2-3.5-5.4-6.7-4.8l-0.1,0
	c-2.9,0.5-4.9,3.2-4.7,6.1l4.3,49c0.1,0.8-1,1.2-1.4,0.5l-8-10.8c-2.4-3.2-7-3.8-10-1.3l0,0c-2.9,2.4-3.4,6.7-1.1,9.7l25.4,32.7
	c0.9,1.2,1.2,2.8,0.8,4.2l-4.3,14.7h48l-6.4-14.6c-0.6-1.4-0.6-1.4-0.3-2.8l7.7-70.5L1111.8,24.4z"/>
<path class="st1" d="M951.3-59.9l-3.9,26.1V-73c0-2.1-1.6-3.9-3.7-4.2h0c-2.4-0.3-4.5,1.4-4.7,3.8l-3.6,38.7l-3.7-47.7
	c-0.2-2.4-2.2-4.3-4.7-4.3h0c-2.6,0-4.7,2.1-4.7,4.7v48.3l-6.1-41.2c-0.5-3.2-3.5-5.4-6.7-4.8l-0.1,0c-2.9,0.5-4.9,3.2-4.7,6.1
	l4.3,49c0.1,0.8-1,1.2-1.4,0.5l-8-10.8c-2.4-3.2-7-3.8-10-1.3l0,0c-2.9,2.4-3.4,6.7-1.1,9.7l25.4,32.7c0.9,1.2,1.2,2.8,0.8,4.2
	l-4.3,14.7h48L952,10.6c-0.6-1.4-0.6-1.4-0.3-2.8l7.3-66.7c0.2-2.1-1.3-4.1-3.5-4.3l0,0C953.4-63.4,951.6-61.9,951.3-59.9z"/>
<path class="st2" d="M698.4-110.4l-1,6.6v-10c0-0.5-0.4-1-0.9-1.1l0,0c-0.6-0.1-1.1,0.4-1.2,1l-0.9,9.8l-0.9-12.1
	c0-0.6-0.6-1.1-1.2-1.1l0,0c-0.7,0-1.2,0.5-1.2,1.2v12.3l-1.6-10.5c-0.1-0.8-0.9-1.4-1.7-1.2l0,0c-0.7,0.1-1.3,0.8-1.2,1.6l1.1,12.5
	c0,0.2-0.2,0.3-0.4,0.1l-2-2.7c-0.6-0.8-1.8-1-2.6-0.3l0,0c-0.7,0.6-0.9,1.7-0.3,2.5l6.5,8.3c0.2,0.3,0.3,0.7,0.2,1.1l-1.1,3.7h12.2
	l-1.6-3.7c-0.1-0.3-0.1-0.3-0.1-0.7l1.9-17c0.1-0.5-0.3-1-0.9-1.1l0,0C699-111.3,698.5-110.9,698.4-110.4z"/>
<path class="st1" d="M873.9,40.9l-4.6-5.9c-0.4-0.5-0.3-1.3,0.2-1.7l0,0c0.6-0.5,1.4-0.4,1.8,0.2l1.4,1.9c0.1,0.1,0.3,0,0.3-0.1
	l-0.8-8.8c0-0.5,0.3-1,0.8-1.1l0,0c0.6-0.1,1.1,0.3,1.2,0.9l1.1,7.4l0.2-8.6c0-0.7,0.6-1.3,1.4-1.3h0c0.8,0,1.4,0.6,1.4,1.4l0.2,8
	l1.2-7.6c0.1-0.7,0.8-1.1,1.4-1l0,0c0.6,0.1,1,0.7,0.9,1.4c-0.4,2.4-1.3,7.7-1.3,7.7l1.3-4.2c0.1-0.4,0.5-0.6,0.8-0.5l0,0
	c0.4,0.1,0.7,0.5,0.6,0.9l-2.1,11.7c0,0.2,0,0.3,0.1,0.5l1,2.3h-9.2l0.8-2.6C874.1,41.3,874.1,41.1,873.9,40.9z"/>
<path class="st1" d="M927.7,111l-4.3-5.6c-0.4-0.5-0.3-1.3,0.2-1.7l0,0c0.5-0.4,1.3-0.3,1.7,0.2l1.3,1.8c0.1,0.1,0.3,0,0.3-0.1
	l-0.7-8.4c0-0.5,0.3-1,0.8-1.1l0,0c0.5-0.1,1.1,0.3,1.1,0.8l1,7l0.1-8.1c0-0.7,0.6-1.3,1.3-1.3l0,0c0.7,0,1.3,0.6,1.3,1.3l0.2,7.6
	l1.2-7.2c0.1-0.6,0.7-1.1,1.4-0.9l0,0c0.6,0.1,1,0.7,0.9,1.3c-0.4,2.2-1.2,7.3-1.2,7.3l1.3-3.7c0.1-0.4,0.6-0.6,1-0.5v0
	c0.4,0.1,0.6,0.5,0.5,0.9l-2.2,10.7c0,0.2,0,0.3,0,0.5l0.9,2.2h-8.7l0.7-2.5C927.9,111.5,927.9,111.2,927.7,111z"/>
<path class="st3" d="M43.9,13.4l-1.4,2.1c-0.2,0.3-0.4,0.8-0.4,1.2v5.2c0,0.1,0,0.3,0,0.4l1.9,10.5c0,0.2,0.1,0.4,0.2,0.7l4.6,8.2
	c0.2,0.3,0.4,0.5,0.7,0.7l4.2,2.8c0.8,0.5,1.1,1.5,0.8,2.4L51,59.2c-0.4,1.4,0.6,2.8,2,2.8h18.1h8.7c1.2,0,2.2-1,2.1-2.3l-0.8-13
	c0-0.5,0.1-1,0.4-1.4l6.3-9c0.2-0.3,0.3-0.6,0.4-0.9l1.2-8.5c0.5-3.2-0.2-6.6-1.8-9.4l-4.2-7.2c-0.2-0.3-0.4-0.5-0.6-0.7L70.7,1.4
	C70.3,1.1,69.9,1,69.5,1H56.3c-0.7,0-1.4,0.4-1.8,1l-2.3,3.8c-0.1,0.1-0.1,0.3-0.2,0.4L50.8,10c-0.4,1.1-1.6,1.7-2.7,1.3l0,0
	c-0.6-0.2-1.3-0.1-1.8,0.2l-1.8,1.2C44.2,12.9,44,13.1,43.9,13.4z"/>
<line class="st4" x1="61.1" y1="1" x2="58" y2="16.8"/>
<line class="st4" x1="74.1" y1="4" x2="73.1" y2="19"/>
<line class="st4" x1="84.1" y1="11.5" x2="84.1" y2="22"/>
<polygon class="st5" points="94.1,74.2 85.1,54 47.1,53 40.1,74.2 "/>
<line class="st4" x1="50.1" y1="11" x2="47.1" y2="23"/>
<g>
	<g>
		<line class="st6" x1="99.6" y1="41" x2="130.4" y2="41"/>
		<g>
			<polygon class="st7" points="120.4,53.3 118.4,51.1 129.2,41 118.4,30.9 120.4,28.7 133.6,41 			"/>
		</g>
	</g>
</g>
<g>
	<g>
		<line class="st6" x1="33.9" y1="41.2" x2="3.2" y2="41.2"/>
		<g>
			<polygon class="st7" points="13.1,29 15.1,31.2 4.3,41.2 15.1,51.3 13.1,53.5 -0.1,41.2 			"/>
		</g>
	</g>
</g>
</svg>
