<?xml version="1.0" encoding="utf-8"?>
<!-- Generator: Adobe Illustrator 22.0.1, SVG Export Plug-In . SVG Version: 6.00 Build 0)  -->
<svg version="1.1" xmlns="http://www.w3.org/2000/svg" xmlns:xlink="http://www.w3.org/1999/xlink" x="0px" y="0px"
	 viewBox="0 0 1340 630" style="enable-background:new 0 0 1340 630;" xml:space="preserve">
<style type="text/css">
	.st0{fill:#F2DCA5;}
	.st1{fill:#383838;}
	.st2{fill:#DD796F;stroke:#000000;stroke-miterlimit:10;}
	.st3{fill:#414143;}
	.st4{fill:none;stroke:#000000;stroke-miterlimit:10;}
	.st5{fill:#DDDDD3;stroke:#000000;stroke-miterlimit:10;}
	.st6{fill:#84CE9B;stroke:#000000;stroke-miterlimit:10;}
	.st7{fill:#8BA4C9;stroke:#000000;stroke-miterlimit:10;}
	.st8{fill:#414143;stroke:#000000;stroke-miterlimit:10;}
	.st9{fill:#333333;stroke:#000000;stroke-miterlimit:10;}
	.st10{fill:none;}
	.st11{fill:#383838;stroke:#000000;stroke-miterlimit:10;}
	.st12{fill:#E8E0CD;stroke:#000000;stroke-miterlimit:10;}
	.st13{fill:#424143;stroke:#E8E0CD;stroke-miterlimit:10;}
	.st14{fill:#424143;}
	.st15{fill:#F2DCA5;stroke:#000000;stroke-miterlimit:10;}
	.st16{fill:none;stroke:#000000;stroke-width:5;stroke-miterlimit:10;}
</style>
<g id="Layer_3">
	<g>
		<path class="st0" d="M928.5,269.5c0,6-0.7,11.8-1.1,17.6c-0.4,5.9,1.6,12.1,0.8,17.9c-0.8,5.9-4.1,11.3-5.3,17.1
			c-1.2,5.8-1.8,11.7-3.4,17.4c-1.6,5.7-5.4,10.6-7.4,16.2c-2,5.6-1.6,12-4,17.4c-2.4,5.4-3.3,11.6-6.1,16.9
			c-2.7,5.3-9.1,8.5-12.1,13.5c-3.1,5.1-6.2,10-9.6,14.8c-3.4,4.8-5.5,10.7-9.2,15.2c-3.7,4.6-8.4,8.4-12.4,12.7
			c-4,4.3-6,10.8-10.3,14.9c-4.3,4-9.9,6.8-14.5,10.5c-4.6,3.7-11.4,4.4-16.3,7.8c-4.8,3.4-8.8,7.9-13.9,10.9
			c-5,3.1-8.4,9.3-13.6,12.1c-5.2,2.7-11.4,3.9-16.8,6.2c-5.4,2.3-10.9,4.8-16.5,6.8c-5.5,2-11.5,3.1-17.2,4.7
			c-5.7,1.6-12.2-0.6-18,0.6c-5.8,1.2-10.7,6.8-16.6,7.6c-5.8,0.8-11.9,0.1-17.8,0.5c-5.9,0.4-11.8,2.7-17.7,2.7
			c-6,0-11.7-4.9-17.6-5.3c-5.9-0.4-11.8,0.1-17.6-0.7c-5.9-0.8-12.1,0.5-17.9-0.7c-5.8-1.2-11.6-2.6-17.3-4.2
			c-5.7-1.6-10.9-4.9-16.5-6.8c-5.6-2-10.8-4.7-16.2-7c-5.4-2.4-10.9-4.5-16.1-7.2c-5.3-2.7-10.2-6-15.2-9c-5.1-3.1-12.2-3.1-17-6.6
			c-4.8-3.4-9.6-7.3-14.1-11c-4.6-3.7-6.7-10.4-11-14.4c-4.3-4-9.5-7.2-13.6-11.5c-4-4.3-7.1-9.5-10.8-14.1
			c-3.7-4.6-5.9-10.2-9.3-15.1c-3.4-4.8-6.4-9.7-9.5-14.8c-3.1-5-10.3-7.8-13-13c-2.7-5.2-3.2-11.6-5.6-17.1
			c-2.3-5.4-5.6-10.5-7.6-16.1c-2-5.5-2-11.8-3.6-17.5c-1.6-5.7-1.8-11.6-3-17.4c-1.2-5.8-3.6-11.3-4.4-17.2
			c-0.8-5.8-2.3-11.6-2.7-17.6c-0.4-5.9,2.6-11.8,2.6-17.8c0-6-3-11.9-2.6-17.8c0.4-5.9,1.9-11.7,2.7-17.6
			c0.8-5.9,2.3-11.6,3.5-17.3c1.2-5.8,1.1-11.9,2.7-17.6c1.6-5.7,4.1-11.2,6-16.7c2-5.6,6-10.3,8.3-15.7c2.4-5.4,1.5-12.4,4.2-17.6
			c2.7-5.3,9-8.5,12-13.6c3.1-5.1,7.2-9.2,10.6-14.1c3.4-4.8,4.6-11.3,8.3-15.8c3.7-4.6,7-9.6,11.1-13.9c4-4.3,9.4-7.4,13.7-11.4
			c4.3-4,8.6-8.1,13.1-11.8c4.6-3.7,9.3-7.2,14.1-10.6c4.8-3.4,10.1-6,15.1-9.1c5-3.1,9.2-7.7,14.4-10.4c5.2-2.7,11.2-3.9,16.6-6.3
			c5.4-2.3,10.7-4.9,16.3-6.9c5.5-2,10.7-5.5,16.4-7.1c5.7-1.6,11.2-4.3,17.1-5.5c5.8-1.2,12.5,3.2,18.4,2.4
			c5.8-0.8,11.5-1.2,17.5-1.6c5.9-0.4,11.6-1,17.5-1c6,0,11.9-2.7,17.7-2.3c5.9,0.4,12.2-1.6,18-0.8c5.9,0.8,11.8,2.3,17.6,3.5
			c5.8,1.2,10.6,6.8,16.2,8.4c5.7,1.6,12.4,0,17.9,2c5.6,2,9.7,7.7,15.1,10c5.4,2.4,11.9,2.5,17.1,5.2c5.3,2.7,9.1,7.8,14.2,10.8
			c5.1,3.1,11.2,4.4,16,7.8c4.8,3.4,9.5,7,14.1,10.7c4.6,3.7,9.2,7.4,13.5,11.5c4.3,4,7.7,9,11.8,13.3c4,4.3,8.9,7.9,12.7,12.5
			c3.7,4.6,6,10.3,9.4,15.1c3.4,4.8,6.7,9.7,9.7,14.7c3.1,5,7.6,9.3,10.3,14.5c2.7,5.2,3,11.6,5.4,17.1c2.3,5.4,6.1,10.2,8.1,15.8
			c2,5.5,1.5,11.8,3.1,17.5c1.6,5.7,6.3,10.6,7.5,16.4c1.2,5.8-1.3,12.2-0.5,18c0.8,5.8,6.2,11.2,6.6,17.2
			C931.5,257.5,928.5,263.5,928.5,269.5z"/>
	</g>
</g>
<g id="Layer_1">
	<g>
		<path class="st1" d="M0,0v630h1340V0H0z M133.5,622.1c0,3.8-3.1,6.9-6.9,6.9H7.4c-3.8,0-6.9-3.1-6.9-6.9v-75.3
			c0-3.8,3.1-6.9,6.9-6.9h119.1c3.8,0,6.9,3.1,6.9,6.9V622.1z M133.5,532.2c0,3.8-3.1,6.9-6.9,6.9H7.4c-3.8,0-6.9-3.1-6.9-6.9v-75.3
			c0-3.8,3.1-6.9,6.9-6.9h119.1c3.8,0,6.9,3.1,6.9,6.9V532.2z M133.5,442.3c0,3.8-3.1,6.9-6.9,6.9H7.4c-3.8,0-6.9-3.1-6.9-6.9v-75.3
			c0-3.8,3.1-6.9,6.9-6.9h119.1c3.8,0,6.9,3.1,6.9,6.9V442.3z M133.5,352.5c0,3.8-3.1,6.9-6.9,6.9H7.4c-3.8,0-6.9-3.1-6.9-6.9v-75.3
			c0-3.8,3.1-6.9,6.9-6.9h119.1c3.8,0,6.9,3.1,6.9,6.9V352.5z M133.5,262.6c0,3.8-3.1,6.9-6.9,6.9H7.4c-3.8,0-6.9-3.1-6.9-6.9v-75.3
			c0-3.8,3.1-6.9,6.9-6.9h119.1c3.8,0,6.9,3.1,6.9,6.9V262.6z M133.5,172.8c0,3.8-3.1,6.9-6.9,6.9H7.4c-3.8,0-6.9-3.1-6.9-6.9V97.5
			c0-3.8,3.1-6.9,6.9-6.9h119.1c3.8,0,6.9,3.1,6.9,6.9V172.8z M133.5,82.9c0,3.8-3.1,6.9-6.9,6.9H7.4c-3.8,0-6.9-3.1-6.9-6.9V7.6
			c0-3.8,3.1-6.9,6.9-6.9h119.1c3.8,0,6.9,3.1,6.9,6.9V82.9z M267.3,622.1c0,3.8-3.1,6.9-6.9,6.9H141.2c-3.8,0-6.9-3.1-6.9-6.9
			v-75.3c0-3.8,3.1-6.9,6.9-6.9h119.1c3.8,0,6.9,3.1,6.9,6.9V622.1z M267.3,532.2c0,3.8-3.1,6.9-6.9,6.9H141.2
			c-3.8,0-6.9-3.1-6.9-6.9v-75.3c0-3.8,3.1-6.9,6.9-6.9h119.1c3.8,0,6.9,3.1,6.9,6.9V532.2z M267.3,442.3c0,3.8-3.1,6.9-6.9,6.9
			H141.2c-3.8,0-6.9-3.1-6.9-6.9v-75.3c0-3.8,3.1-6.9,6.9-6.9h119.1c3.8,0,6.9,3.1,6.9,6.9V442.3z M267.3,352.5
			c0,3.8-3.1,6.9-6.9,6.9H141.2c-3.8,0-6.9-3.1-6.9-6.9v-75.3c0-3.8,3.1-6.9,6.9-6.9h119.1c3.8,0,6.9,3.1,6.9,6.9V352.5z
			 M267.3,262.6c0,3.8-3.1,6.9-6.9,6.9H141.2c-3.8,0-6.9-3.1-6.9-6.9v-75.3c0-3.8,3.1-6.9,6.9-6.9h119.1c3.8,0,6.9,3.1,6.9,6.9
			V262.6z M267.3,172.8c0,3.8-3.1,6.9-6.9,6.9H141.2c-3.8,0-6.9-3.1-6.9-6.9V97.5c0-3.8,3.1-6.9,6.9-6.9h119.1
			c3.8,0,6.9,3.1,6.9,6.9V172.8z M267.3,82.9c0,3.8-3.1,6.9-6.9,6.9H141.2c-3.8,0-6.9-3.1-6.9-6.9V7.6c0-3.8,3.1-6.9,6.9-6.9h119.1
			c3.8,0,6.9,3.1,6.9,6.9V82.9z M401.3,622.1c0,3.8-3.1,6.9-6.9,6.9H275.2c-3.8,0-6.9-3.1-6.9-6.9v-75.3c0-3.8,3.1-6.9,6.9-6.9
			h119.1c3.8,0,6.9,3.1,6.9,6.9V622.1z M401.3,532.2c0,3.8-3.1,6.9-6.9,6.9H275.2c-3.8,0-6.9-3.1-6.9-6.9v-75.3
			c0-3.8,3.1-6.9,6.9-6.9h119.1c3.8,0,6.9,3.1,6.9,6.9V532.2z M401.3,442.3c0,3.8-3.1,6.9-6.9,6.9H275.2c-3.8,0-6.9-3.1-6.9-6.9
			v-75.3c0-3.8,3.1-6.9,6.9-6.9h119.1c3.8,0,6.9,3.1,6.9,6.9V442.3z M401.3,352.5c0,3.8-3.1,6.9-6.9,6.9H275.2
			c-3.8,0-6.9-3.1-6.9-6.9v-75.3c0-3.8,3.1-6.9,6.9-6.9h119.1c3.8,0,6.9,3.1,6.9,6.9V352.5z M401.3,262.6c0,3.8-3.1,6.9-6.9,6.9
			H275.2c-3.8,0-6.9-3.1-6.9-6.9v-75.3c0-3.8,3.1-6.9,6.9-6.9h119.1c3.8,0,6.9,3.1,6.9,6.9V262.6z M401.3,172.8
			c0,3.8-3.1,6.9-6.9,6.9H275.2c-3.8,0-6.9-3.1-6.9-6.9V97.5c0-3.8,3.1-6.9,6.9-6.9h119.1c3.8,0,6.9,3.1,6.9,6.9V172.8z M401.3,82.9
			c0,3.8-3.1,6.9-6.9,6.9H275.2c-3.8,0-6.9-3.1-6.9-6.9V7.6c0-3.8,3.1-6.9,6.9-6.9h119.1c3.8,0,6.9,3.1,6.9,6.9V82.9z M535.2,622.1
			c0,3.8-3.1,6.9-6.9,6.9H409.2c-3.8,0-6.9-3.1-6.9-6.9v-75.3c0-3.8,3.1-6.9,6.9-6.9h119.1c3.8,0,6.9,3.1,6.9,6.9V622.1z
			 M535.2,532.2c0,3.8-3.1,6.9-6.9,6.9H409.2c-3.8,0-6.9-3.1-6.9-6.9v-75.3c0-3.8,3.1-6.9,6.9-6.9h119.1c3.8,0,6.9,3.1,6.9,6.9
			V532.2z M535.2,442.3c0,3.8-3.1,6.9-6.9,6.9H409.2c-3.8,0-6.9-3.1-6.9-6.9v-75.3c0-3.8,3.1-6.9,6.9-6.9h119.1
			c3.8,0,6.9,3.1,6.9,6.9V442.3z M535.2,352.5c0,3.8-3.1,6.9-6.9,6.9H409.2c-3.8,0-6.9-3.1-6.9-6.9v-75.3c0-3.8,3.1-6.9,6.9-6.9
			h119.1c3.8,0,6.9,3.1,6.9,6.9V352.5z M535.2,262.6c0,3.8-3.1,6.9-6.9,6.9H409.2c-3.8,0-6.9-3.1-6.9-6.9v-75.3
			c0-3.8,3.1-6.9,6.9-6.9h119.1c3.8,0,6.9,3.1,6.9,6.9V262.6z M535.2,172.8c0,3.8-3.1,6.9-6.9,6.9H409.2c-3.8,0-6.9-3.1-6.9-6.9
			V97.5c0-3.8,3.1-6.9,6.9-6.9h119.1c3.8,0,6.9,3.1,6.9,6.9V172.8z M535.2,82.9c0,3.8-3.1,6.9-6.9,6.9H409.2c-3.8,0-6.9-3.1-6.9-6.9
			V7.6c0-3.8,3.1-6.9,6.9-6.9h119.1c3.8,0,6.9,3.1,6.9,6.9V82.9z M669.2,622.1c0,3.8-3.1,6.9-6.9,6.9H543.1c-3.8,0-6.9-3.1-6.9-6.9
			v-75.3c0-3.8,3.1-6.9,6.9-6.9h119.1c3.8,0,6.9,3.1,6.9,6.9V622.1z M669.2,532.2c0,3.8-3.1,6.9-6.9,6.9H543.1
			c-3.8,0-6.9-3.1-6.9-6.9v-75.3c0-3.8,3.1-6.9,6.9-6.9h119.1c3.8,0,6.9,3.1,6.9,6.9V532.2z M669.2,442.3c0,3.8-3.1,6.9-6.9,6.9
			H543.1c-3.8,0-6.9-3.1-6.9-6.9v-75.3c0-3.8,3.1-6.9,6.9-6.9h119.1c3.8,0,6.9,3.1,6.9,6.9V442.3z M669.2,352.5
			c0,3.8-3.1,6.9-6.9,6.9H543.1c-3.8,0-6.9-3.1-6.9-6.9v-75.3c0-3.8,3.1-6.9,6.9-6.9h119.1c3.8,0,6.9,3.1,6.9,6.9V352.5z
			 M669.2,262.6c0,3.8-3.1,6.9-6.9,6.9H543.1c-3.8,0-6.9-3.1-6.9-6.9v-75.3c0-3.8,3.1-6.9,6.9-6.9h119.1c3.8,0,6.9,3.1,6.9,6.9
			V262.6z M669.2,172.8c0,3.8-3.1,6.9-6.9,6.9H543.1c-3.8,0-6.9-3.1-6.9-6.9V97.5c0-3.8,3.1-6.9,6.9-6.9h119.1
			c3.8,0,6.9,3.1,6.9,6.9V172.8z M669.2,82.9c0,3.8-3.1,6.9-6.9,6.9H543.1c-3.8,0-6.9-3.1-6.9-6.9V7.6c0-3.8,3.1-6.9,6.9-6.9h119.1
			c3.8,0,6.9,3.1,6.9,6.9V82.9z M803.1,622.1c0,3.8-3.1,6.9-6.9,6.9H677.1c-3.8,0-6.9-3.1-6.9-6.9v-75.3c0-3.8,3.1-6.9,6.9-6.9
			h119.1c3.8,0,6.9,3.1,6.9,6.9V622.1z M803.1,532.2c0,3.8-3.1,6.9-6.9,6.9H677.1c-3.8,0-6.9-3.1-6.9-6.9v-75.3
			c0-3.8,3.1-6.9,6.9-6.9h119.1c3.8,0,6.9,3.1,6.9,6.9V532.2z M803.1,442.3c0,3.8-3.1,6.9-6.9,6.9H677.1c-3.8,0-6.9-3.1-6.9-6.9
			v-75.3c0-3.8,3.1-6.9,6.9-6.9h119.1c3.8,0,6.9,3.1,6.9,6.9V442.3z M803.1,352.5c0,3.8-3.1,6.9-6.9,6.9H677.1
			c-3.8,0-6.9-3.1-6.9-6.9v-75.3c0-3.8,3.1-6.9,6.9-6.9h119.1c3.8,0,6.9,3.1,6.9,6.9V352.5z M803.1,262.6c0,3.8-3.1,6.9-6.9,6.9
			H677.1c-3.8,0-6.9-3.1-6.9-6.9v-75.3c0-3.8,3.1-6.9,6.9-6.9h119.1c3.8,0,6.9,3.1,6.9,6.9V262.6z M803.1,172.8
			c0,3.8-3.1,6.9-6.9,6.9H677.1c-3.8,0-6.9-3.1-6.9-6.9V97.5c0-3.8,3.1-6.9,6.9-6.9h119.1c3.8,0,6.9,3.1,6.9,6.9V172.8z M803.1,82.9
			c0,3.8-3.1,6.9-6.9,6.9H677.1c-3.8,0-6.9-3.1-6.9-6.9V7.6c0-3.8,3.1-6.9,6.9-6.9h119.1c3.8,0,6.9,3.1,6.9,6.9V82.9z M937.1,622.1
			c0,3.8-3.1,6.9-6.9,6.9H811c-3.8,0-6.9-3.1-6.9-6.9v-75.3c0-3.8,3.1-6.9,6.9-6.9h119.1c3.8,0,6.9,3.1,6.9,6.9V622.1z M937.1,532.2
			c0,3.8-3.1,6.9-6.9,6.9H811c-3.8,0-6.9-3.1-6.9-6.9v-75.3c0-3.8,3.1-6.9,6.9-6.9h119.1c3.8,0,6.9,3.1,6.9,6.9V532.2z M937.1,442.3
			c0,3.8-3.1,6.9-6.9,6.9H811c-3.8,0-6.9-3.1-6.9-6.9v-75.3c0-3.8,3.1-6.9,6.9-6.9h119.1c3.8,0,6.9,3.1,6.9,6.9V442.3z M937.1,352.5
			c0,3.8-3.1,6.9-6.9,6.9H811c-3.8,0-6.9-3.1-6.9-6.9v-75.3c0-3.8,3.1-6.9,6.9-6.9h119.1c3.8,0,6.9,3.1,6.9,6.9V352.5z M937.1,262.6
			c0,3.8-3.1,6.9-6.9,6.9H811c-3.8,0-6.9-3.1-6.9-6.9v-75.3c0-3.8,3.1-6.9,6.9-6.9h119.1c3.8,0,6.9,3.1,6.9,6.9V262.6z M937.1,172.8
			c0,3.8-3.1,6.9-6.9,6.9H811c-3.8,0-6.9-3.1-6.9-6.9V97.5c0-3.8,3.1-6.9,6.9-6.9h119.1c3.8,0,6.9,3.1,6.9,6.9V172.8z M937.1,82.9
			c0,3.8-3.1,6.9-6.9,6.9H811c-3.8,0-6.9-3.1-6.9-6.9V7.6c0-3.8,3.1-6.9,6.9-6.9h119.1c3.8,0,6.9,3.1,6.9,6.9V82.9z M1071.1,622.1
			c0,3.8-3.1,6.9-6.9,6.9H945c-3.8,0-6.9-3.1-6.9-6.9v-75.3c0-3.8,3.1-6.9,6.9-6.9h119.1c3.8,0,6.9,3.1,6.9,6.9V622.1z
			 M1071.1,532.2c0,3.8-3.1,6.9-6.9,6.9H945c-3.8,0-6.9-3.1-6.9-6.9v-75.3c0-3.8,3.1-6.9,6.9-6.9h119.1c3.8,0,6.9,3.1,6.9,6.9V532.2
			z M1071.1,442.3c0,3.8-3.1,6.9-6.9,6.9H945c-3.8,0-6.9-3.1-6.9-6.9v-75.3c0-3.8,3.1-6.9,6.9-6.9h119.1c3.8,0,6.9,3.1,6.9,6.9
			V442.3z M1071.1,352.5c0,3.8-3.1,6.9-6.9,6.9H945c-3.8,0-6.9-3.1-6.9-6.9v-75.3c0-3.8,3.1-6.9,6.9-6.9h119.1
			c3.8,0,6.9,3.1,6.9,6.9V352.5z M1071.1,262.6c0,3.8-3.1,6.9-6.9,6.9H945c-3.8,0-6.9-3.1-6.9-6.9v-75.3c0-3.8,3.1-6.9,6.9-6.9
			h119.1c3.8,0,6.9,3.1,6.9,6.9V262.6z M1071.1,172.8c0,3.8-3.1,6.9-6.9,6.9H945c-3.8,0-6.9-3.1-6.9-6.9V97.5c0-3.8,3.1-6.9,6.9-6.9
			h119.1c3.8,0,6.9,3.1,6.9,6.9V172.8z M1071.1,82.9c0,3.8-3.1,6.9-6.9,6.9H945c-3.8,0-6.9-3.1-6.9-6.9V7.6c0-3.8,3.1-6.9,6.9-6.9
			h119.1c3.8,0,6.9,3.1,6.9,6.9V82.9z M1205,622.1c0,3.8-3.1,6.9-6.9,6.9H1079c-3.8,0-6.9-3.1-6.9-6.9v-75.3c0-3.8,3.1-6.9,6.9-6.9
			h119.1c3.8,0,6.9,3.1,6.9,6.9V622.1z M1205,532.2c0,3.8-3.1,6.9-6.9,6.9H1079c-3.8,0-6.9-3.1-6.9-6.9v-75.3c0-3.8,3.1-6.9,6.9-6.9
			h119.1c3.8,0,6.9,3.1,6.9,6.9V532.2z M1205,442.3c0,3.8-3.1,6.9-6.9,6.9H1079c-3.8,0-6.9-3.1-6.9-6.9v-75.3c0-3.8,3.1-6.9,6.9-6.9
			h119.1c3.8,0,6.9,3.1,6.9,6.9V442.3z M1205,352.5c0,3.8-3.1,6.9-6.9,6.9H1079c-3.8,0-6.9-3.1-6.9-6.9v-75.3c0-3.8,3.1-6.9,6.9-6.9
			h119.1c3.8,0,6.9,3.1,6.9,6.9V352.5z M1205,262.6c0,3.8-3.1,6.9-6.9,6.9H1079c-3.8,0-6.9-3.1-6.9-6.9v-75.3c0-3.8,3.1-6.9,6.9-6.9
			h119.1c3.8,0,6.9,3.1,6.9,6.9V262.6z M1205,172.8c0,3.8-3.1,6.9-6.9,6.9H1079c-3.8,0-6.9-3.1-6.9-6.9V97.5c0-3.8,3.1-6.9,6.9-6.9
			h119.1c3.8,0,6.9,3.1,6.9,6.9V172.8z M1205,82.9c0,3.8-3.1,6.9-6.9,6.9H1079c-3.8,0-6.9-3.1-6.9-6.9V7.6c0-3.8,3.1-6.9,6.9-6.9
			h119.1c3.8,0,6.9,3.1,6.9,6.9V82.9z M1339,622.1c0,3.8-3.1,6.9-6.9,6.9h-119.1c-3.8,0-6.9-3.1-6.9-6.9v-75.3
			c0-3.8,3.1-6.9,6.9-6.9h119.1c3.8,0,6.9,3.1,6.9,6.9V622.1z M1339,532.2c0,3.8-3.1,6.9-6.9,6.9h-119.1c-3.8,0-6.9-3.1-6.9-6.9
			v-75.3c0-3.8,3.1-6.9,6.9-6.9h119.1c3.8,0,6.9,3.1,6.9,6.9V532.2z M1339,442.3c0,3.8-3.1,6.9-6.9,6.9h-119.1
			c-3.8,0-6.9-3.1-6.9-6.9v-75.3c0-3.8,3.1-6.9,6.9-6.9h119.1c3.8,0,6.9,3.1,6.9,6.9V442.3z M1339,352.5c0,3.8-3.1,6.9-6.9,6.9
			h-119.1c-3.8,0-6.9-3.1-6.9-6.9v-75.3c0-3.8,3.1-6.9,6.9-6.9h119.1c3.8,0,6.9,3.1,6.9,6.9V352.5z M1339,262.6
			c0,3.8-3.1,6.9-6.9,6.9h-119.1c-3.8,0-6.9-3.1-6.9-6.9v-75.3c0-3.8,3.1-6.9,6.9-6.9h119.1c3.8,0,6.9,3.1,6.9,6.9V262.6z
			 M1339,172.8c0,3.8-3.1,6.9-6.9,6.9h-119.1c-3.8,0-6.9-3.1-6.9-6.9V97.5c0-3.8,3.1-6.9,6.9-6.9h119.1c3.8,0,6.9,3.1,6.9,6.9V172.8
			z M1339,82.9c0,3.8-3.1,6.9-6.9,6.9h-119.1c-3.8,0-6.9-3.1-6.9-6.9V7.6c0-3.8,3.1-6.9,6.9-6.9h119.1c3.8,0,6.9,3.1,6.9,6.9V82.9z"
			/>
	</g>
</g>
<g id="Layer_2">
	<g>
		<path class="st2" d="M170.3,323.1c-48.2,0-96.2-2.1-143-6.1l0.4-5c53.2,4.6,108,6.7,162.8,6c17.8-0.2,30.6-0.6,36.6-0.8
			c47.2-1.7,103.8-6.6,224.2-19.1c2.7-0.3,275.2-29.2,403.1-93.7c40.4-20.4,48.9-39.6,51.7-52.3c4.6-20.8-4.4-40.9-13.5-51.9
			c-24.7-29.7-80.6-31.9-132.9-5.4l-2.3-4.5c27.2-13.8,55.1-20.3,80.8-18.9c25,1.4,45.7,10.4,58.2,25.5
			c9.8,11.8,19.6,33.6,14.5,56.1c-2.8,12.8-10.3,24.5-22.1,34.9c-10.8,9.5-23.6,16.4-32.2,20.8c-67.3,34-173.9,57.8-251.4,71.8
			c-83.9,15.1-152.8,22.4-153.5,22.4c-120.5,12.6-177.2,17.4-224.5,19.2c-6,0.2-18.9,0.6-36.7,0.8
			C183.8,323.1,177,323.1,170.3,323.1z"/>
	</g>
	<g>
		<path class="st3" d="M598.5,223.1c67,43.4,69.8,41.5,40.1-27.1c31.1,67.7,32.8,67.7,64.1-0.2c-29.9,68.8-27.1,70.7,39.6,26.4
			c-64.3,45.9-64.4,49.4-1.3,96.4c-65.5-45.5-68.4-43.7-41.3,25.9c-28.4-68.8-30.1-68.8-62.1-0.6c30.7-69,28-70.8-38.4-25.2
			C663.2,271.6,663.1,268.1,598.5,223.1z"/>
		<path class="st4" d="M598.5,223.1c67,43.4,69.8,41.5,40.1-27.1c31.1,67.7,32.8,67.7,64.1-0.2c-29.9,68.8-27.1,70.7,39.6,26.4
			c-64.3,45.9-64.4,49.4-1.3,96.4c-65.5-45.5-68.4-43.7-41.3,25.9c-28.4-68.8-30.1-68.8-62.1-0.6c30.7-69,28-70.8-38.4-25.2
			C663.2,271.6,663.1,268.1,598.5,223.1z"/>
	</g>
	<path class="st5" d="M778.5,87.6l9.7-3.2c0.5-0.2,0.7-0.7,0.6-1.1l-1.9-5.9c-0.2-0.5-0.7-0.7-1.1-0.6L776,80"/>
	<g>
		<path class="st6" d="M930.7,518c-22.8,0-43-3.2-58.8-7l1.2-4.9c31.6,7.6,80.4,12.7,133.6-5.9c26.9-9.4,82.9-29.1,102.5-76.6
			c11.2-27.3,9.4-61.3-5.1-95.8c-19.9-47.4-60-88-104.6-105.9c-27-10.9-57.1-14-89.2-9.3c-27.3,4-48.8,12.6-57.9,16.3
			c-60.3,24.1-86.2,62.7-111.2,99.9c-21.5,32-43.8,65.2-87.6,88c-38.9,20.3-85.1,26.7-141.3,19.5c-49.8-6.4-102.5-22.5-153.5-38.2
			l-7.1-2.2c-21.6-6.6-41.6-13.9-62.8-21.6c-52-19-105.8-38.6-189.8-50.3c-23.1-3.2-46.6-5.6-69.8-7l0.3-5c23.3,1.4,46.9,3.8,70.2,7
			c84.5,11.8,138.5,31.5,190.8,50.5c21.1,7.7,41.1,15,62.6,21.5l7.1,2.2c50.8,15.6,103.3,31.7,152.7,38c55.1,7,100.3,0.8,138.3-19
			c42.6-22.2,63.6-53.3,85.7-86.3c25.5-37.9,51.8-77.1,113.5-101.8c14.5-5.8,34.4-13,59.1-16.6c33-4.9,63.9-1.6,91.8,9.6
			c45.8,18.5,86.9,60.1,107.3,108.6c15,35.7,16.8,71.1,5.1,99.6c-20.5,49.6-77.9,69.7-105.5,79.4C980.7,514.5,954.3,518,930.7,518z"
			/>
	</g>
	<g>
		<path class="st7" d="M877.4,406c-6.7,0-13.4-0.3-20.1-1l0.5-5c15.8,1.6,31.8,1.2,47.4-1c25.6-3.7,54.7-7.8,72.5-28.2
			c9.5-10.9,23.6-36.2,11.5-83.7c-14.4-56.2-65.2-85.8-98.8-105.5c-73.5-42.9-143-47.6-188.9-50.7c-46-3.1-123-8.3-206.9,26.8
			c-42.6,17.8-64.9,36.9-88.5,57.1c-13.8,11.8-28,24-47.1,36.7c-31.9,21.3-72,37.8-119.2,49c-55.5,13.2-119.5,18.7-190.2,16.4l0.2-5
			c70.3,2.3,133.9-3.2,188.9-16.3c46.6-11.1,86.2-27.4,117.6-48.3c18.8-12.5,32.9-24.6,46.6-36.3c23.9-20.5,46.5-39.8,89.8-57.9
			c85-35.5,162.7-30.3,209.1-27.2c46.4,3.1,116.6,7.8,191.1,51.3c15.4,9,38.8,22.6,58.4,40.6c22.3,20.4,36.2,42.6,42.7,67.9
			c12.7,49.7-2.4,76.7-12.5,88.3c-19,21.8-49,26.1-75.5,29.8C896.5,405.3,886.9,406,877.4,406z"/>
	</g>
	<circle class="st8" cx="668.5" cy="380.5" r="21"/>
	<circle class="st8" cx="668.5" cy="156.5" r="21"/>
	<path class="st5" d="M882.3,407.5l10.2-0.8c0.5,0,0.9-0.5,0.8-1l-0.5-6.2c0-0.5-0.5-0.9-1-0.8l-10.2,0.8"/>
	<path class="st5" d="M901.7,517.6l10.2,0.8c0.5,0,0.9-0.3,1-0.8l0.5-6.2c0-0.5-0.3-0.9-0.8-1l-10.2-0.8"/>
	<g>
		<path class="st6" d="M301.7,367.5c-18.8,0-37.5-6-49.8-9.9l-2.1-0.7C187.2,337,113,323.6,29.1,317l0.4-5
			c84.2,6.6,158.8,20.1,221.7,40.1l2.1,0.7c20.9,6.7,55.9,17.9,80.7,0.7c16.4-11.4,20.8-30.3,27-56.5c7.5-31.9,7.2-57.1,7-79.3
			c-0.3-27.9-0.5-50,16.5-69.7c5.4-6.2,14.6-14.7,28-19.7c20.8-7.8,46.2-5.2,63.3,6.3c27.2,18.4,30.6,55.1,36.1,115.8
			c2.6,28.4,3.3,57.1,2,85.3l-5-0.2c1.2-28,0.6-56.5-2-84.7c-5.8-64.2-9.7-95.8-33.9-112.2c-15.8-10.6-39.4-12.9-58.7-5.7
			c-12.4,4.6-21,12.5-26,18.3c-15.8,18.3-15.6,38.5-15.3,66.4c0.2,21.4,0.5,48-7.1,80.5c-6.2,26.3-11,47-29,59.5
			C326.3,364.9,314,367.5,301.7,367.5z"/>
	</g>
	<path class="st5" d="M515.5,333.6v-10.2c0-0.5-0.4-0.9-0.9-0.9h-6.2c-0.5,0-0.9,0.4-0.9,0.9v10.2"/>
	<g>
		<path class="st7" d="M427.1,520.6c-36.6,0-68.8-4.3-96.2-12.8c-30.6-9.5-55.9-24.5-75.2-44.6c-12.4-12.9-18.9-24.1-25.9-36.1
			c-6.3-10.8-12.8-22-24.2-35c-40.1-45.6-104-71.4-190.1-75.7l0.1-4.5c87.5,4.3,152.7,30.2,193.8,76.8
			c11.7,13.3,18.4,24.8,24.8,35.8c6.8,11.7,13.2,22.7,25.1,35.1c18.7,19.5,43.3,34.1,73.1,43.3c36.5,11.3,81.9,15,134.9,10.9l0.4,5
			C453.6,520.1,440.1,520.6,427.1,520.6z"/>
	</g>
	<path class="st2" d="M346.9,102.1c-38.4,9.7-71.6,18.1-105.9,44.4c-30.7,23.6-45.1,47.9-59,71.5c-13.8,23.4-26.8,45.5-54.9,64.4
		C97.7,302.3,60.5,312.2,16.5,312h-68v5.5l83-1l-0.5,0.2c38.8-1.8,72-11.9,98.9-30.1c29-19.6,42.3-42.1,56.4-66
		c13.7-23.2,27.8-47.1,57.8-70.1c33.5-25.7,64.6-33.6,104.1-43.6c70.1-17.8,143.7-16.7,218.8,3l1.3-4.8
		C492.2,85.1,417.8,84.1,346.9,102.1z"/>
	<path class="st5" d="M554.8,100.4l-10-2.2c-0.5-0.1-0.9,0.2-1.1,0.7l-1.3,6.1c-0.1,0.5,0.2,0.9,0.7,1.1l10,2.2"/>
	<path class="st5" d="M435.1,514.1h-10.2c-0.5,0-0.9,0.4-0.9,0.9v6.2c0,0.5,0.4,0.9,0.9,0.9h10.2"/>
	<path class="st7" d="M850.5,280.5c0.9,8.3-8.5,18.8-19,19c-12.4,0.2-22.3-13.8-20-21c0.9-2.7,3.9-4.5,10-8c6.4-3.7,9.6-5.6,14-5
		c5.9,0.8,9.7,5.4,11,7C847.7,274,850.1,276.9,850.5,280.5z"/>
	<polygon class="st9" points="803.5,680.5 528.5,680.5 528.5,421.5 669,476.5 803.5,421.5 	"/>
	<g>
		<path class="st10" d="M-244.5,299.1h-5c-13,0-24.3,7.1-30.2,17.7c5.9,10.6,17.2,17.7,30.2,17.7h5c13,0,24.3-7.1,30.2-17.7
			C-220.2,306.2-231.5,299.1-244.5,299.1z"/>
		<path class="st10" d="M-236.3,260.4c9.5,0,18.5,2.3,26.5,6.4V85.1c0-19.1-15.5-34.7-34.7-34.7h-5c-19.1,0-34.7,15.5-34.7,34.7
			v181.7c7.9-4.1,16.9-6.4,26.5-6.4H-236.3z"/>
		<path class="st10" d="M-257.7,369.7c-9.5,0-18.5-2.3-26.5-6.4v185.1c0,19.1,15.5,34.7,34.7,34.7h5c19.1,0,34.7-15.5,34.7-34.7
			V363.3c-7.9,4.1-16.9,6.4-26.5,6.4H-257.7z"/>
		<path class="st11" d="M-236.3,36.2h-21.4c-32.2,0-58.3,24-58.3,53.6v221.8c0,1.1,0.1,2.3,0.1,3.4c1.3-19.4,13.9-36,31.7-44.4
			V103.6c0-17.6,15.5-31.9,34.7-31.9h5c19.1,0,34.7,14.3,34.7,31.9v167.1V301c0,5.7-1.6,11-4.4,15.6c-5.9,9.7-17.2,16.3-30.2,16.3
			h-5c-13,0-24.3-6.6-30.2-16.3c-2.8,4.6-4.4,9.9-4.4,15.6v27.2c7.9,3.7,16.9,5.8,26.5,5.8h21.4c9.5,0,18.5-2.1,26.5-5.8
			c17.9-8.4,30.4-25,31.7-44.4c0.1-1.1,0.1-2.3,0.1-3.4V89.8C-178,60.2-204.1,36.2-236.3,36.2z"/>
		<path class="st11" d="M-178.1,315c-1.3,19.4-13.9,36-31.7,44.4v170.2c0,17.6-15.5,31.9-34.7,31.9h-5c-19.1,0-34.7-14.3-34.7-31.9
			V359.4v-27.2c0-5.7,1.6-11,4.4-15.6c5.9-9.7,17.2-16.3,30.2-16.3h5c13,0,24.3,6.6,30.2,16.3c2.8-4.6,4.4-9.9,4.4-15.6v-30.3
			c-7.9-3.7-16.9-5.8-26.5-5.8h-21.4c-9.5,0-18.5,2.1-26.5,5.8c-17.9,8.4-30.4,25-31.7,44.4c-0.1,1.1-0.1,2.3-0.1,3.4v221.8
			c0,29.6,26.1,53.6,58.3,53.6h21.4c32.2,0,58.3-24,58.3-53.6V318.5C-178,317.3-178,316.2-178.1,315z"/>
		<ellipse class="st11" cx="-247.6" cy="316.6" rx="17.4" ry="16"/>
		<polygon class="st11" points="-247.6,593.9 -316.1,633 -177.9,633 		"/>
		<polygon class="st11" points="-246.4,36 -177.9,-3.5 -316.1,-3.5 		"/>
	</g>
	<g>
		<path class="st10" d="M1467.5,299.1h-5c-13,0-24.3,7.1-30.2,17.7c5.9,10.6,17.2,17.7,30.2,17.7h5c13,0,24.3-7.1,30.2-17.7
			C1491.8,306.2,1480.5,299.1,1467.5,299.1z"/>
		<path class="st10" d="M1475.7,260.4c9.5,0,18.5,2.3,26.5,6.4V85.1c0-19.1-15.5-34.7-34.7-34.7h-5c-19.1,0-34.7,15.5-34.7,34.7
			v181.7c7.9-4.1,16.9-6.4,26.5-6.4H1475.7z"/>
		<path class="st10" d="M1454.3,369.7c-9.5,0-18.5-2.3-26.5-6.4v185.1c0,19.1,15.5,34.7,34.7,34.7h5c19.1,0,34.7-15.5,34.7-34.7
			V363.3c-7.9,4.1-16.9,6.4-26.5,6.4H1454.3z"/>
		<path class="st11" d="M1475.7,36.2h-21.4c-32.2,0-58.3,24-58.3,53.6v221.8c0,1.1,0.1,2.3,0.1,3.4c1.3-19.4,13.9-36,31.7-44.4
			V103.6c0-17.6,15.5-31.9,34.7-31.9h5c19.1,0,34.7,14.3,34.7,31.9v167.1V301c0,5.7-1.6,11-4.4,15.6c-5.9,9.7-17.2,16.3-30.2,16.3
			h-5c-13,0-24.3-6.6-30.2-16.3c-2.8,4.6-4.4,9.9-4.4,15.6v27.2c7.9,3.7,16.9,5.8,26.5,5.8h21.4c9.5,0,18.5-2.1,26.5-5.8
			c17.9-8.4,30.4-25,31.7-44.4c0.1-1.1,0.1-2.3,0.1-3.4V89.8C1534,60.2,1507.9,36.2,1475.7,36.2z"/>
		<path class="st11" d="M1533.9,315c-1.3,19.4-13.9,36-31.7,44.4v170.2c0,17.6-15.5,31.9-34.7,31.9h-5c-19.1,0-34.7-14.3-34.7-31.9
			V359.4v-27.2c0-5.7,1.6-11,4.4-15.6c5.9-9.7,17.2-16.3,30.2-16.3h5c13,0,24.3,6.6,30.2,16.3c2.8-4.6,4.4-9.9,4.4-15.6v-30.3
			c-7.9-3.7-16.9-5.8-26.5-5.8h-21.4c-9.5,0-18.5,2.1-26.5,5.8c-17.9,8.4-30.4,25-31.7,44.4c-0.1,1.1-0.1,2.3-0.1,3.4v221.8
			c0,29.6,26.1,53.6,58.3,53.6h21.4c32.2,0,58.3-24,58.3-53.6V318.5C1534,317.3,1534,316.2,1533.9,315z"/>
		<ellipse class="st11" cx="1464.4" cy="316.6" rx="17.4" ry="16"/>
		<polygon class="st11" points="1464.4,593.9 1395.9,633 1534.1,633 		"/>
		<polygon class="st11" points="1465.6,36 1534.1,-3.5 1395.9,-3.5 		"/>
	</g>
	<g>
		<path class="st12" d="M87.7-5.9c75.6-4.2,150.7-2.3,226.4-0.1c5.5,203.2,14.9,409.1-1.7,612c-74.5-8.3-138.8-0.2-212.6,4.9
			C85.1,416.5,89.4,191.5,87.7-5.9z"/>
		<g>
			<path class="st10" d="M202.1,303.5c-0.2,0.1-0.4,0.2-0.6,0.3c2.4,0.4,4.7,0.9,7.1,0.8c4-0.1,7.7-1.1,11.5-2.6
				c0.2-0.1,0.4-0.2,0.6-0.3c-2.4-0.4-4.7-0.9-7.2-0.8C209.5,301,205.9,301.9,202.1,303.5z"/>
			<path class="st10" d="M209,383.2c-9.1,0-16.8-2.4-25.4-4.7c0.1,0.8-0.1,2.1,0,2.9c0.2,4.4,0.8,8.5,2.1,12.7
				c0.7,2,1.5,3.8,2.6,5.6c1,1.8,2.3,3.3,3.7,4.8c1.4,1.5,2.8,2.8,4.5,3.9s3.3,2.2,5.3,3c3.9,1.5,7.8,2.6,12.1,2.6
				c4.2,0,8.2-1,12.2-2.4c1.8-0.7,3.7-1.8,5.3-2.9s3.1-2.3,4.6-3.9c1.4-1.5,2.6-2.8,3.8-4.8c1.2-2,1.9-3,2.8-5.9
				c1.6-4.9,2.1-11.9,1.9-17.4C232.9,380.2,221,383.1,209,383.2C208.8,383.3,208.9,383.3,209,383.2z"/>
			<path class="st13" d="M205.6,114.9C205.2,113.4,205.3,113.7,205.6,114.9c-65,1.3-86.7,57.1-84.7,114.7c0.3,8.2,2.1,31.2,2.8,41.2
				c0.5,6.6,1.5,13.9,2.5,20.3c8.5-27.6,25.2-48.2,51.3-61.1c-0.2-5.5,0-12.4,1.6-17.3c0.9-2.9,1.6-3.8,2.7-5.8
				c1.1-2,2.3-3.3,3.7-4.9s2.8-2.8,4.5-4s3.3-2.3,5.3-3c3.9-1.5,7.8-2.6,12.1-2.7c4.3,0,8.2,0.9,12.2,2.4c1.9,0.7,3.7,1.8,5.3,2.9
				c1.7,1.1,3.2,2.4,4.7,3.8s2.8,2.9,3.9,4.7c1.1,1.8,2.1,3.3,2.8,5.5c1.5,4.7,2.3,7.6,2.5,13.3c0,1,0-0.9,0,5.7
				c0,6.7,0.2,30.8-0.2,41.2c-0.1,4-1,9.1-2.5,12.8c-0.7,1.8-1.7,3.9-2.7,5.5c-1.1,1.7-2.4,3.4-3.7,4.8s-2.9,2.8-4.4,3.9
				c-1.5,1.1-2.9,1.9-4.5,2.8c-0.2,0.1-0.3,0.2-0.6,0.3c-3.7,1.4-7.4,2.4-11.5,2.5c-2.4,0.1-4.8-0.4-7.1-0.8c-1.6,0.9-3,1.6-4.4,2.7
				c-1.5,1.2-2.9,2.4-4.2,3.9c-1.3,1.5-2.5,3-3.6,4.8s-2,3.3-2.6,5.5c-1.3,4.7-2.3,7.4-2.4,12.9c-0.2,14.3-0.3,30.2-1,45
				c9,1.9,15.8,5.5,25.5,4.6c-0.3,0.3-0.2,0.2,0,0c12.9-1.2,22.7-0.9,35.8-7.2c26.4-12.8,42.8-33.9,52.7-63.2
				c3.9-11.4,7.4-29,7.9-43.4c0.4-10.2,1.1-35.6,1.1-44.9C306.4,161.7,270.6,113.6,205.6,114.9z"/>
			<path class="st13" d="M297.4,313.9c-10.2,27.8-26,49.5-53.1,62.7c0.2,5.6-0.3,12.5-1.9,17.5c-1,2.9-1.7,3.8-2.9,5.8
				s-2.4,3.3-3.8,4.9c-1.4,1.6-2.8,2.8-4.6,3.9c-1.7,1.2-3.4,2.2-5.4,2.9c-3.9,1.4-7.9,2.5-12.1,2.4s-8.1-1.1-12.1-2.6
				c-1.8-0.7-3.6-1.8-5.2-3s-3.1-2.4-4.5-3.9c-1.4-1.5-2.6-3-3.7-4.8s-1.9-3.4-2.6-5.6c-1.3-4.7-2-7.7-2.1-13.5c0-1-0.1,0.9,0.2-5.8
				c0.2-6.7,0.7-31,0.8-41.5c0-4,1-9,2.4-12.8c0.7-1.8,1.6-3.8,2.6-5.5s2.3-3.3,3.5-4.8s2.7-2.7,4.2-3.9c1.5-1.1,2.9-1.9,4.5-2.7
				c0.2-0.1,0.3-0.2,0.6-0.3c3.7-1.4,7.4-2.4,11.5-2.5c2.4-0.1,4.8,0.4,7.1,0.8c1.6-0.9,3-1.6,4.5-2.8c1.5-1.2,3-2.4,4.4-3.9
				s2.6-3,3.7-4.8s2.1-3.4,2.7-5.6c1.4-4.7,2.4-7.5,2.5-13c0.4-14.3,0.2-30,0.3-44.7c-9.1-1.8-16.4-5.2-26-4.2c0.2-0.3,0.2-0.2,0,0
				c-12.8,1.4-23.1,1.5-35.7,7.7c-25.5,12.7-43,32.4-50.8,61.7c-3,11.4-4.2,28.5-4.7,42.7c-0.4,10.2-2.5,36.1-3.3,45.6
				c-4.9,64.4,26.8,110.8,93.5,110.8c0.7,1.4,0.5,1.1,0,0c66.8,0,90.5-53.5,89.8-113.5c-0.1-8.5-2.5-32.3-2.7-42.7
				C298.7,328.1,298.1,320.6,297.4,313.9z"/>
			<path class="st14" d="M211.5,300.5c1.2,0,2,1,2.1,2.2c0,1.2-0.8,2.2-2,2.2s-2-1-2.1-2.2C209.5,301.5,210.3,300.5,211.5,300.5z"/>
		</g>
	</g>
	<g>
		<path class="st12" d="M1025.7-6c76.9-5,149.4-2.6,226.2,0.1c17.6,200.8,20,402.5,23.8,604c-73.9,4.6-147.5,12-221.4,16.5
			C1042.9,407.3,1036.8,200.3,1025.7-6z"/>
		<g>
			<path class="st10" d="M1147.9,310.2c-0.2,0.1-0.4,0.2-0.6,0.3c2.6,0.4,5.1,0.8,7.8,0.6c4.4-0.3,8.4-1.4,12.4-3
				c0.2-0.1,0.4-0.2,0.6-0.3c-2.6-0.4-5.2-0.8-7.8-0.6C1155.9,307.4,1151.9,308.5,1147.9,310.2z"/>
			<path class="st10" d="M1157.8,390.8c-9.6,0.5-18.1-1.6-27.3-3.6c0.1,0.8,0.1,2.1,0.1,2.9c0.4,4.5,1.3,8.6,3.1,12.8
				c0.8,2,1.9,3.8,3.1,5.5c1.2,1.7,2.6,3.3,4.1,4.7c1.5,1.5,3.1,2.7,4.9,3.8c1.8,1.1,3.6,2.1,5.7,2.8c4.1,1.4,8.3,2.2,12.7,2.1
				c4.4-0.2,8.4-1.3,12.5-3.1c1.9-0.8,3.7-2,5.4-3.2s3.2-2.5,4.7-4.2c1.5-1.6,2.7-3,3.9-5.1c1.2-2.1,1.9-3.1,2.8-6.1
				c1.6-5.1,2-12.1,1.7-17.8C1183.1,386.6,1170.7,390.1,1157.8,390.8C1157.7,390.9,1157.7,390.9,1157.8,390.8z"/>
			<path class="st13" d="M1149.5,117.4C1148.6,115.8,1148.7,116.1,1149.5,117.4c-62.5,2.6-80.8,65.4-84.3,118.5
				c-0.5,7.5-0.2,33.2-0.4,43.2c-0.1,6.6,0.6,14.7,1.2,21.2c10.4-28.8,28.5-50.9,56.1-64.8c-0.1-5.7,0.3-12.8,2-17.8
				c1-3,1.7-3.9,2.9-6c1.2-2.1,2.4-3.4,3.8-5c1.4-1.6,2.8-2.9,4.4-4.1c1.7-1.2,3.2-2.3,5.1-3.2c3.8-1.6,7.6-2.8,11.8-2.9
				c4.2-0.1,8,0.8,12,2.2c1.8,0.7,3.6,1.7,5.3,2.8c1.7,1.1,3.2,2.3,4.7,3.8c1.5,1.5,2.9,2.9,4,4.7c1.2,1.8,2.2,3.3,3.1,5.6
				c1.7,4.7,2.7,7.7,3.1,13.5c0.1,1,0-0.9,0.2,5.9c0.3,6.8,1.3,31.3,1.6,42c0.1,4.1-0.7,9.2-2.1,13.1c-0.7,1.9-1.6,4-2.7,5.7
				c-1.1,1.7-2.4,3.5-3.8,5c-1.4,1.5-3,2.9-4.6,4.1c-1.6,1.2-3.1,2-4.9,3c-0.2,0.1-0.3,0.2-0.6,0.3c-4,1.6-8,2.7-12.4,3
				c-2.6,0.2-5.2-0.2-7.8-0.6c-1.7,0.9-3.3,1.7-4.8,2.9c-1.6,1.2-3.2,2.6-4.6,4.1c-1.4,1.6-2.8,3.1-3.8,5s-2.1,3.5-2.8,5.7
				c-1.3,4.8-2.3,7.7-2.2,13.3c0.2,14.6,1,30.7,1.2,45.8c9.7,1.6,17.3,4.8,27.4,3.5c-0.2,0.3-0.2,0.2,0,0c13.5-1.7,24.4-2.2,37.7-9
				c27-13.7,45.9-35.1,55-65.8c3.5-12,5.1-29.8,4.6-44.2c-0.4-10.3-1.9-37-2.6-45.8C1247.8,166.6,1211.9,114.8,1149.5,117.4z"/>
			<path class="st13" d="M1250.6,317.1c-9.8,29.3-27.8,51.3-55.5,65.4c0.2,5.7-0.1,12.8-1.7,17.8c-1,3-1.7,4-2.8,6.1
				s-2.4,3.5-3.8,5.1c-1.5,1.7-2.9,2.9-4.7,4.2c-1.8,1.3-3.4,2.4-5.5,3.2c-4,1.7-8.1,2.9-12.5,3c-4.4,0.2-8.5-0.7-12.7-2.1
				c-1.9-0.6-3.9-1.7-5.6-2.8c-1.8-1.1-3.4-2.3-4.9-3.8s-2.9-2.9-4.2-4.7c-1.2-1.8-2.3-3.3-3.1-5.6c-1.7-4.7-2.7-7.7-3.1-13.6
				c-0.1-1,0,0.9-0.2-5.9c-0.2-6.8-1-31.5-1.2-42.2c-0.1-4.1,0.8-9.2,2.2-13.1c0.7-1.9,1.7-4,2.8-5.7c1.1-1.7,2.4-3.5,3.8-5
				c1.4-1.5,3-2.9,4.6-4.1c1.6-1.2,3.1-2,4.9-2.9c0.2-0.1,0.3-0.2,0.6-0.3c4-1.6,8-2.7,12.4-2.9c2.6-0.2,5.2,0.2,7.8,0.6
				c1.7-0.9,3.3-1.7,4.8-3c1.6-1.2,3.2-2.6,4.6-4.1c1.4-1.6,2.7-3.1,3.8-5s2.1-3.5,2.7-5.7c1.3-4.8,2.3-7.6,2.1-13.2
				c-0.4-14.6-1.2-30.6-1.7-45.6c-9.4-1.5-16.8-4.9-26.7-3.6c0.2-0.3,0.2-0.2,0,0c-13.2,1.7-23,1.9-36.2,8.6
				c-26.7,13.6-45.9,35-55.5,65.4c-3.8,11.9-6,30-5.8,44.7c0.1,10.5,0.7,36.8,1.1,46.2c2.7,63.5,38.3,112.2,105.1,108.8
				c0.6,1.5,0.4,1.2,0,0c66.8-3.4,88-60.9,88.1-120.3c0-8.4-1.5-32.4-1.7-42.7C1252.5,331.3,1251.5,323.8,1250.6,317.1z"/>
			<path class="st14" d="M1158,306.8c1.3,0,2.2,0.9,2.3,2.1c0,1.3-0.9,2.2-2.1,2.3s-2.2-0.9-2.3-2.1
				C1155.8,307.8,1156.7,306.9,1158,306.8z"/>
		</g>
	</g>
	<path class="st8" d="M346.5-0.5h-292l0,0c0,4.6,4.9,8.2,10.8,8.2h270C341.6,7.7,346.5,4,346.5-0.5L346.5-0.5z"/>
	<path class="st8" d="M1284.5-0.5h-292l0,0c0,4.6,4.9,8.2,10.8,8.2h270C1279.6,7.7,1284.5,4,1284.5-0.5L1284.5-0.5z"/>
	<g>
		<path class="st10" d="M681.2,160.5c18.4,0,35.7,4.7,50.8,12.9v-19.3c0-35.3-25.4-64.1-56.5-64.1h-13c-31.2,0-56.5,28.7-56.5,64.1
			v19.3c15.1-8.2,32.4-12.9,50.8-12.9H681.2z"/>
		<path class="st10" d="M675.5,229h-13c-23.2,0-43.1,15.9-51.8,38.5c8.7,22.6,28.7,38.5,51.8,38.5h13c23.2,0,43.1-15.9,51.8-38.5
			C718.6,244.9,698.6,229,675.5,229z"/>
		<path class="st10" d="M656.8,380.5c-18.4,0-35.7-4.7-50.8-12.9v13.3c0,35.3,25.4,64.1,56.5,64.1h13c31.2,0,56.5-28.7,56.5-64.1
			v-13.3c-15.1,8.2-32.4,12.9-50.8,12.9H656.8z"/>
		<path class="st8" d="M681.2,21.5h-24.5c-58.7,0-106.3,47.6-106.3,106.3v139c0-40.3,22.4-75.4,55.5-93.4v-19.3
			c0-35.3,25.4-64.1,56.5-64.1h13c31.2,0,56.5,28.7,56.5,64.1v19.3v68.6c0,9.1-1.7,17.7-4.7,25.6c-8.7,22.6-28.7,38.5-51.8,38.5h-13
			c-23.2,0-43.1-15.9-51.8-38.5c-3,7.8-4.7,16.5-4.7,25.6v74.6c15.1,8.2,32.4,12.9,50.8,12.9h24.5c18.4,0,35.7-4.7,50.8-12.9
			c33.1-18,55.5-53.1,55.5-93.4v-7.5v-139C787.5,69.1,739.9,21.5,681.2,21.5z"/>
		<path class="st8" d="M732,367.6v13.3c0,35.3-25.4,64.1-56.5,64.1h-13c-31.2,0-56.5-28.7-56.5-64.1v-13.3v-74.6
			c0-9.1,1.7-17.7,4.7-25.6c8.7-22.6,28.7-38.5,51.8-38.5h13c23.2,0,43.1,15.9,51.8,38.5c3-7.8,4.7-16.5,4.7-25.6v-68.6
			c-15.1-8.2-32.4-12.9-50.8-12.9h-24.5c-18.4,0-35.7,4.7-50.8,12.9c-33.1,18-55.5,53.1-55.5,93.4v7.5v139
			c0,58.7,47.6,106.3,106.3,106.3h24.5c58.7,0,106.3-47.6,106.3-106.3v-139C787.5,314.5,765.1,349.6,732,367.6z"/>
	</g>
	<g>
		<path class="st8" d="M681.2-729.5h-24.5c-58.7,0-106.3,47.6-106.3,106.3v146.5c0,58.7,47.6,106.3,106.3,106.3h24.5
			c58.7,0,106.3-47.6,106.3-106.3v-146.5C787.5-681.9,739.9-729.5,681.2-729.5z M732-509.1c0,35.3-25.4,64.1-56.5,64.1h-13
			c-31.2,0-56.5-28.7-56.5-64.1v-87.9c0-35.3,25.4-64.1,56.5-64.1h13c31.2,0,56.5,28.7,56.5,64.1V-509.1z"/>
	</g>
	<g>
		<path class="st8" d="M681.2-590.5h-24.5c-58.7,0-106.3,47.6-106.3,106.3v146.5c0,58.7,47.6,106.3,106.3,106.3h24.5
			c58.7,0,106.3-47.6,106.3-106.3v-146.5C787.5-542.9,739.9-590.5,681.2-590.5z M732-370.1c0,35.3-25.4,64.1-56.5,64.1h-13
			c-31.2,0-56.5-28.7-56.5-64.1v-87.9c0-35.3,25.4-64.1,56.5-64.1h13c31.2,0,56.5,28.7,56.5,64.1V-370.1z"/>
	</g>
	<path class="st8" d="M748.5,1004.5h-158c-21.5,0-39-17.5-39-39v-11c0-21.5,17.5-39,39-39h158c21.5,0,39,17.5,39,39v11
		C787.5,987,770,1004.5,748.5,1004.5z"/>
	<path class="st8" d="M550.5,365.1v290.3c0,17.7-14.4,32.1-32.1,32.1h-76.8c-17.7,0-32.1-14.4-32.1-32.1l50.2-280
		c0.9-4.9,1.5-9.7,2.1-14.6c2.1-15.7,15.6-27.7,31.8-27.7h24.8C536.1,333,550.5,347.4,550.5,365.1z"/>
	<path class="st15" d="M854.5,278.5h-46c0,11.8,8.9,21.5,20.4,22.8c1,8.4-0.3,23.9-1.9,28.4c-5.8,0.5-10,2-10,3.8h29
		c0-1.8-4.3-3.3-10.1-3.8c-1.6-4.5-2.9-20.4-1.9-28.3C845.5,300.2,854.5,290.4,854.5,278.5z"/>
	<g>
		<polygon class="st8" points="246.5,788.5 141.5,893.5 141.5,966.5 241.5,950.5 		"/>
		<polygon class="st8" points="-80.5,788.5 24.5,893.5 24.5,966.5 -75.5,950.5 		"/>
		<polygon class="st8" points="-61.5,946.5 84.5,959.5 231.5,946.5 231.5,1131.5 -61.5,1131.5 		"/>
		<polygon class="st8" points="246.5,788.1 335.5,808.5 364.5,1122.5 126.5,1122.5 127.5,955.5 199.5,913.5 		"/>
		<polygon class="st8" points="-81.5,788.1 -170.5,808.5 -199.5,1122.5 38.5,1122.5 37.5,955.5 -34.5,913.5 		"/>
	</g>
	<path class="st8" d="M783.1,484.5H554.9c-4.1,0-7.4,3.3-7.4,7.4v36.2c0,4.1,3.3,7.4,7.4,7.4h228.2c4.1,0,7.4-3.3,7.4-7.4v-36.2
		C790.5,487.8,787.2,484.5,783.1,484.5z"/>
	<path class="st8" d="M787.5,365.1v290.3c0,17.7,14.4,32.1,32.1,32.1h76.8c17.7,0,32.1-14.4,32.1-32.1l-50.2-280
		c-0.9-4.9-1.5-9.7-2.1-14.6c-2.1-15.7-15.6-27.7-31.8-27.7h-24.8C801.9,333,787.5,347.4,787.5,365.1z"/>
	<path class="st16" d="M-28.5,314.5"/>
	<path class="st16" d="M973.5,438.5"/>
	<line class="st16" x1="2115.5" y1="285.5" x2="2193.5" y2="285.5"/>
	<path class="st16" d="M2193.5,285.5c152,5,250.9-26.9,308-65c51.8-34.5,68.3-65.7,136-94c84.5-35.3,162.2-30.1,208-27
		c48.5,3.3,117.4,8.7,190,51c35.7,20.8,85.7,51,100,107c2.2,8.6,14.3,55.9-12,86c-18.4,21.1-48.3,25.3-74,29
		c-19.5,2.8-36.2,2.2-48,1"/>
	<path class="st16" d="M2173.3,285.5c102.2,8,172.7,24.6,221.2,40c20.2,6.4,58.3,19.5,85,1c16.8-11.7,21.6-30.8,28-58
		c17.3-73.6-6.3-114.1,23-148c4.9-5.7,13.9-14.1,27-19c20.1-7.5,44.7-5,61,6c25.7,17.4,29.3,51.3,35,114c3.2,35.2,2.9,64.6,2,85"/>
	<path class="st16" d="M2159.5,285.5c68,3.4,143.2,20.5,192,76c24,27.2,26.4,46.5,50,71c33.6,35,94.1,63.9,210,55"/>
	<path class="st16" d="M2159.5,285.5c56.8,0.3,91.5-16.1,112-30c56.7-38.3,53-89.2,114-136c33.9-26,66.2-34.2,105-44
		c88.6-22.4,167.8-10.7,220,3"/>
	<path class="st16" d="M2171.5,285.5c39.2,3.4,95,6.8,163,6c17.1-0.2,29.9-0.6,36.7-0.8c45.9-1.7,101.2-6.3,224.3-19.2
		c0,0,274.2-28.4,404-94c20-10.1,46.8-26.4,53-54c4.6-20.6-3.6-41.6-14-54c-24.6-29.5-80.5-34.1-136-6"/>
	<path class="st16" d="M2173.5,285.5c16.3,1,40.7,2.9,70,7c118.3,16.5,178.1,49.1,253,72c105.8,32.4,212.3,66.7,300,21
		c93.6-48.8,85.7-142.6,199-188c21.6-8.7,84.8-32.9,149-7c80.2,32.4,140.2,134.1,111,205c-20,48.6-76,68.2-104,78
		c-59.2,20.8-111.4,11.7-135,6"/>
	<path class="st3" d="M376.1,631.6v-15.9v-0.2c0.2-4.3,3.6-7.5,7.9-7.5s7.7,3.3,7.9,7.5v0.3l0,0v15.7h-15.8V631.6z"/>
</g>
</svg>
