<?xml version="1.0" encoding="utf-8"?>
<!-- Generator: Adobe Illustrator 22.0.1, SVG Export Plug-In . SVG Version: 6.00 Build 0)  -->
<svg version="1.1" xmlns="http://www.w3.org/2000/svg" xmlns:xlink="http://www.w3.org/1999/xlink" x="0px" y="0px"
	 viewBox="0 0 1340 630" style="enable-background:new 0 0 1340 630;" xml:space="preserve">
<style type="text/css">
	.st0{fill:#414143;stroke:#000000;stroke-miterlimit:10;}
	.st1{fill:#414143;}
	.st2{fill:#E8E7E7;}
	.st3{fill:#CFD9C5;}
	.st4{fill:#BFDDA1;}
	.st5{fill:#41B369;}
	.st6{fill:#F8A079;}
	.st7{fill:#EF5B49;}
	.st8{fill:#FCC638;}
	.st9{fill:#C1C5E8;}
	.st10{fill:#383838;}
	.st11{fill:#84CE9B;stroke:#000000;stroke-miterlimit:10;}
	.st12{fill:#8BA4C9;stroke:#000000;stroke-miterlimit:10;}
	.st13{fill:#DD796F;stroke:#000000;stroke-miterlimit:10;}
	.st14{fill:#DDDDD3;stroke:#000000;stroke-miterlimit:10;}
	.st15{fill:#7282B2;stroke:#000000;stroke-miterlimit:10;}
	.st16{fill:none;}
	.st17{fill:#F2DCA5;stroke:#000000;stroke-miterlimit:10;}
	.st18{fill:#383838;stroke:#000000;stroke-miterlimit:10;}
	.st19{fill:#DDDDD3;}
</style>
<g id="Layer_1">
	<path class="st0" d="M-151.1,342.8l-0.2-0.3c-8.6-14.9-9-32.9-2-48.7c2.4-5.3,3.6-11.3,3.2-17.6c-1.1-19.5-17.2-35.1-36.7-35.7
		c-21.5-0.7-39.2,16.6-39.2,38c0,6.1,1.4,11.8,4,16.9c8,16.1,8.1,35,0,51.1l0,0l-56.9,81.9c-3.6,5.2-5.1,11.6-4.2,17.8l5.5,36.5
		c1.1,7.1,8.4,11.3,15.1,8.8l0,0l-0.7-36.9c-0.2-9.1,3.1-17.8,9.3-24.5l15.3-16.6c4-4.3,11.2-1.4,11.1,4.5l-5.2,203.1
		c-0.1,5.2,4,9.4,9.2,9.4h8.6L-194,525c0.6-3.2,3.4-5.5,6.7-5.5h14.1c3.7,0,6.9,2.6,7.7,6.2l23.6,104.8h9.9c5.4,0,9.7-4.6,9.4-10
		L-136.8,419c-0.3-3.6,4.2-5.6,6.7-2.9l15.9,17.3c6,6.5,9.2,15.1,9,23.9l-0.7,37.3l0,0c6.7,2.6,14-1.7,15.1-8.8l5.9-39.3
		c0.7-4.4-0.4-9-3-12.7L-151.1,342.8z"/>
	<rect y="662" class="st1" width="63" height="63"/>
	<rect x="63" y="662" class="st2" width="63" height="63"/>
	<rect x="126" y="662" class="st3" width="63" height="63"/>
	<rect x="189" y="662" class="st4" width="63" height="63"/>
	<rect x="252" y="662" class="st5" width="63" height="63"/>
	<rect x="315" y="662" class="st6" width="63" height="63"/>
	<rect x="378" y="662" class="st7" width="63" height="63"/>
	<rect x="441" y="662" class="st8" width="63" height="63"/>
	<rect x="504" y="662" class="st9" width="63" height="63"/>
	<g>
		<path class="st10" d="M0,0v630h1340V0H0z M133.5,622.1c0,3.8-3.1,6.9-6.9,6.9H7.4c-3.8,0-6.9-3.1-6.9-6.9v-75.3
			c0-3.8,3.1-6.9,6.9-6.9h119.1c3.8,0,6.9,3.1,6.9,6.9V622.1z M133.5,532.2c0,3.8-3.1,6.9-6.9,6.9H7.4c-3.8,0-6.9-3.1-6.9-6.9v-75.3
			c0-3.8,3.1-6.9,6.9-6.9h119.1c3.8,0,6.9,3.1,6.9,6.9V532.2z M133.5,442.3c0,3.8-3.1,6.9-6.9,6.9H7.4c-3.8,0-6.9-3.1-6.9-6.9v-75.3
			c0-3.8,3.1-6.9,6.9-6.9h119.1c3.8,0,6.9,3.1,6.9,6.9V442.3z M133.5,352.5c0,3.8-3.1,6.9-6.9,6.9H7.4c-3.8,0-6.9-3.1-6.9-6.9v-75.3
			c0-3.8,3.1-6.9,6.9-6.9h119.1c3.8,0,6.9,3.1,6.9,6.9V352.5z M133.5,262.6c0,3.8-3.1,6.9-6.9,6.9H7.4c-3.8,0-6.9-3.1-6.9-6.9v-75.3
			c0-3.8,3.1-6.9,6.9-6.9h119.1c3.8,0,6.9,3.1,6.9,6.9V262.6z M133.5,172.8c0,3.8-3.1,6.9-6.9,6.9H7.4c-3.8,0-6.9-3.1-6.9-6.9V97.5
			c0-3.8,3.1-6.9,6.9-6.9h119.1c3.8,0,6.9,3.1,6.9,6.9V172.8z M133.5,82.9c0,3.8-3.1,6.9-6.9,6.9H7.4c-3.8,0-6.9-3.1-6.9-6.9V7.6
			c0-3.8,3.1-6.9,6.9-6.9h119.1c3.8,0,6.9,3.1,6.9,6.9V82.9z M267.3,622.1c0,3.8-3.1,6.9-6.9,6.9H141.2c-3.8,0-6.9-3.1-6.9-6.9
			v-75.3c0-3.8,3.1-6.9,6.9-6.9h119.1c3.8,0,6.9,3.1,6.9,6.9V622.1z M267.3,532.2c0,3.8-3.1,6.9-6.9,6.9H141.2
			c-3.8,0-6.9-3.1-6.9-6.9v-75.3c0-3.8,3.1-6.9,6.9-6.9h119.1c3.8,0,6.9,3.1,6.9,6.9V532.2z M267.3,442.3c0,3.8-3.1,6.9-6.9,6.9
			H141.2c-3.8,0-6.9-3.1-6.9-6.9v-75.3c0-3.8,3.1-6.9,6.9-6.9h119.1c3.8,0,6.9,3.1,6.9,6.9V442.3z M267.3,352.5
			c0,3.8-3.1,6.9-6.9,6.9H141.2c-3.8,0-6.9-3.1-6.9-6.9v-75.3c0-3.8,3.1-6.9,6.9-6.9h119.1c3.8,0,6.9,3.1,6.9,6.9V352.5z
			 M267.3,262.6c0,3.8-3.1,6.9-6.9,6.9H141.2c-3.8,0-6.9-3.1-6.9-6.9v-75.3c0-3.8,3.1-6.9,6.9-6.9h119.1c3.8,0,6.9,3.1,6.9,6.9
			V262.6z M267.3,172.8c0,3.8-3.1,6.9-6.9,6.9H141.2c-3.8,0-6.9-3.1-6.9-6.9V97.5c0-3.8,3.1-6.9,6.9-6.9h119.1
			c3.8,0,6.9,3.1,6.9,6.9V172.8z M267.3,82.9c0,3.8-3.1,6.9-6.9,6.9H141.2c-3.8,0-6.9-3.1-6.9-6.9V7.6c0-3.8,3.1-6.9,6.9-6.9h119.1
			c3.8,0,6.9,3.1,6.9,6.9V82.9z M401.3,622.1c0,3.8-3.1,6.9-6.9,6.9H275.2c-3.8,0-6.9-3.1-6.9-6.9v-75.3c0-3.8,3.1-6.9,6.9-6.9
			h119.1c3.8,0,6.9,3.1,6.9,6.9V622.1z M401.3,532.2c0,3.8-3.1,6.9-6.9,6.9H275.2c-3.8,0-6.9-3.1-6.9-6.9v-75.3
			c0-3.8,3.1-6.9,6.9-6.9h119.1c3.8,0,6.9,3.1,6.9,6.9V532.2z M401.3,442.3c0,3.8-3.1,6.9-6.9,6.9H275.2c-3.8,0-6.9-3.1-6.9-6.9
			v-75.3c0-3.8,3.1-6.9,6.9-6.9h119.1c3.8,0,6.9,3.1,6.9,6.9V442.3z M401.3,352.5c0,3.8-3.1,6.9-6.9,6.9H275.2
			c-3.8,0-6.9-3.1-6.9-6.9v-75.3c0-3.8,3.1-6.9,6.9-6.9h119.1c3.8,0,6.9,3.1,6.9,6.9V352.5z M401.3,262.6c0,3.8-3.1,6.9-6.9,6.9
			H275.2c-3.8,0-6.9-3.1-6.9-6.9v-75.3c0-3.8,3.1-6.9,6.9-6.9h119.1c3.8,0,6.9,3.1,6.9,6.9V262.6z M401.3,172.8
			c0,3.8-3.1,6.9-6.9,6.9H275.2c-3.8,0-6.9-3.1-6.9-6.9V97.5c0-3.8,3.1-6.9,6.9-6.9h119.1c3.8,0,6.9,3.1,6.9,6.9V172.8z M401.3,82.9
			c0,3.8-3.1,6.9-6.9,6.9H275.2c-3.8,0-6.9-3.1-6.9-6.9V7.6c0-3.8,3.1-6.9,6.9-6.9h119.1c3.8,0,6.9,3.1,6.9,6.9V82.9z M535.2,622.1
			c0,3.8-3.1,6.9-6.9,6.9H409.2c-3.8,0-6.9-3.1-6.9-6.9v-75.3c0-3.8,3.1-6.9,6.9-6.9h119.1c3.8,0,6.9,3.1,6.9,6.9V622.1z
			 M535.2,532.2c0,3.8-3.1,6.9-6.9,6.9H409.2c-3.8,0-6.9-3.1-6.9-6.9v-75.3c0-3.8,3.1-6.9,6.9-6.9h119.1c3.8,0,6.9,3.1,6.9,6.9
			V532.2z M535.2,442.3c0,3.8-3.1,6.9-6.9,6.9H409.2c-3.8,0-6.9-3.1-6.9-6.9v-75.3c0-3.8,3.1-6.9,6.9-6.9h119.1
			c3.8,0,6.9,3.1,6.9,6.9V442.3z M535.2,352.5c0,3.8-3.1,6.9-6.9,6.9H409.2c-3.8,0-6.9-3.1-6.9-6.9v-75.3c0-3.8,3.1-6.9,6.9-6.9
			h119.1c3.8,0,6.9,3.1,6.9,6.9V352.5z M535.2,262.6c0,3.8-3.1,6.9-6.9,6.9H409.2c-3.8,0-6.9-3.1-6.9-6.9v-75.3
			c0-3.8,3.1-6.9,6.9-6.9h119.1c3.8,0,6.9,3.1,6.9,6.9V262.6z M535.2,172.8c0,3.8-3.1,6.9-6.9,6.9H409.2c-3.8,0-6.9-3.1-6.9-6.9
			V97.5c0-3.8,3.1-6.9,6.9-6.9h119.1c3.8,0,6.9,3.1,6.9,6.9V172.8z M535.2,82.9c0,3.8-3.1,6.9-6.9,6.9H409.2c-3.8,0-6.9-3.1-6.9-6.9
			V7.6c0-3.8,3.1-6.9,6.9-6.9h119.1c3.8,0,6.9,3.1,6.9,6.9V82.9z M669.2,622.1c0,3.8-3.1,6.9-6.9,6.9H543.1c-3.8,0-6.9-3.1-6.9-6.9
			v-75.3c0-3.8,3.1-6.9,6.9-6.9h119.1c3.8,0,6.9,3.1,6.9,6.9V622.1z M669.2,532.2c0,3.8-3.1,6.9-6.9,6.9H543.1
			c-3.8,0-6.9-3.1-6.9-6.9v-75.3c0-3.8,3.1-6.9,6.9-6.9h119.1c3.8,0,6.9,3.1,6.9,6.9V532.2z M669.2,442.3c0,3.8-3.1,6.9-6.9,6.9
			H543.1c-3.8,0-6.9-3.1-6.9-6.9v-75.3c0-3.8,3.1-6.9,6.9-6.9h119.1c3.8,0,6.9,3.1,6.9,6.9V442.3z M669.2,352.5
			c0,3.8-3.1,6.9-6.9,6.9H543.1c-3.8,0-6.9-3.1-6.9-6.9v-75.3c0-3.8,3.1-6.9,6.9-6.9h119.1c3.8,0,6.9,3.1,6.9,6.9V352.5z
			 M669.2,262.6c0,3.8-3.1,6.9-6.9,6.9H543.1c-3.8,0-6.9-3.1-6.9-6.9v-75.3c0-3.8,3.1-6.9,6.9-6.9h119.1c3.8,0,6.9,3.1,6.9,6.9
			V262.6z M669.2,172.8c0,3.8-3.1,6.9-6.9,6.9H543.1c-3.8,0-6.9-3.1-6.9-6.9V97.5c0-3.8,3.1-6.9,6.9-6.9h119.1
			c3.8,0,6.9,3.1,6.9,6.9V172.8z M669.2,82.9c0,3.8-3.1,6.9-6.9,6.9H543.1c-3.8,0-6.9-3.1-6.9-6.9V7.6c0-3.8,3.1-6.9,6.9-6.9h119.1
			c3.8,0,6.9,3.1,6.9,6.9V82.9z M803.1,622.1c0,3.8-3.1,6.9-6.9,6.9H677.1c-3.8,0-6.9-3.1-6.9-6.9v-75.3c0-3.8,3.1-6.9,6.9-6.9
			h119.1c3.8,0,6.9,3.1,6.9,6.9V622.1z M803.1,532.2c0,3.8-3.1,6.9-6.9,6.9H677.1c-3.8,0-6.9-3.1-6.9-6.9v-75.3
			c0-3.8,3.1-6.9,6.9-6.9h119.1c3.8,0,6.9,3.1,6.9,6.9V532.2z M803.1,442.3c0,3.8-3.1,6.9-6.9,6.9H677.1c-3.8,0-6.9-3.1-6.9-6.9
			v-75.3c0-3.8,3.1-6.9,6.9-6.9h119.1c3.8,0,6.9,3.1,6.9,6.9V442.3z M803.1,352.5c0,3.8-3.1,6.9-6.9,6.9H677.1
			c-3.8,0-6.9-3.1-6.9-6.9v-75.3c0-3.8,3.1-6.9,6.9-6.9h119.1c3.8,0,6.9,3.1,6.9,6.9V352.5z M803.1,262.6c0,3.8-3.1,6.9-6.9,6.9
			H677.1c-3.8,0-6.9-3.1-6.9-6.9v-75.3c0-3.8,3.1-6.9,6.9-6.9h119.1c3.8,0,6.9,3.1,6.9,6.9V262.6z M803.1,172.8
			c0,3.8-3.1,6.9-6.9,6.9H677.1c-3.8,0-6.9-3.1-6.9-6.9V97.5c0-3.8,3.1-6.9,6.9-6.9h119.1c3.8,0,6.9,3.1,6.9,6.9V172.8z M803.1,82.9
			c0,3.8-3.1,6.9-6.9,6.9H677.1c-3.8,0-6.9-3.1-6.9-6.9V7.6c0-3.8,3.1-6.9,6.9-6.9h119.1c3.8,0,6.9,3.1,6.9,6.9V82.9z M937.1,622.1
			c0,3.8-3.1,6.9-6.9,6.9H811c-3.8,0-6.9-3.1-6.9-6.9v-75.3c0-3.8,3.1-6.9,6.9-6.9h119.1c3.8,0,6.9,3.1,6.9,6.9V622.1z M937.1,532.2
			c0,3.8-3.1,6.9-6.9,6.9H811c-3.8,0-6.9-3.1-6.9-6.9v-75.3c0-3.8,3.1-6.9,6.9-6.9h119.1c3.8,0,6.9,3.1,6.9,6.9V532.2z M937.1,442.3
			c0,3.8-3.1,6.9-6.9,6.9H811c-3.8,0-6.9-3.1-6.9-6.9v-75.3c0-3.8,3.1-6.9,6.9-6.9h119.1c3.8,0,6.9,3.1,6.9,6.9V442.3z M937.1,352.5
			c0,3.8-3.1,6.9-6.9,6.9H811c-3.8,0-6.9-3.1-6.9-6.9v-75.3c0-3.8,3.1-6.9,6.9-6.9h119.1c3.8,0,6.9,3.1,6.9,6.9V352.5z M937.1,262.6
			c0,3.8-3.1,6.9-6.9,6.9H811c-3.8,0-6.9-3.1-6.9-6.9v-75.3c0-3.8,3.1-6.9,6.9-6.9h119.1c3.8,0,6.9,3.1,6.9,6.9V262.6z M937.1,172.8
			c0,3.8-3.1,6.9-6.9,6.9H811c-3.8,0-6.9-3.1-6.9-6.9V97.5c0-3.8,3.1-6.9,6.9-6.9h119.1c3.8,0,6.9,3.1,6.9,6.9V172.8z M937.1,82.9
			c0,3.8-3.1,6.9-6.9,6.9H811c-3.8,0-6.9-3.1-6.9-6.9V7.6c0-3.8,3.1-6.9,6.9-6.9h119.1c3.8,0,6.9,3.1,6.9,6.9V82.9z M1071.1,622.1
			c0,3.8-3.1,6.9-6.9,6.9H945c-3.8,0-6.9-3.1-6.9-6.9v-75.3c0-3.8,3.1-6.9,6.9-6.9h119.1c3.8,0,6.9,3.1,6.9,6.9V622.1z
			 M1071.1,532.2c0,3.8-3.1,6.9-6.9,6.9H945c-3.8,0-6.9-3.1-6.9-6.9v-75.3c0-3.8,3.1-6.9,6.9-6.9h119.1c3.8,0,6.9,3.1,6.9,6.9V532.2
			z M1071.1,442.3c0,3.8-3.1,6.9-6.9,6.9H945c-3.8,0-6.9-3.1-6.9-6.9v-75.3c0-3.8,3.1-6.9,6.9-6.9h119.1c3.8,0,6.9,3.1,6.9,6.9
			V442.3z M1071.1,352.5c0,3.8-3.1,6.9-6.9,6.9H945c-3.8,0-6.9-3.1-6.9-6.9v-75.3c0-3.8,3.1-6.9,6.9-6.9h119.1
			c3.8,0,6.9,3.1,6.9,6.9V352.5z M1071.1,262.6c0,3.8-3.1,6.9-6.9,6.9H945c-3.8,0-6.9-3.1-6.9-6.9v-75.3c0-3.8,3.1-6.9,6.9-6.9
			h119.1c3.8,0,6.9,3.1,6.9,6.9V262.6z M1071.1,172.8c0,3.8-3.1,6.9-6.9,6.9H945c-3.8,0-6.9-3.1-6.9-6.9V97.5c0-3.8,3.1-6.9,6.9-6.9
			h119.1c3.8,0,6.9,3.1,6.9,6.9V172.8z M1071.1,82.9c0,3.8-3.1,6.9-6.9,6.9H945c-3.8,0-6.9-3.1-6.9-6.9V7.6c0-3.8,3.1-6.9,6.9-6.9
			h119.1c3.8,0,6.9,3.1,6.9,6.9V82.9z M1205,622.1c0,3.8-3.1,6.9-6.9,6.9H1079c-3.8,0-6.9-3.1-6.9-6.9v-75.3c0-3.8,3.1-6.9,6.9-6.9
			h119.1c3.8,0,6.9,3.1,6.9,6.9V622.1z M1205,532.2c0,3.8-3.1,6.9-6.9,6.9H1079c-3.8,0-6.9-3.1-6.9-6.9v-75.3c0-3.8,3.1-6.9,6.9-6.9
			h119.1c3.8,0,6.9,3.1,6.9,6.9V532.2z M1205,442.3c0,3.8-3.1,6.9-6.9,6.9H1079c-3.8,0-6.9-3.1-6.9-6.9v-75.3c0-3.8,3.1-6.9,6.9-6.9
			h119.1c3.8,0,6.9,3.1,6.9,6.9V442.3z M1205,352.5c0,3.8-3.1,6.9-6.9,6.9H1079c-3.8,0-6.9-3.1-6.9-6.9v-75.3c0-3.8,3.1-6.9,6.9-6.9
			h119.1c3.8,0,6.9,3.1,6.9,6.9V352.5z M1205,262.6c0,3.8-3.1,6.9-6.9,6.9H1079c-3.8,0-6.9-3.1-6.9-6.9v-75.3c0-3.8,3.1-6.9,6.9-6.9
			h119.1c3.8,0,6.9,3.1,6.9,6.9V262.6z M1205,172.8c0,3.8-3.1,6.9-6.9,6.9H1079c-3.8,0-6.9-3.1-6.9-6.9V97.5c0-3.8,3.1-6.9,6.9-6.9
			h119.1c3.8,0,6.9,3.1,6.9,6.9V172.8z M1205,82.9c0,3.8-3.1,6.9-6.9,6.9H1079c-3.8,0-6.9-3.1-6.9-6.9V7.6c0-3.8,3.1-6.9,6.9-6.9
			h119.1c3.8,0,6.9,3.1,6.9,6.9V82.9z M1339,622.1c0,3.8-3.1,6.9-6.9,6.9h-119.1c-3.8,0-6.9-3.1-6.9-6.9v-75.3
			c0-3.8,3.1-6.9,6.9-6.9h119.1c3.8,0,6.9,3.1,6.9,6.9V622.1z M1339,532.2c0,3.8-3.1,6.9-6.9,6.9h-119.1c-3.8,0-6.9-3.1-6.9-6.9
			v-75.3c0-3.8,3.1-6.9,6.9-6.9h119.1c3.8,0,6.9,3.1,6.9,6.9V532.2z M1339,442.3c0,3.8-3.1,6.9-6.9,6.9h-119.1
			c-3.8,0-6.9-3.1-6.9-6.9v-75.3c0-3.8,3.1-6.9,6.9-6.9h119.1c3.8,0,6.9,3.1,6.9,6.9V442.3z M1339,352.5c0,3.8-3.1,6.9-6.9,6.9
			h-119.1c-3.8,0-6.9-3.1-6.9-6.9v-75.3c0-3.8,3.1-6.9,6.9-6.9h119.1c3.8,0,6.9,3.1,6.9,6.9V352.5z M1339,262.6
			c0,3.8-3.1,6.9-6.9,6.9h-119.1c-3.8,0-6.9-3.1-6.9-6.9v-75.3c0-3.8,3.1-6.9,6.9-6.9h119.1c3.8,0,6.9,3.1,6.9,6.9V262.6z
			 M1339,172.8c0,3.8-3.1,6.9-6.9,6.9h-119.1c-3.8,0-6.9-3.1-6.9-6.9V97.5c0-3.8,3.1-6.9,6.9-6.9h119.1c3.8,0,6.9,3.1,6.9,6.9V172.8
			z M1339,82.9c0,3.8-3.1,6.9-6.9,6.9h-119.1c-3.8,0-6.9-3.1-6.9-6.9V7.6c0-3.8,3.1-6.9,6.9-6.9h119.1c3.8,0,6.9,3.1,6.9,6.9V82.9z"
			/>
	</g>
</g>
<g id="Layer_2">
	<g>
		<path class="st11" d="M1007.5,412h-5v-68.9c0-17.4,14.2-31.6,31.6-31.6H1385v4h-350.9c-14.7,1-26.6,12.9-26.6,27.6V412z"/>
	</g>
	<g>
		<path class="st12" d="M1444.5,315h-410.9c-17.4,0-31.6-14.2-31.6-31.6v-58.9h5v58.9c0,14.7,11.9,26.6,26.6,26.6h410.9V315z"/>
	</g>
	<g>
		<rect x="912.5" y="310.5" class="st13" width="563" height="5"/>
	</g>
	<g>
		<rect x="355.5" y="133.5" class="st13" width="264" height="5"/>
	</g>
	<g>
		<path class="st12" d="M471,230.5h-5v-69.3c0-12.8-10.4-23.2-23.2-23.2h-49.3v-5h49.3c15.6,0,28.2,12.7,28.2,28.2V230.5z"/>
	</g>
	<g>
		<path class="st12" d="M1007,230.5h-5v-69.3c0-12.8-10.4-23.2-23.2-23.2h-49.3v-5h49.3c15.6,0,28.2,12.7,28.2,28.2V230.5z"/>
	</g>
	<g>
		<path class="st11" d="M609,315.5h-5v-69.3c0-12.8-10.4-23.2-23.2-23.2h-49.3v-5h49.3c15.6,0,28.2,12.7,28.2,28.2V315.5z"/>
	</g>
	<g>
		<path class="st11" d="M464.5,220h5v69.3c0,12.8,10.4,23.2,23.2,23.2H542v5h-49.3c-15.6,0-28.2-12.7-28.2-28.2V220z"/>
	</g>
	<g>
		<path class="st13" d="M736.5,220h5v69.3c0,12.8,10.4,23.2,23.2,23.2H814v5h-49.3c-15.6,0-28.2-12.7-28.2-28.2V220z"/>
	</g>
	<path class="st14" d="M528.5,311.4v6.2c0,0.5,0.4,0.9,0.9,0.9h7.1v-8h-7.1C528.9,310.5,528.5,310.9,528.5,311.4z"/>
	<g>
		<path class="st15" d="M868.5,317h5v69.3c0,12.8,10.4,23.2,23.2,23.2H946v5h-49.3c-15.6,0-28.2-12.7-28.2-28.2V317z"/>
	</g>
	<g>
		<path class="st12" d="M577.5,223H471.7v-5h105.8c14.6,0,26.5-11.9,26.5-26.5v-20h5v20C609,208.9,594.9,223,577.5,223z"/>
	</g>
	<g>
		<path class="st13" d="M471,386.5h-5v-44.3c0-12.8-10.4-23.2-23.2-23.2H339.5v-5h103.3c15.6,0,28.2,12.7,28.2,28.2V386.5z"/>
	</g>
	<g>
		<path class="st12" d="M580.8,402.5H471.7v-5h109.1c12.8,0,23.2-10.4,23.2-23.2v-33.8h5v33.8C609,389.8,596.3,402.5,580.8,402.5z"
			/>
	</g>
	<g>
		<path class="st11" d="M609,473.5h-5v-44c0-14.6-11.9-26.5-26.5-26.5h-103v-5h103c17.4,0,31.5,14.1,31.5,31.5V473.5z"/>
	</g>
	<g>
		<path class="st13" d="M741,388.5h-5v-44c0-14.6-11.9-26.5-26.5-26.5h-103v-5h103c17.4,0,31.5,14.1,31.5,31.5V388.5z"/>
	</g>
	<g>
		<rect x="335" y="495" class="st11" width="271.5" height="5"/>
	</g>
	<g>
		<rect x="606.5" y="133" class="st13" width="264" height="5"/>
	</g>
	<g>
		<rect x="606.5" y="495.5" class="st13" width="264" height="5"/>
	</g>
	<g>
		<path class="st12" d="M1004.5,233H896.2c-15.6,0-28.2-12.7-28.2-28.2v-51.3h5v51.3c0,12.8,10.4,23.2,23.2,23.2h108.3V233z"/>
	</g>
	<g>
		<path class="st13" d="M873,497.5h-5v-67.3c0-12.8-10.4-23.2-23.2-23.2H736.5v-5h108.3c15.6,0,28.2,12.7,28.2,28.2V497.5z"/>
	</g>
	<path class="st14" d="M930.5,227.4v6.2c0,0.5,0.4,0.9,0.9,0.9h7.1v-8h-7.1C930.9,226.5,930.5,226.9,930.5,227.4z"/>
	<path class="st14" d="M796.5,311.4v6.2c0,0.5,0.4,0.9,0.9,0.9h7.1v-8h-7.1C796.9,310.5,796.5,310.9,796.5,311.4z"/>
	<path class="st14" d="M676.5,318.6v-6.2c0-0.5-0.4-0.9-0.9-0.9h-7.1v8h7.1C676.1,319.5,676.5,319.1,676.5,318.6z"/>
	<path class="st14" d="M867.4,187.5h6.2c0.5,0,0.9-0.4,0.9-0.9v-7.1h-8v7.1C866.5,187.1,866.9,187.5,867.4,187.5z"/>
	<g>
		<path class="st11" d="M1007,405.5h-5v-67.3c0-12.8-10.4-23.2-23.2-23.2H870.5v-5h108.3c15.6,0,28.2,12.7,28.2,28.2V405.5z"/>
	</g>
	<g>
		<path class="st11" d="M734.5,230.5h5v-69.3c0-12.8,10.4-23.2,23.2-23.2H812v-5h-49.3c-15.6,0-28.2,12.7-28.2,28.2V230.5z"/>
	</g>
	<g>
		<path class="st13" d="M978.8,500H878.5v-5h100.3c12.8,0,23.2-10.4,23.2-23.2v-67.3h5v67.3C1007,487.3,994.3,500,978.8,500z"/>
	</g>
	<path class="st14" d="M796.5,132.4v6.2c0,0.5,0.4,0.9,0.9,0.9h7.1v-8h-7.1C796.9,131.5,796.5,131.9,796.5,132.4z"/>
	<path class="st14" d="M527.5,132.4v6.2c0,0.5,0.4,0.9,0.9,0.9h7.1v-8h-7.1C527.9,131.5,527.5,131.9,527.5,132.4z"/>
	<g>
		<path class="st11" d="M841.5,407h-105v-5h105c14.6,0,26.5-11.9,26.5-26.5v-60h5v60C873,392.9,858.9,407,841.5,407z"/>
	</g>
	<path class="st14" d="M867.4,366.5h6.2c0.5,0,0.9-0.4,0.9-0.9v-7.1h-8v7.1C866.5,366.1,866.9,366.5,867.4,366.5z"/>
	<g>
		<path class="st12" d="M975.5,315h-105v-5h105c14.6,0,26.5-11.9,26.5-26.5v-60h5v60C1007,300.9,992.9,315,975.5,315z"/>
	</g>
	<g>
		<rect x="736" y="225.5" class="st12" width="5" height="175.5"/>
	</g>
	<path class="st14" d="M741.6,353.5h-6.2c-0.5,0-0.9,0.4-0.9,0.9v7.1h8v-7.1C742.5,353.9,742.1,353.5,741.6,353.5z"/>
	<g>
		<path class="st12" d="M710.8,500h-87.3v-5h87.3c12.8,0,23.2-10.4,23.2-23.2v-41.3h5v41.3C739,487.3,726.3,500,710.8,500z"/>
	</g>
	<path class="st14" d="M735.4,276.5h6.2c0.5,0,0.9-0.4,0.9-0.9v-7.1h-8v7.1C734.5,276.1,734.9,276.5,735.4,276.5z"/>
	<path class="st14" d="M603.4,187.5h6.2c0.5,0,0.9-0.4,0.9-0.9v-7.1h-8v7.1C602.5,187.1,602.9,187.5,603.4,187.5z"/>
	<path class="st14" d="M733.4,456.5h6.2c0.5,0,0.9-0.4,0.9-0.9v-7.1h-8v7.1C732.5,456.1,732.9,456.5,733.4,456.5z"/>
	<path class="st14" d="M676.5,500.6v-6.2c0-0.5-0.4-0.9-0.9-0.9h-7.1v8h7.1C676.1,501.5,676.5,501.1,676.5,500.6z"/>
	<path class="st14" d="M796.5,494.4v6.2c0,0.5,0.4,0.9,0.9,0.9h7.1v-8h-7.1C796.9,493.5,796.5,493.9,796.5,494.4z"/>
	<path class="st14" d="M528.5,494.4v6.2c0,0.5,0.4,0.9,0.9,0.9h7.1v-8h-7.1C528.9,493.5,528.5,493.9,528.5,494.4z"/>
	<path class="st14" d="M930.5,408.4v6.2c0,0.5,0.4,0.9,0.9,0.9h7.1v-8h-7.1C930.9,407.5,930.5,407.9,930.5,408.4z"/>
	<g>
		<rect x="-3" y="314.1" class="st13" width="278.5" height="5"/>
	</g>
	<g>
		<path class="st11" d="M288.5,497h-133c-13.5,0-24.5-11-24.5-24.5c0-10.8-8.7-19.5-19.5-19.5h-119v-5h119c13.5,0,24.5,11,24.5,24.5
			c0,10.8,8.7,19.5,19.5,19.5h133V497z"/>
	</g>
	<path class="st14" d="M810.5,407.6v-6.2c0-0.5-0.4-0.9-0.9-0.9h-7.1v8h7.1C810.1,408.5,810.5,408.1,810.5,407.6z"/>
	<path class="st14" d="M945.5,500.6v-6.2c0-0.5-0.4-0.9-0.9-0.9h-7.1v8h7.1C945.1,501.5,945.5,501.1,945.5,500.6z"/>
	<path class="st14" d="M873.6,442.5h-6.2c-0.5,0-0.9,0.4-0.9,0.9v7.1h8v-7.1C874.5,442.9,874.1,442.5,873.6,442.5z"/>
	<g>
		<path class="st12" d="M110.5,182.5H-12v-5h122.5c11,0,20-9,20-20c0-13.8,11.2-25,25-25H281v5H155.5c-11,0-20,9-20,20
			C135.5,171.3,124.3,182.5,110.5,182.5z"/>
	</g>
	<g>
		<path class="st16" d="M1662.1,301.2h-4.3c-11.2,0-20.9,6.1-26,15.2c5.1,9.1,14.8,15.2,26,15.2h4.3c11.2,0,20.9-6.1,26-15.2
			C1683,307.4,1673.3,301.2,1662.1,301.2z"/>
		<path class="st16" d="M1669.2,268c8.2,0,15.9,2,22.8,5.5V117.1c0-16.5-13.4-29.8-29.8-29.8h-4.3c-16.5,0-29.8,13.4-29.8,29.8
			v156.4c6.8-3.5,14.6-5.5,22.8-5.5H1669.2z"/>
		<path class="st16" d="M1650.8,362c-8.2,0-15.9-2-22.8-5.5v159.3c0,16.5,13.4,29.8,29.8,29.8h4.3c16.5,0,29.8-13.4,29.8-29.8V356.5
			c-6.8,3.5-14.6,5.5-22.8,5.5H1650.8z"/>
		<path class="st17" d="M1669.2,75h-18.4c-27.7,0-50.2,20.7-50.2,46.2v190.9c0,1,0,2,0.1,2.9c1.1-16.7,11.9-31,27.3-38.2V133
			c0-15.2,13.4-27.4,29.8-27.4h4.3c16.5,0,29.8,12.3,29.8,27.4v143.8v26.1c0,4.9-1.4,9.5-3.8,13.4c-5.1,8.4-14.8,14-26,14h-4.3
			c-11.2,0-20.9-5.6-26-14c-2.4,4-3.8,8.6-3.8,13.4v23.4c6.8,3.2,14.6,5,22.8,5h18.4c8.2,0,15.9-1.8,22.8-5
			c15.4-7.2,26.2-21.5,27.3-38.2c0.1-1,0.1-2,0.1-2.9V121.2C1719.4,95.7,1696.9,75,1669.2,75z"/>
		<path class="st17" d="M1719.3,315c-1.1,16.7-11.9,31-27.3,38.2v146.5c0,15.2-13.4,27.4-29.8,27.4h-4.3
			c-16.5,0-29.8-12.3-29.8-27.4V353.2v-23.4c0-4.9,1.4-9.5,3.8-13.4c5.1-8.4,14.8-14,26-14h4.3c11.2,0,20.9,5.6,26,14
			c2.4-4,3.8-8.6,3.8-13.4v-26.1c-6.8-3.2-14.6-5-22.8-5h-18.4c-8.2,0-15.9,1.8-22.8,5c-15.4,7.2-26.2,21.5-27.3,38.2
			c-0.1,1-0.1,2-0.1,2.9v190.9c0,25.5,22.5,46.2,50.2,46.2h18.4c27.7,0,50.2-20.7,50.2-46.2V317.9C1719.4,317,1719.4,316,1719.3,315
			z"/>
		<ellipse class="st17" cx="1659.5" cy="316.4" rx="15" ry="13.8"/>
		<polygon class="st17" points="1659.5,555 1600.5,629.5 1719.5,629.5 		"/>
		<polygon class="st17" points="1660.5,74.5 1719.5,0 1600.5,0 		"/>
	</g>
	<g>
		<path class="st16" d="M136.5,299.1h-5c-13,0-24.3,7.1-30.2,17.7c5.9,10.6,17.2,17.7,30.2,17.7h5c13,0,24.3-7.1,30.2-17.7
			C160.8,306.2,149.5,299.1,136.5,299.1z"/>
		<path class="st16" d="M144.7,260.4c9.5,0,18.5,2.3,26.5,6.4V85.1c0-19.1-15.5-34.7-34.7-34.7h-5c-19.1,0-34.7,15.5-34.7,34.7
			v181.7c7.9-4.1,16.9-6.4,26.5-6.4H144.7z"/>
		<path class="st16" d="M123.3,369.7c-9.5,0-18.5-2.3-26.5-6.4v185.1c0,19.1,15.5,34.7,34.7,34.7h5c19.1,0,34.7-15.5,34.7-34.7
			V363.3c-7.9,4.1-16.9,6.4-26.5,6.4H123.3z"/>
		<path class="st18" d="M144.7,36.2h-21.4c-32.2,0-58.3,24-58.3,53.6v221.8c0,1.1,0.1,2.3,0.1,3.4c1.3-19.4,13.9-36,31.7-44.4V103.6
			c0-17.6,15.5-31.9,34.7-31.9h5c19.1,0,34.7,14.3,34.7,31.9v167.1V301c0,5.7-1.6,11-4.4,15.6c-5.9,9.7-17.2,16.3-30.2,16.3h-5
			c-13,0-24.3-6.6-30.2-16.3c-2.8,4.6-4.4,9.9-4.4,15.6v27.2c7.9,3.7,16.9,5.8,26.5,5.8h21.4c9.5,0,18.5-2.1,26.5-5.8
			c17.9-8.4,30.4-25,31.7-44.4c0.1-1.1,0.1-2.3,0.1-3.4V89.8C203,60.2,176.9,36.2,144.7,36.2z"/>
		<path class="st18" d="M202.9,315c-1.3,19.4-13.9,36-31.7,44.4v170.2c0,17.6-15.5,31.9-34.7,31.9h-5c-19.1,0-34.7-14.3-34.7-31.9
			V359.4v-27.2c0-5.7,1.6-11,4.4-15.6c5.9-9.7,17.2-16.3,30.2-16.3h5c13,0,24.3,6.6,30.2,16.3c2.8-4.6,4.4-9.9,4.4-15.6v-30.3
			c-7.9-3.7-16.9-5.8-26.5-5.8h-21.4c-9.5,0-18.5,2.1-26.5,5.8C79,279,66.4,295.6,65.1,315c-0.1,1.1-0.1,2.3-0.1,3.4v221.8
			c0,29.6,26.1,53.6,58.3,53.6h21.4c32.2,0,58.3-24,58.3-53.6V318.5C203,317.3,203,316.2,202.9,315z"/>
		<ellipse class="st18" cx="133.4" cy="316.6" rx="17.4" ry="16"/>
		<polygon class="st18" points="133.4,593.9 64.9,633 203.1,633 		"/>
		<polygon class="st18" points="134.6,36 203.1,-3.5 64.9,-3.5 		"/>
	</g>
	<g>
		<path class="st16" d="M1208.5,299.1h-5c-13,0-24.3,7.1-30.2,17.7c5.9,10.6,17.2,17.7,30.2,17.7h5c13,0,24.3-7.1,30.2-17.7
			C1232.8,306.2,1221.5,299.1,1208.5,299.1z"/>
		<path class="st16" d="M1216.7,260.4c9.5,0,18.5,2.3,26.5,6.4V85.1c0-19.1-15.5-34.7-34.7-34.7h-5c-19.1,0-34.7,15.5-34.7,34.7
			v181.7c7.9-4.1,16.9-6.4,26.5-6.4H1216.7z"/>
		<path class="st16" d="M1195.3,369.7c-9.5,0-18.5-2.3-26.5-6.4v185.1c0,19.1,15.5,34.7,34.7,34.7h5c19.1,0,34.7-15.5,34.7-34.7
			V363.3c-7.9,4.1-16.9,6.4-26.5,6.4H1195.3z"/>
		<path class="st18" d="M1216.7,36.2h-21.4c-32.2,0-58.3,24-58.3,53.6v221.8c0,1.1,0.1,2.3,0.1,3.4c1.3-19.4,13.9-36,31.7-44.4
			V103.6c0-17.6,15.5-31.9,34.7-31.9h5c19.1,0,34.7,14.3,34.7,31.9v167.1V301c0,5.7-1.6,11-4.4,15.6c-5.9,9.7-17.2,16.3-30.2,16.3
			h-5c-13,0-24.3-6.6-30.2-16.3c-2.8,4.6-4.4,9.9-4.4,15.6v27.2c7.9,3.7,16.9,5.8,26.5,5.8h21.4c9.5,0,18.5-2.1,26.5-5.8
			c17.9-8.4,30.4-25,31.7-44.4c0.1-1.1,0.1-2.3,0.1-3.4V89.8C1275,60.2,1248.9,36.2,1216.7,36.2z"/>
		<path class="st18" d="M1274.9,315c-1.3,19.4-13.9,36-31.7,44.4v170.2c0,17.6-15.5,31.9-34.7,31.9h-5c-19.1,0-34.7-14.3-34.7-31.9
			V359.4v-27.2c0-5.7,1.6-11,4.4-15.6c5.9-9.7,17.2-16.3,30.2-16.3h5c13,0,24.3,6.6,30.2,16.3c2.8-4.6,4.4-9.9,4.4-15.6v-30.3
			c-7.9-3.7-16.9-5.8-26.5-5.8h-21.4c-9.5,0-18.5,2.1-26.5,5.8c-17.9,8.4-30.4,25-31.7,44.4c-0.1,1.1-0.1,2.3-0.1,3.4v221.8
			c0,29.6,26.1,53.6,58.3,53.6h21.4c32.2,0,58.3-24,58.3-53.6V318.5C1275,317.3,1275,316.2,1274.9,315z"/>
		<ellipse class="st18" cx="1205.4" cy="316.6" rx="17.4" ry="16"/>
		<polygon class="st18" points="1205.4,593.9 1136.9,633 1275.1,633 		"/>
		<polygon class="st18" points="1206.6,36 1275.1,-3.5 1136.9,-3.5 		"/>
	</g>
	<path class="st14" d="M260.5,131.4v6.2c0,0.5,0.4,0.9,0.9,0.9h7.1v-8h-7.1C260.9,130.5,260.5,130.9,260.5,131.4z"/>
	<path class="st14" d="M260.5,313.4v6.2c0,0.5,0.4,0.9,0.9,0.9h7.1v-8h-7.1C260.9,312.5,260.5,312.9,260.5,313.4z"/>
	<path class="st14" d="M260.5,491.4v6.2c0,0.5,0.4,0.9,0.9,0.9h7.1v-8h-7.1C260.9,490.5,260.5,490.9,260.5,491.4z"/>
	<g>
		<path class="st11" d="M438.5,500H332.7v-5h105.8c14.6,0,26.5-11.9,26.5-26.5v-20h5v20C470,485.9,455.9,500,438.5,500z"/>
	</g>
	<g>
		<path class="st16" d="M-628.5,299.1h-5c-13,0-24.3,7.1-30.2,17.7c5.9,10.6,17.2,17.7,30.2,17.7h5c13,0,24.3-7.1,30.2-17.7
			C-604.2,306.2-615.5,299.1-628.5,299.1z"/>
		<path class="st16" d="M-620.3,260.4c9.5,0,18.5,2.3,26.5,6.4V85.1c0-19.1-15.5-34.7-34.7-34.7h-5c-19.1,0-34.7,15.5-34.7,34.7
			v181.7c7.9-4.1,16.9-6.4,26.5-6.4H-620.3z"/>
		<path class="st16" d="M-641.7,369.7c-9.5,0-18.5-2.3-26.5-6.4v185.1c0,19.1,15.5,34.7,34.7,34.7h5c19.1,0,34.7-15.5,34.7-34.7
			V363.3c-7.9,4.1-16.9,6.4-26.5,6.4H-641.7z"/>
		<path class="st17" d="M-620.3,36.2h-21.4c-32.2,0-58.3,24-58.3,53.6v221.8c0,1.1,0.1,2.3,0.1,3.4c1.3-19.4,13.9-36,31.7-44.4
			V103.6c0-17.6,15.5-31.9,34.7-31.9h5c19.1,0,34.7,14.3,34.7,31.9v167.1V301c0,5.7-1.6,11-4.4,15.6c-5.9,9.7-17.2,16.3-30.2,16.3
			h-5c-13,0-24.3-6.6-30.2-16.3c-2.8,4.6-4.4,9.9-4.4,15.6v27.2c7.9,3.7,16.9,5.8,26.5,5.8h21.4c9.5,0,18.5-2.1,26.5-5.8
			c17.9-8.4,30.4-25,31.7-44.4c0.1-1.1,0.1-2.3,0.1-3.4V89.8C-562,60.2-588.1,36.2-620.3,36.2z"/>
		<path class="st17" d="M-562.1,315c-1.3,19.4-13.9,36-31.7,44.4v170.2c0,17.6-15.5,31.9-34.7,31.9h-5c-19.1,0-34.7-14.3-34.7-31.9
			V359.4v-27.2c0-5.7,1.6-11,4.4-15.6c5.9-9.7,17.2-16.3,30.2-16.3h5c13,0,24.3,6.6,30.2,16.3c2.8-4.6,4.4-9.9,4.4-15.6v-30.3
			c-7.9-3.7-16.9-5.8-26.5-5.8h-21.4c-9.5,0-18.5,2.1-26.5,5.8c-17.9,8.4-30.4,25-31.7,44.4c-0.1,1.1-0.1,2.3-0.1,3.4v221.8
			c0,29.6,26.1,53.6,58.3,53.6h21.4c32.2,0,58.3-24,58.3-53.6V318.5C-562,317.3-562,316.2-562.1,315z"/>
		<ellipse class="st17" cx="-631.6" cy="316.6" rx="17.4" ry="16"/>
		<polygon class="st17" points="-631.6,593.9 -700.1,633 -561.9,633 		"/>
		<polygon class="st17" points="-630.4,36 -561.9,-3.5 -700.1,-3.5 		"/>
	</g>
	<path class="st14" d="M464.4,456.5h6.2c0.5,0,0.9-0.4,0.9-0.9v-7.1h-8v7.1C463.5,456.1,463.9,456.5,464.4,456.5z"/>
	<path class="st14" d="M464.4,277.5h6.2c0.5,0,0.9-0.4,0.9-0.9v-7.1h-8v7.1C463.5,277.1,463.9,277.5,464.4,277.5z"/>
	<path class="st14" d="M603.4,367.5h6.2c0.5,0,0.9-0.4,0.9-0.9v-7.1h-8v7.1C602.5,367.1,602.9,367.5,603.4,367.5z"/>
	<path class="st14" d="M408.5,138.6v-6.2c0-0.5-0.4-0.9-0.9-0.9h-7.1v8h7.1C408.1,139.5,408.5,139.1,408.5,138.6z"/>
	<path class="st14" d="M408.5,500.6v-6.2c0-0.5-0.4-0.9-0.9-0.9h-7.1v8h7.1C408.1,501.5,408.5,501.1,408.5,500.6z"/>
	<path class="st14" d="M408.5,319.6v-6.2c0-0.5-0.4-0.9-0.9-0.9h-7.1v8h7.1C408.1,320.5,408.5,320.1,408.5,319.6z"/>
	<g>
		<rect x="267.5" y="90.5" class="st10" width="134" height="89.5"/>
	</g>
	<g>
		<rect x="268" y="270" class="st10" width="134" height="90"/>
	</g>
	<path class="st14" d="M676.5,138.6v-6.2c0-0.5-0.4-0.9-0.9-0.9h-7.1v8h7.1C676.1,139.5,676.5,139.1,676.5,138.6z"/>
	<path class="st14" d="M543.5,223.6v-6.2c0-0.5-0.4-0.9-0.9-0.9h-7.1v8h7.1C543.1,224.5,543.5,224.1,543.5,223.6z"/>
	<path class="st14" d="M543.5,403.6v-6.2c0-0.5-0.4-0.9-0.9-0.9h-7.1v8h7.1C543.1,404.5,543.5,404.1,543.5,403.6z"/>
	<path class="st14" d="M740.6,173.5h-6.2c-0.5,0-0.9,0.4-0.9,0.9v7.1h8v-7.1C741.5,173.9,741.1,173.5,740.6,173.5z"/>
	<path class="st14" d="M609.6,262.5h-6.2c-0.5,0-0.9,0.4-0.9,0.9v7.1h8v-7.1C610.5,262.9,610.1,262.5,609.6,262.5z"/>
	<path class="st14" d="M609.6,442.5h-6.2c-0.5,0-0.9,0.4-0.9,0.9v7.1h8v-7.1C610.5,442.9,610.1,442.5,609.6,442.5z"/>
	<path class="st14" d="M471.6,352.5h-6.2c-0.5,0-0.9,0.4-0.9,0.9v7.1h8v-7.1C472.5,352.9,472.1,352.5,471.6,352.5z"/>
	<path class="st14" d="M471.6,173.5h-6.2c-0.5,0-0.9,0.4-0.9,0.9v7.1h8v-7.1C472.5,173.9,472.1,173.5,471.6,173.5z"/>
	<g>
		<rect x="268" y="450" class="st10" width="134" height="90"/>
	</g>
	<g>
		<rect x="535.5" y="90.5" class="st10" width="134" height="89.5"/>
	</g>
	<g>
		<rect x="536" y="270" class="st10" width="134" height="90"/>
	</g>
	<g>
		<rect x="536" y="450" class="st10" width="134" height="90"/>
	</g>
	<path class="st14" d="M944.5,138.6v-6.2c0-0.5-0.4-0.9-0.9-0.9h-7.1v8h7.1C944.1,139.5,944.5,139.1,944.5,138.6z"/>
	<g>
		<rect x="803.5" y="90.5" class="st10" width="134" height="89.5"/>
	</g>
	<path class="st14" d="M944.5,315.6v-6.2c0-0.5-0.4-0.9-0.9-0.9h-7.1v8h7.1C944.1,316.5,944.5,316.1,944.5,315.6z"/>
	<path class="st14" d="M1007.6,172.5h-6.2c-0.5,0-0.9,0.4-0.9,0.9v7.1h8v-7.1C1008.5,172.9,1008.1,172.5,1007.6,172.5z"/>
	<g>
		<rect x="804" y="270" class="st10" width="134" height="90"/>
	</g>
	<g>
		<rect x="804" y="450" class="st10" width="134" height="90"/>
	</g>
	<g>
		<rect x="402" y="180" class="st10" width="134" height="90"/>
	</g>
	<g>
		<rect x="402" y="360" class="st10" width="134" height="90"/>
	</g>
	<g>
		<rect x="669" y="180" class="st10" width="135" height="90"/>
	</g>
	<g>
		<rect x="669" y="360" class="st10" width="135" height="90"/>
	</g>
	<path class="st14" d="M1001.4,276.5h6.2c0.5,0,0.9-0.4,0.9-0.9v-7.1h-8v7.1C1000.5,276.1,1000.9,276.5,1001.4,276.5z"/>
	<path class="st14" d="M1001.4,456.5h6.2c0.5,0,0.9-0.4,0.9-0.9v-7.1h-8v7.1C1000.5,456.1,1000.9,456.5,1001.4,456.5z"/>
	<path class="st14" d="M1007.6,352.5h-6.2c-0.5,0-0.9,0.4-0.9,0.9v7.1h8v-7.1C1008.5,352.9,1008.1,352.5,1007.6,352.5z"/>
	<g>
		<rect x="938" y="180" class="st10" width="134" height="90"/>
	</g>
	<g>
		<rect x="938" y="360" class="st10" width="134" height="90"/>
	</g>
	<g>
		<path class="st19" d="M394.5,176H274.5c-1.9,0-3.5-1.6-3.5-3.5V116c6.6-0.4,16.3-0.9,28-1c10.6-0.1,14.8,0.1,26,0
			c14.6-0.2,19.7-0.7,29-1c10.4-0.3,25.3-0.1,44,2c0,18.8,0,37.6,0,56.5C398,174.4,396.4,176,394.5,176z"/>
	</g>
	<g>
		<path class="st19" d="M662.5,176H542.5c-1.9,0-3.5-1.6-3.5-3.5V126c4.7,0,11.6-0.1,20,0c30.4,0.3,30.2,1.5,44,1
			c20.1-0.8,23.6-3.6,42-3c8.9,0.3,16.1,1.2,21,2c0,15.5,0,31,0,46.5C666,174.4,664.4,176,662.5,176z"/>
	</g>
	<g>
		<path class="st19" d="M930.5,176H810.5c-1.9,0-3.5-1.6-3.5-3.5V141c4.5-0.4,11.9-0.9,21-1c26-0.4,31.1,2.5,56,2
			c9.9-0.2,13.6-0.8,29.5-1c8.6-0.1,15.7-0.1,20.5,0c0,10.5,0,21,0,31.5C934,174.4,932.4,176,930.5,176z"/>
	</g>
	<g>
		<path class="st19" d="M394.5,355H274.5c-1.9,0-3.5-1.6-3.5-3.5V284c5.1-0.6,12.7-1.4,22-2c20-1.2,35.8-0.5,48,0
			c17,0.8,22.4,1.7,40.5,2c7,0.1,12.7,0.1,16.5,0c0,22.5,0,45,0,67.5C398,353.4,396.4,355,394.5,355z"/>
	</g>
	<g>
		<path class="st19" d="M662.5,355H542.5c-1.9,0-3.5-1.6-3.5-3.5V320c2.6-0.2,6.8-0.5,12-1c10.3-0.9,17.4-1.7,20-2
			c26.8-2.8,50,0,50,0c9.5,1.2,13.1,2.4,24,3c8.8,0.5,16.1,0.3,21,0c0,10.5,0,21,0,31.5C666,353.4,664.4,355,662.5,355z"/>
	</g>
	<g>
		<path class="st19" d="M930.5,355H810.5c-1.9,0-3.5-1.6-3.5-3.5V299c5.7,0.2,14.4,0.4,25,0c18.2-0.7,20.3-2.2,37-3
			c20.3-1,36.6,0.2,46,1c7.7,0.6,14.2,1.4,19,2c0,17.5,0,35,0,52.5C934,353.4,932.4,355,930.5,355z"/>
	</g>
	<g>
		<path class="st19" d="M394.5,536H274.5c-1.9,0-3.5-1.6-3.5-3.5V477c1.3,0.2,3.4,0.6,6,1c34.6,5.3,55-0.1,98-1
			c5.2-0.1,13.1-0.2,23,0c0,18.5,0,37,0,55.5C398,534.4,396.4,536,394.5,536z"/>
	</g>
	<g>
		<path class="st19" d="M662.5,536H542.5c-1.9,0-3.5-1.6-3.5-3.5V472c2.8,0.8,7.8,2.1,14,3c17.8,2.6,26-0.7,53-1
			c10.9-0.1,10.8,0.4,19,0c10.7-0.5,16.1-1.6,27.9-2c5.7-0.2,10.2-0.1,13.1,0c0,20.2,0,40.3,0,60.5C666,534.4,664.4,536,662.5,536z"
			/>
	</g>
	<g>
		<path class="st19" d="M930.5,536H810.5c-1.9,0-3.5-1.6-3.5-3.5V481c1.5,0,3.8-0.1,6.5,0c13.1,0.4,22.7,3.3,25.5,4
			c18.9,5.1,33.9-3.3,82.8-4c5.4-0.1,9.7,0,12.2,0c0,17.2,0,34.3,0,51.5C934,534.4,932.4,536,930.5,536z"/>
	</g>
	<g>
		<path class="st19" d="M528.5,445H408.5c-1.9,0-3.5-1.6-3.5-3.5V415c4.3-1.2,11.3-2.9,20-4c11-1.3,17.5-0.7,53,2
			c16.9,1.3,23.3,1.8,33,2c8.8,0.2,16.1,0.1,21,0c0,8.8,0,17.6,0,26.5C532,443.4,530.4,445,528.5,445z"/>
	</g>
	<g>
		<path class="st19" d="M796.5,445H676.5c-1.9,0-3.5-1.6-3.5-3.5V394c3.2,0.8,8,1.8,14,2c13.6,0.5,20.1-3.5,32-6
			c16-3.3,29.5-1.4,39,0c9.2,1.3,17.8,3.6,33,4c3.8,0.1,6.9,0.1,9,0c0,15.8,0,31.6,0,47.5C800,443.4,798.4,445,796.5,445z"/>
	</g>
	<g>
		<path class="st19" d="M1064.5,445H944.5c-1.9,0-3.5-1.6-3.5-3.5V415c20.4,1.3,42.1,2,65,2c21.8,0,42.5-0.8,62-2
			c0,8.8,0,17.6,0,26.5C1068,443.4,1066.4,445,1064.5,445z"/>
	</g>
	<g>
		<path class="st19" d="M528.5,265H408.5c-1.9,0-3.5-1.6-3.5-3.5V205c2.3-0.6,5.8-1.4,10-2c15.1-2.1,19.6,1.6,37,2
			c13.9,0.3,14.7-2,29-1c4.5,0.3,8.4,0.8,16,1c5.2,0.2,8.1,0.1,16.3,0c4.4,0,10.8-0.1,18.7,0c0,18.8,0,37.6,0,56.5
			C532,263.4,530.4,265,528.5,265z"/>
	</g>
	<g>
		<path class="st19" d="M796.5,265H676.5c-1.9,0-3.5-1.6-3.5-3.5V209c2.7,0.3,6.9,0.7,12,1c14.1,0.8,22-0.1,38-1
			c18.5-1,27.7-1.5,38-1c5.7,0.3,14,0.9,27,1c4.8,0.1,8.9,0,12,0c0,17.5,0,35,0,52.5C800,263.4,798.4,265,796.5,265z"/>
	</g>
	<g>
		<path class="st19" d="M1064.5,265H944.5c-1.9,0-3.5-1.6-3.5-3.5V205c3.1-0.6,8-1.5,14-2c13.2-1.1,21.6,0.2,31,1
			c26.9,2.3,36.6-1.6,56,0c2.1,0.2,10.3,0.9,21.4,1c2,0,3.6,0,4.6,0c0,18.8,0,37.6,0,56.5C1068,263.4,1066.4,265,1064.5,265z"/>
	</g>
	<g>
		<path class="st13" d="M39.5,316.5"/>
		<path class="st13" d="M-272.5,316.5"/>
	</g>
</g>
</svg>
