<?xml version="1.0" encoding="utf-8"?>
<!-- Generator: Adobe Illustrator 22.0.1, SVG Export Plug-In . SVG Version: 6.00 Build 0)  -->
<svg version="1.1" id="Layer_1" xmlns="http://www.w3.org/2000/svg" xmlns:xlink="http://www.w3.org/1999/xlink" x="0px" y="0px"
	 viewBox="0 0 1340 630" style="enable-background:new 0 0 1340 630;" xml:space="preserve">
<style type="text/css">
	.st0{fill:#383838;}
	.st1{fill:#8BA4C9;stroke:#000000;stroke-miterlimit:10;}
	.st2{fill:#BACEB2;stroke:#000000;stroke-miterlimit:10;}
	.st3{fill:#414143;stroke:#000000;stroke-miterlimit:10;}
	.st4{fill:#9AAF92;stroke:#000000;stroke-miterlimit:10;}
	.st5{fill:#84CE9B;stroke:#000000;stroke-miterlimit:10;}
	.st6{fill:#F2DCA5;stroke:#000000;stroke-miterlimit:10;}
	.st7{fill:#DD796F;stroke:#000000;stroke-miterlimit:10;}
	.st8{fill:none;}
	.st9{fill:#424143;stroke:#DD796F;stroke-miterlimit:10;}
	.st10{fill:#424143;}
	.st11{fill:#E8E0CD;stroke:#000000;stroke-miterlimit:10;}
	.st12{fill:#424143;stroke:#E8E0CD;stroke-miterlimit:10;}
	.st13{fill:#383838;stroke:#000000;stroke-miterlimit:10;}
</style>
<g id="Layer_2_1_">
	<g>
		<path class="st0" d="M0,0v630h1340V0H0z M133.5,622.1c0,3.8-3.1,6.9-6.9,6.9H7.4c-3.8,0-6.9-3.1-6.9-6.9v-75.3
			c0-3.8,3.1-6.9,6.9-6.9h119.1c3.8,0,6.9,3.1,6.9,6.9v75.3H133.5z M133.5,532.2c0,3.8-3.1,6.9-6.9,6.9H7.4c-3.8,0-6.9-3.1-6.9-6.9
			v-75.3c0-3.8,3.1-6.9,6.9-6.9h119.1c3.8,0,6.9,3.1,6.9,6.9v75.3H133.5z M133.5,442.3c0,3.8-3.1,6.9-6.9,6.9H7.4
			c-3.8,0-6.9-3.1-6.9-6.9V367c0-3.8,3.1-6.9,6.9-6.9h119.1c3.8,0,6.9,3.1,6.9,6.9v75.3H133.5z M133.5,352.5c0,3.8-3.1,6.9-6.9,6.9
			H7.4c-3.8,0-6.9-3.1-6.9-6.9v-75.3c0-3.8,3.1-6.9,6.9-6.9h119.1c3.8,0,6.9,3.1,6.9,6.9v75.3H133.5z M133.5,262.6
			c0,3.8-3.1,6.9-6.9,6.9H7.4c-3.8,0-6.9-3.1-6.9-6.9v-75.3c0-3.8,3.1-6.9,6.9-6.9h119.1c3.8,0,6.9,3.1,6.9,6.9v75.3H133.5z
			 M133.5,172.8c0,3.8-3.1,6.9-6.9,6.9H7.4c-3.8,0-6.9-3.1-6.9-6.9V97.5c0-3.8,3.1-6.9,6.9-6.9h119.1c3.8,0,6.9,3.1,6.9,6.9v75.3
			H133.5z M133.5,82.9c0,3.8-3.1,6.9-6.9,6.9H7.4c-3.8,0-6.9-3.1-6.9-6.9V7.6c0-3.8,3.1-6.9,6.9-6.9h119.1c3.8,0,6.9,3.1,6.9,6.9
			v75.3H133.5z M267.3,622.1c0,3.8-3.1,6.9-6.9,6.9H141.2c-3.8,0-6.9-3.1-6.9-6.9v-75.3c0-3.8,3.1-6.9,6.9-6.9h119.1
			c3.8,0,6.9,3.1,6.9,6.9v75.3H267.3z M267.3,532.2c0,3.8-3.1,6.9-6.9,6.9H141.2c-3.8,0-6.9-3.1-6.9-6.9v-75.3
			c0-3.8,3.1-6.9,6.9-6.9h119.1c3.8,0,6.9,3.1,6.9,6.9v75.3H267.3z M267.3,442.3c0,3.8-3.1,6.9-6.9,6.9H141.2
			c-3.8,0-6.9-3.1-6.9-6.9V367c0-3.8,3.1-6.9,6.9-6.9h119.1c3.8,0,6.9,3.1,6.9,6.9v75.3H267.3z M267.3,352.5c0,3.8-3.1,6.9-6.9,6.9
			H141.2c-3.8,0-6.9-3.1-6.9-6.9v-75.3c0-3.8,3.1-6.9,6.9-6.9h119.1c3.8,0,6.9,3.1,6.9,6.9v75.3H267.3z M267.3,262.6
			c0,3.8-3.1,6.9-6.9,6.9H141.2c-3.8,0-6.9-3.1-6.9-6.9v-75.3c0-3.8,3.1-6.9,6.9-6.9h119.1c3.8,0,6.9,3.1,6.9,6.9v75.3H267.3z
			 M267.3,172.8c0,3.8-3.1,6.9-6.9,6.9H141.2c-3.8,0-6.9-3.1-6.9-6.9V97.5c0-3.8,3.1-6.9,6.9-6.9h119.1c3.8,0,6.9,3.1,6.9,6.9v75.3
			H267.3z M267.3,82.9c0,3.8-3.1,6.9-6.9,6.9H141.2c-3.8,0-6.9-3.1-6.9-6.9V7.6c0-3.8,3.1-6.9,6.9-6.9h119.1c3.8,0,6.9,3.1,6.9,6.9
			v75.3H267.3z M401.3,622.1c0,3.8-3.1,6.9-6.9,6.9H275.2c-3.8,0-6.9-3.1-6.9-6.9v-75.3c0-3.8,3.1-6.9,6.9-6.9h119.1
			c3.8,0,6.9,3.1,6.9,6.9L401.3,622.1L401.3,622.1z M401.3,532.2c0,3.8-3.1,6.9-6.9,6.9H275.2c-3.8,0-6.9-3.1-6.9-6.9v-75.3
			c0-3.8,3.1-6.9,6.9-6.9h119.1c3.8,0,6.9,3.1,6.9,6.9L401.3,532.2L401.3,532.2z M401.3,442.3c0,3.8-3.1,6.9-6.9,6.9H275.2
			c-3.8,0-6.9-3.1-6.9-6.9V367c0-3.8,3.1-6.9,6.9-6.9h119.1c3.8,0,6.9,3.1,6.9,6.9L401.3,442.3L401.3,442.3z M401.3,352.5
			c0,3.8-3.1,6.9-6.9,6.9H275.2c-3.8,0-6.9-3.1-6.9-6.9v-75.3c0-3.8,3.1-6.9,6.9-6.9h119.1c3.8,0,6.9,3.1,6.9,6.9L401.3,352.5
			L401.3,352.5z M401.3,262.6c0,3.8-3.1,6.9-6.9,6.9H275.2c-3.8,0-6.9-3.1-6.9-6.9v-75.3c0-3.8,3.1-6.9,6.9-6.9h119.1
			c3.8,0,6.9,3.1,6.9,6.9L401.3,262.6L401.3,262.6z M401.3,172.8c0,3.8-3.1,6.9-6.9,6.9H275.2c-3.8,0-6.9-3.1-6.9-6.9V97.5
			c0-3.8,3.1-6.9,6.9-6.9h119.1c3.8,0,6.9,3.1,6.9,6.9L401.3,172.8L401.3,172.8z M401.3,82.9c0,3.8-3.1,6.9-6.9,6.9H275.2
			c-3.8,0-6.9-3.1-6.9-6.9V7.6c0-3.8,3.1-6.9,6.9-6.9h119.1c3.8,0,6.9,3.1,6.9,6.9L401.3,82.9L401.3,82.9z M535.2,622.1
			c0,3.8-3.1,6.9-6.9,6.9H409.2c-3.8,0-6.9-3.1-6.9-6.9v-75.3c0-3.8,3.1-6.9,6.9-6.9h119.1c3.8,0,6.9,3.1,6.9,6.9V622.1z
			 M535.2,532.2c0,3.8-3.1,6.9-6.9,6.9H409.2c-3.8,0-6.9-3.1-6.9-6.9v-75.3c0-3.8,3.1-6.9,6.9-6.9h119.1c3.8,0,6.9,3.1,6.9,6.9
			V532.2z M535.2,442.3c0,3.8-3.1,6.9-6.9,6.9H409.2c-3.8,0-6.9-3.1-6.9-6.9V367c0-3.8,3.1-6.9,6.9-6.9h119.1c3.8,0,6.9,3.1,6.9,6.9
			V442.3z M535.2,352.5c0,3.8-3.1,6.9-6.9,6.9H409.2c-3.8,0-6.9-3.1-6.9-6.9v-75.3c0-3.8,3.1-6.9,6.9-6.9h119.1
			c3.8,0,6.9,3.1,6.9,6.9V352.5z M535.2,262.6c0,3.8-3.1,6.9-6.9,6.9H409.2c-3.8,0-6.9-3.1-6.9-6.9v-75.3c0-3.8,3.1-6.9,6.9-6.9
			h119.1c3.8,0,6.9,3.1,6.9,6.9V262.6z M535.2,172.8c0,3.8-3.1,6.9-6.9,6.9H409.2c-3.8,0-6.9-3.1-6.9-6.9V97.5
			c0-3.8,3.1-6.9,6.9-6.9h119.1c3.8,0,6.9,3.1,6.9,6.9V172.8z M535.2,82.9c0,3.8-3.1,6.9-6.9,6.9H409.2c-3.8,0-6.9-3.1-6.9-6.9V7.6
			c0-3.8,3.1-6.9,6.9-6.9h119.1c3.8,0,6.9,3.1,6.9,6.9V82.9z M669.2,622.1c0,3.8-3.1,6.9-6.9,6.9H543.1c-3.8,0-6.9-3.1-6.9-6.9
			v-75.3c0-3.8,3.1-6.9,6.9-6.9h119.1c3.8,0,6.9,3.1,6.9,6.9v75.3H669.2z M669.2,532.2c0,3.8-3.1,6.9-6.9,6.9H543.1
			c-3.8,0-6.9-3.1-6.9-6.9v-75.3c0-3.8,3.1-6.9,6.9-6.9h119.1c3.8,0,6.9,3.1,6.9,6.9v75.3H669.2z M669.2,442.3
			c0,3.8-3.1,6.9-6.9,6.9H543.1c-3.8,0-6.9-3.1-6.9-6.9V367c0-3.8,3.1-6.9,6.9-6.9h119.1c3.8,0,6.9,3.1,6.9,6.9v75.3H669.2z
			 M669.2,352.5c0,3.8-3.1,6.9-6.9,6.9H543.1c-3.8,0-6.9-3.1-6.9-6.9v-75.3c0-3.8,3.1-6.9,6.9-6.9h119.1c3.8,0,6.9,3.1,6.9,6.9v75.3
			H669.2z M669.2,262.6c0,3.8-3.1,6.9-6.9,6.9H543.1c-3.8,0-6.9-3.1-6.9-6.9v-75.3c0-3.8,3.1-6.9,6.9-6.9h119.1
			c3.8,0,6.9,3.1,6.9,6.9v75.3H669.2z M669.2,172.8c0,3.8-3.1,6.9-6.9,6.9H543.1c-3.8,0-6.9-3.1-6.9-6.9V97.5c0-3.8,3.1-6.9,6.9-6.9
			h119.1c3.8,0,6.9,3.1,6.9,6.9v75.3H669.2z M669.2,82.9c0,3.8-3.1,6.9-6.9,6.9H543.1c-3.8,0-6.9-3.1-6.9-6.9V7.6
			c0-3.8,3.1-6.9,6.9-6.9h119.1c3.8,0,6.9,3.1,6.9,6.9v75.3H669.2z M803.1,622.1c0,3.8-3.1,6.9-6.9,6.9H677.1
			c-3.8,0-6.9-3.1-6.9-6.9v-75.3c0-3.8,3.1-6.9,6.9-6.9h119.1c3.8,0,6.9,3.1,6.9,6.9V622.1z M803.1,532.2c0,3.8-3.1,6.9-6.9,6.9
			H677.1c-3.8,0-6.9-3.1-6.9-6.9v-75.3c0-3.8,3.1-6.9,6.9-6.9h119.1c3.8,0,6.9,3.1,6.9,6.9V532.2z M803.1,442.3
			c0,3.8-3.1,6.9-6.9,6.9H677.1c-3.8,0-6.9-3.1-6.9-6.9V367c0-3.8,3.1-6.9,6.9-6.9h119.1c3.8,0,6.9,3.1,6.9,6.9V442.3z M803.1,352.5
			c0,3.8-3.1,6.9-6.9,6.9H677.1c-3.8,0-6.9-3.1-6.9-6.9v-75.3c0-3.8,3.1-6.9,6.9-6.9h119.1c3.8,0,6.9,3.1,6.9,6.9V352.5z
			 M803.1,262.6c0,3.8-3.1,6.9-6.9,6.9H677.1c-3.8,0-6.9-3.1-6.9-6.9v-75.3c0-3.8,3.1-6.9,6.9-6.9h119.1c3.8,0,6.9,3.1,6.9,6.9
			V262.6z M803.1,172.8c0,3.8-3.1,6.9-6.9,6.9H677.1c-3.8,0-6.9-3.1-6.9-6.9V97.5c0-3.8,3.1-6.9,6.9-6.9h119.1
			c3.8,0,6.9,3.1,6.9,6.9V172.8z M803.1,82.9c0,3.8-3.1,6.9-6.9,6.9H677.1c-3.8,0-6.9-3.1-6.9-6.9V7.6c0-3.8,3.1-6.9,6.9-6.9h119.1
			c3.8,0,6.9,3.1,6.9,6.9V82.9z M937.1,622.1c0,3.8-3.1,6.9-6.9,6.9H811c-3.8,0-6.9-3.1-6.9-6.9v-75.3c0-3.8,3.1-6.9,6.9-6.9h119.1
			c3.8,0,6.9,3.1,6.9,6.9L937.1,622.1L937.1,622.1z M937.1,532.2c0,3.8-3.1,6.9-6.9,6.9H811c-3.8,0-6.9-3.1-6.9-6.9v-75.3
			c0-3.8,3.1-6.9,6.9-6.9h119.1c3.8,0,6.9,3.1,6.9,6.9L937.1,532.2L937.1,532.2z M937.1,442.3c0,3.8-3.1,6.9-6.9,6.9H811
			c-3.8,0-6.9-3.1-6.9-6.9V367c0-3.8,3.1-6.9,6.9-6.9h119.1c3.8,0,6.9,3.1,6.9,6.9L937.1,442.3L937.1,442.3z M937.1,352.5
			c0,3.8-3.1,6.9-6.9,6.9H811c-3.8,0-6.9-3.1-6.9-6.9v-75.3c0-3.8,3.1-6.9,6.9-6.9h119.1c3.8,0,6.9,3.1,6.9,6.9L937.1,352.5
			L937.1,352.5z M937.1,262.6c0,3.8-3.1,6.9-6.9,6.9H811c-3.8,0-6.9-3.1-6.9-6.9v-75.3c0-3.8,3.1-6.9,6.9-6.9h119.1
			c3.8,0,6.9,3.1,6.9,6.9L937.1,262.6L937.1,262.6z M937.1,172.8c0,3.8-3.1,6.9-6.9,6.9H811c-3.8,0-6.9-3.1-6.9-6.9V97.5
			c0-3.8,3.1-6.9,6.9-6.9h119.1c3.8,0,6.9,3.1,6.9,6.9L937.1,172.8L937.1,172.8z M937.1,82.9c0,3.8-3.1,6.9-6.9,6.9H811
			c-3.8,0-6.9-3.1-6.9-6.9V7.6c0-3.8,3.1-6.9,6.9-6.9h119.1c3.8,0,6.9,3.1,6.9,6.9L937.1,82.9L937.1,82.9z M1071.1,622.1
			c0,3.8-3.1,6.9-6.9,6.9H945c-3.8,0-6.9-3.1-6.9-6.9v-75.3c0-3.8,3.1-6.9,6.9-6.9h119.1c3.8,0,6.9,3.1,6.9,6.9L1071.1,622.1
			L1071.1,622.1z M1071.1,532.2c0,3.8-3.1,6.9-6.9,6.9H945c-3.8,0-6.9-3.1-6.9-6.9v-75.3c0-3.8,3.1-6.9,6.9-6.9h119.1
			c3.8,0,6.9,3.1,6.9,6.9L1071.1,532.2L1071.1,532.2z M1071.1,442.3c0,3.8-3.1,6.9-6.9,6.9H945c-3.8,0-6.9-3.1-6.9-6.9V367
			c0-3.8,3.1-6.9,6.9-6.9h119.1c3.8,0,6.9,3.1,6.9,6.9L1071.1,442.3L1071.1,442.3z M1071.1,352.5c0,3.8-3.1,6.9-6.9,6.9H945
			c-3.8,0-6.9-3.1-6.9-6.9v-75.3c0-3.8,3.1-6.9,6.9-6.9h119.1c3.8,0,6.9,3.1,6.9,6.9L1071.1,352.5L1071.1,352.5z M1071.1,262.6
			c0,3.8-3.1,6.9-6.9,6.9H945c-3.8,0-6.9-3.1-6.9-6.9v-75.3c0-3.8,3.1-6.9,6.9-6.9h119.1c3.8,0,6.9,3.1,6.9,6.9L1071.1,262.6
			L1071.1,262.6z M1071.1,172.8c0,3.8-3.1,6.9-6.9,6.9H945c-3.8,0-6.9-3.1-6.9-6.9V97.5c0-3.8,3.1-6.9,6.9-6.9h119.1
			c3.8,0,6.9,3.1,6.9,6.9L1071.1,172.8L1071.1,172.8z M1071.1,82.9c0,3.8-3.1,6.9-6.9,6.9H945c-3.8,0-6.9-3.1-6.9-6.9V7.6
			c0-3.8,3.1-6.9,6.9-6.9h119.1c3.8,0,6.9,3.1,6.9,6.9L1071.1,82.9L1071.1,82.9z M1205,622.1c0,3.8-3.1,6.9-6.9,6.9H1079
			c-3.8,0-6.9-3.1-6.9-6.9v-75.3c0-3.8,3.1-6.9,6.9-6.9h119.1c3.8,0,6.9,3.1,6.9,6.9V622.1z M1205,532.2c0,3.8-3.1,6.9-6.9,6.9H1079
			c-3.8,0-6.9-3.1-6.9-6.9v-75.3c0-3.8,3.1-6.9,6.9-6.9h119.1c3.8,0,6.9,3.1,6.9,6.9V532.2z M1205,442.3c0,3.8-3.1,6.9-6.9,6.9H1079
			c-3.8,0-6.9-3.1-6.9-6.9V367c0-3.8,3.1-6.9,6.9-6.9h119.1c3.8,0,6.9,3.1,6.9,6.9V442.3z M1205,352.5c0,3.8-3.1,6.9-6.9,6.9H1079
			c-3.8,0-6.9-3.1-6.9-6.9v-75.3c0-3.8,3.1-6.9,6.9-6.9h119.1c3.8,0,6.9,3.1,6.9,6.9V352.5z M1205,262.6c0,3.8-3.1,6.9-6.9,6.9H1079
			c-3.8,0-6.9-3.1-6.9-6.9v-75.3c0-3.8,3.1-6.9,6.9-6.9h119.1c3.8,0,6.9,3.1,6.9,6.9V262.6z M1205,172.8c0,3.8-3.1,6.9-6.9,6.9H1079
			c-3.8,0-6.9-3.1-6.9-6.9V97.5c0-3.8,3.1-6.9,6.9-6.9h119.1c3.8,0,6.9,3.1,6.9,6.9V172.8z M1205,82.9c0,3.8-3.1,6.9-6.9,6.9H1079
			c-3.8,0-6.9-3.1-6.9-6.9V7.6c0-3.8,3.1-6.9,6.9-6.9h119.1c3.8,0,6.9,3.1,6.9,6.9V82.9z M1339,622.1c0,3.8-3.1,6.9-6.9,6.9H1213
			c-3.8,0-6.9-3.1-6.9-6.9v-75.3c0-3.8,3.1-6.9,6.9-6.9h119.1c3.8,0,6.9,3.1,6.9,6.9V622.1z M1339,532.2c0,3.8-3.1,6.9-6.9,6.9H1213
			c-3.8,0-6.9-3.1-6.9-6.9v-75.3c0-3.8,3.1-6.9,6.9-6.9h119.1c3.8,0,6.9,3.1,6.9,6.9V532.2z M1339,442.3c0,3.8-3.1,6.9-6.9,6.9H1213
			c-3.8,0-6.9-3.1-6.9-6.9V367c0-3.8,3.1-6.9,6.9-6.9h119.1c3.8,0,6.9,3.1,6.9,6.9V442.3z M1339,352.5c0,3.8-3.1,6.9-6.9,6.9H1213
			c-3.8,0-6.9-3.1-6.9-6.9v-75.3c0-3.8,3.1-6.9,6.9-6.9h119.1c3.8,0,6.9,3.1,6.9,6.9V352.5z M1339,262.6c0,3.8-3.1,6.9-6.9,6.9H1213
			c-3.8,0-6.9-3.1-6.9-6.9v-75.3c0-3.8,3.1-6.9,6.9-6.9h119.1c3.8,0,6.9,3.1,6.9,6.9V262.6z M1339,172.8c0,3.8-3.1,6.9-6.9,6.9H1213
			c-3.8,0-6.9-3.1-6.9-6.9V97.5c0-3.8,3.1-6.9,6.9-6.9h119.1c3.8,0,6.9,3.1,6.9,6.9V172.8z M1339,82.9c0,3.8-3.1,6.9-6.9,6.9H1213
			c-3.8,0-6.9-3.1-6.9-6.9V7.6c0-3.8,3.1-6.9,6.9-6.9h119.1c3.8,0,6.9,3.1,6.9,6.9V82.9z"/>
	</g>
</g>
<g id="Layer_1_1_">
	<path class="st1" d="M363.5,404.5c-5.8-5.6-8.9-11.6-10-14c-3.1-6.5-7-14.6-4-21s9.9-4.5,26-13c7.5-3.9,6.3-4.5,19-12
		c17.2-10.1,21.4-10.3,24-10c7.7,0.8,12.9,6.5,17,11c7.7,8.3,11.4,15.4,17,26c4.4,8.4,4.5,9.7,4,11c-2.6,6.5-17.2,2-27,12
		c-2.2,2.3-3.5,4.6-6,9c-5.5,9.9-4.2,13-7,16C408.3,428.5,379.6,420.2,363.5,404.5z"/>
	<path class="st2" d="M-59.5,474.5c1.7-20.2,4.3-52.1,8-92c2.8-30,3.3-34.5,3-44c-1.3-39.5-14.4-69-28-99c-9-19.8-22.9-46.2-44-75
		l50,155L-59.5,474.5z"/>
	<path class="st3" d="M-151.1,342.8l-0.2-0.3c-8.6-14.9-9-32.9-2-48.7c2.4-5.3,3.6-11.3,3.2-17.6c-1.1-19.5-17.2-35.1-36.7-35.7
		c-21.5-0.7-39.2,16.6-39.2,38c0,6.1,1.4,11.8,4,16.9c8,16.1,8.1,35,0,51.1l0,0l-56.9,81.9c-3.6,5.2-5.1,11.6-4.2,17.8l5.5,36.5
		c1.1,7.1,8.4,11.3,15.1,8.8l0,0l-0.7-36.9c-0.2-9.1,3.1-17.8,9.3-24.5l15.3-16.6c4-4.3,11.2-1.4,11.1,4.5l-5.2,203.1
		c-0.1,5.2,4,9.4,9.2,9.4h8.6L-194,525c0.6-3.2,3.4-5.5,6.7-5.5h14.1c3.7,0,6.9,2.6,7.7,6.2l23.6,104.8h9.9c5.4,0,9.7-4.6,9.4-10
		L-136.8,419c-0.3-3.6,4.2-5.6,6.7-2.9l15.9,17.3c6,6.5,9.2,15.1,9,23.9l-0.7,37.3l0,0c6.7,2.6,14-1.7,15.1-8.8l5.9-39.3
		c0.7-4.4-0.4-9-3-12.7L-151.1,342.8z"/>
	<path class="st4" d="M-377.7-96v-385.6c0-3.5-2.8-6.4-6.4-6.4h-1c-3.5,0-6.4,2.8-6.4,6.4V-96c0,3.5-2.8,6.4-6.4,6.4h-82.9
		c-3.5,0-6.4,2.8-6.4,6.4l0,0c0,3.5,2.8,6.4,6.4,6.4h189.3c3.5,0,6.4-2.8,6.4-6.4l0,0c0-3.5-2.8-6.4-6.4-6.4h-80
		C-374.8-89.7-377.7-92.5-377.7-96z"/>
	<g>
		<path class="st5" d="M-936.1,396.7l2.6-57.4c0.3-6-0.2-12-1.5-17.9l-11.7-53.1v69.5c0,3.3,0.2,6.7,0.5,10l4.8,50.1"/>
		<polyline class="st5" points="-869.7,231.6 -847,174.9 -811,123.2 -832.7,176.2 -863.7,225.6 		"/>
		<path class="st5" d="M-892,255l4.4-21c2.3-11.1,7-21.5,13.8-30.5l30.6-40.6l-25.8,57.8c-1.5,3.4-3.3,6.6-5.2,9.7l-14.1,22.2"/>
		<path class="st5" d="M-930.6,362.9l-4.4-23.1c-1.1-5.6-1.3-11.3-0.6-16.9l9.8-81.2l2.1,77.2c0,0.7,0,1.3,0,2l-1.8,32"/>
		<path class="st5" d="M-922.6,344.2l2.3-42.4c0.1-2.4,0.4-4.8,0.8-7.1l14.9-87.5l-7.5,85.4c-0.2,2-0.5,4.1-0.8,6.1l-4.1,22"/>
		<path class="st5" d="M-904.6,287.7c-1.1-2.2,2.3-29.7,4.3-44.4c0.8-6,2.1-11.9,4-17.6l17.2-52l-11.7,60.6c-0.8,4-1.8,7.9-3,11.7
			l-6.8,20.7"/>
		<path class="st5" d="M-945.3,415.6l36.6-133.6c2.2-8.2,6.3-15.7,11.8-22.2L-794,139.6l-97.3,125c-4.4,5.7-7.7,12.1-9.8,19
			l-38.9,132H-945.3z"/>
		<polyline class="st5" points="-913.3,311.6 -794,240.2 -873.5,305.6 -913.3,315.8 		"/>
		<path class="st5" d="M-907.2,295.2l15.3-17.8c9.4-10.9,20.8-19.9,33.6-26.4l69.7-35.4l-66.7,53.5c-3.5,2.8-7.2,5.4-11.1,7.8
			l-43.2,26.7"/>
		<path class="st5" d="M-886.1,254.7l75.5-43.7c7-4,14.7-6.7,22.7-7.8l63.3-9l-67.3,32.8c-2.6,1.3-5.3,2.4-8,3.3l-93.5,30.6"/>
		<path class="st5" d="M-873.7,240.2l55.5-40.3c12.3-9,26.9-14.4,42.1-15.8l51.5-4.5l-69.3,34c-2.7,1.3-5.5,2.5-8.4,3.6l-76.9,27.9"
			/>
		<path class="st5" d="M-856.5,217.4c1-1.3,30.2-19.2,45.8-28.8c6.4-3.9,13.2-7,20.4-9.3l57.3-17.9l-54.4,35.3
			c-6.8,4.4-14.2,7.9-21.9,10.4l-51.3,16.5"/>
		<path class="st5" d="M-843.5,201l38.2-37.9c4.7-4.7,10.1-8.8,15.9-12.1l51.9-30l-49.6,46.2c-3.4,3.2-7.1,6-11,8.6l-48.9,31.4"/>
		<path class="st5" d="M-924,351.4l14.6-23.9c7.9-12.9,18.3-24,30.6-32.8l58.7-41.7l-72.8,77.3c0,0-31.6,26.4-33.4,32.5"/>
		<path class="st5" d="M-934.9,392.8c1.1-3.5,16.1-27.3,27.2-44.6c7.7-12,17.3-22.7,28.4-31.7l64.8-52.5l-69.9,84.3
			c-2.8,3.3-5.7,6.5-8.7,9.5l-44.5,44.2"/>
	</g>
	<path class="st6" d="M-271.9,828.7l11.3-2.4c4.2-0.9,7.2-4.6,7.2-8.9l0,0c0-2.1-1.7-3.7-3.7-3.7h-31.4h-8.9h-31.5
		c-2.1,0-3.7,1.7-3.7,3.7l0,0c0,4.3,3,8,7.2,8.9l11.3,2.4l-20.6,50.3c-3.3,8-5,16.6-5,25.2l0,0c0,9.9,2.2,19.6,6.4,28.6l26.8,56.4h9
		h8.9h8.9l26.8-56.4c4.2-8.9,6.4-18.7,6.4-28.6l0,0c0-8.6-1.7-17.2-5-25.2L-271.9,828.7z"/>
	<g>
		<path class="st6" d="M1858.5,319.6h-292l0,0c0,4.6,4.9,8.2,10.8,8.2h270C1853.6,327.8,1858.5,324.1,1858.5,319.6L1858.5,319.6z"/>
		<g>
			<rect x="1598.5" y="319.2" class="st7" width="226.9" height="545.4"/>
			<g>
				<path class="st8" d="M1705.1,592.4c-0.1,0.1-0.3,0.1-0.5,0.3c2.3,0.5,4.7,0.8,7,0.8c3.8,0,7.7-0.8,11.3-2.3
					c0.1-0.1,0.3-0.1,0.5-0.3c-2.3-0.5-4.7-0.8-7-0.8C1712.5,590,1708.7,590.7,1705.1,592.4z"/>
				<path class="st8" d="M1711.7,665.4c-8.2,0-16.3-1.5-24.2-4.3v2.7c0,4,0.8,7.8,2.3,11.5c0.7,1.8,1.6,3.4,2.6,5.1
					c1.1,1.5,2.2,3,3.6,4.4s2.7,2.6,4.3,3.6c1.5,1.1,3.2,1.9,4.9,2.7c3.6,1.5,7.3,2.3,11.3,2.3c3.8,0,7.7-0.8,11.3-2.3
					c1.6-0.7,3.3-1.6,4.9-2.7c1.5-1.1,3-2.3,4.3-3.6c1.4-1.4,2.5-2.7,3.6-4.4c1.1-1.6,1.9-3.3,2.6-5.1c1.2-3,2.1-5.6,2.2-16.5
					C1734.2,663.4,1722.7,665.4,1711.7,665.4L1711.7,665.4z"/>
				<path class="st9" d="M1711.7,417.9L1711.7,417.9c-42,0-81.8,34.2-81.8,104.6v39.9c0,6.6,0.4,12.9,1.1,18.8
					c9.5-29.5,29.7-47.9,51.8-56.8c0.1-10.8,1-13.5,2.2-16.5c0.7-1.8,1.6-3.4,2.6-5.1c1.1-1.5,2.2-3,3.6-4.4s2.7-2.6,4.3-3.6
					c1.5-1.1,3.2-1.9,4.9-2.7c3.6-1.5,7.3-2.3,11.3-2.3c3.8,0,7.7,0.8,11.3,2.3c1.6,0.7,3.3,1.6,4.9,2.7c1.5,1.1,3,2.3,4.3,3.6
					c1.4,1.4,2.5,2.7,3.6,4.4c1.1,1.6,1.9,3.3,2.6,5.1c1.5,3.7,2.3,7.6,2.3,11.5v2.7v41.6c0,4-0.8,7.8-2.3,11.5
					c-0.7,1.8-1.6,3.4-2.6,5.1c-1.1,1.5-2.2,3-3.6,4.4s-2.7,2.6-4.3,3.6c-1.4,1-2.9,1.8-4.4,2.5c-0.1,0.1-0.3,0.1-0.5,0.3
					c-3.6,1.5-7.3,2.3-11.3,2.3c-2.3,0-4.8-0.3-7-0.8c-1.5,0.7-3,1.5-4.4,2.5c-1.5,1.1-3,2.3-4.3,3.6c-1.4,1.4-2.5,2.7-3.6,4.4
					c-1.1,1.6-1.9,3.3-2.6,5.1c-1.5,3.7-2.3,7.6-2.3,11.5v41.6c7.8,2.9,15.9,4.3,24.2,4.3l0,0c11,0,22.5-2.1,33.5-6.5
					c22.2-8.9,42.3-27.3,51.8-56.8c3.7-11.5,5.9-24.8,5.9-39.9v-43.1C1802.9,446.6,1753.7,417.9,1711.7,417.9z"/>
				<path class="st9" d="M1797,602.3c-9.5,29.5-29.7,47.9-51.8,56.8c-0.1,10.8-1,13.5-2.2,16.5c-0.7,1.8-1.6,3.4-2.6,5.1
					c-1.1,1.5-2.2,3-3.6,4.4s-2.7,2.6-4.3,3.6c-1.5,1.1-3.2,1.9-4.9,2.7c-3.6,1.5-7.3,2.3-11.3,2.3c-3.8,0-7.7-0.8-11.3-2.3
					c-1.6-0.7-3.3-1.6-4.9-2.7c-1.5-1.1-3-2.3-4.3-3.6c-1.4-1.4-2.5-2.7-3.6-4.4c-1.1-1.6-1.9-3.3-2.6-5.1
					c-1.5-3.7-2.3-7.6-2.3-11.5v-2.7v-41.6c0-4,0.8-7.8,2.3-11.5c0.7-1.8,1.6-3.4,2.6-5.1c1.1-1.5,2.2-3,3.6-4.4s2.7-2.6,4.3-3.6
					c1.4-1,2.9-1.8,4.4-2.5c0.1-0.1,0.3-0.1,0.5-0.3c3.6-1.5,7.3-2.3,11.3-2.3c2.3,0,4.8,0.3,7,0.8c1.5-0.7,3-1.5,4.4-2.5
					c1.5-1.1,3-2.3,4.3-3.6c1.4-1.4,2.5-2.7,3.6-4.4c1.1-1.6,1.9-3.3,2.6-5.1c1.5-3.7,2.3-7.6,2.3-11.5v-41.6
					c-7.8-2.9-15.9-4.3-24.2-4.3l0,0c-11,0-22.5,2.1-33.5,6.5c-22.2,8.9-42.3,27.3-51.8,56.8c-3.7,11.5-5.9,24.8-5.9,39.9v43.1
					c0,72.6,49.1,101.4,91.2,101.4l0,0c42,0,81.8-34.2,81.8-104.6v-39.9C1798.2,614.5,1797.8,608.2,1797,602.3z"/>
				<circle class="st10" cx="1714.3" cy="591.7" r="2.1"/>
			</g>
		</g>
	</g>
	<g>
		<path class="st11" d="M556.7-6c75.5-0.5,150.9,1.1,226.4,0c8.9,204.2,14.9,407.5,24.8,611.8c-74.8,6.4-147.6,7.3-222.5,8.8
			C569.3,408.6,562.2,200.6,556.7-6z"/>
		<g>
			<path class="st8" d="M672.7,317.5c-0.2,0.1-0.4,0.2-0.6,0.3c2.5,0.5,5,1,7.6,0.9c4.3,0,8.2-0.9,12.2-2.5c0.2-0.1,0.4-0.2,0.6-0.3
				c-2.5-0.5-5-1-7.6-1C680.5,315.1,676.6,315.8,672.7,317.5z"/>
			<path class="st8" d="M682.7,398.4c-9.3,0.2-17.7-1.7-26.6-4.2c0.1,0.8,0.1,2.2,0.1,3c0.4,4.6,1.3,8.6,3.1,12.8
				c0.9,2,1.9,3.8,3.1,5.5c1.2,1.7,2.6,3.3,4.1,4.8s3.1,2.7,4.8,3.9c1.8,1.1,3.5,2.1,5.6,2.9c4,1.5,8.1,2.4,12.4,2.3
				s8.2-1.1,12.2-2.8c1.8-0.8,3.6-1.9,5.2-3.1c1.6-1.2,3-2.4,4.4-4c1.4-1.5,2.5-2.9,3.6-4.9s1.6-2.9,2.6-5.7
				c1.7-4.9,1.7-12.1,1.3-17.6C707.2,395.5,695.2,398.2,682.7,398.4C682.7,398.5,682.7,398.4,682.7,398.4z"/>
			<path class="st12" d="M674.5,122.9C673.7,121.7,674.5,122.9,674.5,122.9c-66.3,1.2-89.1,60.6-87.5,118.8
				c0.2,8.3,1.9,33.3,2.3,43.7c0.3,6.9,1.3,14.4,2.3,21c8.5-29.2,26.2-51.6,54.1-64.5c-0.2-5.7-0.1-13.1,1.7-18.1
				c1.1-2.9,1.6-3.8,2.8-5.9c1.2-2.1,2.4-3.4,3.8-5c1.4-1.6,2.9-2.8,4.6-4.1c1.7-1.2,3.4-2.3,5.4-3.1c4-1.7,8-2.7,12.4-2.7
				s8.5,0.9,12.6,2.5c1.9,0.7,3.8,1.9,5.6,3.1s3.3,2.5,4.8,4s2.9,3.1,4.1,4.9c1.2,1.9,2.2,3.5,3,5.7c1.7,4.7,2.6,7.3,2.9,13.5
				c0,1.1,0-2.5,0.1,4.5s0.8,33.5,0.9,44.6c0.1,4.3-0.8,9.1-2.3,13c-0.7,1.9-1.6,3.9-2.7,5.6c-1.1,1.7-2.4,3.3-3.8,4.8
				s-2.9,2.8-4.5,3.9s-3,1.9-4.7,2.7c-0.2,0.1-0.3,0.2-0.6,0.3c-3.9,1.5-7.8,2.4-12.1,2.5c-2.5,0-5.1-0.4-7.6-0.9
				c-1.7,0.9-3.2,1.6-4.7,2.8c-1.5,1.2-3.1,2.5-4.5,4s-2.6,3.1-3.7,4.9c-1.1,1.9-2,3.4-2.7,5.7c-1.4,4.7-2.3,7.5-2.1,13.1
				c0.4,14.6,1,31,1.6,46.1c9.2,2.3,16.9,4.9,26.6,4.2c-0.1,0.2,0,0,0,0c13-0.9,23.2-1.5,36.2-7.4c26.3-11.9,44.5-31.3,53.7-60.9
				c3.6-11.5,6.1-30.1,6-44.9c0-10.6-0.3-38.9-0.5-48.4C777.2,172.8,740.8,121.8,674.5,122.9z"/>
			<path class="st12" d="M772.6,331c-9.3,27.9-26.9,48.4-53.9,60.5c0.3,5.6,0.3,12.7-1.4,17.6c-1,2.9-1.5,3.7-2.6,5.7
				s-2.2,3.3-3.6,4.9c-1.4,1.6-2.7,2.8-4.4,4s-3.3,2.2-5.2,3.1c-3.9,1.7-7.8,2.7-12.1,2.8c-4.3,0.1-8.3-0.8-12.4-2.3
				c-1.9-0.7-3.8-1.8-5.5-2.9s-3.3-2.4-4.9-3.8c-1.5-1.5-2.9-3-4.1-4.8c-1.2-1.8-2.3-3.3-3.1-5.6c-1.8-4.7-2.7-7.1-3.1-13.3
				c-0.1-1.1,0.1,2.5-0.2-4.4c-0.3-7-1.3-33.2-1.5-44.2c-0.1-4.2,0.7-9.1,2.1-13c0.7-1.9,1.6-3.9,2.7-5.7s2.4-3.4,3.7-4.9
				s2.9-2.8,4.5-4s3-1.9,4.7-2.8c0.2-0.1,0.3-0.2,0.6-0.3c3.9-1.6,7.8-2.5,12.1-2.5c2.5,0,5.1,0.4,7.6,1c1.7-0.8,3.2-1.6,4.7-2.7
				c1.5-1.2,3.1-2.4,4.5-3.9s2.7-3,3.8-4.8s2-3.4,2.7-5.6c1.4-4.7,2.3-7.4,2.3-13.1c-0.2-14.8-0.7-31.2-0.9-46.5
				c-9.3-2.5-17-5.3-26.9-4.7c0.2-0.2,0,0,0,0c-13.3,0.8-23.7,1.5-37,7.7c-27.1,12.5-45.5,34.2-53.8,64.7c-3.2,11.9-5.2,30-5.1,44.7
				c0.1,10.5,0.8,38,1.2,47.3c2.4,62.7,42,111.8,105.9,109.4c0.9,1.3,0,0,0,0c64-2.4,84.9-59.1,83-115.2c-0.3-8-2-31.8-2.1-41.7
				C774.5,344.8,773.4,337.4,772.6,331z"/>
			<path class="st10" d="M682.6,314.6c1.3,0,2.2,1,2.3,2.3c0,1.3-0.9,2.2-2.1,2.2c-1.3,0-2.2-1-2.3-2.3S681.3,314.6,682.6,314.6z"/>
		</g>
	</g>
	<g>
		<rect x="1496.7" y="-522" class="st7" width="226.3" height="623"/>
		<g>
			<path class="st8" d="M1602.2-198.4c-0.2,0.2-0.3,0.2-0.6,0.3c2.6,0.6,5.2,0.9,7.8,0.9c4.3,0,8.6-0.9,12.6-2.6
				c0.2-0.2,0.3-0.2,0.6-0.3c-2.6-0.6-5.2-0.9-7.8-0.9C1610.5-201,1606.2-200.3,1602.2-198.4z"/>
			<path class="st8" d="M1609.6-116.6c-9.2,0-18.3-1.7-27.1-4.8v3.1c0,4.5,0.9,8.8,2.6,12.9c0.8,2,1.8,3.8,2.9,5.7
				c1.2,1.7,2.5,3.4,4,4.9s3.1,2.9,4.8,4c1.7,1.2,3.5,2.2,5.5,3.1c4,1.7,8.2,2.6,12.6,2.6c4.3,0,8.6-0.9,12.6-2.6
				c1.8-0.8,3.7-1.8,5.5-3.1c1.7-1.2,3.4-2.6,4.8-4c1.5-1.5,2.8-3.1,4-4.9s2.2-3.7,2.9-5.7c1.4-3.4,2.3-6.3,2.5-18.5
				C1634.8-118.9,1621.9-116.6,1609.6-116.6L1609.6-116.6z"/>
			<path class="st9" d="M1609.6-394L1609.6-394c-47.1,0-91.7,38.3-91.7,117.2v44.8c0,7.4,0.5,14.5,1.2,21.1
				c10.6-33.1,33.2-53.7,58-63.7c0.2-12.2,1.1-15.1,2.5-18.5c0.8-2,1.8-3.8,2.9-5.7c1.2-1.7,2.5-3.4,4-4.9s3.1-2.9,4.8-4
				c1.7-1.2,3.5-2.2,5.5-3.1c4-1.7,8.2-2.6,12.6-2.6c4.3,0,8.6,0.9,12.6,2.6c1.8,0.8,3.7,1.8,5.5,3.1c1.7,1.2,3.4,2.6,4.8,4
				c1.5,1.5,2.8,3.1,4,4.9s2.2,3.7,2.9,5.7c1.7,4.2,2.6,8.5,2.6,12.9v3.1v46.6c0,4.5-0.9,8.8-2.6,12.9c-0.8,2-1.8,3.8-2.9,5.7
				c-1.2,1.7-2.5,3.4-4,4.9s-3.1,2.9-4.8,4c-1.5,1.1-3.2,2-4.9,2.8c-0.2,0.2-0.3,0.2-0.6,0.3c-4,1.7-8.2,2.6-12.6,2.6
				c-2.6,0-5.4-0.3-7.8-0.9c-1.7,0.8-3.4,1.7-4.9,2.8c-1.7,1.2-3.4,2.6-4.8,4c-1.5,1.5-2.8,3.1-4,4.9c-1.2,1.8-2.2,3.7-2.9,5.7
				c-1.7,4.2-2.6,8.5-2.6,12.9v46.6c8.8,3.2,17.8,4.8,27.1,4.8l0,0c12.3,0,25.2-2.3,37.5-7.2c24.9-10,47.4-30.6,58-63.7
				c4.2-12.9,6.6-27.8,6.6-44.8v-48.3C1711.8-361.8,1656.7-394,1609.6-394z"/>
			<path class="st9" d="M1705.2-187.3c-10.6,33.1-33.2,53.7-58,63.7c-0.2,12.2-1.1,15.1-2.5,18.5c-0.8,2-1.8,3.8-2.9,5.7
				c-1.2,1.7-2.5,3.4-4,4.9s-3.1,2.9-4.8,4c-1.7,1.2-3.5,2.2-5.5,3.1c-4,1.7-8.2,2.6-12.6,2.6c-4.3,0-8.6-0.9-12.6-2.6
				c-1.8-0.8-3.7-1.8-5.5-3.1c-1.7-1.2-3.4-2.6-4.8-4c-1.5-1.5-2.8-3.1-4-4.9s-2.2-3.7-2.9-5.7c-1.7-4.2-2.6-8.5-2.6-12.9v-3.1
				v-46.6c0-4.5,0.9-8.8,2.6-12.9c0.8-2,1.8-3.8,2.9-5.7c1.2-1.7,2.5-3.4,4-4.9s3.1-2.9,4.8-4c1.5-1.1,3.2-2,4.9-2.8
				c0.2-0.2,0.3-0.2,0.6-0.3c4-1.7,8.2-2.6,12.6-2.6c2.6,0,5.4,0.3,7.8,0.9c1.7-0.8,3.4-1.7,4.9-2.8c1.7-1.2,3.4-2.6,4.8-4
				c1.5-1.5,2.8-3.1,4-4.9c1.2-1.8,2.2-3.7,2.9-5.7c1.7-4.2,2.6-8.5,2.6-12.9V-277c-8.8-3.2-17.8-4.8-27.1-4.8l0,0
				c-12.3,0-25.2,2.3-37.5,7.2c-24.9,10-47.4,30.6-58,63.7c-4.2,12.9-6.6,27.8-6.6,44.8v48.3c0,81.4,55.1,113.7,102.2,113.7l0,0
				c47.1,0,91.7-38.3,91.7-117.2v-44.8C1706.5-173.6,1706.1-180.7,1705.2-187.3z"/>
			<circle class="st10" cx="1612.5" cy="-199.2" r="2.3"/>
		</g>
	</g>
	<rect x="1935.7" y="-513" class="st7" width="226.3" height="623"/>
	<g>
		<path class="st8" d="M2041.2-189.4c-0.2,0.2-0.3,0.2-0.6,0.3c2.6,0.6,5.2,0.9,7.8,0.9c4.3,0,8.6-0.9,12.6-2.6
			c0.2-0.2,0.3-0.2,0.6-0.3c-2.6-0.6-5.2-0.9-7.8-0.9C2049.5-192,2045.2-191.3,2041.2-189.4z"/>
		<path class="st8" d="M2048.6-107.6c-9.2,0-18.3-1.7-27.1-4.8v3.1c0,4.5,0.9,8.8,2.6,12.9c0.8,2,1.8,3.8,2.9,5.7
			c1.2,1.7,2.5,3.4,4,4.9s3.1,2.9,4.8,4c1.7,1.2,3.5,2.2,5.5,3.1c4,1.7,8.2,2.6,12.6,2.6c4.3,0,8.6-0.9,12.6-2.6
			c1.8-0.8,3.7-1.8,5.5-3.1c1.7-1.2,3.4-2.6,4.8-4c1.5-1.5,2.8-3.1,4-4.9s2.2-3.7,2.9-5.7c1.4-3.4,2.3-6.3,2.5-18.5
			C2073.8-109.9,2060.9-107.6,2048.6-107.6L2048.6-107.6z"/>
		<path class="st9" d="M2048.6-385L2048.6-385c-47.1,0-91.7,38.3-91.7,117.2v44.8c0,7.4,0.5,14.5,1.2,21.1
			c10.6-33.1,33.2-53.7,58-63.7c0.2-12.2,1.1-15.1,2.5-18.5c0.8-2,1.8-3.8,2.9-5.7c1.2-1.7,2.5-3.4,4-4.9s3.1-2.9,4.8-4
			c1.7-1.2,3.5-2.2,5.5-3.1c4-1.7,8.2-2.6,12.6-2.6c4.3,0,8.6,0.9,12.6,2.6c1.8,0.8,3.7,1.8,5.5,3.1c1.7,1.2,3.4,2.6,4.8,4
			c1.5,1.5,2.8,3.1,4,4.9s2.2,3.7,2.9,5.7c1.7,4.2,2.6,8.5,2.6,12.9v3.1v46.6c0,4.5-0.9,8.8-2.6,12.9c-0.8,2-1.8,3.8-2.9,5.7
			c-1.2,1.7-2.5,3.4-4,4.9s-3.1,2.9-4.8,4c-1.5,1.1-3.2,2-4.9,2.8c-0.2,0.2-0.3,0.2-0.6,0.3c-4,1.7-8.2,2.6-12.6,2.6
			c-2.6,0-5.4-0.3-7.8-0.9c-1.7,0.8-3.4,1.7-4.9,2.8c-1.7,1.2-3.4,2.6-4.8,4c-1.5,1.5-2.8,3.1-4,4.9c-1.2,1.8-2.2,3.7-2.9,5.7
			c-1.7,4.2-2.6,8.5-2.6,12.9v46.6c8.8,3.2,17.8,4.8,27.1,4.8l0,0c12.3,0,25.2-2.3,37.5-7.2c24.9-10,47.4-30.6,58-63.7
			c4.2-12.9,6.6-27.8,6.6-44.8v-48.3C2150.8-352.8,2095.7-385,2048.6-385z"/>
		<path class="st9" d="M2144.2-178.3c-10.6,33.1-33.2,53.7-58,63.7c-0.2,12.2-1.1,15.1-2.5,18.5c-0.8,2-1.8,3.8-2.9,5.7
			c-1.2,1.7-2.5,3.4-4,4.9s-3.1,2.9-4.8,4c-1.7,1.2-3.5,2.2-5.5,3.1c-4,1.7-8.2,2.6-12.6,2.6c-4.3,0-8.6-0.9-12.6-2.6
			c-1.8-0.8-3.7-1.8-5.5-3.1c-1.7-1.2-3.4-2.6-4.8-4c-1.5-1.5-2.8-3.1-4-4.9s-2.2-3.7-2.9-5.7c-1.7-4.2-2.6-8.5-2.6-12.9v-3.1v-46.6
			c0-4.5,0.9-8.8,2.6-12.9c0.8-2,1.8-3.8,2.9-5.7c1.2-1.7,2.5-3.4,4-4.9s3.1-2.9,4.8-4c1.5-1.1,3.2-2,4.9-2.8
			c0.2-0.2,0.3-0.2,0.6-0.3c4-1.7,8.2-2.6,12.6-2.6c2.6,0,5.4,0.3,7.8,0.9c1.7-0.8,3.4-1.7,4.9-2.8c1.7-1.2,3.4-2.6,4.8-4
			c1.5-1.5,2.8-3.1,4-4.9c1.2-1.8,2.2-3.7,2.9-5.7c1.7-4.2,2.6-8.5,2.6-12.9V-268c-8.8-3.2-17.8-4.8-27.1-4.8l0,0
			c-12.3,0-25.2,2.3-37.5,7.2c-24.9,10-47.4,30.6-58,63.7c-4.2,12.9-6.6,27.8-6.6,44.8v48.3c0,81.4,55.1,113.7,102.2,113.7l0,0
			c47.1,0,91.7-38.3,91.7-117.2v-44.8C2145.5-164.6,2145.1-171.7,2144.2-178.3z"/>
		<circle class="st10" cx="2051.5" cy="-190.2" r="2.3"/>
	</g>
	<rect x="-43.5" y="-1253.5" class="st6" width="200" height="630"/>
	<rect x="-106.5" y="-669.5" class="st6" width="322" height="55"/>
	<rect x="-106.5" y="-1258.5" class="st6" width="322" height="55"/>
	<path class="st6" d="M102.5-210.5h119v51.9c0,20.5-16.6,37.1-37.1,37.1h-44.8c-20.5,0-37.1-16.6-37.1-37.1
		C102.5-158.6,102.5-210.5,102.5-210.5z"/>
	<path class="st6" d="M193.5,813.5h-119v-52.9c0-20.5,16.6-37.1,37.1-37.1h44.8c20.5,0,37.1,16.6,37.1,37.1V813.5z"/>
	<g>
		<path class="st8" d="M-484.9,301.2h-4.3c-11.2,0-20.9,6.1-26,15.2c5.1,9.1,14.8,15.2,26,15.2h4.3c11.2,0,20.9-6.1,26-15.2
			C-464,307.4-473.7,301.2-484.9,301.2z"/>
		<path class="st8" d="M-477.8,268c8.2,0,15.9,2,22.8,5.5V117.1c0-16.5-13.4-29.8-29.8-29.8h-4.3c-16.5,0-29.8,13.4-29.8,29.8v156.4
			c6.8-3.5,14.6-5.5,22.8-5.5H-477.8z"/>
		<path class="st8" d="M-496.2,362c-8.2,0-15.9-2-22.8-5.5v159.3c0,16.5,13.4,29.8,29.8,29.8h4.3c16.5,0,29.8-13.4,29.8-29.8V356.5
			c-6.8,3.5-14.6,5.5-22.8,5.5H-496.2z"/>
		<path class="st6" d="M-477.8,54h-18.4c-27.7,0-50.2,22.5-50.2,50.2v207.6c0,1.1,0,2.1,0.1,3.2c1.1-18.2,11.9-33.7,27.3-41.5V117.1
			c0-16.5,13.4-29.8,29.8-29.8h4.3c16.5,0,29.8,13.4,29.8,29.8v156.4v28.4c0,5.3-1.4,10.3-3.8,14.6c-5.1,9.1-14.8,15.2-26,15.2h-4.3
			c-11.2,0-20.9-6.1-26-15.2c-2.4,4.3-3.8,9.3-3.8,14.6v25.5c6.8,3.5,14.6,5.5,22.8,5.5h18.4c8.2,0,15.9-2,22.8-5.5
			c15.4-7.8,26.2-23.4,27.3-41.5c0.1-1.1,0.1-2.1,0.1-3.2V104.2C-427.6,76.5-450.1,54-477.8,54z"/>
		<path class="st6" d="M-427.7,315c-1.1,18.2-11.9,33.7-27.3,41.5v159.3c0,16.5-13.4,29.8-29.8,29.8h-4.3
			c-16.5,0-29.8-13.4-29.8-29.8V356.5V331c0-5.3,1.4-10.3,3.8-14.6c5.1-9.1,14.8-15.2,26-15.2h4.3c11.2,0,20.9,6.1,26,15.2
			c2.4-4.3,3.8-9.3,3.8-14.6v-28.4c-6.8-3.5-14.6-5.5-22.8-5.5h-18.4c-8.2,0-15.9,2-22.8,5.5c-15.4,7.8-26.2,23.4-27.3,41.5
			c-0.1,1.1-0.1,2.1-0.1,3.2v207.6c0,27.7,22.5,50.2,50.2,50.2h18.4c27.7,0,50.2-22.5,50.2-50.2V318.2
			C-427.6,317.1-427.6,316.1-427.7,315z"/>
		<circle class="st6" cx="-487.5" cy="316.5" r="15"/>
		<path class="st6" d="M-546.5-14.5h119v31.9c0,20.5-16.6,37.1-37.1,37.1h-44.8c-20.5,0-37.1-16.6-37.1-37.1V-14.5z"/>
		<path class="st6" d="M-427.5,644.5h-119v-31.9c0-20.5,16.6-37.1,37.1-37.1h44.8c20.5,0,37.1,16.6,37.1,37.1V644.5z"/>
	</g>
	<g>
		<path class="st8" d="M136.1,1208.2h-4.3c-11.2,0-20.9,6.1-26,15.2c5.1,9.1,14.8,15.2,26,15.2h4.3c11.2,0,20.9-6.1,26-15.2
			C157,1214.4,147.3,1208.2,136.1,1208.2z"/>
		<path class="st8" d="M143.2,1175c8.2,0,15.9,2,22.8,5.5v-156.4c0-16.5-13.4-29.8-29.8-29.8h-4.3c-16.5,0-29.8,13.4-29.8,29.8
			v156.4c6.8-3.5,14.6-5.5,22.8-5.5H143.2z"/>
		<path class="st8" d="M124.8,1269c-8.2,0-15.9-2-22.8-5.5v159.3c0,16.5,13.4,29.8,29.8,29.8h4.3c16.5,0,29.8-13.4,29.8-29.8v-159.3
			c-6.8,3.5-14.6,5.5-22.8,5.5H124.8z"/>
		<path class="st6" d="M143.2,982h-18.4c-27.7,0-50.2,20.7-50.2,46.2v190.9c0,1,0,2,0.1,2.9c1.1-16.7,11.9-31,27.3-38.2V1040
			c0-15.2,13.4-27.4,29.8-27.4h4.3c16.5,0,29.8,12.3,29.8,27.4v143.8v26.1c0,4.9-1.4,9.5-3.8,13.4c-5.1,8.4-14.8,14-26,14h-4.3
			c-11.2,0-20.9-5.6-26-14c-2.4,4-3.8,8.6-3.8,13.4v23.4c6.8,3.2,14.6,5,22.8,5h18.4c8.2,0,15.9-1.8,22.8-5
			c15.4-7.2,26.2-21.5,27.3-38.2c0.1-1,0.1-2,0.1-2.9v-190.9C193.4,1002.7,170.9,982,143.2,982z"/>
		<path class="st6" d="M193.3,1222c-1.1,16.7-11.9,31-27.3,38.2v146.5c0,15.2-13.4,27.4-29.8,27.4h-4.3c-16.5,0-29.8-12.3-29.8-27.4
			v-146.5v-23.4c0-4.9,1.4-9.5,3.8-13.4c5.1-8.4,14.8-14,26-14h4.3c11.2,0,20.9,5.6,26,14c2.4-4,3.8-8.6,3.8-13.4v-26.1
			c-6.8-3.2-14.6-5-22.8-5h-18.4c-8.2,0-15.9,1.8-22.8,5c-15.4,7.2-26.2,21.5-27.3,38.2c-0.1,1-0.1,2-0.1,2.9v190.9
			c0,25.5,22.5,46.2,50.2,46.2h18.4c27.7,0,50.2-20.7,50.2-46.2V1225C193.4,1224,193.4,1223,193.3,1222z"/>
		<ellipse class="st6" cx="133.5" cy="1223.4" rx="15" ry="13.8"/>
		<polygon class="st6" points="133.5,1462 74.5,1536.5 193.5,1536.5 		"/>
		<polygon class="st6" points="134.5,981.5 193.5,907 74.5,907 		"/>
	</g>
	<g>
		<path class="st8" d="M672.1,963.2h-4.3c-11.2,0-20.9,6.1-26,15.2c5.1,9.1,14.8,15.2,26,15.2h4.3c11.2,0,20.9-6.1,26-15.2
			C693,969.4,683.3,963.2,672.1,963.2z"/>
		<path class="st8" d="M679.2,930c8.2,0,15.9,2,22.8,5.5V779.1c0-16.5-13.4-29.8-29.8-29.8h-4.3c-16.5,0-29.8,13.4-29.8,29.8v156.4
			c6.8-3.5,14.6-5.5,22.8-5.5H679.2z"/>
		<path class="st8" d="M660.8,1024c-8.2,0-15.9-2-22.8-5.5v159.3c0,16.5,13.4,29.8,29.8,29.8h4.3c16.5,0,29.8-13.4,29.8-29.8v-159.3
			c-6.8,3.5-14.6,5.5-22.8,5.5H660.8z"/>
		<path class="st6" d="M679.2,737h-18.4c-27.7,0-50.2,20.7-50.2,46.2v190.9c0,1,0,2,0.1,2.9c1.1-16.7,11.9-31,27.3-38.2V795
			c0-15.2,13.4-27.4,29.8-27.4h4.3c16.5,0,29.8,12.3,29.8,27.4v143.8v26.1c0,4.9-1.4,9.5-3.8,13.4c-5.1,8.4-14.8,14-26,14h-4.3
			c-11.2,0-20.9-5.6-26-14c-2.4,4-3.8,8.6-3.8,13.4v23.4c6.8,3.2,14.6,5,22.8,5h18.4c8.2,0,15.9-1.8,22.8-5
			c15.4-7.2,26.2-21.5,27.3-38.2c0.1-1,0.1-2,0.1-2.9V783.2C729.4,757.7,706.9,737,679.2,737z"/>
		<path class="st6" d="M729.3,977c-1.1,16.7-11.9,31-27.3,38.2v146.5c0,15.2-13.4,27.4-29.8,27.4h-4.3c-16.5,0-29.8-12.3-29.8-27.4
			v-146.5v-23.4c0-4.9,1.4-9.5,3.8-13.4c5.1-8.4,14.8-14,26-14h4.3c11.2,0,20.9,5.6,26,14c2.4-4,3.8-8.6,3.8-13.4v-26.1
			c-6.8-3.2-14.6-5-22.8-5h-18.4c-8.2,0-15.9,1.8-22.8,5c-15.4,7.2-26.2,21.5-27.3,38.2c-0.1,1-0.1,2-0.1,2.9v190.9
			c0,25.5,22.5,46.2,50.2,46.2h18.4c27.7,0,50.2-20.7,50.2-46.2v-191C729.4,979,729.4,978,729.3,977z"/>
		<ellipse class="st6" cx="669.5" cy="978.4" rx="15" ry="13.8"/>
		<polygon class="st6" points="669.5,1217 610.5,1291.5 729.5,1291.5 		"/>
		<polygon class="st6" points="670.5,736.5 729.5,662 610.5,662 		"/>
	</g>
	<g>
		<path class="st8" d="M1208.1,1208.2h-4.3c-11.2,0-20.9,6.1-26,15.2c5.1,9.1,14.8,15.2,26,15.2h4.3c11.2,0,20.9-6.1,26-15.2
			C1229,1214.4,1219.3,1208.2,1208.1,1208.2z"/>
		<path class="st8" d="M1215.2,1175c8.2,0,15.9,2,22.8,5.5v-156.4c0-16.5-13.4-29.8-29.8-29.8h-4.3c-16.5,0-29.8,13.4-29.8,29.8
			v156.4c6.8-3.5,14.6-5.5,22.8-5.5H1215.2z"/>
		<path class="st8" d="M1196.8,1269c-8.2,0-15.9-2-22.8-5.5v159.3c0,16.5,13.4,29.8,29.8,29.8h4.3c16.5,0,29.8-13.4,29.8-29.8
			v-159.3c-6.8,3.5-14.6,5.5-22.8,5.5H1196.8z"/>
		<path class="st6" d="M1215.2,982h-18.4c-27.7,0-50.2,20.7-50.2,46.2v190.9c0,1,0,2,0.1,2.9c1.1-16.7,11.9-31,27.3-38.2V1040
			c0-15.2,13.4-27.4,29.8-27.4h4.3c16.5,0,29.8,12.3,29.8,27.4v143.8v26.1c0,4.9-1.4,9.5-3.8,13.4c-5.1,8.4-14.8,14-26,14h-4.3
			c-11.2,0-20.9-5.6-26-14c-2.4,4-3.8,8.6-3.8,13.4v23.4c6.8,3.2,14.6,5,22.8,5h18.4c8.2,0,15.9-1.8,22.8-5
			c15.4-7.2,26.2-21.5,27.3-38.2c0.1-1,0.1-2,0.1-2.9v-190.9C1265.4,1002.7,1242.9,982,1215.2,982z"/>
		<path class="st6" d="M1265.3,1222c-1.1,16.7-11.9,31-27.3,38.2v146.5c0,15.2-13.4,27.4-29.8,27.4h-4.3
			c-16.5,0-29.8-12.3-29.8-27.4v-146.5v-23.4c0-4.9,1.4-9.5,3.8-13.4c5.1-8.4,14.8-14,26-14h4.3c11.2,0,20.9,5.6,26,14
			c2.4-4,3.8-8.6,3.8-13.4v-26.1c-6.8-3.2-14.6-5-22.8-5h-18.4c-8.2,0-15.9,1.8-22.8,5c-15.4,7.2-26.2,21.5-27.3,38.2
			c-0.1,1-0.1,2-0.1,2.9v190.9c0,25.5,22.5,46.2,50.2,46.2h18.4c27.7,0,50.2-20.7,50.2-46.2V1225
			C1265.4,1224,1265.4,1223,1265.3,1222z"/>
		<ellipse class="st6" cx="1205.5" cy="1223.4" rx="15" ry="13.8"/>
		<polygon class="st6" points="1205.5,1462 1146.5,1536.5 1265.5,1536.5 		"/>
		<polygon class="st6" points="1206.5,981.5 1265.5,907 1146.5,907 		"/>
	</g>
	<path class="st3" d="M815.5-0.5h-292l0,0c0,4.6,4.9,8.2,10.8,8.2h270C810.6,7.7,815.5,4,815.5-0.5L815.5-0.5z"/>
	<path class="st6" d="M407.1,906.5h-11.3c-12.9,0-23.4-10.5-23.4-23.4V695.5h58v187.6C430.5,896,420,906.5,407.1,906.5z"/>
	<path class="st3" d="M464.5,372h-124c0,16.2,9.2,30.7,23.6,40c14,9.1,20.8,26.1,17.3,42.5l-37.4,175h115l-37.1-173.9
		c-3.6-16.6,3.5-33.9,17.9-42.9C454.8,403.4,464.5,388.7,464.5,372z"/>
	<circle class="st7" cx="-33.5" cy="1130.5" r="87"/>
	<circle class="st1" cx="-33.5" cy="1130.5" r="74"/>
	<circle class="st2" cx="-33.5" cy="1130.5" r="57"/>
	<circle class="st6" cx="-33.5" cy="1130.5" r="41"/>
	<g>
		<path class="st8" d="M136.5,299.1h-5c-13,0-24.3,7.1-30.2,17.7c5.9,10.6,17.2,17.7,30.2,17.7h5c13,0,24.3-7.1,30.2-17.7
			C160.8,306.2,149.5,299.1,136.5,299.1z"/>
		<path class="st8" d="M144.7,260.4c9.5,0,18.5,2.3,26.5,6.4V85.1c0-19.1-15.5-34.7-34.7-34.7h-5c-19.1,0-34.7,15.5-34.7,34.7v181.7
			c7.9-4.1,16.9-6.4,26.5-6.4H144.7z"/>
		<path class="st8" d="M123.3,369.7c-9.5,0-18.5-2.3-26.5-6.4v185.1c0,19.1,15.5,34.7,34.7,34.7h5c19.1,0,34.7-15.5,34.7-34.7V363.3
			c-7.9,4.1-16.9,6.4-26.5,6.4L123.3,369.7L123.3,369.7z"/>
		<path class="st13" d="M144.7,36.2h-21.4c-32.2,0-58.3,24-58.3,53.6v221.8c0,1.1,0.1,2.3,0.1,3.4c1.3-19.4,13.9-36,31.7-44.4v-167
			c0-17.6,15.5-31.9,34.7-31.9h5c19.1,0,34.7,14.3,34.7,31.9v167.1V301c0,5.7-1.6,11-4.4,15.6c-5.9,9.7-17.2,16.3-30.2,16.3h-5
			c-13,0-24.3-6.6-30.2-16.3c-2.8,4.6-4.4,9.9-4.4,15.6v27.2c7.9,3.7,16.9,5.8,26.5,5.8h21.4c9.5,0,18.5-2.1,26.5-5.8
			c17.9-8.4,30.4-25,31.7-44.4c0.1-1.1,0.1-2.3,0.1-3.4V89.8C203,60.2,176.9,36.2,144.7,36.2z"/>
		<path class="st13" d="M202.9,315c-1.3,19.4-13.9,36-31.7,44.4v170.2c0,17.6-15.5,31.9-34.7,31.9h-5c-19.1,0-34.7-14.3-34.7-31.9
			V359.4v-27.2c0-5.7,1.6-11,4.4-15.6c5.9-9.7,17.2-16.3,30.2-16.3h5c13,0,24.3,6.6,30.2,16.3c2.8-4.6,4.4-9.9,4.4-15.6v-30.3
			c-7.9-3.7-16.9-5.8-26.5-5.8h-21.4c-9.5,0-18.5,2.1-26.5,5.8C79,279,66.4,295.6,65.1,315c-0.1,1.1-0.1,2.3-0.1,3.4v221.8
			c0,29.6,26.1,53.6,58.3,53.6h21.4c32.2,0,58.3-24,58.3-53.6V318.5C203,317.3,203,316.2,202.9,315z"/>
		<ellipse class="st13" cx="133.4" cy="316.6" rx="17.4" ry="16"/>
		<polygon class="st13" points="133.4,593.9 64.9,633 203.1,633 		"/>
		<polygon class="st13" points="134.6,36 203.1,-3.5 64.9,-3.5 		"/>
	</g>
	<g>
		<path class="st8" d="M1208.5,299.1h-5c-13,0-24.3,7.1-30.2,17.7c5.9,10.6,17.2,17.7,30.2,17.7h5c13,0,24.3-7.1,30.2-17.7
			C1232.8,306.2,1221.5,299.1,1208.5,299.1z"/>
		<path class="st8" d="M1216.7,260.4c9.5,0,18.5,2.3,26.5,6.4V85.1c0-19.1-15.5-34.7-34.7-34.7h-5c-19.1,0-34.7,15.5-34.7,34.7
			v181.7c7.9-4.1,16.9-6.4,26.5-6.4H1216.7z"/>
		<path class="st8" d="M1195.3,369.7c-9.5,0-18.5-2.3-26.5-6.4v185.1c0,19.1,15.5,34.7,34.7,34.7h5c19.1,0,34.7-15.5,34.7-34.7
			V363.3c-7.9,4.1-16.9,6.4-26.5,6.4L1195.3,369.7L1195.3,369.7z"/>
		<path class="st13" d="M1216.7,36.2h-21.4c-32.2,0-58.3,24-58.3,53.6v221.8c0,1.1,0.1,2.3,0.1,3.4c1.3-19.4,13.9-36,31.7-44.4v-167
			c0-17.6,15.5-31.9,34.7-31.9h5c19.1,0,34.7,14.3,34.7,31.9v167.1V301c0,5.7-1.6,11-4.4,15.6c-5.9,9.7-17.2,16.3-30.2,16.3h-5
			c-13,0-24.3-6.6-30.2-16.3c-2.8,4.6-4.4,9.9-4.4,15.6v27.2c7.9,3.7,16.9,5.8,26.5,5.8h21.4c9.5,0,18.5-2.1,26.5-5.8
			c17.9-8.4,30.4-25,31.7-44.4c0.1-1.1,0.1-2.3,0.1-3.4V89.8C1275,60.2,1248.9,36.2,1216.7,36.2z"/>
		<path class="st13" d="M1274.9,315c-1.3,19.4-13.9,36-31.7,44.4v170.2c0,17.6-15.5,31.9-34.7,31.9h-5c-19.1,0-34.7-14.3-34.7-31.9
			V359.4v-27.2c0-5.7,1.6-11,4.4-15.6c5.9-9.7,17.2-16.3,30.2-16.3h5c13,0,24.3,6.6,30.2,16.3c2.8-4.6,4.4-9.9,4.4-15.6v-30.3
			c-7.9-3.7-16.9-5.8-26.5-5.8h-21.4c-9.5,0-18.5,2.1-26.5,5.8c-17.9,8.4-30.4,25-31.7,44.4c-0.1,1.1-0.1,2.3-0.1,3.4v221.8
			c0,29.6,26.1,53.6,58.3,53.6h21.4c32.2,0,58.3-24,58.3-53.6V318.5C1275,317.3,1275,316.2,1274.9,315z"/>
		<ellipse class="st13" cx="1205.4" cy="316.6" rx="17.4" ry="16"/>
		<polygon class="st13" points="1205.4,593.9 1136.9,633 1275.1,633 		"/>
		<polygon class="st13" points="1206.6,36 1275.1,-3.5 1136.9,-3.5 		"/>
	</g>
</g>
</svg>
