<svg xmlns="http://www.w3.org/2000/svg" viewBox="0 0 443.48 448.59"><title>Asset 1</title><g id="Layer_2" data-name="Layer 2"><g id="Layer_1-2" data-name="Layer 1"><path d="M76.55,68.2,187,218.24a2.12,2.12,0,0,1-.32,2.87l-7.85,6.81a7.38,7.38,0,0,0-.74,10.41l12.66,14.6c-.23.22-.45.45-.7.66L0,418.38,217.08,295.92a20.1,20.1,0,0,1,23,2.27l174.6,150.4L290.51,254.46a20.11,20.11,0,0,1,1-23.09l152-197.55-190,164.78c-.25.21-.51.4-.76.6L240,184.6a7.38,7.38,0,0,0-10.41-.74l-7.85,6.8a2.13,2.13,0,0,1-2.89-.09L86,60a2.1,2.1,0,0,1-.19-2.78L129.82,0,75.56,47.05A2.1,2.1,0,0,1,72.71,47L30.12,5.11,65.51,53.2A2.12,2.12,0,0,1,65.2,56L10.94,103.09,73.82,67.62A2.09,2.09,0,0,1,76.55,68.2Z"/></g></g></svg>