<svg id="Layer_1" data-name="Layer 1" xmlns="http://www.w3.org/2000/svg" viewBox="0 0 199 192"><title>Artboard 2</title><path d="M197.63,106.5,99.52,3,2.12,106.64l17.32,0a10.75,10.75,0,0,1,10.75,10.75V190H169V117.26a10.76,10.76,0,0,1,10.74-10.75Zm-141,.1c.09-.25.19-.5.28-.74.16-.44.33-.87.5-1.29l.38-.89c.21-.47.42-1,.64-1.41.12-.26.24-.51.37-.76.28-.56.57-1.12.87-1.67l.39-.67q.45-.8.93-1.56c.07-.12.14-.24.22-.35.39-.62.81-1.23,1.23-1.83l.31-.42c.38-.53.77-1.05,1.18-1.56.07-.09.14-.19.22-.28.49-.61,1-1.21,1.52-1.79l.11-.12c.51-.56,1-1.11,1.56-1.65a1.37,1.37,0,0,1,.17-.17,46.38,46.38,0,0,1,3.62-3.25,45.83,45.83,0,0,1,18.57-9A7.59,7.59,0,0,1,99,84.55v23.14A13.31,13.31,0,0,1,85.69,121H62.55a7.57,7.57,0,0,1-7.41-9.2,45,45,0,0,1,1.51-5.2Zm5.9,16.4H85.69A13.31,13.31,0,0,1,99,136.31v23.14a7.61,7.61,0,0,1-9.35,7.37,46.05,46.05,0,0,1-34.47-34.47A7.61,7.61,0,0,1,62.55,123ZM101,159.45V136.31A13.31,13.31,0,0,1,114.31,123h23.14a7.61,7.61,0,0,1,7.37,9.35,46.05,46.05,0,0,1-34.47,34.47A7.61,7.61,0,0,1,101,159.45ZM137.46,121H114.31A13.31,13.31,0,0,1,101,107.69V84.55a7.59,7.59,0,0,1,9.28-7.39,45.93,45.93,0,0,1,22.2,12.29l.14.13c.55.56,1.08,1.12,1.6,1.7a.46.46,0,0,1,.07.07c.53.59,1,1.2,1.55,1.82l.15.2c.42.53.84,1.07,1.23,1.62l.29.4c.44.61.86,1.24,1.27,1.87.08.13.15.26.23.38q.48.77.93,1.56l.34.59c.34.63.68,1.26,1,1.9.08.17.15.34.24.51.23.49.46,1,.68,1.5.12.27.23.54.34.81.2.49.39,1,.58,1.47l.21.56h0a45.93,45.93,0,0,1,1.53,5.25A7.57,7.57,0,0,1,137.46,121Z"/></svg>