<?xml version="1.0" encoding="utf-8"?>
<!-- Generator: Adobe Illustrator 22.0.1, SVG Export Plug-In . SVG Version: 6.00 Build 0)  -->
<svg version="1.1" xmlns="http://www.w3.org/2000/svg" xmlns:xlink="http://www.w3.org/1999/xlink" x="0px" y="0px"
	 viewBox="0 0 750 412.7" style="enable-background:new 0 0 750 412.7;" xml:space="preserve">
<style type="text/css">
	.st0{fill:#333333;stroke:#000000;stroke-miterlimit:10;}
	.st1{fill:none;stroke:#000000;stroke-miterlimit:10;}
	.st2{fill:#E7E7E7;}
	.st3{fill:#333333;}
</style>
<g id="Layer_1">
	<rect x="214.8" y="117.8" class="st0" width="321.4" height="177"/>
	<line class="st1" x1="214.5" y1="117.8" x2="0.5" y2="-0.2"/>
	<line class="st1" x1="536.5" y1="117.8" x2="750.5" y2="-0.2"/>
	<line class="st1" x1="0.5" y1="412.8" x2="214.5" y2="294.8"/>
	<line class="st1" x1="536.5" y1="294.8" x2="750.5" y2="412.8"/>
</g>
<g id="Layer_2">
	<g>
		<path class="st2" d="M374.9,178.8c-14.1,0-25.5-11.4-25.5-25.5s11.4-25.5,25.5-25.5c14.1,0,25.5,11.4,25.5,25.5
			S388.9,178.8,374.9,178.8z"/>
		<path d="M374.9,128.3c13.8,0,25,11.2,25,25s-11.2,25-25,25c-13.8,0-25-11.2-25-25S361.1,128.3,374.9,128.3 M374.9,127.3
			c-14.4,0-26,11.6-26,26s11.6,26,26,26c14.4,0,26-11.6,26-26S389.2,127.3,374.9,127.3L374.9,127.3z"/>
	</g>
	<g>
		<path class="st2" d="M399.8,174.8c-14.1,0-25.5-11.4-25.5-25.5s11.4-25.5,25.5-25.5c14.1,0,25.5,11.4,25.5,25.5
			S413.9,174.8,399.8,174.8z"/>
		<path d="M399.8,124.3c13.8,0,25,11.2,25,25s-11.2,25-25,25c-13.8,0-25-11.2-25-25S386.1,124.3,399.8,124.3 M399.8,123.3
			c-14.4,0-26,11.6-26,26s11.6,26,26,26c14.4,0,26-11.6,26-26S414.2,123.3,399.8,123.3L399.8,123.3z"/>
	</g>
	<g>
		<path class="st2" d="M356.9,174.8c-14.1,0-25.5-11.4-25.5-25.5s11.4-25.5,25.5-25.5c14.1,0,25.5,11.4,25.5,25.5
			S370.9,174.8,356.9,174.8z"/>
		<path d="M356.9,124.3c13.8,0,25,11.2,25,25s-11.2,25-25,25c-13.8,0-25-11.2-25-25S343.1,124.3,356.9,124.3 M356.9,123.3
			c-14.4,0-26,11.6-26,26s11.6,26,26,26c14.4,0,26-11.6,26-26S371.2,123.3,356.9,123.3L356.9,123.3z"/>
	</g>
	<g>
		<path class="st2" d="M379.9,148.8c-14.1,0-25.5-11.4-25.5-25.5s11.4-25.5,25.5-25.5c14.1,0,25.5,11.4,25.5,25.5
			S393.9,148.8,379.9,148.8z"/>
		<path d="M379.9,98.3c13.8,0,25,11.2,25,25s-11.2,25-25,25c-13.8,0-25-11.2-25-25S366.1,98.3,379.9,98.3 M379.9,97.3
			c-14.4,0-26,11.6-26,26s11.6,26,26,26c14.4,0,26-11.6,26-26S394.2,97.3,379.9,97.3L379.9,97.3z"/>
	</g>
	<g>
		<circle class="st2" cx="348.3" cy="198.5" r="30.5"/>
		<path d="M348.3,168.4c16.6,0,30,13.5,30,30s-13.5,30-30,30s-30-13.5-30-30S331.8,168.4,348.3,168.4 M348.3,167.4
			c-17.1,0-31,13.9-31,31s13.9,31,31,31s31-13.9,31-31S365.5,167.4,348.3,167.4L348.3,167.4z"/>
	</g>
	<g>
		<circle class="st2" cx="390.4" cy="201.8" r="31.1"/>
		<path d="M390.4,171.2c16.9,0,30.6,13.7,30.6,30.6s-13.7,30.6-30.6,30.6s-30.6-13.7-30.6-30.6S373.6,171.2,390.4,171.2
			 M390.4,170.2c-17.4,0-31.6,14.1-31.6,31.6s14.1,31.6,31.6,31.6c17.4,0,31.6-14.1,31.6-31.6S407.9,170.2,390.4,170.2L390.4,170.2z
			"/>
	</g>
	<g>
		<circle class="st2" cx="373.3" cy="170.5" r="30.5"/>
		<path d="M373.3,140.4c16.6,0,30,13.5,30,30s-13.5,30-30,30s-30-13.5-30-30S356.8,140.4,373.3,140.4 M373.3,139.4
			c-17.1,0-31,13.9-31,31s13.9,31,31,31s31-13.9,31-31S390.5,139.4,373.3,139.4L373.3,139.4z"/>
	</g>
	<g>
		<circle class="st2" cx="319.4" cy="153.4" r="33.9"/>
		<path d="M319.4,120c18.4,0,33.4,15,33.4,33.4s-15,33.4-33.4,33.4s-33.4-15-33.4-33.4S301,120,319.4,120 M319.4,119
			c-19,0-34.4,15.4-34.4,34.4s15.4,34.4,34.4,34.4s34.4-15.4,34.4-34.4S338.4,119,319.4,119L319.4,119z"/>
	</g>
	<g>
		<path class="st2" d="M388.4,124.4c-17,0-30.8-13.8-30.8-30.8s13.8-30.8,30.8-30.8s30.8,13.8,30.8,30.8S405.4,124.4,388.4,124.4z"
			/>
		<path d="M388.4,63.3c16.7,0,30.3,13.6,30.3,30.3s-13.6,30.3-30.3,30.3s-30.3-13.6-30.3-30.3S371.7,63.3,388.4,63.3 M388.4,62.3
			c-17.3,0-31.3,14-31.3,31.3s14,31.3,31.3,31.3c17.3,0,31.3-14,31.3-31.3S405.7,62.3,388.4,62.3L388.4,62.3z"/>
	</g>
	<g>
		<circle class="st2" cx="339.3" cy="249.3" r="33.5"/>
		<path d="M339.3,216.3c18.2,0,33,14.8,33,33s-14.8,33-33,33s-33-14.8-33-33S321.1,216.3,339.3,216.3 M339.3,215.3
			c-18.8,0-34,15.2-34,34s15.2,34,34,34s34-15.2,34-34S358.1,215.3,339.3,215.3L339.3,215.3z"/>
	</g>
	<g>
		<path class="st2" d="M313.7,322.1c-22,0-39.9-17.9-39.9-39.9s17.9-39.9,39.9-39.9s39.9,17.9,39.9,39.9S335.7,322.1,313.7,322.1z"
			/>
		<path d="M313.7,242.9c21.7,0,39.4,17.7,39.4,39.4s-17.7,39.4-39.4,39.4s-39.4-17.7-39.4-39.4S292,242.9,313.7,242.9 M313.7,241.9
			c-22.3,0-40.4,18.1-40.4,40.4c0,22.3,18.1,40.4,40.4,40.4s40.4-18.1,40.4-40.4C354,259.9,336,241.9,313.7,241.9L313.7,241.9z"/>
	</g>
	<g>
		<path class="st2" d="M295.7,359.6c-24.1,0-43.8-19.6-43.8-43.8c0-24.1,19.6-43.8,43.8-43.8s43.8,19.6,43.8,43.8
			C339.5,340,319.9,359.6,295.7,359.6z"/>
		<path d="M295.7,272.6c23.9,0,43.3,19.4,43.3,43.3s-19.4,43.3-43.3,43.3c-23.9,0-43.3-19.4-43.3-43.3S271.9,272.6,295.7,272.6
			 M295.7,271.6c-24.4,0-44.3,19.8-44.3,44.3c0,24.4,19.8,44.3,44.3,44.3c24.4,0,44.3-19.8,44.3-44.3
			C340,291.4,320.2,271.6,295.7,271.6L295.7,271.6z"/>
	</g>
	<g>
		<path class="st2" d="M399.7,283.7c-17.3,0-31.5-14.1-31.5-31.5s14.1-31.5,31.5-31.5s31.5,14.1,31.5,31.5S417,283.7,399.7,283.7z"
			/>
		<path d="M399.7,221.3c17.1,0,31,13.9,31,31s-13.9,31-31,31s-31-13.9-31-31S382.6,221.3,399.7,221.3 M399.7,220.3
			c-17.6,0-32,14.3-32,32s14.3,32,32,32c17.6,0,32-14.3,32-32S417.3,220.3,399.7,220.3L399.7,220.3z"/>
	</g>
	<g>
		<path class="st2" d="M367.7,244.7c-17.3,0-31.5-14.1-31.5-31.5s14.1-31.5,31.5-31.5s31.5,14.1,31.5,31.5S385,244.7,367.7,244.7z"
			/>
		<path d="M367.7,182.3c17.1,0,31,13.9,31,31s-13.9,31-31,31s-31-13.9-31-31S350.6,182.3,367.7,182.3 M367.7,181.3
			c-17.6,0-32,14.3-32,32s14.3,32,32,32c17.6,0,32-14.3,32-32S385.3,181.3,367.7,181.3L367.7,181.3z"/>
	</g>
	<g>
		<path class="st2" d="M415.5,332.7c-22,0-39.9-17.9-39.9-39.9s17.9-39.9,39.9-39.9s39.9,17.9,39.9,39.9S437.5,332.7,415.5,332.7z"
			/>
		<path d="M415.5,253.5c21.7,0,39.4,17.7,39.4,39.4s-17.7,39.4-39.4,39.4s-39.4-17.7-39.4-39.4S393.8,253.5,415.5,253.5
			 M415.5,252.5c-22.3,0-40.4,18.1-40.4,40.4c0,22.3,18.1,40.4,40.4,40.4c22.3,0,40.4-18.1,40.4-40.4
			C455.9,270.6,437.8,252.5,415.5,252.5L415.5,252.5z"/>
	</g>
	<g>
		<path class="st2" d="M425.5,385.2c-25.5,0-46.2-20.7-46.2-46.2c0-25.5,20.7-46.2,46.2-46.2c25.5,0,46.2,20.7,46.2,46.2
			C471.7,364.5,451,385.2,425.5,385.2z"/>
		<path d="M425.5,293.3c25.2,0,45.7,20.5,45.7,45.7s-20.5,45.7-45.7,45.7s-45.7-20.5-45.7-45.7S400.4,293.3,425.5,293.3
			 M425.5,292.3c-25.8,0-46.7,20.9-46.7,46.7s20.9,46.7,46.7,46.7s46.7-20.9,46.7-46.7S451.3,292.3,425.5,292.3L425.5,292.3z"/>
	</g>
	<g>
		<path class="st2" d="M449.5,442.8c-30.2,0-54.8-24.6-54.8-54.8c0-30.2,24.6-54.8,54.8-54.8c30.2,0,54.8,24.6,54.8,54.8
			C504.4,418.2,479.8,442.8,449.5,442.8z"/>
		<path d="M449.5,333.7c30,0,54.3,24.4,54.3,54.3s-24.4,54.3-54.3,54.3S395.2,418,395.2,388S419.6,333.7,449.5,333.7 M449.5,332.7
			c-30.6,0-55.3,24.8-55.3,55.3s24.8,55.3,55.3,55.3s55.3-24.8,55.3-55.3S480.1,332.7,449.5,332.7L449.5,332.7z"/>
	</g>
	<g>
		<path class="st2" d="M458.5,490.8c-34.6,0-62.8-28.2-62.8-62.8c0-34.6,28.2-62.8,62.8-62.8c34.6,0,62.8,28.2,62.8,62.8
			C521.4,462.7,493.2,490.8,458.5,490.8z"/>
		<path d="M458.5,365.7c34.4,0,62.3,28,62.3,62.3s-28,62.3-62.3,62.3s-62.3-28-62.3-62.3S424.2,365.7,458.5,365.7 M458.5,364.7
			c-35,0-63.3,28.3-63.3,63.3s28.3,63.3,63.3,63.3s63.3-28.3,63.3-63.3S493.5,364.7,458.5,364.7L458.5,364.7z"/>
	</g>
	<g>
		
			<ellipse transform="matrix(0.1602 -0.9871 0.9871 0.1602 -143.8192 556.895)" class="st2" cx="255.4" cy="363" rx="52.1" ry="52.1"/>
		<path d="M255.4,311.3c28.5,0,51.6,23.2,51.6,51.6s-23.2,51.6-51.6,51.6s-51.6-23.2-51.6-51.6S226.9,311.3,255.4,311.3
			 M255.4,310.3c-29.1,0-52.6,23.6-52.6,52.6c0,29.1,23.6,52.6,52.6,52.6S308,392,308,363C308,333.9,284.4,310.3,255.4,310.3
			L255.4,310.3z"/>
	</g>
	<g>
		
			<ellipse transform="matrix(0.1602 -0.9871 0.9871 0.1602 -218.6785 538.9084)" class="st2" cx="207.4" cy="398" rx="65.1" ry="65.1"/>
		<path d="M207.4,333.3c35.6,0,64.6,29,64.6,64.6s-29,64.6-64.6,64.6s-64.6-29-64.6-64.6S171.7,333.3,207.4,333.3 M207.4,332.3
			c-36.2,0-65.6,29.4-65.6,65.6s29.4,65.6,65.6,65.6S273,434.2,273,398S243.6,332.3,207.4,332.3L207.4,332.3z"/>
	</g>
	<g>
		<circle class="st2" cx="894" cy="258.3" r="53.5"/>
		<path d="M894,205.3c29.2,0,53,23.8,53,53s-23.8,53-53,53s-53-23.8-53-53S864.8,205.3,894,205.3 M894,204.3c-29.8,0-54,24.2-54,54
			c0,29.8,24.2,54,54,54s54-24.2,54-54C948,228.5,923.8,204.3,894,204.3L894,204.3z"/>
	</g>
	<g>
		<circle class="st2" cx="969" cy="201.3" r="53.5"/>
		<path d="M969,148.3c29.2,0,53,23.8,53,53s-23.8,53-53,53s-53-23.8-53-53S939.8,148.3,969,148.3 M969,147.3c-29.8,0-54,24.2-54,54
			s24.2,54,54,54s54-24.2,54-54S998.8,147.3,969,147.3L969,147.3z"/>
	</g>
	<g>
		<circle class="st2" cx="831" cy="376.3" r="53.5"/>
		<path d="M831,323.3c29.2,0,53,23.8,53,53s-23.8,53-53,53s-53-23.8-53-53S801.8,323.3,831,323.3 M831,322.3c-29.8,0-54,24.2-54,54
			c0,29.8,24.2,54,54,54s54-24.2,54-54C885,346.5,860.8,322.3,831,322.3L831,322.3z"/>
	</g>
	<g>
		<path class="st2" d="M428.5,204.4c-19.2,0-34.8-15.6-34.8-34.8c0-19.2,15.6-34.8,34.8-34.8c19.2,0,34.8,15.6,34.8,34.8
			C463.3,188.8,447.7,204.4,428.5,204.4z"/>
		<path d="M428.5,135.3c18.9,0,34.3,15.4,34.3,34.3s-15.4,34.3-34.3,34.3s-34.3-15.4-34.3-34.3S409.7,135.3,428.5,135.3
			 M428.5,134.3c-19.5,0-35.3,15.8-35.3,35.3s15.8,35.3,35.3,35.3s35.3-15.8,35.3-35.3S448,134.3,428.5,134.3L428.5,134.3z"/>
	</g>
	<g>
		
			<ellipse transform="matrix(0.1602 -0.9871 0.9871 0.1602 69.2595 397.6945)" class="st2" cx="268.3" cy="158.1" rx="39.9" ry="39.9"/>
		<path d="M268.3,118.8c21.7,0,39.4,17.7,39.4,39.4s-17.7,39.4-39.4,39.4S229,179.9,229,158.1S246.6,118.8,268.3,118.8 M268.3,117.8
			c-22.3,0-40.4,18.1-40.4,40.4s18.1,40.4,40.4,40.4c22.3,0,40.4-18.1,40.4-40.4S290.6,117.8,268.3,117.8L268.3,117.8z"/>
	</g>
	<g>
		
			<ellipse transform="matrix(0.9239 -0.3827 0.3827 0.9239 -47.804 97.9636)" class="st2" cx="222.3" cy="169.1" rx="45.3" ry="45.3"/>
		<path d="M222.3,124.3c24.7,0,44.8,20.1,44.8,44.8S247.1,214,222.3,214s-44.8-20.1-44.8-44.8S197.6,124.3,222.3,124.3 M222.3,123.3
			c-25.3,0-45.8,20.5-45.8,45.8S197,215,222.3,215s45.8-20.5,45.8-45.8S247.6,123.3,222.3,123.3L222.3,123.3z"/>
	</g>
	<g>
		
			<ellipse transform="matrix(0.9239 -0.3827 0.3827 0.9239 -63.2406 78.3582)" class="st2" cx="165.3" cy="198.1" rx="66.3" ry="66.3"/>
		<path d="M165.3,132.3c36.3,0,65.8,29.5,65.8,65.8S201.6,264,165.3,264s-65.8-29.5-65.8-65.8S129.1,132.3,165.3,132.3 M165.3,131.3
			c-36.9,0-66.8,29.9-66.8,66.8s29.9,66.8,66.8,66.8s66.8-29.9,66.8-66.8S202.2,131.3,165.3,131.3L165.3,131.3z"/>
	</g>
	<g>
		<circle class="st2" cx="471.8" cy="176.3" r="44.5"/>
		<path d="M471.8,132.3c24.3,0,44,19.7,44,44s-19.7,44-44,44c-24.3,0-44-19.7-44-44S447.6,132.3,471.8,132.3 M471.8,131.3
			c-24.8,0-45,20.1-45,45s20.1,45,45,45s45-20.1,45-45S496.7,131.3,471.8,131.3L471.8,131.3z"/>
	</g>
	<g>
		<circle class="st2" cx="516.6" cy="167.3" r="49.9"/>
		<path d="M516.6,118c27.2,0,49.4,22.1,49.4,49.4s-22.1,49.4-49.4,49.4s-49.4-22.1-49.4-49.4S489.4,118,516.6,118 M516.6,117
			c-27.8,0-50.4,22.5-50.4,50.4s22.5,50.4,50.4,50.4c27.8,0,50.4-22.5,50.4-50.4S544.5,117,516.6,117L516.6,117z"/>
	</g>
	<g>
		<circle class="st2" cx="568.9" cy="139.3" r="63.5"/>
		<path d="M568.9,76.3c34.7,0,63,28.3,63,63s-28.3,63-63,63c-34.7,0-63-28.3-63-63S534.1,76.3,568.9,76.3 M568.9,75.3
			c-35.3,0-64,28.6-64,64s28.6,64,64,64s64-28.6,64-64S604.2,75.3,568.9,75.3L568.9,75.3z"/>
	</g>
	<line class="st0" x1="380.5" y1="109.8" x2="391.5" y2="110.8"/>
	<circle class="st3" cx="379.5" cy="98.8" r="1.5"/>
	<circle class="st3" cx="395.5" cy="100.8" r="1.5"/>
	<line class="st1" x1="271" y1="412.8" x2="144" y2="412.8"/>
	<line class="st1" x1="519" y1="412.8" x2="398" y2="412.8"/>
</g>
</svg>
