<svg id="Layer_1" data-name="Layer 1" xmlns="http://www.w3.org/2000/svg" viewBox="0 0 199 192"><title>Artboard 2 copy</title><path d="M197.63,107.5,99.52,4,2.12,107.64,2,190H198Zm-141,.1c.09-.25.19-.5.28-.74.16-.44.33-.87.5-1.29l.38-.89c.21-.47.42-1,.64-1.41.12-.26.24-.51.37-.76.28-.56.57-1.12.87-1.67l.39-.67c.28-.5.58-1,.88-1.48.09-.14.17-.29.27-.43.39-.62.81-1.23,1.23-1.83l.31-.42c.38-.53.77-1.05,1.18-1.56.07-.09.14-.19.22-.28.49-.61,1-1.21,1.52-1.79l.14-.15c.49-.56,1-1.1,1.53-1.62.06-.06.11-.12.17-.17a46.38,46.38,0,0,1,3.62-3.25A45.75,45.75,0,0,1,99,77v45H54a45.75,45.75,0,0,1,2.62-14.4ZM54,124H99v45A46,46,0,0,1,54,124Zm47,45V124h45A46,46,0,0,1,101,169Zm45-47H101V77a45.87,45.87,0,0,1,31.48,13.43l.14.13c.55.56,1.08,1.12,1.6,1.7a.46.46,0,0,1,.07.07c.53.59,1,1.2,1.55,1.82a2.35,2.35,0,0,0,.19.25c.42.53.83,1.08,1.23,1.63.09.11.17.23.25.34.44.61.86,1.24,1.27,1.87.08.13.15.26.23.38q.48.77.93,1.56l.34.59c.34.63.68,1.26,1,1.9.08.17.15.34.24.51.23.49.46,1,.68,1.5.12.27.23.54.34.81.2.49.39,1,.58,1.47l.21.56h0A45.85,45.85,0,0,1,146,122Z"/></svg>