<?xml version="1.0" encoding="utf-8"?>
<!-- Generator: Adobe Illustrator 22.1.0, SVG Export Plug-In . SVG Version: 6.00 Build 0)  -->
<svg version="1.1" xmlns="http://www.w3.org/2000/svg" xmlns:xlink="http://www.w3.org/1999/xlink" x="0px" y="0px"
	 viewBox="0 0 1340 630" style="enable-background:new 0 0 1340 630;" xml:space="preserve">
<style type="text/css">
	.st0{fill:#CECEC6;}
	.st1{fill:#414143;}
	.st2{fill:#96968F;stroke:#000000;stroke-miterlimit:10;}
</style>
<g id="Layer_2">
</g>
<g id="Layer_1">
	<path class="st0" d="M-1-1l-2,642h1341l2-642H-1z M726,341H614v-52h112V341z"/>
	<g>
		<path class="st1" d="M671.1,389l-11.2,3.8c-0.8,0.3-1.6,0.6-2.4,0.9l-8.4,3.8c-0.9,0.4-1.7,0.8-2.4,1.2l-33.9,19.5l-44.1,25.2
			c-0.8,0.5-1.2,1.2-1,1.8l1.2,2.9c0.2,0.6,0,1.3-0.8,1.8l-4.9,3.6c-0.5,0.4-0.8,0.8-0.8,1.3l-0.4,4.5c-0.1,0.8,0.7,1.5,1.9,1.7
			l3.2,0.4c0.8,0.1,1.7-0.1,2.5-0.4l8.8-4.5c0.1-0.1,0.3,0,0.3,0.1l0,0c0.3,1.1,2.1,1.6,3.7,1.1l0,0c1-0.3,1.8-1,1.9-1.7l0.7-3.2
			l12.1-0.7c0.8,0,1.7-0.3,2.3-0.7l9.8-6.8c0.3-0.2,0.5-0.4,0.8-0.6l21-16.7c0.8-0.6,1.5-1.3,2.1-1.9l8.8-9.5
			c0.4-0.4,0.7-0.8,1.1-1.1l20.6-19.3"/>
		<path class="st1" d="M685.6,400.3l15.6,15l10,9.2l20.8,21.6c1.5,1.6,3.3,3.1,5.1,4.6l6.2,4.9c0.6,0.5,1.6,0.6,2.4,0.4l5-1.7
			l1.6,2.8c0.1,0.1,0.1,0.2,0.2,0.3l2,2.1c0.4,0.5,1.2,0.8,2,0.8l0,0c1.2,0,2-0.6,1.8-1.4l-0.3-1.3c-0.1-0.4,0.6-0.6,1.1-0.4
			l6.5,3.3c0.6,0.3,1.4,0.4,2.1,0.3l3.7-0.9c1-0.2,1.4-0.9,1-1.6l-4.4-7.6c-0.2-0.4-0.2-0.8,0.2-1.1l3.4-3.2c0.3-0.3,0.2-0.8-0.3-1
			l-37.2-20.1l-16.9-11.6l-20.9-13.2l-8.9-4.9l-5.8-3.2l-4.8-2.1"/>
		<g>
			<path class="st1" d="M671,384.1l-2.2,0.6c-0.6,0.2-1.2,0.4-1.6,0.8l-1.2,0.8c-0.2,0.1-0.4,0.3-0.7,0.4l-1.3,0.6l0,0.5l0.3,0.1
				c0.3,0.1,0.7,0.2,1,0.3l0.5,0.1c0.2,0,0.4,0.1,0.5,0.1l1.6,0.2l2.8,0.4c0.5,0.1,1.1,0.1,1.6,0.1l4.1-0.1c0.5,0,1-0.1,1.5-0.2
				l3.8-0.8l0.2-0.5l-1-0.7c-0.2-0.1-0.4-0.3-0.6-0.4l-1.1-0.5c-0.4-0.2-0.7-0.4-1-0.7l-0.3-0.3c-0.4-0.3-0.8-0.6-1.4-0.8l-0.1,0
				c-0.3-0.1-0.6-0.2-0.9-0.3l-0.1,0c-0.3-0.1-0.6-0.1-0.9-0.2l0,0c-0.9-0.1-1.8-0.1-2.6,0l-0.1,0C671.6,384,671.3,384,671,384.1z"
				/>
			<path class="st1" d="M666.4,446l6.7-15.4c0.2-0.4,0.8-0.7,1.5-0.7l1.4,0c0.2,0,0.4,0,0.5,0l1.8,0.3c0.5,0.1,0.9,0.3,1.1,0.7
				l8.1,15.9c0,0,0,0.1,0,0.1l159.5,268.4c0.5,0.9,14.6,2.1,15.5,2.3l37.3,9.5c2.4,0.6,3.6-1.7,2-4l-106.1-158
				c-1.8-2.7-3.5-5.4-4.9-8.2l-27-51.2c-4.4-8.4-9.6-16.4-15.5-23.9l-43.8-56.1c0,0,0,0,0-0.1L689.9,403c0,0-0.1-0.1-0.1-0.1
				l-8.7-8.9l-2.4-2.5c0,0-0.1-0.1-0.1-0.1l-1.9-1.5c-0.1-0.1-0.2-0.1-0.3-0.2l-0.5-0.2c-0.6-0.3-0.7-0.8-0.2-1.1l0,0l0.9-0.6
				c0.1-0.1,0.2-0.1,0.2-0.2l0.5-0.7c0.1-0.1,0.1-0.2,0.1-0.3l0.1-0.6c0-0.1,0-0.2-0.1-0.3l-0.7-0.9c-0.1-0.1-0.3-0.2-0.5-0.3
				l-1-0.4c-0.2-0.1-0.4-0.1-0.6-0.1l-1.1-0.1c-0.2,0-0.4,0-0.6,0l-1.3,0.1c-0.2,0-0.3,0-0.4,0.1l-1.5,0.5c-0.2,0.1-0.4,0.2-0.5,0.3
				l-1,1c-0.1,0.1-0.2,0.3-0.2,0.4l0,0.7c0,0.1,0.1,0.3,0.2,0.4l1.1,1.1l0.2,0.2c0.4,0.3,0.2,0.7-0.3,1l-1.7,0.9
				c-0.1,0.1-0.2,0.1-0.3,0.2l-3.2,3.3l-4.3,4.2c0,0-0.1,0.1-0.1,0.1l-11.1,18.1c0,0,0,0.1,0,0.1l-4.6,10.9
				c-0.2,0.5-0.5,1.1-0.9,1.6l-31,40.3c-0.6,0.8-1.2,1.5-1.9,2.2l-39.7,41.9c-1.4,1.4-2.6,3-3.6,4.6L455.2,688
				c-0.3,0.4-0.4,0.8-0.5,1.2l-5.9,31.2c-0.3,1.8,1,3,2.9,2.4l75.8-25.3c0.8-0.3,1.6-0.9,2-1.7l91.5-167.1L666.4,446
				C666.4,446,666.4,446,666.4,446z"/>
		</g>
	</g>
	<g>
		<path d="M727,289v52H613v-52H727 M728,288h-1H613h-1v1v52v1h1h114h1v-1v-52V288L728,288z"/>
	</g>
	<polyline class="st2" points="-0.5,-0.5 614.5,288.5 614.5,341.5 -0.5,629.5 	"/>
	<polyline class="st2" points="1341,-0.5 725.5,288.5 725.5,341.5 1341,629.5 	"/>
	<g>
		<path d="M1239,48v534H101V48H1239 M1240,47H100v536H1240V47L1240,47z"/>
	</g>
	<g>
		<path d="M1092.3,117v396H247.7V117H1092.3 M1093.3,116H246.7v398h846.5V116L1093.3,116z"/>
	</g>
	<g>
		<path d="M975.3,172v286H364.7V172H975.3 M976.3,171H363.7v288h612.6V171L976.3,171z"/>
	</g>
	<g>
		<path d="M877.4,218v194H462.6V218H877.4 M878.4,217H461.6v196h416.9V217L878.4,217z"/>
	</g>
	<g>
		<path d="M782,262.9v104.3H558V262.9H782 M783,261.9H557v106.3h226V261.9L783,261.9z"/>
	</g>
	<g>
		<line class="st2" x1="2522" y1="315" x2="3156.5" y2="315"/>
		<line class="st2" x1="2410" y1="314.5" x2="1752.5" y2="314.5"/>
		<line class="st2" x1="2410.5" y1="326" x2="1777.5" y2="509.5"/>
		<line class="st2" x1="2521.5" y1="328" x2="3169.5" y2="509.5"/>
		<line class="st2" x1="2410.5" y1="303.5" x2="1777.5" y2="120"/>
		<line class="st2" x1="2521.5" y1="301.5" x2="3169.5" y2="120"/>
	</g>
</g>
</svg>
