<?xml version="1.0" encoding="utf-8"?>
<!-- Generator: Adobe Illustrator 23.0.4, SVG Export Plug-In . SVG Version: 6.00 Build 0)  -->
<svg version="1.1" id="Layer_1" xmlns="http://www.w3.org/2000/svg" xmlns:xlink="http://www.w3.org/1999/xlink" x="0px" y="0px"
	 viewBox="0 0 800 615" style="enable-background:new 0 0 800 615;" xml:space="preserve">
<style type="text/css">
	.st0{fill:#55744B;}
	.st1{fill:none;stroke:#55744B;stroke-width:1.5;stroke-miterlimit:10;}
	.st2{fill:none;stroke:#55744B;stroke-width:1.5;stroke-miterlimit:10;stroke-dasharray:6.0097,6.0097;}
	.st3{fill:none;stroke:#55744B;stroke-width:1.5;stroke-miterlimit:10;stroke-dasharray:6;}
</style>
<g>
	<circle class="st0" cx="111.5" cy="51.5" r="6.5"/>
</g>
<g>
	<path class="st0" d="M78.52,32.81c0.15,0.43,0.28,0.92,0.4,1.45c0.12,0.53,0.16,0.97,0.12,1.3l1.62-0.1l-0.05,1.1h-5.42l0.02-0.83
		c1-0.02,1.5-0.43,1.5-1.25c0-0.28-0.07-0.66-0.2-1.12l-0.72-2.35l-6.4,0.15l-1,2.67c-0.25,0.65-0.51,1.23-0.77,1.73l1.88-0.1
		l-0.05,1.1h-4.58l0.02-0.83c0.58-0.02,1.06-0.27,1.44-0.77s0.78-1.28,1.21-2.35l5.65-14.02h0.55L78.52,32.81z M72.84,22.06
		l-1.05,2.8c-0.2,0.48-0.71,1.82-1.53,4l-0.47,1.23h5.72c-0.95-2.98-1.82-5.66-2.62-8.02H72.84z"/>
	<path class="st0" d="M91.71,24.17c0.33,0.26,0.49,0.61,0.49,1.06c0,0.32-0.11,0.6-0.32,0.84c-0.22,0.24-0.49,0.36-0.83,0.36
		c-0.3,0-0.56-0.09-0.77-0.27c-0.22-0.18-0.34-0.44-0.38-0.77c-0.07-0.02-0.16-0.03-0.27-0.03c-0.7,0-1.38,0.56-2.05,1.68
		s-1.21,2.48-1.62,4.07c-0.42,1.6-0.62,3.06-0.62,4.38c0,0.15,0.02,0.51,0.05,1.08h-2.08c-0.02-0.15-0.02-0.37-0.02-0.65
		c0-1.02,0.13-2.73,0.4-5.12l0.33-2.9c0.1-0.87,0.15-1.44,0.15-1.73c0-0.35-0.05-0.62-0.14-0.83c-0.09-0.2-0.27-0.3-0.54-0.3
		c-0.32,0-0.64,0.2-0.98,0.6c-0.33,0.4-0.62,1.01-0.85,1.82l-0.7-0.15c0.08-0.47,0.26-0.98,0.54-1.52c0.27-0.55,0.64-1.02,1.1-1.41
		c0.46-0.39,1-0.59,1.61-0.59c0.65,0,1.12,0.21,1.4,0.62c0.28,0.42,0.42,1.02,0.42,1.8c0,0.77-0.12,1.77-0.38,3.02h0.08
		c0.68-2.02,1.42-3.43,2.2-4.24c0.78-0.81,1.62-1.21,2.52-1.21C90.96,23.78,91.38,23.91,91.71,24.17z"/>
	<path class="st0" d="M97.03,24.48c0.36,0.47,0.54,1.1,0.54,1.9c0,0.65-0.14,1.79-0.42,3.42c-0.17,1.05-0.3,1.93-0.39,2.64
		s-0.14,1.4-0.14,2.09c0,0.7,0.26,1.05,0.77,1.05c0.32,0,0.64-0.2,0.98-0.6c0.33-0.4,0.62-1.01,0.85-1.82l0.7,0.15
		c-0.2,0.9-0.56,1.71-1.07,2.44c-0.52,0.73-1.19,1.09-2.03,1.09c-1.5,0-2.25-0.78-2.25-2.35c0-0.65,0.04-1.28,0.12-1.9
		c0.08-0.62,0.21-1.38,0.38-2.3c0.17-1.02,0.29-1.8,0.36-2.36c0.07-0.56,0.11-1.15,0.11-1.76c0-0.28-0.05-0.54-0.16-0.77
		s-0.29-0.35-0.54-0.35c-0.32,0-0.64,0.2-0.98,0.6c-0.33,0.4-0.62,1.01-0.85,1.82l-0.7-0.15c0.15-0.82,0.49-1.61,1.03-2.38
		c0.53-0.77,1.24-1.15,2.12-1.15C96.15,23.78,96.67,24.02,97.03,24.48z M97.84,18.78c0.25,0.27,0.38,0.61,0.38,1.02
		c0,0.42-0.13,0.75-0.4,1.01s-0.58,0.39-0.95,0.39c-0.37,0-0.68-0.13-0.94-0.39c-0.26-0.26-0.39-0.6-0.39-1.01
		c0-0.42,0.13-0.76,0.4-1.02s0.58-0.4,0.95-0.4C97.28,18.38,97.59,18.52,97.84,18.78z"/>
	<path class="st0" d="M111.02,24.46l-1.12,1.38c-1.85,2.27-3.15,3.88-3.9,4.85l-0.75,0.95c-1.32,1.7-2.3,2.99-2.95,3.88h0.03
		c0.38-0.45,0.8-0.78,1.26-0.99c0.46-0.21,1-0.31,1.61-0.31c0.27,0,0.56,0.05,0.89,0.14c0.33,0.09,0.64,0.19,0.94,0.29
		c0.37,0.13,0.67,0.23,0.91,0.3c0.24,0.07,0.48,0.1,0.71,0.1c0.92,0,1.38-0.45,1.38-1.35c0-0.3-0.06-0.62-0.17-0.95l0.67-0.22
		c0.2,0.57,0.3,1.12,0.3,1.65c0,0.78-0.25,1.42-0.76,1.92c-0.51,0.5-1.13,0.75-1.86,0.75c-0.33,0-0.67-0.04-1.01-0.11
		c-0.34-0.08-0.75-0.19-1.21-0.34c-0.47-0.15-0.87-0.26-1.21-0.34c-0.34-0.07-0.67-0.11-0.99-0.11c-0.42,0-0.8,0.06-1.16,0.19
		s-0.73,0.36-1.11,0.71l-0.8-0.62c1.13-1.67,2.76-3.88,4.88-6.65c0.9-1.18,2.07-2.64,3.5-4.38h-0.05c-0.63,0.68-1.32,1.02-2.07,1.02
		l-0.28-0.02c-0.22-0.02-0.45-0.06-0.69-0.12c-0.24-0.07-0.47-0.14-0.69-0.23c-0.33-0.12-0.62-0.2-0.85-0.26
		c-0.23-0.06-0.48-0.09-0.73-0.09c-0.37,0-0.69,0.11-0.96,0.33c-0.28,0.22-0.41,0.59-0.41,1.12c0,0.3,0.06,0.62,0.17,0.95
		l-0.67,0.22c-0.22-0.62-0.33-1.17-0.33-1.65c0-0.78,0.26-1.42,0.79-1.92s1.16-0.75,1.91-0.75c0.33,0,0.64,0.03,0.91,0.1
		c0.27,0.07,0.6,0.17,0.99,0.3c0.38,0.13,0.71,0.23,0.99,0.3c0.28,0.07,0.58,0.1,0.91,0.1c0.32,0,0.68-0.06,1.09-0.17
		s0.8-0.33,1.16-0.65L111.02,24.46z"/>
	<path class="st0" d="M121.6,24.43c0.73,0.43,1.29,1.06,1.7,1.89c0.41,0.82,0.61,1.8,0.61,2.94c0,1.37-0.25,2.62-0.74,3.77
		c-0.49,1.15-1.2,2.07-2.12,2.76c-0.93,0.69-2.01,1.04-3.26,1.04c-1.58,0-2.78-0.52-3.59-1.56c-0.81-1.04-1.21-2.39-1.21-4.04
		c0-1.37,0.25-2.62,0.75-3.75c0.5-1.13,1.22-2.03,2.15-2.7c0.93-0.67,2.02-1,3.27-1C120.07,23.78,120.88,24,121.6,24.43z
		 M116.85,25.5c-0.54,0.52-0.95,1.24-1.24,2.15c-0.28,0.91-0.43,1.92-0.43,3.04c0,1.38,0.23,2.6,0.68,3.64
		c0.45,1.04,1.18,1.56,2.2,1.56c0.85,0,1.55-0.33,2.09-0.98c0.54-0.65,0.94-1.45,1.19-2.4c0.25-0.95,0.38-1.88,0.38-2.78
		c0-1.4-0.22-2.59-0.66-3.56c-0.44-0.97-1.2-1.46-2.29-1.46C118.03,24.71,117.4,24.97,116.85,25.5z"/>
	<path class="st0" d="M137,24.68c0.44,0.6,0.66,1.38,0.66,2.35c0,1.12-0.16,2.72-0.48,4.8c-0.18,1.32-0.27,2.18-0.27,2.6
		c0,0.37,0.05,0.65,0.14,0.85c0.09,0.2,0.27,0.3,0.54,0.3c0.32,0,0.64-0.2,0.98-0.59s0.62-1,0.85-1.84l0.7,0.17
		c-0.08,0.47-0.26,0.97-0.54,1.51s-0.64,1.01-1.1,1.4c-0.46,0.39-1,0.59-1.61,0.59c-0.75,0-1.28-0.2-1.58-0.59s-0.45-1-0.45-1.81
		c0-0.62,0.11-1.72,0.33-3.3c0.3-2.03,0.45-3.58,0.45-4.65c0-0.38-0.09-0.73-0.26-1.05c-0.17-0.32-0.48-0.48-0.91-0.48
		c-0.73,0-1.48,0.55-2.25,1.66s-1.4,2.48-1.91,4.1s-0.76,3.13-0.76,4.51c0,0.32,0.02,0.76,0.05,1.33h-2.1
		c-0.02-0.15-0.02-0.37-0.02-0.65c0-0.4,0.04-0.96,0.11-1.68c0.07-0.72,0.19-1.66,0.34-2.82c0-0.1,0.02-0.27,0.05-0.5
		c0.02-0.22,0.04-0.44,0.08-0.68c0.03-0.23,0.06-0.47,0.07-0.7c0.12-1.02,0.2-1.76,0.25-2.23c0.05-0.47,0.08-0.85,0.08-1.15
		c0-0.35-0.05-0.62-0.14-0.83c-0.09-0.2-0.27-0.3-0.54-0.3c-0.32,0-0.64,0.2-0.98,0.6c-0.33,0.4-0.62,1.01-0.85,1.82l-0.7-0.15
		c0.08-0.47,0.26-0.98,0.54-1.52c0.27-0.55,0.64-1.02,1.1-1.41c0.46-0.39,1-0.59,1.61-0.59c1.25,0,1.88,0.86,1.88,2.57
		c0,0.48-0.05,1.01-0.14,1.59c-0.09,0.57-0.18,1.09-0.26,1.54h0.08c0.8-2.13,1.6-3.62,2.39-4.45s1.64-1.25,2.54-1.25
		C135.88,23.78,136.56,24.08,137,24.68z"/>
	<path class="st0" d="M151.99,24.21c-0.73,5.43-1.1,8.77-1.1,10c0,0.43,0.04,0.77,0.12,1.01c0.08,0.24,0.27,0.36,0.57,0.36
		c0.32,0,0.64-0.2,0.98-0.6c0.33-0.4,0.62-1.01,0.85-1.82l0.7,0.15c-0.08,0.47-0.26,0.98-0.54,1.52c-0.27,0.55-0.64,1.02-1.1,1.41
		c-0.46,0.39-1,0.59-1.61,0.59c-1.23,0-1.85-0.75-1.85-2.25c0-0.73,0.15-1.85,0.45-3.35h-0.07c-0.7,2.2-1.47,3.68-2.3,4.45
		s-1.69,1.15-2.57,1.15c-0.97,0-1.74-0.35-2.31-1.05c-0.58-0.7-0.86-1.8-0.86-3.3c0-1.6,0.28-3.06,0.83-4.38
		c0.55-1.32,1.38-2.37,2.48-3.15c1.1-0.78,2.43-1.17,4-1.17C149.78,23.78,150.89,23.93,151.99,24.21z M145.42,25.72
		c-0.67,0.69-1.16,1.6-1.49,2.73c-0.33,1.12-0.49,2.33-0.49,3.61c0,2.45,0.54,3.67,1.62,3.67c0.73,0,1.47-0.57,2.2-1.72
		c0.73-1.15,1.34-2.57,1.82-4.26c0.48-1.69,0.73-3.28,0.73-4.76c-0.5-0.2-1.15-0.3-1.95-0.3C146.9,24.68,146.08,25.03,145.42,25.72z
		"/>
</g>
<g>
	<circle class="st0" cx="743.5" cy="126.5" r="6.5"/>
</g>
<g>
	<path class="st0" d="M665.56,139.95c0.76,0.19,1.44,0.52,2.04,0.99l-0.05-1.08h1.28l-0.28,5.5h-0.9c-0.02-1.32-0.38-2.43-1.1-3.34
		c-0.72-0.91-1.76-1.36-3.12-1.36c-1.03,0-1.86,0.3-2.47,0.91c-0.62,0.61-0.93,1.35-0.93,2.21c0,0.63,0.18,1.18,0.55,1.64
		c0.37,0.46,0.82,0.85,1.35,1.16c0.53,0.32,1.27,0.69,2.2,1.12c1.07,0.48,1.93,0.93,2.6,1.34c0.67,0.41,1.23,0.93,1.69,1.56
		c0.46,0.63,0.69,1.41,0.69,2.33c0,0.98-0.24,1.85-0.73,2.61c-0.48,0.76-1.18,1.35-2.1,1.78c-0.92,0.42-2.01,0.64-3.27,0.64
		c-0.77,0-1.55-0.08-2.34-0.25c-0.79-0.17-1.47-0.44-2.04-0.82l0.08,0.88h-1.3l0.12-5.33h0.98c0.02,1.48,0.45,2.6,1.3,3.35
		s1.97,1.12,3.38,1.12c1.07,0,1.97-0.29,2.71-0.88c0.74-0.58,1.11-1.39,1.11-2.43c0-0.7-0.19-1.3-0.58-1.8s-0.85-0.92-1.4-1.25
		c-0.55-0.33-1.31-0.73-2.27-1.2c-1.03-0.48-1.86-0.92-2.49-1.3c-0.62-0.38-1.15-0.88-1.59-1.48s-0.65-1.33-0.65-2.2
		c0-0.67,0.16-1.36,0.48-2.09c0.32-0.72,0.87-1.35,1.66-1.86c0.79-0.52,1.85-0.77,3.16-0.77
		C664.05,139.66,664.8,139.75,665.56,139.95z"/>
	<path class="st0" d="M679.92,145.48c0.67,0.47,1,1.19,1,2.18c0,1.23-0.74,2.19-2.22,2.88c-1.48,0.68-3.2,1.13-5.15,1.35
		c0,1.57,0.23,2.74,0.7,3.52c0.47,0.78,1.18,1.17,2.15,1.17c0.77,0,1.51-0.25,2.23-0.76c0.72-0.51,1.34-1.26,1.88-2.26l0.83,0.48
		c-0.7,1.32-1.48,2.28-2.35,2.89c-0.87,0.61-1.87,0.91-3,0.91c-1.53,0-2.69-0.48-3.46-1.44c-0.78-0.96-1.16-2.28-1.16-3.96
		c0-1.35,0.23-2.6,0.69-3.76c0.46-1.16,1.14-2.1,2.06-2.81c0.92-0.72,2.02-1.07,3.32-1.07
		C678.42,144.78,679.25,145.02,679.92,145.48z M674.59,147.18c-0.58,1.03-0.93,2.3-1.03,3.8c1.45-0.2,2.69-0.6,3.72-1.2
		s1.55-1.35,1.55-2.25c0-0.55-0.15-1-0.46-1.36c-0.31-0.36-0.75-0.54-1.31-0.54C676,145.63,675.18,146.15,674.59,147.18z"/>
	<path class="st0" d="M693.87,145.21c-0.73,5.43-1.1,8.77-1.1,10c0,0.43,0.04,0.77,0.12,1.01c0.08,0.24,0.28,0.36,0.58,0.36
		c0.32,0,0.64-0.2,0.98-0.6c0.33-0.4,0.62-1.01,0.85-1.82l0.7,0.15c-0.08,0.47-0.26,0.98-0.54,1.52c-0.27,0.55-0.64,1.02-1.1,1.41
		c-0.46,0.39-1,0.59-1.61,0.59c-1.23,0-1.85-0.75-1.85-2.25c0-0.73,0.15-1.85,0.45-3.35h-0.08c-0.7,2.2-1.47,3.68-2.3,4.45
		s-1.69,1.15-2.58,1.15c-0.97,0-1.74-0.35-2.31-1.05c-0.57-0.7-0.86-1.8-0.86-3.3c0-1.6,0.28-3.06,0.83-4.38
		c0.55-1.32,1.38-2.37,2.47-3.15c1.1-0.78,2.43-1.17,4-1.17C691.65,144.78,692.77,144.93,693.87,145.21z M687.29,146.72
		c-0.67,0.69-1.16,1.6-1.49,2.73s-0.49,2.33-0.49,3.61c0,2.45,0.54,3.67,1.62,3.67c0.73,0,1.47-0.57,2.2-1.72
		c0.73-1.15,1.34-2.57,1.83-4.26c0.48-1.69,0.73-3.28,0.73-4.76c-0.5-0.2-1.15-0.3-1.95-0.3
		C688.78,145.68,687.96,146.03,687.29,146.72z"/>
	<path class="st0" d="M700.97,145.06h3.98l-0.08,0.95l-4,0.05l-0.17,1.6c-0.37,3.17-0.55,5.41-0.55,6.73c0,0.65,0.08,1.17,0.22,1.57
		c0.15,0.4,0.47,0.6,0.95,0.6c0.87,0,1.65-0.58,2.35-1.75l0.65,0.42c-0.52,0.88-1.05,1.54-1.61,1.96c-0.56,0.42-1.22,0.64-1.99,0.64
		c-0.92,0-1.58-0.27-1.99-0.82c-0.41-0.55-0.61-1.26-0.61-2.12c0-0.97,0.06-2.24,0.18-3.81c0.12-1.58,0.28-3.24,0.47-4.99
		l-2.22,0.02l0.07-1.05c1,0,1.81-0.3,2.43-0.89c0.62-0.59,1.09-1.47,1.42-2.64h0.95L700.97,145.06z"/>
	<path class="st0" d="M710.07,145.06h3.97l-0.08,0.95l-4,0.05l-0.17,1.6c-0.37,3.17-0.55,5.41-0.55,6.73c0,0.65,0.08,1.17,0.23,1.57
		s0.47,0.6,0.95,0.6c0.87,0,1.65-0.58,2.35-1.75l0.65,0.42c-0.52,0.88-1.05,1.54-1.61,1.96c-0.56,0.42-1.22,0.64-1.99,0.64
		c-0.92,0-1.58-0.27-1.99-0.82c-0.41-0.55-0.61-1.26-0.61-2.12c0-0.97,0.06-2.24,0.17-3.81c0.12-1.58,0.28-3.24,0.47-4.99
		l-2.22,0.02l0.08-1.05c1,0,1.81-0.3,2.42-0.89c0.62-0.59,1.09-1.47,1.43-2.64h0.95L710.07,145.06z"/>
	<path class="st0" d="M719.27,140.46c-0.2,1.17-0.33,1.99-0.38,2.48c-0.27,1.95-0.52,4.21-0.76,6.79c-0.24,2.57-0.36,4.43-0.36,5.56
		c0,0.42,0.04,0.74,0.12,0.96c0.08,0.23,0.27,0.34,0.55,0.34c0.32,0,0.64-0.2,0.98-0.59c0.33-0.39,0.62-1,0.85-1.84l0.7,0.17
		c-0.08,0.47-0.26,0.97-0.52,1.51s-0.63,1.01-1.09,1.4c-0.46,0.39-1,0.59-1.61,0.59c-0.7,0-1.21-0.18-1.53-0.55
		c-0.32-0.37-0.47-0.93-0.47-1.68c0-1.1,0.15-3.12,0.44-6.07c0.29-2.95,0.6-5.59,0.91-7.93l0.23-1.35l-1.77,0.1l0.12-1
		c0.98,0,1.69-0.06,2.12-0.17c0.43-0.12,0.78-0.28,1.05-0.5h0.7L719.27,140.46z"/>
	<path class="st0" d="M730.82,145.48c0.67,0.47,1,1.19,1,2.18c0,1.23-0.74,2.19-2.22,2.88c-1.48,0.68-3.2,1.13-5.15,1.35
		c0,1.57,0.23,2.74,0.7,3.52c0.47,0.78,1.18,1.17,2.15,1.17c0.77,0,1.51-0.25,2.23-0.76c0.72-0.51,1.34-1.26,1.88-2.26l0.82,0.48
		c-0.7,1.32-1.48,2.28-2.35,2.89c-0.87,0.61-1.87,0.91-3,0.91c-1.53,0-2.69-0.48-3.46-1.44c-0.78-0.96-1.16-2.28-1.16-3.96
		c0-1.35,0.23-2.6,0.69-3.76c0.46-1.16,1.15-2.1,2.06-2.81c0.92-0.72,2.03-1.07,3.32-1.07
		C729.32,144.78,730.15,145.02,730.82,145.48z M725.49,147.18c-0.58,1.03-0.93,2.3-1.03,3.8c1.45-0.2,2.69-0.6,3.72-1.2
		s1.55-1.35,1.55-2.25c0-0.55-0.15-1-0.46-1.36c-0.31-0.36-0.75-0.54-1.31-0.54C726.9,145.63,726.08,146.15,725.49,147.18z"/>
</g>
<g>
	<circle class="st0" cx="157.5" cy="311.5" r="6.5"/>
</g>
<g>
	<path class="st0" d="M179.19,326.06c1,0.7,1.45,1.77,1.35,3.23c-0.05,0.88-0.44,1.69-1.18,2.42c-0.73,0.73-1.76,1.22-3.07,1.45
		v0.05c1.7,0,3,0.38,3.89,1.12s1.34,1.76,1.34,3.02c0,1.07-0.26,1.99-0.79,2.78c-0.53,0.78-1.25,1.38-2.16,1.8
		c-0.92,0.42-1.96,0.62-3.12,0.62h-7.23l0.05-0.83c0.58-0.02,1-0.15,1.26-0.4c0.26-0.25,0.42-0.55,0.48-0.91
		c0.06-0.36,0.11-0.99,0.16-1.89l0.55-10.5c0.02-0.78,0.08-1.44,0.17-1.98l-1.82,0.1l0.07-1.1c1.18,0,2.07-0.01,2.65-0.02l2.92-0.02
		C176.7,325.01,178.19,325.36,179.19,326.06z M172.49,333.96l-0.3,5.62c-0.05,0.93-0.11,1.58-0.18,1.95
		c0.32,0.03,0.92,0.05,1.8,0.05h0.85c1.38,0,2.48-0.35,3.29-1.05c0.81-0.7,1.21-1.71,1.21-3.02c0-1.27-0.38-2.19-1.14-2.76
		c-0.76-0.58-1.75-0.86-2.96-0.86C174.15,333.88,173.29,333.91,172.49,333.96z M173.58,326.13c-0.27,0.15-0.47,0.39-0.57,0.72
		c-0.11,0.33-0.18,0.83-0.21,1.48l-0.25,4.65c0.48,0,1.09-0.02,1.82-0.05c1.37-0.05,2.37-0.45,3.01-1.21
		c0.64-0.76,0.96-1.68,0.96-2.76c0-1.13-0.35-1.92-1.04-2.38c-0.69-0.45-1.53-0.67-2.51-0.67
		C174.26,325.91,173.86,325.98,173.58,326.13z"/>
	<path class="st0" d="M194.27,330.21c-0.73,5.43-1.1,8.77-1.1,10c0,0.43,0.04,0.77,0.12,1.01c0.08,0.24,0.27,0.36,0.57,0.36
		c0.32,0,0.64-0.2,0.98-0.6c0.33-0.4,0.62-1.01,0.85-1.82l0.7,0.15c-0.08,0.47-0.26,0.98-0.54,1.52c-0.27,0.55-0.64,1.02-1.1,1.41
		c-0.46,0.39-1,0.59-1.61,0.59c-1.23,0-1.85-0.75-1.85-2.25c0-0.73,0.15-1.85,0.45-3.35h-0.07c-0.7,2.2-1.47,3.68-2.3,4.45
		s-1.69,1.15-2.57,1.15c-0.97,0-1.74-0.35-2.31-1.05c-0.58-0.7-0.86-1.8-0.86-3.3c0-1.6,0.28-3.06,0.83-4.38
		c0.55-1.32,1.38-2.37,2.48-3.15c1.1-0.78,2.43-1.17,4-1.17C192.05,329.78,193.17,329.93,194.27,330.21z M187.69,331.72
		c-0.67,0.69-1.16,1.6-1.49,2.73c-0.33,1.12-0.49,2.33-0.49,3.61c0,2.45,0.54,3.67,1.62,3.67c0.73,0,1.47-0.57,2.2-1.72
		c0.73-1.15,1.34-2.57,1.82-4.26c0.48-1.69,0.73-3.28,0.73-4.76c-0.5-0.2-1.15-0.3-1.95-0.3
		C189.18,330.68,188.36,331.03,187.69,331.72z"/>
	<path class="st0" d="M201.47,325.46c-0.2,1.17-0.33,1.99-0.38,2.48c-0.27,1.95-0.52,4.21-0.76,6.79c-0.24,2.57-0.36,4.43-0.36,5.56
		c0,0.42,0.04,0.74,0.12,0.96c0.08,0.23,0.27,0.34,0.55,0.34c0.32,0,0.64-0.2,0.98-0.59c0.33-0.39,0.62-1,0.85-1.84l0.7,0.17
		c-0.08,0.47-0.26,0.97-0.52,1.51s-0.63,1.01-1.09,1.4c-0.46,0.39-1,0.59-1.61,0.59c-0.7,0-1.21-0.18-1.52-0.55
		c-0.32-0.37-0.48-0.93-0.48-1.68c0-1.1,0.15-3.12,0.44-6.07c0.29-2.95,0.6-5.59,0.91-7.93l0.23-1.35l-1.77,0.1l0.12-1
		c0.98,0,1.69-0.06,2.12-0.17c0.43-0.12,0.78-0.28,1.05-0.5h0.7L201.47,325.46z"/>
	<path class="st0" d="M208.44,330.06h3.98l-0.08,0.95l-4,0.05l-0.17,1.6c-0.37,3.17-0.55,5.41-0.55,6.73c0,0.65,0.08,1.17,0.23,1.57
		s0.47,0.6,0.95,0.6c0.87,0,1.65-0.58,2.35-1.75l0.65,0.42c-0.52,0.88-1.05,1.54-1.61,1.96c-0.56,0.42-1.22,0.64-1.99,0.64
		c-0.92,0-1.58-0.27-1.99-0.82c-0.41-0.55-0.61-1.26-0.61-2.12c0-0.97,0.06-2.24,0.17-3.81c0.12-1.58,0.28-3.24,0.48-4.99
		l-2.23,0.02l0.08-1.05c1,0,1.81-0.3,2.42-0.89c0.62-0.59,1.09-1.47,1.43-2.64h0.95L208.44,330.06z"/>
	<path class="st0" d="M217.46,330.48c0.36,0.47,0.54,1.1,0.54,1.9c0,0.65-0.14,1.79-0.42,3.42c-0.17,1.05-0.3,1.93-0.39,2.64
		s-0.14,1.4-0.14,2.09c0,0.7,0.26,1.05,0.77,1.05c0.32,0,0.64-0.2,0.98-0.6c0.33-0.4,0.62-1.01,0.85-1.82l0.7,0.15
		c-0.2,0.9-0.56,1.71-1.07,2.44c-0.52,0.73-1.19,1.09-2.03,1.09c-1.5,0-2.25-0.78-2.25-2.35c0-0.65,0.04-1.28,0.12-1.9
		c0.08-0.62,0.21-1.38,0.38-2.3c0.17-1.02,0.29-1.8,0.36-2.36c0.07-0.56,0.11-1.15,0.11-1.76c0-0.28-0.05-0.54-0.16-0.77
		s-0.29-0.35-0.54-0.35c-0.32,0-0.64,0.2-0.98,0.6c-0.33,0.4-0.62,1.01-0.85,1.82l-0.7-0.15c0.15-0.82,0.49-1.61,1.03-2.38
		c0.53-0.77,1.24-1.15,2.12-1.15C216.58,329.78,217.1,330.02,217.46,330.48z M218.27,324.78c0.25,0.27,0.38,0.61,0.38,1.02
		c0,0.42-0.13,0.75-0.4,1.01s-0.58,0.39-0.95,0.39c-0.37,0-0.68-0.13-0.94-0.39c-0.26-0.26-0.39-0.6-0.39-1.01
		c0-0.42,0.13-0.76,0.4-1.02s0.58-0.4,0.95-0.4C217.7,324.38,218.02,324.52,218.27,324.78z"/>
	<path class="st0" d="M239.25,330.68c0.41,0.6,0.61,1.38,0.61,2.35c0,0.7-0.04,1.4-0.12,2.11c-0.08,0.71-0.21,1.6-0.38,2.69
		c-0.22,1.33-0.33,2.2-0.33,2.6c0,0.37,0.05,0.65,0.14,0.85c0.09,0.2,0.27,0.3,0.54,0.3c0.32,0,0.65-0.2,0.99-0.59
		c0.34-0.39,0.63-1,0.86-1.84l0.7,0.17c-0.08,0.47-0.26,0.97-0.54,1.51s-0.65,1.01-1.11,1.4c-0.47,0.39-1.01,0.59-1.62,0.59
		c-0.75,0-1.27-0.2-1.56-0.59c-0.29-0.39-0.44-1-0.44-1.81c0-0.68,0.13-1.78,0.4-3.3c0.02-0.15,0.07-0.56,0.17-1.24
		c0.1-0.67,0.18-1.3,0.24-1.88c0.06-0.57,0.09-1.09,0.09-1.54c0-0.38-0.09-0.73-0.27-1.05c-0.18-0.32-0.49-0.48-0.93-0.48
		c-0.75,0-1.48,0.55-2.19,1.65c-0.71,1.1-1.28,2.46-1.73,4.08c-0.44,1.62-0.66,3.13-0.66,4.55c0,0.32,0.02,0.76,0.05,1.33h-2.1
		c-0.02-0.15-0.02-0.37-0.02-0.65c0-0.55,0.05-1.28,0.15-2.2c0.1-0.92,0.21-1.82,0.33-2.73c0.28-2.17,0.42-3.64,0.42-4.42
		c0-1.07-0.4-1.6-1.2-1.6c-0.73,0-1.45,0.55-2.16,1.65c-0.71,1.1-1.29,2.46-1.74,4.09c-0.45,1.62-0.67,3.14-0.67,4.54
		c0,0.32,0.02,0.76,0.05,1.33h-2.1c-0.02-0.15-0.03-0.37-0.03-0.65c0-0.42,0.04-1.02,0.11-1.81c0.07-0.79,0.2-1.85,0.36-3.19
		l0.3-2.6c0.07-0.58,0.12-1.03,0.15-1.34c0.03-0.31,0.05-0.58,0.05-0.81c0-0.35-0.05-0.62-0.14-0.83c-0.09-0.2-0.27-0.3-0.54-0.3
		c-0.32,0-0.64,0.2-0.98,0.6c-0.33,0.4-0.62,1.01-0.85,1.82l-0.7-0.15c0.08-0.47,0.26-0.98,0.54-1.52c0.28-0.55,0.64-1.02,1.1-1.41
		s1-0.59,1.61-0.59c1.25,0,1.88,0.83,1.88,2.5c0,0.47-0.05,0.98-0.14,1.55c-0.09,0.57-0.18,1.08-0.26,1.52h0.08
		c0.72-2.08,1.46-3.53,2.23-4.35c0.77-0.82,1.55-1.23,2.35-1.23c0.92,0,1.59,0.29,2.02,0.88c0.43,0.58,0.65,1.24,0.65,1.98
		c0,0.43-0.02,0.8-0.08,1.09c-0.05,0.29-0.17,0.81-0.35,1.56h0.07c0.75-2.08,1.52-3.52,2.3-4.31c0.78-0.79,1.57-1.19,2.38-1.19
		C238.18,329.78,238.85,330.08,239.25,330.68z"/>
	<path class="st0" d="M252.15,330.43c0.73,0.43,1.29,1.06,1.7,1.89c0.41,0.82,0.61,1.8,0.61,2.94c0,1.37-0.25,2.62-0.74,3.77
		c-0.49,1.15-1.2,2.07-2.12,2.76c-0.93,0.69-2.01,1.04-3.26,1.04c-1.58,0-2.78-0.52-3.59-1.56c-0.81-1.04-1.21-2.39-1.21-4.04
		c0-1.37,0.25-2.62,0.75-3.75c0.5-1.13,1.22-2.03,2.15-2.7c0.93-0.67,2.02-1,3.27-1C250.62,329.78,251.43,330,252.15,330.43z
		 M247.4,331.5c-0.54,0.52-0.95,1.24-1.24,2.15c-0.28,0.91-0.43,1.92-0.43,3.04c0,1.38,0.23,2.6,0.68,3.64
		c0.45,1.04,1.18,1.56,2.2,1.56c0.85,0,1.55-0.33,2.09-0.98c0.54-0.65,0.94-1.45,1.19-2.4c0.25-0.95,0.38-1.88,0.38-2.78
		c0-1.4-0.22-2.59-0.66-3.56c-0.44-0.97-1.2-1.46-2.29-1.46C248.58,330.71,247.95,330.97,247.4,331.5z"/>
	<path class="st0" d="M266.53,330.17c0.33,0.26,0.49,0.61,0.49,1.06c0,0.32-0.11,0.6-0.32,0.84c-0.22,0.24-0.49,0.36-0.83,0.36
		c-0.3,0-0.56-0.09-0.77-0.27c-0.22-0.18-0.34-0.44-0.38-0.77c-0.07-0.02-0.16-0.03-0.27-0.03c-0.7,0-1.38,0.56-2.05,1.68
		s-1.21,2.48-1.62,4.07c-0.42,1.6-0.62,3.06-0.62,4.38c0,0.15,0.02,0.51,0.05,1.08h-2.08c-0.02-0.15-0.02-0.37-0.02-0.65
		c0-1.02,0.13-2.73,0.4-5.12l0.33-2.9c0.1-0.87,0.15-1.44,0.15-1.73c0-0.35-0.05-0.62-0.14-0.83c-0.09-0.2-0.27-0.3-0.54-0.3
		c-0.32,0-0.64,0.2-0.98,0.6c-0.33,0.4-0.62,1.01-0.85,1.82l-0.7-0.15c0.08-0.47,0.26-0.98,0.54-1.52c0.27-0.55,0.64-1.02,1.1-1.41
		c0.46-0.39,1-0.59,1.61-0.59c0.65,0,1.12,0.21,1.4,0.62c0.28,0.42,0.42,1.02,0.42,1.8c0,0.77-0.12,1.77-0.38,3.02h0.08
		c0.68-2.02,1.42-3.43,2.2-4.24c0.78-0.81,1.62-1.21,2.52-1.21C265.78,329.78,266.2,329.91,266.53,330.17z"/>
	<path class="st0" d="M276.52,330.48c0.67,0.47,1,1.19,1,2.18c0,1.23-0.74,2.19-2.22,2.88c-1.48,0.68-3.2,1.13-5.15,1.35
		c0,1.57,0.23,2.74,0.7,3.52c0.47,0.78,1.18,1.17,2.15,1.17c0.77,0,1.51-0.25,2.23-0.76c0.72-0.51,1.34-1.26,1.88-2.26l0.83,0.48
		c-0.7,1.32-1.48,2.28-2.35,2.89c-0.87,0.61-1.87,0.91-3,0.91c-1.53,0-2.69-0.48-3.46-1.44c-0.78-0.96-1.16-2.28-1.16-3.96
		c0-1.35,0.23-2.6,0.69-3.76c0.46-1.16,1.15-2.1,2.06-2.81c0.92-0.72,2.02-1.07,3.32-1.07
		C275.02,329.78,275.85,330.02,276.52,330.48z M271.19,332.18c-0.58,1.03-0.93,2.3-1.02,3.8c1.45-0.2,2.69-0.6,3.72-1.2
		s1.55-1.35,1.55-2.25c0-0.55-0.15-1-0.46-1.36c-0.31-0.36-0.75-0.54-1.31-0.54C272.6,330.63,271.77,331.15,271.19,332.18z"/>
</g>
<g>
	<circle class="st0" cx="513.5" cy="566.5" r="6.5"/>
</g>
<g>
	<path class="st0" d="M464.69,583.18c1.03,0.75,1.55,1.78,1.55,3.1c0,1.2-0.35,2.28-1.06,3.24c-0.71,0.96-1.97,1.62-3.79,1.99v0.02
		c0.28,0.22,0.55,0.5,0.8,0.84s0.53,0.78,0.85,1.31l1.55,2.67c0.33,0.58,0.61,1.03,0.84,1.34s0.5,0.56,0.84,0.75
		s0.75,0.29,1.25,0.29l-0.05,0.83h-3.05c-0.35-0.28-0.69-0.65-1.01-1.11s-0.68-1.01-1.06-1.66l-1.52-2.67
		c-0.05-0.1-0.17-0.33-0.36-0.67s-0.39-0.67-0.59-0.96c-0.2-0.29-0.4-0.54-0.6-0.74c-0.18,0.02-0.47,0.03-0.85,0.03l-0.98-0.03
		l-0.25,4.85c-0.05,0.95-0.11,1.61-0.18,1.97l1.8-0.1l-0.05,1.1h-5.52l0.05-0.83c0.58-0.02,1-0.15,1.26-0.4s0.42-0.55,0.48-0.9
		c0.06-0.35,0.1-0.94,0.14-1.78l0.57-10.8c0.02-0.57,0.08-1.17,0.18-1.8l-1.83,0.1l0.08-1.1c2.03-0.03,3.54-0.05,4.52-0.05h1.1
		C462.03,582.04,463.66,582.43,464.69,583.18z M458.43,583.28c-0.26,0.22-0.42,0.51-0.5,0.89c-0.07,0.38-0.13,0.93-0.16,1.66
		l-0.27,4.92c0.5,0.03,0.87,0.05,1.1,0.05c3.55,0,5.33-1.45,5.33-4.35c0-1.17-0.35-2.04-1.05-2.62c-0.7-0.58-1.77-0.88-3.23-0.88
		C459.09,582.96,458.69,583.07,458.43,583.28z"/>
	<path class="st0" d="M472.73,587.48c0.36,0.47,0.54,1.1,0.54,1.9c0,0.65-0.14,1.79-0.42,3.42c-0.17,1.05-0.3,1.93-0.39,2.64
		s-0.14,1.4-0.14,2.09c0,0.7,0.26,1.05,0.77,1.05c0.32,0,0.64-0.2,0.98-0.6c0.33-0.4,0.62-1.01,0.85-1.83l0.7,0.15
		c-0.2,0.9-0.56,1.71-1.07,2.44c-0.52,0.72-1.19,1.09-2.03,1.09c-1.5,0-2.25-0.78-2.25-2.35c0-0.65,0.04-1.28,0.12-1.9
		c0.08-0.62,0.21-1.38,0.38-2.3c0.17-1.02,0.29-1.8,0.36-2.36c0.07-0.56,0.11-1.15,0.11-1.76c0-0.28-0.05-0.54-0.16-0.77
		s-0.29-0.35-0.54-0.35c-0.32,0-0.64,0.2-0.98,0.6c-0.33,0.4-0.62,1.01-0.85,1.83l-0.7-0.15c0.15-0.82,0.49-1.61,1.03-2.38
		c0.53-0.77,1.24-1.15,2.12-1.15C471.85,586.78,472.37,587.02,472.73,587.48z M473.54,581.78c0.25,0.27,0.38,0.61,0.38,1.03
		c0,0.42-0.13,0.75-0.4,1.01s-0.58,0.39-0.95,0.39c-0.37,0-0.68-0.13-0.94-0.39c-0.26-0.26-0.39-0.6-0.39-1.01
		c0-0.42,0.13-0.76,0.4-1.03c0.27-0.27,0.58-0.4,0.95-0.4C472.98,581.38,473.29,581.52,473.54,581.78z"/>
	<path class="st0" d="M484.81,587.17c0.58,0.26,1.03,0.61,1.35,1.05c0.33,0.44,0.49,0.94,0.49,1.49c0,0.38-0.1,0.68-0.3,0.9
		c-0.2,0.22-0.47,0.33-0.8,0.33c-0.33,0-0.59-0.11-0.76-0.33c-0.17-0.22-0.26-0.44-0.26-0.67c0-0.4,0.11-0.72,0.32-0.95
		c-0.08-0.45-0.3-0.78-0.66-1c-0.36-0.22-0.8-0.33-1.31-0.33c-1.32,0-2.27,0.62-2.86,1.85c-0.59,1.23-0.89,2.66-0.89,4.27
		c0,1.67,0.27,2.89,0.81,3.66c0.54,0.77,1.29,1.16,2.24,1.16c0.73,0,1.44-0.25,2.12-0.74c0.68-0.49,1.25-1.3,1.7-2.41l0.88,0.42
		c-0.6,1.38-1.34,2.39-2.22,3.01c-0.88,0.62-1.85,0.94-2.9,0.94c-1.52,0-2.7-0.45-3.55-1.36c-0.85-0.91-1.27-2.28-1.27-4.11
		c0-1.17,0.22-2.33,0.66-3.5c0.44-1.17,1.11-2.14,2.01-2.91c0.9-0.78,2-1.16,3.3-1.16C483.59,586.78,484.23,586.91,484.81,587.17z"
		/>
	<path class="st0" d="M492.79,581.93c-0.27,1.6-0.42,2.6-0.48,3c-0.12,0.85-0.25,2.08-0.41,3.69c-0.16,1.61-0.27,2.85-0.34,3.74
		h0.08c0.78-2.12,1.57-3.58,2.36-4.38s1.65-1.2,2.56-1.2c0.93,0,1.62,0.3,2.08,0.91s0.67,1.39,0.67,2.34c0,1.12-0.14,2.72-0.42,4.8
		c-0.18,1.32-0.27,2.18-0.27,2.6c0,0.37,0.05,0.65,0.14,0.85c0.09,0.2,0.27,0.3,0.54,0.3c0.32,0,0.64-0.2,0.98-0.59
		c0.33-0.39,0.62-1,0.85-1.84l0.62,0.18c-0.15,0.8-0.5,1.58-1.04,2.35c-0.54,0.77-1.25,1.15-2.14,1.15c-0.75,0-1.27-0.2-1.57-0.59
		c-0.3-0.39-0.45-1-0.45-1.81c0-0.63,0.11-1.74,0.33-3.33c0.03-0.22,0.11-0.84,0.23-1.86c0.12-1.03,0.17-1.95,0.17-2.76
		c0-0.38-0.09-0.73-0.27-1.05c-0.18-0.32-0.49-0.47-0.93-0.47c-0.72,0-1.45,0.53-2.2,1.6s-1.37,2.4-1.85,4.01s-0.73,3.16-0.73,4.66
		c0,0.32,0.02,0.76,0.05,1.33h-2.05c-0.02-0.15-0.02-0.37-0.02-0.65c0-1.23,0.14-3.64,0.42-7.21s0.56-6.28,0.83-8.11
		c0.03-0.2,0.11-0.64,0.23-1.33l-1.75,0.1l0.1-1c1,0,1.72-0.06,2.15-0.17c0.43-0.12,0.77-0.28,1.02-0.5h0.73L492.79,581.93z"/>
	<path class="st0" d="M520.65,587.68c0.41,0.6,0.61,1.38,0.61,2.35c0,0.7-0.04,1.4-0.12,2.11c-0.08,0.71-0.21,1.6-0.38,2.69
		c-0.22,1.33-0.33,2.2-0.33,2.6c0,0.37,0.05,0.65,0.14,0.85c0.09,0.2,0.27,0.3,0.54,0.3c0.32,0,0.65-0.2,0.99-0.59
		c0.34-0.39,0.63-1,0.86-1.84l0.7,0.18c-0.08,0.47-0.26,0.97-0.54,1.51c-0.27,0.54-0.65,1.01-1.11,1.4s-1.01,0.59-1.62,0.59
		c-0.75,0-1.27-0.2-1.56-0.59c-0.29-0.39-0.44-1-0.44-1.81c0-0.68,0.13-1.78,0.4-3.3c0.02-0.15,0.07-0.56,0.17-1.24
		c0.1-0.68,0.18-1.3,0.24-1.88c0.06-0.58,0.09-1.09,0.09-1.54c0-0.38-0.09-0.73-0.28-1.05s-0.49-0.47-0.93-0.47
		c-0.75,0-1.48,0.55-2.19,1.65c-0.71,1.1-1.28,2.46-1.72,4.08c-0.44,1.62-0.66,3.13-0.66,4.55c0,0.32,0.02,0.76,0.05,1.33h-2.1
		c-0.02-0.15-0.02-0.37-0.02-0.65c0-0.55,0.05-1.28,0.15-2.2c0.1-0.92,0.21-1.83,0.33-2.73c0.28-2.17,0.42-3.64,0.42-4.42
		c0-1.07-0.4-1.6-1.2-1.6c-0.73,0-1.46,0.55-2.16,1.65c-0.71,1.1-1.29,2.46-1.74,4.09c-0.45,1.62-0.67,3.14-0.67,4.54
		c0,0.32,0.02,0.76,0.05,1.33h-2.1c-0.02-0.15-0.03-0.37-0.03-0.65c0-0.42,0.04-1.02,0.11-1.81c0.07-0.79,0.2-1.85,0.36-3.19
		l0.3-2.6c0.07-0.58,0.12-1.03,0.15-1.34c0.03-0.31,0.05-0.58,0.05-0.81c0-0.35-0.04-0.62-0.14-0.82c-0.09-0.2-0.27-0.3-0.54-0.3
		c-0.32,0-0.64,0.2-0.98,0.6c-0.33,0.4-0.62,1.01-0.85,1.83l-0.7-0.15c0.08-0.47,0.26-0.97,0.54-1.53c0.28-0.55,0.64-1.02,1.1-1.41
		c0.46-0.39,1-0.59,1.61-0.59c1.25,0,1.88,0.83,1.88,2.5c0,0.47-0.05,0.98-0.14,1.55c-0.09,0.57-0.18,1.07-0.26,1.52h0.08
		c0.72-2.08,1.46-3.53,2.23-4.35c0.77-0.82,1.55-1.23,2.35-1.23c0.92,0,1.59,0.29,2.03,0.88c0.43,0.58,0.65,1.24,0.65,1.98
		c0,0.43-0.02,0.8-0.08,1.09c-0.05,0.29-0.17,0.81-0.35,1.56h0.07c0.75-2.08,1.52-3.52,2.3-4.31c0.78-0.79,1.57-1.19,2.38-1.19
		C519.58,586.78,520.25,587.08,520.65,587.68z"/>
	<path class="st0" d="M533.55,587.43c0.72,0.43,1.29,1.06,1.7,1.89c0.41,0.83,0.61,1.8,0.61,2.94c0,1.37-0.25,2.62-0.74,3.77
		c-0.49,1.15-1.2,2.07-2.12,2.76c-0.92,0.69-2.01,1.04-3.26,1.04c-1.58,0-2.78-0.52-3.59-1.56c-0.81-1.04-1.21-2.39-1.21-4.04
		c0-1.37,0.25-2.62,0.75-3.75c0.5-1.13,1.22-2.03,2.15-2.7c0.93-0.67,2.03-1,3.28-1C532.02,586.78,532.83,587,533.55,587.43z
		 M528.8,588.5c-0.54,0.53-0.95,1.24-1.24,2.15c-0.28,0.91-0.42,1.92-0.42,3.04c0,1.38,0.22,2.6,0.67,3.64s1.18,1.56,2.2,1.56
		c0.85,0,1.54-0.33,2.09-0.98c0.54-0.65,0.94-1.45,1.19-2.4s0.38-1.88,0.38-2.78c0-1.4-0.22-2.59-0.66-3.56
		c-0.44-0.97-1.2-1.46-2.29-1.46C529.98,587.71,529.35,587.97,528.8,588.5z"/>
	<path class="st0" d="M548.96,587.68c0.44,0.6,0.66,1.38,0.66,2.35c0,1.12-0.16,2.72-0.47,4.8c-0.18,1.32-0.28,2.18-0.28,2.6
		c0,0.37,0.05,0.65,0.14,0.85c0.09,0.2,0.27,0.3,0.54,0.3c0.32,0,0.64-0.2,0.98-0.59c0.33-0.39,0.62-1,0.85-1.84l0.7,0.18
		c-0.08,0.47-0.26,0.97-0.54,1.51c-0.27,0.54-0.64,1.01-1.1,1.4c-0.46,0.39-1,0.59-1.61,0.59c-0.75,0-1.28-0.2-1.58-0.59
		s-0.45-1-0.45-1.81c0-0.62,0.11-1.72,0.33-3.3c0.3-2.03,0.45-3.58,0.45-4.65c0-0.38-0.09-0.73-0.26-1.05s-0.48-0.47-0.91-0.47
		c-0.73,0-1.48,0.55-2.25,1.66c-0.77,1.11-1.4,2.47-1.91,4.1s-0.76,3.13-0.76,4.51c0,0.32,0.02,0.76,0.05,1.33h-2.1
		c-0.02-0.15-0.02-0.37-0.02-0.65c0-0.4,0.04-0.96,0.11-1.67c0.08-0.72,0.19-1.66,0.34-2.83c0-0.1,0.02-0.27,0.05-0.5
		c0.02-0.22,0.04-0.44,0.07-0.67s0.06-0.47,0.08-0.7c0.12-1.02,0.2-1.76,0.25-2.22s0.08-0.85,0.08-1.15c0-0.35-0.05-0.62-0.14-0.82
		c-0.09-0.2-0.27-0.3-0.54-0.3c-0.32,0-0.64,0.2-0.98,0.6c-0.33,0.4-0.62,1.01-0.85,1.83l-0.7-0.15c0.08-0.47,0.26-0.97,0.54-1.53
		c0.27-0.55,0.64-1.02,1.1-1.41c0.46-0.39,1-0.59,1.61-0.59c1.25,0,1.88,0.86,1.88,2.58c0,0.48-0.05,1.01-0.14,1.59
		s-0.18,1.09-0.26,1.54h0.07c0.8-2.13,1.6-3.62,2.39-4.45c0.79-0.83,1.64-1.25,2.54-1.25C547.83,586.78,548.51,587.08,548.96,587.68
		z"/>
	<path class="st0" d="M564.22,584.98l-0.45,3.9c-0.25,2.22-0.43,3.97-0.55,5.25c-0.12,1.28-0.17,2.33-0.17,3.12
		c0,0.43,0.04,0.76,0.12,0.99s0.27,0.34,0.55,0.34c0.32,0,0.64-0.2,0.96-0.6c0.33-0.4,0.6-1.01,0.84-1.83l0.72,0.15
		c-0.08,0.47-0.26,0.97-0.54,1.53c-0.28,0.55-0.64,1.02-1.1,1.41s-1,0.59-1.61,0.59c-0.65,0-1.13-0.2-1.45-0.6
		c-0.32-0.4-0.47-0.95-0.47-1.65c0-0.9,0.12-1.98,0.38-3.23h-0.08c-0.62,2.08-1.33,3.52-2.14,4.3c-0.81,0.78-1.65,1.18-2.54,1.18
		c-1.1,0-1.94-0.45-2.51-1.34s-0.86-2.03-0.86-3.41c0-1.65,0.27-3.1,0.83-4.35c0.55-1.25,1.37-2.22,2.46-2.91s2.42-1.04,3.99-1.04
		c0.53,0,1,0.03,1.4,0.1l0.38-3.1c0.08-0.62,0.17-1.12,0.28-1.52l-1.83,0.1l0.1-1c1,0,1.72-0.06,2.15-0.17
		c0.43-0.12,0.77-0.28,1.02-0.5h0.73C564.55,582.35,564.35,583.78,564.22,584.98z M557.47,588.73c-0.7,0.7-1.21,1.58-1.52,2.64
		c-0.32,1.06-0.48,2.15-0.48,3.29c0,1.23,0.14,2.21,0.41,2.93c0.27,0.72,0.72,1.07,1.34,1.07c0.5,0,1.02-0.29,1.55-0.89
		c0.53-0.59,1.02-1.37,1.45-2.34s0.78-2,1.03-3.1c0.2-0.92,0.41-2.38,0.62-4.4c-0.45-0.17-1.02-0.25-1.7-0.25
		C559.07,587.68,558.17,588.03,557.47,588.73z"/>
</g>
<g>
	<g>
		<path class="st1" d="M116,56c0.81,0.55,1.64,1.1,2.49,1.67"/>
		<path class="st2" d="M123.52,60.95C154.23,80.7,206.25,108.08,274,104c49.84-3,97.61-22.98,100-24c21.82-9.3,23.7-14,49.14-25.95
			C441.01,45.67,476.99,28.78,521,23c23.54-3.09,71.76-8.8,125,15c49.11,21.95,77.48,57.82,90.76,77.95"/>
		<path class="st1" d="M738.4,118.47c0.57,0.88,1.1,1.73,1.6,2.53"/>
	</g>
</g>
<path class="st3" d="M746,132c7.62,18.06,21.39,58.05,10,104c-17.86,72.07-87.81,119.41-149,128c-81.46,11.43-173.49-41.65-218-83
	c-10.08-9.37-32.83-32.16-70-44c-12.06-3.84-39.32-12.17-71-5c-56.53,12.8-83.57,65.1-88,74"/>
<path class="st3" d="M153,316c-5.49,9.39-17.65,33.09-16,65c0.4,7.67,3.14,45.73,33,75c33.12,32.47,77.83,32.79,93,32
	c64.2-3.35,76.41-51.57,137-51c8.58,0.08,48.67,1.42,80,32c35.45,34.6,34.38,81.95,34,91"/>
<g>
</g>
<g>
</g>
<g>
</g>
<g>
</g>
<g>
</g>
<g>
</g>
<g>
</g>
<g>
</g>
<g>
</g>
<g>
</g>
<g>
</g>
<g>
</g>
<g>
</g>
<g>
</g>
<g>
</g>
</svg>
