<?xml version="1.0" encoding="utf-8"?>
<!-- Generator: Adobe Illustrator 22.0.1, SVG Export Plug-In . SVG Version: 6.00 Build 0)  -->
<svg version="1.1" id="Layer_1" xmlns="http://www.w3.org/2000/svg" xmlns:xlink="http://www.w3.org/1999/xlink" x="0px" y="0px"
	 viewBox="0 0 750 412.7" style="enable-background:new 0 0 750 412.7;" xml:space="preserve">
<style type="text/css">
	.st0{fill:#E7E7E7;stroke:#000000;stroke-miterlimit:10;}
	.st1{fill:#E7E7E7;}
</style>
<path class="st0" d="M945.7,161.8h-126c-22.2,0-40.2-18-40.2-40.2V65c0-22.2,18-40.2,40.2-40.2h126c22.2,0,40.2,18,40.2,40.2v56.7
	C985.8,143.8,967.8,161.8,945.7,161.8z"/>
<g>
	<circle class="st1" cx="-788" cy="338.3" r="99.5"/>
	<path d="M-788,239.3c54.6,0,99,44.4,99,99s-44.4,99-99,99s-99-44.4-99-99S-842.6,239.3-788,239.3 M-788,238.3
		c-55.2,0-100,44.8-100,100s44.8,100,100,100c55.2,0,100-44.8,100-100S-732.8,238.3-788,238.3L-788,238.3z"/>
</g>
<g>
	<circle class="st1" cx="-635" cy="513.3" r="191.5"/>
	<path d="M-635,322.3c25.8,0,50.8,5,74.3,15c22.7,9.6,43.2,23.4,60.7,40.9c17.5,17.5,31.3,38,40.9,60.7c10,23.5,15,48.6,15,74.3
		c0,25.8-5,50.8-15,74.3c-9.6,22.7-23.4,43.2-40.9,60.7c-17.5,17.5-38,31.3-60.7,40.9c-23.5,10-48.6,15-74.3,15s-50.8-5-74.3-15
		c-22.7-9.6-43.2-23.4-60.7-40.9c-17.5-17.5-31.3-38-40.9-60.7c-10-23.5-15-48.6-15-74.3c0-25.8,5-50.8,15-74.3
		c9.6-22.7,23.4-43.2,40.9-60.7c17.5-17.5,38-31.3,60.7-40.9C-685.8,327.4-660.8,322.3-635,322.3 M-635,321.3c-106,0-192,86-192,192
		s86,192,192,192s192-86,192-192S-529,321.3-635,321.3L-635,321.3z"/>
</g>
<g>
	<circle class="st1" cx="-246.5" cy="206.8" r="159"/>
	<path d="M-246.5,49.3c42.1,0,81.6,16.4,111.4,46.1c29.7,29.7,46.1,69.3,46.1,111.4s-16.4,81.6-46.1,111.4
		c-29.7,29.7-69.3,46.1-111.4,46.1s-81.6-16.4-111.4-46.1c-29.7-29.7-46.1-69.3-46.1-111.4s16.4-81.6,46.1-111.4
		C-328.1,65.7-288.6,49.3-246.5,49.3 M-246.5,46.3c-88.6,0-160.5,71.9-160.5,160.5s71.9,160.5,160.5,160.5S-86,295.5-86,206.8
		S-157.9,46.3-246.5,46.3L-246.5,46.3z"/>
</g>
<g>
	<circle class="st1" cx="-774" cy="291.3" r="8.5"/>
	<path d="M-774,283.3c4.4,0,8,3.6,8,8c0,4.4-3.6,8-8,8s-8-3.6-8-8C-782,286.9-778.4,283.3-774,283.3 M-774,282.3c-5,0-9,4-9,9
		c0,5,4,9,9,9s9-4,9-9C-765,286.4-769,282.3-774,282.3L-774,282.3z"/>
</g>
<g>
	<circle class="st1" cx="-726" cy="290.3" r="8.5"/>
	<path d="M-726,282.3c4.4,0,8,3.6,8,8c0,4.4-3.6,8-8,8s-8-3.6-8-8C-734,285.9-730.4,282.3-726,282.3 M-726,281.3c-5,0-9,4-9,9
		c0,5,4,9,9,9s9-4,9-9C-717,285.4-721,281.3-726,281.3L-726,281.3z"/>
</g>
<g>
	<polyline class="st0" points="-765.9,293 -714.8,253.8 -629,90.8 -736.5,90.8 -779.5,284.7 	"/>
	<polyline class="st0" points="-717.9,293 -301.5,90.8 -502.5,90.8 -714.8,253.8 -730.4,283.4 	"/>
</g>
<path class="st0" d="M27.7,21.4l0.9,370c0,3.3,2.7,6,6,6h101.8c3.3,0,6-2.7,6-6v-111c0-3.3,2.7-6,6-6h130.4c3.3,0,6-2.7,6-6v-99
	c0-3.3-2.7-6-6-6H101.2c-3.3,0-6,2.7-6,6v173.9c0,3.3-2.7,6-6,6h-2.8c-3.3,0-6-2.7-6-6V153.6c0-3.3,2.7-6,6-6h203.5c3.3,0,6,2.7,6,6
	v126.7c0,3.3-2.7,6-6,6H165c-3.3,0-6,2.7-6,6v99c0,3.3,2.7,6,6,6H400c3.3,0,6-2.7,6-6V250.7c0-3.3-2.7-6-6-6h-50.9c-3.3,0-6-2.7-6-6
	V106.4c0-3.3-2.7-6-6-6H111.4c-3.3,0-6-2.7-6-6v0c0-3.3,2.7-6,6-6h222c3.3,0,6-2.7,6-6V63.5c0-3.2-2.5-5.8-5.6-6l-36.4-2.4
	c-7.7-0.5-7.4-12,0.4-12H364c7,0,8.3,10,1.5,11.8l-6.8,1.8c-2.6,0.7-4.5,3.1-4.5,5.8v58.4c0,1.7,0.7,3.3,1.9,4.4L383,150
	c5,4.6-0.3,12.7-6.5,9.9l-14.7-6.7c-4-1.8-8.5,1.1-8.5,5.5v69.8c0,3.3,2.7,6,6,6H412c3.3,0,6,2.7,6,6v150.8c0,3.3,2.7,6,6,6h150.2
	c2.3,0,4.4-1.3,5.4-3.5l42.2-89.7c0.4-0.8,0.6-1.7,0.6-2.6v-50.9c0-3.3-2.7-6-6-6H547c-3.3,0-6,2.7-6,6v47.8c0,1.7-0.7,3.2-1.9,4.4
	l-33.3,31.3c-3.8,3.6-10.1,0.9-10.1-4.4v-35c0-1.3,0.4-2.5,1.1-3.5l31-43.1c0.7-1,1.1-2.3,1.1-3.5V111.1c0-3.3-2.7-6-6-6h-65.7
	c-3.3,0-6-2.7-6-6v-5.5c0-3.3,2.7-6,6-6h96.2c3.3,0,6,2.7,6,6v127.6c0,3.3,2.7,6,6,6h67.5c3.3,0,6,2.7,6,6V322
	c0,0.9-0.2,1.8-0.6,2.6l-31.2,64.1c-1.9,4,1,8.6,5.4,8.6h103.7c3.3,0,6-2.7,6-6V188.8c0-3.3-2.7-6-6-6H614.6c-3.3,0-6-2.7-6-6v-14.3
	c0-2.3,1.3-4.4,3.4-5.4L718,105.8c2.1-1,3.4-3.1,3.4-5.4v-79c0-3.3-2.7-6-6-6h-98.3c-1.9,0-3.7,0.9-4.8,2.4l-38.9,51.6
	c-1.1,1.5-2.9,2.4-4.8,2.4H459.7c-4.8,0-7.7-5.3-5-9.3L467,43.7c0.6-1,1-2.1,1-3.3v-19c0-3.3-2.7-6-6-6H33.7
	C30.4,15.3,27.7,18,27.7,21.4z"/>
</svg>
