<?xml version="1.0" encoding="utf-8"?>
<!-- Generator: Adobe Illustrator 22.0.1, SVG Export Plug-In . SVG Version: 6.00 Build 0)  -->
<svg version="1.1" xmlns="http://www.w3.org/2000/svg" xmlns:xlink="http://www.w3.org/1999/xlink" x="0px" y="0px"
	 viewBox="0 0 750 412.7" style="enable-background:new 0 0 750 412.7;" xml:space="preserve">
<style type="text/css">
	.st0{display:none;}
	.st1{display:inline;fill:none;stroke:#000000;stroke-miterlimit:10;}
	.st2{display:inline;fill:#E7E7E7;stroke:#000000;stroke-miterlimit:10;}
	.st3{fill:#E7E7E7;stroke:#000000;stroke-miterlimit:10;}
	.st4{display:inline;}
	.st5{stroke:#000000;stroke-miterlimit:10;}
	.st6{display:inline;stroke:#000000;stroke-miterlimit:10;}
	.st7{fill:#E7E7E7;}
	.st8{fill:none;stroke:#000000;stroke-miterlimit:10;}
</style>
<g id="Layer_2" class="st0">
	<polyline class="st1" points="91.5,77.8 374.5,30.8 657.5,77.8 	"/>
	<path class="st2" d="M85,72.3v325h580v-325H85z M654.5,385.8h-559v-302h559V385.8z"/>
	<circle class="st2" cx="374.5" cy="30.8" r="7"/>
</g>
<g id="Layer_5">
	<path class="st3" d="M-6.5-4.2v361H96.8c-33.3,0-60.3-27-60.3-60.3V87.1c0-33.3,27-60.3,60.3-60.3h555.5c33.3,0,60.3,27,60.3,60.3
		v209.5c0,33.3-27,60.3-60.3,60.3h106.3v-361H-6.5z"/>
</g>
<g id="Layer_3" class="st0">
	<g id="Layer_4" class="st4">
	</g>
	<path class="st2" d="M282.9,225.1c16.7-36.5,37.6-62.3,55.6-54.4c17.3,7.6,11.7,41.2-5,77.6"/>
	<g class="st4">
		<path class="st3" d="M252.9,204.1c16.7-36.5,37.6-62.3,55.6-54.4c17.3,7.6,11.7,41.2-5,77.6"/>
		<path class="st5" d="M315.3,195.5c0,0-4.8-5.7-10.8-2.7s-14,18-11,36s10.6-2.9,10.6-2.9S315,198.2,315.3,195.5z"/>
	</g>
	<path class="st6" d="M346.3,212.5c0,0-4.8-5.7-10.8-2.7s-14,18-11,36s10.6-2.9,10.6-2.9S346,215.2,346.3,212.5z"/>
</g>
<g id="Layer_1">
	<g>
		<circle class="st7" cx="-246.5" cy="206.8" r="159"/>
		<path d="M-246.5,49.3c42.1,0,81.6,16.4,111.4,46.1c29.7,29.7,46.1,69.3,46.1,111.4s-16.4,81.6-46.1,111.4
			c-29.7,29.7-69.3,46.1-111.4,46.1s-81.6-16.4-111.4-46.1c-29.7-29.7-46.1-69.3-46.1-111.4s16.4-81.6,46.1-111.4
			C-328.1,65.7-288.6,49.3-246.5,49.3 M-246.5,46.3c-88.6,0-160.5,71.9-160.5,160.5s71.9,160.5,160.5,160.5S-86,295.5-86,206.8
			S-157.9,46.3-246.5,46.3L-246.5,46.3z"/>
	</g>
	<path class="st3" d="M450,314.6c37.5,39.6,79.8,50.6,109.8,31.9c26.6-16.6,35.6-55.5,24.2-96.8c-7.7-28.2-17.7-32.3-17.7-32.3
		l5.2,23.5l-22.8-16.1l1.9,51.6l-41.4-24l-1.6,46l-38.7-22.8l8.9,34.6l-30.7-20.9l4.6,15.3l-13.3-10.8
		C438.7,299,447.8,312.2,450,314.6z"/>
	<path class="st3" d="M343,231.7c-3.1,12.8-7.8,25.8-14.1,38.7c-38.4,78.7-87.8,97.5-127.7,78s-52.8-75.2-17-148.7
		c9-18.4,20.3-34.4,32.7-47.3l-1.4,40.9l42.8-29l1.6,47.9l39.9-23L301,234l24.6-25.8l-1.5,37.1L343,231.7z"/>
	<path class="st3" d="M438.9,339.6c-1.4-0.1-2.8,0.7-3.5,2c-3.9,7.4-18.1,7.4-18.1,7.4h-41.9H375h-41.9c0,0-14.8,0-18.3-7.9
		c-0.6-1.4-2.1-2.3-3.6-2.2c-76.7,2.3-187.8,5.1-193.1,11.8c-3.6,4.6,2,7.8,4.3,8.9c0.5,0.2,1.1,0.4,1.6,0.4h499c1,0,1.7-1,2.7-1.1
		c7.8-0.9,12.2-6.7,6.1-8.1C597.5,342.8,516,342.9,438.9,339.6z"/>
	<polyline class="st3" points="-67,412.3 -67,355.3 786,355.3 786,412.3 	"/>
	<g>
		<path class="st8" d="M375,319.2c28.2,0,61.4,6.1,61.4,20.1l-0.3,1.3"/>
		<path class="st8" d="M375.4,319.2c-28.2,0-61.4,6.1-61.4,20.1l0.3,0.9"/>
	</g>
</g>
</svg>
