<?xml version="1.0" encoding="utf-8"?>
<!-- Generator: Adobe Illustrator 22.0.1, SVG Export Plug-In . SVG Version: 6.00 Build 0)  -->
<svg version="1.1" id="Layer_1" xmlns="http://www.w3.org/2000/svg" xmlns:xlink="http://www.w3.org/1999/xlink" x="0px" y="0px"
	 viewBox="0 0 1340 630" style="enable-background:new 0 0 1340 630;" xml:space="preserve">
<style type="text/css">
	.st0{fill:#DD796F;}
	.st1{fill:#414143;stroke:#000000;stroke-miterlimit:10;}
	.st2{fill:none;stroke:#000000;stroke-miterlimit:10;}
	.st3{fill:none;}
	.st4{fill:#CECEC6;stroke:#000000;stroke-miterlimit:10;}
</style>
<rect x="162" y="293" class="st0" width="1224" height="37"/>
<rect x="-41" y="256" class="st0" width="1224" height="37"/>
<rect x="-173" y="215" class="st0" width="1224" height="40"/>
<rect x="-305" y="178" class="st0" width="1224" height="37"/>
<rect x="-438" y="141" class="st0" width="1224" height="37"/>
<rect x="-574" y="104" class="st0" width="1224" height="37"/>
<rect x="-709" y="67" class="st0" width="1224" height="37"/>
<rect x="297" y="330" class="st0" width="1224" height="37"/>
<rect x="428" y="367" class="st0" width="1224" height="37"/>
<rect x="562" y="404" class="st0" width="1224" height="37"/>
<rect x="698" y="441" class="st0" width="1224" height="37"/>
<rect x="831" y="478" class="st0" width="1224" height="37"/>
<path class="st1" d="M-901.1,342.8l-0.2-0.3c-8.6-14.9-9-32.9-2-48.7c2.4-5.3,3.6-11.3,3.2-17.6c-1.1-19.5-17.2-35.1-36.7-35.7
	c-21.5-0.7-39.2,16.6-39.2,38c0,6.1,1.4,11.8,4,16.9c8,16.1,8.1,35,0,51.1l0,0l-56.9,81.9c-3.6,5.2-5.1,11.6-4.2,17.8l5.5,36.5
	c1.1,7.1,8.4,11.3,15.1,8.8l0,0l-0.7-36.9c-0.2-9.1,3.1-17.8,9.3-24.5l15.3-16.6c4-4.3,11.2-1.4,11.1,4.5l-5.2,203.1
	c-0.1,5.2,4,9.4,9.2,9.4h8.6L-944,525c0.6-3.2,3.4-5.5,6.7-5.5h14.1c3.7,0,6.9,2.6,7.7,6.2l23.6,104.8h9.9c5.4,0,9.7-4.6,9.4-10
	L-886.8,419c-0.3-3.6,4.2-5.6,6.7-2.9l15.9,17.3c6,6.5,9.2,15.1,9,23.9l-0.7,37.3l0,0c6.7,2.6,14-1.7,15.1-8.8l5.9-39.3
	c0.7-4.4-0.4-9-3-12.7L-901.1,342.8z"/>
<path class="st1" d="M-1195.7-515H136.3c2.2,0,4,1.8,4,4v19.4c0,2.2,1.8,4,4,4h191.9c2.2,0,4,1.8,4,4v20.3c0,2.2,1.8,4,4,4h191.9
	c2.2,0,4,1.8,4,4v20.3c0,2.2,1.8,4,4,4h191.9c2.2,0,4,1.8,4,4v20.3c0,2.2,1.8,4,4,4h191.9c2.2,0,4,1.8,4,4v19.4c0,2.2,1.8,4,4,4
	h191.9c2.2,0,4,1.8,4,4v20.3c0,2.2,1.8,4,4,4H1345c2.2,0,4,1.8,4,4v30.3c0,2.2-1.8,4-4,4H-4.5c-2.2,0-4-1.8-4-4v-30.3
	c0-2.2-1.8-4-4-4h-183.1c-2.2,0-4-1.8-4-4v-19.4c0-2.2-1.8-4-4-4h-191.9c-2.2,0-4-1.8-4-4v-20.3c0-2.2-1.8-4-4-4h-191.9
	c-2.2,0-4-1.8-4-4v-20.3c0-2.2-1.8-4-4-4h-191.9c-2.2,0-4-1.8-4-4v-20.3c0-2.2-1.8-4-4-4h-191.9c-2.2,0-4-1.8-4-4v-19.4
	c0-2.2-1.8-4-4-4h-191.9c-2.2,0-4-1.8-4-4V-511C-1199.7-513.2-1197.9-515-1195.7-515z"/>
<path class="st1" d="M-0.7,1506h1355.9c2.2,0,4,1.8,4,4v19.4c0,2.2,1.8,4,4,4h167.9c2.2,0,4,1.8,4,4v20.3c0,2.2,1.8,4,4,4h191.9
	c2.2,0,4,1.8,4,4v20.3c0,2.2,1.8,4,4,4h191.9c2.2,0,4,1.8,4,4l0,20.3c0,2.2,1.8,4,4,4h191.9c2.2,0,4.1,1.8,4.1,4v19.4
	c0,2.2,1.8,4,4,4h191.9c2.2,0,4.1,1.8,4.1,4v20.3c0,2.2,1.8,4,4,4H2540c2.2,0,4,1.8,4,4v30.3c0,2.2-1.8,4-4,4H1190.5
	c-2.2,0-4-1.8-4-4v-30.3c0-2.2-1.8-4-4-4H999.3c-2.2,0-4-1.8-4-4v-19.4c0-2.2-1.8-4-4-4H799.3c-2.2,0-4-1.8-4-4v-20.3
	c0-2.2-1.8-4-4-4H599.3c-2.2,0-4-1.8-4-4v-20.3c0-2.2-1.8-4-4-4H399.3c-2.2,0-4-1.8-4-4v-20.3c0-2.2-1.8-4-4-4H199.3
	c-2.2,0-4-1.8-4-4v-19.4c0-2.2-1.8-4-4-4H-0.7c-2.2,0-4-1.8-4-4V1510C-4.7,1507.8-2.9,1506-0.7,1506z"/>
<path class="st1" d="M1349,1992.5v-18.9c0-2.2-1.8-4-4-4h-200.6c-2.2,0-4-1.8-4-4v-20.3c0-2.2-1.8-4-4.1-4H944.3c-2.2,0-4-1.8-4-4
	v-19.4c0-2.2-1.8-4-4-4H744.3c-2.2,0-4-1.8-4-4v-20.3c0-2.2-1.8-4-4-4H544.3c-2.2,0-4-1.8-4-4.1v-20.3c0-2.2-1.8-4-4-4H344.3
	c-2.2,0-4-1.8-4-4v-20.3c0-2.2-1.8-4-4-4H144.3c-2.2,0-4-1.8-4-4V1805c0-2.2-1.8-4-4-4h-1331.9c-2.2,0-4,1.8-4,4v20.3
	c0,2.2,1.8,4,4,4h191.9c2.2,0,4,1.8,4,4v19.4c0,2.2,1.8,4,4,4h191.9c2.2,0,4,1.8,4,4v20.3c0,2.2,1.8,4.1,4,4.1h191.9
	c2.2,0,4,1.8,4,4v20.3c0,2.2,1.8,4,4,4h191.9c2.2,0,4,1.8,4,4v20.3c0,2.2,1.8,4.1,4,4.1h191.9c2.2,0,4,1.8,4,4v19.4
	c0,2.2,1.8,4.1,4,4.1h183.1c2.2,0,4,1.8,4,4v18.9h-29v294h1420v-294H1349z"/>
<g>
	<g id="Layer_6">
		<g>
			<line class="st2" x1="-83.5" y1="-118.2" x2="1449.5" y2="-118.2"/>
		</g>
		<g>
			<line class="st2" x1="-83.5" y1="-81.2" x2="1449.5" y2="-81.2"/>
		</g>
		<g>
			<line class="st2" x1="-83.5" y1="-44.2" x2="1449.5" y2="-44.2"/>
		</g>
		<g>
			<line class="st2" x1="-83.5" y1="-7.2" x2="1449.5" y2="-7.2"/>
		</g>
		<g>
			<line class="st2" x1="-83.5" y1="29.8" x2="1449.5" y2="29.8"/>
		</g>
		<g>
			<line class="st2" x1="-83.5" y1="66.8" x2="1449.5" y2="66.8"/>
		</g>
		<g>
			<line class="st2" x1="-83.5" y1="103.8" x2="1449.5" y2="103.8"/>
		</g>
		<g>
			<line class="st2" x1="-83.5" y1="140.8" x2="1449.5" y2="140.8"/>
		</g>
		<g>
			<line class="st2" x1="-83.5" y1="177.8" x2="1449.5" y2="177.8"/>
		</g>
		<g>
			<line class="st2" x1="-83.5" y1="214.8" x2="1449.5" y2="214.8"/>
		</g>
		<line class="st2" x1="-13" y1="-118.1" x2="-13" y2="-158.8"/>
		<line class="st2" x1="75" y1="-118.1" x2="75" y2="-158.8"/>
		<line class="st2" x1="162.5" y1="-118.7" x2="162.5" y2="-158.8"/>
		<line class="st2" x1="251.5" y1="-118.7" x2="251.5" y2="-158.8"/>
		<line class="st2" x1="340" y1="-118.1" x2="340" y2="-158.8"/>
		<line class="st2" x1="428" y1="-118.1" x2="428" y2="-158.8"/>
		<line class="st2" x1="515.5" y1="-118.7" x2="515.5" y2="-158.8"/>
		<line class="st2" x1="604.5" y1="-118.7" x2="604.5" y2="-159.4"/>
		<line class="st2" x1="32" y1="-81.1" x2="32" y2="-118.2"/>
		<line class="st2" x1="119.5" y1="-80.7" x2="119.5" y2="-117.7"/>
		<line class="st2" x1="208.5" y1="-80.7" x2="208.5" y2="-117.7"/>
		<line class="st2" x1="297" y1="-81.1" x2="297" y2="-118.2"/>
		<line class="st2" x1="385" y1="-81.1" x2="385" y2="-118.2"/>
		<line class="st2" x1="472.5" y1="-80.7" x2="472.5" y2="-117.7"/>
		<line class="st2" x1="561.5" y1="-80.7" x2="561.5" y2="-117.7"/>
		<line class="st2" x1="650.5" y1="-80.7" x2="650.5" y2="-117.7"/>
		<line class="st2" x1="-13" y1="-44.1" x2="-13" y2="-81.2"/>
		<line class="st2" x1="75" y1="-44.1" x2="75" y2="-81.2"/>
		<line class="st2" x1="162.5" y1="-43.7" x2="162.5" y2="-80.7"/>
		<line class="st2" x1="251.5" y1="-43.7" x2="251.5" y2="-80.7"/>
		<line class="st2" x1="340" y1="-44.1" x2="340" y2="-81.2"/>
		<line class="st2" x1="428" y1="-44.1" x2="428" y2="-81.2"/>
		<line class="st2" x1="515.5" y1="-43.7" x2="515.5" y2="-80.7"/>
		<line class="st2" x1="604.5" y1="-43.7" x2="604.5" y2="-80.7"/>
		<line class="st2" x1="32" y1="-7.1" x2="32" y2="-44.2"/>
		<line class="st2" x1="119.5" y1="-6.7" x2="119.5" y2="-43.7"/>
		<line class="st2" x1="208.5" y1="-6.7" x2="208.5" y2="-43.7"/>
		<line class="st2" x1="297" y1="-7.1" x2="297" y2="-44.2"/>
		<line class="st2" x1="385" y1="-7.1" x2="385" y2="-44.2"/>
		<line class="st2" x1="472.5" y1="-6.7" x2="472.5" y2="-43.7"/>
		<line class="st2" x1="561.5" y1="-6.7" x2="561.5" y2="-43.7"/>
		<line class="st2" x1="650.5" y1="-6.7" x2="650.5" y2="-43.7"/>
		<line class="st2" x1="-13" y1="29.9" x2="-13" y2="-7.2"/>
		<line class="st2" x1="75" y1="29.9" x2="75" y2="-7.2"/>
		<line class="st2" x1="162.5" y1="30.3" x2="162.5" y2="-6.7"/>
		<line class="st2" x1="251.5" y1="30.3" x2="251.5" y2="-6.7"/>
		<line class="st2" x1="340" y1="29.9" x2="340" y2="-7.2"/>
		<line class="st2" x1="428" y1="29.9" x2="428" y2="-7.2"/>
		<line class="st2" x1="515.5" y1="30.3" x2="515.5" y2="-6.7"/>
		<line class="st2" x1="604.5" y1="30.3" x2="604.5" y2="-6.7"/>
		<line class="st2" x1="32" y1="66.9" x2="32" y2="29.8"/>
		<line class="st2" x1="119.5" y1="67.3" x2="119.5" y2="30.3"/>
		<line class="st2" x1="208.5" y1="67.3" x2="208.5" y2="30.3"/>
		<line class="st2" x1="297" y1="66.9" x2="297" y2="29.8"/>
		<line class="st2" x1="385" y1="66.9" x2="385" y2="29.8"/>
		<line class="st2" x1="472.5" y1="67.3" x2="472.5" y2="30.3"/>
		<line class="st2" x1="561.5" y1="67.3" x2="561.5" y2="30.3"/>
		<line class="st2" x1="650.5" y1="67.3" x2="650.5" y2="30.3"/>
		<line class="st2" x1="32" y1="140.9" x2="32" y2="103.8"/>
		<line class="st2" x1="119.5" y1="141.3" x2="119.5" y2="104.3"/>
		<line class="st2" x1="208.5" y1="141.3" x2="208.5" y2="104.3"/>
		<line class="st2" x1="297" y1="140.9" x2="297" y2="103.8"/>
		<line class="st2" x1="385" y1="140.9" x2="385" y2="103.8"/>
		<line class="st2" x1="472.5" y1="141.3" x2="472.5" y2="104.3"/>
		<line class="st2" x1="561.5" y1="141.3" x2="561.5" y2="104.3"/>
		<line class="st2" x1="650.5" y1="141.3" x2="650.5" y2="104.3"/>
		<line class="st2" x1="32" y1="214.9" x2="32" y2="177.8"/>
		<line class="st2" x1="119.5" y1="215.3" x2="119.5" y2="178.3"/>
		<line class="st2" x1="208.5" y1="215.3" x2="208.5" y2="178.3"/>
		<line class="st2" x1="297" y1="214.9" x2="297" y2="177.8"/>
		<line class="st2" x1="385" y1="214.9" x2="385" y2="177.8"/>
		<line class="st2" x1="472.5" y1="215.3" x2="472.5" y2="178.3"/>
		<line class="st2" x1="561.5" y1="215.3" x2="561.5" y2="178.3"/>
		<line class="st2" x1="650.5" y1="215.3" x2="650.5" y2="178.3"/>
		<line class="st2" x1="-13" y1="255.5" x2="-13" y2="214.8"/>
		<line class="st2" x1="75" y1="255.5" x2="75" y2="214.8"/>
		<line class="st2" x1="162.5" y1="256" x2="162.5" y2="215.3"/>
		<line class="st2" x1="251.5" y1="256" x2="251.5" y2="215.3"/>
		<line class="st2" x1="340" y1="255.5" x2="340" y2="214.8"/>
		<line class="st2" x1="428" y1="255.5" x2="428" y2="214.8"/>
		<line class="st2" x1="515.5" y1="256" x2="515.5" y2="215.3"/>
		<line class="st2" x1="604.5" y1="256" x2="604.5" y2="215.3"/>
		<line class="st2" x1="-13" y1="103.9" x2="-13" y2="66.8"/>
		<line class="st2" x1="75" y1="103.9" x2="75" y2="66.8"/>
		<line class="st2" x1="162.5" y1="104.3" x2="162.5" y2="67.3"/>
		<line class="st2" x1="251.5" y1="104.3" x2="251.5" y2="67.3"/>
		<line class="st2" x1="340" y1="103.9" x2="340" y2="66.8"/>
		<line class="st2" x1="428" y1="103.9" x2="428" y2="66.8"/>
		<line class="st2" x1="515.5" y1="104.3" x2="515.5" y2="67.3"/>
		<line class="st2" x1="604.5" y1="104.3" x2="604.5" y2="67.3"/>
		<line class="st2" x1="-13" y1="177.9" x2="-13" y2="140.8"/>
		<line class="st2" x1="75" y1="177.9" x2="75" y2="140.8"/>
		<line class="st2" x1="162.5" y1="178.3" x2="162.5" y2="141.3"/>
		<line class="st2" x1="251.5" y1="178.3" x2="251.5" y2="141.3"/>
		<line class="st2" x1="340" y1="177.9" x2="340" y2="140.8"/>
		<line class="st2" x1="428" y1="177.9" x2="428" y2="140.8"/>
		<line class="st2" x1="515.5" y1="178.3" x2="515.5" y2="141.3"/>
		<line class="st2" x1="604.5" y1="178.3" x2="604.5" y2="141.3"/>
		<line class="st2" x1="698" y1="-118.1" x2="698" y2="-158.8"/>
		<line class="st2" x1="786" y1="-118.1" x2="786" y2="-158.8"/>
		<line class="st2" x1="873.5" y1="-118.7" x2="873.5" y2="-158.8"/>
		<line class="st2" x1="962.5" y1="-118.7" x2="962.5" y2="-158.8"/>
		<line class="st2" x1="1051" y1="-118.1" x2="1051" y2="-158.8"/>
		<line class="st2" x1="1139" y1="-118.1" x2="1139" y2="-158.8"/>
		<line class="st2" x1="1226.5" y1="-118.7" x2="1226.5" y2="-158.8"/>
		<line class="st2" x1="1315.5" y1="-118.7" x2="1315.5" y2="-159.4"/>
		<line class="st2" x1="743" y1="-81.1" x2="743" y2="-118.2"/>
		<line class="st2" x1="830.5" y1="-80.7" x2="830.5" y2="-117.7"/>
		<line class="st2" x1="919.5" y1="-80.7" x2="919.5" y2="-117.7"/>
		<line class="st2" x1="1008" y1="-81.1" x2="1008" y2="-118.2"/>
		<line class="st2" x1="1096" y1="-81.1" x2="1096" y2="-118.2"/>
		<line class="st2" x1="1183.5" y1="-80.7" x2="1183.5" y2="-117.7"/>
		<line class="st2" x1="1272.5" y1="-80.7" x2="1272.5" y2="-117.7"/>
		<line class="st2" x1="1361.5" y1="-80.7" x2="1361.5" y2="-117.7"/>
		<line class="st2" x1="698" y1="-44.1" x2="698" y2="-81.2"/>
		<line class="st2" x1="786" y1="-44.1" x2="786" y2="-81.2"/>
		<line class="st2" x1="873.5" y1="-43.7" x2="873.5" y2="-80.7"/>
		<line class="st2" x1="962.5" y1="-43.7" x2="962.5" y2="-80.7"/>
		<line class="st2" x1="1051" y1="-44.1" x2="1051" y2="-81.2"/>
		<line class="st2" x1="1139" y1="-44.1" x2="1139" y2="-81.2"/>
		<line class="st2" x1="1226.5" y1="-43.7" x2="1226.5" y2="-80.7"/>
		<line class="st2" x1="1315.5" y1="-43.7" x2="1315.5" y2="-80.7"/>
		<line class="st2" x1="743" y1="-7.1" x2="743" y2="-44.2"/>
		<line class="st2" x1="830.5" y1="-6.7" x2="830.5" y2="-43.7"/>
		<line class="st2" x1="919.5" y1="-6.7" x2="919.5" y2="-43.7"/>
		<line class="st2" x1="1008" y1="-7.1" x2="1008" y2="-44.2"/>
		<line class="st2" x1="1096" y1="-7.1" x2="1096" y2="-44.2"/>
		<line class="st2" x1="1183.5" y1="-6.7" x2="1183.5" y2="-43.7"/>
		<line class="st2" x1="1272.5" y1="-6.7" x2="1272.5" y2="-43.7"/>
		<line class="st2" x1="1361.5" y1="-6.7" x2="1361.5" y2="-43.7"/>
		<line class="st2" x1="698" y1="29.9" x2="698" y2="-7.2"/>
		<line class="st2" x1="786" y1="29.9" x2="786" y2="-7.2"/>
		<line class="st2" x1="873.5" y1="30.3" x2="873.5" y2="-6.7"/>
		<line class="st2" x1="962.5" y1="30.3" x2="962.5" y2="-6.7"/>
		<line class="st2" x1="1051" y1="29.9" x2="1051" y2="-7.2"/>
		<line class="st2" x1="1139" y1="29.9" x2="1139" y2="-7.2"/>
		<line class="st2" x1="1226.5" y1="30.3" x2="1226.5" y2="-6.7"/>
		<line class="st2" x1="1315.5" y1="30.3" x2="1315.5" y2="-6.7"/>
		<line class="st2" x1="743" y1="66.9" x2="743" y2="29.8"/>
		<line class="st2" x1="830.5" y1="67.3" x2="830.5" y2="30.3"/>
		<line class="st2" x1="919.5" y1="67.3" x2="919.5" y2="30.3"/>
		<line class="st2" x1="1008" y1="66.9" x2="1008" y2="29.8"/>
		<line class="st2" x1="1096" y1="66.9" x2="1096" y2="29.8"/>
		<line class="st2" x1="1183.5" y1="67.3" x2="1183.5" y2="30.3"/>
		<line class="st2" x1="1272.5" y1="67.3" x2="1272.5" y2="30.3"/>
		<line class="st2" x1="1361.5" y1="67.3" x2="1361.5" y2="30.3"/>
		<line class="st2" x1="743" y1="140.9" x2="743" y2="103.8"/>
		<line class="st2" x1="830.5" y1="141.3" x2="830.5" y2="104.3"/>
		<line class="st2" x1="919.5" y1="141.3" x2="919.5" y2="104.3"/>
		<line class="st2" x1="1008" y1="140.9" x2="1008" y2="103.8"/>
		<line class="st2" x1="1096" y1="140.9" x2="1096" y2="103.8"/>
		<line class="st2" x1="1183.5" y1="141.3" x2="1183.5" y2="104.3"/>
		<line class="st2" x1="1272.5" y1="141.3" x2="1272.5" y2="104.3"/>
		<line class="st2" x1="1361.5" y1="141.3" x2="1361.5" y2="104.3"/>
		<line class="st2" x1="743" y1="214.9" x2="743" y2="177.8"/>
		<line class="st2" x1="830.5" y1="215.3" x2="830.5" y2="178.3"/>
		<line class="st2" x1="919.5" y1="215.3" x2="919.5" y2="178.3"/>
		<line class="st2" x1="1008" y1="214.9" x2="1008" y2="177.8"/>
		<line class="st2" x1="1096" y1="214.9" x2="1096" y2="177.8"/>
		<line class="st2" x1="1183.5" y1="215.3" x2="1183.5" y2="178.3"/>
		<line class="st2" x1="1272.5" y1="215.3" x2="1272.5" y2="178.3"/>
		<line class="st2" x1="1361.5" y1="215.3" x2="1361.5" y2="178.3"/>
		<line class="st2" x1="698" y1="255.5" x2="698" y2="214.8"/>
		<line class="st2" x1="786" y1="255.5" x2="786" y2="214.8"/>
		<line class="st2" x1="873.5" y1="256" x2="873.5" y2="215.3"/>
		<line class="st2" x1="962.5" y1="256" x2="962.5" y2="215.3"/>
		<line class="st2" x1="1051" y1="255.5" x2="1051" y2="214.8"/>
		<line class="st2" x1="1139" y1="255.5" x2="1139" y2="214.8"/>
		<line class="st2" x1="1226.5" y1="256" x2="1226.5" y2="215.3"/>
		<line class="st2" x1="1315.5" y1="256" x2="1315.5" y2="215.3"/>
		<line class="st2" x1="698" y1="103.9" x2="698" y2="66.8"/>
		<line class="st2" x1="786" y1="103.9" x2="786" y2="66.8"/>
		<line class="st2" x1="873.5" y1="104.3" x2="873.5" y2="67.3"/>
		<line class="st2" x1="962.5" y1="104.3" x2="962.5" y2="67.3"/>
		<line class="st2" x1="1051" y1="103.9" x2="1051" y2="66.8"/>
		<line class="st2" x1="1139" y1="103.9" x2="1139" y2="66.8"/>
		<line class="st2" x1="1226.5" y1="104.3" x2="1226.5" y2="67.3"/>
		<line class="st2" x1="1315.5" y1="104.3" x2="1315.5" y2="67.3"/>
		<line class="st2" x1="698" y1="177.9" x2="698" y2="140.8"/>
		<line class="st2" x1="786" y1="177.9" x2="786" y2="140.8"/>
		<line class="st2" x1="873.5" y1="178.3" x2="873.5" y2="141.3"/>
		<line class="st2" x1="962.5" y1="178.3" x2="962.5" y2="141.3"/>
		<line class="st2" x1="1051" y1="177.9" x2="1051" y2="140.8"/>
		<line class="st2" x1="1139" y1="177.9" x2="1139" y2="140.8"/>
		<line class="st2" x1="1226.5" y1="178.3" x2="1226.5" y2="141.3"/>
		<line class="st2" x1="1315.5" y1="178.3" x2="1315.5" y2="141.3"/>
	</g>
	<g id="Layer_6_1_">
		<g>
			<line class="st2" x1="-83.5" y1="255.8" x2="1449.5" y2="255.8"/>
		</g>
		<g>
			<line class="st2" x1="-83.5" y1="292.8" x2="1449.5" y2="292.8"/>
		</g>
		<g>
			<line class="st2" x1="-83.5" y1="329.8" x2="1449.5" y2="329.8"/>
		</g>
		<g>
			<line class="st2" x1="-83.5" y1="366.8" x2="1449.5" y2="366.8"/>
		</g>
		<g>
			<line class="st2" x1="-83.5" y1="403.8" x2="1449.5" y2="403.8"/>
		</g>
		<g>
			<line class="st2" x1="-83.5" y1="440.8" x2="1449.5" y2="440.8"/>
		</g>
		<g>
			<line class="st2" x1="-83.5" y1="477.8" x2="1449.5" y2="477.8"/>
		</g>
		<g>
			<line class="st2" x1="-83.5" y1="514.8" x2="1449.5" y2="514.8"/>
		</g>
		<g>
			<line class="st2" x1="-83.5" y1="551.8" x2="1449.5" y2="551.8"/>
		</g>
		<g>
			<line class="st2" x1="-83.5" y1="588.8" x2="1449.5" y2="588.8"/>
		</g>
		<line class="st2" x1="75" y1="255.9" x2="75" y2="215.2"/>
		<line class="st2" x1="251.5" y1="255.3" x2="251.5" y2="215.2"/>
		<line class="st2" x1="32" y1="292.9" x2="32" y2="255.8"/>
		<line class="st2" x1="119.5" y1="293.3" x2="119.5" y2="256.3"/>
		<line class="st2" x1="208.5" y1="293.3" x2="208.5" y2="256.3"/>
		<line class="st2" x1="297" y1="292.9" x2="297" y2="255.8"/>
		<line class="st2" x1="385" y1="292.9" x2="385" y2="255.8"/>
		<line class="st2" x1="472.5" y1="293.3" x2="472.5" y2="256.3"/>
		<line class="st2" x1="561.5" y1="293.3" x2="561.5" y2="256.3"/>
		<line class="st2" x1="650.5" y1="293.3" x2="650.5" y2="256.3"/>
		<line class="st2" x1="-13" y1="329.9" x2="-13" y2="292.8"/>
		<line class="st2" x1="75" y1="329.9" x2="75" y2="292.8"/>
		<line class="st2" x1="162.5" y1="330.3" x2="162.5" y2="293.3"/>
		<line class="st2" x1="251.5" y1="330.3" x2="251.5" y2="293.3"/>
		<line class="st2" x1="340" y1="329.9" x2="340" y2="292.8"/>
		<line class="st2" x1="428" y1="329.9" x2="428" y2="292.8"/>
		<line class="st2" x1="515.5" y1="330.3" x2="515.5" y2="293.3"/>
		<line class="st2" x1="604.5" y1="330.3" x2="604.5" y2="293.3"/>
		<line class="st2" x1="32" y1="366.9" x2="32" y2="329.8"/>
		<line class="st2" x1="119.5" y1="367.3" x2="119.5" y2="330.3"/>
		<line class="st2" x1="208.5" y1="367.3" x2="208.5" y2="330.3"/>
		<line class="st2" x1="297" y1="366.9" x2="297" y2="329.8"/>
		<line class="st2" x1="385" y1="366.9" x2="385" y2="329.8"/>
		<line class="st2" x1="472.5" y1="367.3" x2="472.5" y2="330.3"/>
		<line class="st2" x1="561.5" y1="367.3" x2="561.5" y2="330.3"/>
		<line class="st2" x1="650.5" y1="367.3" x2="650.5" y2="330.3"/>
		<line class="st2" x1="-13" y1="403.9" x2="-13" y2="366.8"/>
		<line class="st2" x1="75" y1="403.9" x2="75" y2="366.8"/>
		<line class="st2" x1="162.5" y1="404.3" x2="162.5" y2="367.3"/>
		<line class="st2" x1="251.5" y1="404.3" x2="251.5" y2="367.3"/>
		<line class="st2" x1="340" y1="403.9" x2="340" y2="366.8"/>
		<line class="st2" x1="428" y1="403.9" x2="428" y2="366.8"/>
		<line class="st2" x1="515.5" y1="404.3" x2="515.5" y2="367.3"/>
		<line class="st2" x1="604.5" y1="404.3" x2="604.5" y2="367.3"/>
		<line class="st2" x1="32" y1="440.9" x2="32" y2="403.8"/>
		<line class="st2" x1="119.5" y1="441.3" x2="119.5" y2="404.3"/>
		<line class="st2" x1="208.5" y1="441.3" x2="208.5" y2="404.3"/>
		<line class="st2" x1="297" y1="440.9" x2="297" y2="403.8"/>
		<line class="st2" x1="385" y1="440.9" x2="385" y2="403.8"/>
		<line class="st2" x1="472.5" y1="441.3" x2="472.5" y2="404.3"/>
		<line class="st2" x1="561.5" y1="441.3" x2="561.5" y2="404.3"/>
		<line class="st2" x1="650.5" y1="441.3" x2="650.5" y2="404.3"/>
		<line class="st2" x1="32" y1="514.9" x2="32" y2="477.8"/>
		<line class="st2" x1="119.5" y1="515.3" x2="119.5" y2="478.3"/>
		<line class="st2" x1="208.5" y1="515.3" x2="208.5" y2="478.3"/>
		<line class="st2" x1="297" y1="514.9" x2="297" y2="477.8"/>
		<line class="st2" x1="385" y1="514.9" x2="385" y2="477.8"/>
		<line class="st2" x1="472.5" y1="515.3" x2="472.5" y2="478.3"/>
		<line class="st2" x1="561.5" y1="515.3" x2="561.5" y2="478.3"/>
		<line class="st2" x1="650.5" y1="515.3" x2="650.5" y2="478.3"/>
		<line class="st2" x1="32" y1="588.9" x2="32" y2="551.8"/>
		<line class="st2" x1="119.5" y1="589.3" x2="119.5" y2="552.3"/>
		<line class="st2" x1="208.5" y1="589.3" x2="208.5" y2="552.3"/>
		<line class="st2" x1="297" y1="588.9" x2="297" y2="551.8"/>
		<line class="st2" x1="385" y1="588.9" x2="385" y2="551.8"/>
		<line class="st2" x1="472.5" y1="589.3" x2="472.5" y2="552.3"/>
		<line class="st2" x1="561.5" y1="589.3" x2="561.5" y2="552.3"/>
		<line class="st2" x1="650.5" y1="589.3" x2="650.5" y2="552.3"/>
		<line class="st2" x1="-13" y1="635.7" x2="-13" y2="588.8"/>
		<line class="st2" x1="75" y1="635.7" x2="75" y2="588.8"/>
		<line class="st2" x1="162.5" y1="636.3" x2="162.5" y2="589.4"/>
		<line class="st2" x1="251.5" y1="636.3" x2="251.5" y2="589.4"/>
		<line class="st2" x1="340" y1="635.7" x2="340" y2="588.8"/>
		<line class="st2" x1="428" y1="635.7" x2="428" y2="588.8"/>
		<line class="st2" x1="515.5" y1="636.3" x2="515.5" y2="589.4"/>
		<line class="st2" x1="604.5" y1="636.3" x2="604.5" y2="589.4"/>
		<line class="st2" x1="-13" y1="477.9" x2="-13" y2="440.8"/>
		<line class="st2" x1="75" y1="477.9" x2="75" y2="440.8"/>
		<line class="st2" x1="162.5" y1="478.3" x2="162.5" y2="441.3"/>
		<line class="st2" x1="251.5" y1="478.3" x2="251.5" y2="441.3"/>
		<line class="st2" x1="340" y1="477.9" x2="340" y2="440.8"/>
		<line class="st2" x1="428" y1="477.9" x2="428" y2="440.8"/>
		<line class="st2" x1="515.5" y1="478.3" x2="515.5" y2="441.3"/>
		<line class="st2" x1="604.5" y1="478.3" x2="604.5" y2="441.3"/>
		<line class="st2" x1="-13" y1="551.9" x2="-13" y2="514.8"/>
		<line class="st2" x1="75" y1="551.9" x2="75" y2="514.8"/>
		<line class="st2" x1="162.5" y1="552.3" x2="162.5" y2="515.3"/>
		<line class="st2" x1="251.5" y1="552.3" x2="251.5" y2="515.3"/>
		<line class="st2" x1="340" y1="551.9" x2="340" y2="514.8"/>
		<line class="st2" x1="428" y1="551.9" x2="428" y2="514.8"/>
		<line class="st2" x1="515.5" y1="552.3" x2="515.5" y2="515.3"/>
		<line class="st2" x1="604.5" y1="552.3" x2="604.5" y2="515.3"/>
		<line class="st2" x1="743" y1="292.9" x2="743" y2="255.8"/>
		<line class="st2" x1="830.5" y1="293.3" x2="830.5" y2="256.3"/>
		<line class="st2" x1="919.5" y1="293.3" x2="919.5" y2="256.3"/>
		<line class="st2" x1="1008" y1="292.9" x2="1008" y2="255.8"/>
		<line class="st2" x1="1096" y1="292.9" x2="1096" y2="255.8"/>
		<line class="st2" x1="1183.5" y1="293.3" x2="1183.5" y2="256.3"/>
		<line class="st2" x1="1272.5" y1="293.3" x2="1272.5" y2="256.3"/>
		<line class="st2" x1="1361.5" y1="293.3" x2="1361.5" y2="256.3"/>
		<line class="st2" x1="698" y1="329.9" x2="698" y2="292.8"/>
		<line class="st2" x1="786" y1="329.9" x2="786" y2="292.8"/>
		<line class="st2" x1="873.5" y1="330.3" x2="873.5" y2="293.3"/>
		<line class="st2" x1="962.5" y1="330.3" x2="962.5" y2="293.3"/>
		<line class="st2" x1="1051" y1="329.9" x2="1051" y2="292.8"/>
		<line class="st2" x1="1139" y1="329.9" x2="1139" y2="292.8"/>
		<line class="st2" x1="1226.5" y1="330.3" x2="1226.5" y2="293.3"/>
		<line class="st2" x1="1315.5" y1="330.3" x2="1315.5" y2="293.3"/>
		<line class="st2" x1="743" y1="366.9" x2="743" y2="329.8"/>
		<line class="st2" x1="830.5" y1="367.3" x2="830.5" y2="330.3"/>
		<line class="st2" x1="919.5" y1="367.3" x2="919.5" y2="330.3"/>
		<line class="st2" x1="1008" y1="366.9" x2="1008" y2="329.8"/>
		<line class="st2" x1="1096" y1="366.9" x2="1096" y2="329.8"/>
		<line class="st2" x1="1183.5" y1="367.3" x2="1183.5" y2="330.3"/>
		<line class="st2" x1="1272.5" y1="367.3" x2="1272.5" y2="330.3"/>
		<line class="st2" x1="1361.5" y1="367.3" x2="1361.5" y2="330.3"/>
		<line class="st2" x1="698" y1="403.9" x2="698" y2="366.8"/>
		<line class="st2" x1="786" y1="403.9" x2="786" y2="366.8"/>
		<line class="st2" x1="873.5" y1="404.3" x2="873.5" y2="367.3"/>
		<line class="st2" x1="962.5" y1="404.3" x2="962.5" y2="367.3"/>
		<line class="st2" x1="1051" y1="403.9" x2="1051" y2="366.8"/>
		<line class="st2" x1="1139" y1="403.9" x2="1139" y2="366.8"/>
		<line class="st2" x1="1226.5" y1="404.3" x2="1226.5" y2="367.3"/>
		<line class="st2" x1="1315.5" y1="404.3" x2="1315.5" y2="367.3"/>
		<line class="st2" x1="743" y1="440.9" x2="743" y2="403.8"/>
		<line class="st2" x1="830.5" y1="441.3" x2="830.5" y2="404.3"/>
		<line class="st2" x1="919.5" y1="441.3" x2="919.5" y2="404.3"/>
		<line class="st2" x1="1008" y1="440.9" x2="1008" y2="403.8"/>
		<line class="st2" x1="1096" y1="440.9" x2="1096" y2="403.8"/>
		<line class="st2" x1="1183.5" y1="441.3" x2="1183.5" y2="404.3"/>
		<line class="st2" x1="1272.5" y1="441.3" x2="1272.5" y2="404.3"/>
		<line class="st2" x1="1361.5" y1="441.3" x2="1361.5" y2="404.3"/>
		<line class="st2" x1="743" y1="514.9" x2="743" y2="477.8"/>
		<line class="st2" x1="830.5" y1="515.3" x2="830.5" y2="478.3"/>
		<line class="st2" x1="919.5" y1="515.3" x2="919.5" y2="478.3"/>
		<line class="st2" x1="1008" y1="514.9" x2="1008" y2="477.8"/>
		<line class="st2" x1="1096" y1="514.9" x2="1096" y2="477.8"/>
		<line class="st2" x1="1183.5" y1="515.3" x2="1183.5" y2="478.3"/>
		<line class="st2" x1="1272.5" y1="515.3" x2="1272.5" y2="478.3"/>
		<line class="st2" x1="1361.5" y1="515.3" x2="1361.5" y2="478.3"/>
		<line class="st2" x1="743" y1="588.9" x2="743" y2="551.8"/>
		<line class="st2" x1="830.5" y1="589.3" x2="830.5" y2="552.3"/>
		<line class="st2" x1="919.5" y1="589.3" x2="919.5" y2="552.3"/>
		<line class="st2" x1="1008" y1="588.9" x2="1008" y2="551.8"/>
		<line class="st2" x1="1096" y1="588.9" x2="1096" y2="551.8"/>
		<line class="st2" x1="1183.5" y1="589.3" x2="1183.5" y2="552.3"/>
		<line class="st2" x1="1272.5" y1="589.3" x2="1272.5" y2="552.3"/>
		<line class="st2" x1="1361.5" y1="589.3" x2="1361.5" y2="552.3"/>
		<line class="st2" x1="698" y1="635.7" x2="698" y2="588.8"/>
		<line class="st2" x1="786" y1="635.7" x2="786" y2="588.8"/>
		<line class="st2" x1="873.5" y1="636.3" x2="873.5" y2="589.4"/>
		<line class="st2" x1="962.5" y1="636.3" x2="962.5" y2="589.4"/>
		<line class="st2" x1="1051" y1="635.7" x2="1051" y2="588.8"/>
		<line class="st2" x1="1139" y1="635.7" x2="1139" y2="588.8"/>
		<line class="st2" x1="1226.5" y1="636.3" x2="1226.5" y2="589.4"/>
		<line class="st2" x1="1315.5" y1="636.3" x2="1315.5" y2="589.4"/>
		<line class="st2" x1="698" y1="477.9" x2="698" y2="440.8"/>
		<line class="st2" x1="786" y1="477.9" x2="786" y2="440.8"/>
		<line class="st2" x1="873.5" y1="478.3" x2="873.5" y2="441.3"/>
		<line class="st2" x1="962.5" y1="478.3" x2="962.5" y2="441.3"/>
		<line class="st2" x1="1051" y1="477.9" x2="1051" y2="440.8"/>
		<line class="st2" x1="1139" y1="477.9" x2="1139" y2="440.8"/>
		<line class="st2" x1="1226.5" y1="478.3" x2="1226.5" y2="441.3"/>
		<line class="st2" x1="1315.5" y1="478.3" x2="1315.5" y2="441.3"/>
		<line class="st2" x1="698" y1="551.9" x2="698" y2="514.8"/>
		<line class="st2" x1="786" y1="551.9" x2="786" y2="514.8"/>
		<line class="st2" x1="873.5" y1="552.3" x2="873.5" y2="515.3"/>
		<line class="st2" x1="962.5" y1="552.3" x2="962.5" y2="515.3"/>
		<line class="st2" x1="1051" y1="551.9" x2="1051" y2="514.8"/>
		<line class="st2" x1="1139" y1="551.9" x2="1139" y2="514.8"/>
		<line class="st2" x1="1226.5" y1="552.3" x2="1226.5" y2="515.3"/>
		<line class="st2" x1="1315.5" y1="552.3" x2="1315.5" y2="515.3"/>
	</g>
</g>
<g>
	<path class="st3" d="M119,222.5c0,10-2.1,19.6-5.9,28.2l60.2,15.2c20.8,5.3,41.9-7.3,47.2-28.1l1.5-6c5.3-20.8-7.3-41.9-28.1-47.2
		L131,168.7c-11.1-2.8-22.3-0.5-31.1,5.4C111.8,186.7,119,203.8,119,222.5L119,222.5z"/>
	<path class="st3" d="M50.4,191.6L50.4,191.6c0.9-3.6,2.1-7,3.5-10.4c-2.4-0.5-4.8-0.7-7.4-0.7h-64.9c-21.4,0-38.8,17.4-38.8,38.8
		v6.2c0,21.4,17.4,38.8,38.8,38.8h64.9c7.9,0,15.3-2.4,21.4-6.5C51.6,240.9,44.2,216.1,50.4,191.6z"/>
	<path class="st3" d="M85.3,219.4c0-5.5-1.2-10.7-3.2-15.5c-2,9-0.8,17.9,3,25.6c0.1-1.3,0.2-2.6,0.2-3.9V219.4z"/>
	<path class="st4" d="M99.9,174.1c-7.6-8.1-17-14.4-27.7-18.2c-7.5-2.7-15.6-4.2-24-4.2h-68.4c-39.1,0-70.8,31.7-70.8,70.8v0
		c0,39.1,31.7,70.8,70.8,70.8h68.4c18,0,34.4-6.7,46.8-17.7c-10.6-3.8-19.7-9.9-27.1-17.6c-6.1,4.1-13.5,6.5-21.4,6.5h-64.9
		c-21.4,0-38.8-17.4-38.8-38.8v-6.2c0-21.4,17.4-38.8,38.8-38.8h64.9c2.5,0,5,0.2,7.4,0.7c12.7,2.4,23.2,11.1,28.2,22.6
		c2.1,4.7,3.2,10,3.2,15.5v6.2c0,1.3-0.1,2.6-0.2,3.9c4.9,9.9,13.8,17.6,25.3,20.5l2.7,0.7c3.8-8.7,5.9-18.2,5.9-28.2v0
		C119,203.8,111.8,186.7,99.9,174.1z"/>
	<path class="st4" d="M202.7,157l-66.3-16.7c-23.5-5.9-47.3,0.6-64.2,15.6c10.6,3.8,20.1,10.2,27.7,18.2c8.8-5.9,20-8.2,31.1-5.4
		l62.9,15.9c20.8,5.3,33.4,26.4,28.1,47.2l-1.5,6c-5.3,20.8-26.4,33.4-47.2,28.1l-60.2-15.2l-2.7-0.7c-11.5-2.9-20.5-10.7-25.3-20.5
		c-3.8-7.7-5-16.7-3-25.6c-5-11.6-15.5-20.2-28.2-22.6c-1.4,3.3-2.6,6.8-3.5,10.4v0c-6.2,24.5,1.3,49.3,17.6,66.4
		c7.4,7.7,16.6,13.8,27.1,17.6c2.2,0.8,4.4,1.5,6.6,2l66.3,16.7c37.9,9.6,76.4-13.4,86-51.3l0,0C263.6,205.1,240.6,166.6,202.7,157z
		"/>
</g>
<path class="st4" d="M-588,279.5L-588,279.5c0,39.1,31.7,70.8,70.8,70.8h68.4c39.1,0,70.8-31.7,70.8-70.8v0
	c0-39.1-31.7-70.8-70.8-70.8h-68.4C-556.3,208.7-588,240.4-588,279.5z M-450.5,237.5c21.4,0,38.8,17.4,38.8,38.8v6.2
	c0,21.4-17.4,38.8-38.8,38.8h-64.9c-21.4,0-38.8-17.4-38.8-38.8v-6.2c0-21.4,17.4-38.8,38.8-38.8H-450.5z"/>
<g>
	<path class="st3" d="M1128.9,365.9L1128.9,365.9c0.4-0.6,0.8-1.1,1.2-1.7c-6.6-1.5-13.7-1.2-20.6,1.1l-61.5,20.7
		c-3.3,1.1-6.3,2.6-9.1,4.5c18.5,15.8,28.4,40.8,23.7,66.5l0,0c-0.7,3.6-1.6,7.1-2.7,10.5c4.9,0.3,9.9-0.3,14.9-1.9l55.6-18.7
		C1113.4,423.5,1111.9,391.2,1128.9,365.9z"/>
	<path class="st3" d="M1191.6,382c8.1,24.2,2.5,49.7-12.8,68l40.8,27.4c17.8,12,41.9,7.2,53.9-10.6l3.5-5.2
		c12-17.8,7.2-41.9-10.6-53.9l-53.9-36.2c-8.8-5.9-19.2-7.7-28.9-5.9C1186.9,370.6,1189.6,376.1,1191.6,382L1191.6,382z"/>
	<path class="st3" d="M1160.6,395.7l-2-5.9c-0.6-1.6-1.2-3.2-2-4.7l-1.5,2.3c-9.1,13.6-8.5,30.8,0.1,43.5
		C1162.3,421,1164.7,408,1160.6,395.7z"/>
	<path class="st3" d="M992.5,448.9L992.5,448.9c-5.4-16-4.7-32.5,0.7-47.1l-58.5-10.6c-21.1-3.8-41.3,10.2-45.1,31.3l-1.1,6.1
		c-3.8,21.1,10.2,41.3,31.3,45.1l63.9,11.5c10.5,1.9,20.7-0.6,28.8-6.2C1003.6,471.3,996.6,461,992.5,448.9z"/>
	<path class="st3" d="M1021.9,416.7c-1,6-0.5,12.4,1.5,18.5l2,5.9c1,3.1,2.4,5.9,4.1,8.6l0.3-1.8
		C1032,436.4,1028.7,425.2,1021.9,416.7z"/>
	<path class="st4" d="M1191.6,382L1191.6,382c-2-5.9-4.7-11.4-8-16.4c-9.8,1.9-19,7.5-25,16.5l-2,2.9c0.7,1.5,1.4,3.1,2,4.7l2,5.9
		c4.1,12.3,1.7,25.3-5.3,35.1c-4.6,6.4-11.1,11.4-19.1,14.1l-5.9,2l-55.6,18.7c-4.9,1.7-10,2.3-14.9,1.9c-3.7,10.6-9.7,20-17.5,27.5
		c12.7,3.2,26.5,3,39.9-1.5l64.8-21.8c2.7-0.9,5.2-1.9,7.7-3.1c9.5-4.5,17.7-10.9,24.1-18.6C1194,431.7,1199.7,406.2,1191.6,382z"/>
	<path class="st4" d="M1283.9,384.8l-56.8-38.1c-21.6-14.5-48.4-15.5-70.3-5c-10.4,5-19.7,12.6-26.8,22.6c-0.4,0.6-0.8,1.1-1.2,1.7
		v0c-17,25.3-15.5,57.6,1.4,81l5.9-2c8-2.7,14.5-7.7,19.1-14.1c-8.7-12.7-9.2-29.9-0.1-43.5l1.5-2.3l2-2.9c6-9,15.2-14.6,25-16.5
		c9.7-1.8,20.1,0,28.9,5.9l53.9,36.2c17.8,12,22.5,36.1,10.6,53.9l-3.5,5.2c-12,17.8-36.1,22.5-53.9,10.6l-40.8-27.4
		c-6.4,7.7-14.6,14.1-24.1,18.6l50.2,33.7c32.5,21.8,76.5,13.2,98.3-19.3l0,0C1325,450.6,1316.4,406.6,1283.9,384.8z"/>
	<path class="st4" d="M1101.9,337.5l-64.8,21.8c-10.5,3.5-19.6,9.2-27,16.5c-7.5,7.4-13.3,16.3-16.9,26.1
		c-5.4,14.6-6.1,31.2-0.7,47.1l0,0c4.1,12.1,11.1,22.3,20,30.3c8.3-5.7,14.4-14.5,16.3-25.1l0.8-4.3c-1.7-2.6-3.1-5.5-4.1-8.6
		l-2-5.9c-2.1-6.2-2.5-12.5-1.5-18.5c1.7-10.6,7.7-20.1,16.9-26.2c2.8-1.8,5.8-3.3,9.1-4.5l61.5-20.7c6.9-2.3,14-2.6,20.6-1.1
		c7.1-10,16.4-17.6,26.8-22.6C1140.4,333.2,1120.7,331.1,1101.9,337.5z"/>
	<path class="st4" d="M1038.8,390.5c-9.1,6-15.1,15.6-16.9,26.2c6.8,8.5,10,19.7,8,31.2l-0.3,1.8l-0.8,4.3
		c-1.9,10.6-8,19.5-16.3,25.1c-8.1,5.6-18.4,8-28.8,6.2l-63.9-11.5c-21.1-3.8-35.1-24-31.3-45.1l1.1-6.1c3.8-21.1,24-35.1,45.1-31.3
		l58.5,10.6c3.6-9.8,9.4-18.7,16.9-26.1c-1.5-0.4-3.1-0.7-4.7-1l-67.3-12.2c-38.5-7-75.3,18.6-82.3,57.1v0
		c-7,38.5,18.6,75.3,57.1,82.3l67.3,12.2c23.4,4.2,46.2-3.6,62.1-19.1c7.7-7.5,13.8-16.9,17.5-27.5c1.2-3.4,2.1-6.9,2.7-10.5l0,0
		C1067.2,431.3,1057.3,406.3,1038.8,390.5z"/>
</g>
<g>
	<path class="st3" d="M614.1,347.6c1.6-3.5,2.7-7.2,3.2-10.9c-5.1,6-8.5,13.7-9.2,22.2l0,0.1c1.2-1.8,2.4-3.7,3.3-5.8L614.1,347.6z"
		/>
	<path class="st3" d="M453,276L453,276c9-19.3,25.6-32.7,44.6-38.1c-1-1.8-2.2-3.6-3.5-5.3l-3.9-4.9c-13.3-16.8-37.7-19.7-54.5-6.4
		l-50.9,40.2c-16.8,13.3-19.7,37.7-6.4,54.5l3.9,4.9c13.3,16.8,37.7,19.7,54.5,6.4l10.8-8.6C445,304.8,446.5,289.9,453,276z"/>
	<path class="st3" d="M643.4,364.6L643.4,364.6c-5.8,12.5-14.9,22.6-25.7,29.6c6.4,7.1,15.5,11.8,25.7,12.6l64.7,5
		c21.4,1.7,40.1-14.3,41.7-35.7l0.5-6.2c1.7-21.4-14.3-40.1-35.7-41.7l-64.7-5c-0.3,0-0.6,0-0.9,0
		C651.3,336.7,649.7,351.2,643.4,364.6z"/>
	<path class="st3" d="M499.8,270.7c-6.3,3.9-11.6,9.5-14.9,16.7l-1.4,3l4.2-3.3C493.3,282.6,497.3,276.9,499.8,270.7z"/>
	<path class="st3" d="M574.3,359.4L574.3,359.4c1.8-23.3,14.7-43.1,33.1-54.6c-3.3-3.6-7.4-6.6-12.1-8.8l-58.9-27.4
		c-1.3-0.6-2.7-1.1-4-1.6c-3.2,15.9-11.8,30.8-25.5,41.7l-23.8,18.8c3.8,7.3,10,13.4,18,17.1l58.9,27.4c4.9,2.3,10,3.4,15,3.6
		C574.1,370.4,573.9,364.9,574.3,359.4z"/>
	<path class="st4" d="M718.6,299.5l-68.2-5.3c-4.4-0.3-8.8-0.3-13,0.2c5.9,8.6,9.9,18.4,11.6,28.7c0.3,0,0.6,0,0.9,0l64.7,5
		c21.4,1.7,37.4,20.3,35.7,41.7l-0.5,6.2c-1.7,21.4-20.3,37.4-41.7,35.7l-64.7-5c-10.3-0.8-19.3-5.5-25.7-12.6
		c-6.9-7.6-10.8-18-10-29.1l0.5-6.1l0-0.1c0.7-8.5,4-16.2,9.2-22.2c1.7-11.6-2.1-23.4-10-31.9c-18.4,11.5-31.3,31.3-33.1,54.6l0,0
		c-0.4,5.6-0.2,11,0.6,16.3c1.7,10.8,5.8,20.8,11.8,29.5c11.7,16.9,30.6,28.6,52.7,30.3l68.2,5.3c39,3,73.1-26.1,76.1-65.1l0,0
		C786.7,336.6,757.6,302.5,718.6,299.5z"/>
	<path class="st4" d="M649,323.1c-1.7-10.3-5.7-20.1-11.6-28.7c-6.9-10-16.5-18.4-28.3-23.9l-62-28.8c-5-2.3-10.1-4-15.2-5.1
		c2.4,10,2.6,20.4,0.6,30.4c1.4,0.5,2.7,1,4,1.6l58.9,27.4c4.7,2.2,8.8,5.2,12.1,8.8c7.9,8.5,11.6,20.3,10,31.9
		c-0.5,3.7-1.6,7.3-3.2,10.9l-2.6,5.7c-1,2-2.1,4-3.3,5.8l-0.5,6.1c-0.9,11.1,3,21.5,10,29.1c10.8-7,19.9-17,25.7-29.6l0,0
		C649.7,351.2,651.3,336.7,649,323.1z"/>
	<path class="st4" d="M531.9,236.6c-2.3-9.7-6.7-19.1-13.3-27.4l0,0c-24.3-30.7-68.8-35.9-99.5-11.7l-53.6,42.4
		c-30.7,24.3-35.9,68.8-11.7,99.5l0,0c24.3,30.7,68.8,35.9,99.5,11.7l5.9-4.6c-5.8-8.3-9.7-17.8-11.6-27.7l-10.8,8.6
		c-16.8,13.3-41.2,10.4-54.5-6.4l-3.9-4.9c-13.3-16.8-10.4-41.2,6.4-54.5l50.9-40.2c16.8-13.3,41.2-10.4,54.5,6.4l3.9,4.9
		c1.3,1.7,2.5,3.5,3.5,5.3c5.7,10.3,6.3,22.3,2.2,32.8c-2.4,6.2-6.5,11.9-12.1,16.4l-4.2,3.3l-1.2,2.7c-5.3,11.4-4.6,24.1,0.8,34.5
		l23.8-18.8c13.7-10.9,22.3-25.8,25.5-41.7C534.4,257,534.3,246.6,531.9,236.6z"/>
	<path class="st4" d="M575,375.6c-5.1-0.2-10.2-1.3-15-3.6l-58.9-27.4c-8-3.7-14.2-9.9-18-17.1c-5.4-10.4-6.2-23-0.8-34.5l1.2-2.7
		l1.4-3c3.3-7.2,8.6-12.9,14.9-16.7c4.1-10.5,3.5-22.6-2.2-32.8c-19,5.5-35.6,18.8-44.6,38.1l0,0c-6.5,13.9-8,28.8-5.4,42.8
		c1.8,9.9,5.8,19.4,11.6,27.7c6.9,9.9,16.4,18.2,28.2,23.7l62,28.8c12.1,5.6,25,7.6,37.4,6.2C580.7,396.5,576.6,386.4,575,375.6z"/>
</g>
<path class="st4" d="M381.8,272.4L205,233c-7.8-1.7-15.5,3.2-17.2,11l0,0c-1.7,7.8,3.2,15.5,11,17.2l176.8,39.4
	c7.8,1.7,15.5-3.2,17.2-11v0C394.5,281.8,389.6,274.1,381.8,272.4z"/>
<path class="st4" d="M907.9,403.1l-179.6-23.3c-7.9-1-15.2,4.6-16.2,12.5v0c-1,7.9,4.6,15.2,12.5,16.2l179.6,23.3
	c7.9,1,15.2-4.6,16.2-12.5v0C921.4,411.4,915.8,404.1,907.9,403.1z"/>
<path class="st4" d="M1450.6,418.2l-180.7,12.3c-8,0.5-14,7.4-13.4,15.4v0c0.5,8,7.4,14,15.4,13.4l180.7-12.3
	c8-0.5,14-7.4,13.4-15.4v0C1465.5,423.7,1458.6,417.7,1450.6,418.2z"/>
<path class="st4" d="M574.3,999.4L574.3,999.4c-3,39,26.1,73.1,65.1,76.1l68.2,5.3c39,3,73.1-26.1,76.1-65.1l0,0
	c3-39-26.1-73.1-65.1-76.1l-68.2-5.3C611.4,931.2,577.4,960.4,574.3,999.4z M714.6,968.2c21.4,1.7,37.4,20.3,35.7,41.7l-0.5,6.2
	c-1.7,21.4-20.3,37.4-41.7,35.7l-64.7-5c-21.4-1.7-37.4-20.3-35.7-41.7l0.5-6.2c1.7-21.4,20.3-37.4,41.7-35.7L714.6,968.2z"/>
<path class="st4" d="M992.5,1088.9L992.5,1088.9c12.5,37.1,52.6,57,89.7,44.6l64.8-21.8c37.1-12.5,57-52.6,44.6-89.7l0,0
	c-12.5-37.1-52.6-57-89.7-44.6l-64.8,21.8C1000,1011.7,980,1051.9,992.5,1088.9z M1109.4,1005.4c20.3-6.8,42.3,4.1,49.2,24.4l2,5.9
	c6.8,20.3-4.1,42.3-24.4,49.2l-61.5,20.7c-20.3,6.8-42.3-4.1-49.2-24.4l-2-5.9c-6.8-20.3,4.1-42.3,24.4-49.2L1109.4,1005.4z"/>
<path class="st4" d="M1128.9,1005.9L1128.9,1005.9c-21.8,32.5-13.2,76.5,19.3,98.3l56.8,38.1c32.5,21.8,76.5,13.2,98.3-19.3l0,0
	c21.8-32.5,13.2-76.5-19.3-98.3l-56.8-38.1C1194.7,964.8,1150.7,973.5,1128.9,1005.9z M1266.4,1047.8c17.8,12,22.5,36.1,10.6,53.9
	l-3.5,5.2c-12,17.8-36.1,22.5-53.9,10.6l-53.9-36.2c-17.8-12-22.5-36.1-10.6-53.9l3.5-5.2c12-17.8,36.1-22.5,53.9-10.6
	L1266.4,1047.8z"/>
<path class="st4" d="M453,916L453,916c-16.5,35.5-1.1,77.6,34.3,94.1l62,28.8c35.5,16.5,77.6,1.1,94.1-34.3l0,0
	c16.5-35.5,1.1-77.6-34.3-94.1l-62-28.8C511.6,865.2,469.5,880.5,453,916z M595.3,936c19.4,9,27.9,32.1,18.8,51.6l-2.6,5.7
	c-9,19.4-32.1,27.9-51.6,18.8l-58.9-27.4c-19.4-9-27.9-32.1-18.8-51.6l2.6-5.7c9-19.4,32.1-27.9,51.6-18.8L595.3,936z"/>
<path class="st4" d="M855.9,1059.6L855.9,1059.6c-7,38.5,18.6,75.3,57.1,82.3l67.3,12.2c38.5,7,75.3-18.6,82.3-57.1v0
	c7-38.5-18.6-75.3-57.1-82.3l-67.3-12.2C899.7,995.6,862.8,1021.1,855.9,1059.6z M998.6,1042.8c21.1,3.8,35.1,24,31.3,45.1l-1.1,6.1
	c-3.8,21.1-24,35.1-45.1,31.3l-63.9-11.5c-21.1-3.8-35.1-24-31.3-45.1l1.1-6.1c3.8-21.1,24-35.1,45.1-31.3L998.6,1042.8z"/>
<path class="st4" d="M518.6,849.2L518.6,849.2c-24.3-30.7-68.8-35.9-99.5-11.7l-53.6,42.4c-30.7,24.3-35.9,68.8-11.7,99.5l0,0
	c24.3,30.7,68.8,35.9,99.5,11.7l53.6-42.4C537.6,924.4,542.8,879.9,518.6,849.2z M436.7,967.3c-16.8,13.3-41.2,10.4-54.5-6.4
	l-3.9-4.9c-13.3-16.8-10.4-41.2,6.4-54.5l50.9-40.2c16.8-13.3,41.2-10.4,54.5,6.4l3.9,4.9c13.3,16.8,10.4,41.2-6.4,54.5L436.7,967.3
	z"/>
<path class="st4" d="M907.9,1043.1l-179.6-23.3c-7.9-1-15.2,4.6-16.2,12.5v0c-1,7.9,4.6,15.2,12.5,16.2l179.6,23.3
	c7.9,1,15.2-4.6,16.2-12.5v0C921.4,1051.4,915.8,1044.1,907.9,1043.1z"/>
<path class="st4" d="M1450.6,1058.2l-180.7,12.3c-8,0.5-14,7.4-13.4,15.4l0,0c0.5,8,7.4,14,15.4,13.4l180.7-12.3
	c8-0.5,14-7.4,13.4-15.4l0,0C1465.5,1063.7,1458.6,1057.7,1450.6,1058.2z"/>
</svg>
