<?xml version="1.0" encoding="utf-8"?>
<!-- Generator: Adobe Illustrator 22.0.1, SVG Export Plug-In . SVG Version: 6.00 Build 0)  -->
<svg version="1.1" id="Layer_1" xmlns="http://www.w3.org/2000/svg" xmlns:xlink="http://www.w3.org/1999/xlink" x="0px" y="0px"
	 viewBox="0 0 1340 630" style="enable-background:new 0 0 1340 630;" xml:space="preserve">
<style type="text/css">
	.st0{fill:#DD796F;}
	.st1{fill:#424143;}
	.st2{fill:#F2F2F2;}
	.st3{fill:#564D4D;}
	.st4{fill:#414143;stroke:#000000;stroke-miterlimit:10;}
	.st5{fill:#84CE9B;}
	.st6{fill:none;stroke:#000000;stroke-miterlimit:10;}
	.st7{fill:#CECEC6;}
	.st8{fill:#CECEC6;stroke:#000000;stroke-miterlimit:10;}
	.st9{fill:none;}
</style>
<rect x="-101" y="67" class="st0" width="1610" height="226"/>
<rect x="208.5" y="103.8" class="st1" width="88.5" height="37.1"/>
<path class="st2" d="M280.5,140.9h-58.1c-7.5,0-13.5-6.1-13.5-13.5l0,0c0-13,10.5-23.5,23.5-23.5H276c11.5,0,20.8,9.3,20.8,20.8l0,0
	C296.7,133.7,289.4,140.9,280.5,140.9z"/>
<rect x="-95" y="-619" class="st3" width="1599" height="248"/>
<rect x="-42" y="871" class="st3" width="1518" height="389"/>
<path class="st4" d="M-356.1,342.8l-0.2-0.3c-8.6-14.9-9-32.9-2-48.7c2.4-5.3,3.6-11.3,3.2-17.6c-1.1-19.5-17.2-35.1-36.7-35.7
	c-21.5-0.7-39.2,16.6-39.2,38c0,6.1,1.4,11.8,4,16.9c8,16.1,8.1,35,0,51.1l0,0l-56.9,81.9c-3.6,5.2-5.1,11.6-4.2,17.8l5.5,36.5
	c1.1,7.1,8.4,11.3,15.1,8.8l0,0l-0.7-36.9c-0.2-9.1,3.1-17.8,9.3-24.5l15.3-16.6c4-4.3,11.2-1.4,11.1,4.5l-5.2,203.1
	c-0.1,5.2,4,9.4,9.2,9.4h8.6L-399,525c0.6-3.2,3.4-5.5,6.7-5.5h14.1c3.7,0,6.9,2.6,7.7,6.2l23.6,104.8h9.9c5.4,0,9.7-4.6,9.4-10
	L-341.8,419c-0.3-3.6,4.2-5.6,6.7-2.9l15.9,17.3c6,6.5,9.2,15.1,9,23.9l-0.7,37.3l0,0c6.7,2.6,14-1.7,15.1-8.8l5.9-39.3
	c0.7-4.4-0.4-9-3-12.7L-356.1,342.8z"/>
<path class="st5" d="M266.2,140.7L266.2,140.7c-10.6,0-20.3,1.9-20.3-10.6v-8.4c0-9.6,6.6-17.4,14.8-17.4h9.3
	c10,0,18.2,9.5,18.2,21.3l0,0C288.2,140.6,279,140.7,266.2,140.7z"/>
<g>
	<g id="Layer_6">
		<g>
			<line class="st6" x1="-83.5" y1="-118.2" x2="1449.5" y2="-118.2"/>
		</g>
		<g>
			<line class="st6" x1="-83.5" y1="-81.2" x2="1449.5" y2="-81.2"/>
		</g>
		<g>
			<line class="st6" x1="-83.5" y1="-44.2" x2="1449.5" y2="-44.2"/>
		</g>
		<g>
			<line class="st6" x1="-83.5" y1="-7.2" x2="1449.5" y2="-7.2"/>
		</g>
		<g>
			<line class="st6" x1="-83.5" y1="29.8" x2="1449.5" y2="29.8"/>
		</g>
		<g>
			<line class="st6" x1="-83.5" y1="66.8" x2="1449.5" y2="66.8"/>
		</g>
		<g>
			<line class="st6" x1="-83.5" y1="103.8" x2="1449.5" y2="103.8"/>
		</g>
		<g>
			<line class="st6" x1="-83.5" y1="140.8" x2="1449.5" y2="140.8"/>
		</g>
		<g>
			<line class="st6" x1="-83.5" y1="177.8" x2="1449.5" y2="177.8"/>
		</g>
		<g>
			<line class="st6" x1="-83.5" y1="214.8" x2="1449.5" y2="214.8"/>
		</g>
		<line class="st6" x1="-13" y1="-118.1" x2="-13" y2="-158.8"/>
		<line class="st6" x1="75" y1="-118.1" x2="75" y2="-158.8"/>
		<line class="st6" x1="162.5" y1="-118.7" x2="162.5" y2="-158.8"/>
		<line class="st6" x1="251.5" y1="-118.7" x2="251.5" y2="-158.8"/>
		<line class="st6" x1="340" y1="-118.1" x2="340" y2="-158.8"/>
		<line class="st6" x1="428" y1="-118.1" x2="428" y2="-158.8"/>
		<line class="st6" x1="515.5" y1="-118.7" x2="515.5" y2="-158.8"/>
		<line class="st6" x1="604.5" y1="-118.7" x2="604.5" y2="-159.4"/>
		<line class="st6" x1="32" y1="-81.1" x2="32" y2="-118.2"/>
		<line class="st6" x1="119.5" y1="-80.7" x2="119.5" y2="-117.7"/>
		<line class="st6" x1="208.5" y1="-80.7" x2="208.5" y2="-117.7"/>
		<line class="st6" x1="297" y1="-81.1" x2="297" y2="-118.2"/>
		<line class="st6" x1="385" y1="-81.1" x2="385" y2="-118.2"/>
		<line class="st6" x1="472.5" y1="-80.7" x2="472.5" y2="-117.7"/>
		<line class="st6" x1="561.5" y1="-80.7" x2="561.5" y2="-117.7"/>
		<line class="st6" x1="650.5" y1="-80.7" x2="650.5" y2="-117.7"/>
		<line class="st6" x1="-13" y1="-44.1" x2="-13" y2="-81.2"/>
		<line class="st6" x1="75" y1="-44.1" x2="75" y2="-81.2"/>
		<line class="st6" x1="162.5" y1="-43.7" x2="162.5" y2="-80.7"/>
		<line class="st6" x1="251.5" y1="-43.7" x2="251.5" y2="-80.7"/>
		<line class="st6" x1="340" y1="-44.1" x2="340" y2="-81.2"/>
		<line class="st6" x1="428" y1="-44.1" x2="428" y2="-81.2"/>
		<line class="st6" x1="515.5" y1="-43.7" x2="515.5" y2="-80.7"/>
		<line class="st6" x1="604.5" y1="-43.7" x2="604.5" y2="-80.7"/>
		<line class="st6" x1="32" y1="-7.1" x2="32" y2="-44.2"/>
		<line class="st6" x1="119.5" y1="-6.7" x2="119.5" y2="-43.7"/>
		<line class="st6" x1="208.5" y1="-6.7" x2="208.5" y2="-43.7"/>
		<line class="st6" x1="297" y1="-7.1" x2="297" y2="-44.2"/>
		<line class="st6" x1="385" y1="-7.1" x2="385" y2="-44.2"/>
		<line class="st6" x1="472.5" y1="-6.7" x2="472.5" y2="-43.7"/>
		<line class="st6" x1="561.5" y1="-6.7" x2="561.5" y2="-43.7"/>
		<line class="st6" x1="650.5" y1="-6.7" x2="650.5" y2="-43.7"/>
		<line class="st6" x1="-13" y1="29.9" x2="-13" y2="-7.2"/>
		<line class="st6" x1="75" y1="29.9" x2="75" y2="-7.2"/>
		<line class="st6" x1="162.5" y1="30.3" x2="162.5" y2="-6.7"/>
		<line class="st6" x1="251.5" y1="30.3" x2="251.5" y2="-6.7"/>
		<line class="st6" x1="340" y1="29.9" x2="340" y2="-7.2"/>
		<line class="st6" x1="428" y1="29.9" x2="428" y2="-7.2"/>
		<line class="st6" x1="515.5" y1="30.3" x2="515.5" y2="-6.7"/>
		<line class="st6" x1="604.5" y1="30.3" x2="604.5" y2="-6.7"/>
		<line class="st6" x1="32" y1="66.9" x2="32" y2="29.8"/>
		<line class="st6" x1="119.5" y1="67.3" x2="119.5" y2="30.3"/>
		<line class="st6" x1="208.5" y1="67.3" x2="208.5" y2="30.3"/>
		<line class="st6" x1="297" y1="66.9" x2="297" y2="29.8"/>
		<line class="st6" x1="385" y1="66.9" x2="385" y2="29.8"/>
		<line class="st6" x1="472.5" y1="67.3" x2="472.5" y2="30.3"/>
		<line class="st6" x1="561.5" y1="67.3" x2="561.5" y2="30.3"/>
		<line class="st6" x1="650.5" y1="67.3" x2="650.5" y2="30.3"/>
		<line class="st6" x1="32" y1="140.9" x2="32" y2="103.8"/>
		<line class="st6" x1="119.5" y1="141.3" x2="119.5" y2="104.3"/>
		<line class="st6" x1="208.5" y1="141.3" x2="208.5" y2="104.3"/>
		<line class="st6" x1="297" y1="140.9" x2="297" y2="103.8"/>
		<line class="st6" x1="385" y1="140.9" x2="385" y2="103.8"/>
		<line class="st6" x1="472.5" y1="141.3" x2="472.5" y2="104.3"/>
		<line class="st6" x1="561.5" y1="141.3" x2="561.5" y2="104.3"/>
		<line class="st6" x1="650.5" y1="141.3" x2="650.5" y2="104.3"/>
		<line class="st6" x1="32" y1="214.9" x2="32" y2="177.8"/>
		<line class="st6" x1="119.5" y1="215.3" x2="119.5" y2="178.3"/>
		<line class="st6" x1="208.5" y1="215.3" x2="208.5" y2="178.3"/>
		<line class="st6" x1="297" y1="214.9" x2="297" y2="177.8"/>
		<line class="st6" x1="385" y1="214.9" x2="385" y2="177.8"/>
		<line class="st6" x1="472.5" y1="215.3" x2="472.5" y2="178.3"/>
		<line class="st6" x1="561.5" y1="215.3" x2="561.5" y2="178.3"/>
		<line class="st6" x1="650.5" y1="215.3" x2="650.5" y2="178.3"/>
		<line class="st6" x1="-13" y1="255.5" x2="-13" y2="214.8"/>
		<line class="st6" x1="75" y1="255.5" x2="75" y2="214.8"/>
		<line class="st6" x1="162.5" y1="256" x2="162.5" y2="215.3"/>
		<line class="st6" x1="251.5" y1="256" x2="251.5" y2="215.3"/>
		<line class="st6" x1="340" y1="255.5" x2="340" y2="214.8"/>
		<line class="st6" x1="428" y1="255.5" x2="428" y2="214.8"/>
		<line class="st6" x1="515.5" y1="256" x2="515.5" y2="215.3"/>
		<line class="st6" x1="604.5" y1="256" x2="604.5" y2="215.3"/>
		<line class="st6" x1="-13" y1="103.9" x2="-13" y2="66.8"/>
		<line class="st6" x1="75" y1="103.9" x2="75" y2="66.8"/>
		<line class="st6" x1="162.5" y1="104.3" x2="162.5" y2="67.3"/>
		<line class="st6" x1="251.5" y1="104.3" x2="251.5" y2="67.3"/>
		<line class="st6" x1="340" y1="103.9" x2="340" y2="66.8"/>
		<line class="st6" x1="428" y1="103.9" x2="428" y2="66.8"/>
		<line class="st6" x1="515.5" y1="104.3" x2="515.5" y2="67.3"/>
		<line class="st6" x1="604.5" y1="104.3" x2="604.5" y2="67.3"/>
		<line class="st6" x1="-13" y1="177.9" x2="-13" y2="140.8"/>
		<line class="st6" x1="75" y1="177.9" x2="75" y2="140.8"/>
		<line class="st6" x1="162.5" y1="178.3" x2="162.5" y2="141.3"/>
		<line class="st6" x1="251.5" y1="178.3" x2="251.5" y2="141.3"/>
		<line class="st6" x1="340" y1="177.9" x2="340" y2="140.8"/>
		<line class="st6" x1="428" y1="177.9" x2="428" y2="140.8"/>
		<line class="st6" x1="515.5" y1="178.3" x2="515.5" y2="141.3"/>
		<line class="st6" x1="604.5" y1="178.3" x2="604.5" y2="141.3"/>
		<line class="st6" x1="698" y1="-118.1" x2="698" y2="-158.8"/>
		<line class="st6" x1="786" y1="-118.1" x2="786" y2="-158.8"/>
		<line class="st6" x1="873.5" y1="-118.7" x2="873.5" y2="-158.8"/>
		<line class="st6" x1="962.5" y1="-118.7" x2="962.5" y2="-158.8"/>
		<line class="st6" x1="1051" y1="-118.1" x2="1051" y2="-158.8"/>
		<line class="st6" x1="1139" y1="-118.1" x2="1139" y2="-158.8"/>
		<line class="st6" x1="1226.5" y1="-118.7" x2="1226.5" y2="-158.8"/>
		<line class="st6" x1="1315.5" y1="-118.7" x2="1315.5" y2="-159.4"/>
		<line class="st6" x1="743" y1="-81.1" x2="743" y2="-118.2"/>
		<line class="st6" x1="830.5" y1="-80.7" x2="830.5" y2="-117.7"/>
		<line class="st6" x1="919.5" y1="-80.7" x2="919.5" y2="-117.7"/>
		<line class="st6" x1="1008" y1="-81.1" x2="1008" y2="-118.2"/>
		<line class="st6" x1="1096" y1="-81.1" x2="1096" y2="-118.2"/>
		<line class="st6" x1="1183.5" y1="-80.7" x2="1183.5" y2="-117.7"/>
		<line class="st6" x1="1272.5" y1="-80.7" x2="1272.5" y2="-117.7"/>
		<line class="st6" x1="1361.5" y1="-80.7" x2="1361.5" y2="-117.7"/>
		<line class="st6" x1="698" y1="-44.1" x2="698" y2="-81.2"/>
		<line class="st6" x1="786" y1="-44.1" x2="786" y2="-81.2"/>
		<line class="st6" x1="873.5" y1="-43.7" x2="873.5" y2="-80.7"/>
		<line class="st6" x1="962.5" y1="-43.7" x2="962.5" y2="-80.7"/>
		<line class="st6" x1="1051" y1="-44.1" x2="1051" y2="-81.2"/>
		<line class="st6" x1="1139" y1="-44.1" x2="1139" y2="-81.2"/>
		<line class="st6" x1="1226.5" y1="-43.7" x2="1226.5" y2="-80.7"/>
		<line class="st6" x1="1315.5" y1="-43.7" x2="1315.5" y2="-80.7"/>
		<line class="st6" x1="743" y1="-7.1" x2="743" y2="-44.2"/>
		<line class="st6" x1="830.5" y1="-6.7" x2="830.5" y2="-43.7"/>
		<line class="st6" x1="919.5" y1="-6.7" x2="919.5" y2="-43.7"/>
		<line class="st6" x1="1008" y1="-7.1" x2="1008" y2="-44.2"/>
		<line class="st6" x1="1096" y1="-7.1" x2="1096" y2="-44.2"/>
		<line class="st6" x1="1183.5" y1="-6.7" x2="1183.5" y2="-43.7"/>
		<line class="st6" x1="1272.5" y1="-6.7" x2="1272.5" y2="-43.7"/>
		<line class="st6" x1="1361.5" y1="-6.7" x2="1361.5" y2="-43.7"/>
		<line class="st6" x1="698" y1="29.9" x2="698" y2="-7.2"/>
		<line class="st6" x1="786" y1="29.9" x2="786" y2="-7.2"/>
		<line class="st6" x1="873.5" y1="30.3" x2="873.5" y2="-6.7"/>
		<line class="st6" x1="962.5" y1="30.3" x2="962.5" y2="-6.7"/>
		<line class="st6" x1="1051" y1="29.9" x2="1051" y2="-7.2"/>
		<line class="st6" x1="1139" y1="29.9" x2="1139" y2="-7.2"/>
		<line class="st6" x1="1226.5" y1="30.3" x2="1226.5" y2="-6.7"/>
		<line class="st6" x1="1315.5" y1="30.3" x2="1315.5" y2="-6.7"/>
		<line class="st6" x1="743" y1="66.9" x2="743" y2="29.8"/>
		<line class="st6" x1="830.5" y1="67.3" x2="830.5" y2="30.3"/>
		<line class="st6" x1="919.5" y1="67.3" x2="919.5" y2="30.3"/>
		<line class="st6" x1="1008" y1="66.9" x2="1008" y2="29.8"/>
		<line class="st6" x1="1096" y1="66.9" x2="1096" y2="29.8"/>
		<line class="st6" x1="1183.5" y1="67.3" x2="1183.5" y2="30.3"/>
		<line class="st6" x1="1272.5" y1="67.3" x2="1272.5" y2="30.3"/>
		<line class="st6" x1="1361.5" y1="67.3" x2="1361.5" y2="30.3"/>
		<line class="st6" x1="743" y1="140.9" x2="743" y2="103.8"/>
		<line class="st6" x1="830.5" y1="141.3" x2="830.5" y2="104.3"/>
		<line class="st6" x1="919.5" y1="141.3" x2="919.5" y2="104.3"/>
		<line class="st6" x1="1008" y1="140.9" x2="1008" y2="103.8"/>
		<line class="st6" x1="1096" y1="140.9" x2="1096" y2="103.8"/>
		<line class="st6" x1="1183.5" y1="141.3" x2="1183.5" y2="104.3"/>
		<line class="st6" x1="1272.5" y1="141.3" x2="1272.5" y2="104.3"/>
		<line class="st6" x1="1361.5" y1="141.3" x2="1361.5" y2="104.3"/>
		<line class="st6" x1="743" y1="214.9" x2="743" y2="177.8"/>
		<line class="st6" x1="830.5" y1="215.3" x2="830.5" y2="178.3"/>
		<line class="st6" x1="919.5" y1="215.3" x2="919.5" y2="178.3"/>
		<line class="st6" x1="1008" y1="214.9" x2="1008" y2="177.8"/>
		<line class="st6" x1="1096" y1="214.9" x2="1096" y2="177.8"/>
		<line class="st6" x1="1183.5" y1="215.3" x2="1183.5" y2="178.3"/>
		<line class="st6" x1="1272.5" y1="215.3" x2="1272.5" y2="178.3"/>
		<line class="st6" x1="1361.5" y1="215.3" x2="1361.5" y2="178.3"/>
		<line class="st6" x1="698" y1="255.5" x2="698" y2="214.8"/>
		<line class="st6" x1="786" y1="255.5" x2="786" y2="214.8"/>
		<line class="st6" x1="873.5" y1="256" x2="873.5" y2="215.3"/>
		<line class="st6" x1="962.5" y1="256" x2="962.5" y2="215.3"/>
		<line class="st6" x1="1051" y1="255.5" x2="1051" y2="214.8"/>
		<line class="st6" x1="1139" y1="255.5" x2="1139" y2="214.8"/>
		<line class="st6" x1="1226.5" y1="256" x2="1226.5" y2="215.3"/>
		<line class="st6" x1="1315.5" y1="256" x2="1315.5" y2="215.3"/>
		<line class="st6" x1="698" y1="103.9" x2="698" y2="66.8"/>
		<line class="st6" x1="786" y1="103.9" x2="786" y2="66.8"/>
		<line class="st6" x1="873.5" y1="104.3" x2="873.5" y2="67.3"/>
		<line class="st6" x1="962.5" y1="104.3" x2="962.5" y2="67.3"/>
		<line class="st6" x1="1051" y1="103.9" x2="1051" y2="66.8"/>
		<line class="st6" x1="1139" y1="103.9" x2="1139" y2="66.8"/>
		<line class="st6" x1="1226.5" y1="104.3" x2="1226.5" y2="67.3"/>
		<line class="st6" x1="1315.5" y1="104.3" x2="1315.5" y2="67.3"/>
		<line class="st6" x1="698" y1="177.9" x2="698" y2="140.8"/>
		<line class="st6" x1="786" y1="177.9" x2="786" y2="140.8"/>
		<line class="st6" x1="873.5" y1="178.3" x2="873.5" y2="141.3"/>
		<line class="st6" x1="962.5" y1="178.3" x2="962.5" y2="141.3"/>
		<line class="st6" x1="1051" y1="177.9" x2="1051" y2="140.8"/>
		<line class="st6" x1="1139" y1="177.9" x2="1139" y2="140.8"/>
		<line class="st6" x1="1226.5" y1="178.3" x2="1226.5" y2="141.3"/>
		<line class="st6" x1="1315.5" y1="178.3" x2="1315.5" y2="141.3"/>
	</g>
	<g id="Layer_6_1_">
		<g>
			<line class="st6" x1="-83.5" y1="255.8" x2="1449.5" y2="255.8"/>
		</g>
		<g>
			<line class="st6" x1="-83.5" y1="292.8" x2="1449.5" y2="292.8"/>
		</g>
		<g>
			<line class="st6" x1="-83.5" y1="329.8" x2="1449.5" y2="329.8"/>
		</g>
		<g>
			<line class="st6" x1="-83.5" y1="366.8" x2="1449.5" y2="366.8"/>
		</g>
		<g>
			<line class="st6" x1="-83.5" y1="403.8" x2="1449.5" y2="403.8"/>
		</g>
		<g>
			<line class="st6" x1="-83.5" y1="440.8" x2="1449.5" y2="440.8"/>
		</g>
		<g>
			<line class="st6" x1="-83.5" y1="477.8" x2="1449.5" y2="477.8"/>
		</g>
		<g>
			<line class="st6" x1="-83.5" y1="514.8" x2="1449.5" y2="514.8"/>
		</g>
		<g>
			<line class="st6" x1="-83.5" y1="551.8" x2="1449.5" y2="551.8"/>
		</g>
		<g>
			<line class="st6" x1="-83.5" y1="588.8" x2="1449.5" y2="588.8"/>
		</g>
		<path class="st6" d="M-13,215.2"/>
		<path class="st6" d="M-13,255.9"/>
		<path class="st6" d="M75,215.2"/>
		<path class="st6" d="M75,255.9"/>
		<path class="st6" d="M162.5,215.2"/>
		<path class="st6" d="M162.5,255.3"/>
		<path class="st6" d="M251.5,215.2"/>
		<path class="st6" d="M251.5,255.3"/>
		<path class="st6" d="M340,215.2"/>
		<path class="st6" d="M340,255.9"/>
		<path class="st6" d="M428,215.2"/>
		<path class="st6" d="M428,255.9"/>
		<path class="st6" d="M604.5,214.6"/>
		<path class="st6" d="M604.5,255.3"/>
		<line class="st6" x1="32" y1="292.9" x2="32" y2="255.8"/>
		<line class="st6" x1="119.5" y1="293.3" x2="119.5" y2="256.3"/>
		<line class="st6" x1="208.5" y1="293.3" x2="208.5" y2="256.3"/>
		<line class="st6" x1="297" y1="292.9" x2="297" y2="255.8"/>
		<line class="st6" x1="385" y1="292.9" x2="385" y2="255.8"/>
		<line class="st6" x1="472.5" y1="293.3" x2="472.5" y2="256.3"/>
		<line class="st6" x1="561.5" y1="293.3" x2="561.5" y2="256.3"/>
		<line class="st6" x1="650.5" y1="293.3" x2="650.5" y2="256.3"/>
		<line class="st6" x1="-13" y1="329.9" x2="-13" y2="292.8"/>
		<line class="st6" x1="75" y1="329.9" x2="75" y2="292.8"/>
		<line class="st6" x1="162.5" y1="330.3" x2="162.5" y2="293.3"/>
		<line class="st6" x1="251.5" y1="330.3" x2="251.5" y2="293.3"/>
		<line class="st6" x1="340" y1="329.9" x2="340" y2="292.8"/>
		<line class="st6" x1="428" y1="329.9" x2="428" y2="292.8"/>
		<line class="st6" x1="515.5" y1="330.3" x2="515.5" y2="293.3"/>
		<line class="st6" x1="604.5" y1="330.3" x2="604.5" y2="293.3"/>
		<line class="st6" x1="32" y1="366.9" x2="32" y2="329.8"/>
		<line class="st6" x1="119.5" y1="367.3" x2="119.5" y2="330.3"/>
		<line class="st6" x1="208.5" y1="367.3" x2="208.5" y2="330.3"/>
		<line class="st6" x1="297" y1="366.9" x2="297" y2="329.8"/>
		<line class="st6" x1="385" y1="366.9" x2="385" y2="329.8"/>
		<line class="st6" x1="472.5" y1="367.3" x2="472.5" y2="330.3"/>
		<line class="st6" x1="561.5" y1="367.3" x2="561.5" y2="330.3"/>
		<line class="st6" x1="650.5" y1="367.3" x2="650.5" y2="330.3"/>
		<line class="st6" x1="-13" y1="403.9" x2="-13" y2="366.8"/>
		<line class="st6" x1="75" y1="403.9" x2="75" y2="366.8"/>
		<line class="st6" x1="162.5" y1="404.3" x2="162.5" y2="367.3"/>
		<line class="st6" x1="251.5" y1="404.3" x2="251.5" y2="367.3"/>
		<line class="st6" x1="340" y1="403.9" x2="340" y2="366.8"/>
		<line class="st6" x1="428" y1="403.9" x2="428" y2="366.8"/>
		<line class="st6" x1="515.5" y1="404.3" x2="515.5" y2="367.3"/>
		<line class="st6" x1="604.5" y1="404.3" x2="604.5" y2="367.3"/>
		<line class="st6" x1="32" y1="440.9" x2="32" y2="403.8"/>
		<line class="st6" x1="119.5" y1="441.3" x2="119.5" y2="404.3"/>
		<line class="st6" x1="208.5" y1="441.3" x2="208.5" y2="404.3"/>
		<line class="st6" x1="297" y1="440.9" x2="297" y2="403.8"/>
		<line class="st6" x1="385" y1="440.9" x2="385" y2="403.8"/>
		<line class="st6" x1="472.5" y1="441.3" x2="472.5" y2="404.3"/>
		<line class="st6" x1="561.5" y1="441.3" x2="561.5" y2="404.3"/>
		<line class="st6" x1="650.5" y1="441.3" x2="650.5" y2="404.3"/>
		<line class="st6" x1="32" y1="514.9" x2="32" y2="477.8"/>
		<line class="st6" x1="119.5" y1="515.3" x2="119.5" y2="478.3"/>
		<line class="st6" x1="208.5" y1="515.3" x2="208.5" y2="478.3"/>
		<line class="st6" x1="297" y1="514.9" x2="297" y2="477.8"/>
		<line class="st6" x1="385" y1="514.9" x2="385" y2="477.8"/>
		<line class="st6" x1="472.5" y1="515.3" x2="472.5" y2="478.3"/>
		<line class="st6" x1="561.5" y1="515.3" x2="561.5" y2="478.3"/>
		<line class="st6" x1="650.5" y1="515.3" x2="650.5" y2="478.3"/>
		<line class="st6" x1="32" y1="588.9" x2="32" y2="551.8"/>
		<line class="st6" x1="119.5" y1="589.3" x2="119.5" y2="552.3"/>
		<line class="st6" x1="208.5" y1="589.3" x2="208.5" y2="552.3"/>
		<line class="st6" x1="297" y1="588.9" x2="297" y2="551.8"/>
		<line class="st6" x1="385" y1="588.9" x2="385" y2="551.8"/>
		<line class="st6" x1="472.5" y1="589.3" x2="472.5" y2="552.3"/>
		<line class="st6" x1="561.5" y1="589.3" x2="561.5" y2="552.3"/>
		<line class="st6" x1="650.5" y1="589.3" x2="650.5" y2="552.3"/>
		<line class="st6" x1="-13" y1="635.7" x2="-13" y2="588.8"/>
		<line class="st6" x1="75" y1="635.7" x2="75" y2="588.8"/>
		<line class="st6" x1="162.5" y1="636.3" x2="162.5" y2="589.4"/>
		<line class="st6" x1="251.5" y1="636.3" x2="251.5" y2="589.4"/>
		<line class="st6" x1="340" y1="635.7" x2="340" y2="588.8"/>
		<line class="st6" x1="428" y1="635.7" x2="428" y2="588.8"/>
		<line class="st6" x1="515.5" y1="636.3" x2="515.5" y2="589.4"/>
		<line class="st6" x1="604.5" y1="636.3" x2="604.5" y2="589.4"/>
		<line class="st6" x1="-13" y1="477.9" x2="-13" y2="440.8"/>
		<line class="st6" x1="75" y1="477.9" x2="75" y2="440.8"/>
		<line class="st6" x1="162.5" y1="478.3" x2="162.5" y2="441.3"/>
		<line class="st6" x1="251.5" y1="478.3" x2="251.5" y2="441.3"/>
		<line class="st6" x1="340" y1="477.9" x2="340" y2="440.8"/>
		<line class="st6" x1="428" y1="477.9" x2="428" y2="440.8"/>
		<line class="st6" x1="515.5" y1="478.3" x2="515.5" y2="441.3"/>
		<line class="st6" x1="604.5" y1="478.3" x2="604.5" y2="441.3"/>
		<line class="st6" x1="-13" y1="551.9" x2="-13" y2="514.8"/>
		<line class="st6" x1="75" y1="551.9" x2="75" y2="514.8"/>
		<line class="st6" x1="162.5" y1="552.3" x2="162.5" y2="515.3"/>
		<line class="st6" x1="251.5" y1="552.3" x2="251.5" y2="515.3"/>
		<line class="st6" x1="340" y1="551.9" x2="340" y2="514.8"/>
		<line class="st6" x1="428" y1="551.9" x2="428" y2="514.8"/>
		<line class="st6" x1="515.5" y1="552.3" x2="515.5" y2="515.3"/>
		<line class="st6" x1="604.5" y1="552.3" x2="604.5" y2="515.3"/>
		<path class="st6" d="M698,215.2"/>
		<path class="st6" d="M698,255.9"/>
		<path class="st6" d="M786,215.2"/>
		<path class="st6" d="M786,255.9"/>
		<path class="st6" d="M873.5,215.2"/>
		<path class="st6" d="M873.5,255.3"/>
		<path class="st6" d="M962.5,215.2"/>
		<path class="st6" d="M962.5,255.3"/>
		<line class="st6" x1="1051" y1="255.9" x2="1051" y2="215.2"/>
		<path class="st6" d="M1139,215.2"/>
		<path class="st6" d="M1139,255.9"/>
		<path class="st6" d="M1226.5,215.2"/>
		<path class="st6" d="M1226.5,255.3"/>
		<path class="st6" d="M1315.5,214.6"/>
		<path class="st6" d="M1315.5,255.3"/>
		<line class="st6" x1="743" y1="292.9" x2="743" y2="255.8"/>
		<line class="st6" x1="830.5" y1="293.3" x2="830.5" y2="256.3"/>
		<line class="st6" x1="919.5" y1="293.3" x2="919.5" y2="256.3"/>
		<line class="st6" x1="1008" y1="292.9" x2="1008" y2="255.8"/>
		<line class="st6" x1="1096" y1="292.9" x2="1096" y2="255.8"/>
		<line class="st6" x1="1183.5" y1="293.3" x2="1183.5" y2="256.3"/>
		<line class="st6" x1="1272.5" y1="293.3" x2="1272.5" y2="256.3"/>
		<line class="st6" x1="1361.5" y1="293.3" x2="1361.5" y2="256.3"/>
		<line class="st6" x1="698" y1="329.9" x2="698" y2="292.8"/>
		<line class="st6" x1="786" y1="329.9" x2="786" y2="292.8"/>
		<line class="st6" x1="873.5" y1="330.3" x2="873.5" y2="293.3"/>
		<line class="st6" x1="962.5" y1="330.3" x2="962.5" y2="293.3"/>
		<line class="st6" x1="1051" y1="329.9" x2="1051" y2="292.8"/>
		<line class="st6" x1="1139" y1="329.9" x2="1139" y2="292.8"/>
		<line class="st6" x1="1226.5" y1="330.3" x2="1226.5" y2="293.3"/>
		<line class="st6" x1="1315.5" y1="330.3" x2="1315.5" y2="293.3"/>
		<line class="st6" x1="743" y1="366.9" x2="743" y2="329.8"/>
		<line class="st6" x1="830.5" y1="367.3" x2="830.5" y2="330.3"/>
		<line class="st6" x1="919.5" y1="367.3" x2="919.5" y2="330.3"/>
		<line class="st6" x1="1008" y1="366.9" x2="1008" y2="329.8"/>
		<line class="st6" x1="1096" y1="366.9" x2="1096" y2="329.8"/>
		<line class="st6" x1="1183.5" y1="367.3" x2="1183.5" y2="330.3"/>
		<line class="st6" x1="1272.5" y1="367.3" x2="1272.5" y2="330.3"/>
		<line class="st6" x1="1361.5" y1="367.3" x2="1361.5" y2="330.3"/>
		<line class="st6" x1="698" y1="403.9" x2="698" y2="366.8"/>
		<line class="st6" x1="786" y1="403.9" x2="786" y2="366.8"/>
		<line class="st6" x1="873.5" y1="404.3" x2="873.5" y2="367.3"/>
		<line class="st6" x1="962.5" y1="404.3" x2="962.5" y2="367.3"/>
		<line class="st6" x1="1051" y1="403.9" x2="1051" y2="366.8"/>
		<line class="st6" x1="1139" y1="403.9" x2="1139" y2="366.8"/>
		<line class="st6" x1="1226.5" y1="404.3" x2="1226.5" y2="367.3"/>
		<line class="st6" x1="1315.5" y1="404.3" x2="1315.5" y2="367.3"/>
		<line class="st6" x1="743" y1="440.9" x2="743" y2="403.8"/>
		<line class="st6" x1="830.5" y1="441.3" x2="830.5" y2="404.3"/>
		<line class="st6" x1="919.5" y1="441.3" x2="919.5" y2="404.3"/>
		<line class="st6" x1="1008" y1="440.9" x2="1008" y2="403.8"/>
		<line class="st6" x1="1096" y1="440.9" x2="1096" y2="403.8"/>
		<line class="st6" x1="1183.5" y1="441.3" x2="1183.5" y2="404.3"/>
		<line class="st6" x1="1272.5" y1="441.3" x2="1272.5" y2="404.3"/>
		<line class="st6" x1="1361.5" y1="441.3" x2="1361.5" y2="404.3"/>
		<line class="st6" x1="743" y1="514.9" x2="743" y2="477.8"/>
		<line class="st6" x1="830.5" y1="515.3" x2="830.5" y2="478.3"/>
		<line class="st6" x1="919.5" y1="515.3" x2="919.5" y2="478.3"/>
		<line class="st6" x1="1008" y1="514.9" x2="1008" y2="477.8"/>
		<line class="st6" x1="1096" y1="514.9" x2="1096" y2="477.8"/>
		<line class="st6" x1="1183.5" y1="515.3" x2="1183.5" y2="478.3"/>
		<line class="st6" x1="1272.5" y1="515.3" x2="1272.5" y2="478.3"/>
		<line class="st6" x1="1361.5" y1="515.3" x2="1361.5" y2="478.3"/>
		<line class="st6" x1="743" y1="588.9" x2="743" y2="551.8"/>
		<line class="st6" x1="830.5" y1="589.3" x2="830.5" y2="552.3"/>
		<line class="st6" x1="919.5" y1="589.3" x2="919.5" y2="552.3"/>
		<line class="st6" x1="1008" y1="588.9" x2="1008" y2="551.8"/>
		<line class="st6" x1="1096" y1="588.9" x2="1096" y2="551.8"/>
		<line class="st6" x1="1183.5" y1="589.3" x2="1183.5" y2="552.3"/>
		<line class="st6" x1="1272.5" y1="589.3" x2="1272.5" y2="552.3"/>
		<line class="st6" x1="1361.5" y1="589.3" x2="1361.5" y2="552.3"/>
		<line class="st6" x1="698" y1="635.7" x2="698" y2="588.8"/>
		<line class="st6" x1="786" y1="635.7" x2="786" y2="588.8"/>
		<line class="st6" x1="873.5" y1="636.3" x2="873.5" y2="589.4"/>
		<line class="st6" x1="962.5" y1="636.3" x2="962.5" y2="589.4"/>
		<line class="st6" x1="1051" y1="635.7" x2="1051" y2="588.8"/>
		<line class="st6" x1="1139" y1="635.7" x2="1139" y2="588.8"/>
		<line class="st6" x1="1226.5" y1="636.3" x2="1226.5" y2="589.4"/>
		<line class="st6" x1="1315.5" y1="636.3" x2="1315.5" y2="589.4"/>
		<line class="st6" x1="698" y1="477.9" x2="698" y2="440.8"/>
		<line class="st6" x1="786" y1="477.9" x2="786" y2="440.8"/>
		<line class="st6" x1="873.5" y1="478.3" x2="873.5" y2="441.3"/>
		<line class="st6" x1="962.5" y1="478.3" x2="962.5" y2="441.3"/>
		<line class="st6" x1="1051" y1="477.9" x2="1051" y2="440.8"/>
		<line class="st6" x1="1139" y1="477.9" x2="1139" y2="440.8"/>
		<line class="st6" x1="1226.5" y1="478.3" x2="1226.5" y2="441.3"/>
		<line class="st6" x1="1315.5" y1="478.3" x2="1315.5" y2="441.3"/>
		<line class="st6" x1="698" y1="551.9" x2="698" y2="514.8"/>
		<line class="st6" x1="786" y1="551.9" x2="786" y2="514.8"/>
		<line class="st6" x1="873.5" y1="552.3" x2="873.5" y2="515.3"/>
		<line class="st6" x1="962.5" y1="552.3" x2="962.5" y2="515.3"/>
		<line class="st6" x1="1051" y1="551.9" x2="1051" y2="514.8"/>
		<line class="st6" x1="1139" y1="551.9" x2="1139" y2="514.8"/>
		<line class="st6" x1="1226.5" y1="552.3" x2="1226.5" y2="515.3"/>
		<line class="st6" x1="1315.5" y1="552.3" x2="1315.5" y2="515.3"/>
	</g>
</g>
<circle class="st1" cx="267.1" cy="123.9" r="8.1"/>
<g>
	<path class="st7" d="M2600.4,878.3L2600.4,878.3c-58.9,0-106.6-47.7-106.6-106.6v-103c0-58.9,47.7-106.6,106.6-106.6l0,0
		c58.9,0,106.6,47.7,106.6,106.6v103C2707,830.5,2659.3,878.3,2600.4,878.3z"/>
	<path d="M2600.4,878.8c-59.1,0-107.1-48.1-107.1-107.1v-103c0-59.1,48.1-107.1,107.1-107.1s107.1,48.1,107.1,107.1v103
		C2707.5,830.7,2659.5,878.8,2600.4,878.8z M2600.4,562.5c-58.5,0-106.1,47.6-106.1,106.1v103c0,58.5,47.6,106.1,106.1,106.1
		s106.1-47.6,106.1-106.1v-103C2706.5,610.2,2658.9,562.5,2600.4,562.5z"/>
</g>
<path class="st8" d="M2183.8,180.6L2183.8,180.6c-58.9,0-106.6,47.7-106.6,106.6v103c0,58.9,47.7,106.6,106.6,106.6l0,0
	c58.9,0,106.6-47.7,106.6-106.6v-103C2290.4,228.3,2242.7,180.6,2183.8,180.6z M2246.9,387.6c0,32.3-26.2,58.5-58.5,58.5h-9.4
	c-32.3,0-58.5-26.2-58.5-58.5v-97.7c0-32.3,26.2-58.5,58.5-58.5h9.4c32.3,0,58.5,26.2,58.5,58.5V387.6z"/>
<path class="st8" d="M1956.6-371L1956.6-371c-58.9,0-106.6,47.7-106.6,106.6v103c0,58.9,47.7,106.6,106.6,106.6l0,0
	c58.9,0,106.6-47.7,106.6-106.6v-103C2063.2-323.3,2015.5-371,1956.6-371z M2019.7-164c0,32.3-26.2,58.5-58.5,58.5h-9.4
	c-32.3,0-58.5-26.2-58.5-58.5v-97.7c0-32.3,26.2-58.5,58.5-58.5h9.4c32.3,0,58.5,26.2,58.5,58.5V-164z"/>
<path class="st8" d="M1221-118.7L1221-118.7c0,58.9,47.7,106.6,106.6,106.6h103c58.9,0,106.6-47.7,106.6-106.6l0,0
	c0-58.9-47.7-106.6-106.6-106.6h-103C1268.8-225.3,1221-177.6,1221-118.7z M1428-181.9c32.3,0,58.5,26.2,58.5,58.5v9.4
	c0,32.3-26.2,58.5-58.5,58.5h-97.7c-32.3,0-58.5-26.2-58.5-58.5v-9.4c0-32.3,26.2-58.5,58.5-58.5H1428z"/>
<path class="st8" d="M707.6-229.9L707.6-229.9c22,40.9,73.1,56.3,114,34.3l71.6-38.5c40.9-22,56.3-73.1,34.3-114l0,0
	c-22-40.9-73.1-56.3-114-34.3l-71.6,38.5C700.9-321.9,685.6-270.9,707.6-229.9z M827.9-351.2c22.4-12.1,50.4-3.7,62.5,18.8l3.5,6.5
	c12.1,22.4,3.7,50.4-18.8,62.5l-68,36.5c-22.4,12.1-50.4,3.7-62.5-18.8l-3.5-6.5c-12.1-22.4-3.7-50.4,18.8-62.5L827.9-351.2z"/>
<path class="st8" d="M536-260.4L536-260.4c0,46.5,37.7,84.2,84.2,84.2h81.3c46.5,0,84.2-37.7,84.2-84.2l0,0
	c0-46.5-37.7-84.2-84.2-84.2h-81.3C573.7-344.5,536-306.9,536-260.4z M699.4-310.2c25.5,0,46.1,20.7,46.1,46.1v7.4
	c0,25.5-20.7,46.1-46.1,46.1h-77.2c-25.5,0-46.1-20.7-46.1-46.1v-7.4c0-25.5,20.7-46.1,46.1-46.1H699.4z"/>
<path class="st8" d="M1565.2,248.1L1565.2,248.1c0,46.5,37.7,84.2,84.2,84.2h81.3c46.5,0,84.2-37.7,84.2-84.2l0,0
	c0-46.5-37.7-84.2-84.2-84.2h-81.3C1602.9,164,1565.2,201.7,1565.2,248.1z M1728.6,198.3c25.5,0,46.1,20.7,46.1,46.1v7.4
	c0,25.5-20.7,46.1-46.1,46.1h-77.2c-25.5,0-46.1-20.7-46.1-46.1v-7.4c0-25.5,20.7-46.1,46.1-46.1L1728.6,198.3L1728.6,198.3z"/>
<path class="st8" d="M855.8-338.5L855.8-338.5c-22,41-6.5,92,34.4,114l71.6,38.4c41,22,92,6.5,114-34.4l0,0c22-41,6.5-92-34.4-114
	L969.7-373C928.8-394.9,877.7-379.5,855.8-338.5z M1023.3-305.3c22.5,12,30.9,40,18.9,62.5l-3.5,6.5c-12,22.5-40,30.9-62.5,18.9
	l-68-36.4c-22.5-12-30.9-40-18.9-62.5l3.5-6.5c12-22.5,40-30.9,62.5-18.9L1023.3-305.3z"/>
<path class="st8" d="M1008,774.4L1008,774.4c0,39.1,31.7,70.8,70.8,70.8h68.4c39.1,0,70.8-31.7,70.8-70.8l0,0
	c0-39.1-31.7-70.8-70.8-70.8h-68.4C1039.7,703.6,1008,735.3,1008,774.4z M1145.5,732.5c21.4,0,38.8,17.4,38.8,38.8v6.2
	c0,21.4-17.4,38.8-38.8,38.8h-64.9c-21.4,0-38.8-17.4-38.8-38.8v-6.2c0-21.4,17.4-38.8,38.8-38.8H1145.5z"/>
<g>
	<path class="st9" d="M1181,167.9c-0.4,0.7-0.8,1.3-1.2,2l-2.9,5.5c-6.1,11.4-5.9,24.5-0.7,35.4C1186,199.1,1188.4,182.2,1181,167.9
		z"/>
	<path class="st9" d="M1148.6,156.7L1148.6,156.7c2.5-4.6,5.4-8.9,8.7-12.7c-10.2-3.9-21.9-3.5-32.2,2.1l-53.8,28.9
		c11.3,12.6,18.3,29.2,18.3,47.5l0,0c0,11.6-2.8,22.5-7.7,32.1c8.5,1.7,17.6,0.5,25.8-3.9l43.1-23.2
		C1138,206.7,1136.2,179.8,1148.6,156.7z"/>
	<path class="st9" d="M1333.7,255.9L1333.7,255.9c-1.2,2.3-2.6,4.5-4.1,6.6c3.7,1.2,7.7,1.9,11.9,1.9h64.9
		c21.4,0,38.8-17.4,38.8-38.8v-6.2c0-21.4-17.4-38.8-38.8-38.8h-64.9c-4.1,0-8.1,0.7-11.9,1.9
		C1344.2,203.5,1346.7,231.8,1333.7,255.9z"/>
	<path class="st9" d="M1306.5,202.6c-2.4,5.1-3.8,10.7-3.8,16.7v6.2c0,4.5,0.8,8.8,2.2,12.7l0.6-1.1
		C1311.5,226.1,1311.4,213.3,1306.5,202.6z"/>
	<path class="st9" d="M1269,222.5c0-15.5,5-29.9,13.5-41.6l-50.1-26.9c-7.3-3.9-15.3-5.2-22.9-4.3c14.1,27.4,8.7,59.8-11.4,81.1
		l51.9,27.8c9.8,5.2,20.8,5.9,30.6,2.6C1273.3,250.1,1269,236.8,1269,222.5L1269,222.5z"/>
	<path class="st9" d="M1055.9,219.4c0-7.7-2.3-15-6.2-21c-3.4,9.9-2.8,21.1,2.5,31.1l2.7,5c0.7-2.8,1-5.8,1-8.8V219.4z"/>
	<path class="st9" d="M1024,248.1c-11.7-21.7-10.9-46.8-0.1-67c-2.2-0.4-4.5-0.6-6.8-0.6h-64.9c-21.4,0-38.8,17.4-38.8,38.8v6.2
		c0,21.4,17.4,38.8,38.8,38.8h64.9c5.6,0,11-1.2,15.8-3.4C1029.5,257.1,1026.5,252.8,1024,248.1L1024,248.1z"/>
	<path class="st8" d="M1150.9,227.5l-43.1,23.2c-8.2,4.4-17.3,5.6-25.8,3.9c-5.2,10.2-12.8,19-22.1,25.6c18.8,7.6,40.8,7.1,60.1-3.3
		l51.9-27.9C1163.1,243.3,1156.1,235.9,1150.9,227.5z"/>
	<path class="st8" d="M1071.4,175l-3.3,1.8c-8.9,4.8-15.2,12.6-18.3,21.5c3.9,6.1,6.2,13.3,6.2,21v6.2c0,3-0.4,6-1,8.8
		c-2.8,11.9-11,21.8-22,26.7c-4.8,2.2-10.2,3.4-15.8,3.4h-64.9c-21.4,0-38.8-17.4-38.8-38.8v-6.2c0-21.4,17.4-38.8,38.8-38.8h64.9
		c2.3,0,4.6,0.2,6.8,0.6c5-9.5,12.3-17.8,21.5-24.3c-8.2-3.3-17.2-5.2-26.6-5.2h-68.4c-39.1,0-70.8,31.7-70.8,70.8l0,0
		c0,39.1,31.7,70.8,70.8,70.8h68.4c15.3,0,29.4-4.9,41-13.1c9.3-6.6,16.9-15.4,22.1-25.6c4.9-9.6,7.7-20.6,7.7-32.1l0,0
		C1089.6,204.2,1082.7,187.6,1071.4,175z"/>
	<path class="st8" d="M1208.9,148.7L1208.9,148.7c0.2,0.3,0.3,0.7,0.5,1c7.6-0.9,15.6,0.4,22.9,4.3l50.1,26.9
		c6.1-8.4,13.9-15.3,23-20.4c-0.3-0.1-0.5-0.3-0.8-0.5l-60.3-32.3c-18.6-10-39.6-10.8-58-4C1195.6,129.9,1203.4,138.3,1208.9,148.7z
		"/>
	<path class="st8" d="M1209.5,149.7c-0.2-0.3-0.3-0.7-0.5-1l0,0c-5.6-10.3-13.3-18.7-22.4-24.9c-21.1-14.4-49.4-16.9-73.5-3.9
		l-60.2,32.4c-2.6,1.4-5.1,3-7.4,4.6c-9.2,6.5-16.4,14.9-21.5,24.3c-10.8,20.2-11.6,45.3,0.1,67l0,0c2.5,4.7,5.6,9,8.9,12.9
		c11-4.9,19.2-14.7,22-26.7l-2.7-5c-5.3-9.9-5.9-21.2-2.5-31.1c3.1-8.9,9.4-16.7,18.3-21.5l3.3-1.8l53.8-28.9
		c10.3-5.5,22-5.9,32.2-2.1c8.4,3.2,15.8,9.3,20.4,17.9l3,5.5c0.1,0.2,0.2,0.3,0.3,0.5c7.4,14.3,5.1,31.2-4.8,42.9
		c3.4,7.1,9.1,13.2,16.5,17.2l5.3,2.8C1218.2,209.5,1223.6,177,1209.5,149.7z"/>
	<path class="st8" d="M1329.7,182.4c-10.2,3.3-18.6,10.7-23.2,20.3c4.9,10.7,4.9,23.4-1,34.6l-0.6,1.1l-2.4,4.4
		c-4.9,9.1-12.9,15.5-22,18.5c-9.8,3.2-20.8,2.6-30.6-2.6l-51.9-27.8l-5.3-2.8c-7.5-4-13.1-10.1-16.5-17.2
		c-5.3-10.8-5.5-23.9,0.7-35.4l2.9-5.5c0.4-0.7,0.8-1.3,1.2-2c-0.1-0.2-0.2-0.3-0.3-0.5l-3-5.5c-4.6-8.6-12-14.7-20.4-17.9
		c-3.3,3.8-6.2,8.1-8.7,12.7l0,0c-12.4,23.1-10.6,50,2.2,70.8c5.2,8.4,12.2,15.8,20.9,21.6c1.9,1.2,3.8,2.4,5.9,3.5l60.3,32.3
		c22,11.8,47.4,10.8,67.7-0.4c9.4-5.2,17.7-12.6,24.1-21.9c1.5-2.1,2.8-4.3,4.1-6.6l0,0C1346.7,231.8,1344.2,203.5,1329.7,182.4z"/>
	<path class="st8" d="M1408.2,151.7h-68.4c-12.4,0-24.1,3.2-34.3,8.8c-9.1,5-17,12-23,20.4c-8.5,11.7-13.5,26-13.5,41.6l0,0
		c0,14.3,4.3,27.6,11.6,38.7c9.1-3,17.1-9.4,22-18.5l2.4-4.4c-1.4-4-2.2-8.3-2.2-12.7v-6.2c0-6,1.4-11.7,3.8-16.7
		c4.6-9.6,13-17,23.2-20.3c3.7-1.2,7.7-1.9,11.9-1.9h64.9c21.4,0,38.8,17.4,38.8,38.8v6.2c0,21.4-17.4,38.8-38.8,38.8h-64.9
		c-4.1,0-8.1-0.7-11.9-1.9c-6.4,9.3-14.7,16.7-24.1,21.9c10.2,5.6,21.8,8.9,34.3,8.9h68.4c39.1,0,70.8-31.7,70.8-70.8l0,0
		C1479,183.4,1447.3,151.7,1408.2,151.7z"/>
</g>
<path class="st8" d="M1913.1,322L1913.1,322c-58.9,0-106.6,47.7-106.6,106.6v103c0,58.9,47.7,106.6,106.6,106.6l0,0
	c58.9,0,106.6-47.7,106.6-106.6v-103C2019.7,369.8,1972,322,1913.1,322z M1976.2,529c0,32.3-26.2,58.5-58.5,58.5h-9.4
	c-32.3,0-58.5-26.2-58.5-58.5v-97.7c0-32.3,26.2-58.5,58.5-58.5h9.4c32.3,0,58.5,26.2,58.5,58.5V529z"/>
<path class="st8" d="M2213.4-193.4L2213.4-193.4c-58.9,0-106.6,47.7-106.6,106.6v103c0,58.9,47.7,106.6,106.6,106.6l0,0
	c58.9,0,106.6-47.7,106.6-106.6v-103C2320.1-145.7,2272.3-193.4,2213.4-193.4z M2276.6,13.6c0,32.3-26.2,58.5-58.5,58.5h-9.4
	c-32.3,0-58.5-26.2-58.5-58.5v-97.7c0-32.3,26.2-58.5,58.5-58.5h9.4c32.3,0,58.5,26.2,58.5,58.5V13.6z"/>
<path class="st8" d="M2667.9-393.3L2667.9-393.3c-58.9,0-106.6,47.7-106.6,106.6v103c0,58.9,47.7,106.6,106.6,106.6l0,0
	c58.9,0,106.6-47.7,106.6-106.6v-103C2774.6-345.5,2726.8-393.3,2667.9-393.3z M2731.1-186.3c0,32.3-26.2,58.5-58.5,58.5h-9.4
	c-32.3,0-58.5-26.2-58.5-58.5V-284c0-32.3,26.2-58.5,58.5-58.5h9.4c32.3,0,58.5,26.2,58.5,58.5V-186.3z"/>
<path class="st8" d="M2442.2,480.1L2442.2,480.1c23.6,0.3,45.4-7.1,63.2-19.9c-0.9-17.1-9.2-32.4-21.8-42.5
	c-10,7.6-22.6,12-36.1,11.8h-0.1c-1.5,0.1-3,0.1-4.6,0.1c-1.5,0-3.1-0.1-4.6-0.3h-0.1c-13.6-0.2-26.1-5-35.9-12.9
	c-12.6-10.1-20.9-25.4-21.8-42.5c-0.1-1.3-0.1-2.7-0.1-4l0.1-8.2c-0.1-1.7-0.1-3.4-0.1-5.2l1-71c0-1.7,0.1-3.5,0.2-5.2l0.1-8.2
	c0.4-32.4,27.1-58.3,59.5-57.8h0.1c1.5-0.1,3-0.1,4.6-0.1c1.5,0,3.1,0.1,4.6,0.3h0.1c32.4,0.4,58.3,27.1,57.8,59.5l-0.1,8.2
	c0.1,1.7,0.1,3.5,0.1,5.2l-1,71c0,1.7-0.1,3.5-0.2,5.2l-0.1,8.2c0,1.4-0.1,2.9-0.2,4.3c14.4,11.1,25.9,25.8,33,42.7
	c6.1-13.1,9.5-27.7,9.8-43l1.4-104.4c0.8-58.5-46-106.6-104.5-107.4l0,0c-58.5-0.8-106.6,46-107.4,104.5l-1.4,104.4
	c-0.2,15.2,2.8,29.7,8.4,42.8c7.2,16.9,18.6,31.6,33,42.7C2396.7,471.7,2418.5,479.8,2442.2,480.1z"/>
<path class="st8" d="M-182.1-230h-215.3c-9.5,0-17.2,7.7-17.2,17.2l0,0c0,9.5,7.7,17.2,17.2,17.2h215.3c9.5,0,17.2-7.7,17.2-17.2
	l0,0C-164.9-222.4-172.6-230-182.1-230z"/>
<path class="st8" d="M1640.1,390.7l-181,7.4c-8,0.3-14.2,7-13.8,15l0,0c0.3,8,7,14.2,15,13.8l181-7.4c8-0.3,14.2-7,13.8-15l0,0
	C1654.8,396.6,1648.1,390.4,1640.1,390.7z"/>
</svg>
