<?xml version="1.0" encoding="utf-8"?>
<!-- Generator: Adobe Illustrator 22.0.1, SVG Export Plug-In . SVG Version: 6.00 Build 0)  -->
<svg version="1.1" id="Layer_1" xmlns="http://www.w3.org/2000/svg" xmlns:xlink="http://www.w3.org/1999/xlink" x="0px" y="0px"
	 viewBox="0 0 1340 630" style="enable-background:new 0 0 1340 630;" xml:space="preserve">
<style type="text/css">
	.st0{fill:#DD796F;}
	.st1{fill:#414143;}
	.st2{fill:#414143;stroke:#000000;stroke-miterlimit:10;}
	.st3{fill:none;stroke:#000000;stroke-miterlimit:10;}
	.st4{fill:#CECEC6;stroke:#000000;stroke-miterlimit:10;}
	.st5{fill:#96968F;stroke:#000000;stroke-miterlimit:10;}
	.st6{fill:#B5B5B0;stroke:#000000;stroke-miterlimit:10;}
	.st7{fill:#564D4D;}
</style>
<rect x="119" y="330" class="st0" width="1154" height="37"/>
<rect x="162" y="293" class="st0" width="1064" height="37"/>
<rect x="208" y="256" class="st0" width="976" height="37"/>
<rect x="297" y="178" class="st0" width="799" height="37"/>
<rect x="340" y="141" class="st0" width="711" height="37"/>
<rect x="472" y="104" class="st0" width="447" height="37"/>
<rect x="605" y="67" class="st0" width="181" height="37"/>
<rect x="251" y="215" class="st0" width="888" height="41"/>
<rect x="-730.6" y="515" class="st0" width="2045.6" height="37"/>
<rect x="-1046.7" y="478" class="st0" width="2319.7" height="37"/>
<rect x="-1251.3" y="441" class="st0" width="2566.4" height="37"/>
<rect x="-1455.9" y="404" class="st0" width="2727.9" height="37"/>
<rect x="-1662" y="367" class="st0" width="2977.1" height="37"/>
<rect x="-522.9" y="552" class="st0" width="1794.9" height="37"/>
<path class="st1" d="M1218.1,588.6v-15.9v-0.2c0.2-4.3,3.6-7.5,7.9-7.5s7.7,3.3,7.9,7.5v0.3l0,0v15.7h-15.8V588.6z"/>
<path class="st2" d="M-478.1,342.8l-0.2-0.3c-8.6-14.9-9-32.9-2-48.7c2.4-5.3,3.6-11.3,3.2-17.6c-1.1-19.5-17.2-35.1-36.7-35.7
	c-21.5-0.7-39.2,16.6-39.2,38c0,6.1,1.4,11.8,4,16.9c8,16.1,8.1,35,0,51.1l0,0l-56.9,81.9c-3.6,5.2-5.1,11.6-4.2,17.8l5.5,36.5
	c1.1,7.1,8.4,11.3,15.1,8.8l0,0l-0.7-36.9c-0.2-9.1,3.1-17.8,9.3-24.5l15.3-16.6c4-4.3,11.2-1.4,11.1,4.5l-5.2,203.1
	c-0.1,5.2,4,9.4,9.2,9.4h8.6L-521,525c0.6-3.2,3.4-5.5,6.7-5.5h14.1c3.7,0,6.9,2.6,7.7,6.2l23.6,104.8h9.9c5.4,0,9.7-4.6,9.4-10
	L-463.8,419c-0.3-3.6,4.2-5.6,6.7-2.9l15.9,17.3c6,6.5,9.2,15.1,9,23.9l-0.7,37.3l0,0c6.7,2.6,14-1.7,15.1-8.8l5.9-39.3
	c0.7-4.4-0.4-9-3-12.7L-478.1,342.8z"/>
<g>
	<g id="Layer_6">
		<g>
			<line class="st3" x1="-83.5" y1="-118.2" x2="1449.5" y2="-118.2"/>
		</g>
		<g>
			<line class="st3" x1="-83.5" y1="-81.2" x2="1449.5" y2="-81.2"/>
		</g>
		<g>
			<line class="st3" x1="-83.5" y1="-44.2" x2="1449.5" y2="-44.2"/>
		</g>
		<g>
			<line class="st3" x1="-83.5" y1="-7.2" x2="1449.5" y2="-7.2"/>
		</g>
		<g>
			<line class="st3" x1="-83.5" y1="29.8" x2="1449.5" y2="29.8"/>
		</g>
		<g>
			<line class="st3" x1="-83.5" y1="66.8" x2="1449.5" y2="66.8"/>
		</g>
		<g>
			<line class="st3" x1="-83.5" y1="103.8" x2="1449.5" y2="103.8"/>
		</g>
		<g>
			<line class="st3" x1="-83.5" y1="140.8" x2="1449.5" y2="140.8"/>
		</g>
		<g>
			<line class="st3" x1="-83.5" y1="177.8" x2="1449.5" y2="177.8"/>
		</g>
		<g>
			<line class="st3" x1="-83.5" y1="214.8" x2="1449.5" y2="214.8"/>
		</g>
		<line class="st3" x1="-13" y1="-118.1" x2="-13" y2="-158.8"/>
		<line class="st3" x1="75" y1="-118.1" x2="75" y2="-158.8"/>
		<line class="st3" x1="162.5" y1="-118.7" x2="162.5" y2="-158.8"/>
		<line class="st3" x1="251.5" y1="-118.7" x2="251.5" y2="-158.8"/>
		<line class="st3" x1="340" y1="-118.1" x2="340" y2="-158.8"/>
		<line class="st3" x1="428" y1="-118.1" x2="428" y2="-158.8"/>
		<line class="st3" x1="515.5" y1="-118.7" x2="515.5" y2="-158.8"/>
		<line class="st3" x1="604.5" y1="-118.7" x2="604.5" y2="-159.4"/>
		<line class="st3" x1="32" y1="-81.1" x2="32" y2="-118.2"/>
		<line class="st3" x1="119.5" y1="-80.7" x2="119.5" y2="-117.7"/>
		<line class="st3" x1="208.5" y1="-80.7" x2="208.5" y2="-117.7"/>
		<line class="st3" x1="297" y1="-81.1" x2="297" y2="-118.2"/>
		<line class="st3" x1="385" y1="-81.1" x2="385" y2="-118.2"/>
		<line class="st3" x1="472.5" y1="-80.7" x2="472.5" y2="-117.7"/>
		<line class="st3" x1="561.5" y1="-80.7" x2="561.5" y2="-117.7"/>
		<line class="st3" x1="650.5" y1="-80.7" x2="650.5" y2="-117.7"/>
		<line class="st3" x1="-13" y1="-44.1" x2="-13" y2="-81.2"/>
		<line class="st3" x1="75" y1="-44.1" x2="75" y2="-81.2"/>
		<line class="st3" x1="162.5" y1="-43.7" x2="162.5" y2="-80.7"/>
		<line class="st3" x1="251.5" y1="-43.7" x2="251.5" y2="-80.7"/>
		<line class="st3" x1="340" y1="-44.1" x2="340" y2="-81.2"/>
		<line class="st3" x1="428" y1="-44.1" x2="428" y2="-81.2"/>
		<line class="st3" x1="515.5" y1="-43.7" x2="515.5" y2="-80.7"/>
		<line class="st3" x1="604.5" y1="-43.7" x2="604.5" y2="-80.7"/>
		<line class="st3" x1="32" y1="-7.1" x2="32" y2="-44.2"/>
		<line class="st3" x1="119.5" y1="-6.7" x2="119.5" y2="-43.7"/>
		<line class="st3" x1="208.5" y1="-6.7" x2="208.5" y2="-43.7"/>
		<line class="st3" x1="297" y1="-7.1" x2="297" y2="-44.2"/>
		<line class="st3" x1="385" y1="-7.1" x2="385" y2="-44.2"/>
		<line class="st3" x1="472.5" y1="-6.7" x2="472.5" y2="-43.7"/>
		<line class="st3" x1="561.5" y1="-6.7" x2="561.5" y2="-43.7"/>
		<line class="st3" x1="650.5" y1="-6.7" x2="650.5" y2="-43.7"/>
		<line class="st3" x1="-13" y1="29.9" x2="-13" y2="-7.2"/>
		<line class="st3" x1="75" y1="29.9" x2="75" y2="-7.2"/>
		<line class="st3" x1="162.5" y1="30.3" x2="162.5" y2="-6.7"/>
		<line class="st3" x1="251.5" y1="30.3" x2="251.5" y2="-6.7"/>
		<line class="st3" x1="340" y1="29.9" x2="340" y2="-7.2"/>
		<line class="st3" x1="428" y1="29.9" x2="428" y2="-7.2"/>
		<line class="st3" x1="515.5" y1="30.3" x2="515.5" y2="-6.7"/>
		<line class="st3" x1="604.5" y1="30.3" x2="604.5" y2="-6.7"/>
		<line class="st3" x1="32" y1="66.9" x2="32" y2="29.8"/>
		<line class="st3" x1="119.5" y1="67.3" x2="119.5" y2="30.3"/>
		<line class="st3" x1="208.5" y1="67.3" x2="208.5" y2="30.3"/>
		<line class="st3" x1="297" y1="66.9" x2="297" y2="29.8"/>
		<line class="st3" x1="385" y1="66.9" x2="385" y2="29.8"/>
		<line class="st3" x1="472.5" y1="67.3" x2="472.5" y2="30.3"/>
		<line class="st3" x1="561.5" y1="67.3" x2="561.5" y2="30.3"/>
		<line class="st3" x1="650.5" y1="67.3" x2="650.5" y2="30.3"/>
		<line class="st3" x1="32" y1="140.9" x2="32" y2="103.8"/>
		<line class="st3" x1="119.5" y1="141.3" x2="119.5" y2="104.3"/>
		<line class="st3" x1="208.5" y1="141.3" x2="208.5" y2="104.3"/>
		<line class="st3" x1="297" y1="140.9" x2="297" y2="103.8"/>
		<line class="st3" x1="385" y1="140.9" x2="385" y2="103.8"/>
		<line class="st3" x1="472.5" y1="141.3" x2="472.5" y2="104.3"/>
		<line class="st3" x1="561.5" y1="141.3" x2="561.5" y2="104.3"/>
		<line class="st3" x1="650.5" y1="141.3" x2="650.5" y2="104.3"/>
		<line class="st3" x1="32" y1="214.9" x2="32" y2="177.8"/>
		<line class="st3" x1="119.5" y1="215.3" x2="119.5" y2="178.3"/>
		<line class="st3" x1="208.5" y1="215.3" x2="208.5" y2="178.3"/>
		<line class="st3" x1="297" y1="214.9" x2="297" y2="177.8"/>
		<line class="st3" x1="385" y1="214.9" x2="385" y2="177.8"/>
		<line class="st3" x1="472.5" y1="215.3" x2="472.5" y2="178.3"/>
		<line class="st3" x1="561.5" y1="215.3" x2="561.5" y2="178.3"/>
		<line class="st3" x1="650.5" y1="215.3" x2="650.5" y2="178.3"/>
		<line class="st3" x1="-13" y1="255.5" x2="-13" y2="214.8"/>
		<line class="st3" x1="75" y1="255.5" x2="75" y2="214.8"/>
		<line class="st3" x1="162.5" y1="256" x2="162.5" y2="215.3"/>
		<line class="st3" x1="251.5" y1="256" x2="251.5" y2="215.3"/>
		<line class="st3" x1="340" y1="255.5" x2="340" y2="214.8"/>
		<line class="st3" x1="428" y1="255.5" x2="428" y2="214.8"/>
		<line class="st3" x1="515.5" y1="256" x2="515.5" y2="215.3"/>
		<line class="st3" x1="604.5" y1="256" x2="604.5" y2="215.3"/>
		<line class="st3" x1="-13" y1="103.9" x2="-13" y2="66.8"/>
		<line class="st3" x1="75" y1="103.9" x2="75" y2="66.8"/>
		<line class="st3" x1="162.5" y1="104.3" x2="162.5" y2="67.3"/>
		<line class="st3" x1="251.5" y1="104.3" x2="251.5" y2="67.3"/>
		<line class="st3" x1="340" y1="103.9" x2="340" y2="66.8"/>
		<line class="st3" x1="428" y1="103.9" x2="428" y2="66.8"/>
		<line class="st3" x1="515.5" y1="104.3" x2="515.5" y2="67.3"/>
		<line class="st3" x1="604.5" y1="104.3" x2="604.5" y2="67.3"/>
		<line class="st3" x1="-13" y1="177.9" x2="-13" y2="140.8"/>
		<line class="st3" x1="75" y1="177.9" x2="75" y2="140.8"/>
		<line class="st3" x1="162.5" y1="178.3" x2="162.5" y2="141.3"/>
		<line class="st3" x1="251.5" y1="178.3" x2="251.5" y2="141.3"/>
		<line class="st3" x1="340" y1="177.9" x2="340" y2="140.8"/>
		<line class="st3" x1="428" y1="177.9" x2="428" y2="140.8"/>
		<line class="st3" x1="515.5" y1="178.3" x2="515.5" y2="141.3"/>
		<line class="st3" x1="604.5" y1="178.3" x2="604.5" y2="141.3"/>
		<line class="st3" x1="698" y1="-118.1" x2="698" y2="-158.8"/>
		<line class="st3" x1="786" y1="-118.1" x2="786" y2="-158.8"/>
		<line class="st3" x1="873.5" y1="-118.7" x2="873.5" y2="-158.8"/>
		<line class="st3" x1="962.5" y1="-118.7" x2="962.5" y2="-158.8"/>
		<line class="st3" x1="1051" y1="-118.1" x2="1051" y2="-158.8"/>
		<line class="st3" x1="1139" y1="-118.1" x2="1139" y2="-158.8"/>
		<line class="st3" x1="1226.5" y1="-118.7" x2="1226.5" y2="-158.8"/>
		<line class="st3" x1="1315.5" y1="-118.7" x2="1315.5" y2="-159.4"/>
		<line class="st3" x1="743" y1="-81.1" x2="743" y2="-118.2"/>
		<line class="st3" x1="830.5" y1="-80.7" x2="830.5" y2="-117.7"/>
		<line class="st3" x1="919.5" y1="-80.7" x2="919.5" y2="-117.7"/>
		<line class="st3" x1="1008" y1="-81.1" x2="1008" y2="-118.2"/>
		<line class="st3" x1="1096" y1="-81.1" x2="1096" y2="-118.2"/>
		<line class="st3" x1="1183.5" y1="-80.7" x2="1183.5" y2="-117.7"/>
		<line class="st3" x1="1272.5" y1="-80.7" x2="1272.5" y2="-117.7"/>
		<line class="st3" x1="1361.5" y1="-80.7" x2="1361.5" y2="-117.7"/>
		<line class="st3" x1="698" y1="-44.1" x2="698" y2="-81.2"/>
		<line class="st3" x1="786" y1="-44.1" x2="786" y2="-81.2"/>
		<line class="st3" x1="873.5" y1="-43.7" x2="873.5" y2="-80.7"/>
		<line class="st3" x1="962.5" y1="-43.7" x2="962.5" y2="-80.7"/>
		<line class="st3" x1="1051" y1="-44.1" x2="1051" y2="-81.2"/>
		<line class="st3" x1="1139" y1="-44.1" x2="1139" y2="-81.2"/>
		<line class="st3" x1="1226.5" y1="-43.7" x2="1226.5" y2="-80.7"/>
		<line class="st3" x1="1315.5" y1="-43.7" x2="1315.5" y2="-80.7"/>
		<line class="st3" x1="743" y1="-7.1" x2="743" y2="-44.2"/>
		<line class="st3" x1="830.5" y1="-6.7" x2="830.5" y2="-43.7"/>
		<line class="st3" x1="919.5" y1="-6.7" x2="919.5" y2="-43.7"/>
		<line class="st3" x1="1008" y1="-7.1" x2="1008" y2="-44.2"/>
		<line class="st3" x1="1096" y1="-7.1" x2="1096" y2="-44.2"/>
		<line class="st3" x1="1183.5" y1="-6.7" x2="1183.5" y2="-43.7"/>
		<line class="st3" x1="1272.5" y1="-6.7" x2="1272.5" y2="-43.7"/>
		<line class="st3" x1="1361.5" y1="-6.7" x2="1361.5" y2="-43.7"/>
		<line class="st3" x1="698" y1="29.9" x2="698" y2="-7.2"/>
		<line class="st3" x1="786" y1="29.9" x2="786" y2="-7.2"/>
		<line class="st3" x1="873.5" y1="30.3" x2="873.5" y2="-6.7"/>
		<line class="st3" x1="962.5" y1="30.3" x2="962.5" y2="-6.7"/>
		<line class="st3" x1="1051" y1="29.9" x2="1051" y2="-7.2"/>
		<line class="st3" x1="1139" y1="29.9" x2="1139" y2="-7.2"/>
		<line class="st3" x1="1226.5" y1="30.3" x2="1226.5" y2="-6.7"/>
		<line class="st3" x1="1315.5" y1="30.3" x2="1315.5" y2="-6.7"/>
		<line class="st3" x1="743" y1="66.9" x2="743" y2="29.8"/>
		<line class="st3" x1="830.5" y1="67.3" x2="830.5" y2="30.3"/>
		<line class="st3" x1="919.5" y1="67.3" x2="919.5" y2="30.3"/>
		<line class="st3" x1="1008" y1="66.9" x2="1008" y2="29.8"/>
		<line class="st3" x1="1096" y1="66.9" x2="1096" y2="29.8"/>
		<line class="st3" x1="1183.5" y1="67.3" x2="1183.5" y2="30.3"/>
		<line class="st3" x1="1272.5" y1="67.3" x2="1272.5" y2="30.3"/>
		<line class="st3" x1="1361.5" y1="67.3" x2="1361.5" y2="30.3"/>
		<line class="st3" x1="743" y1="140.9" x2="743" y2="103.8"/>
		<line class="st3" x1="830.5" y1="141.3" x2="830.5" y2="104.3"/>
		<line class="st3" x1="919.5" y1="141.3" x2="919.5" y2="104.3"/>
		<line class="st3" x1="1008" y1="140.9" x2="1008" y2="103.8"/>
		<line class="st3" x1="1096" y1="140.9" x2="1096" y2="103.8"/>
		<line class="st3" x1="1183.5" y1="141.3" x2="1183.5" y2="104.3"/>
		<line class="st3" x1="1272.5" y1="141.3" x2="1272.5" y2="104.3"/>
		<line class="st3" x1="1361.5" y1="141.3" x2="1361.5" y2="104.3"/>
		<line class="st3" x1="743" y1="214.9" x2="743" y2="177.8"/>
		<line class="st3" x1="830.5" y1="215.3" x2="830.5" y2="178.3"/>
		<line class="st3" x1="919.5" y1="215.3" x2="919.5" y2="178.3"/>
		<line class="st3" x1="1008" y1="214.9" x2="1008" y2="177.8"/>
		<line class="st3" x1="1096" y1="214.9" x2="1096" y2="177.8"/>
		<line class="st3" x1="1183.5" y1="215.3" x2="1183.5" y2="178.3"/>
		<line class="st3" x1="1272.5" y1="215.3" x2="1272.5" y2="178.3"/>
		<line class="st3" x1="1361.5" y1="215.3" x2="1361.5" y2="178.3"/>
		<line class="st3" x1="698" y1="255.5" x2="698" y2="214.8"/>
		<line class="st3" x1="786" y1="255.5" x2="786" y2="214.8"/>
		<line class="st3" x1="873.5" y1="256" x2="873.5" y2="215.3"/>
		<line class="st3" x1="962.5" y1="256" x2="962.5" y2="215.3"/>
		<line class="st3" x1="1051" y1="255.5" x2="1051" y2="214.8"/>
		<line class="st3" x1="1139" y1="255.5" x2="1139" y2="214.8"/>
		<line class="st3" x1="1226.5" y1="256" x2="1226.5" y2="215.3"/>
		<line class="st3" x1="1315.5" y1="256" x2="1315.5" y2="215.3"/>
		<line class="st3" x1="698" y1="103.9" x2="698" y2="66.8"/>
		<line class="st3" x1="786" y1="103.9" x2="786" y2="66.8"/>
		<line class="st3" x1="873.5" y1="104.3" x2="873.5" y2="67.3"/>
		<line class="st3" x1="962.5" y1="104.3" x2="962.5" y2="67.3"/>
		<line class="st3" x1="1051" y1="103.9" x2="1051" y2="66.8"/>
		<line class="st3" x1="1139" y1="103.9" x2="1139" y2="66.8"/>
		<line class="st3" x1="1226.5" y1="104.3" x2="1226.5" y2="67.3"/>
		<line class="st3" x1="1315.5" y1="104.3" x2="1315.5" y2="67.3"/>
		<line class="st3" x1="698" y1="177.9" x2="698" y2="140.8"/>
		<line class="st3" x1="786" y1="177.9" x2="786" y2="140.8"/>
		<line class="st3" x1="873.5" y1="178.3" x2="873.5" y2="141.3"/>
		<line class="st3" x1="962.5" y1="178.3" x2="962.5" y2="141.3"/>
		<line class="st3" x1="1051" y1="177.9" x2="1051" y2="140.8"/>
		<line class="st3" x1="1139" y1="177.9" x2="1139" y2="140.8"/>
		<line class="st3" x1="1226.5" y1="178.3" x2="1226.5" y2="141.3"/>
		<line class="st3" x1="1315.5" y1="178.3" x2="1315.5" y2="141.3"/>
	</g>
	<g id="Layer_6_1_">
		<g>
			<line class="st3" x1="-83.5" y1="255.8" x2="1449.5" y2="255.8"/>
		</g>
		<g>
			<line class="st3" x1="-83.5" y1="292.8" x2="1449.5" y2="292.8"/>
		</g>
		<g>
			<line class="st3" x1="-83.5" y1="329.8" x2="1449.5" y2="329.8"/>
		</g>
		<g>
			<line class="st3" x1="-83.5" y1="366.8" x2="1449.5" y2="366.8"/>
		</g>
		<g>
			<line class="st3" x1="-83.5" y1="403.8" x2="1449.5" y2="403.8"/>
		</g>
		<g>
			<line class="st3" x1="-83.5" y1="440.8" x2="1449.5" y2="440.8"/>
		</g>
		<g>
			<line class="st3" x1="-83.5" y1="477.8" x2="1449.5" y2="477.8"/>
		</g>
		<g>
			<line class="st3" x1="-83.5" y1="514.8" x2="1449.5" y2="514.8"/>
		</g>
		<g>
			<line class="st3" x1="-83.5" y1="551.8" x2="1449.5" y2="551.8"/>
		</g>
		<g>
			<line class="st3" x1="-83.5" y1="588.8" x2="1449.5" y2="588.8"/>
		</g>
		<line class="st3" x1="32" y1="292.9" x2="32" y2="255.8"/>
		<line class="st3" x1="119.5" y1="293.3" x2="119.5" y2="256.3"/>
		<line class="st3" x1="208.5" y1="293.3" x2="208.5" y2="256.3"/>
		<line class="st3" x1="297" y1="292.9" x2="297" y2="255.8"/>
		<line class="st3" x1="385" y1="292.9" x2="385" y2="255.8"/>
		<line class="st3" x1="472.5" y1="293.3" x2="472.5" y2="256.3"/>
		<line class="st3" x1="561.5" y1="293.3" x2="561.5" y2="256.3"/>
		<line class="st3" x1="650.5" y1="293.3" x2="650.5" y2="256.3"/>
		<line class="st3" x1="-13" y1="329.9" x2="-13" y2="292.8"/>
		<line class="st3" x1="75" y1="329.9" x2="75" y2="292.8"/>
		<line class="st3" x1="162.5" y1="330.3" x2="162.5" y2="293.3"/>
		<line class="st3" x1="251.5" y1="330.3" x2="251.5" y2="293.3"/>
		<line class="st3" x1="340" y1="329.9" x2="340" y2="292.8"/>
		<line class="st3" x1="428" y1="329.9" x2="428" y2="292.8"/>
		<line class="st3" x1="515.5" y1="330.3" x2="515.5" y2="293.3"/>
		<line class="st3" x1="604.5" y1="330.3" x2="604.5" y2="293.3"/>
		<line class="st3" x1="32" y1="366.9" x2="32" y2="329.8"/>
		<line class="st3" x1="119.5" y1="367.3" x2="119.5" y2="330.3"/>
		<line class="st3" x1="208.5" y1="367.3" x2="208.5" y2="330.3"/>
		<line class="st3" x1="297" y1="366.9" x2="297" y2="329.8"/>
		<line class="st3" x1="385" y1="366.9" x2="385" y2="329.8"/>
		<line class="st3" x1="472.5" y1="367.3" x2="472.5" y2="330.3"/>
		<line class="st3" x1="561.5" y1="367.3" x2="561.5" y2="330.3"/>
		<line class="st3" x1="650.5" y1="367.3" x2="650.5" y2="330.3"/>
		<line class="st3" x1="-13" y1="403.9" x2="-13" y2="366.8"/>
		<line class="st3" x1="75" y1="403.9" x2="75" y2="366.8"/>
		<line class="st3" x1="162.5" y1="404.3" x2="162.5" y2="367.3"/>
		<line class="st3" x1="251.5" y1="404.3" x2="251.5" y2="367.3"/>
		<line class="st3" x1="340" y1="403.9" x2="340" y2="366.8"/>
		<line class="st3" x1="428" y1="403.9" x2="428" y2="366.8"/>
		<line class="st3" x1="515.5" y1="404.3" x2="515.5" y2="367.3"/>
		<line class="st3" x1="604.5" y1="404.3" x2="604.5" y2="367.3"/>
		<line class="st3" x1="32" y1="440.9" x2="32" y2="403.8"/>
		<line class="st3" x1="119.5" y1="441.3" x2="119.5" y2="404.3"/>
		<line class="st3" x1="208.5" y1="441.3" x2="208.5" y2="404.3"/>
		<line class="st3" x1="297" y1="440.9" x2="297" y2="403.8"/>
		<line class="st3" x1="385" y1="440.9" x2="385" y2="403.8"/>
		<line class="st3" x1="472.5" y1="441.3" x2="472.5" y2="404.3"/>
		<line class="st3" x1="561.5" y1="441.3" x2="561.5" y2="404.3"/>
		<line class="st3" x1="650.5" y1="441.3" x2="650.5" y2="404.3"/>
		<line class="st3" x1="32" y1="514.9" x2="32" y2="477.8"/>
		<line class="st3" x1="119.5" y1="515.3" x2="119.5" y2="478.3"/>
		<line class="st3" x1="208.5" y1="515.3" x2="208.5" y2="478.3"/>
		<line class="st3" x1="297" y1="514.9" x2="297" y2="477.8"/>
		<line class="st3" x1="385" y1="514.9" x2="385" y2="477.8"/>
		<line class="st3" x1="472.5" y1="515.3" x2="472.5" y2="478.3"/>
		<line class="st3" x1="561.5" y1="515.3" x2="561.5" y2="478.3"/>
		<line class="st3" x1="650.5" y1="515.3" x2="650.5" y2="478.3"/>
		<line class="st3" x1="32" y1="588.9" x2="32" y2="551.8"/>
		<line class="st3" x1="119.5" y1="589.3" x2="119.5" y2="552.3"/>
		<line class="st3" x1="208.5" y1="589.3" x2="208.5" y2="552.3"/>
		<line class="st3" x1="297" y1="588.9" x2="297" y2="551.8"/>
		<line class="st3" x1="385" y1="588.9" x2="385" y2="551.8"/>
		<line class="st3" x1="472.5" y1="589.3" x2="472.5" y2="552.3"/>
		<line class="st3" x1="561.5" y1="589.3" x2="561.5" y2="552.3"/>
		<line class="st3" x1="650.5" y1="589.3" x2="650.5" y2="552.3"/>
		<line class="st3" x1="-13" y1="635.7" x2="-13" y2="588.8"/>
		<line class="st3" x1="75" y1="635.7" x2="75" y2="588.8"/>
		<line class="st3" x1="162.5" y1="636.3" x2="162.5" y2="589.4"/>
		<line class="st3" x1="251.5" y1="636.3" x2="251.5" y2="589.4"/>
		<line class="st3" x1="340" y1="635.7" x2="340" y2="588.8"/>
		<line class="st3" x1="428" y1="635.7" x2="428" y2="588.8"/>
		<line class="st3" x1="515.5" y1="636.3" x2="515.5" y2="589.4"/>
		<line class="st3" x1="604.5" y1="636.3" x2="604.5" y2="589.4"/>
		<line class="st3" x1="-13" y1="477.9" x2="-13" y2="440.8"/>
		<line class="st3" x1="75" y1="477.9" x2="75" y2="440.8"/>
		<line class="st3" x1="162.5" y1="478.3" x2="162.5" y2="441.3"/>
		<line class="st3" x1="251.5" y1="478.3" x2="251.5" y2="441.3"/>
		<line class="st3" x1="340" y1="477.9" x2="340" y2="440.8"/>
		<line class="st3" x1="428" y1="477.9" x2="428" y2="440.8"/>
		<line class="st3" x1="515.5" y1="478.3" x2="515.5" y2="441.3"/>
		<line class="st3" x1="604.5" y1="478.3" x2="604.5" y2="441.3"/>
		<line class="st3" x1="-13" y1="551.9" x2="-13" y2="514.8"/>
		<line class="st3" x1="75" y1="551.9" x2="75" y2="514.8"/>
		<line class="st3" x1="162.5" y1="552.3" x2="162.5" y2="515.3"/>
		<line class="st3" x1="251.5" y1="552.3" x2="251.5" y2="515.3"/>
		<line class="st3" x1="340" y1="551.9" x2="340" y2="514.8"/>
		<line class="st3" x1="428" y1="551.9" x2="428" y2="514.8"/>
		<line class="st3" x1="515.5" y1="552.3" x2="515.5" y2="515.3"/>
		<line class="st3" x1="604.5" y1="552.3" x2="604.5" y2="515.3"/>
		<line class="st3" x1="743" y1="292.9" x2="743" y2="255.8"/>
		<line class="st3" x1="830.5" y1="293.3" x2="830.5" y2="256.3"/>
		<line class="st3" x1="919.5" y1="293.3" x2="919.5" y2="256.3"/>
		<line class="st3" x1="1008" y1="292.9" x2="1008" y2="255.8"/>
		<line class="st3" x1="1096" y1="292.9" x2="1096" y2="255.8"/>
		<line class="st3" x1="1183.5" y1="293.3" x2="1183.5" y2="256.3"/>
		<line class="st3" x1="1272.5" y1="293.3" x2="1272.5" y2="256.3"/>
		<line class="st3" x1="1361.5" y1="293.3" x2="1361.5" y2="256.3"/>
		<line class="st3" x1="698" y1="329.9" x2="698" y2="292.8"/>
		<line class="st3" x1="786" y1="329.9" x2="786" y2="292.8"/>
		<line class="st3" x1="873.5" y1="330.3" x2="873.5" y2="293.3"/>
		<line class="st3" x1="962.5" y1="330.3" x2="962.5" y2="293.3"/>
		<line class="st3" x1="1051" y1="329.9" x2="1051" y2="292.8"/>
		<line class="st3" x1="1139" y1="329.9" x2="1139" y2="292.8"/>
		<line class="st3" x1="1226.5" y1="330.3" x2="1226.5" y2="293.3"/>
		<line class="st3" x1="1315.5" y1="330.3" x2="1315.5" y2="293.3"/>
		<line class="st3" x1="743" y1="366.9" x2="743" y2="329.8"/>
		<line class="st3" x1="830.5" y1="367.3" x2="830.5" y2="330.3"/>
		<line class="st3" x1="919.5" y1="367.3" x2="919.5" y2="330.3"/>
		<line class="st3" x1="1008" y1="366.9" x2="1008" y2="329.8"/>
		<line class="st3" x1="1096" y1="366.9" x2="1096" y2="329.8"/>
		<line class="st3" x1="1183.5" y1="367.3" x2="1183.5" y2="330.3"/>
		<line class="st3" x1="1272.5" y1="367.3" x2="1272.5" y2="330.3"/>
		<line class="st3" x1="1361.5" y1="367.3" x2="1361.5" y2="330.3"/>
		<line class="st3" x1="698" y1="403.9" x2="698" y2="366.8"/>
		<line class="st3" x1="786" y1="403.9" x2="786" y2="366.8"/>
		<line class="st3" x1="873.5" y1="404.3" x2="873.5" y2="367.3"/>
		<line class="st3" x1="962.5" y1="404.3" x2="962.5" y2="367.3"/>
		<line class="st3" x1="1051" y1="403.9" x2="1051" y2="366.8"/>
		<line class="st3" x1="1139" y1="403.9" x2="1139" y2="366.8"/>
		<line class="st3" x1="1226.5" y1="404.3" x2="1226.5" y2="367.3"/>
		<line class="st3" x1="1315.5" y1="404.3" x2="1315.5" y2="367.3"/>
		<line class="st3" x1="743" y1="440.9" x2="743" y2="403.8"/>
		<line class="st3" x1="830.5" y1="441.3" x2="830.5" y2="404.3"/>
		<line class="st3" x1="919.5" y1="441.3" x2="919.5" y2="404.3"/>
		<line class="st3" x1="1008" y1="440.9" x2="1008" y2="403.8"/>
		<line class="st3" x1="1096" y1="440.9" x2="1096" y2="403.8"/>
		<line class="st3" x1="1183.5" y1="441.3" x2="1183.5" y2="404.3"/>
		<line class="st3" x1="1272.5" y1="441.3" x2="1272.5" y2="404.3"/>
		<line class="st3" x1="1361.5" y1="441.3" x2="1361.5" y2="404.3"/>
		<line class="st3" x1="743" y1="514.9" x2="743" y2="477.8"/>
		<line class="st3" x1="830.5" y1="515.3" x2="830.5" y2="478.3"/>
		<line class="st3" x1="919.5" y1="515.3" x2="919.5" y2="478.3"/>
		<line class="st3" x1="1008" y1="514.9" x2="1008" y2="477.8"/>
		<line class="st3" x1="1096" y1="514.9" x2="1096" y2="477.8"/>
		<line class="st3" x1="1183.5" y1="515.3" x2="1183.5" y2="478.3"/>
		<line class="st3" x1="1272.5" y1="515.3" x2="1272.5" y2="478.3"/>
		<line class="st3" x1="1361.5" y1="515.3" x2="1361.5" y2="478.3"/>
		<line class="st3" x1="743" y1="588.9" x2="743" y2="551.8"/>
		<line class="st3" x1="830.5" y1="589.3" x2="830.5" y2="552.3"/>
		<line class="st3" x1="919.5" y1="589.3" x2="919.5" y2="552.3"/>
		<line class="st3" x1="1008" y1="588.9" x2="1008" y2="551.8"/>
		<line class="st3" x1="1096" y1="588.9" x2="1096" y2="551.8"/>
		<line class="st3" x1="1183.5" y1="589.3" x2="1183.5" y2="552.3"/>
		<line class="st3" x1="1272.5" y1="589.3" x2="1272.5" y2="552.3"/>
		<line class="st3" x1="1361.5" y1="589.3" x2="1361.5" y2="552.3"/>
		<line class="st3" x1="698" y1="635.7" x2="698" y2="588.8"/>
		<line class="st3" x1="786" y1="635.7" x2="786" y2="588.8"/>
		<line class="st3" x1="873.5" y1="636.3" x2="873.5" y2="589.4"/>
		<line class="st3" x1="962.5" y1="636.3" x2="962.5" y2="589.4"/>
		<line class="st3" x1="1051" y1="635.7" x2="1051" y2="588.8"/>
		<line class="st3" x1="1139" y1="635.7" x2="1139" y2="588.8"/>
		<line class="st3" x1="1226.5" y1="636.3" x2="1226.5" y2="589.4"/>
		<line class="st3" x1="1315.5" y1="636.3" x2="1315.5" y2="589.4"/>
		<line class="st3" x1="698" y1="477.9" x2="698" y2="440.8"/>
		<line class="st3" x1="786" y1="477.9" x2="786" y2="440.8"/>
		<line class="st3" x1="873.5" y1="478.3" x2="873.5" y2="441.3"/>
		<line class="st3" x1="962.5" y1="478.3" x2="962.5" y2="441.3"/>
		<line class="st3" x1="1051" y1="477.9" x2="1051" y2="440.8"/>
		<line class="st3" x1="1139" y1="477.9" x2="1139" y2="440.8"/>
		<line class="st3" x1="1226.5" y1="478.3" x2="1226.5" y2="441.3"/>
		<line class="st3" x1="1315.5" y1="478.3" x2="1315.5" y2="441.3"/>
		<line class="st3" x1="698" y1="551.9" x2="698" y2="514.8"/>
		<line class="st3" x1="786" y1="551.9" x2="786" y2="514.8"/>
		<line class="st3" x1="873.5" y1="552.3" x2="873.5" y2="515.3"/>
		<line class="st3" x1="962.5" y1="552.3" x2="962.5" y2="515.3"/>
		<line class="st3" x1="1051" y1="551.9" x2="1051" y2="514.8"/>
		<line class="st3" x1="1139" y1="551.9" x2="1139" y2="514.8"/>
		<line class="st3" x1="1226.5" y1="552.3" x2="1226.5" y2="515.3"/>
		<line class="st3" x1="1315.5" y1="552.3" x2="1315.5" y2="515.3"/>
	</g>
</g>
<path class="st4" d="M-118,517.9L-118,517.9c0.1,39.1,32,70.7,71.1,70.6l68.4-0.3c39.1-0.1,70.7-32,70.6-71.1l0,0
	C92,478,60.1,446.4,21,446.5l-68.4,0.3C-86.6,446.9-118.1,478.7-118,517.9z M19.3,475.4c21.4-0.1,38.9,17.2,39,38.7v6.2
	c0.1,21.4-17.2,38.9-38.7,39l-64.9,0.2c-21.4,0.1-38.9-17.2-39-38.7v-6.2c-0.1-21.4,17.2-38.9,38.7-39L19.3,475.4z"/>
<path class="st4" d="M658.7,919.1H608c-28.8,0-52.2-23.4-52.2-52.2V756.4c0-28.8,23.4-52.2,52.2-52.2h50.7
	c28.8,0,52.2,23.4,52.2,52.2v110.5C710.8,895.7,687.5,919.1,658.7,919.1z"/>
<g>
	<circle class="st4" cx="491.5" cy="548.5" r="40"/>
	<path class="st4" d="M454.5,548.5l-12.1,14.7c-4.5,4.8-4.9,12.2-0.7,17.3l2.9,3.6c3.4,4.2,9,5.9,14.2,4.3l18.8-5.8"/>
	<polygon class="st2" points="469.5,556.5 475.5,565.5 486.5,552.3 	"/>
	<line class="st3" x1="447.5" y1="557" x2="465.1" y2="586.4"/>
	<path class="st2" d="M474.5,543.6l-0.5-1.1c-0.7-1.4-0.6-3,0-4.3l0.9-1.9c1.1-2.3,3.8-3.4,6.2-2.5l0.6,0.2c1.7,0.6,2.9,2,3.2,3.7
		l0.2,0.9c0.3,1.3,0,2.7-0.8,3.8l-1.2,1.9c-1.3,1.9-3.7,2.7-5.9,1.9l0,0C476.1,545.7,475.1,544.8,474.5,543.6z"/>
	<path class="st2" d="M499.8,562.9L499,562c-1-1.2-2.5-1.8-4-1.8l-2.1,0.1c-2.6,0.1-4.6,2.1-4.9,4.6l-0.1,0.7
		c-0.1,1.8,0.6,3.5,2.1,4.5l0.7,0.5c1.1,0.8,2.4,1.1,3.7,0.9l2.2-0.4c2.3-0.4,4-2.3,4.2-4.5l0,0C501.1,565.3,500.7,564,499.8,562.9z
		"/>
</g>
<g>
	<g>
		<path class="st5" d="M807.9,588H583.1c-28.8,0-52.2-23.4-52.2-52.2V192.2c0-28.8,23.4-52.2,52.2-52.2h224.7
			c28.8,0,52.2,23.4,52.2,52.2v343.7C860,564.6,836.7,588,807.9,588z"/>
		<path class="st6" d="M804.6,582.1H586.4c-26.7,0-48.4-21.7-48.4-48.4V194.3c0-26.7,21.7-48.4,48.4-48.4h218.1
			c26.7,0,48.4,21.7,48.4,48.4v339.5C852.9,560.4,831.3,582.1,804.6,582.1z"/>
		<circle class="st5" cx="696.8" cy="163.6" r="6.6"/>
		<circle class="st5" cx="657.5" cy="163.6" r="6.6"/>
		<circle class="st5" cx="618.1" cy="163.6" r="6.6"/>
		<circle class="st5" cx="564.3" cy="191.2" r="6.6"/>
		<circle class="st5" cx="585.3" cy="168.9" r="6.6"/>
		<circle class="st5" cx="585.3" cy="559.8" r="6.6"/>
		<circle class="st5" cx="564.3" cy="538.8" r="6.6"/>
		<circle class="st5" cx="556.4" cy="224" r="6.6"/>
		<circle class="st4" cx="556.4" cy="368.3" r="6.6"/>
		<circle class="st5" cx="556.4" cy="296.1" r="6.6"/>
		<circle class="st5" cx="556.4" cy="332.8" r="6.6"/>
		<circle class="st5" cx="556.4" cy="259.4" r="6.6"/>
		<circle class="st5" cx="556.4" cy="368.3" r="6.6"/>
		<circle class="st5" cx="556.4" cy="440.4" r="6.6"/>
		<circle class="st5" cx="556.4" cy="477.1" r="6.6"/>
		<circle class="st5" cx="556.4" cy="403.7" r="6.6"/>
		<circle class="st5" cx="556.4" cy="511.3" r="6.6"/>
		<circle class="st5" cx="696.8" cy="239.7" r="6.6"/>
		<circle class="st5" cx="696.8" cy="311.9" r="6.6"/>
		<circle class="st5" cx="696.8" cy="348.6" r="6.6"/>
		<circle class="st5" cx="696.8" cy="275.1" r="6.6"/>
		<circle class="st5" cx="696.8" cy="204.3" r="6.6"/>
		<circle class="st5" cx="696.8" cy="384" r="6.6"/>
		<circle class="st5" cx="696.8" cy="456.2" r="6.6"/>
		<circle class="st5" cx="696.8" cy="492.9" r="6.6"/>
		<circle class="st5" cx="696.8" cy="419.4" r="6.6"/>
		<circle class="st5" cx="696.8" cy="527" r="6.6"/>
		<circle class="st5" cx="775.5" cy="163.6" r="6.6"/>
		<circle class="st5" cx="736.2" cy="163.6" r="6.6"/>
		<circle class="st5" cx="696.8" cy="565" r="6.6"/>
		<circle class="st5" cx="657.5" cy="565" r="6.6"/>
		<circle class="st5" cx="618.1" cy="565" r="6.6"/>
		<circle class="st5" cx="775.5" cy="565" r="6.6"/>
		<circle class="st5" cx="736.2" cy="565" r="6.6"/>
		<circle class="st5" cx="828" cy="191.2" r="6.6"/>
		<circle class="st5" cx="807" cy="170.2" r="6.6"/>
		<circle class="st5" cx="804.4" cy="559.8" r="6.6"/>
		<circle class="st5" cx="825.4" cy="538.8" r="6.6"/>
		<circle class="st5" cx="833.2" cy="224" r="6.6"/>
		<circle class="st5" cx="833.2" cy="296.1" r="6.6"/>
		<circle class="st5" cx="833.2" cy="332.8" r="6.6"/>
		<circle class="st5" cx="833.2" cy="259.4" r="6.6"/>
		<circle class="st5" cx="833.2" cy="368.3" r="6.6"/>
		<circle class="st5" cx="833.2" cy="440.4" r="6.6"/>
		<circle class="st5" cx="833.2" cy="477.1" r="6.6"/>
		<circle class="st5" cx="833.2" cy="403.7" r="6.6"/>
		<circle class="st5" cx="833.2" cy="511.3" r="6.6"/>
	</g>
	<circle class="st5" cx="696.7" cy="367" r="32.3"/>
	<path class="st6" d="M637.3,264.6l1.7-1c2.3-1.3,5.3-0.5,6.7,1.8l112.2,196c1.3,2.3,0.5,5.3-1.8,6.7l-1.7,1
		c-2.3,1.3-5.3,0.5-6.7-1.8l-112.2-196C634.1,268.9,635,265.9,637.3,264.6z"/>
	<path class="st6" d="M798.5,307l1,1.7c1.3,2.3,0.5,5.3-1.8,6.7l-196,112.2c-2.3,1.3-5.3,0.5-6.7-1.8l-1-1.7
		c-1.3-2.3-0.5-5.3,1.8-6.7l196-112.2C794.2,303.8,797.1,304.7,798.5,307z"/>
	<circle class="st5" cx="696.7" cy="367" r="28.7"/>
</g>
<path class="st5" d="M821.6,747.4c-4.7-0.7-9.1,0.8-12.4,3.6c-1.2,1.1-3,1.1-4.3,0l-2.5-2.2c-1.1-0.9-2.7-1-3.8-0.2L764,773.4
	c-1,0.7-1.3,2-0.8,3.1l0,0c0.7,1.3,2.3,1.8,3.6,0.9l30.5-21c1.3-0.9,3-0.7,4,0.4l1.8,2c0.6,0.6,0.9,1.5,0.8,2.4
	c0,0.4-0.1,0.9-0.1,1.3c0,8.5,6.9,15.3,15.3,15.3c9,0,16.3-7.8,15.2-17.1C833.7,754,828.4,748.4,821.6,747.4z"/>
<circle class="st6" cx="819.3" cy="762.6" r="8.8"/>
<rect x="-116.5" y="-726" class="st7" width="1599" height="248"/>
</svg>
