<?xml version="1.0" encoding="utf-8"?>
<!-- Generator: Adobe Illustrator 22.0.1, SVG Export Plug-In . SVG Version: 6.00 Build 0)  -->
<svg version="1.1" id="Layer_1" xmlns="http://www.w3.org/2000/svg" xmlns:xlink="http://www.w3.org/1999/xlink" x="0px" y="0px"
	 viewBox="0 0 1340 630" style="enable-background:new 0 0 1340 630;" xml:space="preserve">
<style type="text/css">
	.st0{fill:#DD796F;}
	.st1{fill:#414143;stroke:#000000;stroke-miterlimit:10;}
	.st2{fill:none;stroke:#000000;stroke-miterlimit:10;}
	.st3{fill:none;}
	.st4{fill:#CECEC6;stroke:#000000;stroke-miterlimit:10;}
</style>
<rect x="163" y="515" class="st0" width="1316" height="37"/>
<rect x="-41" y="478" class="st0" width="1520" height="37"/>
<rect x="-173" y="441" class="st0" width="1656" height="37"/>
<rect x="-305" y="404" class="st0" width="1788" height="37"/>
<rect x="-438" y="367" class="st0" width="1921" height="37"/>
<rect x="-574" y="330" class="st0" width="1224" height="37"/>
<rect x="-709" y="293" class="st0" width="1224" height="37"/>
<rect x="297" y="552" class="st0" width="1224" height="37"/>
<path class="st1" d="M-502.1,342.8l-0.2-0.3c-8.6-14.9-9-32.9-2-48.7c2.4-5.3,3.6-11.3,3.2-17.6c-1.1-19.5-17.2-35.1-36.7-35.7
	c-21.5-0.7-39.2,16.6-39.2,38c0,6.1,1.4,11.8,4,16.9c8,16.1,8.1,35,0,51.1l0,0l-56.9,81.9c-3.6,5.2-5.1,11.6-4.2,17.8l5.5,36.5
	c1.1,7.1,8.4,11.3,15.1,8.8l0,0l-0.7-36.9c-0.2-9.1,3.1-17.8,9.3-24.5l15.3-16.6c4-4.3,11.2-1.4,11.1,4.5l-5.2,203.1
	c-0.1,5.2,4,9.4,9.2,9.4h8.6L-545,525c0.6-3.2,3.4-5.5,6.7-5.5h14.1c3.7,0,6.9,2.6,7.7,6.2l23.6,104.8h9.9c5.4,0,9.7-4.6,9.4-10
	L-487.8,419c-0.3-3.6,4.2-5.6,6.7-2.9l15.9,17.3c6,6.5,9.2,15.1,9,23.9l-0.7,37.3l0,0c6.7,2.6,14-1.7,15.1-8.8l5.9-39.3
	c0.7-4.4-0.4-9-3-12.7L-502.1,342.8z"/>
<g>
	<g id="Layer_6">
		<g>
			<line class="st2" x1="-83.5" y1="-118.2" x2="1449.5" y2="-118.2"/>
		</g>
		<g>
			<line class="st2" x1="-83.5" y1="-81.2" x2="1449.5" y2="-81.2"/>
		</g>
		<g>
			<line class="st2" x1="-83.5" y1="-44.2" x2="1449.5" y2="-44.2"/>
		</g>
		<g>
			<line class="st2" x1="-83.5" y1="-7.2" x2="1449.5" y2="-7.2"/>
		</g>
		<g>
			<line class="st2" x1="-83.5" y1="29.8" x2="1449.5" y2="29.8"/>
		</g>
		<g>
			<line class="st2" x1="-83.5" y1="66.8" x2="1449.5" y2="66.8"/>
		</g>
		<g>
			<line class="st2" x1="-83.5" y1="103.8" x2="1449.5" y2="103.8"/>
		</g>
		<g>
			<line class="st2" x1="-83.5" y1="140.8" x2="1449.5" y2="140.8"/>
		</g>
		<g>
			<line class="st2" x1="-83.5" y1="177.8" x2="1449.5" y2="177.8"/>
		</g>
		<g>
			<line class="st2" x1="-83.5" y1="214.8" x2="1449.5" y2="214.8"/>
		</g>
		<line class="st2" x1="-13" y1="-118.1" x2="-13" y2="-158.8"/>
		<line class="st2" x1="75" y1="-118.1" x2="75" y2="-158.8"/>
		<line class="st2" x1="162.5" y1="-118.7" x2="162.5" y2="-158.8"/>
		<line class="st2" x1="251.5" y1="-118.7" x2="251.5" y2="-158.8"/>
		<line class="st2" x1="340" y1="-118.1" x2="340" y2="-158.8"/>
		<line class="st2" x1="428" y1="-118.1" x2="428" y2="-158.8"/>
		<line class="st2" x1="515.5" y1="-118.7" x2="515.5" y2="-158.8"/>
		<line class="st2" x1="604.5" y1="-118.7" x2="604.5" y2="-159.4"/>
		<line class="st2" x1="32" y1="-81.1" x2="32" y2="-118.2"/>
		<line class="st2" x1="119.5" y1="-80.7" x2="119.5" y2="-117.7"/>
		<line class="st2" x1="208.5" y1="-80.7" x2="208.5" y2="-117.7"/>
		<line class="st2" x1="297" y1="-81.1" x2="297" y2="-118.2"/>
		<line class="st2" x1="385" y1="-81.1" x2="385" y2="-118.2"/>
		<line class="st2" x1="472.5" y1="-80.7" x2="472.5" y2="-117.7"/>
		<line class="st2" x1="561.5" y1="-80.7" x2="561.5" y2="-117.7"/>
		<line class="st2" x1="650.5" y1="-80.7" x2="650.5" y2="-117.7"/>
		<line class="st2" x1="-13" y1="-44.1" x2="-13" y2="-81.2"/>
		<line class="st2" x1="75" y1="-44.1" x2="75" y2="-81.2"/>
		<line class="st2" x1="162.5" y1="-43.7" x2="162.5" y2="-80.7"/>
		<line class="st2" x1="251.5" y1="-43.7" x2="251.5" y2="-80.7"/>
		<line class="st2" x1="340" y1="-44.1" x2="340" y2="-81.2"/>
		<line class="st2" x1="428" y1="-44.1" x2="428" y2="-81.2"/>
		<line class="st2" x1="515.5" y1="-43.7" x2="515.5" y2="-80.7"/>
		<line class="st2" x1="604.5" y1="-43.7" x2="604.5" y2="-80.7"/>
		<line class="st2" x1="32" y1="-7.1" x2="32" y2="-44.2"/>
		<line class="st2" x1="119.5" y1="-6.7" x2="119.5" y2="-43.7"/>
		<line class="st2" x1="208.5" y1="-6.7" x2="208.5" y2="-43.7"/>
		<line class="st2" x1="297" y1="-7.1" x2="297" y2="-44.2"/>
		<line class="st2" x1="385" y1="-7.1" x2="385" y2="-44.2"/>
		<line class="st2" x1="472.5" y1="-6.7" x2="472.5" y2="-43.7"/>
		<line class="st2" x1="561.5" y1="-6.7" x2="561.5" y2="-43.7"/>
		<line class="st2" x1="650.5" y1="-6.7" x2="650.5" y2="-43.7"/>
		<line class="st2" x1="-13" y1="29.9" x2="-13" y2="-7.2"/>
		<line class="st2" x1="75" y1="29.9" x2="75" y2="-7.2"/>
		<line class="st2" x1="162.5" y1="30.3" x2="162.5" y2="-6.7"/>
		<line class="st2" x1="251.5" y1="30.3" x2="251.5" y2="-6.7"/>
		<line class="st2" x1="340" y1="29.9" x2="340" y2="-7.2"/>
		<line class="st2" x1="428" y1="29.9" x2="428" y2="-7.2"/>
		<line class="st2" x1="515.5" y1="30.3" x2="515.5" y2="-6.7"/>
		<line class="st2" x1="604.5" y1="30.3" x2="604.5" y2="-6.7"/>
		<line class="st2" x1="32" y1="66.9" x2="32" y2="29.8"/>
		<line class="st2" x1="119.5" y1="67.3" x2="119.5" y2="30.3"/>
		<line class="st2" x1="208.5" y1="67.3" x2="208.5" y2="30.3"/>
		<line class="st2" x1="297" y1="66.9" x2="297" y2="29.8"/>
		<line class="st2" x1="385" y1="66.9" x2="385" y2="29.8"/>
		<line class="st2" x1="472.5" y1="67.3" x2="472.5" y2="30.3"/>
		<line class="st2" x1="561.5" y1="67.3" x2="561.5" y2="30.3"/>
		<line class="st2" x1="650.5" y1="67.3" x2="650.5" y2="30.3"/>
		<line class="st2" x1="32" y1="140.9" x2="32" y2="103.8"/>
		<line class="st2" x1="119.5" y1="141.3" x2="119.5" y2="104.3"/>
		<line class="st2" x1="208.5" y1="141.3" x2="208.5" y2="104.3"/>
		<line class="st2" x1="297" y1="140.9" x2="297" y2="103.8"/>
		<line class="st2" x1="385" y1="140.9" x2="385" y2="103.8"/>
		<line class="st2" x1="472.5" y1="141.3" x2="472.5" y2="104.3"/>
		<line class="st2" x1="561.5" y1="141.3" x2="561.5" y2="104.3"/>
		<line class="st2" x1="650.5" y1="141.3" x2="650.5" y2="104.3"/>
		<line class="st2" x1="32" y1="214.9" x2="32" y2="177.8"/>
		<line class="st2" x1="119.5" y1="215.3" x2="119.5" y2="178.3"/>
		<line class="st2" x1="208.5" y1="215.3" x2="208.5" y2="178.3"/>
		<line class="st2" x1="297" y1="214.9" x2="297" y2="177.8"/>
		<line class="st2" x1="385" y1="214.9" x2="385" y2="177.8"/>
		<line class="st2" x1="472.5" y1="215.3" x2="472.5" y2="178.3"/>
		<line class="st2" x1="561.5" y1="215.3" x2="561.5" y2="178.3"/>
		<line class="st2" x1="650.5" y1="215.3" x2="650.5" y2="178.3"/>
		<line class="st2" x1="-13" y1="255.5" x2="-13" y2="214.8"/>
		<line class="st2" x1="75" y1="255.5" x2="75" y2="214.8"/>
		<line class="st2" x1="162.5" y1="256" x2="162.5" y2="215.3"/>
		<line class="st2" x1="251.5" y1="256" x2="251.5" y2="215.3"/>
		<line class="st2" x1="340" y1="255.5" x2="340" y2="214.8"/>
		<line class="st2" x1="428" y1="255.5" x2="428" y2="214.8"/>
		<line class="st2" x1="515.5" y1="256" x2="515.5" y2="215.3"/>
		<line class="st2" x1="604.5" y1="256" x2="604.5" y2="215.3"/>
		<line class="st2" x1="-13" y1="103.9" x2="-13" y2="66.8"/>
		<line class="st2" x1="75" y1="103.9" x2="75" y2="66.8"/>
		<line class="st2" x1="162.5" y1="104.3" x2="162.5" y2="67.3"/>
		<line class="st2" x1="251.5" y1="104.3" x2="251.5" y2="67.3"/>
		<line class="st2" x1="340" y1="103.9" x2="340" y2="66.8"/>
		<line class="st2" x1="428" y1="103.9" x2="428" y2="66.8"/>
		<line class="st2" x1="515.5" y1="104.3" x2="515.5" y2="67.3"/>
		<line class="st2" x1="604.5" y1="104.3" x2="604.5" y2="67.3"/>
		<line class="st2" x1="-13" y1="177.9" x2="-13" y2="140.8"/>
		<line class="st2" x1="75" y1="177.9" x2="75" y2="140.8"/>
		<line class="st2" x1="162.5" y1="178.3" x2="162.5" y2="141.3"/>
		<line class="st2" x1="251.5" y1="178.3" x2="251.5" y2="141.3"/>
		<line class="st2" x1="340" y1="177.9" x2="340" y2="140.8"/>
		<line class="st2" x1="428" y1="177.9" x2="428" y2="140.8"/>
		<line class="st2" x1="515.5" y1="178.3" x2="515.5" y2="141.3"/>
		<line class="st2" x1="604.5" y1="178.3" x2="604.5" y2="141.3"/>
		<line class="st2" x1="698" y1="-118.1" x2="698" y2="-158.8"/>
		<line class="st2" x1="786" y1="-118.1" x2="786" y2="-158.8"/>
		<line class="st2" x1="873.5" y1="-118.7" x2="873.5" y2="-158.8"/>
		<line class="st2" x1="962.5" y1="-118.7" x2="962.5" y2="-158.8"/>
		<line class="st2" x1="1051" y1="-118.1" x2="1051" y2="-158.8"/>
		<line class="st2" x1="1139" y1="-118.1" x2="1139" y2="-158.8"/>
		<line class="st2" x1="1226.5" y1="-118.7" x2="1226.5" y2="-158.8"/>
		<line class="st2" x1="1315.5" y1="-118.7" x2="1315.5" y2="-159.4"/>
		<line class="st2" x1="743" y1="-81.1" x2="743" y2="-118.2"/>
		<line class="st2" x1="830.5" y1="-80.7" x2="830.5" y2="-117.7"/>
		<line class="st2" x1="919.5" y1="-80.7" x2="919.5" y2="-117.7"/>
		<line class="st2" x1="1008" y1="-81.1" x2="1008" y2="-118.2"/>
		<line class="st2" x1="1096" y1="-81.1" x2="1096" y2="-118.2"/>
		<line class="st2" x1="1183.5" y1="-80.7" x2="1183.5" y2="-117.7"/>
		<line class="st2" x1="1272.5" y1="-80.7" x2="1272.5" y2="-117.7"/>
		<line class="st2" x1="1361.5" y1="-80.7" x2="1361.5" y2="-117.7"/>
		<line class="st2" x1="698" y1="-44.1" x2="698" y2="-81.2"/>
		<line class="st2" x1="786" y1="-44.1" x2="786" y2="-81.2"/>
		<line class="st2" x1="873.5" y1="-43.7" x2="873.5" y2="-80.7"/>
		<line class="st2" x1="962.5" y1="-43.7" x2="962.5" y2="-80.7"/>
		<line class="st2" x1="1051" y1="-44.1" x2="1051" y2="-81.2"/>
		<line class="st2" x1="1139" y1="-44.1" x2="1139" y2="-81.2"/>
		<line class="st2" x1="1226.5" y1="-43.7" x2="1226.5" y2="-80.7"/>
		<line class="st2" x1="1315.5" y1="-43.7" x2="1315.5" y2="-80.7"/>
		<line class="st2" x1="743" y1="-7.1" x2="743" y2="-44.2"/>
		<line class="st2" x1="830.5" y1="-6.7" x2="830.5" y2="-43.7"/>
		<line class="st2" x1="919.5" y1="-6.7" x2="919.5" y2="-43.7"/>
		<line class="st2" x1="1008" y1="-7.1" x2="1008" y2="-44.2"/>
		<line class="st2" x1="1096" y1="-7.1" x2="1096" y2="-44.2"/>
		<line class="st2" x1="1183.5" y1="-6.7" x2="1183.5" y2="-43.7"/>
		<line class="st2" x1="1272.5" y1="-6.7" x2="1272.5" y2="-43.7"/>
		<line class="st2" x1="1361.5" y1="-6.7" x2="1361.5" y2="-43.7"/>
		<line class="st2" x1="698" y1="29.9" x2="698" y2="-7.2"/>
		<line class="st2" x1="786" y1="29.9" x2="786" y2="-7.2"/>
		<line class="st2" x1="873.5" y1="30.3" x2="873.5" y2="-6.7"/>
		<line class="st2" x1="962.5" y1="30.3" x2="962.5" y2="-6.7"/>
		<line class="st2" x1="1051" y1="29.9" x2="1051" y2="-7.2"/>
		<line class="st2" x1="1139" y1="29.9" x2="1139" y2="-7.2"/>
		<line class="st2" x1="1226.5" y1="30.3" x2="1226.5" y2="-6.7"/>
		<line class="st2" x1="1315.5" y1="30.3" x2="1315.5" y2="-6.7"/>
		<line class="st2" x1="743" y1="66.9" x2="743" y2="29.8"/>
		<line class="st2" x1="830.5" y1="67.3" x2="830.5" y2="30.3"/>
		<line class="st2" x1="919.5" y1="67.3" x2="919.5" y2="30.3"/>
		<line class="st2" x1="1008" y1="66.9" x2="1008" y2="29.8"/>
		<line class="st2" x1="1096" y1="66.9" x2="1096" y2="29.8"/>
		<line class="st2" x1="1183.5" y1="67.3" x2="1183.5" y2="30.3"/>
		<line class="st2" x1="1272.5" y1="67.3" x2="1272.5" y2="30.3"/>
		<line class="st2" x1="1361.5" y1="67.3" x2="1361.5" y2="30.3"/>
		<line class="st2" x1="743" y1="140.9" x2="743" y2="103.8"/>
		<line class="st2" x1="830.5" y1="141.3" x2="830.5" y2="104.3"/>
		<line class="st2" x1="919.5" y1="141.3" x2="919.5" y2="104.3"/>
		<line class="st2" x1="1008" y1="140.9" x2="1008" y2="103.8"/>
		<line class="st2" x1="1096" y1="140.9" x2="1096" y2="103.8"/>
		<line class="st2" x1="1183.5" y1="141.3" x2="1183.5" y2="104.3"/>
		<line class="st2" x1="1272.5" y1="141.3" x2="1272.5" y2="104.3"/>
		<line class="st2" x1="1361.5" y1="141.3" x2="1361.5" y2="104.3"/>
		<line class="st2" x1="743" y1="214.9" x2="743" y2="177.8"/>
		<line class="st2" x1="830.5" y1="215.3" x2="830.5" y2="178.3"/>
		<line class="st2" x1="919.5" y1="215.3" x2="919.5" y2="178.3"/>
		<line class="st2" x1="1008" y1="214.9" x2="1008" y2="177.8"/>
		<line class="st2" x1="1096" y1="214.9" x2="1096" y2="177.8"/>
		<line class="st2" x1="1183.5" y1="215.3" x2="1183.5" y2="178.3"/>
		<line class="st2" x1="1272.5" y1="215.3" x2="1272.5" y2="178.3"/>
		<line class="st2" x1="1361.5" y1="215.3" x2="1361.5" y2="178.3"/>
		<line class="st2" x1="698" y1="255.5" x2="698" y2="214.8"/>
		<line class="st2" x1="786" y1="255.5" x2="786" y2="214.8"/>
		<line class="st2" x1="873.5" y1="256" x2="873.5" y2="215.3"/>
		<line class="st2" x1="962.5" y1="256" x2="962.5" y2="215.3"/>
		<line class="st2" x1="1051" y1="255.5" x2="1051" y2="214.8"/>
		<line class="st2" x1="1139" y1="255.5" x2="1139" y2="214.8"/>
		<line class="st2" x1="1226.5" y1="256" x2="1226.5" y2="215.3"/>
		<line class="st2" x1="1315.5" y1="256" x2="1315.5" y2="215.3"/>
		<line class="st2" x1="698" y1="103.9" x2="698" y2="66.8"/>
		<line class="st2" x1="786" y1="103.9" x2="786" y2="66.8"/>
		<line class="st2" x1="873.5" y1="104.3" x2="873.5" y2="67.3"/>
		<line class="st2" x1="962.5" y1="104.3" x2="962.5" y2="67.3"/>
		<line class="st2" x1="1051" y1="103.9" x2="1051" y2="66.8"/>
		<line class="st2" x1="1139" y1="103.9" x2="1139" y2="66.8"/>
		<line class="st2" x1="1226.5" y1="104.3" x2="1226.5" y2="67.3"/>
		<line class="st2" x1="1315.5" y1="104.3" x2="1315.5" y2="67.3"/>
		<line class="st2" x1="698" y1="177.9" x2="698" y2="140.8"/>
		<line class="st2" x1="786" y1="177.9" x2="786" y2="140.8"/>
		<line class="st2" x1="873.5" y1="178.3" x2="873.5" y2="141.3"/>
		<line class="st2" x1="962.5" y1="178.3" x2="962.5" y2="141.3"/>
		<line class="st2" x1="1051" y1="177.9" x2="1051" y2="140.8"/>
		<line class="st2" x1="1139" y1="177.9" x2="1139" y2="140.8"/>
		<line class="st2" x1="1226.5" y1="178.3" x2="1226.5" y2="141.3"/>
		<line class="st2" x1="1315.5" y1="178.3" x2="1315.5" y2="141.3"/>
	</g>
	<g id="Layer_6_1_">
		<g>
			<line class="st2" x1="-83.5" y1="255.8" x2="1449.5" y2="255.8"/>
		</g>
		<g>
			<line class="st2" x1="-83.5" y1="292.8" x2="1449.5" y2="292.8"/>
		</g>
		<g>
			<line class="st2" x1="-83.5" y1="329.8" x2="1449.5" y2="329.8"/>
		</g>
		<g>
			<line class="st2" x1="-83.5" y1="366.8" x2="1449.5" y2="366.8"/>
		</g>
		<g>
			<line class="st2" x1="-83.5" y1="403.8" x2="1449.5" y2="403.8"/>
		</g>
		<g>
			<line class="st2" x1="-83.5" y1="440.8" x2="1449.5" y2="440.8"/>
		</g>
		<g>
			<line class="st2" x1="-83.5" y1="477.8" x2="1449.5" y2="477.8"/>
		</g>
		<g>
			<line class="st2" x1="-83.5" y1="514.8" x2="1449.5" y2="514.8"/>
		</g>
		<g>
			<line class="st2" x1="-83.5" y1="551.8" x2="1449.5" y2="551.8"/>
		</g>
		<g>
			<line class="st2" x1="-83.5" y1="588.8" x2="1449.5" y2="588.8"/>
		</g>
		<line class="st2" x1="32" y1="292.9" x2="32" y2="255.8"/>
		<line class="st2" x1="119.5" y1="293.3" x2="119.5" y2="256.3"/>
		<line class="st2" x1="208.5" y1="293.3" x2="208.5" y2="256.3"/>
		<line class="st2" x1="297" y1="292.9" x2="297" y2="255.8"/>
		<line class="st2" x1="385" y1="292.9" x2="385" y2="255.8"/>
		<line class="st2" x1="472.5" y1="293.3" x2="472.5" y2="256.3"/>
		<line class="st2" x1="561.5" y1="293.3" x2="561.5" y2="256.3"/>
		<line class="st2" x1="650.5" y1="293.3" x2="650.5" y2="256.3"/>
		<line class="st2" x1="-13" y1="329.9" x2="-13" y2="292.8"/>
		<line class="st2" x1="75" y1="329.9" x2="75" y2="292.8"/>
		<line class="st2" x1="162.5" y1="330.3" x2="162.5" y2="293.3"/>
		<line class="st2" x1="251.5" y1="330.3" x2="251.5" y2="293.3"/>
		<line class="st2" x1="340" y1="329.9" x2="340" y2="292.8"/>
		<line class="st2" x1="428" y1="329.9" x2="428" y2="292.8"/>
		<line class="st2" x1="515.5" y1="330.3" x2="515.5" y2="293.3"/>
		<line class="st2" x1="604.5" y1="330.3" x2="604.5" y2="293.3"/>
		<line class="st2" x1="32" y1="366.9" x2="32" y2="329.8"/>
		<line class="st2" x1="119.5" y1="367.3" x2="119.5" y2="330.3"/>
		<line class="st2" x1="208.5" y1="367.3" x2="208.5" y2="330.3"/>
		<line class="st2" x1="297" y1="366.9" x2="297" y2="329.8"/>
		<line class="st2" x1="385" y1="366.9" x2="385" y2="329.8"/>
		<line class="st2" x1="472.5" y1="367.3" x2="472.5" y2="330.3"/>
		<line class="st2" x1="561.5" y1="367.3" x2="561.5" y2="330.3"/>
		<line class="st2" x1="650.5" y1="367.3" x2="650.5" y2="330.3"/>
		<line class="st2" x1="-13" y1="403.9" x2="-13" y2="366.8"/>
		<line class="st2" x1="75" y1="403.9" x2="75" y2="366.8"/>
		<line class="st2" x1="162.5" y1="404.3" x2="162.5" y2="367.3"/>
		<line class="st2" x1="251.5" y1="404.3" x2="251.5" y2="367.3"/>
		<line class="st2" x1="340" y1="403.9" x2="340" y2="366.8"/>
		<line class="st2" x1="428" y1="403.9" x2="428" y2="366.8"/>
		<line class="st2" x1="515.5" y1="404.3" x2="515.5" y2="367.3"/>
		<line class="st2" x1="604.5" y1="404.3" x2="604.5" y2="367.3"/>
		<line class="st2" x1="32" y1="440.9" x2="32" y2="403.8"/>
		<line class="st2" x1="119.5" y1="441.3" x2="119.5" y2="404.3"/>
		<line class="st2" x1="208.5" y1="441.3" x2="208.5" y2="404.3"/>
		<line class="st2" x1="297" y1="440.9" x2="297" y2="403.8"/>
		<line class="st2" x1="385" y1="440.9" x2="385" y2="403.8"/>
		<line class="st2" x1="472.5" y1="441.3" x2="472.5" y2="404.3"/>
		<line class="st2" x1="561.5" y1="441.3" x2="561.5" y2="404.3"/>
		<line class="st2" x1="650.5" y1="441.3" x2="650.5" y2="404.3"/>
		<line class="st2" x1="32" y1="514.9" x2="32" y2="477.8"/>
		<line class="st2" x1="119.5" y1="515.3" x2="119.5" y2="478.3"/>
		<line class="st2" x1="208.5" y1="515.3" x2="208.5" y2="478.3"/>
		<line class="st2" x1="297" y1="514.9" x2="297" y2="477.8"/>
		<line class="st2" x1="385" y1="514.9" x2="385" y2="477.8"/>
		<line class="st2" x1="472.5" y1="515.3" x2="472.5" y2="478.3"/>
		<line class="st2" x1="561.5" y1="515.3" x2="561.5" y2="478.3"/>
		<line class="st2" x1="650.5" y1="515.3" x2="650.5" y2="478.3"/>
		<line class="st2" x1="32" y1="588.9" x2="32" y2="551.8"/>
		<line class="st2" x1="119.5" y1="589.3" x2="119.5" y2="552.3"/>
		<line class="st2" x1="208.5" y1="589.3" x2="208.5" y2="552.3"/>
		<line class="st2" x1="297" y1="588.9" x2="297" y2="551.8"/>
		<line class="st2" x1="385" y1="588.9" x2="385" y2="551.8"/>
		<line class="st2" x1="472.5" y1="589.3" x2="472.5" y2="552.3"/>
		<line class="st2" x1="561.5" y1="589.3" x2="561.5" y2="552.3"/>
		<line class="st2" x1="650.5" y1="589.3" x2="650.5" y2="552.3"/>
		<line class="st2" x1="-13" y1="635.7" x2="-13" y2="588.8"/>
		<line class="st2" x1="75" y1="635.7" x2="75" y2="588.8"/>
		<line class="st2" x1="162.5" y1="636.3" x2="162.5" y2="589.4"/>
		<line class="st2" x1="251.5" y1="636.3" x2="251.5" y2="589.4"/>
		<line class="st2" x1="340" y1="635.7" x2="340" y2="588.8"/>
		<line class="st2" x1="428" y1="635.7" x2="428" y2="588.8"/>
		<line class="st2" x1="515.5" y1="636.3" x2="515.5" y2="589.4"/>
		<line class="st2" x1="604.5" y1="636.3" x2="604.5" y2="589.4"/>
		<line class="st2" x1="-13" y1="477.9" x2="-13" y2="440.8"/>
		<line class="st2" x1="75" y1="477.9" x2="75" y2="440.8"/>
		<line class="st2" x1="162.5" y1="478.3" x2="162.5" y2="441.3"/>
		<line class="st2" x1="251.5" y1="478.3" x2="251.5" y2="441.3"/>
		<line class="st2" x1="340" y1="477.9" x2="340" y2="440.8"/>
		<line class="st2" x1="428" y1="477.9" x2="428" y2="440.8"/>
		<line class="st2" x1="515.5" y1="478.3" x2="515.5" y2="441.3"/>
		<line class="st2" x1="604.5" y1="478.3" x2="604.5" y2="441.3"/>
		<line class="st2" x1="-13" y1="551.9" x2="-13" y2="514.8"/>
		<line class="st2" x1="75" y1="551.9" x2="75" y2="514.8"/>
		<line class="st2" x1="162.5" y1="552.3" x2="162.5" y2="515.3"/>
		<line class="st2" x1="251.5" y1="552.3" x2="251.5" y2="515.3"/>
		<line class="st2" x1="340" y1="551.9" x2="340" y2="514.8"/>
		<line class="st2" x1="428" y1="551.9" x2="428" y2="514.8"/>
		<line class="st2" x1="515.5" y1="552.3" x2="515.5" y2="515.3"/>
		<line class="st2" x1="604.5" y1="552.3" x2="604.5" y2="515.3"/>
		<line class="st2" x1="743" y1="292.9" x2="743" y2="255.8"/>
		<line class="st2" x1="830.5" y1="293.3" x2="830.5" y2="256.3"/>
		<line class="st2" x1="919.5" y1="293.3" x2="919.5" y2="256.3"/>
		<line class="st2" x1="1008" y1="292.9" x2="1008" y2="255.8"/>
		<line class="st2" x1="1096" y1="292.9" x2="1096" y2="255.8"/>
		<line class="st2" x1="1183.5" y1="293.3" x2="1183.5" y2="256.3"/>
		<line class="st2" x1="1272.5" y1="293.3" x2="1272.5" y2="256.3"/>
		<line class="st2" x1="1361.5" y1="293.3" x2="1361.5" y2="256.3"/>
		<line class="st2" x1="698" y1="329.9" x2="698" y2="292.8"/>
		<line class="st2" x1="786" y1="329.9" x2="786" y2="292.8"/>
		<line class="st2" x1="873.5" y1="330.3" x2="873.5" y2="293.3"/>
		<line class="st2" x1="962.5" y1="330.3" x2="962.5" y2="293.3"/>
		<line class="st2" x1="1051" y1="329.9" x2="1051" y2="292.8"/>
		<line class="st2" x1="1139" y1="329.9" x2="1139" y2="292.8"/>
		<line class="st2" x1="1226.5" y1="330.3" x2="1226.5" y2="293.3"/>
		<line class="st2" x1="1315.5" y1="330.3" x2="1315.5" y2="293.3"/>
		<line class="st2" x1="743" y1="366.9" x2="743" y2="329.8"/>
		<line class="st2" x1="830.5" y1="367.3" x2="830.5" y2="330.3"/>
		<line class="st2" x1="919.5" y1="367.3" x2="919.5" y2="330.3"/>
		<line class="st2" x1="1008" y1="366.9" x2="1008" y2="329.8"/>
		<line class="st2" x1="1096" y1="366.9" x2="1096" y2="329.8"/>
		<line class="st2" x1="1183.5" y1="367.3" x2="1183.5" y2="330.3"/>
		<line class="st2" x1="1272.5" y1="367.3" x2="1272.5" y2="330.3"/>
		<line class="st2" x1="1361.5" y1="367.3" x2="1361.5" y2="330.3"/>
		<line class="st2" x1="698" y1="403.9" x2="698" y2="366.8"/>
		<line class="st2" x1="786" y1="403.9" x2="786" y2="366.8"/>
		<line class="st2" x1="873.5" y1="404.3" x2="873.5" y2="367.3"/>
		<line class="st2" x1="962.5" y1="404.3" x2="962.5" y2="367.3"/>
		<line class="st2" x1="1051" y1="403.9" x2="1051" y2="366.8"/>
		<line class="st2" x1="1139" y1="403.9" x2="1139" y2="366.8"/>
		<line class="st2" x1="1226.5" y1="404.3" x2="1226.5" y2="367.3"/>
		<line class="st2" x1="1315.5" y1="404.3" x2="1315.5" y2="367.3"/>
		<line class="st2" x1="743" y1="440.9" x2="743" y2="403.8"/>
		<line class="st2" x1="830.5" y1="441.3" x2="830.5" y2="404.3"/>
		<line class="st2" x1="919.5" y1="441.3" x2="919.5" y2="404.3"/>
		<line class="st2" x1="1008" y1="440.9" x2="1008" y2="403.8"/>
		<line class="st2" x1="1096" y1="440.9" x2="1096" y2="403.8"/>
		<line class="st2" x1="1183.5" y1="441.3" x2="1183.5" y2="404.3"/>
		<line class="st2" x1="1272.5" y1="441.3" x2="1272.5" y2="404.3"/>
		<line class="st2" x1="1361.5" y1="441.3" x2="1361.5" y2="404.3"/>
		<line class="st2" x1="743" y1="514.9" x2="743" y2="477.8"/>
		<line class="st2" x1="830.5" y1="515.3" x2="830.5" y2="478.3"/>
		<line class="st2" x1="919.5" y1="515.3" x2="919.5" y2="478.3"/>
		<line class="st2" x1="1008" y1="514.9" x2="1008" y2="477.8"/>
		<line class="st2" x1="1096" y1="514.9" x2="1096" y2="477.8"/>
		<line class="st2" x1="1183.5" y1="515.3" x2="1183.5" y2="478.3"/>
		<line class="st2" x1="1272.5" y1="515.3" x2="1272.5" y2="478.3"/>
		<line class="st2" x1="1361.5" y1="515.3" x2="1361.5" y2="478.3"/>
		<line class="st2" x1="743" y1="588.9" x2="743" y2="551.8"/>
		<line class="st2" x1="830.5" y1="589.3" x2="830.5" y2="552.3"/>
		<line class="st2" x1="919.5" y1="589.3" x2="919.5" y2="552.3"/>
		<line class="st2" x1="1008" y1="588.9" x2="1008" y2="551.8"/>
		<line class="st2" x1="1096" y1="588.9" x2="1096" y2="551.8"/>
		<line class="st2" x1="1183.5" y1="589.3" x2="1183.5" y2="552.3"/>
		<line class="st2" x1="1272.5" y1="589.3" x2="1272.5" y2="552.3"/>
		<line class="st2" x1="1361.5" y1="589.3" x2="1361.5" y2="552.3"/>
		<line class="st2" x1="698" y1="635.7" x2="698" y2="588.8"/>
		<line class="st2" x1="786" y1="635.7" x2="786" y2="588.8"/>
		<line class="st2" x1="873.5" y1="636.3" x2="873.5" y2="589.4"/>
		<line class="st2" x1="962.5" y1="636.3" x2="962.5" y2="589.4"/>
		<line class="st2" x1="1051" y1="635.7" x2="1051" y2="588.8"/>
		<line class="st2" x1="1139" y1="635.7" x2="1139" y2="588.8"/>
		<line class="st2" x1="1226.5" y1="636.3" x2="1226.5" y2="589.4"/>
		<line class="st2" x1="1315.5" y1="636.3" x2="1315.5" y2="589.4"/>
		<line class="st2" x1="698" y1="477.9" x2="698" y2="440.8"/>
		<line class="st2" x1="786" y1="477.9" x2="786" y2="440.8"/>
		<line class="st2" x1="873.5" y1="478.3" x2="873.5" y2="441.3"/>
		<line class="st2" x1="962.5" y1="478.3" x2="962.5" y2="441.3"/>
		<line class="st2" x1="1051" y1="477.9" x2="1051" y2="440.8"/>
		<line class="st2" x1="1139" y1="477.9" x2="1139" y2="440.8"/>
		<line class="st2" x1="1226.5" y1="478.3" x2="1226.5" y2="441.3"/>
		<line class="st2" x1="1315.5" y1="478.3" x2="1315.5" y2="441.3"/>
		<line class="st2" x1="698" y1="551.9" x2="698" y2="514.8"/>
		<line class="st2" x1="786" y1="551.9" x2="786" y2="514.8"/>
		<line class="st2" x1="873.5" y1="552.3" x2="873.5" y2="515.3"/>
		<line class="st2" x1="962.5" y1="552.3" x2="962.5" y2="515.3"/>
		<line class="st2" x1="1051" y1="551.9" x2="1051" y2="514.8"/>
		<line class="st2" x1="1139" y1="551.9" x2="1139" y2="514.8"/>
		<line class="st2" x1="1226.5" y1="552.3" x2="1226.5" y2="515.3"/>
		<line class="st2" x1="1315.5" y1="552.3" x2="1315.5" y2="515.3"/>
	</g>
</g>
<g>
	<path class="st3" d="M338.5,375.2c-4,2.7-7.6,6.1-10.5,10.3l-3.5,5.1c-2.2,3.2-3.9,6.7-5,10.2C329.2,395.4,336.2,386,338.5,375.2z"
		/>
	<path class="st3" d="M322.5,431.4c2.8,5.1,6.8,9.7,12,13.2l53.5,36.8c17.7,12.2,41.8,7.7,54-10l3.5-5.1c12.2-17.7,7.7-41.8-10-54
		L382,375.5c-3.1-2.1-6.3-3.7-9.7-4.8C369.5,398.8,350,423,322.5,431.4z"/>
	<path class="st3" d="M298.5,368.9c8.9-13,21.4-22,35.3-26.8c-7.5-13.8-23.1-22.1-39.5-19.8l-64.3,9.2c-9.7,1.4-18,6.2-23.9,13.1
		c13.5,5.9,25.3,16,33.2,29.8l0,0c7,12.4,9.9,25.9,9.2,39.2l37.6-5.4C286.2,394.7,290.2,381,298.5,368.9L298.5,368.9z"/>
	<path class="st3" d="M164.1,383.3L164.1,383.3c-0.6-4.3-0.8-8.6-0.6-12.8c-2.7,0.8-5.4,2-8,3.4L99,406.1
		c-18.6,10.6-25.1,34.3-14.5,53l3.1,5.4c10.6,18.6,34.3,25.1,53,14.5l56.4-32.1c3.9-2.2,7.2-5,10-8.2
		C184.7,429.4,167.7,408.9,164.1,383.3z"/>
	<path class="st3" d="M208.4,388.4c-2.9-5.1-6.8-9.3-11.3-12.5l0.8,5.6c1.7,12.1,8.8,22,18.5,27.8c-0.5-5.3-2.1-10.6-4.9-15.6
		L208.4,388.4z"/>
	<path class="st4" d="M239.2,374.4L239.2,374.4c-7.9-13.8-19.7-24-33.2-29.8c-7.1,8.2-10.7,19.3-9,30.8l0.1,0.5
		c4.5,3.2,8.4,7.4,11.3,12.5l3.1,5.4c2.8,5,4.4,10.3,4.9,15.6c1,10.6-2.4,21.2-9.4,29.2c-2.8,3.2-6.1,5.9-10,8.2L140.6,479
		c-18.6,10.6-42.3,4.1-53-14.5l-3.1-5.4c-10.6-18.6-4.1-42.3,14.5-53l56.4-32.1c2.6-1.5,5.2-2.6,8-3.4c0.4-11.3,3.6-22.1,8.8-31.6
		c-10.1,0.8-20.2,3.7-29.6,9.1l-59.4,33.9c-34,19.4-45.8,62.6-26.5,96.6l0,0c19.4,34,62.6,45.8,96.6,26.5l59.4-33.9
		c11.7-6.7,20.8-16.2,26.9-27.2c5.1-9.3,8.1-19.7,8.8-30.3C249.2,400.4,246.3,386.8,239.2,374.4z"/>
	<path class="st4" d="M291.8,293.5l-67.7,9.7c-22.8,3.3-41.5,17-51.9,35.7c-5.3,9.5-8.4,20.3-8.8,31.6c-0.2,4.2,0,8.5,0.6,12.8l0,0
		c3.7,25.6,20.6,46.1,42.9,55.4c7-8,10.4-18.7,9.4-29.2c-9.7-5.8-16.8-15.8-18.5-27.8l-0.8-5.6l-0.1-0.5c-1.6-11.6,2-22.6,9-30.8
		c5.9-6.9,14.2-11.7,23.9-13.1l64.3-9.2c16.5-2.4,32,6,39.5,19.8c11-3.8,22.9-4.8,34.6-2.9C357.1,308.5,325.5,288.7,291.8,293.5z"/>
	<path class="st4" d="M338.5,375.2c-2.4,10.9-9.3,20.3-19,25.7c-4,2.3-8.6,3.8-13.4,4.5l-20,2.9l-37.6,5.4
		c-0.6,10.6-3.6,21-8.8,30.3c1.5-0.1,3-0.3,4.5-0.5l47.4-6.8l20.2-2.9c3.7-0.5,7.2-1.3,10.6-2.4c27.5-8.3,47-32.5,49.8-60.7
		C360.9,366.9,348.4,368.6,338.5,375.2z"/>
	<path class="st4" d="M453.3,389.5L397,350.7c-8.9-6.1-18.7-9.9-28.7-11.5c-11.6-1.9-23.5-0.9-34.6,2.9
		c-13.8,4.8-26.3,13.8-35.3,26.8l0,0c-8.3,12-12.3,25.7-12.5,39.3l20-2.9c4.9-0.7,9.4-2.3,13.4-4.5c1.1-3.6,2.8-7,5-10.2l3.5-5.1
		c2.9-4.2,6.5-7.7,10.5-10.3c9.9-6.6,22.4-8.3,33.8-4.5c3.4,1.1,6.6,2.7,9.7,4.8l53.5,36.8c17.7,12.2,22.1,36.3,10,54l-3.5,5.1
		c-12.2,17.7-36.3,22.1-54,10l-53.5-36.8c-5.1-3.5-9.2-8.1-12-13.2c-3.4,1-7,1.8-10.6,2.4l-20.2,2.9c5.1,12,13.5,22.8,25.1,30.8
		l56.3,38.8c32.2,22.2,76.3,14,98.5-18.2l0,0C493.7,455.7,485.5,411.6,453.3,389.5z"/>
</g>
<g>
	<path class="st3" d="M742.8,509.4c0.8,14.6-2.8,28.3-9.7,40l61.6,9.4c21.2,3.2,41-11.3,44.3-32.5l0.9-6.2
		c3.2-21.2-11.3-41-32.5-44.3l-64.2-9.8c-6-0.9-11.9-0.4-17.4,1.3C735.6,478.7,741.9,493.3,742.8,509.4L742.8,509.4z"/>
	<path class="st3" d="M665.2,496.6L665.2,496.6c1.4-9,4.4-17.3,8.7-24.8c-1.9-0.2-3.9-0.2-5.9-0.1l-64.8,3.8
		c-21.4,1.2-37.8,19.6-36.5,41l0.4,6.2c1.2,21.4,19.6,37.8,41,36.5l64.8-3.8c3.1-0.2,6.1-0.7,9-1.6
		C668.6,538.7,661.9,518,665.2,496.6z"/>
	<path class="st3" d="M709.4,514.4l-0.4-6.2c-0.4-7.4-2.9-14.2-6.9-19.9c-1.5,3.2-2.5,6.7-3.1,10.3l-0.9,6.2
		c-1.6,10.7,1.3,21.1,7.3,29.1C708.3,528.1,709.8,521.4,709.4,514.4z"/>
	<path class="st4" d="M742.8,509.4L742.8,509.4c-0.9-16.1-7.2-30.6-16.9-42c-7.6-8.9-17.4-15.8-28.4-20c-9.1-3.5-19.1-5.2-29.5-4.6
		l-68.3,4c-39,2.3-68.9,35.8-66.6,74.8v0c2.3,39,35.8,68.9,74.8,66.6l68.3-4c12.4-0.7,23.8-4.6,33.6-10.8c-11-4.2-20.5-11-28-19.6
		c-2.9,0.9-5.9,1.4-9,1.6l-64.8,3.8c-21.4,1.2-39.8-15.1-41-36.5l-0.4-6.2c-1.2-21.4,15.1-39.8,36.5-41l64.8-3.8
		c2-0.1,4-0.1,5.9,0.1c11.6,1.1,21.8,7.3,28.2,16.5c4,5.7,6.5,12.5,6.9,19.9l0.4,6.2c0.4,7-1.1,13.6-4,19.5
		c5.9,7.9,14.7,13.5,25.2,15.1l2.6,0.4C740.1,537.7,743.7,523.9,742.8,509.4z"/>
	<path class="st4" d="M813.5,447.6l-67.6-10.3c-17.5-2.7-34.5,1.3-48.4,10.1c11,4.2,20.8,11.2,28.4,20c5.4-1.7,11.4-2.2,17.4-1.3
		l64.2,9.8c21.2,3.2,35.8,23.1,32.5,44.3l-0.9,6.2c-3.2,21.2-23.1,35.8-44.3,32.5l-61.6-9.4l-2.6-0.4c-10.5-1.6-19.3-7.2-25.2-15.1
		c-6-8.1-9-18.4-7.3-29.1l0.9-6.2c0.6-3.7,1.6-7.1,3.1-10.3c-6.4-9.2-16.6-15.4-28.2-16.5c-4.3,7.4-7.3,15.8-8.7,24.8l0,0
		c-3.3,21.4,3.4,42.1,16.7,57.3c7.5,8.6,17,15.4,28,19.6c4.6,1.8,9.5,3.1,14.6,3.9l67.6,10.3c38.7,5.9,74.8-20.6,80.7-59.3v0
		C878.7,489.7,852.2,453.5,813.5,447.6z"/>
</g>
<g>
	<path class="st3" d="M1249,517.9c-0.1-19.1,7.4-36.4,19.6-49.2c-8.7-6.3-20-8.9-31.3-6.3l-63.3,14.4c-1.9,0.4-3.7,1-5.4,1.6
		c12.4,18.2,16.1,41.9,7.9,64.2l0,0c-1.9,5.1-4.2,9.8-7,14.1c7.1,2.9,15.1,3.7,23.1,1.8l61.6-14.1
		C1250.9,536.3,1249,527.3,1249,517.9L1249,517.9z"/>
	<path class="st3" d="M1317.4,487.1c5.5,24.3-2.2,48.6-18.4,65.2c6.4,4.6,14.2,7.3,22.7,7.2l64.9-0.2c21.4-0.1,38.8-17.5,38.7-39
		l0-6.2c-0.1-21.4-17.5-38.8-39-38.7l-64.9,0.2c-2.5,0-5,0.3-7.4,0.7C1315.4,479.8,1316.5,483.4,1317.4,487.1L1317.4,487.1z"/>
	<path class="st3" d="M1146.1,501.6c-2.4,6.7-3,14.2-1.3,21.6l1.1,5l0.1-0.1C1149.3,519.2,1149.1,509.9,1146.1,501.6z"/>
	<path class="st3" d="M1112.6,533.8c-4.5-19.9-0.2-39.8,10.4-55.5c0,0-0.1,0-0.1-0.1l-60.9-22.4c-20.1-7.4-42.4,2.9-49.8,23.1
		l-2.1,5.9c-7.4,20.1,2.9,42.4,23.1,49.8L1094,557c9.5,3.5,19.5,3,28.1-0.5C1117.8,549.7,1114.5,542.1,1112.6,533.8L1112.6,533.8z"
		/>
	<path class="st3" d="M1285.6,499.7c-1.9,4.6-2.9,9.6-2.9,14.9l0,6.2c0,0.4,0,0.9,0,1.3C1285.8,515.3,1287,507.6,1285.6,499.7z"/>
	<path class="st4" d="M1168.7,478.4c-10.8,4.1-18.8,12.8-22.6,23.2c3,8.3,3.2,17.6-0.1,26.5l-0.1,0.1l-2.1,5.7
		c-3.9,10.6-12,18.5-21.7,22.5c-8.7,3.6-18.6,4-28.1,0.5l-60.9-22.4c-20.1-7.4-30.5-29.7-23.1-49.8l2.1-5.9
		c7.4-20.1,29.7-30.5,49.8-23.1l60.9,22.4c0,0,0.1,0,0.1,0.1c5.8-8.6,13.5-15.9,22.6-21.3c-3.5-2-7.3-3.8-11.2-5.3l-64.2-23.6
		c-36.7-13.5-77.4,5.4-90.9,42.1v0c-13.5,36.7,5.4,77.4,42.1,90.9l64.2,23.6c20.7,7.6,42.7,4.9,60.3-5.5
		c9.3-5.5,17.4-13.1,23.5-22.5c2.8-4.3,5.2-9,7-14.1l0,0C1184.8,520.4,1181,496.6,1168.7,478.4z"/>
	<path class="st4" d="M1232.6,433.8l-66.7,15.2c-7.3,1.7-14.1,4.4-20.2,8c-9.1,5.4-16.8,12.7-22.6,21.3
		c-10.6,15.7-15,35.6-10.4,55.5l0,0c1.9,8.3,5.2,15.9,9.5,22.7c9.7-4,17.8-11.9,21.7-22.5l2.1-5.7l-1.1-5
		c-1.7-7.5-1.1-14.9,1.3-21.6c3.7-10.4,11.8-19,22.6-23.2c1.7-0.7,3.5-1.2,5.4-1.6l63.3-14.4c11.3-2.6,22.6,0.1,31.3,6.3
		c7.6-8,17.1-14.2,27.7-17.9C1279.8,435.5,1256.2,428.4,1232.6,433.8z"/>
	<path class="st4" d="M1317.4,487.1L1317.4,487.1c-0.8-3.7-2-7.3-3.4-10.7c-12.9,2.5-23.5,11.5-28.4,23.4c1.4,7.8,0.2,15.6-2.8,22.4
		c-4.8,10.7-14.4,19.2-26.8,22l-1.7,0.4l-61.6,14.1c-8,1.8-16,1-23.1-1.8c-6.1,9.4-14.2,17-23.5,22.5c15,8.7,33.1,12,51.4,7.9
		l66.7-15.2c2.7-0.6,5.2-1.4,7.8-2.3c10.5-3.7,19.8-9.7,27.2-17.4C1315.2,535.7,1322.9,511.4,1317.4,487.1z"/>
	<path class="st4" d="M1387.9,446.5l-68.4,0.3c-8.1,0-16,1.5-23.2,4c-10.6,3.7-20.1,9.9-27.7,17.9c-12.2,12.8-19.7,30.1-19.6,49.2v0
		c0,9.4,1.9,18.4,5.3,26.7l1.7-0.4c12.4-2.8,22-11.2,26.8-22c0-0.4,0-0.9,0-1.3l0-6.2c0-5.3,1-10.3,2.9-14.9
		c4.9-11.9,15.5-20.8,28.4-23.4c2.4-0.5,4.8-0.7,7.4-0.7l64.9-0.2c21.4-0.1,38.9,17.2,39,38.7l0,6.2c0.1,21.4-17.2,38.9-38.7,39
		l-64.9,0.2c-8.5,0-16.3-2.7-22.7-7.2c-7.4,7.6-16.6,13.7-27.2,17.4c12.7,11.7,29.6,18.8,48.3,18.8l68.4-0.3
		c39.1-0.1,70.7-32,70.6-71.1v0C1458.9,477.9,1427,446.3,1387.9,446.5z"/>
</g>
<path class="st4" d="M87,1101.4L87,1101.4c0,39.1,31.7,70.8,70.8,70.8h68.4c39.1,0,70.8-31.7,70.8-70.8v0
	c0-39.1-31.7-70.8-70.8-70.8h-68.4C118.7,1030.6,87,1062.3,87,1101.4z M224.5,1059.5c21.4,0,38.8,17.4,38.8,38.8v6.2
	c0,21.4-17.4,38.8-38.8,38.8h-64.9c-21.4,0-38.8-17.4-38.8-38.8v-6.2c0-21.4,17.4-38.8,38.8-38.8H224.5z"/>
<path class="st4" d="M991,988.4L991,988.4c0,39.1,31.7,70.8,70.8,70.8h68.4c39.1,0,70.8-31.7,70.8-70.8v0
	c0-39.1-31.7-70.8-70.8-70.8h-68.4C1022.7,917.6,991,949.3,991,988.4z M1128.5,946.5c21.4,0,38.8,17.4,38.8,38.8v6.2
	c0,21.4-17.4,38.8-38.8,38.8h-64.9c-21.4,0-38.8-17.4-38.8-38.8v-6.2c0-21.4,17.4-38.8,38.8-38.8H1128.5z"/>
<path class="st4" d="M804,1243.4L804,1243.4c0,39.1,31.7,70.8,70.8,70.8h68.4c39.1,0,70.8-31.7,70.8-70.8v0
	c0-39.1-31.7-70.8-70.8-70.8h-68.4C835.7,1172.6,804,1204.3,804,1243.4z M941.5,1201.5c21.4,0,38.8,17.4,38.8,38.8v6.2
	c0,21.4-17.4,38.8-38.8,38.8h-64.9c-21.4,0-38.8-17.4-38.8-38.8v-6.2c0-21.4,17.4-38.8,38.8-38.8H941.5z"/>
<path class="st4" d="M89.6,418.2l-180.7,12.3c-8,0.5-14,7.4-13.4,15.4v0c0.5,8,7.4,14,15.4,13.4l180.7-12.3c8-0.5,14-7.4,13.4-15.4
	v0C104.5,423.7,97.6,417.7,89.6,418.2z"/>
<path class="st4" d="M601.2,528.9l-166.7-70.8c-7.3-3.1-15.8,0.3-18.9,7.6v0c-3.1,7.3,0.3,15.8,7.6,18.9l166.7,70.8
	c7.3,3.1,15.8-0.3,18.9-7.6l0,0C612,540.5,608.6,532.1,601.2,528.9z"/>
<path class="st4" d="M1014.3,480.9l-180.5,15c-7.9,0.7-13.9,7.6-13.2,15.6v0c0.7,7.9,7.6,13.9,15.6,13.2l180.5-15
	c7.9-0.7,13.9-7.6,13.2-15.6v0C1029.2,486.2,1022.3,480.2,1014.3,480.9z"/>
<path class="st4" d="M56.8-400.5L56.8-400.5c19.4,34,62.6,45.8,96.6,26.5l59.4-33.9c34-19.4,45.8-62.6,26.5-96.6l0,0
	c-19.4-34-62.6-45.8-96.6-26.5l-59.4,33.9C49.3-477.8,37.4-434.5,56.8-400.5z M155.4-505.1c18.6-10.6,42.3-4.1,53,14.5l3.1,5.4
	c10.6,18.6,4.1,42.3-14.5,53L140.6-400c-18.6,10.6-42.3,4.1-53-14.5l-3.1-5.4c-10.6-18.6-4.1-42.3,14.5-53L155.4-505.1z"/>
<path class="st4" d="M164.1-495.7L164.1-495.7c5.5,38.7,41.4,65.6,80.1,60.1l67.7-9.7c38.7-5.5,65.6-41.4,60.1-80.1v0
	c-5.5-38.7-41.4-65.6-80.1-60.1l-67.7,9.7C185.4-570.3,158.5-534.4,164.1-495.7z M294.2-556.7c21.2-3,40.9,11.7,43.9,33l0.9,6.2
	c3,21.2-11.7,40.9-33,43.9l-64.3,9.2c-21.2,3-40.9-11.7-43.9-33l-0.9-6.2c-3-21.2,11.7-40.9,33-43.9L294.2-556.7z"/>
<path class="st4" d="M298.5-510.1L298.5-510.1c-22.2,32.2-14,76.3,18.2,98.5l56.3,38.8c32.2,22.2,76.3,14,98.5-18.2l0,0
	c22.2-32.2,14-76.3-18.2-98.5L397-528.3C364.8-550.4,320.7-542.3,298.5-510.1z M435.5-466.7c17.7,12.2,22.1,36.3,10,54l-3.5,5.1
	c-12.2,17.7-36.3,22.1-54,10l-53.5-36.8c-17.7-12.2-22.1-36.3-10-54l3.5-5.1c12.2-17.7,36.3-22.1,54-10L435.5-466.7z"/>
<path class="st4" d="M533.2-357.5L533.2-357.5c2.3,39,35.8,68.9,74.8,66.6l68.3-4c39-2.3,68.9-35.8,66.6-74.8v0
	c-2.3-39-35.8-68.9-74.8-66.6l-68.3,4C560.7-430,530.9-396.5,533.2-357.5z M668-407.3c21.4-1.2,39.8,15.1,41,36.5l0.4,6.2
	c1.2,21.4-15.1,39.8-36.5,41l-64.8,3.8c-21.4,1.2-39.8-15.1-41-36.5l-0.4-6.2c-1.2-21.4,15.1-39.8,36.5-41L668-407.3z"/>
<path class="st4" d="M665.2-382.4L665.2-382.4c-5.9,38.7,20.6,74.8,59.3,80.7l67.6,10.3c38.7,5.9,74.8-20.6,80.7-59.3v0
	c5.9-38.7-20.6-74.8-59.3-80.7l-67.6-10.3C707.3-447.6,671.1-421.1,665.2-382.4z M807.4-403.1c21.2,3.2,35.8,23.1,32.5,44.3
	l-0.9,6.2c-3.2,21.2-23.1,35.8-44.3,32.5l-64.2-9.8c-21.2-3.2-35.8-23.1-32.5-44.3l0.9-6.2c3.2-21.2,23.1-35.8,44.3-32.5
	L807.4-403.1z"/>
<path class="st4" d="M979.4-408.7L979.4-408.7c-13.5,36.7,5.4,77.4,42.1,90.9l64.2,23.6c36.7,13.5,77.4-5.4,90.9-42.1l0,0
	c13.5-36.7-5.4-77.4-42.1-90.9l-64.2-23.6C1033.6-464.3,992.9-445.4,979.4-408.7z M1122.9-400.7c20.1,7.4,30.5,29.7,23.1,49.8
	l-2.1,5.9c-7.4,20.1-29.7,30.5-49.8,23.1l-60.9-22.4c-20.1-7.4-30.5-29.7-23.1-49.8l2.1-5.9c7.4-20.1,29.7-30.5,49.8-23.1
	L1122.9-400.7z"/>
<path class="st4" d="M1112.6-345.2L1112.6-345.2c8.7,38.1,46.7,62,84.8,53.3l66.7-15.2c38.1-8.7,62-46.7,53.3-84.8v0
	c-8.7-38.1-46.7-62-84.8-53.3l-66.7,15.2C1127.8-421.3,1103.9-383.3,1112.6-345.2z M1237.3-416.7c20.9-4.8,41.7,8.3,46.5,29.2
	l1.4,6.1c4.8,20.9-8.3,41.7-29.2,46.5l-63.3,14.4c-20.9,4.8-41.7-8.3-46.5-29.2l-1.4-6.1c-4.8-20.9,8.3-41.7,29.2-46.5L1237.3-416.7
	z"/>
<path class="st4" d="M1249-361.1L1249-361.1c0.1,39.1,32,70.7,71.1,70.6l68.4-0.3c39.1-0.1,70.7-32,70.6-71.1v0
	c-0.1-39.1-32-70.7-71.1-70.6l-68.4,0.3C1280.4-432.1,1248.9-400.3,1249-361.1z M1386.3-403.6c21.4-0.1,38.9,17.2,39,38.7l0,6.2
	c0.1,21.4-17.2,38.9-38.7,39l-64.9,0.2c-21.4,0.1-38.9-17.2-39-38.7l0-6.2c-0.1-21.4,17.2-38.9,38.7-39L1386.3-403.6z"/>
<path class="st4" d="M89.6-460.8l-180.7,12.3c-8,0.5-14,7.4-13.4,15.4v0c0.5,8,7.4,14,15.4,13.4l180.7-12.3c8-0.5,14-7.4,13.4-15.4
	v0C104.5-455.3,97.6-461.3,89.6-460.8z"/>
<path class="st4" d="M601.2-350.1l-166.7-70.8c-7.3-3.1-15.8,0.3-18.9,7.6v0c-3.1,7.3,0.3,15.8,7.6,18.9l166.7,70.8
	c7.3,3.1,15.8-0.3,18.9-7.6v0C612-338.5,608.6-346.9,601.2-350.1z"/>
<path class="st4" d="M1014.3-398.1l-180.5,15c-7.9,0.7-13.9,7.6-13.2,15.6v0c0.7,7.9,7.6,13.9,15.6,13.2l180.5-15
	c7.9-0.7,13.9-7.6,13.2-15.6v0C1029.2-392.8,1022.3-398.8,1014.3-398.1z"/>
</svg>
