<?xml version="1.0" encoding="utf-8"?>
<!-- Generator: Adobe Illustrator 22.0.1, SVG Export Plug-In . SVG Version: 6.00 Build 0)  -->
<svg version="1.1" id="Layer_1" xmlns="http://www.w3.org/2000/svg" xmlns:xlink="http://www.w3.org/1999/xlink" x="0px" y="0px"
	 viewBox="0 0 750 412.7" style="enable-background:new 0 0 750 412.7;" xml:space="preserve">
<style type="text/css">
	.st0{fill:#E7E7E7;stroke:#000000;stroke-miterlimit:10;}
	.st1{fill:#E7E7E7;}
</style>
<g>
	<polygon class="st0" points="257,110 247.4,111.6 243.9,102.5 234.8,99 236.4,89.4 230.3,81.9 236.4,74.3 234.8,64.7 243.9,61.2 
		247.4,52.2 257,53.7 264.5,47.6 272.1,53.7 281.7,52.2 285.2,61.2 294.2,64.7 292.7,74.3 298.8,81.9 292.7,89.4 294.2,99 
		285.2,102.5 281.7,111.6 272.1,110 264.5,116.1 	"/>
</g>
<path class="st0" d="M225.5,132.8c0,0,9-25,37-48"/>
<g>
	<polygon class="st0" points="309.2,101.6 297.4,103.4 293.1,92.3 282,88 283.8,76.2 276.3,66.9 283.8,57.6 282,45.7 293.1,41.5 
		297.4,30.3 309.2,32.1 318.5,24.6 327.8,32.1 339.7,30.3 343.9,41.5 355.1,45.7 353.2,57.6 360.8,66.9 353.2,76.2 355.1,88 
		343.9,92.3 339.7,103.4 327.8,101.6 318.5,109.1 	"/>
</g>
<path class="st0" d="M328.1,64.7c0,0,29.4-9.9,64.4,1.1"/>
<g>
	<polygon class="st0" points="383.8,107.6 368.9,110 363.5,95.9 349.4,90.5 351.8,75.6 342.3,63.9 351.8,52.1 349.4,37.2 
		363.5,31.8 368.9,17.7 383.8,20.1 395.5,10.6 407.3,20.1 422.2,17.7 427.6,31.8 441.7,37.2 439.3,52.1 448.8,63.9 439.3,75.6 
		441.7,90.5 427.6,95.9 422.2,110 407.3,107.6 395.5,117.1 	"/>
</g>
<path class="st0" d="M483.5,96.8c0,0-45-23-90-30"/>
<g>
	<polygon class="st0" points="474.2,153.4 456,156.3 449.4,139 432.1,132.4 435,114.2 423.4,99.9 435,85.5 432.1,67.3 449.4,60.7 
		456,43.5 474.2,46.3 488.5,34.7 502.9,46.3 521.1,43.5 527.7,60.7 544.9,67.3 542.1,85.5 553.7,99.9 542.1,114.2 544.9,132.4 
		527.7,139 521.1,156.3 502.9,153.4 488.5,165 	"/>
</g>
<path class="st0" d="M559.5,167.8c0,0-22-47-72-68"/>
<g>
	<polygon class="st0" points="187.6,162.4 174.3,155.2 178.6,140.7 170.7,127.9 181.7,117.5 181.3,102.4 196,98.9 203.2,85.7 
		217.7,90 230.5,82.1 240.9,93 256,92.6 259.5,107.3 272.7,114.5 268.4,129 276.3,141.8 265.4,152.2 265.8,167.3 251.1,170.8 
		243.9,184.1 229.4,179.8 216.6,187.7 206.2,176.7 191.1,177.1 	"/>
</g>
<path class="st0" d="M192.5,225.8c0,0-5-63,31-91"/>
<g>
	<polygon class="st0" points="158.3,285 136.5,282.9 134.1,261.2 116.2,248.6 124.9,228.5 115.9,208.7 133.4,195.6 135.5,173.9 
		157.2,171.4 169.8,153.6 189.9,162.3 209.7,153.2 222.8,170.7 244.5,172.8 247,194.5 264.8,207.1 256.1,227.2 265.2,247.1 
		247.7,260.1 245.6,281.9 223.9,284.3 211.2,302.2 191.2,293.5 171.3,302.5 	"/>
</g>
<g>
	<path d="M1414.5,43.3c45.2,0,89,8.8,130.3,26.3c39.8,16.9,75.6,41,106.4,71.7s54.9,66.5,71.7,106.4c17.4,41.3,26.3,85.1,26.3,130.3
		s-8.8,89-26.3,130.3c-16.9,39.8-41,75.6-71.7,106.4c-30.7,30.7-66.5,54.9-106.4,71.7c-41.3,17.4-85.1,26.3-130.3,26.3
		s-89-8.8-130.3-26.3c-39.8-16.9-75.6-41-106.4-71.7c-30.7-30.7-54.9-66.5-71.7-106.4c-17.4-41.3-26.3-85.1-26.3-130.3
		s8.8-89,26.3-130.3c16.9-39.8,41-75.6,71.7-106.4s66.5-54.9,106.4-71.7C1325.5,52.2,1369.3,43.3,1414.5,43.3 M1414.5,42.3
		c-185.4,0-335.6,150.3-335.6,335.6s150.3,335.6,335.6,335.6s335.6-150.3,335.6-335.6S1599.9,42.3,1414.5,42.3L1414.5,42.3z"/>
</g>
<path class="st0" d="M262.5,300.8c0,0-63-18-70-68"/>
<g>
	<path d="M1415.4,86.4c42.3,0,83.3,8.3,121.9,24.6c37.3,15.8,70.8,38.3,99.5,67.1c28.8,28.8,51.3,62.2,67.1,99.5
		c16.3,38.6,24.6,79.6,24.6,121.9s-8.3,83.3-24.6,121.9c-15.8,37.3-38.3,70.8-67.1,99.5c-28.8,28.8-62.2,51.3-99.5,67.1
		c-38.6,16.3-79.6,24.6-121.9,24.6s-83.3-8.3-121.9-24.6c-37.3-15.8-70.8-38.3-99.5-67.1c-28.8-28.8-51.3-62.2-67.1-99.5
		c-16.3-38.6-24.6-79.6-24.6-121.9s8.3-83.3,24.6-121.9c15.8-37.3,38.3-70.8,67.1-99.5c28.8-28.8,62.2-51.3,99.5-67.1
		C1332.1,94.7,1373.1,86.4,1415.4,86.4 M1415.4,85.4c-173.5,0-314.1,140.6-314.1,314.1s140.6,314.1,314.1,314.1
		s314.1-140.6,314.1-314.1S1588.8,85.4,1415.4,85.4L1415.4,85.4z"/>
</g>
<g>
	<path d="M1414.5,129.5c39.4,0,77.5,7.7,113.5,22.9c34.7,14.7,65.9,35.7,92.7,62.5s47.8,58,62.5,92.7
		c15.2,35.9,22.9,74.1,22.9,113.5s-7.7,77.5-22.9,113.5c-14.7,34.7-35.7,65.9-62.5,92.7s-58,47.8-92.7,62.5
		c-35.9,15.2-74.1,22.9-113.5,22.9s-77.5-7.7-113.5-22.9c-34.7-14.7-65.9-35.7-92.7-62.5s-47.8-58-62.5-92.7
		c-15.2-35.9-22.9-74.1-22.9-113.5s7.7-77.5,22.9-113.5c14.7-34.7,35.7-65.9,62.5-92.7s58-47.8,92.7-62.5
		C1337,137.2,1375.1,129.5,1414.5,129.5 M1414.5,128.5c-161.6,0-292.6,131-292.6,292.6s131,292.6,292.6,292.6s292.6-131,292.6-292.6
		S1576.1,128.5,1414.5,128.5L1414.5,128.5z"/>
</g>
<g>
	<polygon class="st1" points="-113.9,421.4 -314,425.3 -114.8,444.8 -314.6,433.2 -117.6,468.2 -315.8,441 -122.2,491.3 
		-317.7,448.6 -128.6,514.1 -320.1,456 -136.7,536.2 -323.1,463.2 -146.6,557.7 -326.6,470.2 -158.2,578.2 -330.7,476.9 
		-171.3,597.8 -335.4,483.2 -185.9,616.2 -340.5,489.2 -201.8,633.5 -346.1,494.8 -219.1,649.5 -352.1,500 -237.5,664 -358.5,504.6 
		-257.1,677.1 -365.2,508.7 -277.7,688.7 -372.1,512.3 -299.1,698.6 -379.3,515.2 -321.3,706.7 -386.7,517.7 -344,713.1 
		-394.3,519.5 -367.1,717.7 -402.1,520.7 -390.5,720.5 -410,521.3 -414,721.4 -418,521.3 -437.4,720.5 -425.8,520.7 -460.8,717.7 
		-433.6,519.5 -483.9,713.1 -441.2,517.7 -506.7,706.7 -448.6,515.2 -528.8,698.6 -455.8,512.3 -550.3,688.7 -462.8,508.7 
		-570.8,677.1 -469.5,504.6 -590.4,664 -475.8,499.9 -608.8,649.5 -481.8,494.8 -626.1,633.5 -487.4,489.2 -642.1,616.2 
		-492.6,483.2 -656.7,597.8 -497.2,476.9 -669.7,578.2 -501.3,470.2 -681.3,557.6 -504.9,463.2 -691.2,536.2 -507.9,456 
		-699.4,514.1 -510.3,448.6 -705.8,491.3 -512.1,441 -710.3,468.2 -513.3,433.2 -713.1,444.8 -513.9,425.3 -714,421.4 -513.9,417.4 
		-713.1,397.9 -513.3,409.5 -710.3,374.5 -512.1,401.7 -705.8,351.4 -510.3,394.1 -699.4,328.6 -507.9,386.7 -691.2,306.5 
		-504.9,379.5 -681.3,285.1 -501.3,372.5 -669.7,264.5 -497.2,365.8 -656.6,244.9 -492.6,359.5 -642.1,226.5 -487.4,353.5 
		-626.1,209.2 -481.8,347.9 -608.8,193.2 -475.8,342.8 -590.4,178.7 -469.5,338.1 -570.8,165.6 -462.8,334 -550.3,154 -455.8,330.4 
		-528.8,144.1 -448.6,327.5 -506.7,136 -441.2,325.1 -483.9,129.6 -433.6,323.2 -460.8,125 -425.8,322 -437.4,122.2 -418,321.4 
		-414,121.3 -410,321.4 -390.5,122.2 -402.1,322 -367.1,125 -394.3,323.2 -344,129.6 -386.7,325.1 -321.2,136 -379.3,327.5 
		-299.1,144.1 -372.1,330.4 -277.7,154 -365.2,334 -257.1,165.6 -358.5,338.1 -237.5,178.7 -352.1,342.8 -219.1,193.2 -346.1,347.9 
		-201.8,209.2 -340.5,353.5 -185.8,226.5 -335.4,359.5 -171.3,244.9 -330.7,365.9 -158.2,264.5 -326.6,372.5 -146.6,285.1 
		-323.1,379.5 -136.7,306.5 -320.1,386.7 -128.6,328.6 -317.7,394.1 -122.2,351.4 -315.8,401.7 -117.6,374.5 -314.6,409.5 
		-114.8,397.9 -314,417.4 	"/>
</g>
<g>
	<circle class="st1" cx="-806.5" cy="205.8" r="159"/>
	<path d="M-806.5,48.3c42.1,0,81.6,16.4,111.4,46.1c29.7,29.7,46.1,69.3,46.1,111.4s-16.4,81.6-46.1,111.4
		c-29.7,29.7-69.3,46.1-111.4,46.1s-81.6-16.4-111.4-46.1c-29.7-29.7-46.1-69.3-46.1-111.4s16.4-81.6,46.1-111.4
		C-888.1,64.7-848.6,48.3-806.5,48.3 M-806.5,45.3c-88.6,0-160.5,71.9-160.5,160.5s71.9,160.5,160.5,160.5S-646,294.5-646,205.8
		S-717.9,45.3-806.5,45.3L-806.5,45.3z"/>
</g>
<g>
	<polygon class="st0" points="258,375.9 233.8,382.9 221.9,360.6 197.4,354.5 198.3,329.3 180.2,311.7 193.5,290.3 186.5,266.1 
		208.8,254.2 214.9,229.8 240.1,230.6 257.7,212.5 279.1,225.8 303.3,218.9 315.2,241.2 339.6,247.2 338.8,272.4 356.9,290 
		343.6,311.4 350.5,335.6 328.2,347.5 322.2,372 296.9,371.1 279.4,389.2 	"/>
</g>
<g>
	<polygon class="st0" points="529.5,227.7 507.6,226.8 504,205.3 485.5,193.6 493.1,173.1 482.9,153.8 499.7,139.8 500.6,118 
		522.1,114.3 533.8,95.8 554.3,103.4 573.6,93.2 587.6,110 609.4,110.9 613.1,132.5 631.6,144.1 624,164.6 634.2,184 617.4,197.9 
		616.5,219.8 594.9,223.4 583.3,241.9 562.8,234.3 543.4,244.5 	"/>
</g>
<polygon class="st0" points="227.5,-0.2 439.5,412.8 626.5,412.8 272.5,-0.2 "/>
<path class="st0" d="M426.5,272.8c-101,69-161,30-161,30"/>
<path class="st0" d="M426.5,267.8"/>
<path class="st0" d="M265.5,297.8"/>
<path class="st0" d="M561.5,170.8c0,0,51,77-135,107"/>
<path class="st0" d="M419.5,280.8"/>
<path class="st0" d="M548.5,164.8"/>
<g>
	<polygon class="st0" points="403.5,377.6 367.8,383.3 354.9,349.5 321.1,336.6 326.8,300.9 304.1,272.9 326.8,244.8 321.1,209.1 
		354.9,196.2 367.8,162.5 403.5,168.1 431.5,145.4 459.6,168.1 495.3,162.5 508.2,196.2 541.9,209.1 536.3,244.8 559,272.9 
		536.3,300.9 541.9,336.6 508.2,349.5 495.3,383.3 459.6,377.6 431.5,400.3 	"/>
</g>
</svg>
