<?xml version="1.0" encoding="utf-8"?>
<!-- Generator: Adobe Illustrator 22.1.0, SVG Export Plug-In . SVG Version: 6.00 Build 0)  -->
<svg version="1.1" xmlns="http://www.w3.org/2000/svg" xmlns:xlink="http://www.w3.org/1999/xlink" x="0px" y="0px"
	 viewBox="0 0 30 30" style="enable-background:new 0 0 30 30;" xml:space="preserve">
<style type="text/css">
	.st0{fill:#FFEB91;}
	.st1{fill:#6B6E7E;}
	.st2{fill:#64BC46;}
	.st3{fill:#E5E516;}
	.st4{fill:#30313C;}
	.st5{display:none;}
	.st6{display:inline;fill:#F8EE5A;}
</style>
<g id="Layer_3">
	<polyline class="st0" points="-314,20.2 -314,30.2 -291.5,30.2 -291.5,20.2 -314,20.2 	"/>
	<circle class="st0" cx="-299.5" cy="-20.8" r="9.9"/>
	<polygon class="st1" points="-352.2,33 -352.2,32.2 -354.5,32.2 -354.5,31.5 -356,31.5 -356,30 -356.7,30 -356.7,24.5 -358.2,24.5 
		-359.8,24.5 -359.8,30 -360.5,30 -360.5,31.5 -362,31.5 -362,32.2 -364.2,32.2 -364.2,33 -365.7,33 -365.7,34.4 -358.2,34.4 
		-350.8,34.4 -350.8,33 	"/>
	<polygon class="st1" points="22.5,28.2 22.5,27.2 19.7,27.2 19.7,26.3 17.8,26.3 17.8,24.4 16.9,24.4 16.9,17.6 15,17.6 13.1,17.6 
		13.1,24.4 12.2,24.4 12.2,26.3 10.3,26.3 10.3,27.2 7.5,27.2 7.5,28.2 5.6,28.2 5.6,30 15,30 24.4,30 24.4,28.2 	"/>
	<polygon class="st2" points="-409.4,4.9 -409.4,10.3 -410.1,10.3 -410.1,11.8 -411.6,11.8 -411.6,12.6 -413.8,12.6 -413.8,13.3 
		-415.3,13.3 -415.3,14.8 -407.8,14.8 -407.8,4.9 	"/>
	<polyline class="st0" points="-424.7,-6.4 -431.5,-15.4 -409,-15.4 -415.8,-6.4 -424.7,-6.4 	"/>
</g>
<g id="Layer_1">
	<g>
		<defs>
			<rect id="SVGID_1_" x="-451.5" y="23.5" width="24" height="24"/>
		</defs>
		<clipPath id="SVGID_2_">
			<use xlink:href="#SVGID_1_"  style="overflow:visible;"/>
		</clipPath>
		<g transform="matrix(1 0 0 1 3.051758e-05 0)" style="clip-path:url(#SVGID_2_);">
			
				<image style="overflow:visible;" width="32" height="32" xlink:href="favi.png"  transform="matrix(0.75 0 0 0.75 -451.5365 23.5391)">
			</image>
		</g>
	</g>
	<polygon class="st3" points="-412.3,-9.5 -412.3,-8.7 -413.1,-8.7 -413.1,-7.2 -413.8,-7.2 -413.8,-5.7 -414.6,-5.7 -414.6,-4.2 
		-415.3,-4.2 -415.3,-2.7 -416,-2.7 -416,-1.2 -416.8,-1.2 -416.8,-0.4 -417.6,-0.4 -417.6,1.1 -418.3,1.1 -418.3,1.8 -419.1,1.8 
		-419.1,6.3 -418.3,6.3 -418.3,7 -417.5,7 -417.5,7.8 -415.3,7.8 -415.3,7 -414.6,7 -414.6,6.3 -413.1,6.3 -413.1,7.1 -412.3,7.1 
		-412.3,7.8 -410.1,7.8 -410.1,7 -409.4,7 -409.4,6.3 -408.6,6.3 -408.6,5.5 -407.8,5.5 -407.8,-9.5 	"/>
	<polygon class="st4" points="-347.8,21.7 -347.8,21 -348.5,21 -348.5,19.5 -349.2,19.5 -349.2,18.7 -350,18.7 -350,17.2 
		-350.7,17.2 -350.7,15.7 -351.5,15.7 -351.5,14.2 -352.3,14.2 -352.3,12.7 -353,12.7 -353,11.2 -353.8,11.2 -353.8,10.4 
		-358.2,10.4 -362.7,10.4 -362.7,11.2 -363.5,11.2 -363.5,12.7 -364.2,12.7 -364.2,14.2 -365,14.2 -365,15.7 -365.7,15.7 
		-365.7,17.2 -366.5,17.2 -366.5,18.7 -367.2,18.7 -367.2,19.5 -368,19.5 -368,21 -368.7,21 -368.7,21.7 -369.5,21.7 -369.5,26.2 
		-368.7,26.2 -368.7,26.9 -368,26.9 -368,27.7 -365.8,27.7 -365.8,26.9 -365,26.9 -365,26.2 -363.5,26.2 -363.5,27 -362.7,27 
		-362.7,27.7 -360.5,27.7 -360.5,26.9 -359.8,26.9 -359.8,26.2 -359,26.2 -359,25.4 -358.2,25.4 -357.5,25.4 -357.5,26.2 
		-356.7,26.2 -356.7,26.9 -356,26.9 -356,27.7 -353.8,27.7 -353.8,27 -353,27 -353,26.2 -351.5,26.2 -351.5,26.9 -350.7,26.9 
		-350.7,27.7 -348.5,27.7 -348.5,26.9 -347.8,26.9 -347.8,26.2 -347,26.2 -347,21.7 	"/>
	<polygon class="st4" points="28.1,14.1 28.1,13.2 27.2,13.2 27.2,11.3 26.3,11.3 26.3,10.4 25.3,10.4 25.3,8.5 24.4,8.5 24.4,6.6 
		23.4,6.6 23.4,4.7 22.5,4.7 22.5,2.8 21.6,2.8 21.6,1 20.6,1 20.6,0 15,0 9.4,0 9.4,1 8.4,1 8.4,2.8 7.5,2.8 7.5,4.7 6.6,4.7 
		6.6,6.6 5.6,6.6 5.6,8.5 4.7,8.5 4.7,10.4 3.8,10.4 3.8,11.3 2.8,11.3 2.8,13.2 1.9,13.2 1.9,14.1 1,14.1 1,19.7 1.9,19.7 
		1.9,20.6 2.9,20.6 2.9,21.5 5.6,21.5 5.6,20.6 6.5,20.6 6.5,19.7 8.4,19.7 8.4,20.6 9.4,20.6 9.4,21.5 12.1,21.5 12.1,20.6 
		13.1,20.6 13.1,19.7 14,19.7 14,18.7 15,18.7 16,18.7 16,19.7 16.9,19.7 16.9,20.6 17.9,20.6 17.9,21.5 20.6,21.5 20.6,20.6 
		21.6,20.6 21.6,19.7 23.5,19.7 23.5,20.6 24.4,20.6 24.4,21.5 27.1,21.5 27.1,20.6 28.1,20.6 28.1,19.7 29,19.7 29,14.1 	"/>
	<rect x="40.2" y="-5.9" class="st4" width="1.5" height="1.5"/>
	<rect x="40.2" y="-7.4" class="st4" width="1.5" height="1.5"/>
	<rect x="38.7" y="-7.4" class="st4" width="1.5" height="1.5"/>
	<rect x="41.7" y="-7.4" class="st4" width="1.5" height="1.5"/>
	<rect x="40.9" y="-8.1" class="st4" width="1.5" height="1.5"/>
	<rect x="40.2" y="-8.8" class="st4" width="1.5" height="1.5"/>
	<rect x="39.5" y="-6.6" class="st4" width="1.5" height="1.5"/>
	<rect x="40.9" y="-6.6" class="st4" width="1.5" height="1.5"/>
	<rect x="39.5" y="-8.1" class="st4" width="1.5" height="1.5"/>
</g>
<g id="Layer_2" class="st5">
	<rect x="-362.7" y="10.4" class="st6" width="9" height="15"/>
	<rect x="-363.5" y="11.2" class="st6" width="3.9" height="3.1"/>
	<rect x="-364.2" y="12.7" class="st6" width="3.9" height="3.1"/>
</g>
</svg>
