<?xml version="1.0" encoding="utf-8"?>
<!-- Generator: Adobe Illustrator 24.0.1, SVG Export Plug-In . SVG Version: 6.00 Build 0)  -->
<svg version="1.1" id="Layer_1" xmlns="http://www.w3.org/2000/svg" xmlns:xlink="http://www.w3.org/1999/xlink" x="0px" y="0px"
	 viewBox="0 0 91.9 57" style="enable-background:new 0 0 91.9 57;" xml:space="preserve">
<style type="text/css">
	.st0{fill:#CDD6B9;}
	.st1{fill:none;stroke:#B0B6A1;stroke-width:0.75;stroke-miterlimit:10;}
	.st2{opacity:0.2;fill:none;stroke:#000000;stroke-miterlimit:10;enable-background:new    ;}
	.st3{fill:#B0B6A1;stroke:#B0B6A1;stroke-width:0.75;stroke-miterlimit:10;}
	.st4{fill:#FFFA86;stroke:#FFFA86;stroke-miterlimit:10;}
	.st5{fill:#B0B6A1;}
	.st6{fill:#B2AEA1;}
</style>
<ellipse class="st0" cx="-36.7" cy="31.8" rx="12.8" ry="9.1"/>
<line class="st1" x1="-36.7" y1="41.6" x2="-36.7" y2="57.5"/>
<line class="st2" x1="33.9" y1="65.4" x2="30" y2="81.3"/>
<line class="st2" x1="11.9" y1="67.9" x2="21.9" y2="80.8"/>
<line class="st2" x1="5.3" y1="71.5" x2="18.5" y2="81.2"/>
<line class="st2" x1="-0.6" y1="74.5" x2="8.5" y2="88.1"/>
<line class="st2" x1="38.2" y1="70.8" x2="31.7" y2="85.8"/>
<line class="st2" x1="44.1" y1="71.2" x2="41.8" y2="87.4"/>
<line class="st2" x1="49.1" y1="70.2" x2="46.8" y2="86.4"/>
<ellipse class="st3" cx="-36.7" cy="31.8" rx="13.3" ry="9.6"/>
<g>
	<path class="st3" d="M-36.2,55.9c-0.1-1.3-0.1-4.1,1.5-6.8c2.4-4.1,8.1-7.5,11.7-5.4c2,1.2,3.3,4,2.7,6.3c-1.4,5-11,5.8-12.5,5.9
		C-34.2,56-35.4,56-36.2,55.9z"/>
	<path class="st3" d="M-36.6,56.3c-0.1-1.4-0.1-4.3,1.6-7.2c2.6-4.4,8.6-7.9,12.4-5.7c2.1,1.3,3.5,4.3,2.8,6.7
		c-1.3,5.2-11.6,6.1-13.1,6.2S-35.8,56.4-36.6,56.3z"/>
</g>
<g>
	<path class="st3" d="M-37.3,55.9c0.1-1.3,0.1-4.1-1.5-6.8c-2.4-4.1-8-7.5-11.6-5.4c-2,1.2-3.3,4-2.7,6.3c1.3,4.9,10.9,5.7,12.4,5.8
		C-39.4,56-38.2,56-37.3,55.9z"/>
	<path class="st3" d="M-36.8,56.3c0.1-1.4,0.1-4.3-1.6-7.2c-2.6-4.4-8.6-7.9-12.4-5.7c-2.1,1.3-3.5,4.3-2.8,6.7
		c1.3,5.2,11.6,6.1,13.1,6.2C-39,56.4-37.6,56.4-36.8,56.3z"/>
</g>
<path class="st4" d="M111.4,36.7c-0.1-4.7-0.7-10.1-2.5-15.7c-0.3-0.9-0.6-1.8-0.9-2.7c2.1,0,4.3,0,6.4,0c-0.4,1-0.7,2.1-1,3.3
	C111.9,27,111.4,32.2,111.4,36.7z"/>
<path class="st0" d="M-77.9-81.3c-2.8-2.1-5.2-4.7-8.1-6.8c-2.8-2.1-6.4-3.6-9.8-2.9c-3.9,0.7-6.7,4-8.8,7.3c-1.8,2.8-3.3,6-3.1,9.3
	c0.2,4.5,3.5,8.5,7.5,10.6c4,2.2,8.5,3,13,3.7c6.4,1,12.8,2.1,19.2,3.1c0.6,0.1,1.3,0.2,1.8,0.7c0.6,0.6,0.6,1.5,0.5,2.3
	c-0.4,7.9-0.2,15.9,0.6,23.8c0.4,3.4,1,7.2,3.7,9.4c0.4,0.3,0.9,0.6,1.4,0.5c0.3-0.1,0.6-0.3,0.8-0.6c5.5-6.3,6.2-15.3,6.7-23.6
	c0.2-3.8,0.4-7.6,0.2-11.3c1.1,2.2,2.7,4.1,4.7,5.5c1.4-2.4,0.2-5.4-1.1-7.8c6,4.6,13.1,9.6,20.5,8c0.8-2.5-0.7-5.3-2.8-7
	s-4.8-2.3-7.3-3.2c-2.5-0.8-5.1-1.9-6.9-3.9c-2.6-3-2.5-7.4-1.8-11.3c1.8-9.4,6.8-18.3,6.4-27.9c-0.1-2.4-0.6-4.9-1.9-6.9
	c-1.3-2-3.5-3.6-5.9-3.7c-3.9-0.2-7,3.5-7.9,7.2c-0.9,3.8-0.2,7.7,0.1,11.5c0.5,7.1-0.4,14.3-2.8,21c-0.7-0.9-0.7-2.2-1.1-3.3
	c-0.4-1.1-1.5-2.2-2.6-1.8c-3.5,1.5,3.5,8.4-3.2,4.7C-69.9-76.8-74.2-78.7-77.9-81.3z"/>
<path class="st5" d="M113.3-29.4c-3.5-2.6-10.7-7.9-20.2-16.1c0,0-7.8-6.8-8.5-13.8c-0.1-0.5-0.2-1.9,0.7-2.9
	c0.7-0.8,1.5-0.8,2.6-1.1c1.5-0.4,3.8-1.2,5-2.3c2-1.8,2.3-5.9,0.9-8.5c-1.5-2.7-4.2-4.5-7.1-5.5c-5.3-1.9-11.7-1.3-16.1,2.3
	C66.2-73.7,64.4-67,67-62s9.9,7.1,14.5,3.7c2.2,5.5,5.9,10.2,10,14.4c6.1,6.3,13.2,11.5,20.2,16.7c6.9,5.2,13.2,11.1,19.9,16.3
	C124.9-20.2,118.2-25.7,113.3-29.4z"/>
<path class="st5" d="M79.1-81.7c1.8,0,3.5,0.2,5.3,0.5c1.9,0.3,3.7,0.7,5.6,1.1c1.1,0.2,2.2,0.5,3,1.2c1.8,1.3,2.4,3.7,2.7,5.9
	c0.2,2.4,0.2,4.9-0.9,7c-1.8,3.3-5.6,4.7-8.7,6.8c-1.2,0.8-2.4,1.7-3.8,2.3c-2.9,1.3-6.3,0.9-9.5,0.5c-1.4-0.2-2.7-0.4-4.1-0.5
	c-0.5-0.1-1.1-0.1-1.6-0.4s-1-0.7-1.4-1.1c-2.9-3.3-3.6-8.4-1.9-12.4C66.4-76.5,72.8-81.5,79.1-81.7z"/>
<path class="st6" d="M116.4,59.1c1.8,0.2,3.5,0.6,5.2,1c1.9,0.5,3.6,1.1,5.5,1.7c1.1,0.3,2.1,0.7,2.9,1.5c1.7,1.5,2,3.9,2.1,6.1
	c0,2.4-0.3,4.9-1.6,6.9c-2.1,3.1-6.1,4.1-9.4,5.9c-1.3,0.7-2.6,1.4-4,1.9c-3,1-6.4,0.2-9.5-0.5c-1.4-0.3-2.6-0.7-4-0.9
	c-0.5-0.2-1.1-0.2-1.6-0.6c-0.5-0.4-1-0.7-1.3-1.2c-2.4-3.7-2.6-8.8-0.4-12.6C103.2,63,110.2,58.6,116.4,59.1z"/>
<path class="st6" d="M128.4,86.6c1.9,1.2,3.7,2.5,5.4,4c1.9,1.6,3.5,3.2,5.3,4.8c1.1,0.9,2.1,2,2.5,3.2c1.1,2.6,0.2,5.6-0.9,8.1
	c-1.3,2.7-3,5.4-5.5,7c-4.1,2.4-9.1,1.4-13.8,1.7c-1.8,0.1-3.7,0.3-5.6,0c-4-0.5-7.4-3.1-10.6-5.6c-1.4-1.1-2.7-2.2-4.1-3.2
	c-0.5-0.4-1.1-0.8-1.5-1.5c-0.3-0.6-0.6-1.4-0.8-2.1c-0.8-5.4,1.8-11.3,6.3-14.5C111.3,84,121.7,82.7,128.4,86.6z"/>
<path class="st6" d="M45,13.4c2.9,1.8,5.6,3.8,8.1,6c2.9,2.4,5.3,4.8,8,7.2c1.7,1.4,3.2,3,3.8,4.8c1.7,3.9,0.3,8.4-1.4,12.2
	c-2,4.1-4.5,8.1-8.3,10.5c-6.2,3.6-13.7,2.1-20.8,2.6c-2.7,0.2-5.6,0.5-8.4,0c-6-0.8-11.1-4.7-16-8.4C7.9,46.7,6,45,3.9,43.5
	c-0.8-0.6-1.7-1.2-2.3-2.3c-0.5-0.9-0.9-2.1-1.2-3.2c-1.2-8.1,2.7-17,9.5-21.8C19.2,9.5,34.9,7.5,45,13.4z"/>
<path class="st5" d="M109.2,19.8c1.9,0.4,3.9,0.3,5.9,0.5c2.5,0.2,4.9,0.9,7.2,1.6c0.5,0.1,1,0.3,1.4,0c0.3-0.2,0.5-0.4,0.6-0.7
	c1.5-2.6,2.4-5.5,2.6-8.4c0.1-0.7,0.1-1.4-0.1-2c-0.2-0.7-0.5-1.2-0.9-1.8c-2.1-3-5.9-4.7-9.5-4.4c-1.7,0.1-3.4,0.7-5.1,1.3
	c-3,1-6,2.2-9,3.3c-1.5,0.6-3.1,1.2-4.6,1.9c-1,0.4-3.1,0.7-2.1,2c0.6,0.7,2.5,1.1,3.3,1.5c1.2,0.6,2.3,1.4,3.5,2.1
	C104.6,17.9,106.8,19.3,109.2,19.8z"/>
<path class="st6" d="M149.2,88c-2.8,3-4.9,6.6-6.4,10.5c-0.4,1.1-0.8,2.3-0.7,3.5c0.1,1.6,1,3,1.8,4.4c0.8,1.3,1.7,2.6,2.5,3.9
	c0.9,1.3,1.8,2.6,3,3.5c1.4,1.1,3.2,1.5,5,1.8c0.8,0.1,1.5,0.2,2.3,0c1.5-0.4,2.5-1.7,3.3-3c1.1-1.7,1.9-3.6,2.7-5.5
	c1.4-3.2,2.7-6.8,2-10.2c-0.5-2.6-2.1-4.8-4-6.6C157.4,87.1,153.1,83.7,149.2,88z"/>
<path class="st6" d="M170.1,96.3c-1.3,1-2.2,2.4-3.1,3.8c-0.9,1.4-1.9,2.9-2.8,4.3c-0.4,0.6-0.9,1.3-1,2.1c-0.5,2.1,1.1,4,2.7,5.4
	c2.1,1.9,4.5,3.6,7.3,3.8c2.3,0.2,4.6-0.8,6.8-1.7c0.5-0.2,1-0.4,1.5-0.8c0.4-0.4,0.7-1,1-1.5c1.3-2.3,2.9-4.5,4.9-6.3
	c1.4-1.2,2.9-2.5,3.3-4.3c0.5-2.4-1.4-4.5-3.1-6.2c-0.5-0.5-1-0.9-1.6-1.2c-0.7-0.3-1.5-0.4-2.3-0.4c-2.6,0-5,0.5-7.5,1.3
	C174.1,95.2,171.9,95,170.1,96.3z"/>
<path class="st6" d="M130.9,75.9c-0.3,0.2-0.5,0.4-0.7,0.7c-0.2,0.3-0.2,0.7-0.2,1.1c0,1-0.1,2.1-0.1,3.1c-0.1,1.5-0.1,3,0.4,4.4
	c0.4,1.1,1.2,2,2,2.9c1,1.1,1.9,2.3,2.9,3.4c0.6,0.7,1.2,1.4,2.1,1.9c1.3,0.7,2.9,0.4,4.3,0c3-0.8,6.2-2.5,7.2-5.5
	c0.7-2,0.2-4.3-0.6-6.2c-0.9-2-2.1-3.7-3-5.6c-0.2-0.3-0.3-0.7-0.6-0.9c-0.2-0.2-0.4-0.3-0.6-0.4c-2.4-1.2-3.9-2-6.6-1.6
	C134.9,73.5,132.7,74.4,130.9,75.9z"/>
<path class="st6" d="M-154.2,57.3c0.3-9.6,0.6-19.1,1-28.7c0.2-6.5,0.5-13.2,3.8-18.9c1.2-2.1,2.9-4,5-5.2c1.8-0.9,3.9-1.3,5.9-1.6
	c4.1-0.6,8.6-1.1,11.9,1.3c3.1,2.3,4.1,6.4,4.9,10.2c3,14.4,5.4,28.8,7.3,43.4"/>
<g>
	<path class="st6" d="M-77,119.6c-1.5-0.2-2.9-0.6-4.2-1.3c-1.2-0.7-2.2-1.8-3.1-2.9c-2.5-2.7-5.2-5.2-7-8.4
		c-1.7-3.1-2.5-6.6-2.9-10.1c-0.2-2.2-0.3-4.5,0.3-6.6c1.2-3.8,4.9-6.4,8.8-7.1c3.9-0.7,7.9,0.5,11.3,2.4c0.6,0.4,1.4,0.8,2.1,0.7
		c0.8-0.1,1.3-0.8,1.8-1.4c2.8-3.3,7.5-5.3,11.5-3.7c4.2,1.7,6.1,6.6,7.5,10.9c0.5,1.5,1,3,0.7,4.6c-0.1,0.9-0.5,1.7-0.9,2.6
		c-1.6,3.8-3.3,7.5-4.9,11.3c-0.8,1.9-1.7,3.9-3,5.6c-1.3,1.7-3,3.1-5.1,3.5c-2.1,0.4-4.2-0.4-6.4-0.2
		C-72.5,119.6-74.6,119.9-77,119.6z"/>
	<path class="st6" d="M-73.2,88.3c-0.2-1.3-0.5-2.6-1-3.8c-0.4-1-1-1.9-1.4-2.9c-0.7-1.6-1.1-3.4-1.2-5.1c0.6-0.2,1.2-0.3,1.6,0.1
		c0.1,0.1,0.2,0.3,0.3,0.5c1.3,3.6,2.4,7.3,3.5,11"/>
	<path class="st6" d="M-73.5,80.9c0-1.4,0.4-3,1.6-3.7c1-0.7,2.3-0.5,3.6-0.4c0.2,0,0.3,0,0.5,0.1c0.1,0.1,0.2,0.3,0.3,0.4
		c0.7,1.7,0,3.6-0.6,5.3c-0.3,0.9-2,5.5-3.3,5.2c-0.7-0.2-1.3-2.6-1.5-3.2C-73.4,83.5-73.6,82.2-73.5,80.9z"/>
</g>
<path class="st6" d="M3.5,104c0.9-2.1,0.4-4.9-0.9-6.9c-0.5-0.8-1.8-2.7-4.2-3.2c-1.8-0.4-3.7,0.3-4.8,1.8c-0.6,0.8-0.8,1.9-0.8,2.9
	c0,2.5,1.7,4.9,4.1,5.5c0.2,0,0.5,0.1,0.9,0c1.5-0.4,2.5-2.5,2.3-4.2C0,97.9-1.7,96.2-4,95.8c0.4-0.3,1.3-0.9,2.4-0.9
	c2,0,3.3,1.9,3.7,2.5c1.1,1.7,1.7,4.1,0.9,6.1c-1.5,3.9-7.6,5.2-11.9,4.3c-3.5-0.7-7.6-3.2-8.9-7.3c-1.1-3.4,0.1-6.7,1.5-9.5
	c1.5-2.9,3.5-5.6,5.2-8.4c2.1-3.4,3.7-7.6,2.3-11.3c-0.5-1.3-1.4-2.5-2.6-3.2c-1.9-1.1-4.4-0.8-6.3,0.3s-3.4,2.8-4.6,4.6
	c-2.3,3.2-4.1,6.7-5.5,10.4c1.1-5.3-0.2-11-3.3-15.3c-1.6-2.1-3.8-4-6.4-4.3c-2.8-0.2-5.5,1.5-7.1,3.9s-2.1,5.2-2.3,8
	c-0.5,5.7,0.3,11.7,3.5,16.4c2.7,4,5.8,5.9,11.7,9.3c6.1,3.5,13.5,7.6,23,7.2C-5.7,108.7,1.7,108.3,3.5,104z"/>
</svg>
